G04 Layer_Color=16711935*
%FSLAX25Y25*%
%MOIN*%
G70*
G01*
G75*
%ADD26C,0.01000*%
%ADD27C,0.00600*%
G04:AMPARAMS|DCode=279|XSize=27.68mil|YSize=28.08mil|CornerRadius=8.92mil|HoleSize=0mil|Usage=FLASHONLY|Rotation=270.000|XOffset=0mil|YOffset=0mil|HoleType=Round|Shape=RoundedRectangle|*
%AMROUNDEDRECTD279*
21,1,0.02768,0.01024,0,0,270.0*
21,1,0.00984,0.02808,0,0,270.0*
1,1,0.01784,-0.00512,-0.00492*
1,1,0.01784,-0.00512,0.00492*
1,1,0.01784,0.00512,0.00492*
1,1,0.01784,0.00512,-0.00492*
%
%ADD279ROUNDEDRECTD279*%
%ADD283R,0.02572X0.01981*%
G04:AMPARAMS|DCode=287|XSize=27.68mil|YSize=28.08mil|CornerRadius=8.92mil|HoleSize=0mil|Usage=FLASHONLY|Rotation=180.000|XOffset=0mil|YOffset=0mil|HoleType=Round|Shape=RoundedRectangle|*
%AMROUNDEDRECTD287*
21,1,0.02768,0.01024,0,0,180.0*
21,1,0.00984,0.02808,0,0,180.0*
1,1,0.01784,-0.00492,0.00512*
1,1,0.01784,0.00492,0.00512*
1,1,0.01784,0.00492,-0.00512*
1,1,0.01784,-0.00492,-0.00512*
%
%ADD287ROUNDEDRECTD287*%
%ADD291R,0.04540X0.04737*%
%ADD292O,0.05918X0.04737*%
%ADD293R,0.05918X0.04737*%
%ADD294C,0.07493*%
%ADD295R,0.07493X0.07493*%
%ADD296O,0.05721X0.08674*%
%ADD297R,0.05721X0.08674*%
%ADD298C,0.06312*%
%ADD299R,0.06706X0.06706*%
%ADD300C,0.06706*%
%ADD301R,0.06706X0.06706*%
%ADD302R,0.06400X0.06400*%
%ADD303C,0.06400*%
%ADD304C,0.08906*%
%ADD305C,0.00800*%
D26*
X0Y0D02*
Y320000D01*
X260000Y0D02*
Y320000D01*
X0Y0D02*
X260000D01*
X0D02*
Y460000D01*
X260000Y0D02*
Y460000D01*
X0Y0D02*
X260000D01*
D27*
X0D02*
X260000D01*
Y512000D01*
X0D02*
X260000D01*
X0Y0D02*
Y512000D01*
D279*
X108508Y413000D02*
D03*
X104492D02*
D03*
X169508Y413500D02*
D03*
X165492D02*
D03*
X17000Y446000D02*
D03*
X12984D02*
D03*
X247508Y446500D02*
D03*
X243492D02*
D03*
X114008Y421000D02*
D03*
X109992D02*
D03*
X175508D02*
D03*
X171492D02*
D03*
D283*
X148264Y111878D02*
D03*
Y109122D02*
D03*
X143736Y110500D02*
D03*
X148264Y101878D02*
D03*
Y99122D02*
D03*
X143736Y100500D02*
D03*
X8764Y306378D02*
D03*
Y303622D02*
D03*
X4236Y305000D02*
D03*
X8764Y296378D02*
D03*
Y293622D02*
D03*
X4236Y295000D02*
D03*
X8764Y276378D02*
D03*
Y273622D02*
D03*
X4236Y275000D02*
D03*
X8764Y266378D02*
D03*
Y263622D02*
D03*
X4236Y265000D02*
D03*
X8764Y244378D02*
D03*
Y241622D02*
D03*
X4236Y243000D02*
D03*
X8764Y234378D02*
D03*
Y231622D02*
D03*
X4236Y233000D02*
D03*
X8764Y214378D02*
D03*
Y211622D02*
D03*
X4236Y213000D02*
D03*
X8764Y204378D02*
D03*
Y201622D02*
D03*
X4236Y203000D02*
D03*
X117264Y305500D02*
D03*
X112736Y306878D02*
D03*
Y304122D02*
D03*
X117264Y294500D02*
D03*
X112736Y295878D02*
D03*
Y293122D02*
D03*
X117264Y275000D02*
D03*
X112736Y276378D02*
D03*
Y273622D02*
D03*
X117264Y265000D02*
D03*
X112736Y266378D02*
D03*
Y263622D02*
D03*
X117264Y243000D02*
D03*
X112736Y244378D02*
D03*
Y241622D02*
D03*
X117264Y233000D02*
D03*
X112736Y234378D02*
D03*
Y231622D02*
D03*
X117264Y213000D02*
D03*
X112736Y214378D02*
D03*
Y211622D02*
D03*
X117264Y203000D02*
D03*
X112736Y204378D02*
D03*
Y201622D02*
D03*
X8764Y182878D02*
D03*
Y180122D02*
D03*
X4236Y181500D02*
D03*
X8764Y172378D02*
D03*
Y169622D02*
D03*
X4236Y171000D02*
D03*
X8764Y152378D02*
D03*
Y149622D02*
D03*
X4236Y151000D02*
D03*
X8764Y142378D02*
D03*
Y139622D02*
D03*
X4236Y141000D02*
D03*
X8764Y120378D02*
D03*
Y117622D02*
D03*
X4236Y119000D02*
D03*
X8764Y109878D02*
D03*
Y107122D02*
D03*
X4236Y108500D02*
D03*
X8764Y90378D02*
D03*
Y87622D02*
D03*
X4236Y89000D02*
D03*
X8764Y80378D02*
D03*
Y77622D02*
D03*
X4236Y79000D02*
D03*
X117264Y180500D02*
D03*
X112736Y181878D02*
D03*
Y179122D02*
D03*
X117264Y170500D02*
D03*
X112736Y171878D02*
D03*
Y169122D02*
D03*
X117264Y151000D02*
D03*
X112736Y152378D02*
D03*
Y149622D02*
D03*
X117264Y141000D02*
D03*
X112736Y142378D02*
D03*
Y139622D02*
D03*
X117264Y119000D02*
D03*
X112736Y120378D02*
D03*
Y117622D02*
D03*
X117264Y108500D02*
D03*
X112736Y109878D02*
D03*
Y107122D02*
D03*
X117264Y89000D02*
D03*
X112736Y90378D02*
D03*
Y87622D02*
D03*
X117264Y79000D02*
D03*
X112736Y80378D02*
D03*
Y77622D02*
D03*
X148264Y293378D02*
D03*
Y290622D02*
D03*
X143736Y292000D02*
D03*
X148264Y280378D02*
D03*
Y277622D02*
D03*
X143736Y279000D02*
D03*
X148264Y267878D02*
D03*
Y265122D02*
D03*
X143736Y266500D02*
D03*
X148264Y257878D02*
D03*
Y255122D02*
D03*
X143736Y256500D02*
D03*
X148264Y241378D02*
D03*
Y238622D02*
D03*
X143736Y240000D02*
D03*
X148264Y228378D02*
D03*
Y225622D02*
D03*
X143736Y227000D02*
D03*
X148264Y215878D02*
D03*
Y213122D02*
D03*
X143736Y214500D02*
D03*
X148264Y205878D02*
D03*
Y203122D02*
D03*
X143736Y204500D02*
D03*
X255764Y292500D02*
D03*
X251236Y293878D02*
D03*
Y291122D02*
D03*
X255764Y279378D02*
D03*
X251236Y280756D02*
D03*
Y278000D02*
D03*
X255764Y267500D02*
D03*
X251236Y268878D02*
D03*
Y266122D02*
D03*
X255764Y257000D02*
D03*
X251236Y258378D02*
D03*
Y255622D02*
D03*
X255764Y240378D02*
D03*
X251236Y241756D02*
D03*
Y239000D02*
D03*
X255764Y227500D02*
D03*
X251236Y228878D02*
D03*
Y226122D02*
D03*
X255764Y215000D02*
D03*
X251236Y216378D02*
D03*
Y213622D02*
D03*
X255764Y205000D02*
D03*
X251236Y206378D02*
D03*
Y203622D02*
D03*
X148264Y189878D02*
D03*
Y187122D02*
D03*
X143736Y188500D02*
D03*
X148264Y176378D02*
D03*
Y173622D02*
D03*
X143736Y175000D02*
D03*
X148264Y163878D02*
D03*
Y161122D02*
D03*
X143736Y162500D02*
D03*
X148264Y153878D02*
D03*
Y151122D02*
D03*
X143736Y152500D02*
D03*
X148264Y137378D02*
D03*
Y134622D02*
D03*
X143736Y136000D02*
D03*
X148264Y124378D02*
D03*
Y121622D02*
D03*
X143736Y123000D02*
D03*
X255764Y188000D02*
D03*
X251236Y189378D02*
D03*
Y186622D02*
D03*
X255764Y175000D02*
D03*
X251236Y176378D02*
D03*
Y173622D02*
D03*
X255764Y163000D02*
D03*
X251236Y164378D02*
D03*
Y161622D02*
D03*
X255764Y153000D02*
D03*
X251236Y154378D02*
D03*
Y151622D02*
D03*
X255764Y136122D02*
D03*
X251236Y137500D02*
D03*
Y134744D02*
D03*
X255764Y123000D02*
D03*
X251236Y124378D02*
D03*
Y121622D02*
D03*
X255764Y111378D02*
D03*
X251236Y112756D02*
D03*
Y110000D02*
D03*
X255764Y101500D02*
D03*
X251236Y102878D02*
D03*
Y100122D02*
D03*
D287*
X114000Y407992D02*
D03*
Y412008D02*
D03*
X175000Y409492D02*
D03*
Y413508D02*
D03*
X22000Y442000D02*
D03*
Y446016D02*
D03*
X252500Y442492D02*
D03*
Y446508D02*
D03*
X31500Y298492D02*
D03*
Y302508D02*
D03*
Y266492D02*
D03*
Y270508D02*
D03*
Y234500D02*
D03*
Y238516D02*
D03*
Y202492D02*
D03*
Y206508D02*
D03*
X36000Y298492D02*
D03*
Y302508D02*
D03*
Y266492D02*
D03*
Y270508D02*
D03*
Y234492D02*
D03*
Y238508D02*
D03*
Y202492D02*
D03*
Y206508D02*
D03*
X49500Y315992D02*
D03*
Y320008D02*
D03*
Y283984D02*
D03*
Y288000D02*
D03*
Y252000D02*
D03*
Y256016D02*
D03*
Y219992D02*
D03*
Y224008D02*
D03*
X50000Y293492D02*
D03*
Y297508D02*
D03*
Y261500D02*
D03*
Y265516D02*
D03*
Y229492D02*
D03*
Y233508D02*
D03*
Y197492D02*
D03*
Y201508D02*
D03*
X75500Y315992D02*
D03*
Y320008D02*
D03*
Y284000D02*
D03*
Y288016D02*
D03*
Y251992D02*
D03*
Y256008D02*
D03*
Y219992D02*
D03*
Y224008D02*
D03*
X75000Y293492D02*
D03*
Y297508D02*
D03*
Y261500D02*
D03*
Y265516D02*
D03*
Y229492D02*
D03*
Y233508D02*
D03*
Y197492D02*
D03*
Y201508D02*
D03*
X88500Y298492D02*
D03*
Y302508D02*
D03*
Y266492D02*
D03*
Y270508D02*
D03*
Y234492D02*
D03*
Y238508D02*
D03*
Y202492D02*
D03*
Y206508D02*
D03*
X93000Y298492D02*
D03*
Y302508D02*
D03*
Y266492D02*
D03*
Y270508D02*
D03*
Y234500D02*
D03*
Y238516D02*
D03*
Y202492D02*
D03*
Y206508D02*
D03*
X31500Y170500D02*
D03*
Y174516D02*
D03*
Y138492D02*
D03*
Y142508D02*
D03*
Y106492D02*
D03*
Y110508D02*
D03*
Y74500D02*
D03*
Y78516D02*
D03*
X36000Y170492D02*
D03*
Y174508D02*
D03*
Y138492D02*
D03*
Y142508D02*
D03*
Y106492D02*
D03*
Y110508D02*
D03*
Y74492D02*
D03*
Y78508D02*
D03*
X49500Y188000D02*
D03*
Y192016D02*
D03*
Y156000D02*
D03*
Y160016D02*
D03*
Y123992D02*
D03*
Y128008D02*
D03*
Y91992D02*
D03*
Y96008D02*
D03*
X50000Y165500D02*
D03*
Y169516D02*
D03*
Y133492D02*
D03*
Y137508D02*
D03*
Y101492D02*
D03*
Y105508D02*
D03*
Y69492D02*
D03*
Y73508D02*
D03*
X75500Y187992D02*
D03*
Y192008D02*
D03*
Y155992D02*
D03*
Y160008D02*
D03*
Y124000D02*
D03*
Y128016D02*
D03*
Y91992D02*
D03*
Y96008D02*
D03*
X75000Y165492D02*
D03*
Y169508D02*
D03*
Y133492D02*
D03*
Y137508D02*
D03*
X75500Y101500D02*
D03*
Y105516D02*
D03*
X75000Y69500D02*
D03*
Y73516D02*
D03*
X88500Y170492D02*
D03*
Y174508D02*
D03*
Y138500D02*
D03*
Y142516D02*
D03*
Y106492D02*
D03*
Y110508D02*
D03*
Y74492D02*
D03*
Y78508D02*
D03*
X93000Y170492D02*
D03*
Y174508D02*
D03*
Y138500D02*
D03*
Y142516D02*
D03*
Y106492D02*
D03*
Y110508D02*
D03*
Y74492D02*
D03*
Y78508D02*
D03*
X167500Y300492D02*
D03*
Y304508D02*
D03*
Y268492D02*
D03*
Y272508D02*
D03*
Y236500D02*
D03*
Y240516D02*
D03*
Y204492D02*
D03*
Y208508D02*
D03*
X172000Y300492D02*
D03*
Y304508D02*
D03*
Y268492D02*
D03*
Y272508D02*
D03*
Y236500D02*
D03*
Y240516D02*
D03*
Y204492D02*
D03*
Y208508D02*
D03*
X185500Y317992D02*
D03*
Y322008D02*
D03*
Y285992D02*
D03*
Y290008D02*
D03*
Y253992D02*
D03*
Y258008D02*
D03*
Y222000D02*
D03*
Y226016D02*
D03*
X186000Y295492D02*
D03*
Y299508D02*
D03*
Y263492D02*
D03*
Y267508D02*
D03*
Y231492D02*
D03*
Y235508D02*
D03*
Y199492D02*
D03*
Y203508D02*
D03*
X211500Y317992D02*
D03*
Y322008D02*
D03*
Y285992D02*
D03*
Y290008D02*
D03*
Y253992D02*
D03*
Y258008D02*
D03*
Y221992D02*
D03*
Y226008D02*
D03*
X211000Y295492D02*
D03*
Y299508D02*
D03*
Y263492D02*
D03*
Y267508D02*
D03*
Y231492D02*
D03*
Y235508D02*
D03*
Y199492D02*
D03*
Y203508D02*
D03*
X224500Y300492D02*
D03*
Y304508D02*
D03*
Y268492D02*
D03*
Y272508D02*
D03*
Y236492D02*
D03*
Y240508D02*
D03*
Y204492D02*
D03*
Y208508D02*
D03*
X229000Y300492D02*
D03*
Y304508D02*
D03*
Y268492D02*
D03*
Y272508D02*
D03*
Y236492D02*
D03*
Y240508D02*
D03*
Y204492D02*
D03*
Y208508D02*
D03*
X167500Y172492D02*
D03*
Y176508D02*
D03*
Y140484D02*
D03*
Y144500D02*
D03*
Y108492D02*
D03*
Y112508D02*
D03*
Y76492D02*
D03*
Y80508D02*
D03*
X172000Y172492D02*
D03*
Y176508D02*
D03*
Y140484D02*
D03*
Y144500D02*
D03*
Y108492D02*
D03*
Y112508D02*
D03*
Y76492D02*
D03*
Y80508D02*
D03*
X185500Y189984D02*
D03*
Y194000D02*
D03*
Y158000D02*
D03*
Y162016D02*
D03*
Y125992D02*
D03*
Y130008D02*
D03*
Y93957D02*
D03*
Y97972D02*
D03*
X186000Y167484D02*
D03*
Y171500D02*
D03*
Y135492D02*
D03*
Y139508D02*
D03*
Y103492D02*
D03*
Y107508D02*
D03*
Y71500D02*
D03*
Y75516D02*
D03*
X211500Y190000D02*
D03*
Y194016D02*
D03*
Y157992D02*
D03*
Y162008D02*
D03*
Y125992D02*
D03*
Y130008D02*
D03*
Y93984D02*
D03*
Y98000D02*
D03*
X211000Y167484D02*
D03*
Y171500D02*
D03*
X211500Y135484D02*
D03*
Y139500D02*
D03*
Y103484D02*
D03*
Y107500D02*
D03*
Y71492D02*
D03*
Y75508D02*
D03*
X224500Y172492D02*
D03*
Y176508D02*
D03*
Y140492D02*
D03*
Y144508D02*
D03*
Y108492D02*
D03*
Y112508D02*
D03*
Y76484D02*
D03*
Y80500D02*
D03*
X229000Y172492D02*
D03*
Y176508D02*
D03*
Y140492D02*
D03*
Y144508D02*
D03*
Y108500D02*
D03*
Y112516D02*
D03*
Y76492D02*
D03*
Y80508D02*
D03*
D291*
X244496Y492000D02*
D03*
X238000D02*
D03*
X230248D02*
D03*
X223752D02*
D03*
X103748Y349500D02*
D03*
X97252D02*
D03*
X176748D02*
D03*
X170252D02*
D03*
X89248D02*
D03*
X82752D02*
D03*
X162248D02*
D03*
X155752D02*
D03*
X82000Y430500D02*
D03*
X75504D02*
D03*
X186748Y459000D02*
D03*
X180252D02*
D03*
X58000Y430500D02*
D03*
X51504D02*
D03*
X209748Y459000D02*
D03*
X203252D02*
D03*
X34748Y349500D02*
D03*
X28252D02*
D03*
X243248D02*
D03*
X236752D02*
D03*
X20748D02*
D03*
X14252D02*
D03*
X229248D02*
D03*
X222752D02*
D03*
X21996Y491000D02*
D03*
X15500D02*
D03*
X36248D02*
D03*
X29752D02*
D03*
D292*
X17500Y282500D02*
D03*
Y267500D02*
D03*
Y272500D02*
D03*
Y277500D02*
D03*
Y287500D02*
D03*
Y292500D02*
D03*
Y297500D02*
D03*
Y302500D02*
D03*
Y307500D02*
D03*
Y312500D02*
D03*
Y220500D02*
D03*
Y205500D02*
D03*
Y210500D02*
D03*
Y215500D02*
D03*
Y225500D02*
D03*
Y230500D02*
D03*
Y235500D02*
D03*
Y240500D02*
D03*
Y245500D02*
D03*
Y250500D02*
D03*
Y158500D02*
D03*
Y143500D02*
D03*
Y148500D02*
D03*
Y153500D02*
D03*
Y163500D02*
D03*
Y168500D02*
D03*
Y173500D02*
D03*
Y178500D02*
D03*
Y183500D02*
D03*
Y188500D02*
D03*
Y96500D02*
D03*
Y81500D02*
D03*
Y86500D02*
D03*
Y91500D02*
D03*
Y101500D02*
D03*
Y106500D02*
D03*
Y111500D02*
D03*
Y116500D02*
D03*
Y121500D02*
D03*
Y126500D02*
D03*
X243500Y123500D02*
D03*
Y98500D02*
D03*
Y103500D02*
D03*
Y108500D02*
D03*
Y113500D02*
D03*
Y118500D02*
D03*
Y128500D02*
D03*
Y133500D02*
D03*
Y175500D02*
D03*
Y150500D02*
D03*
Y155500D02*
D03*
Y160500D02*
D03*
Y165500D02*
D03*
Y170500D02*
D03*
Y180500D02*
D03*
Y185500D02*
D03*
Y227500D02*
D03*
Y202500D02*
D03*
Y207500D02*
D03*
Y212500D02*
D03*
Y217500D02*
D03*
Y222500D02*
D03*
Y232500D02*
D03*
Y237500D02*
D03*
Y279500D02*
D03*
Y254500D02*
D03*
Y259500D02*
D03*
Y264500D02*
D03*
Y269500D02*
D03*
Y274500D02*
D03*
Y284500D02*
D03*
Y289500D02*
D03*
X100500Y27500D02*
D03*
Y37000D02*
D03*
X23500Y27500D02*
D03*
Y37000D02*
D03*
X107500Y96500D02*
D03*
Y81500D02*
D03*
Y86500D02*
D03*
Y91500D02*
D03*
Y101500D02*
D03*
Y106500D02*
D03*
Y111500D02*
D03*
Y116500D02*
D03*
Y121500D02*
D03*
Y126500D02*
D03*
X153500Y279500D02*
D03*
Y254500D02*
D03*
Y259500D02*
D03*
Y264500D02*
D03*
Y269500D02*
D03*
Y274500D02*
D03*
Y284500D02*
D03*
Y289500D02*
D03*
Y227500D02*
D03*
Y202500D02*
D03*
Y207500D02*
D03*
Y212500D02*
D03*
Y217500D02*
D03*
Y222500D02*
D03*
Y232500D02*
D03*
Y237500D02*
D03*
Y175500D02*
D03*
Y150500D02*
D03*
Y155500D02*
D03*
Y160500D02*
D03*
Y165500D02*
D03*
Y170500D02*
D03*
Y180500D02*
D03*
Y185500D02*
D03*
Y123500D02*
D03*
Y98500D02*
D03*
Y103500D02*
D03*
Y108500D02*
D03*
Y113500D02*
D03*
Y118500D02*
D03*
Y128500D02*
D03*
Y133500D02*
D03*
X107500Y158500D02*
D03*
Y143500D02*
D03*
Y148500D02*
D03*
Y153500D02*
D03*
Y163500D02*
D03*
Y168500D02*
D03*
Y173500D02*
D03*
Y178500D02*
D03*
Y183500D02*
D03*
Y188500D02*
D03*
Y220500D02*
D03*
Y205500D02*
D03*
Y210500D02*
D03*
Y215500D02*
D03*
Y225500D02*
D03*
Y230500D02*
D03*
Y235500D02*
D03*
Y240500D02*
D03*
Y245500D02*
D03*
Y250500D02*
D03*
Y282500D02*
D03*
Y267500D02*
D03*
Y272500D02*
D03*
Y277500D02*
D03*
Y287500D02*
D03*
Y292500D02*
D03*
Y297500D02*
D03*
Y302500D02*
D03*
Y307500D02*
D03*
Y312500D02*
D03*
D293*
X17500Y262500D02*
D03*
Y200500D02*
D03*
Y138500D02*
D03*
Y76500D02*
D03*
X243500Y138500D02*
D03*
Y190500D02*
D03*
Y242500D02*
D03*
Y294500D02*
D03*
X100500Y22500D02*
D03*
Y42000D02*
D03*
X23500Y22500D02*
D03*
Y42000D02*
D03*
X107500Y76500D02*
D03*
X153500Y294500D02*
D03*
Y242500D02*
D03*
Y190500D02*
D03*
Y138500D02*
D03*
X107500D02*
D03*
Y200500D02*
D03*
Y262500D02*
D03*
D294*
X78500Y452000D02*
D03*
X88500D02*
D03*
X58500Y452000D02*
D03*
X108500Y452000D02*
D03*
X98500D02*
D03*
X48500Y452000D02*
D03*
X212500Y438000D02*
D03*
X182500Y438000D02*
D03*
X202500Y438000D02*
D03*
X172500Y438000D02*
D03*
X162500D02*
D03*
X152500D02*
D03*
X26000Y500800D02*
D03*
X16000D02*
D03*
X234500Y482200D02*
D03*
X244500D02*
D03*
D295*
X38500Y452000D02*
D03*
X222500Y438000D02*
D03*
X36000Y500800D02*
D03*
X224500Y482200D02*
D03*
D296*
X70126Y440000D02*
D03*
X78000D02*
D03*
X59102D02*
D03*
X85874D02*
D03*
X191000Y450000D02*
D03*
X202024D02*
D03*
X183126D02*
D03*
X175252D02*
D03*
D297*
X51228Y440000D02*
D03*
X209898Y450000D02*
D03*
D298*
X122300Y496500D02*
D03*
X122200Y459000D02*
D03*
D299*
X95500Y472500D02*
D03*
X83000Y503500D02*
D03*
D300*
X85500Y472500D02*
D03*
X73000Y503500D02*
D03*
X251500Y54500D02*
D03*
Y64500D02*
D03*
Y44500D02*
D03*
Y74500D02*
D03*
Y34500D02*
D03*
Y24500D02*
D03*
Y14500D02*
D03*
X241500Y64500D02*
D03*
Y44500D02*
D03*
Y54500D02*
D03*
Y34500D02*
D03*
Y14500D02*
D03*
Y24500D02*
D03*
D301*
Y74500D02*
D03*
D302*
X136500Y491600D02*
D03*
D303*
Y472000D02*
D03*
D304*
X37800Y406100D02*
D03*
X212200Y411900D02*
D03*
X178600Y51700D02*
D03*
D305*
X130000Y300004D02*
D03*
Y19996D02*
D03*
M02*
