G04 Layer_Color=8388736*
%FSLAX25Y25*%
%MOIN*%
G70*
G01*
G75*
%ADD14R,0.02200X0.07800*%
%ADD26C,0.01000*%
%ADD27C,0.00600*%
G04:AMPARAMS|DCode=279|XSize=27.68mil|YSize=28.08mil|CornerRadius=8.92mil|HoleSize=0mil|Usage=FLASHONLY|Rotation=270.000|XOffset=0mil|YOffset=0mil|HoleType=Round|Shape=RoundedRectangle|*
%AMROUNDEDRECTD279*
21,1,0.02768,0.01024,0,0,270.0*
21,1,0.00984,0.02808,0,0,270.0*
1,1,0.01784,-0.00512,-0.00492*
1,1,0.01784,-0.00512,0.00492*
1,1,0.01784,0.00512,0.00492*
1,1,0.01784,0.00512,-0.00492*
%
%ADD279ROUNDEDRECTD279*%
%ADD280R,0.03359X0.05131*%
%ADD281R,0.04934X0.15761*%
%ADD282R,0.42729X0.33871*%
%ADD283R,0.02572X0.01981*%
%ADD284R,0.08674X0.03162*%
%ADD285R,0.09461X0.03359*%
%ADD286R,0.10249X0.02572*%
G04:AMPARAMS|DCode=287|XSize=27.68mil|YSize=28.08mil|CornerRadius=8.92mil|HoleSize=0mil|Usage=FLASHONLY|Rotation=180.000|XOffset=0mil|YOffset=0mil|HoleType=Round|Shape=RoundedRectangle|*
%AMROUNDEDRECTD287*
21,1,0.02768,0.01024,0,0,180.0*
21,1,0.00984,0.02808,0,0,180.0*
1,1,0.01784,-0.00492,0.00512*
1,1,0.01784,0.00492,0.00512*
1,1,0.01784,0.00492,-0.00512*
1,1,0.01784,-0.00492,-0.00512*
%
%ADD287ROUNDEDRECTD287*%
%ADD288R,0.11312X0.10800*%
%ADD289R,0.03800X0.05800*%
%ADD290R,0.27572X0.08280*%
%ADD291R,0.04540X0.04737*%
%ADD292O,0.05918X0.04737*%
%ADD293R,0.05918X0.04737*%
%ADD294C,0.07493*%
%ADD295R,0.07493X0.07493*%
%ADD296O,0.05721X0.08674*%
%ADD297R,0.05721X0.08674*%
%ADD298C,0.06312*%
%ADD299R,0.06706X0.06706*%
%ADD300C,0.06706*%
%ADD301R,0.06706X0.06706*%
%ADD302R,0.06400X0.06400*%
%ADD303C,0.06400*%
%ADD304C,0.08906*%
%ADD305C,0.00800*%
D14*
X114500Y419700D02*
D03*
X109500D02*
D03*
X114500Y400300D02*
D03*
X109500D02*
D03*
X104500Y419700D02*
D03*
X99500D02*
D03*
Y400300D02*
D03*
X104500D02*
D03*
X176000Y419700D02*
D03*
X171000D02*
D03*
X176000Y400300D02*
D03*
X171000D02*
D03*
X166000Y419700D02*
D03*
X161000D02*
D03*
Y400300D02*
D03*
X166000D02*
D03*
X22500Y453200D02*
D03*
X17500D02*
D03*
X22500Y433800D02*
D03*
X17500D02*
D03*
X12500Y453200D02*
D03*
X7500D02*
D03*
Y433800D02*
D03*
X12500D02*
D03*
X253500Y454200D02*
D03*
X248500D02*
D03*
X253500Y434800D02*
D03*
X248500D02*
D03*
X243500Y454200D02*
D03*
X238500D02*
D03*
Y434800D02*
D03*
X243500D02*
D03*
D26*
X0Y0D02*
Y320000D01*
X260000Y0D02*
Y320000D01*
X0Y0D02*
X260000D01*
X0D02*
Y460000D01*
X260000Y0D02*
Y460000D01*
X0Y0D02*
X260000D01*
D27*
X0D02*
X260000D01*
Y512000D01*
X0D02*
X260000D01*
X0Y0D02*
Y512000D01*
D279*
X34008Y323000D02*
D03*
X29992D02*
D03*
X92508Y408500D02*
D03*
X88492D02*
D03*
X154008Y408000D02*
D03*
X149992D02*
D03*
X92508Y415500D02*
D03*
X88492D02*
D03*
X154016D02*
D03*
X150000D02*
D03*
X246016Y323000D02*
D03*
X242000D02*
D03*
X13508Y461000D02*
D03*
X9492D02*
D03*
X244008Y462000D02*
D03*
X239992D02*
D03*
X138016Y363500D02*
D03*
X134000D02*
D03*
X138508Y385500D02*
D03*
X134492D02*
D03*
X92508Y421000D02*
D03*
X88492D02*
D03*
X154516D02*
D03*
X150500D02*
D03*
X23008Y461000D02*
D03*
X18992D02*
D03*
X254008Y462000D02*
D03*
X249992D02*
D03*
D280*
X138240Y379224D02*
D03*
X134500D02*
D03*
X130760D02*
D03*
X138240Y369776D02*
D03*
X130760D02*
D03*
D281*
X107500Y335497D02*
D03*
X100807D02*
D03*
X94114D02*
D03*
X80728D02*
D03*
X87421D02*
D03*
X180386D02*
D03*
X173693D02*
D03*
X167000D02*
D03*
X153614D02*
D03*
X160307D02*
D03*
X40686D02*
D03*
X33993D02*
D03*
X27300D02*
D03*
X13914D02*
D03*
X20607D02*
D03*
X246686D02*
D03*
X239993D02*
D03*
X233300D02*
D03*
X219914D02*
D03*
X226607D02*
D03*
D282*
X94114Y376048D02*
D03*
X167000D02*
D03*
X27300D02*
D03*
X233300D02*
D03*
D283*
X112028Y25378D02*
D03*
X107500Y26756D02*
D03*
Y24000D02*
D03*
X112264Y39500D02*
D03*
X107736Y40878D02*
D03*
Y38122D02*
D03*
X16500Y26756D02*
D03*
Y24000D02*
D03*
X11972Y25378D02*
D03*
X16264Y40878D02*
D03*
Y38122D02*
D03*
X11736Y39500D02*
D03*
D284*
X210311Y33000D02*
D03*
Y38000D02*
D03*
Y28000D02*
D03*
Y23000D02*
D03*
X186689Y38000D02*
D03*
Y28000D02*
D03*
Y33000D02*
D03*
Y23000D02*
D03*
D285*
X82579Y44500D02*
D03*
Y49500D02*
D03*
Y34500D02*
D03*
Y39500D02*
D03*
Y24500D02*
D03*
Y29500D02*
D03*
Y19500D02*
D03*
Y14500D02*
D03*
X42421Y49500D02*
D03*
Y44500D02*
D03*
Y39500D02*
D03*
Y34500D02*
D03*
Y19500D02*
D03*
Y14500D02*
D03*
Y29500D02*
D03*
Y24500D02*
D03*
D286*
X78051Y315957D02*
D03*
Y313398D02*
D03*
Y318516D02*
D03*
Y308279D02*
D03*
Y310839D02*
D03*
Y305720D02*
D03*
Y303161D02*
D03*
Y300602D02*
D03*
Y298043D02*
D03*
Y295484D02*
D03*
X46949Y315957D02*
D03*
Y318516D02*
D03*
Y310839D02*
D03*
Y308279D02*
D03*
Y313398D02*
D03*
Y303161D02*
D03*
Y305720D02*
D03*
Y295484D02*
D03*
Y298043D02*
D03*
Y300602D02*
D03*
X78051Y283957D02*
D03*
Y281398D02*
D03*
Y286516D02*
D03*
Y276279D02*
D03*
Y278839D02*
D03*
Y273721D02*
D03*
Y271161D02*
D03*
Y268602D02*
D03*
Y266043D02*
D03*
Y263484D02*
D03*
X46949Y283957D02*
D03*
Y286516D02*
D03*
Y278839D02*
D03*
Y276279D02*
D03*
Y281398D02*
D03*
Y271161D02*
D03*
Y273721D02*
D03*
Y263484D02*
D03*
Y266043D02*
D03*
Y268602D02*
D03*
X78051Y251957D02*
D03*
Y249398D02*
D03*
Y254516D02*
D03*
Y244280D02*
D03*
Y246839D02*
D03*
Y241721D02*
D03*
Y239161D02*
D03*
Y236602D02*
D03*
Y234043D02*
D03*
Y231484D02*
D03*
X46949Y251957D02*
D03*
Y254516D02*
D03*
Y246839D02*
D03*
Y244280D02*
D03*
Y249398D02*
D03*
Y239161D02*
D03*
Y241721D02*
D03*
Y231484D02*
D03*
Y234043D02*
D03*
Y236602D02*
D03*
X78051Y219913D02*
D03*
Y217354D02*
D03*
Y222472D02*
D03*
Y212236D02*
D03*
Y214795D02*
D03*
Y209677D02*
D03*
Y207118D02*
D03*
Y204559D02*
D03*
Y202000D02*
D03*
Y199441D02*
D03*
X46949Y219913D02*
D03*
Y222472D02*
D03*
Y214795D02*
D03*
Y212236D02*
D03*
Y217354D02*
D03*
Y207118D02*
D03*
Y209677D02*
D03*
Y199441D02*
D03*
Y202000D02*
D03*
Y204559D02*
D03*
X78051Y187957D02*
D03*
Y185398D02*
D03*
Y190516D02*
D03*
Y180280D02*
D03*
Y182839D02*
D03*
Y177720D02*
D03*
Y175161D02*
D03*
Y172602D02*
D03*
Y170043D02*
D03*
Y167484D02*
D03*
X46949Y187957D02*
D03*
Y190516D02*
D03*
Y182839D02*
D03*
Y180280D02*
D03*
Y185398D02*
D03*
Y175161D02*
D03*
Y177720D02*
D03*
Y167484D02*
D03*
Y170043D02*
D03*
Y172602D02*
D03*
X78051Y155957D02*
D03*
Y153398D02*
D03*
Y158516D02*
D03*
Y148280D02*
D03*
Y150839D02*
D03*
Y145721D02*
D03*
Y143161D02*
D03*
Y140602D02*
D03*
Y138043D02*
D03*
Y135484D02*
D03*
X46949Y155957D02*
D03*
Y158516D02*
D03*
Y150839D02*
D03*
Y148280D02*
D03*
Y153398D02*
D03*
Y143161D02*
D03*
Y145721D02*
D03*
Y135484D02*
D03*
Y138043D02*
D03*
Y140602D02*
D03*
X78051Y123957D02*
D03*
Y121398D02*
D03*
Y126516D02*
D03*
Y116279D02*
D03*
Y118839D02*
D03*
Y113721D02*
D03*
Y111161D02*
D03*
Y108602D02*
D03*
Y106043D02*
D03*
Y103484D02*
D03*
X46949Y123957D02*
D03*
Y126516D02*
D03*
Y118839D02*
D03*
Y116279D02*
D03*
Y121398D02*
D03*
Y111161D02*
D03*
Y113721D02*
D03*
Y103484D02*
D03*
Y106043D02*
D03*
Y108602D02*
D03*
X78051Y91957D02*
D03*
Y89398D02*
D03*
Y94516D02*
D03*
Y84280D02*
D03*
Y86839D02*
D03*
Y81721D02*
D03*
Y79161D02*
D03*
Y76602D02*
D03*
Y74043D02*
D03*
Y71484D02*
D03*
X46949Y91957D02*
D03*
Y94516D02*
D03*
Y86839D02*
D03*
Y84280D02*
D03*
Y89398D02*
D03*
Y79161D02*
D03*
Y81721D02*
D03*
Y71484D02*
D03*
Y74043D02*
D03*
Y76602D02*
D03*
X214051Y317972D02*
D03*
Y315413D02*
D03*
Y320532D02*
D03*
Y307736D02*
D03*
Y312854D02*
D03*
Y310295D02*
D03*
Y305177D02*
D03*
Y302618D02*
D03*
Y297500D02*
D03*
Y300059D02*
D03*
X182949Y320532D02*
D03*
Y315413D02*
D03*
Y317972D02*
D03*
Y310295D02*
D03*
Y307736D02*
D03*
Y312854D02*
D03*
Y302618D02*
D03*
Y305177D02*
D03*
Y297500D02*
D03*
Y300059D02*
D03*
X214051Y285957D02*
D03*
Y283398D02*
D03*
Y288516D02*
D03*
Y278279D02*
D03*
Y280839D02*
D03*
Y275721D02*
D03*
Y273161D02*
D03*
Y270602D02*
D03*
Y268043D02*
D03*
Y265484D02*
D03*
X182949Y285957D02*
D03*
Y288516D02*
D03*
Y280839D02*
D03*
Y278279D02*
D03*
Y283398D02*
D03*
Y273161D02*
D03*
Y275721D02*
D03*
Y268043D02*
D03*
Y265484D02*
D03*
Y270602D02*
D03*
X214051Y253957D02*
D03*
Y251398D02*
D03*
Y256516D02*
D03*
Y246280D02*
D03*
Y248839D02*
D03*
Y243721D02*
D03*
Y241161D02*
D03*
Y238602D02*
D03*
Y236043D02*
D03*
Y233484D02*
D03*
X182949Y253957D02*
D03*
Y256516D02*
D03*
Y248839D02*
D03*
Y246280D02*
D03*
Y251398D02*
D03*
Y241161D02*
D03*
Y243721D02*
D03*
Y236043D02*
D03*
Y233484D02*
D03*
Y238602D02*
D03*
X214051Y221957D02*
D03*
Y219398D02*
D03*
Y224516D02*
D03*
Y214280D02*
D03*
Y216839D02*
D03*
Y211720D02*
D03*
Y209161D02*
D03*
Y206602D02*
D03*
Y204043D02*
D03*
Y201484D02*
D03*
X182949Y221957D02*
D03*
Y224516D02*
D03*
Y216839D02*
D03*
Y214280D02*
D03*
Y219398D02*
D03*
Y209161D02*
D03*
Y211720D02*
D03*
Y201484D02*
D03*
Y204043D02*
D03*
Y206602D02*
D03*
X214051Y189957D02*
D03*
Y187398D02*
D03*
Y192516D02*
D03*
Y182280D02*
D03*
Y184839D02*
D03*
Y179720D02*
D03*
Y177161D02*
D03*
Y174602D02*
D03*
Y172043D02*
D03*
Y169484D02*
D03*
X182949Y189957D02*
D03*
Y192516D02*
D03*
Y184839D02*
D03*
Y182280D02*
D03*
Y187398D02*
D03*
Y177161D02*
D03*
Y179720D02*
D03*
Y172043D02*
D03*
Y169484D02*
D03*
Y174602D02*
D03*
X214051Y157957D02*
D03*
Y155398D02*
D03*
Y160516D02*
D03*
Y150279D02*
D03*
Y152839D02*
D03*
Y147721D02*
D03*
Y145161D02*
D03*
Y142602D02*
D03*
Y140043D02*
D03*
Y137484D02*
D03*
X182949Y157957D02*
D03*
Y160516D02*
D03*
Y152839D02*
D03*
Y150279D02*
D03*
Y155398D02*
D03*
Y145161D02*
D03*
Y147721D02*
D03*
Y140043D02*
D03*
Y137484D02*
D03*
Y142602D02*
D03*
X214051Y125957D02*
D03*
Y123398D02*
D03*
Y128516D02*
D03*
Y118280D02*
D03*
Y120839D02*
D03*
Y115720D02*
D03*
Y113161D02*
D03*
Y110602D02*
D03*
Y108043D02*
D03*
Y105484D02*
D03*
X182949Y125957D02*
D03*
Y128516D02*
D03*
Y120839D02*
D03*
Y118280D02*
D03*
Y123398D02*
D03*
Y113161D02*
D03*
Y115720D02*
D03*
Y108043D02*
D03*
Y105484D02*
D03*
Y110602D02*
D03*
X214051Y93957D02*
D03*
Y91398D02*
D03*
Y96516D02*
D03*
Y86279D02*
D03*
Y88839D02*
D03*
Y83720D02*
D03*
Y81161D02*
D03*
Y78602D02*
D03*
Y76043D02*
D03*
Y73484D02*
D03*
X182949Y93957D02*
D03*
Y96516D02*
D03*
Y88839D02*
D03*
Y86279D02*
D03*
Y91398D02*
D03*
Y81161D02*
D03*
Y83720D02*
D03*
Y76043D02*
D03*
Y73484D02*
D03*
Y78602D02*
D03*
D287*
X145000Y329992D02*
D03*
Y334008D02*
D03*
X17500Y421992D02*
D03*
Y426008D02*
D03*
X248500Y423492D02*
D03*
Y427508D02*
D03*
X92500Y24992D02*
D03*
Y29008D02*
D03*
Y35000D02*
D03*
Y39016D02*
D03*
Y9992D02*
D03*
Y14008D02*
D03*
X32500Y25000D02*
D03*
Y29016D02*
D03*
Y34992D02*
D03*
Y39008D02*
D03*
X30500Y309992D02*
D03*
Y314008D02*
D03*
X36000Y304992D02*
D03*
Y309008D02*
D03*
X30500Y277992D02*
D03*
Y282008D02*
D03*
X36000Y272992D02*
D03*
Y277008D02*
D03*
X30500Y245992D02*
D03*
Y250008D02*
D03*
X36000Y240992D02*
D03*
Y245008D02*
D03*
X30500Y213992D02*
D03*
Y218008D02*
D03*
X36000Y208992D02*
D03*
Y213008D02*
D03*
X89000Y309992D02*
D03*
Y314008D02*
D03*
X94500Y304992D02*
D03*
Y309008D02*
D03*
X89000Y277992D02*
D03*
Y282008D02*
D03*
X94500Y272992D02*
D03*
Y277008D02*
D03*
X89000Y245992D02*
D03*
Y250008D02*
D03*
X94500Y240992D02*
D03*
Y245008D02*
D03*
X89000Y213992D02*
D03*
Y218008D02*
D03*
X94500Y208992D02*
D03*
Y213008D02*
D03*
X30500Y181992D02*
D03*
Y186008D02*
D03*
X36000Y176992D02*
D03*
Y181008D02*
D03*
X30500Y149992D02*
D03*
Y154008D02*
D03*
X36000Y144992D02*
D03*
Y149008D02*
D03*
X30500Y117992D02*
D03*
Y122008D02*
D03*
X36000Y112992D02*
D03*
Y117008D02*
D03*
X30500Y85992D02*
D03*
Y90008D02*
D03*
X36000Y80992D02*
D03*
Y85008D02*
D03*
X89000Y181992D02*
D03*
Y186008D02*
D03*
X94500Y176992D02*
D03*
Y181008D02*
D03*
X89000Y149992D02*
D03*
Y154008D02*
D03*
X94500Y144992D02*
D03*
Y149008D02*
D03*
X89000Y117992D02*
D03*
Y122008D02*
D03*
X94500Y113000D02*
D03*
Y117016D02*
D03*
X89000Y85992D02*
D03*
Y90008D02*
D03*
X94500Y80492D02*
D03*
Y84508D02*
D03*
X161500Y290000D02*
D03*
Y294016D02*
D03*
Y277492D02*
D03*
Y281508D02*
D03*
Y265492D02*
D03*
Y269508D02*
D03*
Y254992D02*
D03*
Y259008D02*
D03*
Y237492D02*
D03*
Y241508D02*
D03*
Y225992D02*
D03*
Y230008D02*
D03*
Y212992D02*
D03*
Y217008D02*
D03*
Y202992D02*
D03*
Y207008D02*
D03*
X230500Y311992D02*
D03*
Y316008D02*
D03*
X225000Y306992D02*
D03*
Y311008D02*
D03*
X230500Y280492D02*
D03*
Y284508D02*
D03*
X225000Y274992D02*
D03*
Y279008D02*
D03*
X230500Y247992D02*
D03*
Y252008D02*
D03*
X225000Y242992D02*
D03*
Y247008D02*
D03*
X230500Y215992D02*
D03*
Y220008D02*
D03*
X225000Y210992D02*
D03*
Y215008D02*
D03*
X161500Y185992D02*
D03*
Y190008D02*
D03*
Y173492D02*
D03*
Y177508D02*
D03*
Y160992D02*
D03*
Y165008D02*
D03*
Y150992D02*
D03*
Y155008D02*
D03*
Y133992D02*
D03*
Y138008D02*
D03*
Y121492D02*
D03*
Y125508D02*
D03*
Y108992D02*
D03*
Y113008D02*
D03*
Y98992D02*
D03*
Y103008D02*
D03*
X230500Y183992D02*
D03*
Y188008D02*
D03*
X225000Y178992D02*
D03*
Y183008D02*
D03*
Y151992D02*
D03*
Y156008D02*
D03*
X230500Y146992D02*
D03*
Y151008D02*
D03*
X225000Y119992D02*
D03*
Y124008D02*
D03*
X230500Y114992D02*
D03*
Y119008D02*
D03*
X225000Y87992D02*
D03*
Y92008D02*
D03*
X230500Y82992D02*
D03*
Y87008D02*
D03*
X124000Y369492D02*
D03*
Y373508D02*
D03*
X116000Y498492D02*
D03*
Y502508D02*
D03*
X4500Y460992D02*
D03*
Y465008D02*
D03*
X235000Y461992D02*
D03*
Y466008D02*
D03*
X179000Y17992D02*
D03*
Y22008D02*
D03*
X90000Y44984D02*
D03*
Y49000D02*
D03*
X217500Y17992D02*
D03*
Y22008D02*
D03*
X35000Y44992D02*
D03*
Y49008D02*
D03*
D288*
X102712Y502000D02*
D03*
D289*
X93500D02*
D03*
D290*
X165500Y491579D02*
D03*
Y471500D02*
D03*
D291*
X128748Y504000D02*
D03*
X122252D02*
D03*
D292*
X17500Y282500D02*
D03*
Y267500D02*
D03*
Y272500D02*
D03*
Y277500D02*
D03*
Y287500D02*
D03*
Y292500D02*
D03*
Y297500D02*
D03*
Y302500D02*
D03*
Y307500D02*
D03*
Y312500D02*
D03*
Y220500D02*
D03*
Y205500D02*
D03*
Y210500D02*
D03*
Y215500D02*
D03*
Y225500D02*
D03*
Y230500D02*
D03*
Y235500D02*
D03*
Y240500D02*
D03*
Y245500D02*
D03*
Y250500D02*
D03*
Y158500D02*
D03*
Y143500D02*
D03*
Y148500D02*
D03*
Y153500D02*
D03*
Y163500D02*
D03*
Y168500D02*
D03*
Y173500D02*
D03*
Y178500D02*
D03*
Y183500D02*
D03*
Y188500D02*
D03*
Y96500D02*
D03*
Y81500D02*
D03*
Y86500D02*
D03*
Y91500D02*
D03*
Y101500D02*
D03*
Y106500D02*
D03*
Y111500D02*
D03*
Y116500D02*
D03*
Y121500D02*
D03*
Y126500D02*
D03*
X243500Y123500D02*
D03*
Y98500D02*
D03*
Y103500D02*
D03*
Y108500D02*
D03*
Y113500D02*
D03*
Y118500D02*
D03*
Y128500D02*
D03*
Y133500D02*
D03*
Y175500D02*
D03*
Y150500D02*
D03*
Y155500D02*
D03*
Y160500D02*
D03*
Y165500D02*
D03*
Y170500D02*
D03*
Y180500D02*
D03*
Y185500D02*
D03*
Y227500D02*
D03*
Y202500D02*
D03*
Y207500D02*
D03*
Y212500D02*
D03*
Y217500D02*
D03*
Y222500D02*
D03*
Y232500D02*
D03*
Y237500D02*
D03*
Y279500D02*
D03*
Y254500D02*
D03*
Y259500D02*
D03*
Y264500D02*
D03*
Y269500D02*
D03*
Y274500D02*
D03*
Y284500D02*
D03*
Y289500D02*
D03*
X100500Y27500D02*
D03*
Y37000D02*
D03*
X23500Y27500D02*
D03*
Y37000D02*
D03*
X107500Y96500D02*
D03*
Y81500D02*
D03*
Y86500D02*
D03*
Y91500D02*
D03*
Y101500D02*
D03*
Y106500D02*
D03*
Y111500D02*
D03*
Y116500D02*
D03*
Y121500D02*
D03*
Y126500D02*
D03*
X153500Y279500D02*
D03*
Y254500D02*
D03*
Y259500D02*
D03*
Y264500D02*
D03*
Y269500D02*
D03*
Y274500D02*
D03*
Y284500D02*
D03*
Y289500D02*
D03*
Y227500D02*
D03*
Y202500D02*
D03*
Y207500D02*
D03*
Y212500D02*
D03*
Y217500D02*
D03*
Y222500D02*
D03*
Y232500D02*
D03*
Y237500D02*
D03*
Y175500D02*
D03*
Y150500D02*
D03*
Y155500D02*
D03*
Y160500D02*
D03*
Y165500D02*
D03*
Y170500D02*
D03*
Y180500D02*
D03*
Y185500D02*
D03*
Y123500D02*
D03*
Y98500D02*
D03*
Y103500D02*
D03*
Y108500D02*
D03*
Y113500D02*
D03*
Y118500D02*
D03*
Y128500D02*
D03*
Y133500D02*
D03*
X107500Y158500D02*
D03*
Y143500D02*
D03*
Y148500D02*
D03*
Y153500D02*
D03*
Y163500D02*
D03*
Y168500D02*
D03*
Y173500D02*
D03*
Y178500D02*
D03*
Y183500D02*
D03*
Y188500D02*
D03*
Y220500D02*
D03*
Y205500D02*
D03*
Y210500D02*
D03*
Y215500D02*
D03*
Y225500D02*
D03*
Y230500D02*
D03*
Y235500D02*
D03*
Y240500D02*
D03*
Y245500D02*
D03*
Y250500D02*
D03*
Y282500D02*
D03*
Y267500D02*
D03*
Y272500D02*
D03*
Y277500D02*
D03*
Y287500D02*
D03*
Y292500D02*
D03*
Y297500D02*
D03*
Y302500D02*
D03*
Y307500D02*
D03*
Y312500D02*
D03*
D293*
X17500Y262500D02*
D03*
Y200500D02*
D03*
Y138500D02*
D03*
Y76500D02*
D03*
X243500Y138500D02*
D03*
Y190500D02*
D03*
Y242500D02*
D03*
Y294500D02*
D03*
X100500Y22500D02*
D03*
Y42000D02*
D03*
X23500Y22500D02*
D03*
Y42000D02*
D03*
X107500Y76500D02*
D03*
X153500Y294500D02*
D03*
Y242500D02*
D03*
Y190500D02*
D03*
Y138500D02*
D03*
X107500D02*
D03*
Y200500D02*
D03*
Y262500D02*
D03*
D294*
X78500Y452000D02*
D03*
X88500D02*
D03*
X58500Y452000D02*
D03*
X108500Y452000D02*
D03*
X98500D02*
D03*
X48500Y452000D02*
D03*
X212500Y438000D02*
D03*
X182500Y438000D02*
D03*
X202500Y438000D02*
D03*
X172500Y438000D02*
D03*
X162500D02*
D03*
X152500D02*
D03*
X26000Y500800D02*
D03*
X16000D02*
D03*
X234500Y482200D02*
D03*
X244500D02*
D03*
D295*
X38500Y452000D02*
D03*
X222500Y438000D02*
D03*
X36000Y500800D02*
D03*
X224500Y482200D02*
D03*
D296*
X70126Y440000D02*
D03*
X78000D02*
D03*
X59102D02*
D03*
X85874D02*
D03*
X191000Y450000D02*
D03*
X202024D02*
D03*
X183126D02*
D03*
X175252D02*
D03*
D297*
X51228Y440000D02*
D03*
X209898Y450000D02*
D03*
D298*
X122300Y496500D02*
D03*
X122200Y459000D02*
D03*
D299*
X95500Y472500D02*
D03*
X83000Y503500D02*
D03*
D300*
X85500Y472500D02*
D03*
X73000Y503500D02*
D03*
X251500Y54500D02*
D03*
Y64500D02*
D03*
Y44500D02*
D03*
Y74500D02*
D03*
Y34500D02*
D03*
Y24500D02*
D03*
Y14500D02*
D03*
X241500Y64500D02*
D03*
Y44500D02*
D03*
Y54500D02*
D03*
Y34500D02*
D03*
Y14500D02*
D03*
Y24500D02*
D03*
D301*
Y74500D02*
D03*
D302*
X136500Y491600D02*
D03*
D303*
Y472000D02*
D03*
D304*
X37800Y406100D02*
D03*
X212200Y411900D02*
D03*
X178600Y51700D02*
D03*
D305*
X130000Y300004D02*
D03*
Y19996D02*
D03*
M02*
