G04 Layer_Color=2752767*
%FSLAX25Y25*%
%MOIN*%
G70*
G01*
G75*
%ADD26C,0.01000*%
%ADD27C,0.00600*%
%ADD321C,0.00200*%
%ADD322C,0.00267*%
D26*
X0Y0D02*
Y320000D01*
X260000Y0D02*
Y320000D01*
X0Y0D02*
X260000D01*
X0D02*
Y460000D01*
X260000Y0D02*
Y460000D01*
X0Y0D02*
X260000D01*
D27*
X0D02*
X260000D01*
Y512000D01*
X0D02*
X260000D01*
X0Y0D02*
Y512000D01*
D321*
X16700Y281700D02*
Y283300D01*
X18300D01*
Y281700D01*
X16700D01*
Y219700D02*
Y221300D01*
X18300D01*
Y219700D01*
X16700D01*
Y157700D02*
Y159300D01*
X18300D01*
Y157700D01*
X16700D01*
Y95700D02*
Y97300D01*
X18300D01*
Y95700D01*
X16700D01*
X242700Y122700D02*
Y124300D01*
X244300D01*
Y122700D01*
X242700D01*
Y174700D02*
Y176300D01*
X244300D01*
Y174700D01*
X242700D01*
Y226700D02*
Y228300D01*
X244300D01*
Y226700D01*
X242700D01*
Y278700D02*
Y280300D01*
X244300D01*
Y278700D01*
X242700D01*
X78500Y451200D02*
X77700Y452800D01*
X79300D01*
X78500Y451200D01*
X88500D02*
X87700Y452800D01*
X89300D01*
X88500Y451200D01*
X58500Y451200D02*
X57700Y452800D01*
X59300D01*
X58500Y451200D01*
X108500Y451200D02*
X107700Y452800D01*
X109300D01*
X108500Y451200D01*
X98500D02*
X97700Y452800D01*
X99300D01*
X98500Y451200D01*
X48500Y451200D02*
X47700Y452800D01*
X49300D01*
X48500Y451200D01*
X38500D02*
X37700Y452800D01*
X39300D01*
X38500Y451200D01*
X70126Y439200D02*
X70526Y439600D01*
X70926D01*
X70526Y440000D01*
X70926Y440400D01*
X70526D01*
X70126Y440800D01*
X69726Y440400D01*
X69326D01*
X69726Y440000D01*
X69326Y439600D01*
X69726D01*
X70126Y439200D01*
X78000D02*
X78400Y439600D01*
X78800D01*
X78400Y440000D01*
X78800Y440400D01*
X78400D01*
X78000Y440800D01*
X77600Y440400D01*
X77200D01*
X77600Y440000D01*
X77200Y439600D01*
X77600D01*
X78000Y439200D01*
X59102D02*
X59502Y439600D01*
X59902D01*
X59502Y440000D01*
X59902Y440400D01*
X59502D01*
X59102Y440800D01*
X58702Y440400D01*
X58302D01*
X58702Y440000D01*
X58302Y439600D01*
X58702D01*
X59102Y439200D01*
X85874D02*
X86274Y439600D01*
X86674D01*
X86274Y440000D01*
X86674Y440400D01*
X86274D01*
X85874Y440800D01*
X85474Y440400D01*
X85074D01*
X85474Y440000D01*
X85074Y439600D01*
X85474D01*
X85874Y439200D01*
X51228D02*
X51628Y439600D01*
X52028D01*
X51628Y440000D01*
X52028Y440400D01*
X51628D01*
X51228Y440800D01*
X50828Y440400D01*
X50428D01*
X50828Y440000D01*
X50428Y439600D01*
X50828D01*
X51228Y439200D01*
X212500Y437200D02*
X211700Y438800D01*
X213300D01*
X212500Y437200D01*
X222500D02*
X221700Y438800D01*
X223300D01*
X222500Y437200D01*
X182500Y437200D02*
X181700Y438800D01*
X183300D01*
X182500Y437200D01*
X202500Y437200D02*
X201700Y438800D01*
X203300D01*
X202500Y437200D01*
X172500Y437200D02*
X171700Y438800D01*
X173300D01*
X172500Y437200D01*
X162500D02*
X161700Y438800D01*
X163300D01*
X162500Y437200D01*
X152500D02*
X151700Y438800D01*
X153300D01*
X152500Y437200D01*
X209898Y449200D02*
X210298Y449600D01*
X210698D01*
X210298Y450000D01*
X210698Y450400D01*
X210298D01*
X209898Y450800D01*
X209498Y450400D01*
X209098D01*
X209498Y450000D01*
X209098Y449600D01*
X209498D01*
X209898Y449200D01*
X191000D02*
X191400Y449600D01*
X191800D01*
X191400Y450000D01*
X191800Y450400D01*
X191400D01*
X191000Y450800D01*
X190600Y450400D01*
X190200D01*
X190600Y450000D01*
X190200Y449600D01*
X190600D01*
X191000Y449200D01*
X202024D02*
X202424Y449600D01*
X202824D01*
X202424Y450000D01*
X202824Y450400D01*
X202424D01*
X202024Y450800D01*
X201624Y450400D01*
X201224D01*
X201624Y450000D01*
X201224Y449600D01*
X201624D01*
X202024Y449200D01*
X183126D02*
X183526Y449600D01*
X183926D01*
X183526Y450000D01*
X183926Y450400D01*
X183526D01*
X183126Y450800D01*
X182726Y450400D01*
X182326D01*
X182726Y450000D01*
X182326Y449600D01*
X182726D01*
X183126Y449200D01*
X175252D02*
X175652Y449600D01*
X176052D01*
X175652Y450000D01*
X176052Y450400D01*
X175652D01*
X175252Y450800D01*
X174852Y450400D01*
X174452D01*
X174852Y450000D01*
X174452Y449600D01*
X174852D01*
X175252Y449200D01*
X36000Y500000D02*
X35200Y501600D01*
X36800D01*
X36000Y500000D01*
X26000D02*
X25200Y501600D01*
X26800D01*
X26000Y500000D01*
X16000D02*
X15200Y501600D01*
X16800D01*
X16000Y500000D01*
X234500Y481400D02*
X233700Y483000D01*
X235300D01*
X234500Y481400D01*
X224500D02*
X223700Y483000D01*
X225300D01*
X224500Y481400D01*
X244500D02*
X243700Y483000D01*
X245300D01*
X244500Y481400D01*
X121500Y495700D02*
X121900Y496500D01*
X121500Y497300D01*
X122300Y496900D01*
X123100Y497300D01*
X122700Y496500D01*
X123100Y495700D01*
X122300Y496100D01*
X121500Y495700D01*
X121400Y458200D02*
X121800Y459000D01*
X121400Y459800D01*
X122200Y459400D01*
X123000Y459800D01*
X122600Y459000D01*
X123000Y458200D01*
X122200Y458600D01*
X121400Y458200D01*
X95500Y471700D02*
X95900Y472100D01*
X96300D01*
X95900Y472500D01*
X96300Y472900D01*
X95900D01*
X95500Y473300D01*
X95100Y472900D01*
X94700D01*
X95100Y472500D01*
X94700Y472100D01*
X95100D01*
X95500Y471700D01*
X85500D02*
X85900Y472100D01*
X86300D01*
X85900Y472500D01*
X86300Y472900D01*
X85900D01*
X85500Y473300D01*
X85100Y472900D01*
X84700D01*
X85100Y472500D01*
X84700Y472100D01*
X85100D01*
X85500Y471700D01*
X83000Y502700D02*
X83400Y503100D01*
X83800D01*
X83400Y503500D01*
X83800Y503900D01*
X83400D01*
X83000Y504300D01*
X82600Y503900D01*
X82200D01*
X82600Y503500D01*
X82200Y503100D01*
X82600D01*
X83000Y502700D01*
X73000D02*
X73400Y503100D01*
X73800D01*
X73400Y503500D01*
X73800Y503900D01*
X73400D01*
X73000Y504300D01*
X72600Y503900D01*
X72200D01*
X72600Y503500D01*
X72200Y503100D01*
X72600D01*
X73000Y502700D01*
X251500Y53700D02*
X251900Y54100D01*
X252300D01*
X251900Y54500D01*
X252300Y54900D01*
X251900D01*
X251500Y55300D01*
X251100Y54900D01*
X250700D01*
X251100Y54500D01*
X250700Y54100D01*
X251100D01*
X251500Y53700D01*
Y63700D02*
X251900Y64100D01*
X252300D01*
X251900Y64500D01*
X252300Y64900D01*
X251900D01*
X251500Y65300D01*
X251100Y64900D01*
X250700D01*
X251100Y64500D01*
X250700Y64100D01*
X251100D01*
X251500Y63700D01*
Y43700D02*
X251900Y44100D01*
X252300D01*
X251900Y44500D01*
X252300Y44900D01*
X251900D01*
X251500Y45300D01*
X251100Y44900D01*
X250700D01*
X251100Y44500D01*
X250700Y44100D01*
X251100D01*
X251500Y43700D01*
Y73700D02*
X251900Y74100D01*
X252300D01*
X251900Y74500D01*
X252300Y74900D01*
X251900D01*
X251500Y75300D01*
X251100Y74900D01*
X250700D01*
X251100Y74500D01*
X250700Y74100D01*
X251100D01*
X251500Y73700D01*
Y33700D02*
X251900Y34100D01*
X252300D01*
X251900Y34500D01*
X252300Y34900D01*
X251900D01*
X251500Y35300D01*
X251100Y34900D01*
X250700D01*
X251100Y34500D01*
X250700Y34100D01*
X251100D01*
X251500Y33700D01*
Y23700D02*
X251900Y24100D01*
X252300D01*
X251900Y24500D01*
X252300Y24900D01*
X251900D01*
X251500Y25300D01*
X251100Y24900D01*
X250700D01*
X251100Y24500D01*
X250700Y24100D01*
X251100D01*
X251500Y23700D01*
Y13700D02*
X251900Y14100D01*
X252300D01*
X251900Y14500D01*
X252300Y14900D01*
X251900D01*
X251500Y15300D01*
X251100Y14900D01*
X250700D01*
X251100Y14500D01*
X250700Y14100D01*
X251100D01*
X251500Y13700D01*
X241500Y73700D02*
X241900Y74100D01*
X242300D01*
X241900Y74500D01*
X242300Y74900D01*
X241900D01*
X241500Y75300D01*
X241100Y74900D01*
X240700D01*
X241100Y74500D01*
X240700Y74100D01*
X241100D01*
X241500Y73700D01*
Y63700D02*
X241900Y64100D01*
X242300D01*
X241900Y64500D01*
X242300Y64900D01*
X241900D01*
X241500Y65300D01*
X241100Y64900D01*
X240700D01*
X241100Y64500D01*
X240700Y64100D01*
X241100D01*
X241500Y63700D01*
Y43700D02*
X241900Y44100D01*
X242300D01*
X241900Y44500D01*
X242300Y44900D01*
X241900D01*
X241500Y45300D01*
X241100Y44900D01*
X240700D01*
X241100Y44500D01*
X240700Y44100D01*
X241100D01*
X241500Y43700D01*
Y53700D02*
X241900Y54100D01*
X242300D01*
X241900Y54500D01*
X242300Y54900D01*
X241900D01*
X241500Y55300D01*
X241100Y54900D01*
X240700D01*
X241100Y54500D01*
X240700Y54100D01*
X241100D01*
X241500Y53700D01*
Y33700D02*
X241900Y34100D01*
X242300D01*
X241900Y34500D01*
X242300Y34900D01*
X241900D01*
X241500Y35300D01*
X241100Y34900D01*
X240700D01*
X241100Y34500D01*
X240700Y34100D01*
X241100D01*
X241500Y33700D01*
Y13700D02*
X241900Y14100D01*
X242300D01*
X241900Y14500D01*
X242300Y14900D01*
X241900D01*
X241500Y15300D01*
X241100Y14900D01*
X240700D01*
X241100Y14500D01*
X240700Y14100D01*
X241100D01*
X241500Y13700D01*
Y23700D02*
X241900Y24100D01*
X242300D01*
X241900Y24500D01*
X242300Y24900D01*
X241900D01*
X241500Y25300D01*
X241100Y24900D01*
X240700D01*
X241100Y24500D01*
X240700Y24100D01*
X241100D01*
X241500Y23700D01*
X106700Y95700D02*
Y97300D01*
X108300D01*
Y95700D01*
X106700D01*
X152700Y278700D02*
Y280300D01*
X154300D01*
Y278700D01*
X152700D01*
Y226700D02*
Y228300D01*
X154300D01*
Y226700D01*
X152700D01*
Y174700D02*
Y176300D01*
X154300D01*
Y174700D01*
X152700D01*
Y122700D02*
Y124300D01*
X154300D01*
Y122700D01*
X152700D01*
X136100Y491200D02*
Y490800D01*
X136900D01*
Y491200D01*
X137300D01*
Y492000D01*
X136900D01*
Y492400D01*
X136100D01*
Y492000D01*
X135700D01*
Y491200D01*
X136100D01*
Y471600D02*
Y471200D01*
X136900D01*
Y471600D01*
X137300D01*
Y472400D01*
X136900D01*
Y472800D01*
X136100D01*
Y472400D01*
X135700D01*
Y471600D01*
X136100D01*
X106700Y157700D02*
Y159300D01*
X108300D01*
Y157700D01*
X106700D01*
Y219700D02*
Y221300D01*
X108300D01*
Y219700D01*
X106700D01*
Y281700D02*
Y283300D01*
X108300D01*
Y281700D01*
X106700D01*
X129200Y299204D02*
X129600D01*
X130000Y299604D01*
X130400Y299204D01*
X130800D01*
Y299604D01*
X130400Y300004D01*
X130800Y300404D01*
Y300804D01*
X130400D01*
X130000Y300404D01*
X129600Y300804D01*
X129200D01*
Y300404D01*
X129600Y300004D01*
X129200Y299604D01*
Y299204D01*
Y19196D02*
X129600D01*
X130000Y19596D01*
X130400Y19196D01*
X130800D01*
Y19596D01*
X130400Y19996D01*
X130800Y20396D01*
Y20796D01*
X130400D01*
X130000Y20396D01*
X129600Y20796D01*
X129200D01*
Y20396D01*
X129600Y19996D01*
X129200Y19596D01*
Y19196D01*
X238200Y314500D02*
X239000Y315300D01*
X239800Y314500D01*
X239000Y313700D01*
X238200Y314500D01*
X235700Y316500D02*
X236500Y317300D01*
X237300Y316500D01*
X236500Y315700D01*
X235700Y316500D01*
X224700Y291000D02*
X225500Y291800D01*
X226300Y291000D01*
X225500Y290200D01*
X224700Y291000D01*
X222700Y288500D02*
X223500Y289300D01*
X224300Y288500D01*
X223500Y287700D01*
X222700Y288500D01*
X224700Y259000D02*
X225500Y259800D01*
X226300Y259000D01*
X225500Y258200D01*
X224700Y259000D01*
X222700Y256500D02*
X223500Y257300D01*
X224300Y256500D01*
X223500Y255700D01*
X222700Y256500D01*
X225200Y227000D02*
X226000Y227800D01*
X226800Y227000D01*
X226000Y226200D01*
X225200Y227000D01*
X222700Y224500D02*
X223500Y225300D01*
X224300Y224500D01*
X223500Y223700D01*
X222700Y224500D01*
X225700Y195000D02*
X226500Y195800D01*
X227300Y195000D01*
X226500Y194200D01*
X225700Y195000D01*
X223200Y192500D02*
X224000Y193300D01*
X224800Y192500D01*
X224000Y191700D01*
X223200Y192500D01*
X225200Y164000D02*
X226000Y164800D01*
X226800Y164000D01*
X226000Y163200D01*
X225200Y164000D01*
X222700Y161500D02*
X223500Y162300D01*
X224300Y161500D01*
X223500Y160700D01*
X222700Y161500D01*
X223700Y132000D02*
X224500Y132800D01*
X225300Y132000D01*
X224500Y131200D01*
X223700Y132000D01*
X221700Y129500D02*
X222500Y130300D01*
X223300Y129500D01*
X222500Y128700D01*
X221700Y129500D01*
X224200Y99500D02*
X225000Y100300D01*
X225800Y99500D01*
X225000Y98700D01*
X224200Y99500D01*
X222200Y97000D02*
X223000Y97800D01*
X223800Y97000D01*
X223000Y96200D01*
X222200Y97000D01*
X172700Y132500D02*
X173500Y133300D01*
X174300Y132500D01*
X173500Y131700D01*
X172700Y132500D01*
X175200Y130100D02*
X176000Y130900D01*
X176800Y130100D01*
X176000Y129300D01*
X175200Y130100D01*
X172700Y165500D02*
X173500Y166300D01*
X174300Y165500D01*
X173500Y164700D01*
X172700Y165500D01*
X174700Y163000D02*
X175500Y163800D01*
X176300Y163000D01*
X175500Y162200D01*
X174700Y163000D01*
X173700Y196500D02*
X174500Y197300D01*
X175300Y196500D01*
X174500Y195700D01*
X173700Y196500D01*
X172200Y193500D02*
X173000Y194300D01*
X173800Y193500D01*
X173000Y192700D01*
X172200Y193500D01*
X174200Y225500D02*
X175000Y226300D01*
X175800Y225500D01*
X175000Y224700D01*
X174200Y225500D01*
X171700Y223500D02*
X172500Y224300D01*
X173300Y223500D01*
X172500Y222700D01*
X171700Y223500D01*
X173700Y255000D02*
X174500Y255800D01*
X175300Y255000D01*
X174500Y254200D01*
X173700Y255000D01*
X175200Y258000D02*
X176000Y258800D01*
X176800Y258000D01*
X176000Y257200D01*
X175200Y258000D01*
X174700Y291500D02*
X175500Y292300D01*
X176300Y291500D01*
X175500Y290700D01*
X174700Y291500D01*
Y289000D02*
X175500Y289800D01*
X176300Y289000D01*
X175500Y288200D01*
X174700Y289000D01*
X37200Y287000D02*
X38000Y287800D01*
X38800Y287000D01*
X38000Y286200D01*
X37200Y287000D01*
X32200Y287500D02*
X33000Y288300D01*
X33800Y287500D01*
X33000Y286700D01*
X32200Y287500D01*
X35200Y291000D02*
X36000Y291800D01*
X36800Y291000D01*
X36000Y290200D01*
X35200Y291000D01*
X36700Y255000D02*
X37500Y255800D01*
X38300Y255000D01*
X37500Y254200D01*
X36700Y255000D01*
X31700Y255500D02*
X32500Y256300D01*
X33300Y255500D01*
X32500Y254700D01*
X31700Y255500D01*
X34700Y259000D02*
X35500Y259800D01*
X36300Y259000D01*
X35500Y258200D01*
X34700Y259000D01*
X36700Y223000D02*
X37500Y223800D01*
X38300Y223000D01*
X37500Y222200D01*
X36700Y223000D01*
X31700Y223500D02*
X32500Y224300D01*
X33300Y223500D01*
X32500Y222700D01*
X31700Y223500D01*
X34700Y227000D02*
X35500Y227800D01*
X36300Y227000D01*
X35500Y226200D01*
X34700Y227000D01*
X36700Y191000D02*
X37500Y191800D01*
X38300Y191000D01*
X37500Y190200D01*
X36700Y191000D01*
X31700Y191500D02*
X32500Y192300D01*
X33300Y191500D01*
X32500Y190700D01*
X31700Y191500D01*
X34700Y195000D02*
X35500Y195800D01*
X36300Y195000D01*
X35500Y194200D01*
X34700Y195000D01*
X36700Y159000D02*
X37500Y159800D01*
X38300Y159000D01*
X37500Y158200D01*
X36700Y159000D01*
X31700Y159500D02*
X32500Y160300D01*
X33300Y159500D01*
X32500Y158700D01*
X31700Y159500D01*
X34700Y163000D02*
X35500Y163800D01*
X36300Y163000D01*
X35500Y162200D01*
X34700Y163000D01*
X36700Y127000D02*
X37500Y127800D01*
X38300Y127000D01*
X37500Y126200D01*
X36700Y127000D01*
X31700Y127500D02*
X32500Y128300D01*
X33300Y127500D01*
X32500Y126700D01*
X31700Y127500D01*
X34700Y131000D02*
X35500Y131800D01*
X36300Y131000D01*
X35500Y130200D01*
X34700Y131000D01*
X34200Y99000D02*
X35000Y99800D01*
X35800Y99000D01*
X35000Y98200D01*
X34200Y99000D01*
X31200Y95500D02*
X32000Y96300D01*
X32800Y95500D01*
X32000Y94700D01*
X31200Y95500D01*
X36200Y95000D02*
X37000Y95800D01*
X37800Y95000D01*
X37000Y94200D01*
X36200Y95000D01*
X221200Y300500D02*
X222000Y301300D01*
X222800Y300500D01*
X222000Y299700D01*
X221200Y300500D01*
Y268500D02*
X222000Y269300D01*
X222800Y268500D01*
X222000Y267700D01*
X221200Y268500D01*
Y236500D02*
X222000Y237300D01*
X222800Y236500D01*
X222000Y235700D01*
X221200Y236500D01*
Y204500D02*
X222000Y205300D01*
X222800Y204500D01*
X222000Y203700D01*
X221200Y204500D01*
Y172500D02*
X222000Y173300D01*
X222800Y172500D01*
X222000Y171700D01*
X221200Y172500D01*
Y140500D02*
X222000Y141300D01*
X222800Y140500D01*
X222000Y139700D01*
X221200Y140500D01*
Y108500D02*
X222000Y109300D01*
X222800Y108500D01*
X222000Y107700D01*
X221200Y108500D01*
Y76500D02*
X222000Y77300D01*
X222800Y76500D01*
X222000Y75700D01*
X221200Y76500D01*
X173700Y300500D02*
X174500Y301300D01*
X175300Y300500D01*
X174500Y299700D01*
X173700Y300500D01*
Y268500D02*
X174500Y269300D01*
X175300Y268500D01*
X174500Y267700D01*
X173700Y268500D01*
Y236500D02*
X174500Y237300D01*
X175300Y236500D01*
X174500Y235700D01*
X173700Y236500D01*
Y204500D02*
X174500Y205300D01*
X175300Y204500D01*
X174500Y203700D01*
X173700Y204500D01*
Y172500D02*
X174500Y173300D01*
X175300Y172500D01*
X174500Y171700D01*
X173700Y172500D01*
Y140500D02*
X174500Y141300D01*
X175300Y140500D01*
X174500Y139700D01*
X173700Y140500D01*
Y108500D02*
X174500Y109300D01*
X175300Y108500D01*
X174500Y107700D01*
X173700Y108500D01*
Y76500D02*
X174500Y77300D01*
X175300Y76500D01*
X174500Y75700D01*
X173700Y76500D01*
X85200Y298500D02*
X86000Y299300D01*
X86800Y298500D01*
X86000Y297700D01*
X85200Y298500D01*
Y266500D02*
X86000Y267300D01*
X86800Y266500D01*
X86000Y265700D01*
X85200Y266500D01*
Y234500D02*
X86000Y235300D01*
X86800Y234500D01*
X86000Y233700D01*
X85200Y234500D01*
Y202500D02*
X86000Y203300D01*
X86800Y202500D01*
X86000Y201700D01*
X85200Y202500D01*
Y170500D02*
X86000Y171300D01*
X86800Y170500D01*
X86000Y169700D01*
X85200Y170500D01*
Y138500D02*
X86000Y139300D01*
X86800Y138500D01*
X86000Y137700D01*
X85200Y138500D01*
X84200Y143000D02*
X85000Y143800D01*
X85800Y143000D01*
X85000Y142200D01*
X84200Y143000D01*
X85200Y106500D02*
X86000Y107300D01*
X86800Y106500D01*
X86000Y105700D01*
X85200Y106500D01*
Y74400D02*
X86000Y75200D01*
X86800Y74400D01*
X86000Y73600D01*
X85200Y74400D01*
X38200Y298500D02*
X39000Y299300D01*
X39800Y298500D01*
X39000Y297700D01*
X38200Y298500D01*
Y266500D02*
X39000Y267300D01*
X39800Y266500D01*
X39000Y265700D01*
X38200Y266500D01*
Y234500D02*
X39000Y235300D01*
X39800Y234500D01*
X39000Y233700D01*
X38200Y234500D01*
Y202500D02*
X39000Y203300D01*
X39800Y202500D01*
X39000Y201700D01*
X38200Y202500D01*
Y170500D02*
X39000Y171300D01*
X39800Y170500D01*
X39000Y169700D01*
X38200Y170500D01*
Y138500D02*
X39000Y139300D01*
X39800Y138500D01*
X39000Y137700D01*
X38200Y138500D01*
Y106500D02*
X39000Y107300D01*
X39800Y106500D01*
X39000Y105700D01*
X38200Y106500D01*
Y74500D02*
X39000Y75300D01*
X39800Y74500D01*
X39000Y73700D01*
X38200Y74500D01*
X28700Y49500D02*
X29500Y50300D01*
X30300Y49500D01*
X29500Y48700D01*
X28700Y49500D01*
X31700D02*
X32500Y50300D01*
X33300Y49500D01*
X32500Y48700D01*
X31700Y49500D01*
X25700Y318500D02*
X26500Y319300D01*
X27300Y318500D01*
X26500Y317700D01*
X25700Y318500D01*
X27200Y321000D02*
X28000Y321800D01*
X28800Y321000D01*
X28000Y320200D01*
X27200Y321000D01*
X245200Y317500D02*
X246000Y318300D01*
X246800Y317500D01*
X246000Y316700D01*
X245200Y317500D01*
Y320500D02*
X246000Y321300D01*
X246800Y320500D01*
X246000Y319700D01*
X245200Y320500D01*
X219200Y23000D02*
X220000Y23800D01*
X220800Y23000D01*
X220000Y22200D01*
X219200Y23000D01*
X222200D02*
X223000Y23800D01*
X223800Y23000D01*
X223000Y22200D01*
X222200Y23000D01*
X151200Y34500D02*
X152000Y35300D01*
X152800Y34500D01*
X152000Y33700D01*
X151200Y34500D01*
X153200Y32500D02*
X154000Y33300D01*
X154800Y32500D01*
X154000Y31700D01*
X153200Y32500D01*
X85700Y52500D02*
X86500Y53300D01*
X87300Y52500D01*
X86500Y51700D01*
X85700Y52500D01*
X88700D02*
X89500Y53300D01*
X90300Y52500D01*
X89500Y51700D01*
X88700Y52500D01*
X138200Y361000D02*
X139000Y361800D01*
X139800Y361000D01*
X139000Y360200D01*
X138200Y361000D01*
Y358000D02*
X139000Y358800D01*
X139800Y358000D01*
X139000Y357200D01*
X138200Y358000D01*
X93700Y18000D02*
X94500Y18800D01*
X95300Y18000D01*
X94500Y17200D01*
X93700Y18000D01*
X91700Y19500D02*
X92500Y20300D01*
X93300Y19500D01*
X92500Y18700D01*
X91700Y19500D01*
X103700Y346000D02*
X104500Y346800D01*
X105300Y346000D01*
X104500Y345200D01*
X103700Y346000D01*
X101200Y344500D02*
X102000Y345300D01*
X102800Y344500D01*
X102000Y343700D01*
X101200Y344500D01*
Y326500D02*
X102000Y327300D01*
X102800Y326500D01*
X102000Y325700D01*
X101200Y326500D01*
X98700D02*
X99500Y327300D01*
X100300Y326500D01*
X99500Y325700D01*
X98700Y326500D01*
X35200Y346000D02*
X36000Y346800D01*
X36800Y346000D01*
X36000Y345200D01*
X35200Y346000D01*
X33200Y344500D02*
X34000Y345300D01*
X34800Y344500D01*
X34000Y343700D01*
X33200Y344500D01*
X52700Y220000D02*
X53500Y220800D01*
X54300Y220000D01*
X53500Y219200D01*
X52700Y220000D01*
X70700Y219900D02*
X71500Y220700D01*
X72300Y219900D01*
X71500Y219100D01*
X70700Y219900D01*
X39200Y207000D02*
X40000Y207800D01*
X40800Y207000D01*
X40000Y206200D01*
X39200Y207000D01*
X52700Y224500D02*
X53500Y225300D01*
X54300Y224500D01*
X53500Y223700D01*
X52700Y224500D01*
X42700Y196500D02*
X43500Y197300D01*
X44300Y196500D01*
X43500Y195700D01*
X42700Y196500D01*
X45700D02*
X46500Y197300D01*
X47300Y196500D01*
X46500Y195700D01*
X45700Y196500D01*
X70700Y202000D02*
X71500Y202800D01*
X72300Y202000D01*
X71500Y201200D01*
X70700Y202000D01*
X84200Y207000D02*
X85000Y207800D01*
X85800Y207000D01*
X85000Y206200D01*
X84200Y207000D01*
X78200Y196500D02*
X79000Y197300D01*
X79800Y196500D01*
X79000Y195700D01*
X78200Y196500D01*
X70700Y224500D02*
X71500Y225300D01*
X72300Y224500D01*
X71500Y223700D01*
X70700Y224500D01*
X52700Y202000D02*
X53500Y202800D01*
X54300Y202000D01*
X53500Y201200D01*
X52700Y202000D01*
X81200Y196500D02*
X82000Y197300D01*
X82800Y196500D01*
X82000Y195700D01*
X81200Y196500D01*
Y228500D02*
X82000Y229300D01*
X82800Y228500D01*
X82000Y227700D01*
X81200Y228500D01*
Y260500D02*
X82000Y261300D01*
X82800Y260500D01*
X82000Y259700D01*
X81200Y260500D01*
Y292500D02*
X82000Y293300D01*
X82800Y292500D01*
X82000Y291700D01*
X81200Y292500D01*
Y164500D02*
X82000Y165300D01*
X82800Y164500D01*
X82000Y163700D01*
X81200Y164500D01*
Y132500D02*
X82000Y133300D01*
X82800Y132500D01*
X82000Y131700D01*
X81200Y132500D01*
Y100500D02*
X82000Y101300D01*
X82800Y100500D01*
X82000Y99700D01*
X81200Y100500D01*
Y68500D02*
X82000Y69300D01*
X82800Y68500D01*
X82000Y67700D01*
X81200Y68500D01*
X217200Y262500D02*
X218000Y263300D01*
X218800Y262500D01*
X218000Y261700D01*
X217200Y262500D01*
Y230500D02*
X218000Y231300D01*
X218800Y230500D01*
X218000Y229700D01*
X217200Y230500D01*
Y198500D02*
X218000Y199300D01*
X218800Y198500D01*
X218000Y197700D01*
X217200Y198500D01*
Y166500D02*
X218000Y167300D01*
X218800Y166500D01*
X218000Y165700D01*
X217200Y166500D01*
Y134500D02*
X218000Y135300D01*
X218800Y134500D01*
X218000Y133700D01*
X217200Y134500D01*
Y102500D02*
X218000Y103300D01*
X218800Y102500D01*
X218000Y101700D01*
X217200Y102500D01*
Y70500D02*
X218000Y71300D01*
X218800Y70500D01*
X218000Y69700D01*
X217200Y70500D01*
X52700Y298000D02*
X53500Y298800D01*
X54300Y298000D01*
X53500Y297200D01*
X52700Y298000D01*
X70700Y320500D02*
X71500Y321300D01*
X72300Y320500D01*
X71500Y319700D01*
X70700Y320500D01*
X78200Y292500D02*
X79000Y293300D01*
X79800Y292500D01*
X79000Y291700D01*
X78200Y292500D01*
X70700Y298000D02*
X71500Y298800D01*
X72300Y298000D01*
X71500Y297200D01*
X70700Y298000D01*
X45700Y292500D02*
X46500Y293300D01*
X47300Y292500D01*
X46500Y291700D01*
X45700Y292500D01*
X42700D02*
X43500Y293300D01*
X44300Y292500D01*
X43500Y291700D01*
X42700Y292500D01*
X52700Y320500D02*
X53500Y321300D01*
X54300Y320500D01*
X53500Y319700D01*
X52700Y320500D01*
X39200Y303000D02*
X40000Y303800D01*
X40800Y303000D01*
X40000Y302200D01*
X39200Y303000D01*
X70700Y315900D02*
X71500Y316700D01*
X72300Y315900D01*
X71500Y315100D01*
X70700Y315900D01*
X52700Y316000D02*
X53500Y316800D01*
X54300Y316000D01*
X53500Y315200D01*
X52700Y316000D01*
Y266000D02*
X53500Y266800D01*
X54300Y266000D01*
X53500Y265200D01*
X52700Y266000D01*
X70700Y288500D02*
X71500Y289300D01*
X72300Y288500D01*
X71500Y287700D01*
X70700Y288500D01*
X78200Y260500D02*
X79000Y261300D01*
X79800Y260500D01*
X79000Y259700D01*
X78200Y260500D01*
X84200Y271000D02*
X85000Y271800D01*
X85800Y271000D01*
X85000Y270200D01*
X84200Y271000D01*
X70700Y266000D02*
X71500Y266800D01*
X72300Y266000D01*
X71500Y265200D01*
X70700Y266000D01*
X45700Y260500D02*
X46500Y261300D01*
X47300Y260500D01*
X46500Y259700D01*
X45700Y260500D01*
X42700D02*
X43500Y261300D01*
X44300Y260500D01*
X43500Y259700D01*
X42700Y260500D01*
X52700Y288500D02*
X53500Y289300D01*
X54300Y288500D01*
X53500Y287700D01*
X52700Y288500D01*
X39200Y271000D02*
X40000Y271800D01*
X40800Y271000D01*
X40000Y270200D01*
X39200Y271000D01*
X70700Y283900D02*
X71500Y284700D01*
X72300Y283900D01*
X71500Y283100D01*
X70700Y283900D01*
X52700Y284000D02*
X53500Y284800D01*
X54300Y284000D01*
X53500Y283200D01*
X52700Y284000D01*
Y234000D02*
X53500Y234800D01*
X54300Y234000D01*
X53500Y233200D01*
X52700Y234000D01*
X70700Y256500D02*
X71500Y257300D01*
X72300Y256500D01*
X71500Y255700D01*
X70700Y256500D01*
X78200Y228500D02*
X79000Y229300D01*
X79800Y228500D01*
X79000Y227700D01*
X78200Y228500D01*
X84200Y239000D02*
X85000Y239800D01*
X85800Y239000D01*
X85000Y238200D01*
X84200Y239000D01*
X70700Y234000D02*
X71500Y234800D01*
X72300Y234000D01*
X71500Y233200D01*
X70700Y234000D01*
X45700Y228500D02*
X46500Y229300D01*
X47300Y228500D01*
X46500Y227700D01*
X45700Y228500D01*
X42700D02*
X43500Y229300D01*
X44300Y228500D01*
X43500Y227700D01*
X42700Y228500D01*
X52700Y256500D02*
X53500Y257300D01*
X54300Y256500D01*
X53500Y255700D01*
X52700Y256500D01*
X39200Y239000D02*
X40000Y239800D01*
X40800Y239000D01*
X40000Y238200D01*
X39200Y239000D01*
X70700Y251900D02*
X71500Y252700D01*
X72300Y251900D01*
X71500Y251100D01*
X70700Y251900D01*
X52700Y252000D02*
X53500Y252800D01*
X54300Y252000D01*
X53500Y251200D01*
X52700Y252000D01*
Y170000D02*
X53500Y170800D01*
X54300Y170000D01*
X53500Y169200D01*
X52700Y170000D01*
X70700Y192500D02*
X71500Y193300D01*
X72300Y192500D01*
X71500Y191700D01*
X70700Y192500D01*
X78200Y164500D02*
X79000Y165300D01*
X79800Y164500D01*
X79000Y163700D01*
X78200Y164500D01*
X84200Y175000D02*
X85000Y175800D01*
X85800Y175000D01*
X85000Y174200D01*
X84200Y175000D01*
X70700Y170000D02*
X71500Y170800D01*
X72300Y170000D01*
X71500Y169200D01*
X70700Y170000D01*
X45700Y164500D02*
X46500Y165300D01*
X47300Y164500D01*
X46500Y163700D01*
X45700Y164500D01*
X42700D02*
X43500Y165300D01*
X44300Y164500D01*
X43500Y163700D01*
X42700Y164500D01*
X52700Y192500D02*
X53500Y193300D01*
X54300Y192500D01*
X53500Y191700D01*
X52700Y192500D01*
X39200Y175000D02*
X40000Y175800D01*
X40800Y175000D01*
X40000Y174200D01*
X39200Y175000D01*
X70700Y187900D02*
X71500Y188700D01*
X72300Y187900D01*
X71500Y187100D01*
X70700Y187900D01*
X52700Y188000D02*
X53500Y188800D01*
X54300Y188000D01*
X53500Y187200D01*
X52700Y188000D01*
Y138000D02*
X53500Y138800D01*
X54300Y138000D01*
X53500Y137200D01*
X52700Y138000D01*
X70700Y160500D02*
X71500Y161300D01*
X72300Y160500D01*
X71500Y159700D01*
X70700Y160500D01*
X78200Y132500D02*
X79000Y133300D01*
X79800Y132500D01*
X79000Y131700D01*
X78200Y132500D01*
X70700Y138000D02*
X71500Y138800D01*
X72300Y138000D01*
X71500Y137200D01*
X70700Y138000D01*
X45700Y132500D02*
X46500Y133300D01*
X47300Y132500D01*
X46500Y131700D01*
X45700Y132500D01*
X42700D02*
X43500Y133300D01*
X44300Y132500D01*
X43500Y131700D01*
X42700Y132500D01*
X52700Y160500D02*
X53500Y161300D01*
X54300Y160500D01*
X53500Y159700D01*
X52700Y160500D01*
X39200Y143000D02*
X40000Y143800D01*
X40800Y143000D01*
X40000Y142200D01*
X39200Y143000D01*
X70700Y155900D02*
X71500Y156700D01*
X72300Y155900D01*
X71500Y155100D01*
X70700Y155900D01*
X52700Y156000D02*
X53500Y156800D01*
X54300Y156000D01*
X53500Y155200D01*
X52700Y156000D01*
Y106000D02*
X53500Y106800D01*
X54300Y106000D01*
X53500Y105200D01*
X52700Y106000D01*
X70700Y128500D02*
X71500Y129300D01*
X72300Y128500D01*
X71500Y127700D01*
X70700Y128500D01*
X78200Y100500D02*
X79000Y101300D01*
X79800Y100500D01*
X79000Y99700D01*
X78200Y100500D01*
X84200Y111000D02*
X85000Y111800D01*
X85800Y111000D01*
X85000Y110200D01*
X84200Y111000D01*
X70700Y106000D02*
X71500Y106800D01*
X72300Y106000D01*
X71500Y105200D01*
X70700Y106000D01*
X45700Y100500D02*
X46500Y101300D01*
X47300Y100500D01*
X46500Y99700D01*
X45700Y100500D01*
X42700D02*
X43500Y101300D01*
X44300Y100500D01*
X43500Y99700D01*
X42700Y100500D01*
X52700Y128500D02*
X53500Y129300D01*
X54300Y128500D01*
X53500Y127700D01*
X52700Y128500D01*
X39200Y111000D02*
X40000Y111800D01*
X40800Y111000D01*
X40000Y110200D01*
X39200Y111000D01*
X70700Y123900D02*
X71500Y124700D01*
X72300Y123900D01*
X71500Y123100D01*
X70700Y123900D01*
X52700Y124000D02*
X53500Y124800D01*
X54300Y124000D01*
X53500Y123200D01*
X52700Y124000D01*
Y74000D02*
X53500Y74800D01*
X54300Y74000D01*
X53500Y73200D01*
X52700Y74000D01*
X70700Y96500D02*
X71500Y97300D01*
X72300Y96500D01*
X71500Y95700D01*
X70700Y96500D01*
X78200Y68500D02*
X79000Y69300D01*
X79800Y68500D01*
X79000Y67700D01*
X78200Y68500D01*
X84200Y79000D02*
X85000Y79800D01*
X85800Y79000D01*
X85000Y78200D01*
X84200Y79000D01*
X70700Y74000D02*
X71500Y74800D01*
X72300Y74000D01*
X71500Y73200D01*
X70700Y74000D01*
X45700Y68500D02*
X46500Y69300D01*
X47300Y68500D01*
X46500Y67700D01*
X45700Y68500D01*
X42700D02*
X43500Y69300D01*
X44300Y68500D01*
X43500Y67700D01*
X42700Y68500D01*
X52700Y96500D02*
X53500Y97300D01*
X54300Y96500D01*
X53500Y95700D01*
X52700Y96500D01*
X39200Y79000D02*
X40000Y79800D01*
X40800Y79000D01*
X40000Y78200D01*
X39200Y79000D01*
X70700Y91900D02*
X71500Y92700D01*
X72300Y91900D01*
X71500Y91100D01*
X70700Y91900D01*
X52700Y92000D02*
X53500Y92800D01*
X54300Y92000D01*
X53500Y91200D01*
X52700Y92000D01*
X188700Y300000D02*
X189500Y300800D01*
X190300Y300000D01*
X189500Y299200D01*
X188700Y300000D01*
X206700Y322500D02*
X207500Y323300D01*
X208300Y322500D01*
X207500Y321700D01*
X206700Y322500D01*
X214200Y294500D02*
X215000Y295300D01*
X215800Y294500D01*
X215000Y293700D01*
X214200Y294500D01*
X220200Y305000D02*
X221000Y305800D01*
X221800Y305000D01*
X221000Y304200D01*
X220200Y305000D01*
X206700Y300000D02*
X207500Y300800D01*
X208300Y300000D01*
X207500Y299200D01*
X206700Y300000D01*
X181700Y294500D02*
X182500Y295300D01*
X183300Y294500D01*
X182500Y293700D01*
X181700Y294500D01*
X178700D02*
X179500Y295300D01*
X180300Y294500D01*
X179500Y293700D01*
X178700Y294500D01*
X188700Y322500D02*
X189500Y323300D01*
X190300Y322500D01*
X189500Y321700D01*
X188700Y322500D01*
X175200Y305000D02*
X176000Y305800D01*
X176800Y305000D01*
X176000Y304200D01*
X175200Y305000D01*
X206700Y317900D02*
X207500Y318700D01*
X208300Y317900D01*
X207500Y317100D01*
X206700Y317900D01*
X188700Y318000D02*
X189500Y318800D01*
X190300Y318000D01*
X189500Y317200D01*
X188700Y318000D01*
Y268000D02*
X189500Y268800D01*
X190300Y268000D01*
X189500Y267200D01*
X188700Y268000D01*
X206700Y290500D02*
X207500Y291300D01*
X208300Y290500D01*
X207500Y289700D01*
X206700Y290500D01*
X214200Y262500D02*
X215000Y263300D01*
X215800Y262500D01*
X215000Y261700D01*
X214200Y262500D01*
X220200Y273000D02*
X221000Y273800D01*
X221800Y273000D01*
X221000Y272200D01*
X220200Y273000D01*
X206700Y268000D02*
X207500Y268800D01*
X208300Y268000D01*
X207500Y267200D01*
X206700Y268000D01*
X181700Y262500D02*
X182500Y263300D01*
X183300Y262500D01*
X182500Y261700D01*
X181700Y262500D01*
X178700D02*
X179500Y263300D01*
X180300Y262500D01*
X179500Y261700D01*
X178700Y262500D01*
X188700Y290500D02*
X189500Y291300D01*
X190300Y290500D01*
X189500Y289700D01*
X188700Y290500D01*
X175200Y273000D02*
X176000Y273800D01*
X176800Y273000D01*
X176000Y272200D01*
X175200Y273000D01*
X206700Y285900D02*
X207500Y286700D01*
X208300Y285900D01*
X207500Y285100D01*
X206700Y285900D01*
X188700Y286000D02*
X189500Y286800D01*
X190300Y286000D01*
X189500Y285200D01*
X188700Y286000D01*
Y236000D02*
X189500Y236800D01*
X190300Y236000D01*
X189500Y235200D01*
X188700Y236000D01*
X206700Y258500D02*
X207500Y259300D01*
X208300Y258500D01*
X207500Y257700D01*
X206700Y258500D01*
X214200Y230500D02*
X215000Y231300D01*
X215800Y230500D01*
X215000Y229700D01*
X214200Y230500D01*
X220200Y241000D02*
X221000Y241800D01*
X221800Y241000D01*
X221000Y240200D01*
X220200Y241000D01*
X206700Y236000D02*
X207500Y236800D01*
X208300Y236000D01*
X207500Y235200D01*
X206700Y236000D01*
X181700Y230500D02*
X182500Y231300D01*
X183300Y230500D01*
X182500Y229700D01*
X181700Y230500D01*
X178700D02*
X179500Y231300D01*
X180300Y230500D01*
X179500Y229700D01*
X178700Y230500D01*
X188700Y258500D02*
X189500Y259300D01*
X190300Y258500D01*
X189500Y257700D01*
X188700Y258500D01*
X175200Y241000D02*
X176000Y241800D01*
X176800Y241000D01*
X176000Y240200D01*
X175200Y241000D01*
X206700Y253900D02*
X207500Y254700D01*
X208300Y253900D01*
X207500Y253100D01*
X206700Y253900D01*
X188700Y254000D02*
X189500Y254800D01*
X190300Y254000D01*
X189500Y253200D01*
X188700Y254000D01*
Y204000D02*
X189500Y204800D01*
X190300Y204000D01*
X189500Y203200D01*
X188700Y204000D01*
X206700Y226500D02*
X207500Y227300D01*
X208300Y226500D01*
X207500Y225700D01*
X206700Y226500D01*
X214200Y198500D02*
X215000Y199300D01*
X215800Y198500D01*
X215000Y197700D01*
X214200Y198500D01*
X220200Y209000D02*
X221000Y209800D01*
X221800Y209000D01*
X221000Y208200D01*
X220200Y209000D01*
X206700Y204000D02*
X207500Y204800D01*
X208300Y204000D01*
X207500Y203200D01*
X206700Y204000D01*
X181700Y198500D02*
X182500Y199300D01*
X183300Y198500D01*
X182500Y197700D01*
X181700Y198500D01*
X178700D02*
X179500Y199300D01*
X180300Y198500D01*
X179500Y197700D01*
X178700Y198500D01*
X188700Y226500D02*
X189500Y227300D01*
X190300Y226500D01*
X189500Y225700D01*
X188700Y226500D01*
X175200Y209000D02*
X176000Y209800D01*
X176800Y209000D01*
X176000Y208200D01*
X175200Y209000D01*
X206700Y221900D02*
X207500Y222700D01*
X208300Y221900D01*
X207500Y221100D01*
X206700Y221900D01*
X188700Y222000D02*
X189500Y222800D01*
X190300Y222000D01*
X189500Y221200D01*
X188700Y222000D01*
Y172000D02*
X189500Y172800D01*
X190300Y172000D01*
X189500Y171200D01*
X188700Y172000D01*
X206700Y194500D02*
X207500Y195300D01*
X208300Y194500D01*
X207500Y193700D01*
X206700Y194500D01*
X214200Y166500D02*
X215000Y167300D01*
X215800Y166500D01*
X215000Y165700D01*
X214200Y166500D01*
X220200Y177000D02*
X221000Y177800D01*
X221800Y177000D01*
X221000Y176200D01*
X220200Y177000D01*
X206700Y172000D02*
X207500Y172800D01*
X208300Y172000D01*
X207500Y171200D01*
X206700Y172000D01*
X181700Y166500D02*
X182500Y167300D01*
X183300Y166500D01*
X182500Y165700D01*
X181700Y166500D01*
X178700D02*
X179500Y167300D01*
X180300Y166500D01*
X179500Y165700D01*
X178700Y166500D01*
X188700Y194500D02*
X189500Y195300D01*
X190300Y194500D01*
X189500Y193700D01*
X188700Y194500D01*
X175200Y177000D02*
X176000Y177800D01*
X176800Y177000D01*
X176000Y176200D01*
X175200Y177000D01*
X206700Y189900D02*
X207500Y190700D01*
X208300Y189900D01*
X207500Y189100D01*
X206700Y189900D01*
X188700Y190000D02*
X189500Y190800D01*
X190300Y190000D01*
X189500Y189200D01*
X188700Y190000D01*
Y140000D02*
X189500Y140800D01*
X190300Y140000D01*
X189500Y139200D01*
X188700Y140000D01*
X206700Y162500D02*
X207500Y163300D01*
X208300Y162500D01*
X207500Y161700D01*
X206700Y162500D01*
X214200Y134500D02*
X215000Y135300D01*
X215800Y134500D01*
X215000Y133700D01*
X214200Y134500D01*
X220200Y145000D02*
X221000Y145800D01*
X221800Y145000D01*
X221000Y144200D01*
X220200Y145000D01*
X206700Y140000D02*
X207500Y140800D01*
X208300Y140000D01*
X207500Y139200D01*
X206700Y140000D01*
X181700Y134500D02*
X182500Y135300D01*
X183300Y134500D01*
X182500Y133700D01*
X181700Y134500D01*
X178700D02*
X179500Y135300D01*
X180300Y134500D01*
X179500Y133700D01*
X178700Y134500D01*
X188700Y162500D02*
X189500Y163300D01*
X190300Y162500D01*
X189500Y161700D01*
X188700Y162500D01*
X175200Y145000D02*
X176000Y145800D01*
X176800Y145000D01*
X176000Y144200D01*
X175200Y145000D01*
X206700Y157900D02*
X207500Y158700D01*
X208300Y157900D01*
X207500Y157100D01*
X206700Y157900D01*
X188700Y158000D02*
X189500Y158800D01*
X190300Y158000D01*
X189500Y157200D01*
X188700Y158000D01*
Y108000D02*
X189500Y108800D01*
X190300Y108000D01*
X189500Y107200D01*
X188700Y108000D01*
X206700Y130500D02*
X207500Y131300D01*
X208300Y130500D01*
X207500Y129700D01*
X206700Y130500D01*
X214200Y102500D02*
X215000Y103300D01*
X215800Y102500D01*
X215000Y101700D01*
X214200Y102500D01*
X220200Y113000D02*
X221000Y113800D01*
X221800Y113000D01*
X221000Y112200D01*
X220200Y113000D01*
X206700Y108000D02*
X207500Y108800D01*
X208300Y108000D01*
X207500Y107200D01*
X206700Y108000D01*
X181700Y102500D02*
X182500Y103300D01*
X183300Y102500D01*
X182500Y101700D01*
X181700Y102500D01*
X178700D02*
X179500Y103300D01*
X180300Y102500D01*
X179500Y101700D01*
X178700Y102500D01*
X188700Y130500D02*
X189500Y131300D01*
X190300Y130500D01*
X189500Y129700D01*
X188700Y130500D01*
X175200Y113000D02*
X176000Y113800D01*
X176800Y113000D01*
X176000Y112200D01*
X175200Y113000D01*
X206700Y125900D02*
X207500Y126700D01*
X208300Y125900D01*
X207500Y125100D01*
X206700Y125900D01*
X188700Y126000D02*
X189500Y126800D01*
X190300Y126000D01*
X189500Y125200D01*
X188700Y126000D01*
X3700Y300000D02*
X4500Y300800D01*
X5300Y300000D01*
X4500Y299200D01*
X3700Y300000D01*
Y290000D02*
X4500Y290800D01*
X5300Y290000D01*
X4500Y289200D01*
X3700Y290000D01*
Y270000D02*
X4500Y270800D01*
X5300Y270000D01*
X4500Y269200D01*
X3700Y270000D01*
Y260000D02*
X4500Y260800D01*
X5300Y260000D01*
X4500Y259200D01*
X3700Y260000D01*
Y238000D02*
X4500Y238800D01*
X5300Y238000D01*
X4500Y237200D01*
X3700Y238000D01*
Y228000D02*
X4500Y228800D01*
X5300Y228000D01*
X4500Y227200D01*
X3700Y228000D01*
Y208000D02*
X4500Y208800D01*
X5300Y208000D01*
X4500Y207200D01*
X3700Y208000D01*
Y198000D02*
X4500Y198800D01*
X5300Y198000D01*
X4500Y197200D01*
X3700Y198000D01*
Y176500D02*
X4500Y177300D01*
X5300Y176500D01*
X4500Y175700D01*
X3700Y176500D01*
Y166000D02*
X4500Y166800D01*
X5300Y166000D01*
X4500Y165200D01*
X3700Y166000D01*
Y146000D02*
X4500Y146800D01*
X5300Y146000D01*
X4500Y145200D01*
X3700Y146000D01*
Y136000D02*
X4500Y136800D01*
X5300Y136000D01*
X4500Y135200D01*
X3700Y136000D01*
Y114000D02*
X4500Y114800D01*
X5300Y114000D01*
X4500Y113200D01*
X3700Y114000D01*
Y103500D02*
X4500Y104300D01*
X5300Y103500D01*
X4500Y102700D01*
X3700Y103500D01*
Y84000D02*
X4500Y84800D01*
X5300Y84000D01*
X4500Y83200D01*
X3700Y84000D01*
X4200Y74000D02*
X5000Y74800D01*
X5800Y74000D01*
X5000Y73200D01*
X4200Y74000D01*
X11700Y20500D02*
X12500Y21300D01*
X13300Y20500D01*
X12500Y19700D01*
X11700Y20500D01*
Y34500D02*
X12500Y35300D01*
X13300Y34500D01*
X12500Y33700D01*
X11700Y34500D01*
X110700D02*
X111500Y35300D01*
X112300Y34500D01*
X111500Y33700D01*
X110700Y34500D01*
Y20500D02*
X111500Y21300D01*
X112300Y20500D01*
X111500Y19700D01*
X110700Y20500D01*
X115200Y300500D02*
X116000Y301300D01*
X116800Y300500D01*
X116000Y299700D01*
X115200Y300500D01*
Y289500D02*
X116000Y290300D01*
X116800Y289500D01*
X116000Y288700D01*
X115200Y289500D01*
X116200Y270000D02*
X117000Y270800D01*
X117800Y270000D01*
X117000Y269200D01*
X116200Y270000D01*
Y260000D02*
X117000Y260800D01*
X117800Y260000D01*
X117000Y259200D01*
X116200Y260000D01*
Y238000D02*
X117000Y238800D01*
X117800Y238000D01*
X117000Y237200D01*
X116200Y238000D01*
Y228000D02*
X117000Y228800D01*
X117800Y228000D01*
X117000Y227200D01*
X116200Y228000D01*
Y208000D02*
X117000Y208800D01*
X117800Y208000D01*
X117000Y207200D01*
X116200Y208000D01*
Y198000D02*
X117000Y198800D01*
X117800Y198000D01*
X117000Y197200D01*
X116200Y198000D01*
Y175500D02*
X117000Y176300D01*
X117800Y175500D01*
X117000Y174700D01*
X116200Y175500D01*
Y165500D02*
X117000Y166300D01*
X117800Y165500D01*
X117000Y164700D01*
X116200Y165500D01*
Y146000D02*
X117000Y146800D01*
X117800Y146000D01*
X117000Y145200D01*
X116200Y146000D01*
Y136000D02*
X117000Y136800D01*
X117800Y136000D01*
X117000Y135200D01*
X116200Y136000D01*
Y114000D02*
X117000Y114800D01*
X117800Y114000D01*
X117000Y113200D01*
X116200Y114000D01*
Y103500D02*
X117000Y104300D01*
X117800Y103500D01*
X117000Y102700D01*
X116200Y103500D01*
Y84000D02*
X117000Y84800D01*
X117800Y84000D01*
X117000Y83200D01*
X116200Y84000D01*
Y74000D02*
X117000Y74800D01*
X117800Y74000D01*
X117000Y73200D01*
X116200Y74000D01*
X143200Y287000D02*
X144000Y287800D01*
X144800Y287000D01*
X144000Y286200D01*
X143200Y287000D01*
Y274000D02*
X144000Y274800D01*
X144800Y274000D01*
X144000Y273200D01*
X143200Y274000D01*
Y261500D02*
X144000Y262300D01*
X144800Y261500D01*
X144000Y260700D01*
X143200Y261500D01*
Y251500D02*
X144000Y252300D01*
X144800Y251500D01*
X144000Y250700D01*
X143200Y251500D01*
Y235000D02*
X144000Y235800D01*
X144800Y235000D01*
X144000Y234200D01*
X143200Y235000D01*
Y222000D02*
X144000Y222800D01*
X144800Y222000D01*
X144000Y221200D01*
X143200Y222000D01*
Y209500D02*
X144000Y210300D01*
X144800Y209500D01*
X144000Y208700D01*
X143200Y209500D01*
Y199500D02*
X144000Y200300D01*
X144800Y199500D01*
X144000Y198700D01*
X143200Y199500D01*
Y183500D02*
X144000Y184300D01*
X144800Y183500D01*
X144000Y182700D01*
X143200Y183500D01*
Y170000D02*
X144000Y170800D01*
X144800Y170000D01*
X144000Y169200D01*
X143200Y170000D01*
Y157500D02*
X144000Y158300D01*
X144800Y157500D01*
X144000Y156700D01*
X143200Y157500D01*
Y147500D02*
X144000Y148300D01*
X144800Y147500D01*
X144000Y146700D01*
X143200Y147500D01*
Y131000D02*
X144000Y131800D01*
X144800Y131000D01*
X144000Y130200D01*
X143200Y131000D01*
Y118000D02*
X144000Y118800D01*
X144800Y118000D01*
X144000Y117200D01*
X143200Y118000D01*
X254700Y288000D02*
X255500Y288800D01*
X256300Y288000D01*
X255500Y287200D01*
X254700Y288000D01*
Y274500D02*
X255500Y275300D01*
X256300Y274500D01*
X255500Y273700D01*
X254700Y274500D01*
Y263000D02*
X255500Y263800D01*
X256300Y263000D01*
X255500Y262200D01*
X254700Y263000D01*
Y252500D02*
X255500Y253300D01*
X256300Y252500D01*
X255500Y251700D01*
X254700Y252500D01*
Y235500D02*
X255500Y236300D01*
X256300Y235500D01*
X255500Y234700D01*
X254700Y235500D01*
Y222500D02*
X255500Y223300D01*
X256300Y222500D01*
X255500Y221700D01*
X254700Y222500D01*
Y210000D02*
X255500Y210800D01*
X256300Y210000D01*
X255500Y209200D01*
X254700Y210000D01*
Y200000D02*
X255500Y200800D01*
X256300Y200000D01*
X255500Y199200D01*
X254700Y200000D01*
Y183000D02*
X255500Y183800D01*
X256300Y183000D01*
X255500Y182200D01*
X254700Y183000D01*
Y170000D02*
X255500Y170800D01*
X256300Y170000D01*
X255500Y169200D01*
X254700Y170000D01*
Y158000D02*
X255500Y158800D01*
X256300Y158000D01*
X255500Y157200D01*
X254700Y158000D01*
Y148000D02*
X255500Y148800D01*
X256300Y148000D01*
X255500Y147200D01*
X254700Y148000D01*
Y131000D02*
X255500Y131800D01*
X256300Y131000D01*
X255500Y130200D01*
X254700Y131000D01*
Y118000D02*
X255500Y118800D01*
X256300Y118000D01*
X255500Y117200D01*
X254700Y118000D01*
Y106500D02*
X255500Y107300D01*
X256300Y106500D01*
X255500Y105700D01*
X254700Y106500D01*
X188700Y94000D02*
X189500Y94800D01*
X190300Y94000D01*
X189500Y93200D01*
X188700Y94000D01*
X206700Y93900D02*
X207500Y94700D01*
X208300Y93900D01*
X207500Y93100D01*
X206700Y93900D01*
X175200Y81000D02*
X176000Y81800D01*
X176800Y81000D01*
X176000Y80200D01*
X175200Y81000D01*
X188700Y98500D02*
X189500Y99300D01*
X190300Y98500D01*
X189500Y97700D01*
X188700Y98500D01*
X254700Y96500D02*
X255500Y97300D01*
X256300Y96500D01*
X255500Y95700D01*
X254700Y96500D01*
X178700Y70500D02*
X179500Y71300D01*
X180300Y70500D01*
X179500Y69700D01*
X178700Y70500D01*
X181700D02*
X182500Y71300D01*
X183300Y70500D01*
X182500Y69700D01*
X181700Y70500D01*
X143200Y95500D02*
X144000Y96300D01*
X144800Y95500D01*
X144000Y94700D01*
X143200Y95500D01*
Y105500D02*
X144000Y106300D01*
X144800Y105500D01*
X144000Y104700D01*
X143200Y105500D01*
X206700Y76000D02*
X207500Y76800D01*
X208300Y76000D01*
X207500Y75200D01*
X206700Y76000D01*
X220200Y81000D02*
X221000Y81800D01*
X221800Y81000D01*
X221000Y80200D01*
X220200Y81000D01*
X214200Y70500D02*
X215000Y71300D01*
X215800Y70500D01*
X215000Y69700D01*
X214200Y70500D01*
X206700Y98500D02*
X207500Y99300D01*
X208300Y98500D01*
X207500Y97700D01*
X206700Y98500D01*
X188700Y76000D02*
X189500Y76800D01*
X190300Y76000D01*
X189500Y75200D01*
X188700Y76000D01*
X170200Y425500D02*
X171000Y426300D01*
X171800Y425500D01*
X171000Y424700D01*
X170200Y425500D01*
X175200D02*
X176000Y426300D01*
X176800Y425500D01*
X176000Y424700D01*
X175200Y425500D01*
Y406000D02*
X176000Y406800D01*
X176800Y406000D01*
X176000Y405200D01*
X175200Y406000D01*
X176700Y414500D02*
X177500Y415300D01*
X178300Y414500D01*
X177500Y413700D01*
X176700Y414500D01*
X161200Y412500D02*
X162000Y413300D01*
X162800Y412500D01*
X162000Y411700D01*
X161200Y412500D01*
X217200Y294500D02*
X218000Y295300D01*
X218800Y294500D01*
X218000Y293700D01*
X217200Y294500D01*
X237200Y323000D02*
X238000Y323800D01*
X238800Y323000D01*
X238000Y322200D01*
X237200Y323000D01*
X234200D02*
X235000Y323800D01*
X235800Y323000D01*
X235000Y322200D01*
X234200Y323000D01*
X232200Y347500D02*
X233000Y348300D01*
X233800Y347500D01*
X233000Y346700D01*
X232200Y347500D01*
X232700Y344500D02*
X233500Y345300D01*
X234300Y344500D01*
X233500Y343700D01*
X232700Y344500D01*
X166200Y345000D02*
X167000Y345800D01*
X167800Y345000D01*
X167000Y344200D01*
X166200Y345000D01*
X165700Y348000D02*
X166500Y348800D01*
X167300Y348000D01*
X166500Y347200D01*
X165700Y348000D01*
X93200Y344500D02*
X94000Y345300D01*
X94800Y344500D01*
X94000Y343700D01*
X93200Y344500D01*
X92700Y347500D02*
X93500Y348300D01*
X94300Y347500D01*
X93500Y346700D01*
X92700Y347500D01*
X26700Y345000D02*
X27500Y345800D01*
X28300Y345000D01*
X27500Y344200D01*
X26700Y345000D01*
X23700Y347000D02*
X24500Y347800D01*
X25300Y347000D01*
X24500Y346200D01*
X23700Y347000D01*
X37200Y323000D02*
X38000Y323800D01*
X38800Y323000D01*
X38000Y322200D01*
X37200Y323000D01*
X40200D02*
X41000Y323800D01*
X41800Y323000D01*
X41000Y322200D01*
X40200Y323000D01*
X239200Y446500D02*
X240000Y447300D01*
X240800Y446500D01*
X240000Y445700D01*
X239200Y446500D01*
X253200Y449000D02*
X254000Y449800D01*
X254800Y449000D01*
X254000Y448200D01*
X253200Y449000D01*
X252700Y440000D02*
X253500Y440800D01*
X254300Y440000D01*
X253500Y439200D01*
X252700Y440000D01*
X8700Y446000D02*
X9500Y446800D01*
X10300Y446000D01*
X9500Y445200D01*
X8700Y446000D01*
X23200Y448000D02*
X24000Y448800D01*
X24800Y448000D01*
X24000Y447200D01*
X23200Y448000D01*
X22700Y439000D02*
X23500Y439800D01*
X24300Y439000D01*
X23500Y438200D01*
X22700Y439000D01*
X108700Y425500D02*
X109500Y426300D01*
X110300Y425500D01*
X109500Y424700D01*
X108700Y425500D01*
X113700D02*
X114500Y426300D01*
X115300Y425500D01*
X114500Y424700D01*
X113700Y425500D01*
X100200Y412000D02*
X101000Y412800D01*
X101800Y412000D01*
X101000Y411200D01*
X100200Y412000D01*
X114700Y405500D02*
X115500Y406300D01*
X116300Y405500D01*
X115500Y404700D01*
X114700Y405500D01*
Y414500D02*
X115500Y415300D01*
X116300Y414500D01*
X115500Y413700D01*
X114700Y414500D01*
X18700Y388000D02*
X19500Y388800D01*
X20300Y388000D01*
X19500Y387200D01*
X18700Y388000D01*
Y381000D02*
X19500Y381800D01*
X20300Y381000D01*
X19500Y380200D01*
X18700Y381000D01*
Y372000D02*
X19500Y372800D01*
X20300Y372000D01*
X19500Y371200D01*
X18700Y372000D01*
Y363500D02*
X19500Y364300D01*
X20300Y363500D01*
X19500Y362700D01*
X18700Y363500D01*
X25700Y384500D02*
X26500Y385300D01*
X27300Y384500D01*
X26500Y383700D01*
X25700Y384500D01*
Y376500D02*
X26500Y377300D01*
X27300Y376500D01*
X26500Y375700D01*
X25700Y376500D01*
Y367500D02*
X26500Y368300D01*
X27300Y367500D01*
X26500Y366700D01*
X25700Y367500D01*
X32200Y371500D02*
X33000Y372300D01*
X33800Y371500D01*
X33000Y370700D01*
X32200Y371500D01*
Y380500D02*
X33000Y381300D01*
X33800Y380500D01*
X33000Y379700D01*
X32200Y380500D01*
Y388000D02*
X33000Y388800D01*
X33800Y388000D01*
X33000Y387200D01*
X32200Y388000D01*
X32700Y363500D02*
X33500Y364300D01*
X34300Y363500D01*
X33500Y362700D01*
X32700Y363500D01*
X39700Y367000D02*
X40500Y367800D01*
X41300Y367000D01*
X40500Y366200D01*
X39700Y367000D01*
Y376000D02*
X40500Y376800D01*
X41300Y376000D01*
X40500Y375200D01*
X39700Y376000D01*
X39200Y384500D02*
X40000Y385300D01*
X40800Y384500D01*
X40000Y383700D01*
X39200Y384500D01*
X106700Y385000D02*
X107500Y385800D01*
X108300Y385000D01*
X107500Y384200D01*
X106700Y385000D01*
X107200Y376500D02*
X108000Y377300D01*
X108800Y376500D01*
X108000Y375700D01*
X107200Y376500D01*
Y367500D02*
X108000Y368300D01*
X108800Y367500D01*
X108000Y366700D01*
X107200Y367500D01*
X100200Y364000D02*
X101000Y364800D01*
X101800Y364000D01*
X101000Y363200D01*
X100200Y364000D01*
X99700Y388500D02*
X100500Y389300D01*
X101300Y388500D01*
X100500Y387700D01*
X99700Y388500D01*
Y381000D02*
X100500Y381800D01*
X101300Y381000D01*
X100500Y380200D01*
X99700Y381000D01*
Y372000D02*
X100500Y372800D01*
X101300Y372000D01*
X100500Y371200D01*
X99700Y372000D01*
X93200Y368000D02*
X94000Y368800D01*
X94800Y368000D01*
X94000Y367200D01*
X93200Y368000D01*
Y377000D02*
X94000Y377800D01*
X94800Y377000D01*
X94000Y376200D01*
X93200Y377000D01*
Y385000D02*
X94000Y385800D01*
X94800Y385000D01*
X94000Y384200D01*
X93200Y385000D01*
X86200Y364000D02*
X87000Y364800D01*
X87800Y364000D01*
X87000Y363200D01*
X86200Y364000D01*
Y372500D02*
X87000Y373300D01*
X87800Y372500D01*
X87000Y371700D01*
X86200Y372500D01*
Y381500D02*
X87000Y382300D01*
X87800Y381500D01*
X87000Y380700D01*
X86200Y381500D01*
Y388500D02*
X87000Y389300D01*
X87800Y388500D01*
X87000Y387700D01*
X86200Y388500D01*
X179700Y385000D02*
X180500Y385800D01*
X181300Y385000D01*
X180500Y384200D01*
X179700Y385000D01*
X180200Y376500D02*
X181000Y377300D01*
X181800Y376500D01*
X181000Y375700D01*
X180200Y376500D01*
Y367500D02*
X181000Y368300D01*
X181800Y367500D01*
X181000Y366700D01*
X180200Y367500D01*
X173200Y364000D02*
X174000Y364800D01*
X174800Y364000D01*
X174000Y363200D01*
X173200Y364000D01*
X172700Y388500D02*
X173500Y389300D01*
X174300Y388500D01*
X173500Y387700D01*
X172700Y388500D01*
Y381000D02*
X173500Y381800D01*
X174300Y381000D01*
X173500Y380200D01*
X172700Y381000D01*
Y372000D02*
X173500Y372800D01*
X174300Y372000D01*
X173500Y371200D01*
X172700Y372000D01*
X166200Y368000D02*
X167000Y368800D01*
X167800Y368000D01*
X167000Y367200D01*
X166200Y368000D01*
Y377000D02*
X167000Y377800D01*
X167800Y377000D01*
X167000Y376200D01*
X166200Y377000D01*
Y385000D02*
X167000Y385800D01*
X167800Y385000D01*
X167000Y384200D01*
X166200Y385000D01*
X159200Y364000D02*
X160000Y364800D01*
X160800Y364000D01*
X160000Y363200D01*
X159200Y364000D01*
Y372500D02*
X160000Y373300D01*
X160800Y372500D01*
X160000Y371700D01*
X159200Y372500D01*
Y381500D02*
X160000Y382300D01*
X160800Y381500D01*
X160000Y380700D01*
X159200Y381500D01*
Y388500D02*
X160000Y389300D01*
X160800Y388500D01*
X160000Y387700D01*
X159200Y388500D01*
X245700Y384500D02*
X246500Y385300D01*
X247300Y384500D01*
X246500Y383700D01*
X245700Y384500D01*
X246200Y376000D02*
X247000Y376800D01*
X247800Y376000D01*
X247000Y375200D01*
X246200Y376000D01*
Y367000D02*
X247000Y367800D01*
X247800Y367000D01*
X247000Y366200D01*
X246200Y367000D01*
X239200Y363500D02*
X240000Y364300D01*
X240800Y363500D01*
X240000Y362700D01*
X239200Y363500D01*
X238700Y388000D02*
X239500Y388800D01*
X240300Y388000D01*
X239500Y387200D01*
X238700Y388000D01*
Y380500D02*
X239500Y381300D01*
X240300Y380500D01*
X239500Y379700D01*
X238700Y380500D01*
Y371500D02*
X239500Y372300D01*
X240300Y371500D01*
X239500Y370700D01*
X238700Y371500D01*
X232200Y367500D02*
X233000Y368300D01*
X233800Y367500D01*
X233000Y366700D01*
X232200Y367500D01*
Y376500D02*
X233000Y377300D01*
X233800Y376500D01*
X233000Y375700D01*
X232200Y376500D01*
Y384500D02*
X233000Y385300D01*
X233800Y384500D01*
X233000Y383700D01*
X232200Y384500D01*
X225200Y363500D02*
X226000Y364300D01*
X226800Y363500D01*
X226000Y362700D01*
X225200Y363500D01*
Y372000D02*
X226000Y372800D01*
X226800Y372000D01*
X226000Y371200D01*
X225200Y372000D01*
Y381000D02*
X226000Y381800D01*
X226800Y381000D01*
X226000Y380200D01*
X225200Y381000D01*
Y388000D02*
X226000Y388800D01*
X226800Y388000D01*
X226000Y387200D01*
X225200Y388000D01*
X47700Y44500D02*
X48500Y45300D01*
X49300Y44500D01*
X48500Y43700D01*
X47700Y44500D01*
X75700D02*
X76500Y45300D01*
X77300Y44500D01*
X76500Y43700D01*
X75700Y44500D01*
X47700Y14500D02*
X48500Y15300D01*
X49300Y14500D01*
X48500Y13700D01*
X47700Y14500D01*
X75700D02*
X76500Y15300D01*
X77300Y14500D01*
X76500Y13700D01*
X75700Y14500D01*
X180200Y38000D02*
X181000Y38800D01*
X181800Y38000D01*
X181000Y37200D01*
X180200Y38000D01*
X215200D02*
X216000Y38800D01*
X216800Y38000D01*
X216000Y37200D01*
X215200Y38000D01*
X178200Y14000D02*
X179000Y14800D01*
X179800Y14000D01*
X179000Y13200D01*
X178200Y14000D01*
X216700D02*
X217500Y14800D01*
X218300Y14000D01*
X217500Y13200D01*
X216700Y14000D01*
X3700Y467500D02*
X4500Y468300D01*
X5300Y467500D01*
X4500Y466700D01*
X3700Y467500D01*
X16700Y419500D02*
X17500Y420300D01*
X18300Y419500D01*
X17500Y418700D01*
X16700Y419500D01*
X234200Y468500D02*
X235000Y469300D01*
X235800Y468500D01*
X235000Y467700D01*
X234200Y468500D01*
X247700Y421000D02*
X248500Y421800D01*
X249300Y421000D01*
X248500Y420200D01*
X247700Y421000D01*
X163700Y465500D02*
X164500Y466300D01*
X165300Y465500D01*
X164500Y464700D01*
X163700Y465500D01*
X160700D02*
X161500Y466300D01*
X162300Y465500D01*
X161500Y464700D01*
X160700Y465500D01*
X166700D02*
X167500Y466300D01*
X168300Y465500D01*
X167500Y464700D01*
X166700Y465500D01*
X85200Y421000D02*
X86000Y421800D01*
X86800Y421000D01*
X86000Y420200D01*
X85200Y421000D01*
Y408500D02*
X86000Y409300D01*
X86800Y408500D01*
X86000Y407700D01*
X85200Y408500D01*
X147200Y421000D02*
X148000Y421800D01*
X148800Y421000D01*
X148000Y420200D01*
X147200Y421000D01*
X146700Y408000D02*
X147500Y408800D01*
X148300Y408000D01*
X147500Y407200D01*
X146700Y408000D01*
X133700Y383000D02*
X134500Y383800D01*
X135300Y383000D01*
X134500Y382200D01*
X133700Y383000D01*
X123200Y376000D02*
X124000Y376800D01*
X124800Y376000D01*
X124000Y375200D01*
X123200Y376000D01*
X133200Y361000D02*
X134000Y361800D01*
X134800Y361000D01*
X134000Y360200D01*
X133200Y361000D01*
X144200Y336500D02*
X145000Y337300D01*
X145800Y336500D01*
X145000Y335700D01*
X144200Y336500D01*
X84200Y303000D02*
X85000Y303800D01*
X85800Y303000D01*
X85000Y302200D01*
X84200Y303000D01*
X44700Y371000D02*
X45500Y371800D01*
X46300Y371000D01*
X45500Y370200D01*
X44700Y371000D01*
Y388000D02*
X45500Y388800D01*
X46300Y388000D01*
X45500Y387200D01*
X44700Y388000D01*
Y380500D02*
X45500Y381300D01*
X46300Y380500D01*
X45500Y379700D01*
X44700Y380500D01*
X111700Y388000D02*
X112500Y388800D01*
X113300Y388000D01*
X112500Y387200D01*
X111700Y388000D01*
X112200Y380500D02*
X113000Y381300D01*
X113800Y380500D01*
X113000Y379700D01*
X112200Y380500D01*
X111700Y372000D02*
X112500Y372800D01*
X113300Y372000D01*
X112500Y371200D01*
X111700Y372000D01*
X184200Y388500D02*
X185000Y389300D01*
X185800Y388500D01*
X185000Y387700D01*
X184200Y388500D01*
Y380500D02*
X185000Y381300D01*
X185800Y380500D01*
X185000Y379700D01*
X184200Y380500D01*
Y371500D02*
X185000Y372300D01*
X185800Y371500D01*
X185000Y370700D01*
X184200Y371500D01*
X250200Y388000D02*
X251000Y388800D01*
X251800Y388000D01*
X251000Y387200D01*
X250200Y388000D01*
X250700Y380000D02*
X251500Y380800D01*
X252300Y380000D01*
X251500Y379200D01*
X250700Y380000D01*
Y370500D02*
X251500Y371300D01*
X252300Y370500D01*
X251500Y369700D01*
X250700Y370500D01*
X237700Y429500D02*
X238500Y430300D01*
X239300Y429500D01*
X238500Y428700D01*
X237700Y429500D01*
Y426500D02*
X238500Y427300D01*
X239300Y426500D01*
X238500Y425700D01*
X237700Y426500D01*
X220700Y344500D02*
X221500Y345300D01*
X222300Y344500D01*
X221500Y343700D01*
X220700Y344500D01*
X223700D02*
X224500Y345300D01*
X225300Y344500D01*
X224500Y343700D01*
X223700Y344500D01*
X6700Y428500D02*
X7500Y429300D01*
X8300Y428500D01*
X7500Y427700D01*
X6700Y428500D01*
Y425500D02*
X7500Y426300D01*
X8300Y425500D01*
X7500Y424700D01*
X6700Y425500D01*
X17700Y344500D02*
X18500Y345300D01*
X19300Y344500D01*
X18500Y343700D01*
X17700Y344500D01*
X14700D02*
X15500Y345300D01*
X16300Y344500D01*
X15500Y343700D01*
X14700Y344500D01*
X157700Y398000D02*
X158500Y398800D01*
X159300Y398000D01*
X158500Y397200D01*
X157700Y398000D01*
Y401000D02*
X158500Y401800D01*
X159300Y401000D01*
X158500Y400200D01*
X157700Y401000D01*
X158200Y344500D02*
X159000Y345300D01*
X159800Y344500D01*
X159000Y343700D01*
X158200Y344500D01*
X156200Y346000D02*
X157000Y346800D01*
X157800Y346000D01*
X157000Y345200D01*
X156200Y346000D01*
X96200Y401000D02*
X97000Y401800D01*
X97800Y401000D01*
X97000Y400200D01*
X96200Y401000D01*
Y398000D02*
X97000Y398800D01*
X97800Y398000D01*
X97000Y397200D01*
X96200Y398000D01*
X82200Y344500D02*
X83000Y345300D01*
X83800Y344500D01*
X83000Y343700D01*
X82200Y344500D01*
X85200D02*
X86000Y345300D01*
X86800Y344500D01*
X86000Y343700D01*
X85200Y344500D01*
X152814Y326500D02*
X153614Y327300D01*
X154414Y326500D01*
X153614Y325700D01*
X152814Y326500D01*
Y324000D02*
X153614Y324800D01*
X154414Y324000D01*
X153614Y323200D01*
X152814Y324000D01*
X170700Y33000D02*
X171500Y33800D01*
X172300Y33000D01*
X171500Y32200D01*
X170700Y33000D01*
X173200D02*
X174000Y33800D01*
X174800Y33000D01*
X174000Y32200D01*
X173200Y33000D01*
X174200Y344500D02*
X175000Y345300D01*
X175800Y344500D01*
X175000Y343700D01*
X174200Y344500D01*
X176700Y346000D02*
X177500Y346800D01*
X178300Y346000D01*
X177500Y345200D01*
X176700Y346000D01*
X242700D02*
X243500Y346800D01*
X244300Y346000D01*
X243500Y345200D01*
X242700Y346000D01*
X240700Y344500D02*
X241500Y345300D01*
X242300Y344500D01*
X241500Y343700D01*
X240700Y344500D01*
X171700Y326500D02*
X172500Y327300D01*
X173300Y326500D01*
X172500Y325700D01*
X171700Y326500D01*
X174200D02*
X175000Y327300D01*
X175800Y326500D01*
X175000Y325700D01*
X174200Y326500D01*
D322*
X18300Y262500D02*
G03*
X18300Y262500I-800J0D01*
G01*
Y267500D02*
G03*
X18300Y267500I-800J0D01*
G01*
Y272500D02*
G03*
X18300Y272500I-800J0D01*
G01*
Y277500D02*
G03*
X18300Y277500I-800J0D01*
G01*
Y287500D02*
G03*
X18300Y287500I-800J0D01*
G01*
Y292500D02*
G03*
X18300Y292500I-800J0D01*
G01*
Y297500D02*
G03*
X18300Y297500I-800J0D01*
G01*
Y302500D02*
G03*
X18300Y302500I-800J0D01*
G01*
Y307500D02*
G03*
X18300Y307500I-800J0D01*
G01*
Y312500D02*
G03*
X18300Y312500I-800J0D01*
G01*
Y200500D02*
G03*
X18300Y200500I-800J0D01*
G01*
Y205500D02*
G03*
X18300Y205500I-800J0D01*
G01*
Y210500D02*
G03*
X18300Y210500I-800J0D01*
G01*
Y215500D02*
G03*
X18300Y215500I-800J0D01*
G01*
Y225500D02*
G03*
X18300Y225500I-800J0D01*
G01*
Y230500D02*
G03*
X18300Y230500I-800J0D01*
G01*
Y235500D02*
G03*
X18300Y235500I-800J0D01*
G01*
Y240500D02*
G03*
X18300Y240500I-800J0D01*
G01*
Y245500D02*
G03*
X18300Y245500I-800J0D01*
G01*
Y250500D02*
G03*
X18300Y250500I-800J0D01*
G01*
Y138500D02*
G03*
X18300Y138500I-800J0D01*
G01*
Y143500D02*
G03*
X18300Y143500I-800J0D01*
G01*
Y148500D02*
G03*
X18300Y148500I-800J0D01*
G01*
Y153500D02*
G03*
X18300Y153500I-800J0D01*
G01*
Y163500D02*
G03*
X18300Y163500I-800J0D01*
G01*
Y168500D02*
G03*
X18300Y168500I-800J0D01*
G01*
Y173500D02*
G03*
X18300Y173500I-800J0D01*
G01*
Y178500D02*
G03*
X18300Y178500I-800J0D01*
G01*
Y183500D02*
G03*
X18300Y183500I-800J0D01*
G01*
Y188500D02*
G03*
X18300Y188500I-800J0D01*
G01*
Y76500D02*
G03*
X18300Y76500I-800J0D01*
G01*
Y81500D02*
G03*
X18300Y81500I-800J0D01*
G01*
Y86500D02*
G03*
X18300Y86500I-800J0D01*
G01*
Y91500D02*
G03*
X18300Y91500I-800J0D01*
G01*
Y101500D02*
G03*
X18300Y101500I-800J0D01*
G01*
Y106500D02*
G03*
X18300Y106500I-800J0D01*
G01*
Y111500D02*
G03*
X18300Y111500I-800J0D01*
G01*
Y116500D02*
G03*
X18300Y116500I-800J0D01*
G01*
Y121500D02*
G03*
X18300Y121500I-800J0D01*
G01*
Y126500D02*
G03*
X18300Y126500I-800J0D01*
G01*
X244300Y98500D02*
G03*
X244300Y98500I-800J0D01*
G01*
Y103500D02*
G03*
X244300Y103500I-800J0D01*
G01*
Y108500D02*
G03*
X244300Y108500I-800J0D01*
G01*
Y113500D02*
G03*
X244300Y113500I-800J0D01*
G01*
Y118500D02*
G03*
X244300Y118500I-800J0D01*
G01*
Y128500D02*
G03*
X244300Y128500I-800J0D01*
G01*
Y133500D02*
G03*
X244300Y133500I-800J0D01*
G01*
Y138500D02*
G03*
X244300Y138500I-800J0D01*
G01*
Y150500D02*
G03*
X244300Y150500I-800J0D01*
G01*
Y155500D02*
G03*
X244300Y155500I-800J0D01*
G01*
Y160500D02*
G03*
X244300Y160500I-800J0D01*
G01*
Y165500D02*
G03*
X244300Y165500I-800J0D01*
G01*
Y170500D02*
G03*
X244300Y170500I-800J0D01*
G01*
Y180500D02*
G03*
X244300Y180500I-800J0D01*
G01*
Y185500D02*
G03*
X244300Y185500I-800J0D01*
G01*
Y190500D02*
G03*
X244300Y190500I-800J0D01*
G01*
Y202500D02*
G03*
X244300Y202500I-800J0D01*
G01*
Y207500D02*
G03*
X244300Y207500I-800J0D01*
G01*
Y212500D02*
G03*
X244300Y212500I-800J0D01*
G01*
Y217500D02*
G03*
X244300Y217500I-800J0D01*
G01*
Y222500D02*
G03*
X244300Y222500I-800J0D01*
G01*
Y232500D02*
G03*
X244300Y232500I-800J0D01*
G01*
Y237500D02*
G03*
X244300Y237500I-800J0D01*
G01*
Y242500D02*
G03*
X244300Y242500I-800J0D01*
G01*
Y254500D02*
G03*
X244300Y254500I-800J0D01*
G01*
Y259500D02*
G03*
X244300Y259500I-800J0D01*
G01*
Y264500D02*
G03*
X244300Y264500I-800J0D01*
G01*
Y269500D02*
G03*
X244300Y269500I-800J0D01*
G01*
Y274500D02*
G03*
X244300Y274500I-800J0D01*
G01*
Y284500D02*
G03*
X244300Y284500I-800J0D01*
G01*
Y289500D02*
G03*
X244300Y289500I-800J0D01*
G01*
Y294500D02*
G03*
X244300Y294500I-800J0D01*
G01*
X101300Y22500D02*
G03*
X101300Y22500I-800J0D01*
G01*
Y27500D02*
G03*
X101300Y27500I-800J0D01*
G01*
Y37000D02*
G03*
X101300Y37000I-800J0D01*
G01*
Y42000D02*
G03*
X101300Y42000I-800J0D01*
G01*
X24300Y22500D02*
G03*
X24300Y22500I-800J0D01*
G01*
Y27500D02*
G03*
X24300Y27500I-800J0D01*
G01*
Y37000D02*
G03*
X24300Y37000I-800J0D01*
G01*
Y42000D02*
G03*
X24300Y42000I-800J0D01*
G01*
X108300Y76500D02*
G03*
X108300Y76500I-800J0D01*
G01*
Y81500D02*
G03*
X108300Y81500I-800J0D01*
G01*
Y86500D02*
G03*
X108300Y86500I-800J0D01*
G01*
Y91500D02*
G03*
X108300Y91500I-800J0D01*
G01*
Y101500D02*
G03*
X108300Y101500I-800J0D01*
G01*
Y106500D02*
G03*
X108300Y106500I-800J0D01*
G01*
Y111500D02*
G03*
X108300Y111500I-800J0D01*
G01*
Y116500D02*
G03*
X108300Y116500I-800J0D01*
G01*
Y121500D02*
G03*
X108300Y121500I-800J0D01*
G01*
Y126500D02*
G03*
X108300Y126500I-800J0D01*
G01*
X154300Y254500D02*
G03*
X154300Y254500I-800J0D01*
G01*
Y259500D02*
G03*
X154300Y259500I-800J0D01*
G01*
Y264500D02*
G03*
X154300Y264500I-800J0D01*
G01*
Y269500D02*
G03*
X154300Y269500I-800J0D01*
G01*
Y274500D02*
G03*
X154300Y274500I-800J0D01*
G01*
Y284500D02*
G03*
X154300Y284500I-800J0D01*
G01*
Y289500D02*
G03*
X154300Y289500I-800J0D01*
G01*
Y294500D02*
G03*
X154300Y294500I-800J0D01*
G01*
Y202500D02*
G03*
X154300Y202500I-800J0D01*
G01*
Y207500D02*
G03*
X154300Y207500I-800J0D01*
G01*
Y212500D02*
G03*
X154300Y212500I-800J0D01*
G01*
Y217500D02*
G03*
X154300Y217500I-800J0D01*
G01*
Y222500D02*
G03*
X154300Y222500I-800J0D01*
G01*
Y232500D02*
G03*
X154300Y232500I-800J0D01*
G01*
Y237500D02*
G03*
X154300Y237500I-800J0D01*
G01*
Y242500D02*
G03*
X154300Y242500I-800J0D01*
G01*
Y150500D02*
G03*
X154300Y150500I-800J0D01*
G01*
Y155500D02*
G03*
X154300Y155500I-800J0D01*
G01*
Y160500D02*
G03*
X154300Y160500I-800J0D01*
G01*
Y165500D02*
G03*
X154300Y165500I-800J0D01*
G01*
Y170500D02*
G03*
X154300Y170500I-800J0D01*
G01*
Y180500D02*
G03*
X154300Y180500I-800J0D01*
G01*
Y185500D02*
G03*
X154300Y185500I-800J0D01*
G01*
Y190500D02*
G03*
X154300Y190500I-800J0D01*
G01*
Y98500D02*
G03*
X154300Y98500I-800J0D01*
G01*
Y103500D02*
G03*
X154300Y103500I-800J0D01*
G01*
Y108500D02*
G03*
X154300Y108500I-800J0D01*
G01*
Y113500D02*
G03*
X154300Y113500I-800J0D01*
G01*
Y118500D02*
G03*
X154300Y118500I-800J0D01*
G01*
Y128500D02*
G03*
X154300Y128500I-800J0D01*
G01*
Y133500D02*
G03*
X154300Y133500I-800J0D01*
G01*
Y138500D02*
G03*
X154300Y138500I-800J0D01*
G01*
X108300D02*
G03*
X108300Y138500I-800J0D01*
G01*
Y143500D02*
G03*
X108300Y143500I-800J0D01*
G01*
Y148500D02*
G03*
X108300Y148500I-800J0D01*
G01*
Y153500D02*
G03*
X108300Y153500I-800J0D01*
G01*
Y163500D02*
G03*
X108300Y163500I-800J0D01*
G01*
Y168500D02*
G03*
X108300Y168500I-800J0D01*
G01*
Y173500D02*
G03*
X108300Y173500I-800J0D01*
G01*
Y178500D02*
G03*
X108300Y178500I-800J0D01*
G01*
Y183500D02*
G03*
X108300Y183500I-800J0D01*
G01*
Y188500D02*
G03*
X108300Y188500I-800J0D01*
G01*
Y200500D02*
G03*
X108300Y200500I-800J0D01*
G01*
Y205500D02*
G03*
X108300Y205500I-800J0D01*
G01*
Y210500D02*
G03*
X108300Y210500I-800J0D01*
G01*
Y215500D02*
G03*
X108300Y215500I-800J0D01*
G01*
Y225500D02*
G03*
X108300Y225500I-800J0D01*
G01*
Y230500D02*
G03*
X108300Y230500I-800J0D01*
G01*
Y235500D02*
G03*
X108300Y235500I-800J0D01*
G01*
Y240500D02*
G03*
X108300Y240500I-800J0D01*
G01*
Y245500D02*
G03*
X108300Y245500I-800J0D01*
G01*
Y250500D02*
G03*
X108300Y250500I-800J0D01*
G01*
Y262500D02*
G03*
X108300Y262500I-800J0D01*
G01*
Y267500D02*
G03*
X108300Y267500I-800J0D01*
G01*
Y272500D02*
G03*
X108300Y272500I-800J0D01*
G01*
Y277500D02*
G03*
X108300Y277500I-800J0D01*
G01*
Y287500D02*
G03*
X108300Y287500I-800J0D01*
G01*
Y292500D02*
G03*
X108300Y292500I-800J0D01*
G01*
Y297500D02*
G03*
X108300Y297500I-800J0D01*
G01*
Y302500D02*
G03*
X108300Y302500I-800J0D01*
G01*
Y307500D02*
G03*
X108300Y307500I-800J0D01*
G01*
Y312500D02*
G03*
X108300Y312500I-800J0D01*
G01*
M02*
