G04 Layer_Color=128*
%FSLAX25Y25*%
%MOIN*%
G70*
G01*
G75*
%ADD26C,0.01000*%
%ADD27C,0.00600*%
%ADD321C,0.00200*%
D26*
X0Y0D02*
Y320000D01*
X260000Y0D02*
Y320000D01*
X0Y0D02*
X260000D01*
X0D02*
Y460000D01*
X260000Y0D02*
Y460000D01*
X0Y0D02*
X260000D01*
D27*
X0D02*
X260000D01*
Y512000D01*
X0D02*
X260000D01*
X0Y0D02*
Y512000D01*
D321*
X17008Y282500D02*
X17992D01*
X17500Y282008D02*
Y282992D01*
X16122Y262500D02*
X18878D01*
X17500Y261122D02*
Y263878D01*
X16122Y267500D02*
X18878D01*
X17500Y266122D02*
Y268878D01*
X16122Y272500D02*
X18878D01*
X17500Y271122D02*
Y273878D01*
X16122Y277500D02*
X18878D01*
X17500Y276122D02*
Y278878D01*
X16122Y287500D02*
X18878D01*
X17500Y286122D02*
Y288878D01*
X16122Y292500D02*
X18878D01*
X17500Y291122D02*
Y293878D01*
X16122Y297500D02*
X18878D01*
X17500Y296122D02*
Y298878D01*
X16122Y302500D02*
X18878D01*
X17500Y301122D02*
Y303878D01*
X16122Y307500D02*
X18878D01*
X17500Y306122D02*
Y308878D01*
X16122Y312500D02*
X18878D01*
X17500Y311122D02*
Y313878D01*
X17008Y220500D02*
X17992D01*
X17500Y220008D02*
Y220992D01*
X16122Y200500D02*
X18878D01*
X17500Y199122D02*
Y201878D01*
X16122Y205500D02*
X18878D01*
X17500Y204122D02*
Y206878D01*
X16122Y210500D02*
X18878D01*
X17500Y209122D02*
Y211878D01*
X16122Y215500D02*
X18878D01*
X17500Y214122D02*
Y216878D01*
X16122Y225500D02*
X18878D01*
X17500Y224122D02*
Y226878D01*
X16122Y230500D02*
X18878D01*
X17500Y229122D02*
Y231878D01*
X16122Y235500D02*
X18878D01*
X17500Y234122D02*
Y236878D01*
X16122Y240500D02*
X18878D01*
X17500Y239122D02*
Y241878D01*
X16122Y245500D02*
X18878D01*
X17500Y244122D02*
Y246878D01*
X16122Y250500D02*
X18878D01*
X17500Y249122D02*
Y251878D01*
X17008Y158500D02*
X17992D01*
X17500Y158008D02*
Y158992D01*
X16122Y138500D02*
X18878D01*
X17500Y137122D02*
Y139878D01*
X16122Y143500D02*
X18878D01*
X17500Y142122D02*
Y144878D01*
X16122Y148500D02*
X18878D01*
X17500Y147122D02*
Y149878D01*
X16122Y153500D02*
X18878D01*
X17500Y152122D02*
Y154878D01*
X16122Y163500D02*
X18878D01*
X17500Y162122D02*
Y164878D01*
X16122Y168500D02*
X18878D01*
X17500Y167122D02*
Y169878D01*
X16122Y173500D02*
X18878D01*
X17500Y172122D02*
Y174878D01*
X16122Y178500D02*
X18878D01*
X17500Y177122D02*
Y179878D01*
X16122Y183500D02*
X18878D01*
X17500Y182122D02*
Y184878D01*
X16122Y188500D02*
X18878D01*
X17500Y187122D02*
Y189878D01*
X17008Y96500D02*
X17992D01*
X17500Y96008D02*
Y96992D01*
X16122Y76500D02*
X18878D01*
X17500Y75122D02*
Y77878D01*
X16122Y81500D02*
X18878D01*
X17500Y80122D02*
Y82878D01*
X16122Y86500D02*
X18878D01*
X17500Y85122D02*
Y87878D01*
X16122Y91500D02*
X18878D01*
X17500Y90122D02*
Y92878D01*
X16122Y101500D02*
X18878D01*
X17500Y100122D02*
Y102878D01*
X16122Y106500D02*
X18878D01*
X17500Y105122D02*
Y107878D01*
X16122Y111500D02*
X18878D01*
X17500Y110122D02*
Y112878D01*
X16122Y116500D02*
X18878D01*
X17500Y115122D02*
Y117878D01*
X16122Y121500D02*
X18878D01*
X17500Y120122D02*
Y122878D01*
X16122Y126500D02*
X18878D01*
X17500Y125122D02*
Y127878D01*
X243008Y123500D02*
X243992D01*
X243500Y123008D02*
Y123992D01*
X242122Y98500D02*
X244878D01*
X243500Y97122D02*
Y99878D01*
X242122Y103500D02*
X244878D01*
X243500Y102122D02*
Y104878D01*
X242122Y108500D02*
X244878D01*
X243500Y107122D02*
Y109878D01*
X242122Y113500D02*
X244878D01*
X243500Y112122D02*
Y114878D01*
X242122Y118500D02*
X244878D01*
X243500Y117122D02*
Y119878D01*
X242122Y128500D02*
X244878D01*
X243500Y127122D02*
Y129878D01*
X242122Y133500D02*
X244878D01*
X243500Y132122D02*
Y134878D01*
X242122Y138500D02*
X244878D01*
X243500Y137122D02*
Y139878D01*
X243008Y175500D02*
X243992D01*
X243500Y175008D02*
Y175992D01*
X242122Y150500D02*
X244878D01*
X243500Y149122D02*
Y151878D01*
X242122Y155500D02*
X244878D01*
X243500Y154122D02*
Y156878D01*
X242122Y160500D02*
X244878D01*
X243500Y159122D02*
Y161878D01*
X242122Y165500D02*
X244878D01*
X243500Y164122D02*
Y166878D01*
X242122Y170500D02*
X244878D01*
X243500Y169122D02*
Y171878D01*
X242122Y180500D02*
X244878D01*
X243500Y179122D02*
Y181878D01*
X242122Y185500D02*
X244878D01*
X243500Y184122D02*
Y186878D01*
X242122Y190500D02*
X244878D01*
X243500Y189122D02*
Y191878D01*
X243008Y227500D02*
X243992D01*
X243500Y227008D02*
Y227992D01*
X242122Y202500D02*
X244878D01*
X243500Y201122D02*
Y203878D01*
X242122Y207500D02*
X244878D01*
X243500Y206122D02*
Y208878D01*
X242122Y212500D02*
X244878D01*
X243500Y211122D02*
Y213878D01*
X242122Y217500D02*
X244878D01*
X243500Y216122D02*
Y218878D01*
X242122Y222500D02*
X244878D01*
X243500Y221122D02*
Y223878D01*
X242122Y232500D02*
X244878D01*
X243500Y231122D02*
Y233878D01*
X242122Y237500D02*
X244878D01*
X243500Y236122D02*
Y238878D01*
X242122Y242500D02*
X244878D01*
X243500Y241122D02*
Y243878D01*
X243008Y279500D02*
X243992D01*
X243500Y279008D02*
Y279992D01*
X242122Y254500D02*
X244878D01*
X243500Y253122D02*
Y255878D01*
X242122Y259500D02*
X244878D01*
X243500Y258122D02*
Y260878D01*
X242122Y264500D02*
X244878D01*
X243500Y263122D02*
Y265878D01*
X242122Y269500D02*
X244878D01*
X243500Y268122D02*
Y270878D01*
X242122Y274500D02*
X244878D01*
X243500Y273122D02*
Y275878D01*
X242122Y284500D02*
X244878D01*
X243500Y283122D02*
Y285878D01*
X242122Y289500D02*
X244878D01*
X243500Y288122D02*
Y290878D01*
X242122Y294500D02*
X244878D01*
X243500Y293122D02*
Y295878D01*
X76335Y452000D02*
X80665D01*
X78500Y449835D02*
Y454165D01*
X86335Y452000D02*
X90665D01*
X88500Y449835D02*
Y454165D01*
X56335Y452000D02*
X60665D01*
X58500Y449835D02*
Y454165D01*
X106335Y452000D02*
X110665D01*
X108500Y449835D02*
Y454165D01*
X96335Y452000D02*
X100665D01*
X98500Y449835D02*
Y454165D01*
X46335Y452000D02*
X50665D01*
X48500Y449835D02*
Y454165D01*
X36335Y452000D02*
X40665D01*
X38500Y449835D02*
Y454165D01*
X68354Y440000D02*
X71898D01*
X70126Y438228D02*
Y441772D01*
X76228Y440000D02*
X79772D01*
X78000Y438228D02*
Y441772D01*
X57331Y440000D02*
X60874D01*
X59102Y438228D02*
Y441772D01*
X84102Y440000D02*
X87646D01*
X85874Y438228D02*
Y441772D01*
X49457Y440000D02*
X53000D01*
X51228Y438228D02*
Y441772D01*
X210335Y438000D02*
X214665D01*
X212500Y435835D02*
Y440165D01*
X220335Y438000D02*
X224665D01*
X222500Y435835D02*
Y440165D01*
X180335Y438000D02*
X184665D01*
X182500Y435835D02*
Y440165D01*
X200335Y438000D02*
X204665D01*
X202500Y435835D02*
Y440165D01*
X170335Y438000D02*
X174665D01*
X172500Y435835D02*
Y440165D01*
X160335Y438000D02*
X164665D01*
X162500Y435835D02*
Y440165D01*
X150335Y438000D02*
X154665D01*
X152500Y435835D02*
Y440165D01*
X208126Y450000D02*
X211669D01*
X209898Y448228D02*
Y451772D01*
X189228Y450000D02*
X192772D01*
X191000Y448228D02*
Y451772D01*
X200252Y450000D02*
X203795D01*
X202024Y448228D02*
Y451772D01*
X181354Y450000D02*
X184898D01*
X183126Y448228D02*
Y451772D01*
X173480Y450000D02*
X177024D01*
X175252Y448228D02*
Y451772D01*
X33835Y500800D02*
X38165D01*
X36000Y498635D02*
Y502965D01*
X23835Y500800D02*
X28165D01*
X26000Y498635D02*
Y502965D01*
X13835Y500800D02*
X18165D01*
X16000Y498635D02*
Y502965D01*
X232335Y482200D02*
X236665D01*
X234500Y480035D02*
Y484365D01*
X222335Y482200D02*
X226665D01*
X224500Y480035D02*
Y484365D01*
X242335Y482200D02*
X246665D01*
X244500Y480035D02*
Y484365D01*
X120627Y496500D02*
X123973D01*
X122300Y494827D02*
Y498173D01*
X120527Y459000D02*
X123873D01*
X122200Y457327D02*
Y460673D01*
X93728Y472500D02*
X97272D01*
X95500Y470728D02*
Y474272D01*
X83728Y472500D02*
X87272D01*
X85500Y470728D02*
Y474272D01*
X81228Y503500D02*
X84772D01*
X83000Y501728D02*
Y505272D01*
X71228Y503500D02*
X74772D01*
X73000Y501728D02*
Y505272D01*
X99122Y22500D02*
X101878D01*
X100500Y21122D02*
Y23878D01*
X99122Y27500D02*
X101878D01*
X100500Y26122D02*
Y28878D01*
X99122Y37000D02*
X101878D01*
X100500Y35622D02*
Y38378D01*
X99122Y42000D02*
X101878D01*
X100500Y40622D02*
Y43378D01*
X249728Y54500D02*
X253272D01*
X251500Y52728D02*
Y56272D01*
X249728Y64500D02*
X253272D01*
X251500Y62728D02*
Y66272D01*
X249728Y44500D02*
X253272D01*
X251500Y42728D02*
Y46272D01*
X249728Y74500D02*
X253272D01*
X251500Y72728D02*
Y76272D01*
X249728Y34500D02*
X253272D01*
X251500Y32728D02*
Y36272D01*
X249728Y24500D02*
X253272D01*
X251500Y22728D02*
Y26272D01*
X249728Y14500D02*
X253272D01*
X251500Y12728D02*
Y16272D01*
X239728Y74500D02*
X243272D01*
X241500Y72728D02*
Y76272D01*
X239728Y64500D02*
X243272D01*
X241500Y62728D02*
Y66272D01*
X239728Y44500D02*
X243272D01*
X241500Y42728D02*
Y46272D01*
X239728Y54500D02*
X243272D01*
X241500Y52728D02*
Y56272D01*
X239728Y34500D02*
X243272D01*
X241500Y32728D02*
Y36272D01*
X239728Y14500D02*
X243272D01*
X241500Y12728D02*
Y16272D01*
X239728Y24500D02*
X243272D01*
X241500Y22728D02*
Y26272D01*
X22122Y22500D02*
X24878D01*
X23500Y21122D02*
Y23878D01*
X22122Y27500D02*
X24878D01*
X23500Y26122D02*
Y28878D01*
X22122Y37000D02*
X24878D01*
X23500Y35622D02*
Y38378D01*
X22122Y42000D02*
X24878D01*
X23500Y40622D02*
Y43378D01*
X107008Y96500D02*
X107992D01*
X107500Y96008D02*
Y96992D01*
X106122Y76500D02*
X108878D01*
X107500Y75122D02*
Y77878D01*
X106122Y81500D02*
X108878D01*
X107500Y80122D02*
Y82878D01*
X106122Y86500D02*
X108878D01*
X107500Y85122D02*
Y87878D01*
X106122Y91500D02*
X108878D01*
X107500Y90122D02*
Y92878D01*
X106122Y101500D02*
X108878D01*
X107500Y100122D02*
Y102878D01*
X106122Y106500D02*
X108878D01*
X107500Y105122D02*
Y107878D01*
X106122Y111500D02*
X108878D01*
X107500Y110122D02*
Y112878D01*
X106122Y116500D02*
X108878D01*
X107500Y115122D02*
Y117878D01*
X106122Y121500D02*
X108878D01*
X107500Y120122D02*
Y122878D01*
X106122Y126500D02*
X108878D01*
X107500Y125122D02*
Y127878D01*
X153008Y279500D02*
X153992D01*
X153500Y279008D02*
Y279992D01*
X152122Y254500D02*
X154878D01*
X153500Y253122D02*
Y255878D01*
X152122Y259500D02*
X154878D01*
X153500Y258122D02*
Y260878D01*
X152122Y264500D02*
X154878D01*
X153500Y263122D02*
Y265878D01*
X152122Y269500D02*
X154878D01*
X153500Y268122D02*
Y270878D01*
X152122Y274500D02*
X154878D01*
X153500Y273122D02*
Y275878D01*
X152122Y284500D02*
X154878D01*
X153500Y283122D02*
Y285878D01*
X152122Y289500D02*
X154878D01*
X153500Y288122D02*
Y290878D01*
X152122Y294500D02*
X154878D01*
X153500Y293122D02*
Y295878D01*
X153008Y227500D02*
X153992D01*
X153500Y227008D02*
Y227992D01*
X152122Y202500D02*
X154878D01*
X153500Y201122D02*
Y203878D01*
X152122Y207500D02*
X154878D01*
X153500Y206122D02*
Y208878D01*
X152122Y212500D02*
X154878D01*
X153500Y211122D02*
Y213878D01*
X152122Y217500D02*
X154878D01*
X153500Y216122D02*
Y218878D01*
X152122Y222500D02*
X154878D01*
X153500Y221122D02*
Y223878D01*
X152122Y232500D02*
X154878D01*
X153500Y231122D02*
Y233878D01*
X152122Y237500D02*
X154878D01*
X153500Y236122D02*
Y238878D01*
X152122Y242500D02*
X154878D01*
X153500Y241122D02*
Y243878D01*
X153008Y175500D02*
X153992D01*
X153500Y175008D02*
Y175992D01*
X152122Y150500D02*
X154878D01*
X153500Y149122D02*
Y151878D01*
X152122Y155500D02*
X154878D01*
X153500Y154122D02*
Y156878D01*
X152122Y160500D02*
X154878D01*
X153500Y159122D02*
Y161878D01*
X152122Y165500D02*
X154878D01*
X153500Y164122D02*
Y166878D01*
X152122Y170500D02*
X154878D01*
X153500Y169122D02*
Y171878D01*
X152122Y180500D02*
X154878D01*
X153500Y179122D02*
Y181878D01*
X152122Y185500D02*
X154878D01*
X153500Y184122D02*
Y186878D01*
X152122Y190500D02*
X154878D01*
X153500Y189122D02*
Y191878D01*
X153008Y123500D02*
X153992D01*
X153500Y123008D02*
Y123992D01*
X152122Y98500D02*
X154878D01*
X153500Y97122D02*
Y99878D01*
X152122Y103500D02*
X154878D01*
X153500Y102122D02*
Y104878D01*
X152122Y108500D02*
X154878D01*
X153500Y107122D02*
Y109878D01*
X152122Y113500D02*
X154878D01*
X153500Y112122D02*
Y114878D01*
X152122Y118500D02*
X154878D01*
X153500Y117122D02*
Y119878D01*
X152122Y128500D02*
X154878D01*
X153500Y127122D02*
Y129878D01*
X152122Y133500D02*
X154878D01*
X153500Y132122D02*
Y134878D01*
X152122Y138500D02*
X154878D01*
X153500Y137122D02*
Y139878D01*
X134700Y491600D02*
X138300D01*
X136500Y489800D02*
Y493400D01*
X134700Y472000D02*
X138300D01*
X136500Y470200D02*
Y473800D01*
X107008Y158500D02*
X107992D01*
X107500Y158008D02*
Y158992D01*
X106122Y138500D02*
X108878D01*
X107500Y137122D02*
Y139878D01*
X106122Y143500D02*
X108878D01*
X107500Y142122D02*
Y144878D01*
X106122Y148500D02*
X108878D01*
X107500Y147122D02*
Y149878D01*
X106122Y153500D02*
X108878D01*
X107500Y152122D02*
Y154878D01*
X106122Y163500D02*
X108878D01*
X107500Y162122D02*
Y164878D01*
X106122Y168500D02*
X108878D01*
X107500Y167122D02*
Y169878D01*
X106122Y173500D02*
X108878D01*
X107500Y172122D02*
Y174878D01*
X106122Y178500D02*
X108878D01*
X107500Y177122D02*
Y179878D01*
X106122Y183500D02*
X108878D01*
X107500Y182122D02*
Y184878D01*
X106122Y188500D02*
X108878D01*
X107500Y187122D02*
Y189878D01*
X107008Y220500D02*
X107992D01*
X107500Y220008D02*
Y220992D01*
X106122Y200500D02*
X108878D01*
X107500Y199122D02*
Y201878D01*
X106122Y205500D02*
X108878D01*
X107500Y204122D02*
Y206878D01*
X106122Y210500D02*
X108878D01*
X107500Y209122D02*
Y211878D01*
X106122Y215500D02*
X108878D01*
X107500Y214122D02*
Y216878D01*
X106122Y225500D02*
X108878D01*
X107500Y224122D02*
Y226878D01*
X106122Y230500D02*
X108878D01*
X107500Y229122D02*
Y231878D01*
X106122Y235500D02*
X108878D01*
X107500Y234122D02*
Y236878D01*
X106122Y240500D02*
X108878D01*
X107500Y239122D02*
Y241878D01*
X106122Y245500D02*
X108878D01*
X107500Y244122D02*
Y246878D01*
X106122Y250500D02*
X108878D01*
X107500Y249122D02*
Y251878D01*
X107008Y282500D02*
X107992D01*
X107500Y282008D02*
Y282992D01*
X106122Y262500D02*
X108878D01*
X107500Y261122D02*
Y263878D01*
X106122Y267500D02*
X108878D01*
X107500Y266122D02*
Y268878D01*
X106122Y272500D02*
X108878D01*
X107500Y271122D02*
Y273878D01*
X106122Y277500D02*
X108878D01*
X107500Y276122D02*
Y278878D01*
X106122Y287500D02*
X108878D01*
X107500Y286122D02*
Y288878D01*
X106122Y292500D02*
X108878D01*
X107500Y291122D02*
Y293878D01*
X106122Y297500D02*
X108878D01*
X107500Y296122D02*
Y298878D01*
X106122Y302500D02*
X108878D01*
X107500Y301122D02*
Y303878D01*
X106122Y307500D02*
X108878D01*
X107500Y306122D02*
Y308878D01*
X106122Y312500D02*
X108878D01*
X107500Y311122D02*
Y313878D01*
X123750Y300004D02*
X136250D01*
X130000Y293754D02*
Y306254D01*
X123750Y19996D02*
X136250D01*
X130000Y13746D02*
Y26246D01*
X238250Y314500D02*
X239750D01*
X239000Y313750D02*
Y315250D01*
X235750Y316500D02*
X237250D01*
X236500Y315750D02*
Y317250D01*
X224750Y291000D02*
X226250D01*
X225500Y290250D02*
Y291750D01*
X222750Y288500D02*
X224250D01*
X223500Y287750D02*
Y289250D01*
X224750Y259000D02*
X226250D01*
X225500Y258250D02*
Y259750D01*
X222750Y256500D02*
X224250D01*
X223500Y255750D02*
Y257250D01*
X225250Y227000D02*
X226750D01*
X226000Y226250D02*
Y227750D01*
X222750Y224500D02*
X224250D01*
X223500Y223750D02*
Y225250D01*
X225750Y195000D02*
X227250D01*
X226500Y194250D02*
Y195750D01*
X223250Y192500D02*
X224750D01*
X224000Y191750D02*
Y193250D01*
X225250Y164000D02*
X226750D01*
X226000Y163250D02*
Y164750D01*
X222750Y161500D02*
X224250D01*
X223500Y160750D02*
Y162250D01*
X223750Y132000D02*
X225250D01*
X224500Y131250D02*
Y132750D01*
X221750Y129500D02*
X223250D01*
X222500Y128750D02*
Y130250D01*
X224250Y99500D02*
X225750D01*
X225000Y98750D02*
Y100250D01*
X222250Y97000D02*
X223750D01*
X223000Y96250D02*
Y97750D01*
X172750Y132500D02*
X174250D01*
X173500Y131750D02*
Y133250D01*
X175250Y130100D02*
X176750D01*
X176000Y129350D02*
Y130850D01*
X172750Y165500D02*
X174250D01*
X173500Y164750D02*
Y166250D01*
X174750Y163000D02*
X176250D01*
X175500Y162250D02*
Y163750D01*
X173750Y196500D02*
X175250D01*
X174500Y195750D02*
Y197250D01*
X172250Y193500D02*
X173750D01*
X173000Y192750D02*
Y194250D01*
X174250Y225500D02*
X175750D01*
X175000Y224750D02*
Y226250D01*
X171750Y223500D02*
X173250D01*
X172500Y222750D02*
Y224250D01*
X173750Y255000D02*
X175250D01*
X174500Y254250D02*
Y255750D01*
X175250Y258000D02*
X176750D01*
X176000Y257250D02*
Y258750D01*
X174750Y291500D02*
X176250D01*
X175500Y290750D02*
Y292250D01*
X174750Y289000D02*
X176250D01*
X175500Y288250D02*
Y289750D01*
X37250Y287000D02*
X38750D01*
X38000Y286250D02*
Y287750D01*
X32250Y287500D02*
X33750D01*
X33000Y286750D02*
Y288250D01*
X35250Y291000D02*
X36750D01*
X36000Y290250D02*
Y291750D01*
X36750Y255000D02*
X38250D01*
X37500Y254250D02*
Y255750D01*
X31750Y255500D02*
X33250D01*
X32500Y254750D02*
Y256250D01*
X34750Y259000D02*
X36250D01*
X35500Y258250D02*
Y259750D01*
X36750Y223000D02*
X38250D01*
X37500Y222250D02*
Y223750D01*
X31750Y223500D02*
X33250D01*
X32500Y222750D02*
Y224250D01*
X34750Y227000D02*
X36250D01*
X35500Y226250D02*
Y227750D01*
X36750Y191000D02*
X38250D01*
X37500Y190250D02*
Y191750D01*
X31750Y191500D02*
X33250D01*
X32500Y190750D02*
Y192250D01*
X34750Y195000D02*
X36250D01*
X35500Y194250D02*
Y195750D01*
X36750Y159000D02*
X38250D01*
X37500Y158250D02*
Y159750D01*
X31750Y159500D02*
X33250D01*
X32500Y158750D02*
Y160250D01*
X34750Y163000D02*
X36250D01*
X35500Y162250D02*
Y163750D01*
X36750Y127000D02*
X38250D01*
X37500Y126250D02*
Y127750D01*
X31750Y127500D02*
X33250D01*
X32500Y126750D02*
Y128250D01*
X34750Y131000D02*
X36250D01*
X35500Y130250D02*
Y131750D01*
X34250Y99000D02*
X35750D01*
X35000Y98250D02*
Y99750D01*
X31250Y95500D02*
X32750D01*
X32000Y94750D02*
Y96250D01*
X36250Y95000D02*
X37750D01*
X37000Y94250D02*
Y95750D01*
X221250Y300500D02*
X222750D01*
X222000Y299750D02*
Y301250D01*
X221250Y268500D02*
X222750D01*
X222000Y267750D02*
Y269250D01*
X221250Y236500D02*
X222750D01*
X222000Y235750D02*
Y237250D01*
X221250Y204500D02*
X222750D01*
X222000Y203750D02*
Y205250D01*
X221250Y172500D02*
X222750D01*
X222000Y171750D02*
Y173250D01*
X221250Y140500D02*
X222750D01*
X222000Y139750D02*
Y141250D01*
X221250Y108500D02*
X222750D01*
X222000Y107750D02*
Y109250D01*
X221250Y76500D02*
X222750D01*
X222000Y75750D02*
Y77250D01*
X173750Y300500D02*
X175250D01*
X174500Y299750D02*
Y301250D01*
X173750Y268500D02*
X175250D01*
X174500Y267750D02*
Y269250D01*
X173750Y236500D02*
X175250D01*
X174500Y235750D02*
Y237250D01*
X173750Y204500D02*
X175250D01*
X174500Y203750D02*
Y205250D01*
X173750Y172500D02*
X175250D01*
X174500Y171750D02*
Y173250D01*
X173750Y140500D02*
X175250D01*
X174500Y139750D02*
Y141250D01*
X173750Y108500D02*
X175250D01*
X174500Y107750D02*
Y109250D01*
X173750Y76500D02*
X175250D01*
X174500Y75750D02*
Y77250D01*
X85250Y298500D02*
X86750D01*
X86000Y297750D02*
Y299250D01*
X85250Y266500D02*
X86750D01*
X86000Y265750D02*
Y267250D01*
X85250Y234500D02*
X86750D01*
X86000Y233750D02*
Y235250D01*
X85250Y202500D02*
X86750D01*
X86000Y201750D02*
Y203250D01*
X85250Y170500D02*
X86750D01*
X86000Y169750D02*
Y171250D01*
X85250Y138500D02*
X86750D01*
X86000Y137750D02*
Y139250D01*
X84250Y143000D02*
X85750D01*
X85000Y142250D02*
Y143750D01*
X85250Y106500D02*
X86750D01*
X86000Y105750D02*
Y107250D01*
X85250Y74400D02*
X86750D01*
X86000Y73650D02*
Y75150D01*
X38250Y298500D02*
X39750D01*
X39000Y297750D02*
Y299250D01*
X38250Y266500D02*
X39750D01*
X39000Y265750D02*
Y267250D01*
X38250Y234500D02*
X39750D01*
X39000Y233750D02*
Y235250D01*
X38250Y202500D02*
X39750D01*
X39000Y201750D02*
Y203250D01*
X38250Y170500D02*
X39750D01*
X39000Y169750D02*
Y171250D01*
X38250Y138500D02*
X39750D01*
X39000Y137750D02*
Y139250D01*
X38250Y106500D02*
X39750D01*
X39000Y105750D02*
Y107250D01*
X38250Y74500D02*
X39750D01*
X39000Y73750D02*
Y75250D01*
X28750Y49500D02*
X30250D01*
X29500Y48750D02*
Y50250D01*
X31750Y49500D02*
X33250D01*
X32500Y48750D02*
Y50250D01*
X25750Y318500D02*
X27250D01*
X26500Y317750D02*
Y319250D01*
X27250Y321000D02*
X28750D01*
X28000Y320250D02*
Y321750D01*
X245250Y317500D02*
X246750D01*
X246000Y316750D02*
Y318250D01*
X245250Y320500D02*
X246750D01*
X246000Y319750D02*
Y321250D01*
X219250Y23000D02*
X220750D01*
X220000Y22250D02*
Y23750D01*
X222250Y23000D02*
X223750D01*
X223000Y22250D02*
Y23750D01*
X151250Y34500D02*
X152750D01*
X152000Y33750D02*
Y35250D01*
X153250Y32500D02*
X154750D01*
X154000Y31750D02*
Y33250D01*
X85750Y52500D02*
X87250D01*
X86500Y51750D02*
Y53250D01*
X88750Y52500D02*
X90250D01*
X89500Y51750D02*
Y53250D01*
X138250Y361000D02*
X139750D01*
X139000Y360250D02*
Y361750D01*
X138250Y358000D02*
X139750D01*
X139000Y357250D02*
Y358750D01*
X93750Y18000D02*
X95250D01*
X94500Y17250D02*
Y18750D01*
X91750Y19500D02*
X93250D01*
X92500Y18750D02*
Y20250D01*
X103750Y346000D02*
X105250D01*
X104500Y345250D02*
Y346750D01*
X101250Y344500D02*
X102750D01*
X102000Y343750D02*
Y345250D01*
X101250Y326500D02*
X102750D01*
X102000Y325750D02*
Y327250D01*
X98750Y326500D02*
X100250D01*
X99500Y325750D02*
Y327250D01*
X35250Y346000D02*
X36750D01*
X36000Y345250D02*
Y346750D01*
X33250Y344500D02*
X34750D01*
X34000Y343750D02*
Y345250D01*
X52750Y220000D02*
X54250D01*
X53500Y219250D02*
Y220750D01*
X70750Y219900D02*
X72250D01*
X71500Y219150D02*
Y220650D01*
X39250Y207000D02*
X40750D01*
X40000Y206250D02*
Y207750D01*
X52750Y224500D02*
X54250D01*
X53500Y223750D02*
Y225250D01*
X42750Y196500D02*
X44250D01*
X43500Y195750D02*
Y197250D01*
X45750Y196500D02*
X47250D01*
X46500Y195750D02*
Y197250D01*
X70750Y202000D02*
X72250D01*
X71500Y201250D02*
Y202750D01*
X84250Y207000D02*
X85750D01*
X85000Y206250D02*
Y207750D01*
X78250Y196500D02*
X79750D01*
X79000Y195750D02*
Y197250D01*
X70750Y224500D02*
X72250D01*
X71500Y223750D02*
Y225250D01*
X52750Y202000D02*
X54250D01*
X53500Y201250D02*
Y202750D01*
X81250Y196500D02*
X82750D01*
X82000Y195750D02*
Y197250D01*
X81250Y228500D02*
X82750D01*
X82000Y227750D02*
Y229250D01*
X81250Y260500D02*
X82750D01*
X82000Y259750D02*
Y261250D01*
X81250Y292500D02*
X82750D01*
X82000Y291750D02*
Y293250D01*
X81250Y164500D02*
X82750D01*
X82000Y163750D02*
Y165250D01*
X81250Y132500D02*
X82750D01*
X82000Y131750D02*
Y133250D01*
X81250Y100500D02*
X82750D01*
X82000Y99750D02*
Y101250D01*
X81250Y68500D02*
X82750D01*
X82000Y67750D02*
Y69250D01*
X217250Y262500D02*
X218750D01*
X218000Y261750D02*
Y263250D01*
X217250Y230500D02*
X218750D01*
X218000Y229750D02*
Y231250D01*
X217250Y198500D02*
X218750D01*
X218000Y197750D02*
Y199250D01*
X217250Y166500D02*
X218750D01*
X218000Y165750D02*
Y167250D01*
X217250Y134500D02*
X218750D01*
X218000Y133750D02*
Y135250D01*
X217250Y102500D02*
X218750D01*
X218000Y101750D02*
Y103250D01*
X217250Y70500D02*
X218750D01*
X218000Y69750D02*
Y71250D01*
X52750Y298000D02*
X54250D01*
X53500Y297250D02*
Y298750D01*
X70750Y320500D02*
X72250D01*
X71500Y319750D02*
Y321250D01*
X78250Y292500D02*
X79750D01*
X79000Y291750D02*
Y293250D01*
X70750Y298000D02*
X72250D01*
X71500Y297250D02*
Y298750D01*
X45750Y292500D02*
X47250D01*
X46500Y291750D02*
Y293250D01*
X42750Y292500D02*
X44250D01*
X43500Y291750D02*
Y293250D01*
X52750Y320500D02*
X54250D01*
X53500Y319750D02*
Y321250D01*
X39250Y303000D02*
X40750D01*
X40000Y302250D02*
Y303750D01*
X70750Y315900D02*
X72250D01*
X71500Y315150D02*
Y316650D01*
X52750Y316000D02*
X54250D01*
X53500Y315250D02*
Y316750D01*
X52750Y266000D02*
X54250D01*
X53500Y265250D02*
Y266750D01*
X70750Y288500D02*
X72250D01*
X71500Y287750D02*
Y289250D01*
X78250Y260500D02*
X79750D01*
X79000Y259750D02*
Y261250D01*
X84250Y271000D02*
X85750D01*
X85000Y270250D02*
Y271750D01*
X70750Y266000D02*
X72250D01*
X71500Y265250D02*
Y266750D01*
X45750Y260500D02*
X47250D01*
X46500Y259750D02*
Y261250D01*
X42750Y260500D02*
X44250D01*
X43500Y259750D02*
Y261250D01*
X52750Y288500D02*
X54250D01*
X53500Y287750D02*
Y289250D01*
X39250Y271000D02*
X40750D01*
X40000Y270250D02*
Y271750D01*
X70750Y283900D02*
X72250D01*
X71500Y283150D02*
Y284650D01*
X52750Y284000D02*
X54250D01*
X53500Y283250D02*
Y284750D01*
X52750Y234000D02*
X54250D01*
X53500Y233250D02*
Y234750D01*
X70750Y256500D02*
X72250D01*
X71500Y255750D02*
Y257250D01*
X78250Y228500D02*
X79750D01*
X79000Y227750D02*
Y229250D01*
X84250Y239000D02*
X85750D01*
X85000Y238250D02*
Y239750D01*
X70750Y234000D02*
X72250D01*
X71500Y233250D02*
Y234750D01*
X45750Y228500D02*
X47250D01*
X46500Y227750D02*
Y229250D01*
X42750Y228500D02*
X44250D01*
X43500Y227750D02*
Y229250D01*
X52750Y256500D02*
X54250D01*
X53500Y255750D02*
Y257250D01*
X39250Y239000D02*
X40750D01*
X40000Y238250D02*
Y239750D01*
X70750Y251900D02*
X72250D01*
X71500Y251150D02*
Y252650D01*
X52750Y252000D02*
X54250D01*
X53500Y251250D02*
Y252750D01*
X52750Y170000D02*
X54250D01*
X53500Y169250D02*
Y170750D01*
X70750Y192500D02*
X72250D01*
X71500Y191750D02*
Y193250D01*
X78250Y164500D02*
X79750D01*
X79000Y163750D02*
Y165250D01*
X84250Y175000D02*
X85750D01*
X85000Y174250D02*
Y175750D01*
X70750Y170000D02*
X72250D01*
X71500Y169250D02*
Y170750D01*
X45750Y164500D02*
X47250D01*
X46500Y163750D02*
Y165250D01*
X42750Y164500D02*
X44250D01*
X43500Y163750D02*
Y165250D01*
X52750Y192500D02*
X54250D01*
X53500Y191750D02*
Y193250D01*
X39250Y175000D02*
X40750D01*
X40000Y174250D02*
Y175750D01*
X70750Y187900D02*
X72250D01*
X71500Y187150D02*
Y188650D01*
X52750Y188000D02*
X54250D01*
X53500Y187250D02*
Y188750D01*
X52750Y138000D02*
X54250D01*
X53500Y137250D02*
Y138750D01*
X70750Y160500D02*
X72250D01*
X71500Y159750D02*
Y161250D01*
X78250Y132500D02*
X79750D01*
X79000Y131750D02*
Y133250D01*
X70750Y138000D02*
X72250D01*
X71500Y137250D02*
Y138750D01*
X45750Y132500D02*
X47250D01*
X46500Y131750D02*
Y133250D01*
X42750Y132500D02*
X44250D01*
X43500Y131750D02*
Y133250D01*
X52750Y160500D02*
X54250D01*
X53500Y159750D02*
Y161250D01*
X39250Y143000D02*
X40750D01*
X40000Y142250D02*
Y143750D01*
X70750Y155900D02*
X72250D01*
X71500Y155150D02*
Y156650D01*
X52750Y156000D02*
X54250D01*
X53500Y155250D02*
Y156750D01*
X52750Y106000D02*
X54250D01*
X53500Y105250D02*
Y106750D01*
X70750Y128500D02*
X72250D01*
X71500Y127750D02*
Y129250D01*
X78250Y100500D02*
X79750D01*
X79000Y99750D02*
Y101250D01*
X84250Y111000D02*
X85750D01*
X85000Y110250D02*
Y111750D01*
X70750Y106000D02*
X72250D01*
X71500Y105250D02*
Y106750D01*
X45750Y100500D02*
X47250D01*
X46500Y99750D02*
Y101250D01*
X42750Y100500D02*
X44250D01*
X43500Y99750D02*
Y101250D01*
X52750Y128500D02*
X54250D01*
X53500Y127750D02*
Y129250D01*
X39250Y111000D02*
X40750D01*
X40000Y110250D02*
Y111750D01*
X70750Y123900D02*
X72250D01*
X71500Y123150D02*
Y124650D01*
X52750Y124000D02*
X54250D01*
X53500Y123250D02*
Y124750D01*
X52750Y74000D02*
X54250D01*
X53500Y73250D02*
Y74750D01*
X70750Y96500D02*
X72250D01*
X71500Y95750D02*
Y97250D01*
X78250Y68500D02*
X79750D01*
X79000Y67750D02*
Y69250D01*
X84250Y79000D02*
X85750D01*
X85000Y78250D02*
Y79750D01*
X70750Y74000D02*
X72250D01*
X71500Y73250D02*
Y74750D01*
X45750Y68500D02*
X47250D01*
X46500Y67750D02*
Y69250D01*
X42750Y68500D02*
X44250D01*
X43500Y67750D02*
Y69250D01*
X52750Y96500D02*
X54250D01*
X53500Y95750D02*
Y97250D01*
X39250Y79000D02*
X40750D01*
X40000Y78250D02*
Y79750D01*
X70750Y91900D02*
X72250D01*
X71500Y91150D02*
Y92650D01*
X52750Y92000D02*
X54250D01*
X53500Y91250D02*
Y92750D01*
X188750Y300000D02*
X190250D01*
X189500Y299250D02*
Y300750D01*
X206750Y322500D02*
X208250D01*
X207500Y321750D02*
Y323250D01*
X214250Y294500D02*
X215750D01*
X215000Y293750D02*
Y295250D01*
X220250Y305000D02*
X221750D01*
X221000Y304250D02*
Y305750D01*
X206750Y300000D02*
X208250D01*
X207500Y299250D02*
Y300750D01*
X181750Y294500D02*
X183250D01*
X182500Y293750D02*
Y295250D01*
X178750Y294500D02*
X180250D01*
X179500Y293750D02*
Y295250D01*
X188750Y322500D02*
X190250D01*
X189500Y321750D02*
Y323250D01*
X175250Y305000D02*
X176750D01*
X176000Y304250D02*
Y305750D01*
X206750Y317900D02*
X208250D01*
X207500Y317150D02*
Y318650D01*
X188750Y318000D02*
X190250D01*
X189500Y317250D02*
Y318750D01*
X188750Y268000D02*
X190250D01*
X189500Y267250D02*
Y268750D01*
X206750Y290500D02*
X208250D01*
X207500Y289750D02*
Y291250D01*
X214250Y262500D02*
X215750D01*
X215000Y261750D02*
Y263250D01*
X220250Y273000D02*
X221750D01*
X221000Y272250D02*
Y273750D01*
X206750Y268000D02*
X208250D01*
X207500Y267250D02*
Y268750D01*
X181750Y262500D02*
X183250D01*
X182500Y261750D02*
Y263250D01*
X178750Y262500D02*
X180250D01*
X179500Y261750D02*
Y263250D01*
X188750Y290500D02*
X190250D01*
X189500Y289750D02*
Y291250D01*
X175250Y273000D02*
X176750D01*
X176000Y272250D02*
Y273750D01*
X206750Y285900D02*
X208250D01*
X207500Y285150D02*
Y286650D01*
X188750Y286000D02*
X190250D01*
X189500Y285250D02*
Y286750D01*
X188750Y236000D02*
X190250D01*
X189500Y235250D02*
Y236750D01*
X206750Y258500D02*
X208250D01*
X207500Y257750D02*
Y259250D01*
X214250Y230500D02*
X215750D01*
X215000Y229750D02*
Y231250D01*
X220250Y241000D02*
X221750D01*
X221000Y240250D02*
Y241750D01*
X206750Y236000D02*
X208250D01*
X207500Y235250D02*
Y236750D01*
X181750Y230500D02*
X183250D01*
X182500Y229750D02*
Y231250D01*
X178750Y230500D02*
X180250D01*
X179500Y229750D02*
Y231250D01*
X188750Y258500D02*
X190250D01*
X189500Y257750D02*
Y259250D01*
X175250Y241000D02*
X176750D01*
X176000Y240250D02*
Y241750D01*
X206750Y253900D02*
X208250D01*
X207500Y253150D02*
Y254650D01*
X188750Y254000D02*
X190250D01*
X189500Y253250D02*
Y254750D01*
X188750Y204000D02*
X190250D01*
X189500Y203250D02*
Y204750D01*
X206750Y226500D02*
X208250D01*
X207500Y225750D02*
Y227250D01*
X214250Y198500D02*
X215750D01*
X215000Y197750D02*
Y199250D01*
X220250Y209000D02*
X221750D01*
X221000Y208250D02*
Y209750D01*
X206750Y204000D02*
X208250D01*
X207500Y203250D02*
Y204750D01*
X181750Y198500D02*
X183250D01*
X182500Y197750D02*
Y199250D01*
X178750Y198500D02*
X180250D01*
X179500Y197750D02*
Y199250D01*
X188750Y226500D02*
X190250D01*
X189500Y225750D02*
Y227250D01*
X175250Y209000D02*
X176750D01*
X176000Y208250D02*
Y209750D01*
X206750Y221900D02*
X208250D01*
X207500Y221150D02*
Y222650D01*
X188750Y222000D02*
X190250D01*
X189500Y221250D02*
Y222750D01*
X188750Y172000D02*
X190250D01*
X189500Y171250D02*
Y172750D01*
X206750Y194500D02*
X208250D01*
X207500Y193750D02*
Y195250D01*
X214250Y166500D02*
X215750D01*
X215000Y165750D02*
Y167250D01*
X220250Y177000D02*
X221750D01*
X221000Y176250D02*
Y177750D01*
X206750Y172000D02*
X208250D01*
X207500Y171250D02*
Y172750D01*
X181750Y166500D02*
X183250D01*
X182500Y165750D02*
Y167250D01*
X178750Y166500D02*
X180250D01*
X179500Y165750D02*
Y167250D01*
X188750Y194500D02*
X190250D01*
X189500Y193750D02*
Y195250D01*
X175250Y177000D02*
X176750D01*
X176000Y176250D02*
Y177750D01*
X206750Y189900D02*
X208250D01*
X207500Y189150D02*
Y190650D01*
X188750Y190000D02*
X190250D01*
X189500Y189250D02*
Y190750D01*
X188750Y140000D02*
X190250D01*
X189500Y139250D02*
Y140750D01*
X206750Y162500D02*
X208250D01*
X207500Y161750D02*
Y163250D01*
X214250Y134500D02*
X215750D01*
X215000Y133750D02*
Y135250D01*
X220250Y145000D02*
X221750D01*
X221000Y144250D02*
Y145750D01*
X206750Y140000D02*
X208250D01*
X207500Y139250D02*
Y140750D01*
X181750Y134500D02*
X183250D01*
X182500Y133750D02*
Y135250D01*
X178750Y134500D02*
X180250D01*
X179500Y133750D02*
Y135250D01*
X188750Y162500D02*
X190250D01*
X189500Y161750D02*
Y163250D01*
X175250Y145000D02*
X176750D01*
X176000Y144250D02*
Y145750D01*
X206750Y157900D02*
X208250D01*
X207500Y157150D02*
Y158650D01*
X188750Y158000D02*
X190250D01*
X189500Y157250D02*
Y158750D01*
X188750Y108000D02*
X190250D01*
X189500Y107250D02*
Y108750D01*
X206750Y130500D02*
X208250D01*
X207500Y129750D02*
Y131250D01*
X214250Y102500D02*
X215750D01*
X215000Y101750D02*
Y103250D01*
X220250Y113000D02*
X221750D01*
X221000Y112250D02*
Y113750D01*
X206750Y108000D02*
X208250D01*
X207500Y107250D02*
Y108750D01*
X181750Y102500D02*
X183250D01*
X182500Y101750D02*
Y103250D01*
X178750Y102500D02*
X180250D01*
X179500Y101750D02*
Y103250D01*
X188750Y130500D02*
X190250D01*
X189500Y129750D02*
Y131250D01*
X175250Y113000D02*
X176750D01*
X176000Y112250D02*
Y113750D01*
X206750Y125900D02*
X208250D01*
X207500Y125150D02*
Y126650D01*
X188750Y126000D02*
X190250D01*
X189500Y125250D02*
Y126750D01*
X3750Y300000D02*
X5250D01*
X4500Y299250D02*
Y300750D01*
X3750Y290000D02*
X5250D01*
X4500Y289250D02*
Y290750D01*
X3750Y270000D02*
X5250D01*
X4500Y269250D02*
Y270750D01*
X3750Y260000D02*
X5250D01*
X4500Y259250D02*
Y260750D01*
X3750Y238000D02*
X5250D01*
X4500Y237250D02*
Y238750D01*
X3750Y228000D02*
X5250D01*
X4500Y227250D02*
Y228750D01*
X3750Y208000D02*
X5250D01*
X4500Y207250D02*
Y208750D01*
X3750Y198000D02*
X5250D01*
X4500Y197250D02*
Y198750D01*
X3750Y176500D02*
X5250D01*
X4500Y175750D02*
Y177250D01*
X3750Y166000D02*
X5250D01*
X4500Y165250D02*
Y166750D01*
X3750Y146000D02*
X5250D01*
X4500Y145250D02*
Y146750D01*
X3750Y136000D02*
X5250D01*
X4500Y135250D02*
Y136750D01*
X3750Y114000D02*
X5250D01*
X4500Y113250D02*
Y114750D01*
X3750Y103500D02*
X5250D01*
X4500Y102750D02*
Y104250D01*
X3750Y84000D02*
X5250D01*
X4500Y83250D02*
Y84750D01*
X4250Y74000D02*
X5750D01*
X5000Y73250D02*
Y74750D01*
X11750Y20500D02*
X13250D01*
X12500Y19750D02*
Y21250D01*
X11750Y34500D02*
X13250D01*
X12500Y33750D02*
Y35250D01*
X110750Y34500D02*
X112250D01*
X111500Y33750D02*
Y35250D01*
X110750Y20500D02*
X112250D01*
X111500Y19750D02*
Y21250D01*
X115250Y300500D02*
X116750D01*
X116000Y299750D02*
Y301250D01*
X115250Y289500D02*
X116750D01*
X116000Y288750D02*
Y290250D01*
X116250Y270000D02*
X117750D01*
X117000Y269250D02*
Y270750D01*
X116250Y260000D02*
X117750D01*
X117000Y259250D02*
Y260750D01*
X116250Y238000D02*
X117750D01*
X117000Y237250D02*
Y238750D01*
X116250Y228000D02*
X117750D01*
X117000Y227250D02*
Y228750D01*
X116250Y208000D02*
X117750D01*
X117000Y207250D02*
Y208750D01*
X116250Y198000D02*
X117750D01*
X117000Y197250D02*
Y198750D01*
X116250Y175500D02*
X117750D01*
X117000Y174750D02*
Y176250D01*
X116250Y165500D02*
X117750D01*
X117000Y164750D02*
Y166250D01*
X116250Y146000D02*
X117750D01*
X117000Y145250D02*
Y146750D01*
X116250Y136000D02*
X117750D01*
X117000Y135250D02*
Y136750D01*
X116250Y114000D02*
X117750D01*
X117000Y113250D02*
Y114750D01*
X116250Y103500D02*
X117750D01*
X117000Y102750D02*
Y104250D01*
X116250Y84000D02*
X117750D01*
X117000Y83250D02*
Y84750D01*
X116250Y74000D02*
X117750D01*
X117000Y73250D02*
Y74750D01*
X143250Y287000D02*
X144750D01*
X144000Y286250D02*
Y287750D01*
X143250Y274000D02*
X144750D01*
X144000Y273250D02*
Y274750D01*
X143250Y261500D02*
X144750D01*
X144000Y260750D02*
Y262250D01*
X143250Y251500D02*
X144750D01*
X144000Y250750D02*
Y252250D01*
X143250Y235000D02*
X144750D01*
X144000Y234250D02*
Y235750D01*
X143250Y222000D02*
X144750D01*
X144000Y221250D02*
Y222750D01*
X143250Y209500D02*
X144750D01*
X144000Y208750D02*
Y210250D01*
X143250Y199500D02*
X144750D01*
X144000Y198750D02*
Y200250D01*
X143250Y183500D02*
X144750D01*
X144000Y182750D02*
Y184250D01*
X143250Y170000D02*
X144750D01*
X144000Y169250D02*
Y170750D01*
X143250Y157500D02*
X144750D01*
X144000Y156750D02*
Y158250D01*
X143250Y147500D02*
X144750D01*
X144000Y146750D02*
Y148250D01*
X143250Y131000D02*
X144750D01*
X144000Y130250D02*
Y131750D01*
X143250Y118000D02*
X144750D01*
X144000Y117250D02*
Y118750D01*
X254750Y288000D02*
X256250D01*
X255500Y287250D02*
Y288750D01*
X254750Y274500D02*
X256250D01*
X255500Y273750D02*
Y275250D01*
X254750Y263000D02*
X256250D01*
X255500Y262250D02*
Y263750D01*
X254750Y252500D02*
X256250D01*
X255500Y251750D02*
Y253250D01*
X254750Y235500D02*
X256250D01*
X255500Y234750D02*
Y236250D01*
X254750Y222500D02*
X256250D01*
X255500Y221750D02*
Y223250D01*
X254750Y210000D02*
X256250D01*
X255500Y209250D02*
Y210750D01*
X254750Y200000D02*
X256250D01*
X255500Y199250D02*
Y200750D01*
X254750Y183000D02*
X256250D01*
X255500Y182250D02*
Y183750D01*
X254750Y170000D02*
X256250D01*
X255500Y169250D02*
Y170750D01*
X254750Y158000D02*
X256250D01*
X255500Y157250D02*
Y158750D01*
X254750Y148000D02*
X256250D01*
X255500Y147250D02*
Y148750D01*
X254750Y131000D02*
X256250D01*
X255500Y130250D02*
Y131750D01*
X254750Y118000D02*
X256250D01*
X255500Y117250D02*
Y118750D01*
X254750Y106500D02*
X256250D01*
X255500Y105750D02*
Y107250D01*
X188750Y94000D02*
X190250D01*
X189500Y93250D02*
Y94750D01*
X206750Y93900D02*
X208250D01*
X207500Y93150D02*
Y94650D01*
X175250Y81000D02*
X176750D01*
X176000Y80250D02*
Y81750D01*
X188750Y98500D02*
X190250D01*
X189500Y97750D02*
Y99250D01*
X254750Y96500D02*
X256250D01*
X255500Y95750D02*
Y97250D01*
X178750Y70500D02*
X180250D01*
X179500Y69750D02*
Y71250D01*
X181750Y70500D02*
X183250D01*
X182500Y69750D02*
Y71250D01*
X143250Y95500D02*
X144750D01*
X144000Y94750D02*
Y96250D01*
X143250Y105500D02*
X144750D01*
X144000Y104750D02*
Y106250D01*
X206750Y76000D02*
X208250D01*
X207500Y75250D02*
Y76750D01*
X220250Y81000D02*
X221750D01*
X221000Y80250D02*
Y81750D01*
X214250Y70500D02*
X215750D01*
X215000Y69750D02*
Y71250D01*
X206750Y98500D02*
X208250D01*
X207500Y97750D02*
Y99250D01*
X188750Y76000D02*
X190250D01*
X189500Y75250D02*
Y76750D01*
X170250Y425500D02*
X171750D01*
X171000Y424750D02*
Y426250D01*
X175250Y425500D02*
X176750D01*
X176000Y424750D02*
Y426250D01*
X175250Y406000D02*
X176750D01*
X176000Y405250D02*
Y406750D01*
X176750Y414500D02*
X178250D01*
X177500Y413750D02*
Y415250D01*
X161250Y412500D02*
X162750D01*
X162000Y411750D02*
Y413250D01*
X217250Y294500D02*
X218750D01*
X218000Y293750D02*
Y295250D01*
X237250Y323000D02*
X238750D01*
X238000Y322250D02*
Y323750D01*
X234250Y323000D02*
X235750D01*
X235000Y322250D02*
Y323750D01*
X232250Y347500D02*
X233750D01*
X233000Y346750D02*
Y348250D01*
X232750Y344500D02*
X234250D01*
X233500Y343750D02*
Y345250D01*
X166250Y345000D02*
X167750D01*
X167000Y344250D02*
Y345750D01*
X165750Y348000D02*
X167250D01*
X166500Y347250D02*
Y348750D01*
X93250Y344500D02*
X94750D01*
X94000Y343750D02*
Y345250D01*
X92750Y347500D02*
X94250D01*
X93500Y346750D02*
Y348250D01*
X26750Y345000D02*
X28250D01*
X27500Y344250D02*
Y345750D01*
X23750Y347000D02*
X25250D01*
X24500Y346250D02*
Y347750D01*
X37250Y323000D02*
X38750D01*
X38000Y322250D02*
Y323750D01*
X40250Y323000D02*
X41750D01*
X41000Y322250D02*
Y323750D01*
X239250Y446500D02*
X240750D01*
X240000Y445750D02*
Y447250D01*
X253250Y449000D02*
X254750D01*
X254000Y448250D02*
Y449750D01*
X252750Y440000D02*
X254250D01*
X253500Y439250D02*
Y440750D01*
X8750Y446000D02*
X10250D01*
X9500Y445250D02*
Y446750D01*
X23250Y448000D02*
X24750D01*
X24000Y447250D02*
Y448750D01*
X22750Y439000D02*
X24250D01*
X23500Y438250D02*
Y439750D01*
X108750Y425500D02*
X110250D01*
X109500Y424750D02*
Y426250D01*
X113750Y425500D02*
X115250D01*
X114500Y424750D02*
Y426250D01*
X100250Y412000D02*
X101750D01*
X101000Y411250D02*
Y412750D01*
X114750Y405500D02*
X116250D01*
X115500Y404750D02*
Y406250D01*
X114750Y414500D02*
X116250D01*
X115500Y413750D02*
Y415250D01*
X18750Y388000D02*
X20250D01*
X19500Y387250D02*
Y388750D01*
X18750Y381000D02*
X20250D01*
X19500Y380250D02*
Y381750D01*
X18750Y372000D02*
X20250D01*
X19500Y371250D02*
Y372750D01*
X18750Y363500D02*
X20250D01*
X19500Y362750D02*
Y364250D01*
X25750Y384500D02*
X27250D01*
X26500Y383750D02*
Y385250D01*
X25750Y376500D02*
X27250D01*
X26500Y375750D02*
Y377250D01*
X25750Y367500D02*
X27250D01*
X26500Y366750D02*
Y368250D01*
X32250Y371500D02*
X33750D01*
X33000Y370750D02*
Y372250D01*
X32250Y380500D02*
X33750D01*
X33000Y379750D02*
Y381250D01*
X32250Y388000D02*
X33750D01*
X33000Y387250D02*
Y388750D01*
X32750Y363500D02*
X34250D01*
X33500Y362750D02*
Y364250D01*
X39750Y367000D02*
X41250D01*
X40500Y366250D02*
Y367750D01*
X39750Y376000D02*
X41250D01*
X40500Y375250D02*
Y376750D01*
X39250Y384500D02*
X40750D01*
X40000Y383750D02*
Y385250D01*
X106750Y385000D02*
X108250D01*
X107500Y384250D02*
Y385750D01*
X107250Y376500D02*
X108750D01*
X108000Y375750D02*
Y377250D01*
X107250Y367500D02*
X108750D01*
X108000Y366750D02*
Y368250D01*
X100250Y364000D02*
X101750D01*
X101000Y363250D02*
Y364750D01*
X99750Y388500D02*
X101250D01*
X100500Y387750D02*
Y389250D01*
X99750Y381000D02*
X101250D01*
X100500Y380250D02*
Y381750D01*
X99750Y372000D02*
X101250D01*
X100500Y371250D02*
Y372750D01*
X93250Y368000D02*
X94750D01*
X94000Y367250D02*
Y368750D01*
X93250Y377000D02*
X94750D01*
X94000Y376250D02*
Y377750D01*
X93250Y385000D02*
X94750D01*
X94000Y384250D02*
Y385750D01*
X86250Y364000D02*
X87750D01*
X87000Y363250D02*
Y364750D01*
X86250Y372500D02*
X87750D01*
X87000Y371750D02*
Y373250D01*
X86250Y381500D02*
X87750D01*
X87000Y380750D02*
Y382250D01*
X86250Y388500D02*
X87750D01*
X87000Y387750D02*
Y389250D01*
X179750Y385000D02*
X181250D01*
X180500Y384250D02*
Y385750D01*
X180250Y376500D02*
X181750D01*
X181000Y375750D02*
Y377250D01*
X180250Y367500D02*
X181750D01*
X181000Y366750D02*
Y368250D01*
X173250Y364000D02*
X174750D01*
X174000Y363250D02*
Y364750D01*
X172750Y388500D02*
X174250D01*
X173500Y387750D02*
Y389250D01*
X172750Y381000D02*
X174250D01*
X173500Y380250D02*
Y381750D01*
X172750Y372000D02*
X174250D01*
X173500Y371250D02*
Y372750D01*
X166250Y368000D02*
X167750D01*
X167000Y367250D02*
Y368750D01*
X166250Y377000D02*
X167750D01*
X167000Y376250D02*
Y377750D01*
X166250Y385000D02*
X167750D01*
X167000Y384250D02*
Y385750D01*
X159250Y364000D02*
X160750D01*
X160000Y363250D02*
Y364750D01*
X159250Y372500D02*
X160750D01*
X160000Y371750D02*
Y373250D01*
X159250Y381500D02*
X160750D01*
X160000Y380750D02*
Y382250D01*
X159250Y388500D02*
X160750D01*
X160000Y387750D02*
Y389250D01*
X245750Y384500D02*
X247250D01*
X246500Y383750D02*
Y385250D01*
X246250Y376000D02*
X247750D01*
X247000Y375250D02*
Y376750D01*
X246250Y367000D02*
X247750D01*
X247000Y366250D02*
Y367750D01*
X239250Y363500D02*
X240750D01*
X240000Y362750D02*
Y364250D01*
X238750Y388000D02*
X240250D01*
X239500Y387250D02*
Y388750D01*
X238750Y380500D02*
X240250D01*
X239500Y379750D02*
Y381250D01*
X238750Y371500D02*
X240250D01*
X239500Y370750D02*
Y372250D01*
X232250Y367500D02*
X233750D01*
X233000Y366750D02*
Y368250D01*
X232250Y376500D02*
X233750D01*
X233000Y375750D02*
Y377250D01*
X232250Y384500D02*
X233750D01*
X233000Y383750D02*
Y385250D01*
X225250Y363500D02*
X226750D01*
X226000Y362750D02*
Y364250D01*
X225250Y372000D02*
X226750D01*
X226000Y371250D02*
Y372750D01*
X225250Y381000D02*
X226750D01*
X226000Y380250D02*
Y381750D01*
X225250Y388000D02*
X226750D01*
X226000Y387250D02*
Y388750D01*
X47750Y44500D02*
X49250D01*
X48500Y43750D02*
Y45250D01*
X75750Y44500D02*
X77250D01*
X76500Y43750D02*
Y45250D01*
X47750Y14500D02*
X49250D01*
X48500Y13750D02*
Y15250D01*
X75750Y14500D02*
X77250D01*
X76500Y13750D02*
Y15250D01*
X180250Y38000D02*
X181750D01*
X181000Y37250D02*
Y38750D01*
X215250Y38000D02*
X216750D01*
X216000Y37250D02*
Y38750D01*
X178250Y14000D02*
X179750D01*
X179000Y13250D02*
Y14750D01*
X216750Y14000D02*
X218250D01*
X217500Y13250D02*
Y14750D01*
X3750Y467500D02*
X5250D01*
X4500Y466750D02*
Y468250D01*
X16750Y419500D02*
X18250D01*
X17500Y418750D02*
Y420250D01*
X234250Y468500D02*
X235750D01*
X235000Y467750D02*
Y469250D01*
X247750Y421000D02*
X249250D01*
X248500Y420250D02*
Y421750D01*
X163750Y465500D02*
X165250D01*
X164500Y464750D02*
Y466250D01*
X160750Y465500D02*
X162250D01*
X161500Y464750D02*
Y466250D01*
X166750Y465500D02*
X168250D01*
X167500Y464750D02*
Y466250D01*
X85250Y421000D02*
X86750D01*
X86000Y420250D02*
Y421750D01*
X85250Y408500D02*
X86750D01*
X86000Y407750D02*
Y409250D01*
X147250Y421000D02*
X148750D01*
X148000Y420250D02*
Y421750D01*
X146750Y408000D02*
X148250D01*
X147500Y407250D02*
Y408750D01*
X133750Y383000D02*
X135250D01*
X134500Y382250D02*
Y383750D01*
X123250Y376000D02*
X124750D01*
X124000Y375250D02*
Y376750D01*
X133250Y361000D02*
X134750D01*
X134000Y360250D02*
Y361750D01*
X144250Y336500D02*
X145750D01*
X145000Y335750D02*
Y337250D01*
X84250Y303000D02*
X85750D01*
X85000Y302250D02*
Y303750D01*
X44750Y371000D02*
X46250D01*
X45500Y370250D02*
Y371750D01*
X44750Y388000D02*
X46250D01*
X45500Y387250D02*
Y388750D01*
X44750Y380500D02*
X46250D01*
X45500Y379750D02*
Y381250D01*
X111750Y388000D02*
X113250D01*
X112500Y387250D02*
Y388750D01*
X112250Y380500D02*
X113750D01*
X113000Y379750D02*
Y381250D01*
X111750Y372000D02*
X113250D01*
X112500Y371250D02*
Y372750D01*
X184250Y388500D02*
X185750D01*
X185000Y387750D02*
Y389250D01*
X184250Y380500D02*
X185750D01*
X185000Y379750D02*
Y381250D01*
X184250Y371500D02*
X185750D01*
X185000Y370750D02*
Y372250D01*
X250250Y388000D02*
X251750D01*
X251000Y387250D02*
Y388750D01*
X250750Y380000D02*
X252250D01*
X251500Y379250D02*
Y380750D01*
X250750Y370500D02*
X252250D01*
X251500Y369750D02*
Y371250D01*
X237750Y429500D02*
X239250D01*
X238500Y428750D02*
Y430250D01*
X237750Y426500D02*
X239250D01*
X238500Y425750D02*
Y427250D01*
X220750Y344500D02*
X222250D01*
X221500Y343750D02*
Y345250D01*
X223750Y344500D02*
X225250D01*
X224500Y343750D02*
Y345250D01*
X6750Y428500D02*
X8250D01*
X7500Y427750D02*
Y429250D01*
X6750Y425500D02*
X8250D01*
X7500Y424750D02*
Y426250D01*
X17750Y344500D02*
X19250D01*
X18500Y343750D02*
Y345250D01*
X14750Y344500D02*
X16250D01*
X15500Y343750D02*
Y345250D01*
X157750Y398000D02*
X159250D01*
X158500Y397250D02*
Y398750D01*
X157750Y401000D02*
X159250D01*
X158500Y400250D02*
Y401750D01*
X158250Y344500D02*
X159750D01*
X159000Y343750D02*
Y345250D01*
X156250Y346000D02*
X157750D01*
X157000Y345250D02*
Y346750D01*
X96250Y401000D02*
X97750D01*
X97000Y400250D02*
Y401750D01*
X96250Y398000D02*
X97750D01*
X97000Y397250D02*
Y398750D01*
X82250Y344500D02*
X83750D01*
X83000Y343750D02*
Y345250D01*
X85250Y344500D02*
X86750D01*
X86000Y343750D02*
Y345250D01*
X152864Y326500D02*
X154364D01*
X153614Y325750D02*
Y327250D01*
X152864Y324000D02*
X154364D01*
X153614Y323250D02*
Y324750D01*
X170750Y33000D02*
X172250D01*
X171500Y32250D02*
Y33750D01*
X173250Y33000D02*
X174750D01*
X174000Y32250D02*
Y33750D01*
X174250Y344500D02*
X175750D01*
X175000Y343750D02*
Y345250D01*
X176750Y346000D02*
X178250D01*
X177500Y345250D02*
Y346750D01*
X242750Y346000D02*
X244250D01*
X243500Y345250D02*
Y346750D01*
X240750Y344500D02*
X242250D01*
X241500Y343750D02*
Y345250D01*
X171750Y326500D02*
X173250D01*
X172500Y325750D02*
Y327250D01*
X174250Y326500D02*
X175750D01*
X175000Y325750D02*
Y327250D01*
M02*
