G04 Layer_Color=128*
%FSLAX25Y25*%
%MOIN*%
G70*
G01*
G75*
%ADD17C,0.01000*%
%ADD301C,0.00200*%
D17*
X0Y0D02*
X260000D01*
Y320000D01*
X0D02*
X260000D01*
X0Y0D02*
Y320000D01*
D301*
X242622Y221000D02*
X245378D01*
X244000Y219622D02*
Y222378D01*
X242622Y216000D02*
X245378D01*
X244000Y214622D02*
Y217378D01*
X242622Y211000D02*
X245378D01*
X244000Y209622D02*
Y212378D01*
X242622Y206000D02*
X245378D01*
X244000Y204622D02*
Y207378D01*
X242622Y201000D02*
X245378D01*
X244000Y199622D02*
Y202378D01*
X242622Y191000D02*
X245378D01*
X244000Y189622D02*
Y192378D01*
X242622Y186000D02*
X245378D01*
X244000Y184622D02*
Y187378D01*
X242622Y181000D02*
X245378D01*
X244000Y179622D02*
Y182378D01*
X242622Y169000D02*
X245378D01*
X244000Y167622D02*
Y170378D01*
X242622Y164000D02*
X245378D01*
X244000Y162622D02*
Y165378D01*
X242622Y159000D02*
X245378D01*
X244000Y157622D02*
Y160378D01*
X242622Y154000D02*
X245378D01*
X244000Y152622D02*
Y155378D01*
X242622Y149000D02*
X245378D01*
X244000Y147622D02*
Y150378D01*
X242622Y139000D02*
X245378D01*
X244000Y137622D02*
Y140378D01*
X242622Y134000D02*
X245378D01*
X244000Y132622D02*
Y135378D01*
X242622Y129000D02*
X245378D01*
X244000Y127622D02*
Y130378D01*
X242622Y117000D02*
X245378D01*
X244000Y115622D02*
Y118378D01*
X242622Y112000D02*
X245378D01*
X244000Y110622D02*
Y113378D01*
X242622Y107000D02*
X245378D01*
X244000Y105622D02*
Y108378D01*
X242622Y102000D02*
X245378D01*
X244000Y100622D02*
Y103378D01*
X242622Y97000D02*
X245378D01*
X244000Y95622D02*
Y98378D01*
X242622Y87000D02*
X245378D01*
X244000Y85622D02*
Y88378D01*
X242622Y82000D02*
X245378D01*
X244000Y80622D02*
Y83378D01*
X242622Y77000D02*
X245378D01*
X244000Y75622D02*
Y78378D01*
X242622Y65000D02*
X245378D01*
X244000Y63622D02*
Y66378D01*
X242622Y60000D02*
X245378D01*
X244000Y58622D02*
Y61378D01*
X242622Y55000D02*
X245378D01*
X244000Y53622D02*
Y56378D01*
X242622Y50000D02*
X245378D01*
X244000Y48622D02*
Y51378D01*
X242622Y45000D02*
X245378D01*
X244000Y43622D02*
Y46378D01*
X242622Y35000D02*
X245378D01*
X244000Y33622D02*
Y36378D01*
X242622Y30000D02*
X245378D01*
X244000Y28622D02*
Y31378D01*
X242622Y25000D02*
X245378D01*
X244000Y23622D02*
Y26378D01*
X15622Y7000D02*
X18378D01*
X17000Y5622D02*
Y8378D01*
X15622Y12000D02*
X18378D01*
X17000Y10622D02*
Y13378D01*
X15622Y17000D02*
X18378D01*
X17000Y15622D02*
Y18378D01*
X15622Y22000D02*
X18378D01*
X17000Y20622D02*
Y23378D01*
X15622Y27000D02*
X18378D01*
X17000Y25622D02*
Y28378D01*
X15622Y32000D02*
X18378D01*
X17000Y30622D02*
Y33378D01*
X15622Y42000D02*
X18378D01*
X17000Y40622D02*
Y43378D01*
X15622Y47000D02*
X18378D01*
X17000Y45622D02*
Y48378D01*
X15622Y52000D02*
X18378D01*
X17000Y50622D02*
Y53378D01*
X15622Y57000D02*
X18378D01*
X17000Y55622D02*
Y58378D01*
X15622Y69000D02*
X18378D01*
X17000Y67622D02*
Y70378D01*
X15622Y74000D02*
X18378D01*
X17000Y72622D02*
Y75378D01*
X15622Y79000D02*
X18378D01*
X17000Y77622D02*
Y80378D01*
X15622Y84000D02*
X18378D01*
X17000Y82622D02*
Y85378D01*
X15622Y89000D02*
X18378D01*
X17000Y87622D02*
Y90378D01*
X15622Y94000D02*
X18378D01*
X17000Y92622D02*
Y95378D01*
X15622Y104000D02*
X18378D01*
X17000Y102622D02*
Y105378D01*
X15622Y109000D02*
X18378D01*
X17000Y107622D02*
Y110378D01*
X15622Y114000D02*
X18378D01*
X17000Y112622D02*
Y115378D01*
X15622Y119000D02*
X18378D01*
X17000Y117622D02*
Y120378D01*
X15622Y131000D02*
X18378D01*
X17000Y129622D02*
Y132378D01*
X15622Y136000D02*
X18378D01*
X17000Y134622D02*
Y137378D01*
X15622Y141000D02*
X18378D01*
X17000Y139622D02*
Y142378D01*
X15622Y146000D02*
X18378D01*
X17000Y144622D02*
Y147378D01*
X15622Y151000D02*
X18378D01*
X17000Y149622D02*
Y152378D01*
X15622Y156000D02*
X18378D01*
X17000Y154622D02*
Y157378D01*
X15622Y166000D02*
X18378D01*
X17000Y164622D02*
Y167378D01*
X15622Y171000D02*
X18378D01*
X17000Y169622D02*
Y172378D01*
X15622Y176000D02*
X18378D01*
X17000Y174622D02*
Y177378D01*
X15622Y181000D02*
X18378D01*
X17000Y179622D02*
Y182378D01*
X15622Y193000D02*
X18378D01*
X17000Y191622D02*
Y194378D01*
X15622Y198000D02*
X18378D01*
X17000Y196622D02*
Y199378D01*
X15622Y203000D02*
X18378D01*
X17000Y201622D02*
Y204378D01*
X15622Y208000D02*
X18378D01*
X17000Y206622D02*
Y209378D01*
X15622Y213000D02*
X18378D01*
X17000Y211622D02*
Y214378D01*
X15622Y218000D02*
X18378D01*
X17000Y216622D02*
Y219378D01*
X15622Y228000D02*
X18378D01*
X17000Y226622D02*
Y229378D01*
X15622Y233000D02*
X18378D01*
X17000Y231622D02*
Y234378D01*
X15622Y238000D02*
X18378D01*
X17000Y236622D02*
Y239378D01*
X15622Y243000D02*
X18378D01*
X17000Y241622D02*
Y244378D01*
X123750Y19996D02*
X136250D01*
X130000Y13746D02*
Y26246D01*
X123750Y300004D02*
X136250D01*
X130000Y293754D02*
Y306254D01*
X135984Y275118D02*
X140000D01*
X137992Y273110D02*
Y277126D01*
X135984Y44882D02*
X140000D01*
X137992Y42874D02*
Y46890D01*
X21638Y258000D02*
X26362D01*
X24000Y255638D02*
Y260362D01*
X223638Y258000D02*
X228362D01*
X226000Y255638D02*
Y260362D01*
X205250Y123000D02*
X206750D01*
X206000Y122250D02*
Y123750D01*
X205250Y173000D02*
X206750D01*
X206000Y172250D02*
Y173750D01*
X205250Y217000D02*
X206750D01*
X206000Y216250D02*
Y217750D01*
X170250Y32000D02*
X171750D01*
X171000Y31250D02*
Y32750D01*
X202750Y27000D02*
X204250D01*
X203500Y26250D02*
Y27750D01*
X182250Y89000D02*
X183750D01*
X183000Y88250D02*
Y89750D01*
X182250Y100000D02*
X183750D01*
X183000Y99250D02*
Y100750D01*
X185250Y89000D02*
X186750D01*
X186000Y88250D02*
Y89750D01*
X185250Y92000D02*
X186750D01*
X186000Y91250D02*
Y92750D01*
X182250Y97000D02*
X183750D01*
X183000Y96250D02*
Y97750D01*
X182250Y92000D02*
X183750D01*
X183000Y91250D02*
Y92750D01*
X107250Y201000D02*
X108750D01*
X108000Y200250D02*
Y201750D01*
X107250Y198000D02*
X108750D01*
X108000Y197250D02*
Y198750D01*
X107250Y204000D02*
X108750D01*
X108000Y203250D02*
Y204750D01*
X156750Y32000D02*
X158250D01*
X157500Y31250D02*
Y32750D01*
X161250Y32000D02*
X162750D01*
X162000Y31250D02*
Y32750D01*
X173250Y32000D02*
X174750D01*
X174000Y31250D02*
Y32750D01*
X205250Y29000D02*
X206750D01*
X206000Y28250D02*
Y29750D01*
X80250Y70000D02*
X81750D01*
X81000Y69250D02*
Y70750D01*
X80250Y164000D02*
X81750D01*
X81000Y163250D02*
Y164750D01*
X80250Y214000D02*
X81750D01*
X81000Y213250D02*
Y214750D01*
X80250Y211000D02*
X81750D01*
X81000Y210250D02*
Y211750D01*
X207250Y22000D02*
X208750D01*
X208000Y21250D02*
Y22750D01*
X210250Y22000D02*
X211750D01*
X211000Y21250D02*
Y22750D01*
X210250Y7500D02*
X211750D01*
X211000Y6750D02*
Y8250D01*
X80750Y7500D02*
X82250D01*
X81500Y6750D02*
Y8250D01*
X80750Y4500D02*
X82250D01*
X81500Y3750D02*
Y5250D01*
X210250Y4500D02*
X211750D01*
X211000Y3750D02*
Y5250D01*
X85250Y77000D02*
X86750D01*
X86000Y76250D02*
Y77750D01*
X85250Y80000D02*
X86750D01*
X86000Y79250D02*
Y80750D01*
X80250Y73000D02*
X81750D01*
X81000Y72250D02*
Y73750D01*
X85250Y121000D02*
X86750D01*
X86000Y120250D02*
Y121750D01*
X80250Y120000D02*
X81750D01*
X81000Y119250D02*
Y120750D01*
X85250Y124000D02*
X86750D01*
X86000Y123250D02*
Y124750D01*
X80250Y117000D02*
X81750D01*
X81000Y116250D02*
Y117750D01*
X85250Y171000D02*
X86750D01*
X86000Y170250D02*
Y171750D01*
X85250Y174000D02*
X86750D01*
X86000Y173250D02*
Y174750D01*
X80250Y167000D02*
X81750D01*
X81000Y166250D02*
Y167750D01*
X210250Y208000D02*
X211750D01*
X211000Y207250D02*
Y208750D01*
X210250Y211000D02*
X211750D01*
X211000Y210250D02*
Y211750D01*
X205250Y214000D02*
X206750D01*
X206000Y213250D02*
Y214750D01*
X210250Y164000D02*
X211750D01*
X211000Y163250D02*
Y164750D01*
X210250Y167000D02*
X211750D01*
X211000Y166250D02*
Y167750D01*
X205250Y170000D02*
X206750D01*
X206000Y169250D02*
Y170750D01*
X210250Y114000D02*
X211750D01*
X211000Y113250D02*
Y114750D01*
X210250Y117000D02*
X211750D01*
X211000Y116250D02*
Y117750D01*
X205250Y120000D02*
X206750D01*
X206000Y119250D02*
Y120750D01*
X205250Y79000D02*
X206750D01*
X206000Y78250D02*
Y79750D01*
X205250Y76000D02*
X206750D01*
X206000Y75250D02*
Y76750D01*
X210250Y73000D02*
X211750D01*
X211000Y72250D02*
Y73750D01*
X210250Y70000D02*
X211750D01*
X211000Y69250D02*
Y70750D01*
X85250Y218000D02*
X86750D01*
X86000Y217250D02*
Y218750D01*
X85250Y215000D02*
X86750D01*
X86000Y214250D02*
Y215750D01*
X177250Y9000D02*
X178750D01*
X178000Y8250D02*
Y9750D01*
X168250Y15500D02*
X169750D01*
X169000Y14750D02*
Y16250D01*
X162750Y15500D02*
X164250D01*
X163500Y14750D02*
Y16250D01*
X157250Y15500D02*
X158750D01*
X158000Y14750D02*
Y16250D01*
X56250Y28000D02*
X57750D01*
X57000Y27250D02*
Y28750D01*
X53250Y28000D02*
X54750D01*
X54000Y27250D02*
Y28750D01*
X174250Y9000D02*
X175750D01*
X175000Y8250D02*
Y9750D01*
X104250Y225000D02*
X105750D01*
X105000Y224250D02*
Y225750D01*
X107250Y228000D02*
X108750D01*
X108000Y227250D02*
Y228750D01*
X107250Y225000D02*
X108750D01*
X108000Y224250D02*
Y225750D01*
X157250Y228000D02*
X158750D01*
X158000Y227250D02*
Y228750D01*
X177250Y72000D02*
X178750D01*
X178000Y71250D02*
Y72750D01*
X177250Y69000D02*
X178750D01*
X178000Y68250D02*
Y69750D01*
X177250Y116000D02*
X178750D01*
X178000Y115250D02*
Y116750D01*
X177250Y113000D02*
X178750D01*
X178000Y112250D02*
Y113750D01*
X177250Y166000D02*
X178750D01*
X178000Y165250D02*
Y166750D01*
X177250Y163000D02*
X178750D01*
X178000Y162250D02*
Y163750D01*
X177250Y210000D02*
X178750D01*
X178000Y209250D02*
Y210750D01*
X177250Y207000D02*
X178750D01*
X178000Y206250D02*
Y207750D01*
X53250Y72000D02*
X54750D01*
X54000Y71250D02*
Y72750D01*
X53250Y69000D02*
X54750D01*
X54000Y68250D02*
Y69750D01*
X53250Y116000D02*
X54750D01*
X54000Y115250D02*
Y116750D01*
X53250Y113000D02*
X54750D01*
X54000Y112250D02*
Y113750D01*
X53250Y166000D02*
X54750D01*
X54000Y165250D02*
Y166750D01*
X53250Y163000D02*
X54750D01*
X54000Y162250D02*
Y163750D01*
X53250Y207000D02*
X54750D01*
X54000Y206250D02*
Y207750D01*
X53250Y210000D02*
X54750D01*
X54000Y209250D02*
Y210750D01*
X193250Y50000D02*
X194750D01*
X194000Y49250D02*
Y50750D01*
X196250Y50000D02*
X197750D01*
X197000Y49250D02*
Y50750D01*
X193250Y94000D02*
X194750D01*
X194000Y93250D02*
Y94750D01*
X196250Y94000D02*
X197750D01*
X197000Y93250D02*
Y94750D01*
X193250Y144000D02*
X194750D01*
X194000Y143250D02*
Y144750D01*
X196250Y144000D02*
X197750D01*
X197000Y143250D02*
Y144750D01*
X193250Y188000D02*
X194750D01*
X194000Y187250D02*
Y188750D01*
X196250Y188000D02*
X197750D01*
X197000Y187250D02*
Y188750D01*
X69250Y50000D02*
X70750D01*
X70000Y49250D02*
Y50750D01*
X72250Y50000D02*
X73750D01*
X73000Y49250D02*
Y50750D01*
X69250Y94000D02*
X70750D01*
X70000Y93250D02*
Y94750D01*
X72250Y94000D02*
X73750D01*
X73000Y93250D02*
Y94750D01*
X69250Y144000D02*
X70750D01*
X70000Y143250D02*
Y144750D01*
X72250Y144000D02*
X73750D01*
X73000Y143250D02*
Y144750D01*
X76250Y192000D02*
X77750D01*
X77000Y191250D02*
Y192750D01*
X76250Y195000D02*
X77750D01*
X77000Y194250D02*
Y195750D01*
X76250Y183000D02*
X77750D01*
X77000Y182250D02*
Y183750D01*
X76250Y186000D02*
X77750D01*
X77000Y185250D02*
Y186750D01*
X72250Y188000D02*
X73750D01*
X73000Y187250D02*
Y188750D01*
X69250Y188000D02*
X70750D01*
X70000Y187250D02*
Y188750D01*
X62250Y63000D02*
X63750D01*
X63000Y62250D02*
Y63750D01*
X65250Y63000D02*
X66750D01*
X66000Y62250D02*
Y63750D01*
X200250Y195000D02*
X201750D01*
X201000Y194250D02*
Y195750D01*
X200250Y192000D02*
X201750D01*
X201000Y191250D02*
Y192750D01*
X157250Y225000D02*
X158750D01*
X158000Y224250D02*
Y225750D01*
X154250Y225000D02*
X155750D01*
X155000Y224250D02*
Y225750D01*
X154250Y228000D02*
X155750D01*
X155000Y227250D02*
Y228750D01*
X104250Y228000D02*
X105750D01*
X105000Y227250D02*
Y228750D01*
X61550Y16000D02*
X63050D01*
X62300Y15250D02*
Y16750D01*
X129250Y81000D02*
X130750D01*
X130000Y80250D02*
Y81750D01*
X129250Y106000D02*
X130750D01*
X130000Y105250D02*
Y106750D01*
X129250Y135000D02*
X130750D01*
X130000Y134250D02*
Y135750D01*
X129250Y160000D02*
X130750D01*
X130000Y159250D02*
Y160750D01*
X129250Y239000D02*
X130750D01*
X130000Y238250D02*
Y239750D01*
X129250Y264000D02*
X130750D01*
X130000Y263250D02*
Y264750D01*
X107250Y213000D02*
X108750D01*
X108000Y212250D02*
Y213750D01*
X107250Y207000D02*
X108750D01*
X108000Y206250D02*
Y207750D01*
X107250Y210000D02*
X108750D01*
X108000Y209250D02*
Y210750D01*
X200250Y186000D02*
X201750D01*
X201000Y185250D02*
Y186750D01*
X200250Y183000D02*
X201750D01*
X201000Y182250D02*
Y183750D01*
X182250Y186000D02*
X183750D01*
X183000Y185250D02*
Y186750D01*
X185250Y183000D02*
X186750D01*
X186000Y182250D02*
Y183750D01*
X182250Y183000D02*
X183750D01*
X183000Y182250D02*
Y183750D01*
X185250Y186000D02*
X186750D01*
X186000Y185250D02*
Y186750D01*
X182250Y191000D02*
X183750D01*
X183000Y190250D02*
Y191750D01*
X182250Y194000D02*
X183750D01*
X183000Y193250D02*
Y194750D01*
X189250Y201000D02*
X190750D01*
X190000Y200250D02*
Y201750D01*
X186250Y201000D02*
X187750D01*
X187000Y200250D02*
Y201750D01*
X182250Y142000D02*
X183750D01*
X183000Y141250D02*
Y142750D01*
X185250Y139000D02*
X186750D01*
X186000Y138250D02*
Y139750D01*
X182250Y139000D02*
X183750D01*
X183000Y138250D02*
Y139750D01*
X200250Y151000D02*
X201750D01*
X201000Y150250D02*
Y151750D01*
X200250Y142000D02*
X201750D01*
X201000Y141250D02*
Y142750D01*
X185250Y142000D02*
X186750D01*
X186000Y141250D02*
Y142750D01*
X200250Y139000D02*
X201750D01*
X201000Y138250D02*
Y139750D01*
X200250Y148000D02*
X201750D01*
X201000Y147250D02*
Y148750D01*
X182250Y147000D02*
X183750D01*
X183000Y146250D02*
Y147750D01*
X182250Y150000D02*
X183750D01*
X183000Y149250D02*
Y150750D01*
X189250Y157000D02*
X190750D01*
X190000Y156250D02*
Y157750D01*
X186250Y157000D02*
X187750D01*
X187000Y156250D02*
Y157750D01*
X200250Y101000D02*
X201750D01*
X201000Y100250D02*
Y101750D01*
X200250Y92000D02*
X201750D01*
X201000Y91250D02*
Y92750D01*
X200250Y89000D02*
X201750D01*
X201000Y88250D02*
Y89750D01*
X200250Y98000D02*
X201750D01*
X201000Y97250D02*
Y98750D01*
X189250Y107000D02*
X190750D01*
X190000Y106250D02*
Y107750D01*
X186250Y107000D02*
X187750D01*
X187000Y106250D02*
Y107750D01*
X182250Y48000D02*
X183750D01*
X183000Y47250D02*
Y48750D01*
X185250Y45000D02*
X186750D01*
X186000Y44250D02*
Y45750D01*
X182250Y45000D02*
X183750D01*
X183000Y44250D02*
Y45750D01*
X200250Y57000D02*
X201750D01*
X201000Y56250D02*
Y57750D01*
X200250Y48000D02*
X201750D01*
X201000Y47250D02*
Y48750D01*
X185250Y48000D02*
X186750D01*
X186000Y47250D02*
Y48750D01*
X200250Y45000D02*
X201750D01*
X201000Y44250D02*
Y45750D01*
X200250Y54000D02*
X201750D01*
X201000Y53250D02*
Y54750D01*
X182250Y53000D02*
X183750D01*
X183000Y52250D02*
Y53750D01*
X182250Y56000D02*
X183750D01*
X183000Y55250D02*
Y56750D01*
X189250Y63000D02*
X190750D01*
X190000Y62250D02*
Y63750D01*
X186250Y63000D02*
X187750D01*
X187000Y62250D02*
Y63750D01*
X58250Y48000D02*
X59750D01*
X59000Y47250D02*
Y48750D01*
X61250Y45000D02*
X62750D01*
X62000Y44250D02*
Y45750D01*
X58250Y45000D02*
X59750D01*
X59000Y44250D02*
Y45750D01*
X76250Y57000D02*
X77750D01*
X77000Y56250D02*
Y57750D01*
X76250Y48000D02*
X77750D01*
X77000Y47250D02*
Y48750D01*
X61250Y48000D02*
X62750D01*
X62000Y47250D02*
Y48750D01*
X76250Y45000D02*
X77750D01*
X77000Y44250D02*
Y45750D01*
X76250Y54000D02*
X77750D01*
X77000Y53250D02*
Y54750D01*
X58250Y53000D02*
X59750D01*
X59000Y52250D02*
Y53750D01*
X58250Y56000D02*
X59750D01*
X59000Y55250D02*
Y56750D01*
X58250Y92000D02*
X59750D01*
X59000Y91250D02*
Y92750D01*
X61250Y89000D02*
X62750D01*
X62000Y88250D02*
Y89750D01*
X58250Y89000D02*
X59750D01*
X59000Y88250D02*
Y89750D01*
X76250Y101000D02*
X77750D01*
X77000Y100250D02*
Y101750D01*
X76250Y92000D02*
X77750D01*
X77000Y91250D02*
Y92750D01*
X61250Y92000D02*
X62750D01*
X62000Y91250D02*
Y92750D01*
X76250Y89000D02*
X77750D01*
X77000Y88250D02*
Y89750D01*
X76250Y98000D02*
X77750D01*
X77000Y97250D02*
Y98750D01*
X58250Y97000D02*
X59750D01*
X59000Y96250D02*
Y97750D01*
X58250Y100000D02*
X59750D01*
X59000Y99250D02*
Y100750D01*
X65250Y107000D02*
X66750D01*
X66000Y106250D02*
Y107750D01*
X62250Y107000D02*
X63750D01*
X63000Y106250D02*
Y107750D01*
X58250Y142000D02*
X59750D01*
X59000Y141250D02*
Y142750D01*
X61250Y139000D02*
X62750D01*
X62000Y138250D02*
Y139750D01*
X58250Y139000D02*
X59750D01*
X59000Y138250D02*
Y139750D01*
X76250Y151000D02*
X77750D01*
X77000Y150250D02*
Y151750D01*
X76250Y142000D02*
X77750D01*
X77000Y141250D02*
Y142750D01*
X61250Y142000D02*
X62750D01*
X62000Y141250D02*
Y142750D01*
X76250Y139000D02*
X77750D01*
X77000Y138250D02*
Y139750D01*
X76250Y148000D02*
X77750D01*
X77000Y147250D02*
Y148750D01*
X58250Y147000D02*
X59750D01*
X59000Y146250D02*
Y147750D01*
X58250Y150000D02*
X59750D01*
X59000Y149250D02*
Y150750D01*
X65250Y157000D02*
X66750D01*
X66000Y156250D02*
Y157750D01*
X62250Y157000D02*
X63750D01*
X63000Y156250D02*
Y157750D01*
X62250Y201000D02*
X63750D01*
X63000Y200250D02*
Y201750D01*
X65250Y201000D02*
X66750D01*
X66000Y200250D02*
Y201750D01*
X58250Y194000D02*
X59750D01*
X59000Y193250D02*
Y194750D01*
X58250Y191000D02*
X59750D01*
X59000Y190250D02*
Y191750D01*
X61250Y186000D02*
X62750D01*
X62000Y185250D02*
Y186750D01*
X58250Y183000D02*
X59750D01*
X59000Y182250D02*
Y183750D01*
X61250Y183000D02*
X62750D01*
X62000Y182250D02*
Y183750D01*
X58250Y186000D02*
X59750D01*
X59000Y185250D02*
Y186750D01*
X139250Y198000D02*
X140750D01*
X140000Y197250D02*
Y198750D01*
X142250Y198000D02*
X143750D01*
X143000Y197250D02*
Y198750D01*
X136250Y198000D02*
X137750D01*
X137000Y197250D02*
Y198750D01*
X143250Y194000D02*
X144750D01*
X144000Y193250D02*
Y194750D01*
X137250Y194000D02*
X138750D01*
X138000Y193250D02*
Y194750D01*
X140250Y194000D02*
X141750D01*
X141000Y193250D02*
Y194750D01*
X127550Y277500D02*
X129050D01*
X128300Y276750D02*
Y278250D01*
X130350Y277500D02*
X131850D01*
X131100Y276750D02*
Y278250D01*
X130350Y280000D02*
X131850D01*
X131100Y279250D02*
Y280750D01*
X127550Y280000D02*
X129050D01*
X128300Y279250D02*
Y280750D01*
X130350Y282600D02*
X131850D01*
X131100Y281850D02*
Y283350D01*
X127550Y282600D02*
X129050D01*
X128300Y281850D02*
Y283350D01*
X126550Y39100D02*
X128050D01*
X127300Y38350D02*
Y39850D01*
X126550Y41900D02*
X128050D01*
X127300Y41150D02*
Y42650D01*
X129150Y39100D02*
X130650D01*
X129900Y38350D02*
Y39850D01*
X129150Y41900D02*
X130650D01*
X129900Y41150D02*
Y42650D01*
X131650Y41900D02*
X133150D01*
X132400Y41150D02*
Y42650D01*
X131650Y39100D02*
X133150D01*
X132400Y38350D02*
Y39850D01*
M02*
