G04 Layer_Physical_Order=2*
G04 Layer_Color=16711680*
%FSLAX25Y25*%
%MOIN*%
G70*
G01*
G75*
%ADD17C,0.01000*%
%ADD18C,0.02000*%
%ADD19C,0.02500*%
%ADD25C,0.03937*%
%ADD26R,0.03937X0.03937*%
%ADD27C,0.05906*%
%ADD28C,0.25000*%
%ADD29C,0.07874*%
%ADD30C,0.03000*%
%ADD31R,0.03740X0.03937*%
G04:AMPARAMS|DCode=32|XSize=118.11mil|YSize=124.02mil|CornerRadius=29.53mil|HoleSize=0mil|Usage=FLASHONLY|Rotation=90.000|XOffset=0mil|YOffset=0mil|HoleType=Round|Shape=RoundedRectangle|*
%AMROUNDEDRECTD32*
21,1,0.11811,0.06496,0,0,90.0*
21,1,0.05906,0.12402,0,0,90.0*
1,1,0.05906,0.03248,0.02953*
1,1,0.05906,0.03248,-0.02953*
1,1,0.05906,-0.03248,-0.02953*
1,1,0.05906,-0.03248,0.02953*
%
%ADD32ROUNDEDRECTD32*%
G36*
X260000Y0D02*
X0D01*
Y320000D01*
X260000D01*
Y0D01*
D02*
G37*
%LPC*%
G36*
X130000Y314549D02*
X127725Y314370D01*
X125505Y313837D01*
X123397Y312964D01*
X121451Y311771D01*
X119715Y310289D01*
X118233Y308553D01*
X117041Y306607D01*
X116167Y304499D01*
X115634Y302279D01*
X115455Y300004D01*
X115634Y297729D01*
X116167Y295509D01*
X117041Y293401D01*
X118233Y291455D01*
X119715Y289719D01*
X121451Y288237D01*
X123397Y287044D01*
X125505Y286171D01*
X127725Y285638D01*
X130000Y285459D01*
X132275Y285638D01*
X134495Y286171D01*
X136603Y287044D01*
X138549Y288237D01*
X140285Y289719D01*
X141767Y291455D01*
X142959Y293401D01*
X143833Y295509D01*
X144366Y297729D01*
X144545Y300004D01*
X144366Y302279D01*
X143833Y304499D01*
X142959Y306607D01*
X141767Y308553D01*
X140285Y310289D01*
X138549Y311771D01*
X136603Y312964D01*
X134495Y313837D01*
X132275Y314370D01*
X130000Y314549D01*
D02*
G37*
G36*
X137992Y279161D02*
X136946Y279023D01*
X135971Y278619D01*
X135134Y277976D01*
X134491Y277139D01*
X134087Y276164D01*
X133950Y275118D01*
X134087Y274072D01*
X134491Y273097D01*
X135134Y272260D01*
X135971Y271617D01*
X136946Y271213D01*
X137992Y271076D01*
X139038Y271213D01*
X140013Y271617D01*
X140851Y272260D01*
X141493Y273097D01*
X141897Y274072D01*
X142035Y275118D01*
X141897Y276164D01*
X141493Y277139D01*
X140851Y277976D01*
X140013Y278619D01*
X139038Y279023D01*
X137992Y279161D01*
D02*
G37*
G36*
X226000Y263966D02*
X224836Y263851D01*
X223717Y263512D01*
X222686Y262960D01*
X221782Y262218D01*
X221040Y261314D01*
X221020Y261278D01*
X188000D01*
X187152Y261166D01*
X186361Y260839D01*
X185682Y260318D01*
X156642Y231278D01*
X156232D01*
X155914Y231410D01*
X155000Y231530D01*
X154086Y231410D01*
X153235Y231057D01*
X152504Y230496D01*
X151943Y229765D01*
X151590Y228914D01*
X151470Y228000D01*
X151590Y227086D01*
X151722Y226768D01*
Y226358D01*
X139312Y213948D01*
X136201D01*
X136144Y213941D01*
X122767Y227318D01*
X122088Y227839D01*
X121297Y228166D01*
X120873Y228222D01*
X120449Y228278D01*
X111494D01*
X111410Y228914D01*
X111057Y229765D01*
X110496Y230496D01*
X109765Y231057D01*
X108914Y231410D01*
X108000Y231530D01*
X107086Y231410D01*
X106768Y231278D01*
X106232D01*
X105914Y231410D01*
X105000Y231530D01*
X104086Y231410D01*
X103235Y231057D01*
X102504Y230496D01*
X101943Y229765D01*
X101590Y228914D01*
X101470Y228000D01*
X101590Y227086D01*
X101722Y226768D01*
Y226232D01*
X101590Y225914D01*
X101470Y225000D01*
X101590Y224086D01*
X101943Y223235D01*
X102504Y222504D01*
X103235Y221943D01*
X104086Y221590D01*
X105000Y221470D01*
X105914Y221590D01*
X106232Y221722D01*
X106768D01*
X107086Y221590D01*
X108000Y221470D01*
X108914Y221590D01*
X109232Y221722D01*
X119091D01*
X131281Y209531D01*
X131205Y208953D01*
Y203047D01*
X131376Y201754D01*
X131875Y200550D01*
X132668Y199515D01*
X133241Y199075D01*
X133324Y198988D01*
X133400Y198953D01*
X133577Y198817D01*
X133470Y198000D01*
X133590Y197086D01*
X133722Y196768D01*
Y195110D01*
X132581Y193968D01*
X129378D01*
Y186031D01*
X137118D01*
Y189234D01*
X138407Y190523D01*
X138914Y190590D01*
X139232Y190722D01*
X139768D01*
X140086Y190590D01*
X141000Y190470D01*
X141914Y190590D01*
X142232Y190722D01*
X142768D01*
X143086Y190590D01*
X144000Y190470D01*
X144914Y190590D01*
X145765Y190943D01*
X146496Y191504D01*
X147057Y192235D01*
X147410Y193086D01*
X147530Y194000D01*
X147410Y194914D01*
X147278Y195232D01*
Y197000D01*
X147166Y197848D01*
X146839Y198639D01*
X146318Y199318D01*
X146278Y199358D01*
Y199579D01*
X147023Y200550D01*
X147522Y201754D01*
X147692Y203047D01*
Y208953D01*
X147522Y210246D01*
X147023Y211451D01*
X146616Y211981D01*
X156358Y221722D01*
X156768D01*
X157086Y221590D01*
X158000Y221470D01*
X158914Y221590D01*
X159765Y221943D01*
X160496Y222504D01*
X161057Y223235D01*
X161410Y224086D01*
X161530Y225000D01*
X161410Y225914D01*
X161278Y226232D01*
Y226642D01*
X189358Y254722D01*
X221020D01*
X221040Y254686D01*
X221782Y253782D01*
X222686Y253040D01*
X223717Y252488D01*
X224836Y252149D01*
X226000Y252034D01*
X227164Y252149D01*
X228283Y252488D01*
X229314Y253040D01*
X230218Y253782D01*
X230960Y254686D01*
X231512Y255717D01*
X231851Y256836D01*
X231966Y258000D01*
X231851Y259164D01*
X231512Y260283D01*
X230960Y261314D01*
X230218Y262218D01*
X229314Y262960D01*
X228283Y263512D01*
X227164Y263851D01*
X226000Y263966D01*
D02*
G37*
G36*
X20968Y246969D02*
X13032D01*
Y239032D01*
X13032D01*
X13120Y238931D01*
X12997Y238000D01*
X13134Y236964D01*
X13533Y235999D01*
X13916Y235500D01*
X13533Y235001D01*
X13134Y234036D01*
X12997Y233000D01*
X13134Y231964D01*
X13533Y230999D01*
X13916Y230500D01*
X13533Y230001D01*
X13134Y229036D01*
X12997Y228000D01*
X13134Y226964D01*
X13533Y225999D01*
X13916Y225500D01*
X13533Y225001D01*
X13134Y224036D01*
X12997Y223000D01*
X13134Y221964D01*
X13533Y220999D01*
X14170Y220170D01*
X14999Y219533D01*
X15964Y219134D01*
X17000Y218997D01*
X18036Y219134D01*
X19001Y219533D01*
X19830Y220170D01*
X20467Y220999D01*
X20866Y221964D01*
X21003Y223000D01*
X20866Y224036D01*
X20467Y225001D01*
X20084Y225500D01*
X20467Y225999D01*
X20866Y226964D01*
X21003Y228000D01*
X20866Y229036D01*
X20467Y230001D01*
X20084Y230500D01*
X20467Y230999D01*
X20866Y231964D01*
X21003Y233000D01*
X20866Y234036D01*
X20467Y235001D01*
X20084Y235500D01*
X20467Y235999D01*
X20866Y236964D01*
X21003Y238000D01*
X20880Y238931D01*
X20968Y239032D01*
X20968D01*
Y246969D01*
D02*
G37*
G36*
X86000Y221530D02*
X85086Y221410D01*
X84235Y221057D01*
X83504Y220496D01*
X82943Y219765D01*
X82590Y218914D01*
X82470Y218000D01*
X82519Y217628D01*
X82122Y217324D01*
X81914Y217410D01*
X81000Y217530D01*
X80086Y217410D01*
X79235Y217057D01*
X78504Y216496D01*
X77943Y215765D01*
X77590Y214914D01*
X77470Y214000D01*
X77590Y213086D01*
X77833Y212500D01*
X77590Y211914D01*
X77470Y211000D01*
X77590Y210086D01*
X77943Y209235D01*
X78504Y208504D01*
X78951Y208161D01*
Y169839D01*
X78504Y169496D01*
X77943Y168765D01*
X77590Y167914D01*
X77470Y167000D01*
X77590Y166086D01*
X77833Y165500D01*
X77590Y164914D01*
X77470Y164000D01*
X77590Y163086D01*
X77943Y162235D01*
X78504Y161504D01*
X78951Y161161D01*
Y122839D01*
X78504Y122496D01*
X77943Y121765D01*
X77590Y120914D01*
X77470Y120000D01*
X77590Y119086D01*
X77833Y118500D01*
X77590Y117914D01*
X77470Y117000D01*
X77590Y116086D01*
X77943Y115235D01*
X78504Y114504D01*
X78951Y114161D01*
Y75839D01*
X78504Y75496D01*
X77943Y74765D01*
X77590Y73914D01*
X77470Y73000D01*
X77590Y72086D01*
X77833Y71500D01*
X77590Y70914D01*
X77470Y70000D01*
X77590Y69086D01*
X77943Y68235D01*
X78504Y67504D01*
X78951Y67161D01*
Y21500D01*
Y9941D01*
X78899Y9860D01*
X78443Y9265D01*
X78090Y8414D01*
X77970Y7500D01*
X78090Y6586D01*
X78333Y6000D01*
X78090Y5414D01*
X77970Y4500D01*
X78090Y3586D01*
X78443Y2735D01*
X79004Y2004D01*
X79735Y1443D01*
X80586Y1090D01*
X81500Y970D01*
X82414Y1090D01*
X83265Y1443D01*
X83996Y2004D01*
X84557Y2735D01*
X84910Y3586D01*
X85030Y4500D01*
X85006Y4682D01*
X85480Y4915D01*
X87698Y2698D01*
X88525Y2145D01*
X89500Y1951D01*
X141000D01*
X141975Y2145D01*
X142802Y2698D01*
X148302Y8198D01*
X148855Y9025D01*
X149049Y10000D01*
Y26444D01*
X152056Y29451D01*
X155059D01*
X155140Y29399D01*
X155735Y28943D01*
X156586Y28590D01*
X157500Y28470D01*
X158414Y28590D01*
X159265Y28943D01*
X159750Y29315D01*
X160235Y28943D01*
X161086Y28590D01*
X162000Y28470D01*
X162914Y28590D01*
X163765Y28943D01*
X164360Y29399D01*
X164442Y29451D01*
X168559D01*
X168640Y29399D01*
X169235Y28943D01*
X170086Y28590D01*
X171000Y28470D01*
X171914Y28590D01*
X172500Y28833D01*
X173086Y28590D01*
X174000Y28470D01*
X174914Y28590D01*
X175035Y28640D01*
X175451Y28363D01*
Y12850D01*
X175075Y12520D01*
X175000Y12530D01*
X174086Y12410D01*
X173235Y12057D01*
X172504Y11496D01*
X171943Y10765D01*
X171590Y9914D01*
X171470Y9000D01*
X171590Y8086D01*
X171943Y7235D01*
X172504Y6504D01*
X173235Y5943D01*
X174086Y5590D01*
X175000Y5470D01*
X175914Y5590D01*
X176500Y5833D01*
X177086Y5590D01*
X178000Y5470D01*
X178914Y5590D01*
X179765Y5943D01*
X180496Y6504D01*
X181057Y7235D01*
X181410Y8086D01*
X181530Y9000D01*
X181410Y9914D01*
X181057Y10765D01*
X180601Y11360D01*
X180549Y11441D01*
Y66558D01*
X180601Y66640D01*
X181057Y67235D01*
X181410Y68086D01*
X181530Y69000D01*
X181410Y69914D01*
X181167Y70500D01*
X181410Y71086D01*
X181530Y72000D01*
X181410Y72914D01*
X181057Y73765D01*
X180601Y74360D01*
X180549Y74441D01*
Y110558D01*
X180601Y110640D01*
X181057Y111235D01*
X181410Y112086D01*
X181530Y113000D01*
X181410Y113914D01*
X181167Y114500D01*
X181410Y115086D01*
X181530Y116000D01*
X181410Y116914D01*
X181057Y117765D01*
X180601Y118360D01*
X180549Y118441D01*
Y160558D01*
X180601Y160640D01*
X181057Y161235D01*
X181410Y162086D01*
X181530Y163000D01*
X181410Y163914D01*
X181167Y164500D01*
X181410Y165086D01*
X181530Y166000D01*
X181410Y166914D01*
X181057Y167765D01*
X180601Y168360D01*
X180549Y168441D01*
Y204558D01*
X180601Y204640D01*
X181057Y205235D01*
X181410Y206086D01*
X181530Y207000D01*
X181410Y207914D01*
X181167Y208500D01*
X181410Y209086D01*
X181530Y210000D01*
X181410Y210914D01*
X181057Y211765D01*
X180496Y212496D01*
X179765Y213057D01*
X178914Y213410D01*
X178000Y213530D01*
X177086Y213410D01*
X176235Y213057D01*
X175504Y212496D01*
X174943Y211765D01*
X174590Y210914D01*
X174470Y210000D01*
X174590Y209086D01*
X174833Y208500D01*
X174590Y207914D01*
X174470Y207000D01*
X174590Y206086D01*
X174943Y205235D01*
X175399Y204640D01*
X175451Y204558D01*
Y168441D01*
X175399Y168360D01*
X174943Y167765D01*
X174590Y166914D01*
X174470Y166000D01*
X174590Y165086D01*
X174833Y164500D01*
X174590Y163914D01*
X174470Y163000D01*
X174590Y162086D01*
X174943Y161235D01*
X175399Y160640D01*
X175451Y160558D01*
Y118441D01*
X175399Y118360D01*
X174943Y117765D01*
X174590Y116914D01*
X174470Y116000D01*
X174590Y115086D01*
X174833Y114500D01*
X174590Y113914D01*
X174470Y113000D01*
X174590Y112086D01*
X174943Y111235D01*
X175399Y110640D01*
X175451Y110558D01*
Y74441D01*
X175399Y74360D01*
X174943Y73765D01*
X174590Y72914D01*
X174470Y72000D01*
X174590Y71086D01*
X174833Y70500D01*
X174590Y69914D01*
X174470Y69000D01*
X174590Y68086D01*
X174943Y67235D01*
X175399Y66640D01*
X175451Y66558D01*
Y35637D01*
X175035Y35359D01*
X174914Y35410D01*
X174000Y35530D01*
X173086Y35410D01*
X172500Y35167D01*
X171914Y35410D01*
X171000Y35530D01*
X170086Y35410D01*
X169235Y35057D01*
X168640Y34601D01*
X168559Y34549D01*
X164442D01*
X164360Y34601D01*
X163765Y35057D01*
X162914Y35410D01*
X162000Y35530D01*
X161086Y35410D01*
X160235Y35057D01*
X159750Y34685D01*
X159265Y35057D01*
X158414Y35410D01*
X157500Y35530D01*
X156586Y35410D01*
X155735Y35057D01*
X155140Y34601D01*
X155059Y34549D01*
X151000D01*
X150024Y34355D01*
X149198Y33802D01*
X144698Y29302D01*
X144145Y28475D01*
X143951Y27500D01*
Y25512D01*
X143451Y25413D01*
X142959Y26599D01*
X141767Y28545D01*
X140285Y30281D01*
X138549Y31763D01*
X136603Y32956D01*
X134495Y33829D01*
X132275Y34362D01*
X130000Y34541D01*
X127725Y34362D01*
X125505Y33829D01*
X123397Y32956D01*
X121451Y31763D01*
X119715Y30281D01*
X118233Y28545D01*
X117041Y26599D01*
X116167Y24491D01*
X115634Y22271D01*
X115455Y19996D01*
X115634Y17721D01*
X116167Y15502D01*
X117041Y13393D01*
X118233Y11447D01*
X119715Y9711D01*
X121451Y8229D01*
X122591Y7530D01*
X122455Y7049D01*
X90556D01*
X88549Y9056D01*
Y74559D01*
X88601Y74640D01*
X89057Y75235D01*
X89410Y76086D01*
X89530Y77000D01*
X89410Y77914D01*
X89167Y78500D01*
X89410Y79086D01*
X89530Y80000D01*
X89410Y80914D01*
X89057Y81765D01*
X88601Y82360D01*
X88549Y82442D01*
Y118559D01*
X88601Y118640D01*
X89057Y119235D01*
X89410Y120086D01*
X89530Y121000D01*
X89410Y121914D01*
X89167Y122500D01*
X89410Y123086D01*
X89530Y124000D01*
X89410Y124914D01*
X89057Y125765D01*
X88601Y126360D01*
X88549Y126442D01*
Y168559D01*
X88601Y168640D01*
X89057Y169235D01*
X89410Y170086D01*
X89530Y171000D01*
X89410Y171914D01*
X89167Y172500D01*
X89410Y173086D01*
X89530Y174000D01*
X89410Y174914D01*
X89057Y175765D01*
X88601Y176360D01*
X88549Y176442D01*
Y212559D01*
X88601Y212640D01*
X89057Y213235D01*
X89410Y214086D01*
X89530Y215000D01*
X89410Y215914D01*
X89167Y216500D01*
X89410Y217086D01*
X89530Y218000D01*
X89410Y218914D01*
X89057Y219765D01*
X88496Y220496D01*
X87765Y221057D01*
X86914Y221410D01*
X86000Y221530D01*
D02*
G37*
G36*
X17000Y217003D02*
X15964Y216866D01*
X14999Y216466D01*
X14170Y215830D01*
X13533Y215001D01*
X13134Y214036D01*
X12997Y213000D01*
X13134Y211964D01*
X13533Y210999D01*
X13916Y210500D01*
X13533Y210001D01*
X13134Y209036D01*
X12997Y208000D01*
X13134Y206964D01*
X13533Y205999D01*
X13916Y205500D01*
X13533Y205001D01*
X13134Y204036D01*
X12997Y203000D01*
X13134Y201964D01*
X13533Y200999D01*
X13916Y200500D01*
X13533Y200001D01*
X13134Y199036D01*
X12997Y198000D01*
X13134Y196964D01*
X13533Y195999D01*
X14170Y195170D01*
X14999Y194534D01*
X15964Y194134D01*
X17000Y193997D01*
X18036Y194134D01*
X19001Y194534D01*
X19830Y195170D01*
X20467Y195999D01*
X20866Y196964D01*
X21003Y198000D01*
X20866Y199036D01*
X20467Y200001D01*
X20084Y200500D01*
X20467Y200999D01*
X20866Y201964D01*
X21003Y203000D01*
X20866Y204036D01*
X20467Y205001D01*
X20084Y205500D01*
X20467Y205999D01*
X20866Y206964D01*
X21003Y208000D01*
X20866Y209036D01*
X20467Y210001D01*
X20084Y210500D01*
X20467Y210999D01*
X20866Y211964D01*
X21003Y213000D01*
X20866Y214036D01*
X20467Y215001D01*
X19830Y215830D01*
X19001Y216466D01*
X18036Y216866D01*
X17000Y217003D01*
D02*
G37*
G36*
X199118Y195968D02*
X191378D01*
Y190332D01*
X190943Y189765D01*
X190590Y188914D01*
X190470Y188000D01*
X190590Y187086D01*
X190943Y186235D01*
X191504Y185504D01*
X192235Y184943D01*
X193086Y184590D01*
X194000Y184470D01*
X194914Y184590D01*
X195232Y184722D01*
X195768D01*
X196086Y184590D01*
X197000Y184470D01*
X197914Y184590D01*
X198765Y184943D01*
X199496Y185504D01*
X200057Y186235D01*
X200410Y187086D01*
X200530Y188000D01*
X200410Y188914D01*
X200057Y189765D01*
X199496Y190496D01*
X199118Y190786D01*
Y195968D01*
D02*
G37*
G36*
X75118D02*
X67378D01*
Y190332D01*
X66943Y189765D01*
X66590Y188914D01*
X66470Y188000D01*
X66590Y187086D01*
X66943Y186235D01*
X67504Y185504D01*
X68235Y184943D01*
X69086Y184590D01*
X70000Y184470D01*
X70914Y184590D01*
X71232Y184722D01*
X71768D01*
X72086Y184590D01*
X73000Y184470D01*
X73914Y184590D01*
X74765Y184943D01*
X75496Y185504D01*
X76057Y186235D01*
X76410Y187086D01*
X76530Y188000D01*
X76410Y188914D01*
X76057Y189765D01*
X75496Y190496D01*
X75118Y190786D01*
Y195968D01*
D02*
G37*
G36*
X244000Y225003D02*
X242964Y224866D01*
X241999Y224466D01*
X241170Y223830D01*
X240533Y223001D01*
X240134Y222036D01*
X239997Y221000D01*
X240134Y219964D01*
X240533Y218999D01*
X240916Y218500D01*
X240533Y218001D01*
X240134Y217036D01*
X239997Y216000D01*
X240134Y214964D01*
X240533Y213999D01*
X240916Y213500D01*
X240533Y213001D01*
X240134Y212036D01*
X239997Y211000D01*
X240134Y209964D01*
X240533Y208999D01*
X240916Y208500D01*
X240533Y208001D01*
X240134Y207036D01*
X239997Y206000D01*
X240134Y204964D01*
X240533Y203999D01*
X240916Y203500D01*
X240533Y203001D01*
X240134Y202036D01*
X239997Y201000D01*
X240134Y199964D01*
X240533Y198999D01*
X240916Y198500D01*
X240533Y198001D01*
X240134Y197036D01*
X239997Y196000D01*
X240134Y194964D01*
X240533Y193999D01*
X240916Y193500D01*
X240533Y193001D01*
X240134Y192036D01*
X239997Y191000D01*
X240134Y189964D01*
X240533Y188999D01*
X240916Y188500D01*
X240533Y188001D01*
X240134Y187036D01*
X239997Y186000D01*
X240120Y185069D01*
X240032Y184968D01*
X240032D01*
Y177032D01*
X247969D01*
Y184968D01*
X247969D01*
X247880Y185069D01*
X248003Y186000D01*
X247866Y187036D01*
X247466Y188001D01*
X247084Y188500D01*
X247466Y188999D01*
X247866Y189964D01*
X248003Y191000D01*
X247866Y192036D01*
X247466Y193001D01*
X247084Y193500D01*
X247466Y193999D01*
X247866Y194964D01*
X248003Y196000D01*
X247866Y197036D01*
X247466Y198001D01*
X247084Y198500D01*
X247466Y198999D01*
X247866Y199964D01*
X248003Y201000D01*
X247866Y202036D01*
X247466Y203001D01*
X247084Y203500D01*
X247466Y203999D01*
X247866Y204964D01*
X248003Y206000D01*
X247866Y207036D01*
X247466Y208001D01*
X247084Y208500D01*
X247466Y208999D01*
X247866Y209964D01*
X248003Y211000D01*
X247866Y212036D01*
X247466Y213001D01*
X247084Y213500D01*
X247466Y213999D01*
X247866Y214964D01*
X248003Y216000D01*
X247866Y217036D01*
X247466Y218001D01*
X247084Y218500D01*
X247466Y218999D01*
X247866Y219964D01*
X248003Y221000D01*
X247866Y222036D01*
X247466Y223001D01*
X246830Y223830D01*
X246001Y224466D01*
X245036Y224866D01*
X244000Y225003D01*
D02*
G37*
G36*
X20968Y184968D02*
X13032D01*
Y177032D01*
X13032D01*
X13120Y176931D01*
X12997Y176000D01*
X13134Y174964D01*
X13533Y173999D01*
X13916Y173500D01*
X13533Y173001D01*
X13134Y172036D01*
X12997Y171000D01*
X13134Y169964D01*
X13533Y168999D01*
X13916Y168500D01*
X13533Y168001D01*
X13134Y167036D01*
X12997Y166000D01*
X13134Y164964D01*
X13533Y163999D01*
X13916Y163500D01*
X13533Y163001D01*
X13134Y162036D01*
X12997Y161000D01*
X13134Y159964D01*
X13533Y158999D01*
X14170Y158170D01*
X14999Y157534D01*
X15964Y157134D01*
X17000Y156997D01*
X18036Y157134D01*
X19001Y157534D01*
X19830Y158170D01*
X20467Y158999D01*
X20866Y159964D01*
X21003Y161000D01*
X20866Y162036D01*
X20467Y163001D01*
X20084Y163500D01*
X20467Y163999D01*
X20866Y164964D01*
X21003Y166000D01*
X20866Y167036D01*
X20467Y168001D01*
X20084Y168500D01*
X20467Y168999D01*
X20866Y169964D01*
X21003Y171000D01*
X20866Y172036D01*
X20467Y173001D01*
X20084Y173500D01*
X20467Y173999D01*
X20866Y174964D01*
X21003Y176000D01*
X20880Y176931D01*
X20968Y177032D01*
X20968D01*
Y184968D01*
D02*
G37*
G36*
X199118Y151969D02*
X191378D01*
Y146332D01*
X190943Y145765D01*
X190590Y144914D01*
X190470Y144000D01*
X190590Y143086D01*
X190943Y142235D01*
X191504Y141504D01*
X192235Y140943D01*
X193086Y140590D01*
X194000Y140470D01*
X194914Y140590D01*
X195232Y140722D01*
X195768D01*
X196086Y140590D01*
X197000Y140470D01*
X197914Y140590D01*
X198765Y140943D01*
X199496Y141504D01*
X200057Y142235D01*
X200410Y143086D01*
X200530Y144000D01*
X200410Y144914D01*
X200057Y145765D01*
X199496Y146496D01*
X199118Y146786D01*
Y151969D01*
D02*
G37*
G36*
X75118D02*
X67378D01*
Y146332D01*
X66943Y145765D01*
X66590Y144914D01*
X66470Y144000D01*
X66590Y143086D01*
X66943Y142235D01*
X67504Y141504D01*
X68235Y140943D01*
X69086Y140590D01*
X70000Y140470D01*
X70914Y140590D01*
X71232Y140722D01*
X71768D01*
X72086Y140590D01*
X73000Y140470D01*
X73914Y140590D01*
X74765Y140943D01*
X75496Y141504D01*
X76057Y142235D01*
X76410Y143086D01*
X76530Y144000D01*
X76410Y144914D01*
X76057Y145765D01*
X75496Y146496D01*
X75118Y146786D01*
Y151969D01*
D02*
G37*
G36*
X17000Y155003D02*
X15964Y154866D01*
X14999Y154466D01*
X14170Y153830D01*
X13533Y153001D01*
X13134Y152036D01*
X12997Y151000D01*
X13134Y149964D01*
X13533Y148999D01*
X13916Y148500D01*
X13533Y148001D01*
X13134Y147036D01*
X12997Y146000D01*
X13134Y144964D01*
X13533Y143999D01*
X13916Y143500D01*
X13533Y143001D01*
X13134Y142036D01*
X12997Y141000D01*
X13134Y139964D01*
X13533Y138999D01*
X13916Y138500D01*
X13533Y138001D01*
X13134Y137036D01*
X12997Y136000D01*
X13134Y134964D01*
X13533Y133999D01*
X14170Y133170D01*
X14999Y132534D01*
X15964Y132134D01*
X17000Y131997D01*
X18036Y132134D01*
X19001Y132534D01*
X19830Y133170D01*
X20467Y133999D01*
X20866Y134964D01*
X21003Y136000D01*
X20866Y137036D01*
X20467Y138001D01*
X20084Y138500D01*
X20467Y138999D01*
X20866Y139964D01*
X21003Y141000D01*
X20866Y142036D01*
X20467Y143001D01*
X20084Y143500D01*
X20467Y143999D01*
X20866Y144964D01*
X21003Y146000D01*
X20866Y147036D01*
X20467Y148001D01*
X20084Y148500D01*
X20467Y148999D01*
X20866Y149964D01*
X21003Y151000D01*
X20866Y152036D01*
X20467Y153001D01*
X19830Y153830D01*
X19001Y154466D01*
X18036Y154866D01*
X17000Y155003D01*
D02*
G37*
G36*
X244000Y173003D02*
X242964Y172866D01*
X241999Y172467D01*
X241170Y171830D01*
X240533Y171001D01*
X240134Y170036D01*
X239997Y169000D01*
X240134Y167964D01*
X240533Y166999D01*
X240916Y166500D01*
X240533Y166001D01*
X240134Y165036D01*
X239997Y164000D01*
X240134Y162964D01*
X240533Y161999D01*
X240916Y161500D01*
X240533Y161001D01*
X240134Y160036D01*
X239997Y159000D01*
X240134Y157964D01*
X240533Y156999D01*
X240916Y156500D01*
X240533Y156001D01*
X240134Y155036D01*
X239997Y154000D01*
X240134Y152964D01*
X240533Y151999D01*
X240916Y151500D01*
X240533Y151001D01*
X240134Y150036D01*
X239997Y149000D01*
X240134Y147964D01*
X240533Y146999D01*
X240916Y146500D01*
X240533Y146001D01*
X240134Y145036D01*
X239997Y144000D01*
X240134Y142964D01*
X240533Y141999D01*
X240916Y141500D01*
X240533Y141001D01*
X240134Y140036D01*
X239997Y139000D01*
X240134Y137964D01*
X240533Y136999D01*
X240916Y136500D01*
X240533Y136001D01*
X240134Y135036D01*
X239997Y134000D01*
X240120Y133069D01*
X240032Y132968D01*
X240032D01*
Y125031D01*
X247969D01*
Y132968D01*
X247969D01*
X247880Y133069D01*
X248003Y134000D01*
X247866Y135036D01*
X247466Y136001D01*
X247084Y136500D01*
X247466Y136999D01*
X247866Y137964D01*
X248003Y139000D01*
X247866Y140036D01*
X247466Y141001D01*
X247084Y141500D01*
X247466Y141999D01*
X247866Y142964D01*
X248003Y144000D01*
X247866Y145036D01*
X247466Y146001D01*
X247084Y146500D01*
X247466Y146999D01*
X247866Y147964D01*
X248003Y149000D01*
X247866Y150036D01*
X247466Y151001D01*
X247084Y151500D01*
X247466Y151999D01*
X247866Y152964D01*
X248003Y154000D01*
X247866Y155036D01*
X247466Y156001D01*
X247084Y156500D01*
X247466Y156999D01*
X247866Y157964D01*
X248003Y159000D01*
X247866Y160036D01*
X247466Y161001D01*
X247084Y161500D01*
X247466Y161999D01*
X247866Y162964D01*
X248003Y164000D01*
X247866Y165036D01*
X247466Y166001D01*
X247084Y166500D01*
X247466Y166999D01*
X247866Y167964D01*
X248003Y169000D01*
X247866Y170036D01*
X247466Y171001D01*
X246830Y171830D01*
X246001Y172467D01*
X245036Y172866D01*
X244000Y173003D01*
D02*
G37*
G36*
X20968Y122968D02*
X13032D01*
Y115032D01*
X13032D01*
X13120Y114931D01*
X12997Y114000D01*
X13134Y112964D01*
X13533Y111999D01*
X13916Y111500D01*
X13533Y111001D01*
X13134Y110036D01*
X12997Y109000D01*
X13134Y107964D01*
X13533Y106999D01*
X13916Y106500D01*
X13533Y106001D01*
X13134Y105036D01*
X12997Y104000D01*
X13134Y102964D01*
X13533Y101999D01*
X13916Y101500D01*
X13533Y101001D01*
X13134Y100036D01*
X12997Y99000D01*
X13134Y97964D01*
X13533Y96999D01*
X14170Y96170D01*
X14999Y95534D01*
X15964Y95134D01*
X17000Y94997D01*
X18036Y95134D01*
X19001Y95534D01*
X19830Y96170D01*
X20467Y96999D01*
X20866Y97964D01*
X21003Y99000D01*
X20866Y100036D01*
X20467Y101001D01*
X20084Y101500D01*
X20467Y101999D01*
X20866Y102964D01*
X21003Y104000D01*
X20866Y105036D01*
X20467Y106001D01*
X20084Y106500D01*
X20467Y106999D01*
X20866Y107964D01*
X21003Y109000D01*
X20866Y110036D01*
X20467Y111001D01*
X20084Y111500D01*
X20467Y111999D01*
X20866Y112964D01*
X21003Y114000D01*
X20880Y114931D01*
X20968Y115032D01*
X20968D01*
Y122968D01*
D02*
G37*
G36*
X199118Y101969D02*
X191378D01*
Y96425D01*
X191161Y96143D01*
X191077Y95940D01*
X190943Y95765D01*
X190590Y94914D01*
X190470Y94000D01*
X190590Y93086D01*
X190943Y92235D01*
X191504Y91504D01*
X192235Y90943D01*
X193086Y90590D01*
X194000Y90470D01*
X194914Y90590D01*
X195232Y90722D01*
X195768D01*
X196086Y90590D01*
X197000Y90470D01*
X197914Y90590D01*
X198765Y90943D01*
X199496Y91504D01*
X200057Y92235D01*
X200410Y93086D01*
X200530Y94000D01*
X200410Y94914D01*
X200057Y95765D01*
X199496Y96496D01*
X199118Y96786D01*
Y101969D01*
D02*
G37*
G36*
X75118D02*
X67378D01*
Y96332D01*
X66943Y95765D01*
X66590Y94914D01*
X66470Y94000D01*
X66590Y93086D01*
X66943Y92235D01*
X67504Y91504D01*
X68235Y90943D01*
X69086Y90590D01*
X70000Y90470D01*
X70914Y90590D01*
X71232Y90722D01*
X71768D01*
X72086Y90590D01*
X73000Y90470D01*
X73914Y90590D01*
X74765Y90943D01*
X75496Y91504D01*
X76057Y92235D01*
X76410Y93086D01*
X76530Y94000D01*
X76410Y94914D01*
X76057Y95765D01*
X75496Y96496D01*
X75118Y96786D01*
Y101969D01*
D02*
G37*
G36*
X244000Y121003D02*
X242964Y120866D01*
X241999Y120466D01*
X241170Y119830D01*
X240533Y119001D01*
X240134Y118036D01*
X239997Y117000D01*
X240134Y115964D01*
X240533Y114999D01*
X240916Y114500D01*
X240533Y114001D01*
X240134Y113036D01*
X239997Y112000D01*
X240134Y110964D01*
X240533Y109999D01*
X240916Y109500D01*
X240533Y109001D01*
X240134Y108036D01*
X239997Y107000D01*
X240134Y105964D01*
X240533Y104999D01*
X240916Y104500D01*
X240533Y104001D01*
X240134Y103036D01*
X239997Y102000D01*
X240134Y100964D01*
X240533Y99999D01*
X240916Y99500D01*
X240533Y99001D01*
X240134Y98036D01*
X239997Y97000D01*
X240134Y95964D01*
X240533Y94999D01*
X240916Y94500D01*
X240533Y94001D01*
X240134Y93036D01*
X239997Y92000D01*
X240134Y90964D01*
X240533Y89999D01*
X240916Y89500D01*
X240533Y89001D01*
X240134Y88036D01*
X239997Y87000D01*
X240134Y85964D01*
X240533Y84999D01*
X240916Y84500D01*
X240533Y84001D01*
X240134Y83036D01*
X239997Y82000D01*
X240120Y81069D01*
X240032Y80968D01*
X240032D01*
Y73032D01*
X247969D01*
Y80968D01*
X247969D01*
X247880Y81069D01*
X248003Y82000D01*
X247866Y83036D01*
X247466Y84001D01*
X247084Y84500D01*
X247466Y84999D01*
X247866Y85964D01*
X248003Y87000D01*
X247866Y88036D01*
X247466Y89001D01*
X247084Y89500D01*
X247466Y89999D01*
X247866Y90964D01*
X248003Y92000D01*
X247866Y93036D01*
X247466Y94001D01*
X247084Y94500D01*
X247466Y94999D01*
X247866Y95964D01*
X248003Y97000D01*
X247866Y98036D01*
X247466Y99001D01*
X247084Y99500D01*
X247466Y99999D01*
X247866Y100964D01*
X248003Y102000D01*
X247866Y103036D01*
X247466Y104001D01*
X247084Y104500D01*
X247466Y104999D01*
X247866Y105964D01*
X248003Y107000D01*
X247866Y108036D01*
X247466Y109001D01*
X247084Y109500D01*
X247466Y109999D01*
X247866Y110964D01*
X248003Y112000D01*
X247866Y113036D01*
X247466Y114001D01*
X247084Y114500D01*
X247466Y114999D01*
X247866Y115964D01*
X248003Y117000D01*
X247866Y118036D01*
X247466Y119001D01*
X246830Y119830D01*
X246001Y120466D01*
X245036Y120866D01*
X244000Y121003D01*
D02*
G37*
G36*
X17000Y93003D02*
X15964Y92866D01*
X14999Y92466D01*
X14170Y91830D01*
X13533Y91001D01*
X13134Y90036D01*
X12997Y89000D01*
X13134Y87964D01*
X13533Y86999D01*
X13916Y86500D01*
X13533Y86001D01*
X13134Y85036D01*
X12997Y84000D01*
X13134Y82964D01*
X13533Y81999D01*
X13916Y81500D01*
X13533Y81001D01*
X13134Y80036D01*
X12997Y79000D01*
X13134Y77964D01*
X13533Y76999D01*
X13916Y76500D01*
X13533Y76001D01*
X13134Y75036D01*
X12997Y74000D01*
X13134Y72964D01*
X13533Y71999D01*
X14170Y71170D01*
X14999Y70534D01*
X15964Y70134D01*
X17000Y69997D01*
X18036Y70134D01*
X19001Y70534D01*
X19830Y71170D01*
X20467Y71999D01*
X20866Y72964D01*
X21003Y74000D01*
X20866Y75036D01*
X20467Y76001D01*
X20084Y76500D01*
X20467Y76999D01*
X20866Y77964D01*
X21003Y79000D01*
X20866Y80036D01*
X20467Y81001D01*
X20084Y81500D01*
X20467Y81999D01*
X20866Y82964D01*
X21003Y84000D01*
X20866Y85036D01*
X20467Y86001D01*
X20084Y86500D01*
X20467Y86999D01*
X20866Y87964D01*
X21003Y89000D01*
X20866Y90036D01*
X20467Y91001D01*
X19830Y91830D01*
X19001Y92466D01*
X18036Y92866D01*
X17000Y93003D01*
D02*
G37*
G36*
X199118Y57968D02*
X191378D01*
Y52332D01*
X190943Y51765D01*
X190590Y50914D01*
X190470Y50000D01*
X190590Y49086D01*
X190943Y48235D01*
X191504Y47504D01*
X192235Y46943D01*
X193086Y46590D01*
X194000Y46470D01*
X194914Y46590D01*
X195232Y46722D01*
X195768D01*
X196086Y46590D01*
X197000Y46470D01*
X197914Y46590D01*
X198765Y46943D01*
X199496Y47504D01*
X200057Y48235D01*
X200410Y49086D01*
X200530Y50000D01*
X200410Y50914D01*
X200057Y51765D01*
X199496Y52496D01*
X199118Y52786D01*
Y57968D01*
D02*
G37*
G36*
X75118D02*
X67378D01*
Y52332D01*
X66943Y51765D01*
X66590Y50914D01*
X66470Y50000D01*
X66590Y49086D01*
X66943Y48235D01*
X67504Y47504D01*
X68235Y46943D01*
X69086Y46590D01*
X70000Y46470D01*
X70914Y46590D01*
X71232Y46722D01*
X71768D01*
X72086Y46590D01*
X73000Y46470D01*
X73914Y46590D01*
X74765Y46943D01*
X75496Y47504D01*
X76057Y48235D01*
X76410Y49086D01*
X76530Y50000D01*
X76410Y50914D01*
X76057Y51765D01*
X75496Y52496D01*
X75118Y52786D01*
Y57968D01*
D02*
G37*
G36*
X137992Y48924D02*
X136946Y48787D01*
X135971Y48383D01*
X135134Y47740D01*
X134491Y46903D01*
X134087Y45928D01*
X133950Y44882D01*
X134087Y43836D01*
X134491Y42861D01*
X135134Y42024D01*
X135971Y41381D01*
X136946Y40977D01*
X137992Y40839D01*
X139038Y40977D01*
X140013Y41381D01*
X140851Y42024D01*
X141493Y42861D01*
X141897Y43836D01*
X142035Y44882D01*
X141897Y45928D01*
X141493Y46903D01*
X140851Y47740D01*
X140013Y48383D01*
X139038Y48787D01*
X137992Y48924D01*
D02*
G37*
G36*
X20968Y60969D02*
X13032D01*
Y53031D01*
X13032D01*
X13120Y52931D01*
X12997Y52000D01*
X13134Y50964D01*
X13533Y49999D01*
X13916Y49500D01*
X13533Y49001D01*
X13134Y48036D01*
X12997Y47000D01*
X13134Y45964D01*
X13533Y44999D01*
X13916Y44500D01*
X13533Y44001D01*
X13134Y43036D01*
X12997Y42000D01*
X13134Y40964D01*
X13533Y39999D01*
X13916Y39500D01*
X13533Y39001D01*
X13134Y38036D01*
X12997Y37000D01*
X13134Y35964D01*
X13533Y34999D01*
X14170Y34170D01*
X14999Y33533D01*
X15964Y33134D01*
X17000Y32997D01*
X18036Y33134D01*
X19001Y33533D01*
X19830Y34170D01*
X20467Y34999D01*
X20866Y35964D01*
X21003Y37000D01*
X20866Y38036D01*
X20467Y39001D01*
X20084Y39500D01*
X20467Y39999D01*
X20866Y40964D01*
X21003Y42000D01*
X20866Y43036D01*
X20467Y44001D01*
X20084Y44500D01*
X20467Y44999D01*
X20866Y45964D01*
X21003Y47000D01*
X20866Y48036D01*
X20467Y49001D01*
X20084Y49500D01*
X20467Y49999D01*
X20866Y50964D01*
X21003Y52000D01*
X20880Y52931D01*
X20968Y53031D01*
X20968D01*
Y60969D01*
D02*
G37*
G36*
X54000Y213530D02*
X53086Y213410D01*
X52235Y213057D01*
X51504Y212496D01*
X50943Y211765D01*
X50590Y210914D01*
X50470Y210000D01*
X50590Y209086D01*
X50833Y208500D01*
X50590Y207914D01*
X50470Y207000D01*
X50590Y206086D01*
X50943Y205235D01*
X51399Y204640D01*
X51451Y204558D01*
Y168441D01*
X51399Y168360D01*
X50943Y167765D01*
X50590Y166914D01*
X50470Y166000D01*
X50590Y165086D01*
X50833Y164500D01*
X50590Y163914D01*
X50470Y163000D01*
X50590Y162086D01*
X50943Y161235D01*
X51399Y160640D01*
X51451Y160558D01*
Y118441D01*
X51399Y118360D01*
X50943Y117765D01*
X50590Y116914D01*
X50470Y116000D01*
X50590Y115086D01*
X50833Y114500D01*
X50590Y113914D01*
X50470Y113000D01*
X50590Y112086D01*
X50943Y111235D01*
X51399Y110640D01*
X51451Y110558D01*
Y74441D01*
X51399Y74360D01*
X50943Y73765D01*
X50590Y72914D01*
X50470Y72000D01*
X50590Y71086D01*
X50833Y70500D01*
X50590Y69914D01*
X50470Y69000D01*
X50590Y68086D01*
X50943Y67235D01*
X51399Y66640D01*
X51451Y66558D01*
Y30441D01*
X51399Y30360D01*
X50943Y29765D01*
X50590Y28914D01*
X50470Y28000D01*
X50590Y27086D01*
X50943Y26235D01*
X51504Y25504D01*
X52235Y24943D01*
X53086Y24590D01*
X54000Y24470D01*
X54914Y24590D01*
X55500Y24833D01*
X56086Y24590D01*
X57000Y24470D01*
X57914Y24590D01*
X58765Y24943D01*
X59496Y25504D01*
X60057Y26235D01*
X60410Y27086D01*
X60530Y28000D01*
X60410Y28914D01*
X60057Y29765D01*
X59496Y30496D01*
X58765Y31057D01*
X57914Y31410D01*
X57000Y31530D01*
X56925Y31520D01*
X56549Y31850D01*
Y66558D01*
X56601Y66640D01*
X57057Y67235D01*
X57410Y68086D01*
X57530Y69000D01*
X57410Y69914D01*
X57167Y70500D01*
X57410Y71086D01*
X57530Y72000D01*
X57410Y72914D01*
X57057Y73765D01*
X56601Y74360D01*
X56549Y74441D01*
Y110558D01*
X56601Y110640D01*
X57057Y111235D01*
X57410Y112086D01*
X57530Y113000D01*
X57410Y113914D01*
X57167Y114500D01*
X57410Y115086D01*
X57530Y116000D01*
X57410Y116914D01*
X57057Y117765D01*
X56601Y118360D01*
X56549Y118441D01*
Y160558D01*
X56601Y160640D01*
X57057Y161235D01*
X57410Y162086D01*
X57530Y163000D01*
X57410Y163914D01*
X57167Y164500D01*
X57410Y165086D01*
X57530Y166000D01*
X57410Y166914D01*
X57057Y167765D01*
X56601Y168360D01*
X56549Y168441D01*
Y204558D01*
X56601Y204640D01*
X57057Y205235D01*
X57410Y206086D01*
X57530Y207000D01*
X57410Y207914D01*
X57167Y208500D01*
X57410Y209086D01*
X57530Y210000D01*
X57410Y210914D01*
X57057Y211765D01*
X56496Y212496D01*
X55765Y213057D01*
X54914Y213410D01*
X54000Y213530D01*
D02*
G37*
G36*
X244000Y69003D02*
X242964Y68866D01*
X241999Y68467D01*
X241170Y67830D01*
X240533Y67001D01*
X240134Y66036D01*
X239997Y65000D01*
X240134Y63964D01*
X240533Y62999D01*
X240916Y62500D01*
X240533Y62001D01*
X240134Y61036D01*
X239997Y60000D01*
X240134Y58964D01*
X240533Y57999D01*
X240916Y57500D01*
X240533Y57001D01*
X240134Y56036D01*
X239997Y55000D01*
X240134Y53964D01*
X240533Y52999D01*
X240916Y52500D01*
X240533Y52001D01*
X240134Y51036D01*
X239997Y50000D01*
X240134Y48964D01*
X240533Y47999D01*
X240916Y47500D01*
X240533Y47001D01*
X240134Y46036D01*
X239997Y45000D01*
X240134Y43964D01*
X240533Y42999D01*
X240916Y42500D01*
X240533Y42001D01*
X240134Y41036D01*
X239997Y40000D01*
X240134Y38964D01*
X240533Y37999D01*
X240916Y37500D01*
X240533Y37001D01*
X240134Y36036D01*
X239997Y35000D01*
X240134Y33964D01*
X240533Y32999D01*
X240916Y32500D01*
X240533Y32001D01*
X240134Y31036D01*
X239997Y30000D01*
X240120Y29069D01*
X240032Y28969D01*
X240032D01*
Y21032D01*
X247969D01*
Y28969D01*
X247969D01*
X247880Y29069D01*
X248003Y30000D01*
X247866Y31036D01*
X247466Y32001D01*
X247084Y32500D01*
X247466Y32999D01*
X247866Y33964D01*
X248003Y35000D01*
X247866Y36036D01*
X247466Y37001D01*
X247084Y37500D01*
X247466Y37999D01*
X247866Y38964D01*
X248003Y40000D01*
X247866Y41036D01*
X247466Y42001D01*
X247084Y42500D01*
X247466Y42999D01*
X247866Y43964D01*
X248003Y45000D01*
X247866Y46036D01*
X247466Y47001D01*
X247084Y47500D01*
X247466Y47999D01*
X247866Y48964D01*
X248003Y50000D01*
X247866Y51036D01*
X247466Y52001D01*
X247084Y52500D01*
X247466Y52999D01*
X247866Y53964D01*
X248003Y55000D01*
X247866Y56036D01*
X247466Y57001D01*
X247084Y57500D01*
X247466Y57999D01*
X247866Y58964D01*
X248003Y60000D01*
X247866Y61036D01*
X247466Y62001D01*
X247084Y62500D01*
X247466Y62999D01*
X247866Y63964D01*
X248003Y65000D01*
X247866Y66036D01*
X247466Y67001D01*
X246830Y67830D01*
X246001Y68467D01*
X245036Y68866D01*
X244000Y69003D01*
D02*
G37*
G36*
X17000Y31003D02*
X15964Y30866D01*
X14999Y30466D01*
X14170Y29830D01*
X13533Y29001D01*
X13134Y28036D01*
X12997Y27000D01*
X13134Y25964D01*
X13533Y24999D01*
X13916Y24500D01*
X13533Y24001D01*
X13134Y23036D01*
X12997Y22000D01*
X13134Y20964D01*
X13533Y19999D01*
X13916Y19500D01*
X13533Y19001D01*
X13134Y18036D01*
X12997Y17000D01*
X13134Y15964D01*
X13533Y14999D01*
X13916Y14500D01*
X13533Y14001D01*
X13134Y13036D01*
X12997Y12000D01*
X13134Y10964D01*
X13533Y9999D01*
X14170Y9170D01*
X14999Y8534D01*
X15964Y8134D01*
X17000Y7997D01*
X18036Y8134D01*
X19001Y8534D01*
X19830Y9170D01*
X20467Y9999D01*
X20866Y10964D01*
X21003Y12000D01*
X20866Y13036D01*
X20467Y14001D01*
X20084Y14500D01*
X20467Y14999D01*
X20866Y15964D01*
X21003Y17000D01*
X20866Y18036D01*
X20467Y19001D01*
X20084Y19500D01*
X20467Y19999D01*
X20866Y20964D01*
X21003Y22000D01*
X20866Y23036D01*
X20467Y24001D01*
X20084Y24500D01*
X20467Y24999D01*
X20866Y25964D01*
X21003Y27000D01*
X20866Y28036D01*
X20467Y29001D01*
X19830Y29830D01*
X19001Y30466D01*
X18036Y30866D01*
X17000Y31003D01*
D02*
G37*
G36*
X206000Y220530D02*
X205086Y220410D01*
X204235Y220057D01*
X203504Y219496D01*
X202943Y218765D01*
X202590Y217914D01*
X202470Y217000D01*
X202590Y216086D01*
X202833Y215500D01*
X202590Y214914D01*
X202470Y214000D01*
X202590Y213086D01*
X202943Y212235D01*
X203399Y211640D01*
X203451Y211559D01*
Y175442D01*
X203399Y175360D01*
X202943Y174765D01*
X202590Y173914D01*
X202470Y173000D01*
X202590Y172086D01*
X202833Y171500D01*
X202590Y170914D01*
X202470Y170000D01*
X202590Y169086D01*
X202943Y168235D01*
X203399Y167640D01*
X203451Y167559D01*
Y125442D01*
X203399Y125360D01*
X202943Y124765D01*
X202590Y123914D01*
X202470Y123000D01*
X202590Y122086D01*
X202833Y121500D01*
X202590Y120914D01*
X202470Y120000D01*
X202590Y119086D01*
X202943Y118235D01*
X203399Y117640D01*
X203451Y117559D01*
Y81441D01*
X203399Y81360D01*
X202943Y80765D01*
X202590Y79914D01*
X202470Y79000D01*
X202590Y78086D01*
X202833Y77500D01*
X202590Y76914D01*
X202470Y76000D01*
X202590Y75086D01*
X202943Y74235D01*
X203399Y73640D01*
X203451Y73558D01*
Y31442D01*
X203399Y31360D01*
X202943Y30765D01*
X202808Y30439D01*
X202586Y30410D01*
X201735Y30057D01*
X201004Y29496D01*
X200443Y28765D01*
X200090Y27914D01*
X199970Y27000D01*
X200090Y26086D01*
X200443Y25235D01*
X201004Y24504D01*
X201735Y23943D01*
X202586Y23590D01*
X203500Y23470D01*
X204324Y23578D01*
X204549Y23385D01*
X204694Y23165D01*
X204590Y22914D01*
X204470Y22000D01*
X204590Y21086D01*
X204943Y20235D01*
X205504Y19504D01*
X206235Y18943D01*
X207086Y18590D01*
X208000Y18470D01*
X208075Y18480D01*
X208451Y18150D01*
Y9941D01*
X208399Y9860D01*
X207943Y9265D01*
X207590Y8414D01*
X207470Y7500D01*
X207590Y6586D01*
X207833Y6000D01*
X207590Y5414D01*
X207470Y4500D01*
X207590Y3586D01*
X207943Y2735D01*
X208504Y2004D01*
X209235Y1443D01*
X210086Y1090D01*
X211000Y970D01*
X211914Y1090D01*
X212765Y1443D01*
X213496Y2004D01*
X214057Y2735D01*
X214410Y3586D01*
X214530Y4500D01*
X214410Y5414D01*
X214167Y6000D01*
X214410Y6586D01*
X214530Y7500D01*
X214410Y8414D01*
X214057Y9265D01*
X213601Y9860D01*
X213549Y9941D01*
Y19558D01*
X213601Y19640D01*
X214057Y20235D01*
X214410Y21086D01*
X214530Y22000D01*
X214410Y22914D01*
X214057Y23765D01*
X213601Y24360D01*
X213549Y24442D01*
Y67558D01*
X213601Y67640D01*
X214057Y68235D01*
X214410Y69086D01*
X214530Y70000D01*
X214410Y70914D01*
X214167Y71500D01*
X214410Y72086D01*
X214530Y73000D01*
X214410Y73914D01*
X214057Y74765D01*
X213601Y75360D01*
X213549Y75441D01*
Y111558D01*
X213601Y111640D01*
X214057Y112235D01*
X214410Y113086D01*
X214530Y114000D01*
X214410Y114914D01*
X214167Y115500D01*
X214410Y116086D01*
X214530Y117000D01*
X214410Y117914D01*
X214057Y118765D01*
X213601Y119360D01*
X213549Y119441D01*
Y161558D01*
X213601Y161640D01*
X214057Y162235D01*
X214410Y163086D01*
X214530Y164000D01*
X214410Y164914D01*
X214167Y165500D01*
X214410Y166086D01*
X214530Y167000D01*
X214410Y167914D01*
X214057Y168765D01*
X213601Y169360D01*
X213549Y169441D01*
Y205558D01*
X213601Y205640D01*
X214057Y206235D01*
X214410Y207086D01*
X214530Y208000D01*
X214410Y208914D01*
X214167Y209500D01*
X214410Y210086D01*
X214530Y211000D01*
X214410Y211914D01*
X214057Y212765D01*
X213496Y213496D01*
X212765Y214057D01*
X211914Y214410D01*
X211000Y214530D01*
X210086Y214410D01*
X209887Y214327D01*
X209454Y214577D01*
X209410Y214914D01*
X209167Y215500D01*
X209410Y216086D01*
X209530Y217000D01*
X209410Y217914D01*
X209057Y218765D01*
X208496Y219496D01*
X207765Y220057D01*
X206914Y220410D01*
X206000Y220530D01*
D02*
G37*
%LPD*%
G36*
X139194Y200138D02*
X143357Y200187D01*
X143036Y200170D01*
X142776Y200128D01*
X142577Y200061D01*
X142439Y199968D01*
X142361Y199851D01*
X142344Y199708D01*
X142388Y199540D01*
X142492Y199346D01*
X142658Y199128D01*
X142884Y198884D01*
X140792Y197441D01*
X140264Y197950D01*
X139267Y198808D01*
X138796Y199155D01*
X138487Y199356D01*
X138450Y199265D01*
X138363Y198931D01*
X138300Y198540D01*
X138262Y198094D01*
X138250Y197592D01*
X135750Y197637D01*
X135738Y198185D01*
X135700Y198678D01*
X135638Y199116D01*
X135551Y199499D01*
X135439Y199828D01*
X135303Y200101D01*
X135141Y200320D01*
X134955Y200484D01*
X134744Y200594D01*
X134508Y200648D01*
X139194Y200138D01*
D02*
G37*
G36*
X86506Y217175D02*
X86522Y217039D01*
X86545Y216929D01*
X87050D01*
X86945Y216819D01*
X86852Y216707D01*
X86769Y216590D01*
X86715Y216500D01*
X86769Y216409D01*
X86852Y216293D01*
X86945Y216181D01*
X87050Y216071D01*
X86000Y215000D01*
X87050Y213929D01*
X86945Y213819D01*
X86852Y213707D01*
X86769Y213591D01*
X86698Y213471D01*
X86638Y213349D01*
X86588Y213223D01*
X86550Y213093D01*
X86522Y212961D01*
X86506Y212825D01*
X86500Y212686D01*
X85500D01*
X85495Y212825D01*
X85478Y212961D01*
X85451Y213093D01*
X85412Y213223D01*
X85362Y213349D01*
X85302Y213471D01*
X85230Y213591D01*
X85148Y213707D01*
X85054Y213819D01*
X84950Y213929D01*
X86000Y215000D01*
X84950Y216071D01*
X85054Y216181D01*
X85148Y216293D01*
X85230Y216409D01*
X85285Y216500D01*
X85230Y216590D01*
X85148Y216707D01*
X85054Y216819D01*
X84950Y216929D01*
X85455D01*
X85478Y217039D01*
X85495Y217175D01*
X85500Y217314D01*
X86500D01*
X86506Y217175D01*
D02*
G37*
G36*
X81506Y213175D02*
X81522Y213039D01*
X81545Y212929D01*
X82050D01*
X81946Y212819D01*
X81852Y212707D01*
X81770Y212591D01*
X81715Y212500D01*
X81770Y212409D01*
X81852Y212293D01*
X81946Y212181D01*
X82050Y212071D01*
X81545D01*
X81522Y211961D01*
X81506Y211825D01*
X81500Y211686D01*
X80500D01*
X80494Y211825D01*
X80478Y211961D01*
X80455Y212071D01*
X79950D01*
X80054Y212181D01*
X80148Y212293D01*
X80230Y212409D01*
X80285Y212500D01*
X80230Y212591D01*
X80148Y212707D01*
X80054Y212819D01*
X79950Y212929D01*
X80455D01*
X80478Y213039D01*
X80494Y213175D01*
X80500Y213314D01*
X81500D01*
X81506Y213175D01*
D02*
G37*
G36*
X82281Y210199D02*
X82170Y209920D01*
X82125Y209783D01*
X82055Y209511D01*
X82031Y209377D01*
X82003Y209113D01*
X82000Y208982D01*
X81000Y208600D01*
X80994Y208745D01*
X80975Y208880D01*
X80943Y209007D01*
X80899Y209124D01*
X80842Y209233D01*
X80772Y209332D01*
X80690Y209423D01*
X80595Y209504D01*
X80487Y209577D01*
X80367Y209640D01*
X82347Y210340D01*
X82281Y210199D01*
D02*
G37*
G36*
X178506Y209175D02*
X178522Y209039D01*
X178545Y208929D01*
X179050D01*
X178946Y208819D01*
X178852Y208707D01*
X178770Y208591D01*
X178715Y208500D01*
X178770Y208410D01*
X178852Y208293D01*
X178946Y208181D01*
X179050Y208071D01*
X178000Y207000D01*
X179050Y205929D01*
X178946Y205819D01*
X178852Y205707D01*
X178770Y205591D01*
X178698Y205471D01*
X178638Y205348D01*
X178588Y205223D01*
X178550Y205093D01*
X178522Y204961D01*
X178506Y204825D01*
X178500Y204686D01*
X177500D01*
X177495Y204825D01*
X177478Y204961D01*
X177451Y205093D01*
X177412Y205223D01*
X177363Y205348D01*
X177302Y205471D01*
X177231Y205591D01*
X177148Y205707D01*
X177055Y205819D01*
X176950Y205929D01*
X178000Y207000D01*
X176950Y208071D01*
X177055Y208181D01*
X177148Y208293D01*
X177231Y208410D01*
X177285Y208500D01*
X177231Y208591D01*
X177148Y208707D01*
X177055Y208819D01*
X176950Y208929D01*
X177455D01*
X177478Y209039D01*
X177495Y209175D01*
X177500Y209314D01*
X178500D01*
X178506Y209175D01*
D02*
G37*
G36*
X86506Y176175D02*
X86522Y176039D01*
X86550Y175907D01*
X86588Y175777D01*
X86638Y175652D01*
X86698Y175529D01*
X86769Y175409D01*
X86852Y175294D01*
X86945Y175181D01*
X87050Y175071D01*
X86000Y174000D01*
X87050Y172929D01*
X86945Y172819D01*
X86852Y172706D01*
X86769Y172590D01*
X86715Y172500D01*
X86769Y172409D01*
X86852Y172293D01*
X86945Y172181D01*
X87050Y172071D01*
X86000Y171000D01*
X87050Y169929D01*
X86945Y169819D01*
X86852Y169706D01*
X86769Y169590D01*
X86698Y169471D01*
X86638Y169349D01*
X86588Y169222D01*
X86550Y169093D01*
X86522Y168961D01*
X86506Y168825D01*
X86500Y168686D01*
X85500D01*
X85495Y168825D01*
X85478Y168961D01*
X85451Y169093D01*
X85412Y169222D01*
X85362Y169349D01*
X85302Y169471D01*
X85230Y169590D01*
X85148Y169706D01*
X85054Y169819D01*
X84950Y169929D01*
X86000Y171000D01*
X84950Y172071D01*
X85054Y172181D01*
X85148Y172293D01*
X85230Y172409D01*
X85285Y172500D01*
X85230Y172590D01*
X85148Y172706D01*
X85054Y172819D01*
X84950Y172929D01*
X86000Y174000D01*
X84950Y175071D01*
X85054Y175181D01*
X85148Y175294D01*
X85230Y175409D01*
X85302Y175529D01*
X85362Y175652D01*
X85412Y175777D01*
X85451Y175907D01*
X85478Y176039D01*
X85495Y176175D01*
X85500Y176314D01*
X86500D01*
X86506Y176175D01*
D02*
G37*
G36*
X82000Y169018D02*
X82003Y168887D01*
X82031Y168623D01*
X82055Y168489D01*
X82125Y168217D01*
X82170Y168080D01*
X82281Y167801D01*
X82347Y167660D01*
X81700Y167000D01*
X80367Y168360D01*
X80487Y168423D01*
X80595Y168496D01*
X80690Y168577D01*
X80772Y168668D01*
X80842Y168767D01*
X80899Y168876D01*
X80943Y168993D01*
X80975Y169120D01*
X80994Y169255D01*
X81000Y169400D01*
X82000Y169018D01*
D02*
G37*
G36*
X82347Y166340D02*
X82281Y166199D01*
X82170Y165920D01*
X82125Y165783D01*
X82055Y165511D01*
X82054Y165500D01*
X82055Y165489D01*
X82125Y165217D01*
X82170Y165080D01*
X82281Y164801D01*
X82347Y164660D01*
X81700Y164000D01*
X81081Y164631D01*
X81000Y164600D01*
X80995Y164720D01*
X80367Y165360D01*
X80487Y165423D01*
X80595Y165496D01*
X80600Y165500D01*
X80595Y165504D01*
X80487Y165577D01*
X80367Y165640D01*
X80995Y166280D01*
X81000Y166400D01*
X81081Y166369D01*
X81700Y167000D01*
X82347Y166340D01*
D02*
G37*
G36*
Y163340D02*
X82281Y163199D01*
X82170Y162920D01*
X82125Y162783D01*
X82055Y162511D01*
X82031Y162377D01*
X82003Y162112D01*
X82000Y161982D01*
X81000Y161600D01*
X80994Y161745D01*
X80975Y161880D01*
X80943Y162007D01*
X80899Y162124D01*
X80842Y162233D01*
X80772Y162332D01*
X80690Y162423D01*
X80595Y162504D01*
X80487Y162577D01*
X80367Y162640D01*
X81700Y164000D01*
X82347Y163340D01*
D02*
G37*
G36*
X178506Y168175D02*
X178522Y168039D01*
X178550Y167907D01*
X178588Y167778D01*
X178638Y167651D01*
X178698Y167529D01*
X178770Y167410D01*
X178852Y167294D01*
X178946Y167181D01*
X179050Y167071D01*
X178000Y166000D01*
X179050Y164929D01*
X178946Y164819D01*
X178852Y164707D01*
X178770Y164591D01*
X178715Y164500D01*
X178770Y164409D01*
X178852Y164294D01*
X178946Y164181D01*
X179050Y164071D01*
X178000Y163000D01*
X179050Y161929D01*
X178946Y161819D01*
X178852Y161706D01*
X178770Y161591D01*
X178698Y161471D01*
X178638Y161348D01*
X178588Y161223D01*
X178550Y161093D01*
X178522Y160961D01*
X178506Y160825D01*
X178500Y160686D01*
X177500D01*
X177495Y160825D01*
X177478Y160961D01*
X177451Y161093D01*
X177412Y161223D01*
X177363Y161348D01*
X177302Y161471D01*
X177231Y161591D01*
X177148Y161706D01*
X177055Y161819D01*
X176950Y161929D01*
X178000Y163000D01*
X176950Y164071D01*
X177055Y164181D01*
X177148Y164294D01*
X177231Y164409D01*
X177285Y164500D01*
X177231Y164591D01*
X177148Y164707D01*
X177055Y164819D01*
X176950Y164929D01*
X178000Y166000D01*
X176950Y167071D01*
X177055Y167181D01*
X177148Y167294D01*
X177231Y167410D01*
X177302Y167529D01*
X177363Y167651D01*
X177412Y167778D01*
X177451Y167907D01*
X177478Y168039D01*
X177495Y168175D01*
X177500Y168314D01*
X178500D01*
X178506Y168175D01*
D02*
G37*
G36*
X82000Y122018D02*
X82003Y121888D01*
X82031Y121623D01*
X82055Y121489D01*
X82125Y121217D01*
X82170Y121080D01*
X82281Y120801D01*
X82347Y120660D01*
X81700Y120000D01*
X80367Y121360D01*
X80487Y121423D01*
X80595Y121496D01*
X80690Y121577D01*
X80772Y121668D01*
X80842Y121767D01*
X80899Y121876D01*
X80943Y121993D01*
X80975Y122120D01*
X80994Y122255D01*
X81000Y122400D01*
X82000Y122018D01*
D02*
G37*
G36*
X82347Y119340D02*
X82281Y119199D01*
X82170Y118920D01*
X82125Y118783D01*
X82055Y118511D01*
X82054Y118500D01*
X82055Y118489D01*
X82125Y118217D01*
X82170Y118080D01*
X82281Y117801D01*
X82347Y117660D01*
X81700Y117000D01*
X81081Y117631D01*
X81000Y117600D01*
X80995Y117720D01*
X80367Y118360D01*
X80487Y118423D01*
X80595Y118496D01*
X80600Y118500D01*
X80595Y118504D01*
X80487Y118577D01*
X80367Y118640D01*
X80995Y119280D01*
X81000Y119400D01*
X81081Y119369D01*
X81700Y120000D01*
X82347Y119340D01*
D02*
G37*
G36*
X86506Y126175D02*
X86522Y126039D01*
X86550Y125907D01*
X86588Y125777D01*
X86638Y125652D01*
X86698Y125529D01*
X86769Y125409D01*
X86852Y125294D01*
X86945Y125181D01*
X87050Y125071D01*
X86000Y124000D01*
X87050Y122929D01*
X86945Y122819D01*
X86852Y122706D01*
X86769Y122590D01*
X86715Y122500D01*
X86769Y122409D01*
X86852Y122293D01*
X86945Y122181D01*
X87050Y122071D01*
X86000Y121000D01*
X87050Y119929D01*
X86945Y119819D01*
X86852Y119706D01*
X86769Y119590D01*
X86698Y119471D01*
X86638Y119349D01*
X86588Y119222D01*
X86550Y119093D01*
X86522Y118961D01*
X86506Y118825D01*
X86500Y118686D01*
X85500D01*
X85495Y118825D01*
X85478Y118961D01*
X85451Y119093D01*
X85412Y119222D01*
X85362Y119349D01*
X85302Y119471D01*
X85230Y119590D01*
X85148Y119706D01*
X85054Y119819D01*
X84950Y119929D01*
X86000Y121000D01*
X84950Y122071D01*
X85054Y122181D01*
X85148Y122293D01*
X85230Y122409D01*
X85285Y122500D01*
X85230Y122590D01*
X85148Y122706D01*
X85054Y122819D01*
X84950Y122929D01*
X86000Y124000D01*
X84950Y125071D01*
X85054Y125181D01*
X85148Y125294D01*
X85230Y125409D01*
X85302Y125529D01*
X85362Y125652D01*
X85412Y125777D01*
X85451Y125907D01*
X85478Y126039D01*
X85495Y126175D01*
X85500Y126314D01*
X86500D01*
X86506Y126175D01*
D02*
G37*
G36*
X82347Y116340D02*
X82281Y116199D01*
X82170Y115920D01*
X82125Y115783D01*
X82055Y115511D01*
X82031Y115377D01*
X82003Y115112D01*
X82000Y114982D01*
X81000Y114600D01*
X80994Y114745D01*
X80975Y114880D01*
X80943Y115007D01*
X80899Y115124D01*
X80842Y115233D01*
X80772Y115332D01*
X80690Y115423D01*
X80595Y115504D01*
X80487Y115577D01*
X80367Y115640D01*
X81700Y117000D01*
X82347Y116340D01*
D02*
G37*
G36*
X178506Y118175D02*
X178522Y118039D01*
X178550Y117907D01*
X178588Y117778D01*
X178638Y117651D01*
X178698Y117529D01*
X178770Y117410D01*
X178852Y117294D01*
X178946Y117181D01*
X179050Y117071D01*
X178000Y116000D01*
X179050Y114929D01*
X178946Y114819D01*
X178852Y114707D01*
X178770Y114591D01*
X178715Y114500D01*
X178770Y114409D01*
X178852Y114294D01*
X178946Y114181D01*
X179050Y114071D01*
X178000Y113000D01*
X179050Y111929D01*
X178946Y111819D01*
X178852Y111706D01*
X178770Y111591D01*
X178698Y111471D01*
X178638Y111348D01*
X178588Y111223D01*
X178550Y111093D01*
X178522Y110961D01*
X178506Y110825D01*
X178500Y110686D01*
X177500D01*
X177495Y110825D01*
X177478Y110961D01*
X177451Y111093D01*
X177412Y111223D01*
X177363Y111348D01*
X177302Y111471D01*
X177231Y111591D01*
X177148Y111706D01*
X177055Y111819D01*
X176950Y111929D01*
X178000Y113000D01*
X176950Y114071D01*
X177055Y114181D01*
X177148Y114294D01*
X177231Y114409D01*
X177285Y114500D01*
X177231Y114591D01*
X177148Y114707D01*
X177055Y114819D01*
X176950Y114929D01*
X178000Y116000D01*
X176950Y117071D01*
X177055Y117181D01*
X177148Y117294D01*
X177231Y117410D01*
X177302Y117529D01*
X177363Y117651D01*
X177412Y117778D01*
X177451Y117907D01*
X177478Y118039D01*
X177495Y118175D01*
X177500Y118314D01*
X178500D01*
X178506Y118175D01*
D02*
G37*
G36*
X86506Y82175D02*
X86522Y82039D01*
X86550Y81907D01*
X86588Y81778D01*
X86638Y81652D01*
X86698Y81529D01*
X86769Y81410D01*
X86852Y81293D01*
X86945Y81181D01*
X87050Y81071D01*
X86000Y80000D01*
X87050Y78929D01*
X86945Y78819D01*
X86852Y78707D01*
X86769Y78591D01*
X86715Y78500D01*
X86769Y78409D01*
X86852Y78293D01*
X86945Y78181D01*
X87050Y78071D01*
X86000Y77000D01*
X87050Y75929D01*
X86945Y75819D01*
X86852Y75707D01*
X86769Y75590D01*
X86698Y75471D01*
X86638Y75349D01*
X86588Y75222D01*
X86550Y75093D01*
X86522Y74961D01*
X86506Y74825D01*
X86500Y74686D01*
X85500D01*
X85495Y74825D01*
X85478Y74961D01*
X85451Y75093D01*
X85412Y75222D01*
X85362Y75349D01*
X85302Y75471D01*
X85230Y75590D01*
X85148Y75707D01*
X85054Y75819D01*
X84950Y75929D01*
X86000Y77000D01*
X84950Y78071D01*
X85054Y78181D01*
X85148Y78293D01*
X85230Y78409D01*
X85285Y78500D01*
X85230Y78591D01*
X85148Y78707D01*
X85054Y78819D01*
X84950Y78929D01*
X86000Y80000D01*
X84950Y81071D01*
X85054Y81181D01*
X85148Y81293D01*
X85230Y81410D01*
X85302Y81529D01*
X85362Y81652D01*
X85412Y81778D01*
X85451Y81907D01*
X85478Y82039D01*
X85495Y82175D01*
X85500Y82314D01*
X86500D01*
X86506Y82175D01*
D02*
G37*
G36*
X82000Y75018D02*
X82003Y74888D01*
X82031Y74623D01*
X82055Y74489D01*
X82125Y74217D01*
X82170Y74080D01*
X82281Y73801D01*
X82347Y73660D01*
X81700Y73000D01*
X80367Y74360D01*
X80487Y74423D01*
X80595Y74496D01*
X80690Y74577D01*
X80772Y74668D01*
X80842Y74767D01*
X80899Y74876D01*
X80943Y74993D01*
X80975Y75120D01*
X80994Y75255D01*
X81000Y75400D01*
X82000Y75018D01*
D02*
G37*
G36*
X82347Y72340D02*
X82281Y72199D01*
X82170Y71920D01*
X82125Y71783D01*
X82055Y71511D01*
X82054Y71500D01*
X82055Y71489D01*
X82125Y71217D01*
X82170Y71080D01*
X82281Y70801D01*
X82347Y70660D01*
X81700Y70000D01*
X81081Y70631D01*
X81000Y70600D01*
X80995Y70720D01*
X80367Y71360D01*
X80487Y71423D01*
X80595Y71496D01*
X80600Y71500D01*
X80595Y71504D01*
X80487Y71577D01*
X80367Y71640D01*
X80995Y72280D01*
X81000Y72400D01*
X81081Y72369D01*
X81700Y73000D01*
X82347Y72340D01*
D02*
G37*
G36*
Y69340D02*
X82281Y69199D01*
X82170Y68920D01*
X82125Y68783D01*
X82055Y68511D01*
X82031Y68377D01*
X82003Y68112D01*
X82000Y67982D01*
X81000Y67600D01*
X80994Y67745D01*
X80975Y67880D01*
X80943Y68007D01*
X80899Y68124D01*
X80842Y68233D01*
X80772Y68332D01*
X80690Y68423D01*
X80595Y68504D01*
X80487Y68577D01*
X80367Y68640D01*
X81700Y70000D01*
X82347Y69340D01*
D02*
G37*
G36*
X178506Y74175D02*
X178522Y74039D01*
X178550Y73907D01*
X178588Y73778D01*
X178638Y73651D01*
X178698Y73529D01*
X178770Y73409D01*
X178852Y73293D01*
X178946Y73181D01*
X179050Y73071D01*
X178000Y72000D01*
X179050Y70929D01*
X178946Y70819D01*
X178852Y70707D01*
X178770Y70591D01*
X178715Y70500D01*
X178770Y70410D01*
X178852Y70293D01*
X178946Y70181D01*
X179050Y70071D01*
X178000Y69000D01*
X179050Y67929D01*
X178946Y67819D01*
X178852Y67707D01*
X178770Y67590D01*
X178698Y67471D01*
X178638Y67348D01*
X178588Y67222D01*
X178550Y67093D01*
X178522Y66961D01*
X178506Y66825D01*
X178500Y66686D01*
X177500D01*
X177495Y66825D01*
X177478Y66961D01*
X177451Y67093D01*
X177412Y67222D01*
X177363Y67348D01*
X177302Y67471D01*
X177231Y67590D01*
X177148Y67707D01*
X177055Y67819D01*
X176950Y67929D01*
X178000Y69000D01*
X176950Y70071D01*
X177055Y70181D01*
X177148Y70293D01*
X177231Y70410D01*
X177285Y70500D01*
X177231Y70591D01*
X177148Y70707D01*
X177055Y70819D01*
X176950Y70929D01*
X178000Y72000D01*
X176950Y73071D01*
X177055Y73181D01*
X177148Y73293D01*
X177231Y73409D01*
X177302Y73529D01*
X177363Y73651D01*
X177412Y73778D01*
X177451Y73907D01*
X177478Y74039D01*
X177495Y74175D01*
X177500Y74314D01*
X178500D01*
X178506Y74175D01*
D02*
G37*
G36*
X172929Y32545D02*
X173039Y32522D01*
X173175Y32506D01*
X173314Y32500D01*
Y31500D01*
X173175Y31495D01*
X173039Y31478D01*
X172929Y31455D01*
Y30950D01*
X172819Y31054D01*
X172706Y31148D01*
X172590Y31231D01*
X172500Y31285D01*
X172409Y31231D01*
X172293Y31148D01*
X172181Y31054D01*
X172071Y30950D01*
X171000Y32000D01*
X172071Y33050D01*
X172181Y32945D01*
X172293Y32852D01*
X172409Y32770D01*
X172500Y32715D01*
X172590Y32770D01*
X172706Y32852D01*
X172819Y32945D01*
X172929Y33050D01*
Y32545D01*
D02*
G37*
G36*
X171000Y32000D02*
X169929Y30950D01*
X169819Y31054D01*
X169706Y31148D01*
X169590Y31231D01*
X169471Y31302D01*
X169349Y31363D01*
X169222Y31412D01*
X169093Y31451D01*
X168961Y31478D01*
X168825Y31495D01*
X168686Y31500D01*
Y32500D01*
X168825Y32506D01*
X168961Y32522D01*
X169093Y32550D01*
X169222Y32588D01*
X169349Y32638D01*
X169471Y32698D01*
X169590Y32770D01*
X169706Y32852D01*
X169819Y32945D01*
X169929Y33050D01*
X171000Y32000D01*
D02*
G37*
G36*
X163181Y32945D02*
X163294Y32852D01*
X163409Y32770D01*
X163529Y32698D01*
X163652Y32638D01*
X163777Y32588D01*
X163907Y32550D01*
X164039Y32522D01*
X164175Y32506D01*
X164314Y32500D01*
Y31500D01*
X164175Y31495D01*
X164039Y31478D01*
X163907Y31451D01*
X163777Y31412D01*
X163652Y31363D01*
X163529Y31302D01*
X163409Y31231D01*
X163294Y31148D01*
X163181Y31054D01*
X163071Y30950D01*
Y33050D01*
X163181Y32945D01*
D02*
G37*
G36*
X156429Y30950D02*
X156319Y31054D01*
X156207Y31148D01*
X156090Y31231D01*
X155971Y31302D01*
X155849Y31363D01*
X155722Y31412D01*
X155593Y31451D01*
X155461Y31478D01*
X155325Y31495D01*
X155186Y31500D01*
Y32500D01*
X155325Y32506D01*
X155461Y32522D01*
X155593Y32550D01*
X155722Y32588D01*
X155849Y32638D01*
X155971Y32698D01*
X156090Y32770D01*
X156207Y32852D01*
X156319Y32945D01*
X156429Y33050D01*
Y30950D01*
D02*
G37*
G36*
X178506Y11175D02*
X178522Y11039D01*
X178550Y10907D01*
X178588Y10778D01*
X178638Y10651D01*
X178698Y10529D01*
X178770Y10409D01*
X178852Y10293D01*
X178946Y10181D01*
X179050Y10071D01*
X176950D01*
X177055Y10181D01*
X177148Y10293D01*
X177231Y10409D01*
X177302Y10529D01*
X177363Y10651D01*
X177412Y10778D01*
X177451Y10907D01*
X177478Y11039D01*
X177495Y11175D01*
X177500Y11314D01*
X178500D01*
X178506Y11175D01*
D02*
G37*
G36*
X176929Y9545D02*
X177039Y9522D01*
X177175Y9505D01*
X177314Y9500D01*
Y8500D01*
X177175Y8495D01*
X177039Y8478D01*
X176929Y8455D01*
Y7950D01*
X176819Y8055D01*
X176707Y8148D01*
X176591Y8230D01*
X176500Y8285D01*
X176409Y8230D01*
X176294Y8148D01*
X176181Y8055D01*
X176071Y7950D01*
Y8455D01*
X175961Y8478D01*
X175825Y8495D01*
X175686Y8500D01*
Y9500D01*
X175825Y9505D01*
X175961Y9522D01*
X176071Y9545D01*
Y10050D01*
X176181Y9945D01*
X176294Y9852D01*
X176409Y9770D01*
X176500Y9715D01*
X176591Y9770D01*
X176707Y9852D01*
X176819Y9945D01*
X176929Y10050D01*
Y9545D01*
D02*
G37*
G36*
X82006Y9675D02*
X82022Y9539D01*
X82050Y9407D01*
X82088Y9278D01*
X82138Y9151D01*
X82198Y9029D01*
X82270Y8909D01*
X82352Y8793D01*
X82446Y8681D01*
X82550Y8571D01*
X81500Y7500D01*
X82550Y6429D01*
X82446Y6319D01*
X82352Y6207D01*
X82270Y6090D01*
X82215Y6000D01*
X82270Y5909D01*
X82352Y5793D01*
X82446Y5681D01*
X82550Y5571D01*
X82045D01*
X82022Y5461D01*
X82006Y5325D01*
X82000Y5186D01*
X81000D01*
X80994Y5325D01*
X80978Y5461D01*
X80955Y5571D01*
X80450D01*
X80554Y5681D01*
X80648Y5793D01*
X80730Y5909D01*
X80785Y6000D01*
X80730Y6090D01*
X80648Y6207D01*
X80554Y6319D01*
X80450Y6429D01*
X81500Y7500D01*
X80450Y8571D01*
X80554Y8681D01*
X80648Y8793D01*
X80730Y8909D01*
X80802Y9029D01*
X80862Y9151D01*
X80912Y9278D01*
X80950Y9407D01*
X80978Y9539D01*
X80994Y9675D01*
X81000Y9814D01*
X82000D01*
X82006Y9675D01*
D02*
G37*
G36*
X54505Y209175D02*
X54522Y209039D01*
X54545Y208929D01*
X55050D01*
X54945Y208819D01*
X54852Y208707D01*
X54769Y208591D01*
X54715Y208500D01*
X54769Y208410D01*
X54852Y208293D01*
X54945Y208181D01*
X55050Y208071D01*
X54000Y207000D01*
X55050Y205929D01*
X54945Y205819D01*
X54852Y205707D01*
X54769Y205591D01*
X54698Y205471D01*
X54637Y205348D01*
X54588Y205223D01*
X54549Y205093D01*
X54522Y204961D01*
X54505Y204825D01*
X54500Y204686D01*
X53500D01*
X53495Y204825D01*
X53478Y204961D01*
X53451Y205093D01*
X53412Y205223D01*
X53363Y205348D01*
X53302Y205471D01*
X53231Y205591D01*
X53148Y205707D01*
X53054Y205819D01*
X52950Y205929D01*
X54000Y207000D01*
X52950Y208071D01*
X53054Y208181D01*
X53148Y208293D01*
X53231Y208410D01*
X53285Y208500D01*
X53231Y208591D01*
X53148Y208707D01*
X53054Y208819D01*
X52950Y208929D01*
X53455D01*
X53478Y209039D01*
X53495Y209175D01*
X53500Y209314D01*
X54500D01*
X54505Y209175D01*
D02*
G37*
G36*
Y168175D02*
X54522Y168039D01*
X54549Y167907D01*
X54588Y167778D01*
X54637Y167651D01*
X54698Y167529D01*
X54769Y167410D01*
X54852Y167294D01*
X54945Y167181D01*
X55050Y167071D01*
X54000Y166000D01*
X55050Y164929D01*
X54945Y164819D01*
X54852Y164707D01*
X54769Y164591D01*
X54715Y164500D01*
X54769Y164409D01*
X54852Y164294D01*
X54945Y164181D01*
X55050Y164071D01*
X54000Y163000D01*
X55050Y161929D01*
X54945Y161819D01*
X54852Y161706D01*
X54769Y161591D01*
X54698Y161471D01*
X54637Y161348D01*
X54588Y161223D01*
X54549Y161093D01*
X54522Y160961D01*
X54505Y160825D01*
X54500Y160686D01*
X53500D01*
X53495Y160825D01*
X53478Y160961D01*
X53451Y161093D01*
X53412Y161223D01*
X53363Y161348D01*
X53302Y161471D01*
X53231Y161591D01*
X53148Y161706D01*
X53054Y161819D01*
X52950Y161929D01*
X54000Y163000D01*
X52950Y164071D01*
X53054Y164181D01*
X53148Y164294D01*
X53231Y164409D01*
X53285Y164500D01*
X53231Y164591D01*
X53148Y164707D01*
X53054Y164819D01*
X52950Y164929D01*
X54000Y166000D01*
X52950Y167071D01*
X53054Y167181D01*
X53148Y167294D01*
X53231Y167410D01*
X53302Y167529D01*
X53363Y167651D01*
X53412Y167778D01*
X53451Y167907D01*
X53478Y168039D01*
X53495Y168175D01*
X53500Y168314D01*
X54500D01*
X54505Y168175D01*
D02*
G37*
G36*
Y118175D02*
X54522Y118039D01*
X54549Y117907D01*
X54588Y117778D01*
X54637Y117651D01*
X54698Y117529D01*
X54769Y117410D01*
X54852Y117294D01*
X54945Y117181D01*
X55050Y117071D01*
X54000Y116000D01*
X55050Y114929D01*
X54945Y114819D01*
X54852Y114707D01*
X54769Y114591D01*
X54715Y114500D01*
X54769Y114409D01*
X54852Y114294D01*
X54945Y114181D01*
X55050Y114071D01*
X54000Y113000D01*
X55050Y111929D01*
X54945Y111819D01*
X54852Y111706D01*
X54769Y111591D01*
X54698Y111471D01*
X54637Y111348D01*
X54588Y111223D01*
X54549Y111093D01*
X54522Y110961D01*
X54505Y110825D01*
X54500Y110686D01*
X53500D01*
X53495Y110825D01*
X53478Y110961D01*
X53451Y111093D01*
X53412Y111223D01*
X53363Y111348D01*
X53302Y111471D01*
X53231Y111591D01*
X53148Y111706D01*
X53054Y111819D01*
X52950Y111929D01*
X54000Y113000D01*
X52950Y114071D01*
X53054Y114181D01*
X53148Y114294D01*
X53231Y114409D01*
X53285Y114500D01*
X53231Y114591D01*
X53148Y114707D01*
X53054Y114819D01*
X52950Y114929D01*
X54000Y116000D01*
X52950Y117071D01*
X53054Y117181D01*
X53148Y117294D01*
X53231Y117410D01*
X53302Y117529D01*
X53363Y117651D01*
X53412Y117778D01*
X53451Y117907D01*
X53478Y118039D01*
X53495Y118175D01*
X53500Y118314D01*
X54500D01*
X54505Y118175D01*
D02*
G37*
G36*
Y74175D02*
X54522Y74039D01*
X54549Y73907D01*
X54588Y73778D01*
X54637Y73651D01*
X54698Y73529D01*
X54769Y73409D01*
X54852Y73293D01*
X54945Y73181D01*
X55050Y73071D01*
X54000Y72000D01*
X55050Y70929D01*
X54945Y70819D01*
X54852Y70707D01*
X54769Y70591D01*
X54715Y70500D01*
X54769Y70410D01*
X54852Y70293D01*
X54945Y70181D01*
X55050Y70071D01*
X54000Y69000D01*
X55050Y67929D01*
X54945Y67819D01*
X54852Y67707D01*
X54769Y67590D01*
X54698Y67471D01*
X54637Y67348D01*
X54588Y67222D01*
X54549Y67093D01*
X54522Y66961D01*
X54505Y66825D01*
X54500Y66686D01*
X53500D01*
X53495Y66825D01*
X53478Y66961D01*
X53451Y67093D01*
X53412Y67222D01*
X53363Y67348D01*
X53302Y67471D01*
X53231Y67590D01*
X53148Y67707D01*
X53054Y67819D01*
X52950Y67929D01*
X54000Y69000D01*
X52950Y70071D01*
X53054Y70181D01*
X53148Y70293D01*
X53231Y70410D01*
X53285Y70500D01*
X53231Y70591D01*
X53148Y70707D01*
X53054Y70819D01*
X52950Y70929D01*
X54000Y72000D01*
X52950Y73071D01*
X53054Y73181D01*
X53148Y73293D01*
X53231Y73409D01*
X53302Y73529D01*
X53363Y73651D01*
X53412Y73778D01*
X53451Y73907D01*
X53478Y74039D01*
X53495Y74175D01*
X53500Y74314D01*
X54500D01*
X54505Y74175D01*
D02*
G37*
G36*
Y30175D02*
X54522Y30039D01*
X54549Y29907D01*
X54588Y29778D01*
X54637Y29651D01*
X54698Y29529D01*
X54769Y29410D01*
X54852Y29294D01*
X54945Y29181D01*
X55050Y29071D01*
X52950D01*
X53054Y29181D01*
X53148Y29294D01*
X53231Y29410D01*
X53302Y29529D01*
X53363Y29651D01*
X53412Y29778D01*
X53451Y29907D01*
X53478Y30039D01*
X53495Y30175D01*
X53500Y30314D01*
X54500D01*
X54505Y30175D01*
D02*
G37*
G36*
X55929Y28545D02*
X56039Y28522D01*
X56175Y28506D01*
X56314Y28500D01*
Y27500D01*
X56175Y27494D01*
X56039Y27478D01*
X55929Y27455D01*
Y26950D01*
X55819Y27055D01*
X55707Y27148D01*
X55590Y27231D01*
X55500Y27285D01*
X55409Y27231D01*
X55293Y27148D01*
X55181Y27055D01*
X55071Y26950D01*
Y27455D01*
X54961Y27478D01*
X54825Y27494D01*
X54686Y27500D01*
Y28500D01*
X54825Y28506D01*
X54961Y28522D01*
X55071Y28545D01*
Y29050D01*
X55181Y28945D01*
X55293Y28852D01*
X55409Y28769D01*
X55500Y28715D01*
X55590Y28769D01*
X55707Y28852D01*
X55819Y28945D01*
X55929Y29050D01*
Y28545D01*
D02*
G37*
G36*
X206505Y216175D02*
X206522Y216039D01*
X206545Y215929D01*
X207050D01*
X206945Y215819D01*
X206852Y215707D01*
X206769Y215591D01*
X206715Y215500D01*
X206769Y215409D01*
X206852Y215293D01*
X206945Y215181D01*
X207050Y215071D01*
X206545D01*
X206522Y214961D01*
X206505Y214825D01*
X206500Y214686D01*
X205500D01*
X205494Y214825D01*
X205478Y214961D01*
X205455Y215071D01*
X204950D01*
X205054Y215181D01*
X205148Y215293D01*
X205230Y215409D01*
X205285Y215500D01*
X205230Y215591D01*
X205148Y215707D01*
X205054Y215819D01*
X204950Y215929D01*
X205455D01*
X205478Y216039D01*
X205494Y216175D01*
X205500Y216314D01*
X206500D01*
X206505Y216175D01*
D02*
G37*
G36*
X206945Y212819D02*
X206852Y212707D01*
X206769Y212591D01*
X206698Y212471D01*
X206638Y212349D01*
X206588Y212223D01*
X206550Y212093D01*
X206522Y211961D01*
X206505Y211825D01*
X206500Y211686D01*
X205500D01*
X205494Y211825D01*
X205478Y211961D01*
X205451Y212093D01*
X205412Y212223D01*
X205363Y212349D01*
X205302Y212471D01*
X205230Y212591D01*
X205148Y212707D01*
X205054Y212819D01*
X204950Y212929D01*
X207050D01*
X206945Y212819D01*
D02*
G37*
G36*
X211506Y210175D02*
X211522Y210039D01*
X211545Y209929D01*
X212050D01*
X211946Y209819D01*
X211852Y209707D01*
X211770Y209591D01*
X211715Y209500D01*
X211770Y209409D01*
X211852Y209293D01*
X211946Y209181D01*
X212050Y209071D01*
X211000Y208000D01*
X212050Y206929D01*
X211946Y206819D01*
X211852Y206707D01*
X211770Y206591D01*
X211698Y206471D01*
X211637Y206348D01*
X211588Y206223D01*
X211549Y206093D01*
X211522Y205961D01*
X211506Y205825D01*
X211500Y205686D01*
X210500D01*
X210494Y205825D01*
X210478Y205961D01*
X210451Y206093D01*
X210412Y206223D01*
X210363Y206348D01*
X210302Y206471D01*
X210230Y206591D01*
X210148Y206707D01*
X210054Y206819D01*
X209950Y206929D01*
X211000Y208000D01*
X209950Y209071D01*
X210054Y209181D01*
X210148Y209293D01*
X210230Y209409D01*
X210285Y209500D01*
X210230Y209591D01*
X210148Y209707D01*
X210054Y209819D01*
X209950Y209929D01*
X210455D01*
X210478Y210039D01*
X210494Y210175D01*
X210500Y210314D01*
X211500D01*
X211506Y210175D01*
D02*
G37*
G36*
X206505Y175175D02*
X206522Y175039D01*
X206550Y174907D01*
X206588Y174777D01*
X206638Y174652D01*
X206698Y174529D01*
X206769Y174409D01*
X206852Y174293D01*
X206945Y174181D01*
X207050Y174071D01*
X206000Y173000D01*
X207050Y171929D01*
X206945Y171819D01*
X206852Y171706D01*
X206769Y171590D01*
X206715Y171500D01*
X206769Y171409D01*
X206852Y171293D01*
X206945Y171181D01*
X207050Y171071D01*
X206000Y170000D01*
X207050Y168929D01*
X206945Y168819D01*
X206852Y168707D01*
X206769Y168590D01*
X206698Y168471D01*
X206638Y168349D01*
X206588Y168222D01*
X206550Y168093D01*
X206522Y167961D01*
X206505Y167825D01*
X206500Y167686D01*
X205500D01*
X205494Y167825D01*
X205478Y167961D01*
X205451Y168093D01*
X205412Y168222D01*
X205363Y168349D01*
X205302Y168471D01*
X205230Y168590D01*
X205148Y168707D01*
X205054Y168819D01*
X204950Y168929D01*
X206000Y170000D01*
X204950Y171071D01*
X205054Y171181D01*
X205148Y171293D01*
X205230Y171409D01*
X205285Y171500D01*
X205230Y171590D01*
X205148Y171706D01*
X205054Y171819D01*
X204950Y171929D01*
X206000Y173000D01*
X204950Y174071D01*
X205054Y174181D01*
X205148Y174293D01*
X205230Y174409D01*
X205302Y174529D01*
X205363Y174652D01*
X205412Y174777D01*
X205451Y174907D01*
X205478Y175039D01*
X205494Y175175D01*
X205500Y175314D01*
X206500D01*
X206505Y175175D01*
D02*
G37*
G36*
X211506Y169175D02*
X211522Y169039D01*
X211549Y168907D01*
X211588Y168778D01*
X211637Y168651D01*
X211698Y168529D01*
X211770Y168410D01*
X211852Y168293D01*
X211946Y168181D01*
X212050Y168071D01*
X211000Y167000D01*
X212050Y165929D01*
X211946Y165819D01*
X211852Y165707D01*
X211770Y165591D01*
X211715Y165500D01*
X211770Y165410D01*
X211852Y165294D01*
X211946Y165181D01*
X212050Y165071D01*
X211000Y164000D01*
X212050Y162929D01*
X211946Y162819D01*
X211852Y162706D01*
X211770Y162591D01*
X211698Y162471D01*
X211637Y162348D01*
X211588Y162223D01*
X211549Y162093D01*
X211522Y161961D01*
X211506Y161825D01*
X211500Y161686D01*
X210500D01*
X210494Y161825D01*
X210478Y161961D01*
X210451Y162093D01*
X210412Y162223D01*
X210363Y162348D01*
X210302Y162471D01*
X210230Y162591D01*
X210148Y162706D01*
X210054Y162819D01*
X209950Y162929D01*
X211000Y164000D01*
X209950Y165071D01*
X210054Y165181D01*
X210148Y165294D01*
X210230Y165410D01*
X210285Y165500D01*
X210230Y165591D01*
X210148Y165707D01*
X210054Y165819D01*
X209950Y165929D01*
X211000Y167000D01*
X209950Y168071D01*
X210054Y168181D01*
X210148Y168293D01*
X210230Y168410D01*
X210302Y168529D01*
X210363Y168651D01*
X210412Y168778D01*
X210451Y168907D01*
X210478Y169039D01*
X210494Y169175D01*
X210500Y169314D01*
X211500D01*
X211506Y169175D01*
D02*
G37*
G36*
X206505Y125175D02*
X206522Y125039D01*
X206550Y124907D01*
X206588Y124777D01*
X206638Y124652D01*
X206698Y124529D01*
X206769Y124409D01*
X206852Y124293D01*
X206945Y124181D01*
X207050Y124071D01*
X206000Y123000D01*
X207050Y121929D01*
X206945Y121819D01*
X206852Y121706D01*
X206769Y121590D01*
X206715Y121500D01*
X206769Y121409D01*
X206852Y121293D01*
X206945Y121181D01*
X207050Y121071D01*
X206000Y120000D01*
X207050Y118929D01*
X206945Y118819D01*
X206852Y118707D01*
X206769Y118590D01*
X206698Y118471D01*
X206638Y118349D01*
X206588Y118222D01*
X206550Y118093D01*
X206522Y117961D01*
X206505Y117825D01*
X206500Y117686D01*
X205500D01*
X205494Y117825D01*
X205478Y117961D01*
X205451Y118093D01*
X205412Y118222D01*
X205363Y118349D01*
X205302Y118471D01*
X205230Y118590D01*
X205148Y118707D01*
X205054Y118819D01*
X204950Y118929D01*
X206000Y120000D01*
X204950Y121071D01*
X205054Y121181D01*
X205148Y121293D01*
X205230Y121409D01*
X205285Y121500D01*
X205230Y121590D01*
X205148Y121706D01*
X205054Y121819D01*
X204950Y121929D01*
X206000Y123000D01*
X204950Y124071D01*
X205054Y124181D01*
X205148Y124293D01*
X205230Y124409D01*
X205302Y124529D01*
X205363Y124652D01*
X205412Y124777D01*
X205451Y124907D01*
X205478Y125039D01*
X205494Y125175D01*
X205500Y125314D01*
X206500D01*
X206505Y125175D01*
D02*
G37*
G36*
X211506Y119175D02*
X211522Y119039D01*
X211549Y118907D01*
X211588Y118778D01*
X211637Y118651D01*
X211698Y118529D01*
X211770Y118410D01*
X211852Y118293D01*
X211946Y118181D01*
X212050Y118071D01*
X211000Y117000D01*
X212050Y115929D01*
X211946Y115819D01*
X211852Y115707D01*
X211770Y115591D01*
X211715Y115500D01*
X211770Y115410D01*
X211852Y115294D01*
X211946Y115181D01*
X212050Y115071D01*
X211000Y114000D01*
X212050Y112929D01*
X211946Y112819D01*
X211852Y112706D01*
X211770Y112591D01*
X211698Y112471D01*
X211637Y112348D01*
X211588Y112223D01*
X211549Y112093D01*
X211522Y111961D01*
X211506Y111825D01*
X211500Y111686D01*
X210500D01*
X210494Y111825D01*
X210478Y111961D01*
X210451Y112093D01*
X210412Y112223D01*
X210363Y112348D01*
X210302Y112471D01*
X210230Y112591D01*
X210148Y112706D01*
X210054Y112819D01*
X209950Y112929D01*
X211000Y114000D01*
X209950Y115071D01*
X210054Y115181D01*
X210148Y115294D01*
X210230Y115410D01*
X210285Y115500D01*
X210230Y115591D01*
X210148Y115707D01*
X210054Y115819D01*
X209950Y115929D01*
X211000Y117000D01*
X209950Y118071D01*
X210054Y118181D01*
X210148Y118293D01*
X210230Y118410D01*
X210302Y118529D01*
X210363Y118651D01*
X210412Y118778D01*
X210451Y118907D01*
X210478Y119039D01*
X210494Y119175D01*
X210500Y119314D01*
X211500D01*
X211506Y119175D01*
D02*
G37*
G36*
X206505Y81175D02*
X206522Y81039D01*
X206550Y80907D01*
X206588Y80778D01*
X206638Y80651D01*
X206698Y80529D01*
X206769Y80409D01*
X206852Y80293D01*
X206945Y80181D01*
X207050Y80071D01*
X206000Y79000D01*
X207050Y77929D01*
X206945Y77819D01*
X206852Y77707D01*
X206769Y77591D01*
X206715Y77500D01*
X206769Y77409D01*
X206852Y77293D01*
X206945Y77181D01*
X207050Y77071D01*
X206000Y76000D01*
X207050Y74929D01*
X206945Y74819D01*
X206852Y74707D01*
X206769Y74590D01*
X206698Y74471D01*
X206638Y74348D01*
X206588Y74222D01*
X206550Y74093D01*
X206522Y73961D01*
X206505Y73825D01*
X206500Y73686D01*
X205500D01*
X205494Y73825D01*
X205478Y73961D01*
X205451Y74093D01*
X205412Y74222D01*
X205363Y74348D01*
X205302Y74471D01*
X205230Y74590D01*
X205148Y74707D01*
X205054Y74819D01*
X204950Y74929D01*
X206000Y76000D01*
X204950Y77071D01*
X205054Y77181D01*
X205148Y77293D01*
X205230Y77409D01*
X205285Y77500D01*
X205230Y77591D01*
X205148Y77707D01*
X205054Y77819D01*
X204950Y77929D01*
X206000Y79000D01*
X204950Y80071D01*
X205054Y80181D01*
X205148Y80293D01*
X205230Y80409D01*
X205302Y80529D01*
X205363Y80651D01*
X205412Y80778D01*
X205451Y80907D01*
X205478Y81039D01*
X205494Y81175D01*
X205500Y81314D01*
X206500D01*
X206505Y81175D01*
D02*
G37*
G36*
X211506Y75175D02*
X211522Y75039D01*
X211549Y74907D01*
X211588Y74778D01*
X211637Y74651D01*
X211698Y74529D01*
X211770Y74410D01*
X211852Y74293D01*
X211946Y74181D01*
X212050Y74071D01*
X211000Y73000D01*
X212050Y71929D01*
X211946Y71819D01*
X211852Y71707D01*
X211770Y71591D01*
X211715Y71500D01*
X211770Y71409D01*
X211852Y71293D01*
X211946Y71181D01*
X212050Y71071D01*
X211000Y70000D01*
X212050Y68929D01*
X211946Y68819D01*
X211852Y68707D01*
X211770Y68590D01*
X211698Y68471D01*
X211637Y68348D01*
X211588Y68222D01*
X211549Y68093D01*
X211522Y67961D01*
X211506Y67825D01*
X211500Y67686D01*
X210500D01*
X210494Y67825D01*
X210478Y67961D01*
X210451Y68093D01*
X210412Y68222D01*
X210363Y68348D01*
X210302Y68471D01*
X210230Y68590D01*
X210148Y68707D01*
X210054Y68819D01*
X209950Y68929D01*
X211000Y70000D01*
X209950Y71071D01*
X210054Y71181D01*
X210148Y71293D01*
X210230Y71409D01*
X210285Y71500D01*
X210230Y71591D01*
X210148Y71707D01*
X210054Y71819D01*
X209950Y71929D01*
X211000Y73000D01*
X209950Y74071D01*
X210054Y74181D01*
X210148Y74293D01*
X210230Y74410D01*
X210302Y74529D01*
X210363Y74651D01*
X210412Y74778D01*
X210451Y74907D01*
X210478Y75039D01*
X210494Y75175D01*
X210500Y75314D01*
X211500D01*
X211506Y75175D01*
D02*
G37*
G36*
X206505Y31175D02*
X206522Y31039D01*
X206550Y30907D01*
X206588Y30777D01*
X206638Y30652D01*
X206698Y30529D01*
X206769Y30410D01*
X206852Y30294D01*
X206945Y30181D01*
X207050Y30071D01*
X204950D01*
X205054Y30181D01*
X205148Y30294D01*
X205230Y30410D01*
X205302Y30529D01*
X205363Y30652D01*
X205412Y30777D01*
X205451Y30907D01*
X205478Y31039D01*
X205494Y31175D01*
X205500Y31314D01*
X206500D01*
X206505Y31175D01*
D02*
G37*
G36*
X204871Y28614D02*
X204873Y28616D01*
X204983Y28699D01*
X205088Y28795D01*
X205612Y27905D01*
X205597Y27889D01*
X205985Y27500D01*
X205834Y27497D01*
X205688Y27483D01*
X205547Y27459D01*
X205413Y27425D01*
X205283Y27381D01*
X205209Y27349D01*
X205151Y27231D01*
X205095Y27097D01*
X205000Y26812D01*
X204961Y26661D01*
X204737Y27029D01*
X204717Y27010D01*
X204010Y27717D01*
X204104Y27819D01*
X204189Y27927D01*
X204189Y27928D01*
X203868Y28454D01*
X204007Y28426D01*
X204141Y28411D01*
X204273Y28410D01*
X204400Y28424D01*
X204430Y28430D01*
X204459Y28547D01*
X204483Y28688D01*
X204497Y28834D01*
X204500Y28985D01*
X204871Y28614D01*
D02*
G37*
G36*
X211506Y24175D02*
X211522Y24039D01*
X211549Y23907D01*
X211588Y23777D01*
X211637Y23652D01*
X211698Y23529D01*
X211770Y23410D01*
X211852Y23293D01*
X211946Y23181D01*
X212050Y23071D01*
X209950D01*
X210054Y23181D01*
X210148Y23293D01*
X210230Y23410D01*
X210302Y23529D01*
X210363Y23652D01*
X210412Y23777D01*
X210451Y23907D01*
X210478Y24039D01*
X210494Y24175D01*
X210500Y24314D01*
X211500D01*
X211506Y24175D01*
D02*
G37*
G36*
X209929Y22545D02*
X210039Y22522D01*
X210175Y22505D01*
X210314Y22500D01*
Y21500D01*
X210175Y21495D01*
X210039Y21478D01*
X209929Y21455D01*
Y20950D01*
X209819Y21055D01*
X209707Y21148D01*
X209591Y21230D01*
X209500Y21285D01*
X209409Y21230D01*
X209293Y21148D01*
X209181Y21055D01*
X209071Y20950D01*
Y21455D01*
X208961Y21478D01*
X208825Y21495D01*
X208686Y21500D01*
Y22500D01*
X208825Y22505D01*
X208961Y22522D01*
X209071Y22545D01*
Y23050D01*
X209181Y22945D01*
X209293Y22852D01*
X209409Y22770D01*
X209500Y22715D01*
X209591Y22770D01*
X209707Y22852D01*
X209819Y22945D01*
X209929Y23050D01*
Y22545D01*
D02*
G37*
G36*
X211946Y20819D02*
X211852Y20707D01*
X211770Y20591D01*
X211698Y20471D01*
X211637Y20348D01*
X211588Y20222D01*
X211549Y20093D01*
X211522Y19961D01*
X211506Y19825D01*
X211500Y19686D01*
X210500D01*
X210494Y19825D01*
X210478Y19961D01*
X210451Y20093D01*
X210412Y20222D01*
X210363Y20348D01*
X210302Y20471D01*
X210230Y20591D01*
X210148Y20707D01*
X210054Y20819D01*
X209950Y20929D01*
X212050D01*
X211946Y20819D01*
D02*
G37*
G36*
X211506Y9675D02*
X211522Y9539D01*
X211549Y9407D01*
X211588Y9278D01*
X211637Y9151D01*
X211698Y9029D01*
X211770Y8909D01*
X211852Y8793D01*
X211946Y8681D01*
X212050Y8571D01*
X211000Y7500D01*
X212050Y6429D01*
X211946Y6319D01*
X211852Y6207D01*
X211770Y6090D01*
X211715Y6000D01*
X211770Y5909D01*
X211852Y5793D01*
X211946Y5681D01*
X212050Y5571D01*
X211545D01*
X211522Y5461D01*
X211506Y5325D01*
X211500Y5186D01*
X210500D01*
X210494Y5325D01*
X210478Y5461D01*
X210455Y5571D01*
X209950D01*
X210054Y5681D01*
X210148Y5793D01*
X210230Y5909D01*
X210285Y6000D01*
X210230Y6090D01*
X210148Y6207D01*
X210054Y6319D01*
X209950Y6429D01*
X211000Y7500D01*
X209950Y8571D01*
X210054Y8681D01*
X210148Y8793D01*
X210230Y8909D01*
X210302Y9029D01*
X210363Y9151D01*
X210412Y9278D01*
X210451Y9407D01*
X210478Y9539D01*
X210494Y9675D01*
X210500Y9814D01*
X211500D01*
X211506Y9675D01*
D02*
G37*
D17*
X206000Y214000D02*
Y217000D01*
X204000Y27000D02*
X206000Y29000D01*
X203500Y27000D02*
X204000D01*
X205500Y29000D02*
X206000D01*
X151000Y32000D02*
X157500D01*
X146500Y27500D02*
X151000Y32000D01*
X146500Y10000D02*
Y27500D01*
X141000Y4500D02*
X146500Y10000D01*
X89500Y4500D02*
X141000D01*
X86000Y8000D02*
X89500Y4500D01*
X162000Y32000D02*
X174000D01*
X86000Y8000D02*
Y218000D01*
X206000Y172000D02*
X206300Y172300D01*
X206000Y29000D02*
Y214000D01*
Y214300D01*
X81500Y21500D02*
Y210500D01*
X211000Y4500D02*
Y22000D01*
X81500Y4500D02*
Y21500D01*
X208000Y22000D02*
X211000D01*
Y211000D01*
X81000D02*
Y214000D01*
X81500Y210500D02*
X82000Y211000D01*
X175000Y9000D02*
X178000D01*
X54000Y28000D02*
X57000D01*
X178000Y9000D02*
Y210000D01*
X54000Y28000D02*
Y210000D01*
X0Y0D02*
X260000D01*
Y320000D01*
X0D02*
X260000D01*
X0Y0D02*
Y320000D01*
D18*
X59000Y89000D02*
X62000Y92000D01*
Y89000D02*
Y92000D01*
X59000Y89000D02*
X62000D01*
X59000D02*
Y92000D01*
Y139000D02*
X62000Y142000D01*
Y139000D02*
Y142000D01*
X59000Y139000D02*
X62000D01*
X59000D02*
Y142000D01*
X183000Y191000D02*
X186000Y188000D01*
X185000D02*
X186000D01*
X183000Y186000D02*
X185000Y188000D01*
X186000Y186000D02*
Y192000D01*
X183000Y183000D02*
Y191000D01*
Y186000D02*
X186000Y183000D01*
X183000Y186000D02*
X186000D01*
Y183000D02*
Y186000D01*
X183000Y183000D02*
X186000D01*
X187752Y191000D02*
X188752Y192000D01*
X183000Y191000D02*
X187752D01*
X183000D02*
X184000Y192000D01*
X183000Y191000D02*
Y194000D01*
X184000D01*
X186000Y192000D01*
X188752D01*
X183000Y149000D02*
Y150000D01*
X185000Y143000D02*
Y146000D01*
X186000Y139000D02*
Y147000D01*
X183000Y146000D02*
X185000Y148000D01*
X183000Y142000D02*
X184000Y143000D01*
X185000D01*
Y146000D02*
X186000Y147000D01*
X183000Y142000D02*
X186000Y139000D01*
X183000Y142000D02*
X186000D01*
Y139000D02*
Y142000D01*
X183000Y139000D02*
X186000D01*
X183000D02*
Y146000D01*
Y150000D02*
X185000Y148000D01*
X183000Y149000D02*
X184000Y150000D01*
X186000Y148000D01*
X188752D01*
X183000Y92000D02*
X186000Y89000D01*
X183000Y97000D02*
X188000D01*
X183000Y89000D02*
Y97000D01*
X184000Y95000D02*
X185000Y96000D01*
X183000D02*
X184000Y95000D01*
X183000Y96000D02*
Y97000D01*
Y92000D02*
X188000Y97000D01*
X183000Y92000D02*
X186000D01*
Y89000D02*
Y92000D01*
X183000Y89000D02*
X186000D01*
X183000Y97000D02*
X187000D01*
X188000Y98000D01*
X184000D02*
X188000D01*
X183000Y97000D02*
X184000Y98000D01*
X183000Y97000D02*
Y99000D01*
X184000Y100000D01*
X186000Y98000D01*
X188752D01*
X187502Y53969D02*
X187532Y54000D01*
X187502Y53502D02*
Y53969D01*
X185000Y51000D02*
X187502Y53502D01*
X185000Y51000D02*
Y52000D01*
Y46000D02*
Y51000D01*
X183000Y48000D02*
X185000Y46000D01*
X184000Y54000D02*
X188000D01*
X186000Y48000D02*
Y53000D01*
X185000Y52000D02*
X186000Y53000D01*
X183000Y48000D02*
X186000D01*
Y45000D02*
Y48000D01*
X183000Y45000D02*
X186000D01*
X183000D02*
Y53000D01*
X184000Y54000D01*
X187000Y53000D02*
X188000Y54000D01*
X183000Y53000D02*
X187000D01*
X183000D02*
Y55000D01*
X184000Y56000D01*
X186000Y54000D01*
X188752D01*
X59000Y55000D02*
Y56000D01*
Y48000D02*
X61000Y46000D01*
X59000Y45000D02*
Y52000D01*
X61000D02*
X62000Y53000D01*
X61000Y46000D02*
Y52000D01*
X59000Y48000D02*
X62000D01*
Y45000D02*
Y48000D01*
X59000Y45000D02*
X62000D01*
X59000Y52000D02*
X61000Y54000D01*
X59000Y56000D02*
X61000Y54000D01*
X59000Y55000D02*
X60000Y56000D01*
X62000Y54000D01*
X64752D01*
X62000Y96000D02*
X63000Y97000D01*
X59000Y92000D02*
Y100000D01*
Y92000D02*
X61000Y94000D01*
Y95000D01*
X59000Y97000D02*
X61000Y95000D01*
X59000Y97000D02*
X63000D01*
X62000Y92000D02*
Y96000D01*
X59000Y92000D02*
X62000D01*
X59000Y100000D02*
X61000Y98000D01*
X64752D01*
X59000Y143000D02*
Y147000D01*
X60000Y146000D02*
X61000D01*
X59000Y147000D02*
X60000Y146000D01*
X59000Y143000D02*
X62000Y146000D01*
Y145000D02*
Y146000D01*
X59000Y142000D02*
X62000Y145000D01*
X59000Y142000D02*
X62000D01*
Y145000D01*
X64000Y147000D01*
X59000D02*
X64000D01*
X59000D02*
Y150000D01*
X61000Y148000D01*
X64752D01*
D19*
X59000Y183000D02*
X62000Y186000D01*
Y183000D02*
Y186000D01*
X59000Y183000D02*
X62000D01*
X59000D02*
Y186000D01*
X155000Y225000D02*
X158000Y228000D01*
X155000Y225000D02*
Y228000D01*
X158000D01*
Y225000D02*
Y228000D01*
X155000Y225000D02*
X158000D01*
X139449Y209449D02*
X155000Y225000D01*
X139449Y206000D02*
Y209449D01*
X105000Y228000D02*
X108000Y225000D01*
Y228000D01*
X105000D02*
X108000D01*
X105000Y225000D02*
Y228000D01*
Y225000D02*
X108000D01*
X120449D01*
X71248Y51248D02*
Y51752D01*
X70000Y50000D02*
X71248Y51248D01*
Y51752D02*
X73000Y50000D01*
X70000D02*
X73000D01*
X71248Y95248D02*
Y95752D01*
X70000Y94000D02*
X71248Y95248D01*
Y95752D02*
X73000Y94000D01*
X70000D02*
X73000D01*
X71248Y145248D02*
Y145752D01*
X70000Y144000D02*
X71248Y145248D01*
Y145752D02*
X73000Y144000D01*
X70000D02*
X73000D01*
X71248Y189248D02*
Y189752D01*
X70000Y188000D02*
X71248Y189248D01*
Y189752D02*
X73000Y188000D01*
X70000D02*
X73000D01*
X195248Y189248D02*
Y189752D01*
X194000Y188000D02*
X195248Y189248D01*
Y189752D02*
X197000Y188000D01*
X194000D02*
X197000D01*
X195248Y145248D02*
Y145752D01*
X194000Y144000D02*
X195248Y145248D01*
Y145752D02*
X197000Y144000D01*
X194000D02*
X197000D01*
X195248Y95752D02*
Y98000D01*
X194000Y94504D02*
X195248Y95752D01*
X194000Y94000D02*
Y94504D01*
X195248Y95752D02*
Y98000D01*
Y95752D02*
X197000Y94000D01*
X194000D02*
X197000D01*
X194000Y50000D02*
X197000D01*
X195248Y51248D02*
Y54000D01*
X194000Y50000D02*
X195248Y51248D01*
X196496Y50000D02*
X197000D01*
X195248Y51248D02*
X196496Y50000D01*
X195248Y51248D02*
Y54000D01*
X120551Y196201D02*
Y206000D01*
Y196201D02*
X126752Y190000D01*
X59000Y194000D02*
X61000Y192000D01*
X60000Y188000D02*
X62000D01*
X59000Y191000D02*
X62000Y188000D01*
X59000Y186000D02*
Y191000D01*
Y186000D02*
X62000D01*
Y189000D01*
X65000Y192000D01*
X61000D02*
X65000D01*
X59000Y191000D02*
Y194000D01*
Y191000D02*
X63752D01*
X64752Y192000D01*
X115000Y206000D02*
X120551D01*
X108000Y213000D02*
X115000Y206000D01*
X112000D02*
X120551D01*
X108000Y210000D02*
X112000Y206000D01*
X109000D02*
X120551D01*
X108000Y207000D02*
X109000Y206000D01*
X110000D02*
X120551D01*
X108000Y204000D02*
X110000Y206000D01*
X113000D02*
X120551D01*
X108000Y201000D02*
X113000Y206000D01*
X116000D02*
X120551D01*
X108000Y198000D02*
X116000Y206000D01*
X133248Y190000D02*
X137248Y194000D01*
X144000D02*
Y197000D01*
X143000Y198000D02*
X144000Y197000D01*
X137000Y198000D02*
X143000D01*
X141000Y194000D02*
Y196000D01*
X143000Y198000D01*
Y196000D02*
X144000Y197000D01*
X137248Y194000D02*
X144000D01*
X137000Y198000D02*
X141000Y194000D01*
X137000Y195000D02*
X138000Y194000D01*
X139000Y199000D02*
Y205551D01*
Y199000D02*
X140000Y198000D01*
X139449Y200551D02*
X142000Y198000D01*
X139449Y200551D02*
Y206000D01*
X137000Y195000D02*
Y203551D01*
X139000Y205551D01*
X143000Y198000D02*
Y202449D01*
X142000Y200000D02*
Y203449D01*
X143000Y202449D01*
X120449Y225000D02*
X139449Y206000D01*
X188000Y258000D02*
X226000D01*
X155000Y225000D02*
X158000D01*
Y228000D01*
X155000Y225000D02*
X188000Y258000D01*
D25*
X244000Y221000D02*
D03*
Y216000D02*
D03*
Y211000D02*
D03*
Y206000D02*
D03*
Y201000D02*
D03*
Y196000D02*
D03*
Y191000D02*
D03*
Y186000D02*
D03*
Y169000D02*
D03*
Y164000D02*
D03*
Y159000D02*
D03*
Y154000D02*
D03*
Y149000D02*
D03*
Y144000D02*
D03*
Y139000D02*
D03*
Y134000D02*
D03*
Y117000D02*
D03*
Y112000D02*
D03*
Y107000D02*
D03*
Y102000D02*
D03*
Y97000D02*
D03*
Y92000D02*
D03*
Y87000D02*
D03*
Y82000D02*
D03*
Y65000D02*
D03*
Y60000D02*
D03*
Y55000D02*
D03*
Y50000D02*
D03*
Y45000D02*
D03*
Y40000D02*
D03*
Y35000D02*
D03*
Y30000D02*
D03*
X17000Y7000D02*
D03*
Y12000D02*
D03*
Y17000D02*
D03*
Y22000D02*
D03*
Y27000D02*
D03*
Y32000D02*
D03*
Y37000D02*
D03*
Y42000D02*
D03*
Y47000D02*
D03*
Y52000D02*
D03*
Y69000D02*
D03*
Y74000D02*
D03*
Y79000D02*
D03*
Y84000D02*
D03*
Y89000D02*
D03*
Y94000D02*
D03*
Y99000D02*
D03*
Y104000D02*
D03*
Y109000D02*
D03*
Y114000D02*
D03*
Y131000D02*
D03*
Y136000D02*
D03*
Y141000D02*
D03*
Y146000D02*
D03*
Y151000D02*
D03*
Y156000D02*
D03*
Y161000D02*
D03*
Y166000D02*
D03*
Y171000D02*
D03*
Y176000D02*
D03*
Y193000D02*
D03*
Y198000D02*
D03*
Y203000D02*
D03*
Y208000D02*
D03*
Y213000D02*
D03*
Y218000D02*
D03*
Y223000D02*
D03*
Y228000D02*
D03*
Y233000D02*
D03*
Y238000D02*
D03*
D26*
X244000Y181000D02*
D03*
Y129000D02*
D03*
Y77000D02*
D03*
Y25000D02*
D03*
X17000Y57000D02*
D03*
Y119000D02*
D03*
Y181000D02*
D03*
Y243000D02*
D03*
D27*
X202000Y235500D02*
D03*
X50500Y236500D02*
D03*
X108000Y32000D02*
D03*
D28*
X130000Y19996D02*
D03*
Y300004D02*
D03*
D29*
X24000Y258000D02*
D03*
X226000D02*
D03*
D30*
X206000Y123000D02*
D03*
Y173000D02*
D03*
Y217000D02*
D03*
X171000Y32000D02*
D03*
X203500Y27000D02*
D03*
X183000Y89000D02*
D03*
Y100000D02*
D03*
X186000Y89000D02*
D03*
Y92000D02*
D03*
X183000Y97000D02*
D03*
Y92000D02*
D03*
X108000Y201000D02*
D03*
Y198000D02*
D03*
Y204000D02*
D03*
X157500Y32000D02*
D03*
X162000D02*
D03*
X174000D02*
D03*
X206000Y29000D02*
D03*
X81000Y70000D02*
D03*
Y164000D02*
D03*
Y214000D02*
D03*
Y211000D02*
D03*
X208000Y22000D02*
D03*
X211000D02*
D03*
Y7500D02*
D03*
X81500D02*
D03*
Y4500D02*
D03*
X211000D02*
D03*
X86000Y77000D02*
D03*
Y80000D02*
D03*
X81000Y73000D02*
D03*
X86000Y121000D02*
D03*
X81000Y120000D02*
D03*
X86000Y124000D02*
D03*
X81000Y117000D02*
D03*
X86000Y171000D02*
D03*
Y174000D02*
D03*
X81000Y167000D02*
D03*
X211000Y208000D02*
D03*
Y211000D02*
D03*
X206000Y214000D02*
D03*
X211000Y164000D02*
D03*
Y167000D02*
D03*
X206000Y170000D02*
D03*
X211000Y114000D02*
D03*
Y117000D02*
D03*
X206000Y120000D02*
D03*
Y79000D02*
D03*
Y76000D02*
D03*
X211000Y73000D02*
D03*
Y70000D02*
D03*
X86000Y218000D02*
D03*
Y215000D02*
D03*
X178000Y9000D02*
D03*
X169000Y15500D02*
D03*
X163500D02*
D03*
X158000D02*
D03*
X57000Y28000D02*
D03*
X54000D02*
D03*
X175000Y9000D02*
D03*
X105000Y225000D02*
D03*
X108000Y228000D02*
D03*
Y225000D02*
D03*
X158000Y228000D02*
D03*
X178000Y72000D02*
D03*
Y69000D02*
D03*
Y116000D02*
D03*
Y113000D02*
D03*
Y166000D02*
D03*
Y163000D02*
D03*
Y210000D02*
D03*
Y207000D02*
D03*
X54000Y72000D02*
D03*
Y69000D02*
D03*
Y116000D02*
D03*
Y113000D02*
D03*
Y166000D02*
D03*
Y163000D02*
D03*
Y207000D02*
D03*
Y210000D02*
D03*
X194000Y50000D02*
D03*
X197000D02*
D03*
X194000Y94000D02*
D03*
X197000D02*
D03*
X194000Y144000D02*
D03*
X197000D02*
D03*
X194000Y188000D02*
D03*
X197000D02*
D03*
X70000Y50000D02*
D03*
X73000D02*
D03*
X70000Y94000D02*
D03*
X73000D02*
D03*
X70000Y144000D02*
D03*
X73000D02*
D03*
X77000Y192000D02*
D03*
Y195000D02*
D03*
Y183000D02*
D03*
Y186000D02*
D03*
X73000Y188000D02*
D03*
X70000D02*
D03*
X63000Y63000D02*
D03*
X66000D02*
D03*
X201000Y195000D02*
D03*
Y192000D02*
D03*
X158000Y225000D02*
D03*
X155000D02*
D03*
Y228000D02*
D03*
X105000D02*
D03*
X62300Y16000D02*
D03*
X130000Y81000D02*
D03*
Y106000D02*
D03*
Y135000D02*
D03*
Y160000D02*
D03*
Y239000D02*
D03*
Y264000D02*
D03*
X108000Y213000D02*
D03*
Y207000D02*
D03*
Y210000D02*
D03*
X201000Y186000D02*
D03*
Y183000D02*
D03*
X183000Y186000D02*
D03*
X186000Y183000D02*
D03*
X183000D02*
D03*
X186000Y186000D02*
D03*
X183000Y191000D02*
D03*
Y194000D02*
D03*
X190000Y201000D02*
D03*
X187000D02*
D03*
X183000Y142000D02*
D03*
X186000Y139000D02*
D03*
X183000D02*
D03*
X201000Y151000D02*
D03*
Y142000D02*
D03*
X186000D02*
D03*
X201000Y139000D02*
D03*
Y148000D02*
D03*
X183000Y147000D02*
D03*
Y150000D02*
D03*
X190000Y157000D02*
D03*
X187000D02*
D03*
X201000Y101000D02*
D03*
Y92000D02*
D03*
Y89000D02*
D03*
Y98000D02*
D03*
X190000Y107000D02*
D03*
X187000D02*
D03*
X183000Y48000D02*
D03*
X186000Y45000D02*
D03*
X183000D02*
D03*
X201000Y57000D02*
D03*
Y48000D02*
D03*
X186000D02*
D03*
X201000Y45000D02*
D03*
Y54000D02*
D03*
X183000Y53000D02*
D03*
Y56000D02*
D03*
X190000Y63000D02*
D03*
X187000D02*
D03*
X59000Y48000D02*
D03*
X62000Y45000D02*
D03*
X59000D02*
D03*
X77000Y57000D02*
D03*
Y48000D02*
D03*
X62000D02*
D03*
X77000Y45000D02*
D03*
Y54000D02*
D03*
X59000Y53000D02*
D03*
Y56000D02*
D03*
Y92000D02*
D03*
X62000Y89000D02*
D03*
X59000D02*
D03*
X77000Y101000D02*
D03*
Y92000D02*
D03*
X62000D02*
D03*
X77000Y89000D02*
D03*
Y98000D02*
D03*
X59000Y97000D02*
D03*
Y100000D02*
D03*
X66000Y107000D02*
D03*
X63000D02*
D03*
X59000Y142000D02*
D03*
X62000Y139000D02*
D03*
X59000D02*
D03*
X77000Y151000D02*
D03*
Y142000D02*
D03*
X62000D02*
D03*
X77000Y139000D02*
D03*
Y148000D02*
D03*
X59000Y147000D02*
D03*
Y150000D02*
D03*
X66000Y157000D02*
D03*
X63000D02*
D03*
Y201000D02*
D03*
X66000D02*
D03*
X59000Y194000D02*
D03*
Y191000D02*
D03*
X62000Y186000D02*
D03*
X59000Y183000D02*
D03*
X62000D02*
D03*
X59000Y186000D02*
D03*
X140000Y198000D02*
D03*
X143000D02*
D03*
X137000D02*
D03*
X144000Y194000D02*
D03*
X138000D02*
D03*
X141000D02*
D03*
X128300Y277500D02*
D03*
X131100D02*
D03*
Y280000D02*
D03*
X128300D02*
D03*
X131100Y282600D02*
D03*
X128300D02*
D03*
X127300Y39100D02*
D03*
Y41900D02*
D03*
X129900Y39100D02*
D03*
Y41900D02*
D03*
X132400D02*
D03*
Y39100D02*
D03*
D31*
X64752Y192000D02*
D03*
X71248D02*
D03*
X126752Y190000D02*
D03*
X133248D02*
D03*
X64752Y148000D02*
D03*
X71248D02*
D03*
X64752Y98000D02*
D03*
X71248D02*
D03*
X64752Y54000D02*
D03*
X71248D02*
D03*
X188752Y192000D02*
D03*
X195248D02*
D03*
X188752Y148000D02*
D03*
X195248D02*
D03*
X188752Y98000D02*
D03*
X195248D02*
D03*
X188752Y54000D02*
D03*
X195248D02*
D03*
D32*
X120551Y206000D02*
D03*
X139449D02*
D03*
M02*
