G04 Layer_Color=16711935*
%FSLAX25Y25*%
%MOIN*%
G70*
G01*
G75*
%ADD17C,0.01000*%
%ADD291C,0.04737*%
%ADD292R,0.04737X0.04737*%
%ADD293C,0.09055*%
%ADD294C,0.25800*%
%ADD295C,0.00800*%
%ADD296C,0.08674*%
%ADD297R,0.04540X0.04737*%
G04:AMPARAMS|DCode=298|XSize=128.11mil|YSize=134.02mil|CornerRadius=34.53mil|HoleSize=0mil|Usage=FLASHONLY|Rotation=90.000|XOffset=0mil|YOffset=0mil|HoleType=Round|Shape=RoundedRectangle|*
%AMROUNDEDRECTD298*
21,1,0.12811,0.06496,0,0,90.0*
21,1,0.05906,0.13402,0,0,90.0*
1,1,0.06906,0.03248,0.02953*
1,1,0.06906,0.03248,-0.02953*
1,1,0.06906,-0.03248,-0.02953*
1,1,0.06906,-0.03248,0.02953*
%
%ADD298ROUNDEDRECTD298*%
D17*
X0Y0D02*
X260000D01*
Y320000D01*
X0D02*
X260000D01*
X0Y0D02*
Y320000D01*
D291*
X244000Y221000D02*
D03*
Y216000D02*
D03*
Y211000D02*
D03*
Y206000D02*
D03*
Y201000D02*
D03*
Y191000D02*
D03*
Y186000D02*
D03*
Y169000D02*
D03*
Y164000D02*
D03*
Y159000D02*
D03*
Y154000D02*
D03*
Y149000D02*
D03*
Y139000D02*
D03*
Y134000D02*
D03*
Y117000D02*
D03*
Y112000D02*
D03*
Y107000D02*
D03*
Y102000D02*
D03*
Y97000D02*
D03*
Y87000D02*
D03*
Y82000D02*
D03*
Y65000D02*
D03*
Y60000D02*
D03*
Y55000D02*
D03*
Y50000D02*
D03*
Y45000D02*
D03*
Y35000D02*
D03*
Y30000D02*
D03*
X17000Y7000D02*
D03*
Y12000D02*
D03*
Y17000D02*
D03*
Y22000D02*
D03*
Y27000D02*
D03*
Y32000D02*
D03*
Y42000D02*
D03*
Y47000D02*
D03*
Y52000D02*
D03*
Y69000D02*
D03*
Y74000D02*
D03*
Y79000D02*
D03*
Y84000D02*
D03*
Y89000D02*
D03*
Y94000D02*
D03*
Y104000D02*
D03*
Y109000D02*
D03*
Y114000D02*
D03*
Y131000D02*
D03*
Y136000D02*
D03*
Y141000D02*
D03*
Y146000D02*
D03*
Y151000D02*
D03*
Y156000D02*
D03*
Y166000D02*
D03*
Y171000D02*
D03*
Y176000D02*
D03*
Y193000D02*
D03*
Y198000D02*
D03*
Y203000D02*
D03*
Y208000D02*
D03*
Y213000D02*
D03*
Y218000D02*
D03*
Y228000D02*
D03*
Y233000D02*
D03*
Y238000D02*
D03*
D292*
X244000Y181000D02*
D03*
Y129000D02*
D03*
Y77000D02*
D03*
Y25000D02*
D03*
X17000Y57000D02*
D03*
Y119000D02*
D03*
Y181000D02*
D03*
Y243000D02*
D03*
D293*
X202000Y235500D02*
D03*
X50500Y236500D02*
D03*
X108000Y32000D02*
D03*
D294*
X130000Y19996D02*
D03*
Y300004D02*
D03*
D295*
X137992Y275118D02*
D03*
Y44882D02*
D03*
D296*
X24000Y258000D02*
D03*
X226000D02*
D03*
D297*
X64752Y192000D02*
D03*
X71248D02*
D03*
X126752Y190000D02*
D03*
X133248D02*
D03*
X64752Y148000D02*
D03*
X71248D02*
D03*
X64752Y98000D02*
D03*
X71248D02*
D03*
X64752Y54000D02*
D03*
X71248D02*
D03*
X188752Y192000D02*
D03*
X195248D02*
D03*
X188752Y148000D02*
D03*
X195248D02*
D03*
X188752Y98000D02*
D03*
X195248D02*
D03*
X188752Y54000D02*
D03*
X195248D02*
D03*
D298*
X120551Y206000D02*
D03*
X139449D02*
D03*
M02*
