M48
;Layer_Color=9474304
;FILE_FORMAT=2:5
INCH,LZ
;TYPE=PLATED
T1F00S00C0.01500
T2F00S00C0.02756
T3F00S00C0.04724
T4F00S00C0.12500
;TYPE=NON_PLATED
T5F00S00C0.04016
%
T01
X0054Y0028
X0057
X00623Y0016
X00815Y00075
Y00045
X0077Y0045
Y0048
X0073Y005
X007
X0062Y0048
X0059
Y0045
X0062
X0059Y0053
Y0056
X0077Y0054
X01273Y00419
X01299
X01324
Y00391
X01299
X01273
X01575Y0032
X0162
X0171
X0174
X0169Y00155
X01635
X0158
X0175Y0009
X0178
X0211Y00075
Y00045
Y0022
X0208
X0206Y0029
X02035Y0027
X0201Y0045
Y0048
X0197Y005
X0194
X0186Y0048
X0183
Y0045
X0186
X0183Y0053
Y0056
X0201Y0054
Y0057
X019Y0063
X0187
X0178Y0069
Y0072
X0183Y0089
X0186
Y0092
X0183
Y0097
Y01
X0187Y0107
X019
X0194Y0094
X0197
X0201Y0092
Y0089
Y0098
Y0101
X0211Y0114
Y0117
X0206Y012
Y0123
X0201Y0139
Y0142
X0197Y0144
X0194
X0186Y0142
X0183
Y0139
X0186
X0183Y0147
Y015
X0187Y0157
X019
X0201Y0151
Y0148
X0211Y0164
Y0167
X0206Y017
Y0173
X0201Y0183
Y0186
X0197Y0188
X0194
X0186Y0186
X0183
Y0183
X0186
X0183Y0191
Y0194
X0187Y0201
X019
X0201Y0195
Y0192
X0211Y0208
Y0211
X0178Y021
Y0207
Y0166
Y0163
Y0116
Y0113
X013Y0106
Y0081
X0086Y008
Y0077
X0081Y0073
Y007
X0077Y0057
X0066Y0063
X0063
X0062Y0089
X0059
Y0092
X0062
X0059Y0097
Y01
X0063Y0107
X0066
X007Y0094
X0073
X0077Y0092
Y0089
Y0098
Y0101
X0081Y0117
Y012
X0086Y0121
Y0124
X0077Y0139
Y0142
X0073Y0144
X007
X0062Y0142
X0059
Y0139
X0062
X0059Y0147
Y015
X0063Y0157
X0066
X0077Y0151
Y0148
X0081Y0164
Y0167
X0086Y0171
Y0174
X0077Y0183
Y0186
Y0192
Y0195
X0073Y0188
X007
X0062Y0186
Y0183
X0059
Y0186
Y0191
Y0194
X0063Y0201
X0066
X0081Y0211
X0108Y021
Y0207
Y0204
Y0201
Y0198
X0137
X014
X0143
X0144Y0194
X0141
X0138
X013Y016
Y0135
X0206Y0079
Y0076
X0211Y0073
Y007
X0054Y0069
Y0072
Y0113
Y0116
Y0163
Y0166
Y0207
Y021
X0081Y0214
X0086Y0215
Y0218
X0105Y0225
X0108
Y0228
X0105
X0108Y0213
X013Y0239
Y0264
X01311Y02775
Y028
Y02826
X01283
Y028
Y02775
X0155Y0228
X0158
Y0225
X0155
X0206Y0217
Y0214
T02
X0017Y0007
Y0012
Y0017
Y0022
Y0027
Y0032
Y0042
Y0047
Y0052
X0244Y005
Y0055
Y0045
Y0035
Y003
Y0025
Y006
Y0065
Y0077
Y0082
Y0087
Y0097
Y0102
Y0107
Y0112
Y0117
Y0129
Y0134
Y0139
Y0149
Y0154
Y0159
Y0164
Y0169
Y0181
Y0186
Y0191
Y0201
Y0206
Y0211
X0017Y0208
Y0203
Y0198
Y0193
Y0181
Y0176
Y0171
Y0166
Y0156
Y0151
Y0146
Y0141
Y0136
Y0131
Y0119
Y0114
Y0109
Y0104
Y0094
Y0089
Y0084
Y0079
Y0074
Y0069
Y0057
Y0213
Y0218
Y0228
Y0233
Y0238
Y0243
X0244Y0221
Y0216
T03
X0024Y0258
X0226
T04
X013Y0019996
Y0300004
T05
X0137992Y0044882
Y0275118
M30
