G04 Layer_Color=32896*
%FSLAX25Y25*%
%MOIN*%
G70*
G01*
G75*
%ADD17C,0.01000*%
%ADD18C,0.02000*%
%ADD19C,0.02500*%
%ADD20C,0.01200*%
%ADD33C,0.00500*%
%ADD36C,0.00300*%
%ADD37C,0.00787*%
%ADD38C,0.00600*%
%ADD40R,0.00200X0.00100*%
%ADD41R,0.00400X0.00100*%
%ADD42R,0.00500X0.00100*%
%ADD43R,0.00600X0.00100*%
%ADD44R,0.00700X0.00100*%
%ADD45R,0.00900X0.00100*%
%ADD46R,0.01000X0.00100*%
%ADD47R,0.01100X0.00100*%
%ADD48R,0.01200X0.00100*%
%ADD49R,0.01300X0.00100*%
%ADD50R,0.01500X0.00100*%
%ADD51R,0.01600X0.00100*%
%ADD52R,0.01700X0.00100*%
%ADD53R,0.01800X0.00100*%
%ADD54R,0.01900X0.00100*%
%ADD55R,0.02000X0.00100*%
%ADD56R,0.02100X0.00100*%
%ADD57R,0.02300X0.00100*%
%ADD58R,0.02400X0.00100*%
%ADD59R,0.02500X0.00100*%
%ADD60R,0.02600X0.00100*%
%ADD61R,0.02700X0.00100*%
%ADD62R,0.02900X0.00100*%
%ADD63R,0.03100X0.00100*%
%ADD64R,0.03200X0.00100*%
%ADD65R,0.03300X0.00100*%
%ADD66R,0.03400X0.00100*%
%ADD67R,0.03500X0.00100*%
%ADD68R,0.03700X0.00100*%
%ADD69R,0.03800X0.00100*%
%ADD70R,0.03900X0.00100*%
%ADD71R,0.04000X0.00100*%
%ADD72R,0.04100X0.00100*%
%ADD73R,0.04200X0.00100*%
%ADD74R,0.04300X0.00100*%
%ADD75R,0.04500X0.00100*%
%ADD76R,0.04600X0.00100*%
%ADD77R,0.04700X0.00100*%
%ADD78R,0.04800X0.00100*%
%ADD79R,0.04900X0.00100*%
%ADD80R,0.05100X0.00100*%
%ADD81R,0.05200X0.00100*%
%ADD82R,0.05300X0.00100*%
%ADD83R,0.05400X0.00100*%
%ADD84R,0.05500X0.00100*%
%ADD85R,0.05600X0.00100*%
%ADD86R,0.05700X0.00100*%
%ADD87R,0.05900X0.00100*%
%ADD88R,0.06000X0.00100*%
%ADD89R,0.06100X0.00100*%
%ADD90R,0.06200X0.00100*%
%ADD91R,0.06300X0.00100*%
%ADD92R,0.06400X0.00100*%
%ADD93R,0.06500X0.00100*%
%ADD94R,0.06700X0.00100*%
%ADD95R,0.06800X0.00100*%
%ADD96R,0.06900X0.00100*%
%ADD97R,0.07000X0.00100*%
%ADD98R,0.07100X0.00100*%
%ADD99R,0.07300X0.00100*%
%ADD100R,0.07400X0.00100*%
%ADD101R,0.07500X0.00100*%
%ADD102R,0.07600X0.00100*%
%ADD103R,0.07700X0.00100*%
%ADD104R,0.07800X0.00100*%
%ADD105R,0.07900X0.00100*%
%ADD106R,0.08100X0.00100*%
%ADD107R,0.08200X0.00100*%
%ADD108R,0.08300X0.00100*%
%ADD109R,0.08400X0.00100*%
%ADD110R,0.08500X0.00100*%
%ADD111R,0.08700X0.00100*%
%ADD112R,0.08900X0.00100*%
%ADD113R,0.09000X0.00100*%
%ADD114R,0.09100X0.00100*%
%ADD115R,0.09200X0.00100*%
%ADD116R,0.09300X0.00100*%
%ADD117R,0.09500X0.00100*%
%ADD118R,0.09600X0.00100*%
%ADD119R,0.09700X0.00100*%
%ADD120R,0.09800X0.00100*%
%ADD121R,0.09900X0.00100*%
%ADD122R,0.10000X0.00100*%
%ADD123R,0.10100X0.00100*%
%ADD124R,0.10300X0.00100*%
%ADD125R,0.10400X0.00100*%
%ADD126R,0.10500X0.00100*%
%ADD127R,0.10600X0.00100*%
%ADD128R,0.10700X0.00100*%
%ADD129R,0.10900X0.00100*%
%ADD130R,0.11000X0.00100*%
%ADD131R,0.11100X0.00100*%
%ADD132R,0.11200X0.00100*%
%ADD133R,0.11300X0.00100*%
%ADD134R,0.11400X0.00100*%
%ADD135R,0.11500X0.00100*%
%ADD136R,0.11700X0.00100*%
%ADD137R,0.11800X0.00100*%
%ADD138R,0.11900X0.00100*%
%ADD139R,0.12000X0.00100*%
%ADD140R,0.12100X0.00100*%
%ADD141R,0.12200X0.00100*%
%ADD142R,0.12300X0.00100*%
%ADD143R,0.12500X0.00100*%
%ADD144R,0.12600X0.00100*%
%ADD145R,0.12700X0.00100*%
%ADD146R,0.12800X0.00100*%
%ADD147R,0.12900X0.00100*%
%ADD148R,0.13100X0.00100*%
%ADD149R,0.13200X0.00100*%
%ADD150R,0.13300X0.00100*%
%ADD151R,0.13400X0.00100*%
%ADD152R,0.13500X0.00100*%
%ADD153R,0.13600X0.00100*%
%ADD154R,0.13700X0.00100*%
%ADD155R,0.13900X0.00100*%
%ADD156R,0.14000X0.00100*%
%ADD157R,0.14100X0.00100*%
%ADD158R,0.14200X0.00100*%
%ADD159R,0.14300X0.00100*%
%ADD160R,0.14500X0.00100*%
%ADD161R,0.14700X0.00100*%
%ADD162R,0.14800X0.00100*%
%ADD163R,0.14900X0.00100*%
%ADD164R,0.14400X0.00100*%
%ADD165R,0.00300X0.00100*%
%ADD166R,0.13800X0.00100*%
%ADD167R,0.13000X0.00100*%
%ADD168R,0.10200X0.00100*%
%ADD169R,0.08800X0.00100*%
%ADD170R,0.08600X0.00100*%
%ADD171R,0.07200X0.00100*%
%ADD172R,0.00800X0.00100*%
%ADD173R,0.01400X0.00100*%
%ADD174R,0.02800X0.00100*%
%ADD175R,0.03000X0.00100*%
%ADD176R,0.03600X0.00100*%
%ADD177R,0.00100X0.00100*%
%ADD178R,0.02200X0.00100*%
%ADD179R,0.05800X0.00100*%
%ADD180R,0.06600X0.00100*%
%ADD181R,0.04400X0.00100*%
%ADD182R,0.08000X0.00100*%
%ADD183R,0.12400X0.00100*%
%ADD184R,0.15000X0.00100*%
%ADD185R,0.15300X0.00100*%
%ADD186R,0.15500X0.00100*%
%ADD187R,0.15700X0.00100*%
%ADD188R,0.15900X0.00100*%
%ADD189R,0.16200X0.00100*%
%ADD190R,0.16400X0.00100*%
%ADD191R,0.16700X0.00100*%
%ADD192R,0.16900X0.00100*%
%ADD193R,0.17200X0.00100*%
%ADD194R,0.17400X0.00100*%
%ADD195R,0.17700X0.00100*%
%ADD196R,0.17800X0.00100*%
%ADD197R,0.18100X0.00100*%
%ADD198R,0.18700X0.00100*%
%ADD199R,0.18800X0.00100*%
%ADD200R,0.19000X0.00100*%
%ADD201R,0.19100X0.00100*%
%ADD202R,0.19200X0.00100*%
%ADD203R,0.19300X0.00100*%
%ADD204R,0.19400X0.00100*%
%ADD205R,0.19600X0.00100*%
%ADD206R,0.10800X0.00100*%
%ADD207R,0.19800X0.00100*%
%ADD208R,0.19900X0.00100*%
%ADD209R,0.20000X0.00100*%
%ADD210R,0.20200X0.00100*%
%ADD211R,0.20400X0.00100*%
%ADD212R,0.11600X0.00100*%
%ADD213R,0.20600X0.00100*%
%ADD214R,0.20800X0.00100*%
%ADD215R,0.21000X0.00100*%
%ADD216R,0.21200X0.00100*%
%ADD217R,0.21300X0.00100*%
%ADD218R,0.21400X0.00100*%
%ADD219R,0.21500X0.00100*%
%ADD220R,0.21600X0.00100*%
%ADD221R,0.21700X0.00100*%
%ADD222R,0.21800X0.00100*%
%ADD223R,0.21900X0.00100*%
%ADD224R,0.22100X0.00100*%
%ADD225R,0.22300X0.00100*%
%ADD226R,0.22500X0.00100*%
%ADD227R,0.22700X0.00100*%
%ADD228R,0.22800X0.00100*%
%ADD229R,0.22900X0.00100*%
%ADD230R,0.23000X0.00100*%
%ADD231R,0.23200X0.00100*%
%ADD232R,0.15800X0.00100*%
%ADD233R,0.23300X0.00100*%
%ADD234R,0.16100X0.00100*%
%ADD235R,0.23500X0.00100*%
%ADD236R,0.16300X0.00100*%
%ADD237R,0.23700X0.00100*%
%ADD238R,0.16600X0.00100*%
%ADD239R,0.23800X0.00100*%
%ADD240R,0.16800X0.00100*%
%ADD241R,0.24000X0.00100*%
%ADD242R,0.24200X0.00100*%
%ADD243R,0.24500X0.00100*%
%ADD244R,0.24700X0.00100*%
%ADD245R,0.18000X0.00100*%
%ADD246R,0.25100X0.00100*%
%ADD247R,0.18200X0.00100*%
%ADD248R,0.31800X0.00100*%
%ADD249R,0.18500X0.00100*%
%ADD250R,0.32000X0.00100*%
%ADD251R,0.32200X0.00100*%
%ADD252R,0.51300X0.00100*%
%ADD253R,0.51500X0.00100*%
%ADD254R,0.51600X0.00100*%
%ADD255R,0.51700X0.00100*%
%ADD256R,0.51800X0.00100*%
%ADD257R,0.51900X0.00100*%
%ADD258R,0.52000X0.00100*%
%ADD259R,0.52100X0.00100*%
%ADD260R,0.52300X0.00100*%
%ADD261R,0.52400X0.00100*%
%ADD262R,0.52500X0.00100*%
%ADD263R,0.52600X0.00100*%
%ADD264R,0.52700X0.00100*%
%ADD265R,0.52800X0.00100*%
%ADD266R,0.52900X0.00100*%
%ADD267R,0.53100X0.00100*%
%ADD268R,0.53200X0.00100*%
%ADD269R,0.53300X0.00100*%
%ADD270R,0.53400X0.00100*%
%ADD271R,0.04100X0.16800*%
%ADD272R,0.46400X0.00100*%
%ADD273R,0.46500X0.00100*%
%ADD274R,0.46600X0.00100*%
%ADD275R,0.46700X0.00100*%
%ADD276R,0.46800X0.00100*%
%ADD277R,0.46900X0.00100*%
%ADD278R,0.47000X0.00100*%
%ADD279R,0.47200X0.00100*%
%ADD280R,0.47400X0.00100*%
%ADD281R,0.47600X0.00100*%
%ADD282R,0.47800X0.00100*%
%ADD283R,0.47900X0.00100*%
%ADD299C,0.01969*%
%ADD300R,0.02700X0.19685*%
G36*
X77002Y309959D02*
X74588D01*
Y311189D01*
X77002D01*
Y309959D01*
D02*
G37*
G36*
X46716Y313011D02*
X46874Y312993D01*
X47021Y312965D01*
X47160Y312928D01*
X47299Y312881D01*
X47419Y312835D01*
X47530Y312780D01*
X47632Y312724D01*
X47725Y312669D01*
X47798Y312613D01*
X47872Y312567D01*
X47928Y312521D01*
X47974Y312484D01*
X48002Y312456D01*
X48020Y312438D01*
X48030Y312428D01*
X48131Y312317D01*
X48224Y312188D01*
X48298Y312058D01*
X48363Y311929D01*
X48428Y311799D01*
X48474Y311670D01*
X48539Y311411D01*
X48566Y311300D01*
X48585Y311189D01*
X48594Y311096D01*
X48603Y311013D01*
X48612Y310939D01*
Y310893D01*
Y310856D01*
Y310846D01*
X48603Y310671D01*
X48585Y310513D01*
X48557Y310356D01*
X48529Y310217D01*
X48483Y310079D01*
X48437Y309959D01*
X48390Y309838D01*
X48335Y309736D01*
X48280Y309644D01*
X48233Y309561D01*
X48187Y309496D01*
X48141Y309431D01*
X48113Y309385D01*
X48085Y309357D01*
X48067Y309339D01*
X48057Y309330D01*
X47956Y309228D01*
X47845Y309135D01*
X47734Y309052D01*
X47623Y308987D01*
X47512Y308932D01*
X47401Y308886D01*
X47197Y308811D01*
X47105Y308784D01*
X47012Y308765D01*
X46938Y308756D01*
X46874Y308747D01*
X46818Y308737D01*
X46744D01*
X46615Y308747D01*
X46494Y308765D01*
X46383Y308784D01*
X46272Y308821D01*
X46078Y308913D01*
X45911Y309006D01*
X45782Y309107D01*
X45726Y309154D01*
X45680Y309200D01*
X45643Y309237D01*
X45616Y309256D01*
X45606Y309274D01*
X45597Y309283D01*
X45616Y309089D01*
X45634Y308904D01*
X45652Y308737D01*
X45680Y308590D01*
X45708Y308460D01*
X45736Y308340D01*
X45763Y308238D01*
X45801Y308145D01*
X45828Y308062D01*
X45847Y307997D01*
X45875Y307942D01*
X45893Y307905D01*
X45911Y307868D01*
X45930Y307850D01*
X45939Y307831D01*
X46041Y307711D01*
X46152Y307628D01*
X46263Y307563D01*
X46365Y307526D01*
X46457Y307498D01*
X46531Y307489D01*
X46578Y307480D01*
X46596D01*
X46698Y307489D01*
X46799Y307507D01*
X46883Y307535D01*
X46948Y307563D01*
X47003Y307600D01*
X47040Y307628D01*
X47068Y307646D01*
X47077Y307655D01*
X47142Y307729D01*
X47188Y307812D01*
X47234Y307905D01*
X47262Y307988D01*
X47280Y308071D01*
X47299Y308136D01*
X47308Y308173D01*
Y308192D01*
X48492Y308062D01*
X48428Y307785D01*
X48335Y307554D01*
X48233Y307350D01*
X48131Y307174D01*
X48030Y307045D01*
X47993Y306998D01*
X47947Y306952D01*
X47919Y306925D01*
X47891Y306897D01*
X47882Y306878D01*
X47872D01*
X47780Y306804D01*
X47688Y306739D01*
X47484Y306638D01*
X47280Y306564D01*
X47096Y306518D01*
X46929Y306481D01*
X46855Y306471D01*
X46790D01*
X46744Y306462D01*
X46670D01*
X46476Y306471D01*
X46300Y306499D01*
X46124Y306536D01*
X45967Y306582D01*
X45819Y306647D01*
X45671Y306712D01*
X45551Y306786D01*
X45430Y306851D01*
X45329Y306925D01*
X45236Y306998D01*
X45162Y307063D01*
X45098Y307128D01*
X45042Y307174D01*
X45005Y307211D01*
X44987Y307239D01*
X44977Y307248D01*
X44866Y307405D01*
X44765Y307581D01*
X44681Y307775D01*
X44607Y307970D01*
X44543Y308183D01*
X44487Y308395D01*
X44441Y308608D01*
X44413Y308811D01*
X44385Y309006D01*
X44367Y309191D01*
X44348Y309357D01*
X44339Y309505D01*
X44330Y309626D01*
Y309718D01*
Y309746D01*
Y309773D01*
Y309783D01*
Y309792D01*
X44339Y310106D01*
X44357Y310393D01*
X44385Y310662D01*
X44431Y310902D01*
X44478Y311133D01*
X44524Y311337D01*
X44579Y311512D01*
X44644Y311679D01*
X44700Y311818D01*
X44755Y311938D01*
X44802Y312040D01*
X44857Y312123D01*
X44894Y312188D01*
X44922Y312234D01*
X44940Y312262D01*
X44949Y312271D01*
X45070Y312401D01*
X45199Y312521D01*
X45329Y312622D01*
X45467Y312706D01*
X45597Y312780D01*
X45736Y312835D01*
X45865Y312891D01*
X45985Y312928D01*
X46106Y312955D01*
X46207Y312983D01*
X46309Y312993D01*
X46393Y313011D01*
X46457D01*
X46503Y313020D01*
X46550D01*
X46716Y313011D01*
D02*
G37*
G36*
X85299Y306499D02*
X84106D01*
Y310809D01*
X81460Y306499D01*
X80212D01*
Y312900D01*
X81405D01*
Y308682D01*
X84004Y312900D01*
X85299D01*
Y306499D01*
D02*
G37*
G36*
X42489Y306462D02*
X41490D01*
X41398Y306675D01*
X41277Y306869D01*
X41148Y307054D01*
X41018Y307202D01*
X40907Y307322D01*
X40806Y307415D01*
X40769Y307452D01*
X40741Y307480D01*
X40722Y307489D01*
X40713Y307498D01*
X40510Y307646D01*
X40315Y307775D01*
X40139Y307877D01*
X39982Y307951D01*
X39853Y308007D01*
X39760Y308053D01*
X39723Y308062D01*
X39696Y308071D01*
X39686Y308081D01*
X39677D01*
Y309191D01*
X40010Y309061D01*
X40306Y308923D01*
X40445Y308849D01*
X40574Y308765D01*
X40694Y308691D01*
X40806Y308617D01*
X40907Y308543D01*
X41000Y308478D01*
X41074Y308423D01*
X41138Y308367D01*
X41194Y308321D01*
X41231Y308294D01*
X41249Y308275D01*
X41259Y308266D01*
Y312900D01*
X42489D01*
Y306462D01*
D02*
G37*
G36*
X65477Y306499D02*
X63534D01*
X62396Y310874D01*
X61249Y306499D01*
X59316D01*
Y312900D01*
X60509D01*
Y307868D01*
X61767Y312900D01*
X63016D01*
X64274Y307868D01*
X64283Y312900D01*
X65477D01*
Y306499D01*
D02*
G37*
G36*
X33544Y311762D02*
X31102D01*
X31176Y311642D01*
X31260Y311540D01*
X31297Y311494D01*
X31324Y311457D01*
X31343Y311438D01*
X31352Y311429D01*
X31389Y311392D01*
X31426Y311346D01*
X31537Y311244D01*
X31657Y311124D01*
X31778Y311004D01*
X31898Y310893D01*
X31999Y310800D01*
X32037Y310763D01*
X32064Y310736D01*
X32083Y310726D01*
X32092Y310717D01*
X32296Y310523D01*
X32462Y310366D01*
X32601Y310217D01*
X32712Y310106D01*
X32795Y310014D01*
X32851Y309949D01*
X32888Y309903D01*
X32897Y309894D01*
X33017Y309736D01*
X33119Y309589D01*
X33202Y309450D01*
X33267Y309330D01*
X33322Y309228D01*
X33359Y309144D01*
X33378Y309098D01*
X33387Y309080D01*
X33443Y308932D01*
X33479Y308784D01*
X33507Y308645D01*
X33526Y308516D01*
X33535Y308414D01*
X33544Y308330D01*
Y308275D01*
Y308257D01*
X33535Y308118D01*
X33516Y307979D01*
X33498Y307850D01*
X33461Y307729D01*
X33369Y307517D01*
X33276Y307331D01*
X33220Y307248D01*
X33174Y307184D01*
X33128Y307119D01*
X33082Y307072D01*
X33045Y307035D01*
X33026Y306998D01*
X33008Y306989D01*
X32998Y306980D01*
X32897Y306888D01*
X32776Y306804D01*
X32666Y306739D01*
X32536Y306684D01*
X32296Y306592D01*
X32055Y306527D01*
X31944Y306508D01*
X31842Y306490D01*
X31750Y306481D01*
X31666Y306471D01*
X31602Y306462D01*
X31509D01*
X31352Y306471D01*
X31204Y306481D01*
X30917Y306527D01*
X30677Y306601D01*
X30566Y306638D01*
X30464Y306684D01*
X30371Y306721D01*
X30297Y306767D01*
X30224Y306804D01*
X30168Y306832D01*
X30122Y306869D01*
X30094Y306888D01*
X30075Y306897D01*
X30066Y306906D01*
X29965Y306998D01*
X29872Y307091D01*
X29789Y307202D01*
X29715Y307322D01*
X29604Y307563D01*
X29511Y307794D01*
X29484Y307914D01*
X29456Y308016D01*
X29428Y308108D01*
X29419Y308192D01*
X29400Y308266D01*
Y308312D01*
X29391Y308349D01*
Y308358D01*
X30612Y308478D01*
X30630Y308294D01*
X30667Y308136D01*
X30705Y307997D01*
X30751Y307896D01*
X30788Y307812D01*
X30825Y307757D01*
X30852Y307720D01*
X30862Y307711D01*
X30954Y307637D01*
X31056Y307581D01*
X31158Y307535D01*
X31260Y307507D01*
X31343Y307489D01*
X31417Y307480D01*
X31482D01*
X31620Y307489D01*
X31740Y307517D01*
X31842Y307554D01*
X31935Y307591D01*
X31999Y307628D01*
X32055Y307664D01*
X32083Y307692D01*
X32092Y307701D01*
X32166Y307794D01*
X32221Y307896D01*
X32258Y307997D01*
X32286Y308099D01*
X32305Y308192D01*
X32314Y308275D01*
Y308321D01*
Y308330D01*
Y308340D01*
X32305Y308478D01*
X32277Y308608D01*
X32231Y308737D01*
X32184Y308849D01*
X32138Y308950D01*
X32092Y309024D01*
X32064Y309070D01*
X32055Y309089D01*
X32018Y309144D01*
X31962Y309209D01*
X31888Y309293D01*
X31815Y309366D01*
X31648Y309542D01*
X31482Y309718D01*
X31315Y309885D01*
X31241Y309959D01*
X31167Y310014D01*
X31111Y310069D01*
X31075Y310106D01*
X31047Y310134D01*
X31038Y310143D01*
X30852Y310319D01*
X30686Y310486D01*
X30529Y310643D01*
X30390Y310782D01*
X30261Y310921D01*
X30149Y311050D01*
X30048Y311161D01*
X29965Y311272D01*
X29890Y311365D01*
X29826Y311448D01*
X29770Y311512D01*
X29733Y311577D01*
X29696Y311614D01*
X29678Y311651D01*
X29659Y311670D01*
Y311679D01*
X29539Y311892D01*
X29447Y312114D01*
X29373Y312317D01*
X29317Y312502D01*
X29280Y312669D01*
X29271Y312734D01*
X29261Y312789D01*
X29252Y312835D01*
X29243Y312872D01*
Y312891D01*
Y312900D01*
X33544D01*
Y311762D01*
D02*
G37*
G36*
X103466Y311818D02*
X99896D01*
Y310079D01*
X103105D01*
Y308997D01*
X99896D01*
Y307581D01*
X103346D01*
Y306499D01*
X98601D01*
Y312900D01*
X103466D01*
Y311818D01*
D02*
G37*
G36*
X97500D02*
X93929D01*
Y310079D01*
X97139D01*
Y308997D01*
X93929D01*
Y307581D01*
X97380D01*
Y306499D01*
X92634D01*
Y312900D01*
X97500D01*
Y311818D01*
D02*
G37*
G36*
X69528Y307581D02*
X71415D01*
Y306499D01*
X66337D01*
Y307581D01*
X68233D01*
Y312900D01*
X69528D01*
Y307581D01*
D02*
G37*
G36*
X58095Y306499D02*
X56800D01*
Y312900D01*
X58095D01*
Y306499D01*
D02*
G37*
G36*
X26366Y311818D02*
X22722D01*
X26228Y307507D01*
Y306499D01*
X21547D01*
Y307581D01*
X24535D01*
X21159Y311735D01*
Y312900D01*
X26366D01*
Y311818D01*
D02*
G37*
G36*
X20622D02*
X17052D01*
Y310079D01*
X20261D01*
Y308997D01*
X17052D01*
Y307581D01*
X20502D01*
Y306499D01*
X15756D01*
Y312900D01*
X20622D01*
Y311818D01*
D02*
G37*
G36*
X11973Y312891D02*
X12205Y312881D01*
X12399Y312863D01*
X12556Y312835D01*
X12686Y312807D01*
X12787Y312789D01*
X12815Y312780D01*
X12843D01*
X12852Y312771D01*
X12861D01*
X13065Y312697D01*
X13250Y312613D01*
X13398Y312530D01*
X13527Y312447D01*
X13629Y312373D01*
X13703Y312317D01*
X13749Y312280D01*
X13768Y312262D01*
X13925Y312086D01*
X14064Y311901D01*
X14184Y311707D01*
X14277Y311531D01*
X14351Y311365D01*
X14388Y311300D01*
X14406Y311244D01*
X14424Y311189D01*
X14443Y311152D01*
X14452Y311133D01*
Y311124D01*
X14517Y310902D01*
X14572Y310671D01*
X14609Y310449D01*
X14628Y310236D01*
X14637Y310134D01*
X14647Y310042D01*
Y309968D01*
X14656Y309894D01*
Y309838D01*
Y309801D01*
Y309773D01*
Y309764D01*
X14647Y309440D01*
X14619Y309154D01*
X14609Y309015D01*
X14591Y308895D01*
X14572Y308774D01*
X14554Y308673D01*
X14526Y308580D01*
X14508Y308497D01*
X14489Y308423D01*
X14480Y308367D01*
X14461Y308321D01*
X14452Y308284D01*
X14443Y308266D01*
Y308257D01*
X14360Y308034D01*
X14258Y307831D01*
X14156Y307655D01*
X14054Y307507D01*
X13971Y307387D01*
X13897Y307295D01*
X13851Y307239D01*
X13842Y307221D01*
X13833D01*
X13675Y307072D01*
X13518Y306952D01*
X13352Y306851D01*
X13204Y306767D01*
X13074Y306702D01*
X12963Y306656D01*
X12926Y306647D01*
X12898Y306638D01*
X12880Y306628D01*
X12870D01*
X12695Y306582D01*
X12501Y306555D01*
X12297Y306527D01*
X12103Y306518D01*
X11927Y306508D01*
X11853Y306499D01*
X9300D01*
Y312900D01*
X11723D01*
X11973Y312891D01*
D02*
G37*
G36*
X36615Y313011D02*
X36773Y312993D01*
X36930Y312955D01*
X37069Y312918D01*
X37198Y312872D01*
X37318Y312817D01*
X37420Y312752D01*
X37522Y312687D01*
X37605Y312632D01*
X37688Y312567D01*
X37753Y312511D01*
X37808Y312465D01*
X37846Y312428D01*
X37873Y312391D01*
X37892Y312373D01*
X37901Y312364D01*
X38012Y312206D01*
X38105Y312021D01*
X38197Y311827D01*
X38262Y311614D01*
X38326Y311402D01*
X38373Y311189D01*
X38419Y310967D01*
X38456Y310754D01*
X38475Y310550D01*
X38493Y310366D01*
X38511Y310190D01*
X38521Y310042D01*
X38530Y309922D01*
Y309829D01*
Y309792D01*
Y309764D01*
Y309755D01*
Y309746D01*
X38521Y309413D01*
X38502Y309107D01*
X38475Y308830D01*
X38428Y308571D01*
X38382Y308330D01*
X38336Y308118D01*
X38271Y307924D01*
X38216Y307757D01*
X38160Y307600D01*
X38105Y307480D01*
X38049Y307368D01*
X38003Y307276D01*
X37957Y307211D01*
X37929Y307165D01*
X37910Y307137D01*
X37901Y307128D01*
X37799Y307008D01*
X37688Y306906D01*
X37568Y306823D01*
X37448Y306739D01*
X37328Y306675D01*
X37207Y306628D01*
X37096Y306582D01*
X36976Y306545D01*
X36865Y306518D01*
X36773Y306499D01*
X36680Y306481D01*
X36606Y306471D01*
X36541Y306462D01*
X36449D01*
X36282Y306471D01*
X36125Y306490D01*
X35968Y306527D01*
X35829Y306564D01*
X35699Y306619D01*
X35579Y306675D01*
X35478Y306730D01*
X35376Y306795D01*
X35293Y306860D01*
X35209Y306915D01*
X35144Y306971D01*
X35098Y307026D01*
X35052Y307063D01*
X35024Y307100D01*
X35006Y307119D01*
X34997Y307128D01*
X34885Y307285D01*
X34793Y307470D01*
X34710Y307664D01*
X34636Y307868D01*
X34580Y308081D01*
X34525Y308303D01*
X34488Y308516D01*
X34451Y308728D01*
X34432Y308932D01*
X34414Y309117D01*
X34395Y309293D01*
X34386Y309440D01*
X34377Y309561D01*
Y309653D01*
Y309690D01*
Y309718D01*
Y309727D01*
Y309736D01*
X34386Y310069D01*
X34405Y310375D01*
X34432Y310662D01*
X34469Y310921D01*
X34506Y311152D01*
X34552Y311365D01*
X34608Y311549D01*
X34664Y311716D01*
X34710Y311855D01*
X34765Y311984D01*
X34811Y312086D01*
X34858Y312169D01*
X34885Y312225D01*
X34913Y312271D01*
X34932Y312299D01*
X34941Y312308D01*
X35052Y312438D01*
X35172Y312539D01*
X35293Y312641D01*
X35422Y312715D01*
X35542Y312789D01*
X35672Y312844D01*
X35792Y312891D01*
X35912Y312928D01*
X36023Y312965D01*
X36125Y312983D01*
X36217Y313002D01*
X36292Y313011D01*
X36356D01*
X36412Y313020D01*
X36449D01*
X36615Y313011D01*
D02*
G37*
G36*
X29030Y306388D02*
X28105D01*
X26524Y313011D01*
X27430D01*
X29030Y306388D01*
D02*
G37*
G36*
X89258Y313011D02*
X89526Y312983D01*
X89767Y312946D01*
X89869Y312928D01*
X89970Y312900D01*
X90054Y312881D01*
X90128Y312863D01*
X90193Y312844D01*
X90248Y312826D01*
X90294Y312807D01*
X90322Y312798D01*
X90341Y312789D01*
X90350D01*
X90553Y312687D01*
X90720Y312576D01*
X90877Y312465D01*
X90997Y312345D01*
X91090Y312243D01*
X91164Y312151D01*
X91201Y312095D01*
X91219Y312086D01*
Y312077D01*
X91321Y311892D01*
X91404Y311716D01*
X91460Y311540D01*
X91497Y311374D01*
X91515Y311244D01*
X91524Y311179D01*
X91534Y311133D01*
Y311096D01*
Y311069D01*
Y311050D01*
Y311041D01*
X91524Y310819D01*
X91497Y310625D01*
X91451Y310449D01*
X91404Y310301D01*
X91358Y310180D01*
X91312Y310097D01*
X91284Y310042D01*
X91275Y310023D01*
X91173Y309875D01*
X91053Y309746D01*
X90933Y309635D01*
X90821Y309542D01*
X90720Y309468D01*
X90636Y309413D01*
X90581Y309376D01*
X90572Y309366D01*
X90562D01*
X90470Y309320D01*
X90377Y309274D01*
X90156Y309191D01*
X89924Y309117D01*
X89702Y309043D01*
X89600Y309015D01*
X89499Y308987D01*
X89406Y308960D01*
X89332Y308941D01*
X89267Y308923D01*
X89221Y308913D01*
X89184Y308904D01*
X89175D01*
X89008Y308858D01*
X88860Y308821D01*
X88722Y308784D01*
X88592Y308747D01*
X88490Y308710D01*
X88389Y308673D01*
X88305Y308636D01*
X88231Y308608D01*
X88167Y308580D01*
X88121Y308553D01*
X88074Y308534D01*
X88046Y308516D01*
X88000Y308488D01*
X87991Y308478D01*
X87926Y308414D01*
X87880Y308349D01*
X87852Y308284D01*
X87834Y308220D01*
X87815Y308173D01*
X87806Y308127D01*
Y308099D01*
Y308090D01*
X87815Y307997D01*
X87834Y307924D01*
X87871Y307850D01*
X87908Y307794D01*
X87945Y307748D01*
X87982Y307720D01*
X88000Y307701D01*
X88010Y307692D01*
X88139Y307609D01*
X88278Y307554D01*
X88426Y307507D01*
X88564Y307480D01*
X88685Y307461D01*
X88787Y307452D01*
X88879D01*
X89073Y307461D01*
X89240Y307489D01*
X89378Y307526D01*
X89490Y307563D01*
X89582Y307600D01*
X89647Y307637D01*
X89684Y307664D01*
X89693Y307674D01*
X89785Y307766D01*
X89869Y307877D01*
X89934Y307988D01*
X89980Y308108D01*
X90017Y308210D01*
X90035Y308294D01*
X90054Y308358D01*
Y308367D01*
Y308377D01*
X91349Y308330D01*
X91339Y308164D01*
X91312Y308016D01*
X91275Y307868D01*
X91228Y307738D01*
X91182Y307609D01*
X91127Y307489D01*
X91071Y307387D01*
X91016Y307285D01*
X90951Y307202D01*
X90895Y307128D01*
X90840Y307063D01*
X90794Y307008D01*
X90757Y306971D01*
X90729Y306943D01*
X90711Y306925D01*
X90701Y306915D01*
X90581Y306823D01*
X90452Y306739D01*
X90313Y306665D01*
X90165Y306601D01*
X90017Y306555D01*
X89869Y306508D01*
X89573Y306444D01*
X89434Y306425D01*
X89314Y306406D01*
X89193Y306397D01*
X89092Y306388D01*
X89008Y306379D01*
X88898D01*
X88629Y306388D01*
X88389Y306416D01*
X88176Y306453D01*
X87991Y306490D01*
X87908Y306518D01*
X87834Y306536D01*
X87778Y306555D01*
X87723Y306573D01*
X87686Y306592D01*
X87658Y306601D01*
X87639Y306610D01*
X87630D01*
X87445Y306702D01*
X87288Y306804D01*
X87149Y306915D01*
X87038Y307017D01*
X86946Y307109D01*
X86890Y307184D01*
X86844Y307239D01*
X86835Y307248D01*
Y307258D01*
X86742Y307415D01*
X86677Y307581D01*
X86631Y307738D01*
X86603Y307877D01*
X86585Y307997D01*
X86567Y308090D01*
Y308127D01*
Y308155D01*
Y308164D01*
Y308173D01*
X86576Y308312D01*
X86594Y308451D01*
X86622Y308571D01*
X86659Y308691D01*
X86752Y308913D01*
X86862Y309107D01*
X86909Y309191D01*
X86964Y309256D01*
X87011Y309320D01*
X87057Y309376D01*
X87094Y309413D01*
X87121Y309440D01*
X87140Y309459D01*
X87149Y309468D01*
X87233Y309533D01*
X87334Y309598D01*
X87436Y309663D01*
X87556Y309718D01*
X87787Y309829D01*
X88028Y309922D01*
X88148Y309959D01*
X88250Y309996D01*
X88352Y310023D01*
X88435Y310051D01*
X88500Y310069D01*
X88555Y310088D01*
X88592Y310097D01*
X88601D01*
X88749Y310134D01*
X88879Y310171D01*
X88999Y310199D01*
X89110Y310227D01*
X89203Y310255D01*
X89286Y310273D01*
X89360Y310301D01*
X89425Y310319D01*
X89480Y310329D01*
X89526Y310347D01*
X89591Y310366D01*
X89628Y310384D01*
X89638D01*
X89758Y310430D01*
X89850Y310476D01*
X89934Y310523D01*
X89998Y310569D01*
X90044Y310606D01*
X90072Y310634D01*
X90091Y310652D01*
X90100Y310662D01*
X90146Y310726D01*
X90183Y310791D01*
X90202Y310856D01*
X90220Y310911D01*
X90229Y310967D01*
X90239Y311013D01*
Y311041D01*
Y311050D01*
X90229Y311179D01*
X90193Y311291D01*
X90137Y311402D01*
X90082Y311494D01*
X90017Y311568D01*
X89970Y311624D01*
X89934Y311661D01*
X89915Y311670D01*
X89785Y311753D01*
X89638Y311818D01*
X89480Y311864D01*
X89332Y311892D01*
X89193Y311910D01*
X89082Y311929D01*
X88981D01*
X88768Y311919D01*
X88583Y311882D01*
X88426Y311836D01*
X88287Y311781D01*
X88176Y311725D01*
X88102Y311679D01*
X88056Y311642D01*
X88037Y311633D01*
X87917Y311503D01*
X87824Y311365D01*
X87741Y311207D01*
X87686Y311050D01*
X87639Y310911D01*
X87603Y310800D01*
X87593Y310763D01*
Y310726D01*
X87584Y310708D01*
Y310699D01*
X86326Y310819D01*
X86354Y311013D01*
X86391Y311198D01*
X86446Y311374D01*
X86493Y311531D01*
X86557Y311679D01*
X86622Y311818D01*
X86687Y311938D01*
X86752Y312049D01*
X86816Y312141D01*
X86881Y312225D01*
X86936Y312299D01*
X86992Y312364D01*
X87029Y312410D01*
X87066Y312438D01*
X87085Y312456D01*
X87094Y312465D01*
X87223Y312567D01*
X87362Y312650D01*
X87510Y312724D01*
X87667Y312789D01*
X87815Y312835D01*
X87972Y312881D01*
X88278Y312946D01*
X88416Y312974D01*
X88546Y312993D01*
X88657Y313002D01*
X88759Y313011D01*
X88842Y313020D01*
X88962D01*
X89258Y313011D01*
D02*
G37*
G36*
X94186Y303871D02*
X89080D01*
Y304667D01*
X94186D01*
Y303871D01*
D02*
G37*
G36*
X52422D02*
X47317D01*
Y304667D01*
X52422D01*
Y303871D01*
D02*
G37*
G36*
X40601Y301651D02*
X40518Y301522D01*
X40435Y301392D01*
X40361Y301281D01*
X40286Y301180D01*
X40222Y301087D01*
X40166Y300994D01*
X40055Y300856D01*
X39972Y300745D01*
X39917Y300671D01*
X39870Y300624D01*
X39861Y300615D01*
X39759Y300504D01*
X39639Y300402D01*
X39528Y300319D01*
X39417Y300236D01*
X39325Y300171D01*
X39250Y300125D01*
X39195Y300088D01*
X39186Y300079D01*
X39176D01*
X39334Y300051D01*
X39472Y300014D01*
X39602Y299977D01*
X39731Y299931D01*
X39843Y299885D01*
X39944Y299838D01*
X40046Y299792D01*
X40129Y299736D01*
X40203Y299690D01*
X40268Y299644D01*
X40323Y299598D01*
X40361Y299561D01*
X40398Y299533D01*
X40425Y299505D01*
X40435Y299496D01*
X40444Y299487D01*
X40518Y299394D01*
X40582Y299302D01*
X40694Y299098D01*
X40767Y298904D01*
X40814Y298710D01*
X40851Y298543D01*
X40860Y298479D01*
Y298414D01*
X40869Y298368D01*
Y298321D01*
Y298303D01*
Y298293D01*
X40860Y298090D01*
X40823Y297896D01*
X40777Y297729D01*
X40731Y297581D01*
X40675Y297461D01*
X40629Y297369D01*
X40610Y297341D01*
X40592Y297313D01*
X40582Y297304D01*
Y297294D01*
X40472Y297137D01*
X40351Y297008D01*
X40231Y296906D01*
X40111Y296814D01*
X40000Y296758D01*
X39917Y296712D01*
X39861Y296684D01*
X39852Y296675D01*
X39843D01*
X39750Y296647D01*
X39648Y296619D01*
X39417Y296573D01*
X39167Y296545D01*
X38927Y296517D01*
X38807D01*
X38705Y296508D01*
X38603D01*
X38520Y296499D01*
X35634D01*
Y302900D01*
X36929D01*
Y300227D01*
X37345D01*
X37475Y300236D01*
X37585Y300245D01*
X37678Y300264D01*
X37752Y300273D01*
X37798Y300291D01*
X37826Y300301D01*
X37835D01*
X37909Y300338D01*
X37983Y300375D01*
X38048Y300421D01*
X38113Y300458D01*
X38159Y300504D01*
X38196Y300541D01*
X38214Y300560D01*
X38224Y300569D01*
X38261Y300615D01*
X38307Y300661D01*
X38409Y300800D01*
X38520Y300948D01*
X38640Y301115D01*
X38742Y301263D01*
X38788Y301337D01*
X38825Y301392D01*
X38862Y301438D01*
X38890Y301476D01*
X38899Y301503D01*
X38908Y301513D01*
X39833Y302900D01*
X41387D01*
X40601Y301651D01*
D02*
G37*
G36*
X19724D02*
X19640Y301522D01*
X19557Y301392D01*
X19483Y301281D01*
X19409Y301180D01*
X19344Y301087D01*
X19289Y300994D01*
X19178Y300856D01*
X19095Y300745D01*
X19039Y300671D01*
X18993Y300624D01*
X18984Y300615D01*
X18882Y300504D01*
X18762Y300402D01*
X18651Y300319D01*
X18540Y300236D01*
X18447Y300171D01*
X18373Y300125D01*
X18318Y300088D01*
X18308Y300079D01*
X18299D01*
X18456Y300051D01*
X18595Y300014D01*
X18725Y299977D01*
X18854Y299931D01*
X18965Y299885D01*
X19067Y299838D01*
X19169Y299792D01*
X19252Y299736D01*
X19326Y299690D01*
X19391Y299644D01*
X19446Y299598D01*
X19483Y299561D01*
X19520Y299533D01*
X19548Y299505D01*
X19557Y299496D01*
X19567Y299487D01*
X19640Y299394D01*
X19705Y299302D01*
X19816Y299098D01*
X19890Y298904D01*
X19937Y298710D01*
X19974Y298543D01*
X19983Y298479D01*
Y298414D01*
X19992Y298368D01*
Y298321D01*
Y298303D01*
Y298293D01*
X19983Y298090D01*
X19946Y297896D01*
X19899Y297729D01*
X19853Y297581D01*
X19798Y297461D01*
X19751Y297369D01*
X19733Y297341D01*
X19715Y297313D01*
X19705Y297304D01*
Y297294D01*
X19594Y297137D01*
X19474Y297008D01*
X19354Y296906D01*
X19233Y296814D01*
X19123Y296758D01*
X19039Y296712D01*
X18984Y296684D01*
X18974Y296675D01*
X18965D01*
X18873Y296647D01*
X18771Y296619D01*
X18540Y296573D01*
X18290Y296545D01*
X18049Y296517D01*
X17929D01*
X17828Y296508D01*
X17726D01*
X17642Y296499D01*
X14757D01*
Y302900D01*
X16051D01*
Y300227D01*
X16468D01*
X16597Y300236D01*
X16708Y300245D01*
X16801Y300264D01*
X16875Y300273D01*
X16921Y300291D01*
X16949Y300301D01*
X16958D01*
X17032Y300338D01*
X17106Y300375D01*
X17171Y300421D01*
X17235Y300458D01*
X17282Y300504D01*
X17319Y300541D01*
X17337Y300560D01*
X17346Y300569D01*
X17383Y300615D01*
X17430Y300661D01*
X17531Y300800D01*
X17642Y300948D01*
X17763Y301115D01*
X17864Y301263D01*
X17911Y301337D01*
X17948Y301392D01*
X17985Y301438D01*
X18012Y301476D01*
X18022Y301503D01*
X18031Y301513D01*
X18956Y302900D01*
X20510D01*
X19724Y301651D01*
D02*
G37*
G36*
X81634Y299958D02*
X79220D01*
Y301189D01*
X81634D01*
Y299958D01*
D02*
G37*
G36*
X87702Y296462D02*
X86703D01*
X86611Y296675D01*
X86490Y296869D01*
X86361Y297054D01*
X86231Y297202D01*
X86120Y297322D01*
X86019Y297415D01*
X85982Y297452D01*
X85954Y297480D01*
X85935Y297489D01*
X85926Y297498D01*
X85723Y297646D01*
X85528Y297776D01*
X85352Y297877D01*
X85195Y297951D01*
X85066Y298007D01*
X84973Y298053D01*
X84936Y298062D01*
X84908Y298072D01*
X84899Y298081D01*
X84890D01*
Y299191D01*
X85223Y299061D01*
X85519Y298922D01*
X85658Y298849D01*
X85787Y298765D01*
X85908Y298691D01*
X86019Y298617D01*
X86120Y298543D01*
X86213Y298479D01*
X86287Y298423D01*
X86352Y298368D01*
X86407Y298321D01*
X86444Y298293D01*
X86462Y298275D01*
X86472Y298266D01*
Y302900D01*
X87702D01*
Y296462D01*
D02*
G37*
G36*
X103640Y301762D02*
X101198D01*
X101272Y301642D01*
X101355Y301540D01*
X101392Y301494D01*
X101420Y301457D01*
X101438Y301438D01*
X101447Y301429D01*
X101485Y301392D01*
X101522Y301346D01*
X101632Y301244D01*
X101753Y301124D01*
X101873Y301004D01*
X101993Y300893D01*
X102095Y300800D01*
X102132Y300763D01*
X102160Y300735D01*
X102178Y300726D01*
X102188Y300717D01*
X102391Y300523D01*
X102558Y300365D01*
X102696Y300218D01*
X102807Y300107D01*
X102891Y300014D01*
X102946Y299949D01*
X102983Y299903D01*
X102992Y299894D01*
X103112Y299736D01*
X103214Y299588D01*
X103297Y299450D01*
X103362Y299329D01*
X103418Y299228D01*
X103455Y299145D01*
X103473Y299098D01*
X103482Y299080D01*
X103538Y298932D01*
X103575Y298784D01*
X103603Y298645D01*
X103621Y298516D01*
X103630Y298414D01*
X103640Y298330D01*
Y298275D01*
Y298256D01*
X103630Y298118D01*
X103612Y297979D01*
X103594Y297849D01*
X103557Y297729D01*
X103464Y297516D01*
X103372Y297332D01*
X103316Y297248D01*
X103270Y297183D01*
X103224Y297119D01*
X103177Y297073D01*
X103140Y297036D01*
X103122Y296999D01*
X103103Y296989D01*
X103094Y296980D01*
X102992Y296887D01*
X102872Y296804D01*
X102761Y296740D01*
X102631Y296684D01*
X102391Y296591D01*
X102150Y296527D01*
X102040Y296508D01*
X101938Y296490D01*
X101845Y296480D01*
X101762Y296471D01*
X101697Y296462D01*
X101605D01*
X101447Y296471D01*
X101300Y296480D01*
X101013Y296527D01*
X100772Y296601D01*
X100661Y296638D01*
X100559Y296684D01*
X100467Y296721D01*
X100393Y296767D01*
X100319Y296804D01*
X100264Y296832D01*
X100217Y296869D01*
X100189Y296887D01*
X100171Y296897D01*
X100162Y296906D01*
X100060Y296999D01*
X99967Y297091D01*
X99884Y297202D01*
X99810Y297322D01*
X99699Y297563D01*
X99607Y297794D01*
X99579Y297914D01*
X99551Y298016D01*
X99524Y298109D01*
X99514Y298192D01*
X99496Y298266D01*
Y298312D01*
X99487Y298349D01*
Y298358D01*
X100707Y298479D01*
X100726Y298293D01*
X100763Y298136D01*
X100800Y297997D01*
X100846Y297896D01*
X100883Y297813D01*
X100920Y297757D01*
X100948Y297720D01*
X100957Y297711D01*
X101050Y297637D01*
X101152Y297581D01*
X101253Y297535D01*
X101355Y297507D01*
X101438Y297489D01*
X101512Y297480D01*
X101577D01*
X101716Y297489D01*
X101836Y297516D01*
X101938Y297553D01*
X102030Y297590D01*
X102095Y297627D01*
X102150Y297664D01*
X102178Y297692D01*
X102188Y297702D01*
X102261Y297794D01*
X102317Y297896D01*
X102354Y297997D01*
X102382Y298099D01*
X102400Y298192D01*
X102410Y298275D01*
Y298321D01*
Y298330D01*
Y298340D01*
X102400Y298479D01*
X102373Y298608D01*
X102326Y298738D01*
X102280Y298849D01*
X102234Y298950D01*
X102188Y299024D01*
X102160Y299071D01*
X102150Y299089D01*
X102113Y299145D01*
X102058Y299209D01*
X101984Y299292D01*
X101910Y299366D01*
X101743Y299542D01*
X101577Y299718D01*
X101410Y299885D01*
X101337Y299958D01*
X101262Y300014D01*
X101207Y300069D01*
X101170Y300107D01*
X101142Y300134D01*
X101133Y300144D01*
X100948Y300319D01*
X100782Y300486D01*
X100624Y300643D01*
X100486Y300782D01*
X100356Y300921D01*
X100245Y301050D01*
X100143Y301161D01*
X100060Y301272D01*
X99986Y301364D01*
X99921Y301448D01*
X99866Y301513D01*
X99829Y301577D01*
X99792Y301614D01*
X99773Y301651D01*
X99755Y301670D01*
Y301679D01*
X99634Y301892D01*
X99542Y302114D01*
X99468Y302317D01*
X99413Y302502D01*
X99375Y302669D01*
X99366Y302733D01*
X99357Y302789D01*
X99348Y302835D01*
X99339Y302872D01*
Y302891D01*
Y302900D01*
X103640D01*
Y301762D01*
D02*
G37*
G36*
X57575Y301818D02*
X54356D01*
Y296545D01*
X53061D01*
Y302900D01*
X57575D01*
Y301818D01*
D02*
G37*
G36*
X67139Y302891D02*
X67370Y302882D01*
X67565Y302863D01*
X67722Y302835D01*
X67852Y302807D01*
X67953Y302789D01*
X67981Y302780D01*
X68009D01*
X68018Y302770D01*
X68027D01*
X68231Y302696D01*
X68416Y302613D01*
X68564Y302530D01*
X68693Y302447D01*
X68795Y302373D01*
X68869Y302317D01*
X68915Y302280D01*
X68934Y302262D01*
X69091Y302086D01*
X69230Y301901D01*
X69350Y301707D01*
X69442Y301531D01*
X69516Y301364D01*
X69554Y301300D01*
X69572Y301244D01*
X69591Y301189D01*
X69609Y301152D01*
X69618Y301133D01*
Y301124D01*
X69683Y300902D01*
X69739Y300671D01*
X69775Y300449D01*
X69794Y300236D01*
X69803Y300134D01*
X69813Y300042D01*
Y299968D01*
X69822Y299894D01*
Y299838D01*
Y299801D01*
Y299774D01*
Y299764D01*
X69813Y299441D01*
X69785Y299154D01*
X69775Y299015D01*
X69757Y298895D01*
X69739Y298775D01*
X69720Y298673D01*
X69692Y298580D01*
X69674Y298497D01*
X69655Y298423D01*
X69646Y298368D01*
X69627Y298321D01*
X69618Y298284D01*
X69609Y298266D01*
Y298256D01*
X69526Y298035D01*
X69424Y297831D01*
X69322Y297655D01*
X69221Y297507D01*
X69137Y297387D01*
X69063Y297294D01*
X69017Y297239D01*
X69008Y297220D01*
X68998D01*
X68841Y297073D01*
X68684Y296952D01*
X68518Y296850D01*
X68370Y296767D01*
X68240Y296703D01*
X68129Y296656D01*
X68092Y296647D01*
X68064Y296638D01*
X68046Y296628D01*
X68037D01*
X67861Y296582D01*
X67667Y296554D01*
X67463Y296527D01*
X67269Y296517D01*
X67093Y296508D01*
X67019Y296499D01*
X64466D01*
Y302900D01*
X66890D01*
X67139Y302891D01*
D02*
G37*
G36*
X63809Y296499D02*
X62431D01*
X60868Y301235D01*
X59240Y296499D01*
X57843D01*
X60137Y302900D01*
X61534D01*
X63809Y296499D01*
D02*
G37*
G36*
X34533Y301818D02*
X30962D01*
Y300079D01*
X34172D01*
Y298996D01*
X30962D01*
Y297581D01*
X34413D01*
Y296499D01*
X29667D01*
Y302900D01*
X34533D01*
Y301818D01*
D02*
G37*
G36*
X29011Y296499D02*
X27632D01*
X26069Y301235D01*
X24441Y296499D01*
X23044D01*
X25339Y302900D01*
X26735D01*
X29011Y296499D01*
D02*
G37*
G36*
X22462D02*
X21167D01*
Y302900D01*
X22462D01*
Y296499D01*
D02*
G37*
G36*
X10973Y302891D02*
X11204Y302882D01*
X11399Y302863D01*
X11556Y302835D01*
X11686Y302807D01*
X11787Y302789D01*
X11815Y302780D01*
X11843D01*
X11852Y302770D01*
X11861D01*
X12065Y302696D01*
X12250Y302613D01*
X12398Y302530D01*
X12527Y302447D01*
X12629Y302373D01*
X12703Y302317D01*
X12749Y302280D01*
X12768Y302262D01*
X12925Y302086D01*
X13064Y301901D01*
X13184Y301707D01*
X13276Y301531D01*
X13351Y301364D01*
X13387Y301300D01*
X13406Y301244D01*
X13424Y301189D01*
X13443Y301152D01*
X13452Y301133D01*
Y301124D01*
X13517Y300902D01*
X13573Y300671D01*
X13610Y300449D01*
X13628Y300236D01*
X13637Y300134D01*
X13646Y300042D01*
Y299968D01*
X13656Y299894D01*
Y299838D01*
Y299801D01*
Y299774D01*
Y299764D01*
X13646Y299441D01*
X13619Y299154D01*
X13610Y299015D01*
X13591Y298895D01*
X13573Y298775D01*
X13554Y298673D01*
X13526Y298580D01*
X13508Y298497D01*
X13489Y298423D01*
X13480Y298368D01*
X13462Y298321D01*
X13452Y298284D01*
X13443Y298266D01*
Y298256D01*
X13360Y298035D01*
X13258Y297831D01*
X13156Y297655D01*
X13055Y297507D01*
X12971Y297387D01*
X12897Y297294D01*
X12851Y297239D01*
X12842Y297220D01*
X12833D01*
X12675Y297073D01*
X12518Y296952D01*
X12352Y296850D01*
X12203Y296767D01*
X12074Y296703D01*
X11963Y296656D01*
X11926Y296647D01*
X11898Y296638D01*
X11880Y296628D01*
X11870D01*
X11695Y296582D01*
X11501Y296554D01*
X11297Y296527D01*
X11103Y296517D01*
X10927Y296508D01*
X10853Y296499D01*
X8300D01*
Y302900D01*
X10723D01*
X10973Y302891D01*
D02*
G37*
G36*
X96758Y303011D02*
X96915Y302993D01*
X97072Y302956D01*
X97211Y302919D01*
X97341Y302872D01*
X97461Y302817D01*
X97562Y302752D01*
X97664Y302687D01*
X97747Y302632D01*
X97831Y302567D01*
X97895Y302512D01*
X97951Y302465D01*
X97988Y302428D01*
X98016Y302391D01*
X98034Y302373D01*
X98044Y302363D01*
X98154Y302206D01*
X98247Y302021D01*
X98339Y301827D01*
X98404Y301614D01*
X98469Y301401D01*
X98515Y301189D01*
X98562Y300967D01*
X98598Y300754D01*
X98617Y300551D01*
X98636Y300365D01*
X98654Y300190D01*
X98663Y300042D01*
X98672Y299921D01*
Y299829D01*
Y299792D01*
Y299764D01*
Y299755D01*
Y299746D01*
X98663Y299413D01*
X98645Y299108D01*
X98617Y298830D01*
X98571Y298571D01*
X98524Y298330D01*
X98478Y298118D01*
X98413Y297923D01*
X98358Y297757D01*
X98303Y297600D01*
X98247Y297480D01*
X98191Y297369D01*
X98145Y297276D01*
X98099Y297211D01*
X98071Y297165D01*
X98053Y297137D01*
X98044Y297128D01*
X97942Y297008D01*
X97831Y296906D01*
X97711Y296823D01*
X97590Y296740D01*
X97470Y296675D01*
X97350Y296628D01*
X97239Y296582D01*
X97119Y296545D01*
X97008Y296517D01*
X96915Y296499D01*
X96823Y296480D01*
X96749Y296471D01*
X96684Y296462D01*
X96591D01*
X96425Y296471D01*
X96267Y296490D01*
X96110Y296527D01*
X95972Y296564D01*
X95842Y296619D01*
X95722Y296675D01*
X95620Y296730D01*
X95518Y296795D01*
X95435Y296860D01*
X95352Y296915D01*
X95287Y296971D01*
X95241Y297026D01*
X95195Y297063D01*
X95167Y297100D01*
X95148Y297119D01*
X95139Y297128D01*
X95028Y297285D01*
X94936Y297470D01*
X94852Y297664D01*
X94778Y297868D01*
X94723Y298081D01*
X94667Y298303D01*
X94630Y298516D01*
X94593Y298728D01*
X94575Y298932D01*
X94556Y299117D01*
X94538Y299292D01*
X94529Y299441D01*
X94519Y299561D01*
Y299653D01*
Y299690D01*
Y299718D01*
Y299727D01*
Y299736D01*
X94529Y300069D01*
X94547Y300375D01*
X94575Y300661D01*
X94612Y300921D01*
X94649Y301152D01*
X94695Y301364D01*
X94750Y301550D01*
X94806Y301716D01*
X94852Y301855D01*
X94908Y301984D01*
X94954Y302086D01*
X95000Y302169D01*
X95028Y302225D01*
X95056Y302271D01*
X95074Y302299D01*
X95083Y302308D01*
X95195Y302437D01*
X95315Y302539D01*
X95435Y302641D01*
X95565Y302715D01*
X95685Y302789D01*
X95814Y302845D01*
X95934Y302891D01*
X96055Y302928D01*
X96166Y302965D01*
X96267Y302983D01*
X96360Y303002D01*
X96434Y303011D01*
X96499D01*
X96554Y303020D01*
X96591D01*
X96758Y303011D01*
D02*
G37*
G36*
X73513D02*
X73781Y302983D01*
X74021Y302946D01*
X74123Y302928D01*
X74225Y302900D01*
X74308Y302882D01*
X74382Y302863D01*
X74447Y302845D01*
X74502Y302826D01*
X74549Y302807D01*
X74576Y302798D01*
X74595Y302789D01*
X74604D01*
X74808Y302687D01*
X74974Y302576D01*
X75131Y302465D01*
X75252Y302345D01*
X75344Y302243D01*
X75418Y302151D01*
X75455Y302095D01*
X75473Y302086D01*
Y302077D01*
X75575Y301892D01*
X75659Y301716D01*
X75714Y301540D01*
X75751Y301374D01*
X75770Y301244D01*
X75779Y301180D01*
X75788Y301133D01*
Y301096D01*
Y301068D01*
Y301050D01*
Y301041D01*
X75779Y300819D01*
X75751Y300624D01*
X75705Y300449D01*
X75659Y300301D01*
X75612Y300181D01*
X75566Y300097D01*
X75538Y300042D01*
X75529Y300023D01*
X75427Y299875D01*
X75307Y299746D01*
X75187Y299635D01*
X75076Y299542D01*
X74974Y299468D01*
X74891Y299413D01*
X74835Y299376D01*
X74826Y299366D01*
X74817D01*
X74724Y299320D01*
X74632Y299274D01*
X74410Y299191D01*
X74178Y299117D01*
X73957Y299043D01*
X73855Y299015D01*
X73753Y298987D01*
X73660Y298959D01*
X73586Y298941D01*
X73522Y298922D01*
X73475Y298913D01*
X73439Y298904D01*
X73429D01*
X73263Y298858D01*
X73115Y298821D01*
X72976Y298784D01*
X72847Y298747D01*
X72745Y298710D01*
X72643Y298673D01*
X72560Y298636D01*
X72486Y298608D01*
X72421Y298580D01*
X72375Y298552D01*
X72329Y298534D01*
X72301Y298516D01*
X72255Y298488D01*
X72245Y298479D01*
X72180Y298414D01*
X72134Y298349D01*
X72106Y298284D01*
X72088Y298219D01*
X72070Y298173D01*
X72060Y298127D01*
Y298099D01*
Y298090D01*
X72070Y297997D01*
X72088Y297923D01*
X72125Y297849D01*
X72162Y297794D01*
X72199Y297748D01*
X72236Y297720D01*
X72255Y297702D01*
X72264Y297692D01*
X72393Y297609D01*
X72532Y297553D01*
X72680Y297507D01*
X72819Y297480D01*
X72939Y297461D01*
X73041Y297452D01*
X73133D01*
X73327Y297461D01*
X73494Y297489D01*
X73633Y297526D01*
X73744Y297563D01*
X73836Y297600D01*
X73901Y297637D01*
X73938Y297664D01*
X73947Y297674D01*
X74040Y297766D01*
X74123Y297877D01*
X74188Y297988D01*
X74234Y298109D01*
X74271Y298210D01*
X74290Y298293D01*
X74308Y298358D01*
Y298368D01*
Y298377D01*
X75603Y298330D01*
X75594Y298164D01*
X75566Y298016D01*
X75529Y297868D01*
X75483Y297739D01*
X75437Y297609D01*
X75381Y297489D01*
X75326Y297387D01*
X75270Y297285D01*
X75205Y297202D01*
X75150Y297128D01*
X75094Y297063D01*
X75048Y297008D01*
X75011Y296971D01*
X74983Y296943D01*
X74965Y296924D01*
X74955Y296915D01*
X74835Y296823D01*
X74706Y296740D01*
X74567Y296666D01*
X74419Y296601D01*
X74271Y296554D01*
X74123Y296508D01*
X73827Y296444D01*
X73688Y296425D01*
X73568Y296407D01*
X73448Y296397D01*
X73346Y296388D01*
X73263Y296379D01*
X73152D01*
X72883Y296388D01*
X72643Y296416D01*
X72430Y296453D01*
X72245Y296490D01*
X72162Y296517D01*
X72088Y296536D01*
X72032Y296554D01*
X71977Y296573D01*
X71940Y296591D01*
X71912Y296601D01*
X71894Y296610D01*
X71885D01*
X71700Y296703D01*
X71542Y296804D01*
X71403Y296915D01*
X71293Y297017D01*
X71200Y297110D01*
X71144Y297183D01*
X71098Y297239D01*
X71089Y297248D01*
Y297257D01*
X70996Y297415D01*
X70932Y297581D01*
X70885Y297739D01*
X70858Y297877D01*
X70839Y297997D01*
X70821Y298090D01*
Y298127D01*
Y298155D01*
Y298164D01*
Y298173D01*
X70830Y298312D01*
X70849Y298451D01*
X70876Y298571D01*
X70913Y298691D01*
X71006Y298913D01*
X71117Y299108D01*
X71163Y299191D01*
X71219Y299255D01*
X71265Y299320D01*
X71311Y299376D01*
X71348Y299413D01*
X71376Y299441D01*
X71394Y299459D01*
X71403Y299468D01*
X71487Y299533D01*
X71588Y299598D01*
X71690Y299662D01*
X71811Y299718D01*
X72042Y299829D01*
X72282Y299921D01*
X72403Y299958D01*
X72504Y299995D01*
X72606Y300023D01*
X72689Y300051D01*
X72754Y300069D01*
X72809Y300088D01*
X72847Y300097D01*
X72856D01*
X73004Y300134D01*
X73133Y300171D01*
X73254Y300199D01*
X73365Y300227D01*
X73457Y300255D01*
X73540Y300273D01*
X73614Y300301D01*
X73679Y300319D01*
X73734Y300328D01*
X73781Y300347D01*
X73845Y300365D01*
X73883Y300384D01*
X73892D01*
X74012Y300430D01*
X74104Y300477D01*
X74188Y300523D01*
X74252Y300569D01*
X74299Y300606D01*
X74326Y300634D01*
X74345Y300652D01*
X74354Y300661D01*
X74401Y300726D01*
X74437Y300791D01*
X74456Y300856D01*
X74475Y300911D01*
X74484Y300967D01*
X74493Y301013D01*
Y301041D01*
Y301050D01*
X74484Y301180D01*
X74447Y301290D01*
X74391Y301401D01*
X74336Y301494D01*
X74271Y301568D01*
X74225Y301624D01*
X74188Y301660D01*
X74169Y301670D01*
X74040Y301753D01*
X73892Y301818D01*
X73734Y301864D01*
X73586Y301892D01*
X73448Y301910D01*
X73337Y301929D01*
X73235D01*
X73022Y301920D01*
X72837Y301883D01*
X72680Y301836D01*
X72541Y301781D01*
X72430Y301725D01*
X72356Y301679D01*
X72310Y301642D01*
X72291Y301633D01*
X72171Y301503D01*
X72079Y301364D01*
X71996Y301207D01*
X71940Y301050D01*
X71894Y300911D01*
X71857Y300800D01*
X71847Y300763D01*
Y300726D01*
X71838Y300708D01*
Y300698D01*
X70580Y300819D01*
X70608Y301013D01*
X70645Y301198D01*
X70701Y301374D01*
X70747Y301531D01*
X70811Y301679D01*
X70876Y301818D01*
X70941Y301938D01*
X71006Y302049D01*
X71070Y302141D01*
X71135Y302225D01*
X71191Y302299D01*
X71246Y302363D01*
X71283Y302410D01*
X71320Y302437D01*
X71339Y302456D01*
X71348Y302465D01*
X71478Y302567D01*
X71616Y302650D01*
X71764Y302724D01*
X71921Y302789D01*
X72070Y302835D01*
X72227Y302882D01*
X72532Y302946D01*
X72671Y302974D01*
X72800Y302993D01*
X72911Y303002D01*
X73013Y303011D01*
X73096Y303020D01*
X73216D01*
X73513Y303011D01*
D02*
G37*
G36*
X44680D02*
X44949Y302983D01*
X45189Y302946D01*
X45291Y302928D01*
X45393Y302900D01*
X45476Y302882D01*
X45550Y302863D01*
X45614Y302845D01*
X45670Y302826D01*
X45716Y302807D01*
X45744Y302798D01*
X45763Y302789D01*
X45772D01*
X45975Y302687D01*
X46142Y302576D01*
X46299Y302465D01*
X46419Y302345D01*
X46512Y302243D01*
X46586Y302151D01*
X46623Y302095D01*
X46641Y302086D01*
Y302077D01*
X46743Y301892D01*
X46826Y301716D01*
X46882Y301540D01*
X46919Y301374D01*
X46937Y301244D01*
X46946Y301180D01*
X46956Y301133D01*
Y301096D01*
Y301068D01*
Y301050D01*
Y301041D01*
X46946Y300819D01*
X46919Y300624D01*
X46872Y300449D01*
X46826Y300301D01*
X46780Y300181D01*
X46734Y300097D01*
X46706Y300042D01*
X46697Y300023D01*
X46595Y299875D01*
X46475Y299746D01*
X46354Y299635D01*
X46244Y299542D01*
X46142Y299468D01*
X46058Y299413D01*
X46003Y299376D01*
X45994Y299366D01*
X45985D01*
X45892Y299320D01*
X45799Y299274D01*
X45577Y299191D01*
X45346Y299117D01*
X45124Y299043D01*
X45022Y299015D01*
X44921Y298987D01*
X44828Y298959D01*
X44754Y298941D01*
X44690Y298922D01*
X44643Y298913D01*
X44606Y298904D01*
X44597D01*
X44431Y298858D01*
X44282Y298821D01*
X44144Y298784D01*
X44014Y298747D01*
X43913Y298710D01*
X43811Y298673D01*
X43727Y298636D01*
X43654Y298608D01*
X43589Y298580D01*
X43543Y298552D01*
X43496Y298534D01*
X43468Y298516D01*
X43422Y298488D01*
X43413Y298479D01*
X43348Y298414D01*
X43302Y298349D01*
X43274Y298284D01*
X43256Y298219D01*
X43237Y298173D01*
X43228Y298127D01*
Y298099D01*
Y298090D01*
X43237Y297997D01*
X43256Y297923D01*
X43293Y297849D01*
X43330Y297794D01*
X43367Y297748D01*
X43404Y297720D01*
X43422Y297702D01*
X43431Y297692D01*
X43561Y297609D01*
X43700Y297553D01*
X43848Y297507D01*
X43986Y297480D01*
X44107Y297461D01*
X44208Y297452D01*
X44301D01*
X44495Y297461D01*
X44662Y297489D01*
X44800Y297526D01*
X44912Y297563D01*
X45004Y297600D01*
X45069Y297637D01*
X45106Y297664D01*
X45115Y297674D01*
X45208Y297766D01*
X45291Y297877D01*
X45355Y297988D01*
X45402Y298109D01*
X45439Y298210D01*
X45457Y298293D01*
X45476Y298358D01*
Y298368D01*
Y298377D01*
X46771Y298330D01*
X46762Y298164D01*
X46734Y298016D01*
X46697Y297868D01*
X46650Y297739D01*
X46604Y297609D01*
X46549Y297489D01*
X46493Y297387D01*
X46438Y297285D01*
X46373Y297202D01*
X46317Y297128D01*
X46262Y297063D01*
X46216Y297008D01*
X46179Y296971D01*
X46151Y296943D01*
X46132Y296924D01*
X46123Y296915D01*
X46003Y296823D01*
X45873Y296740D01*
X45735Y296666D01*
X45587Y296601D01*
X45439Y296554D01*
X45291Y296508D01*
X44995Y296444D01*
X44856Y296425D01*
X44736Y296407D01*
X44616Y296397D01*
X44514Y296388D01*
X44431Y296379D01*
X44319D01*
X44051Y296388D01*
X43811Y296416D01*
X43598Y296453D01*
X43413Y296490D01*
X43330Y296517D01*
X43256Y296536D01*
X43200Y296554D01*
X43145Y296573D01*
X43108Y296591D01*
X43080Y296601D01*
X43062Y296610D01*
X43052D01*
X42867Y296703D01*
X42710Y296804D01*
X42571Y296915D01*
X42460Y297017D01*
X42368Y297110D01*
X42312Y297183D01*
X42266Y297239D01*
X42257Y297248D01*
Y297257D01*
X42164Y297415D01*
X42099Y297581D01*
X42053Y297739D01*
X42026Y297877D01*
X42007Y297997D01*
X41989Y298090D01*
Y298127D01*
Y298155D01*
Y298164D01*
Y298173D01*
X41998Y298312D01*
X42016Y298451D01*
X42044Y298571D01*
X42081Y298691D01*
X42173Y298913D01*
X42285Y299108D01*
X42331Y299191D01*
X42386Y299255D01*
X42432Y299320D01*
X42479Y299376D01*
X42516Y299413D01*
X42544Y299441D01*
X42562Y299459D01*
X42571Y299468D01*
X42654Y299533D01*
X42756Y299598D01*
X42858Y299662D01*
X42978Y299718D01*
X43209Y299829D01*
X43450Y299921D01*
X43570Y299958D01*
X43672Y299995D01*
X43774Y300023D01*
X43857Y300051D01*
X43922Y300069D01*
X43977Y300088D01*
X44014Y300097D01*
X44023D01*
X44172Y300134D01*
X44301Y300171D01*
X44421Y300199D01*
X44532Y300227D01*
X44625Y300255D01*
X44708Y300273D01*
X44782Y300301D01*
X44847Y300319D01*
X44902Y300328D01*
X44949Y300347D01*
X45013Y300365D01*
X45050Y300384D01*
X45059D01*
X45180Y300430D01*
X45272Y300477D01*
X45355Y300523D01*
X45420Y300569D01*
X45467Y300606D01*
X45494Y300634D01*
X45513Y300652D01*
X45522Y300661D01*
X45568Y300726D01*
X45605Y300791D01*
X45624Y300856D01*
X45642Y300911D01*
X45652Y300967D01*
X45661Y301013D01*
Y301041D01*
Y301050D01*
X45652Y301180D01*
X45614Y301290D01*
X45559Y301401D01*
X45504Y301494D01*
X45439Y301568D01*
X45393Y301624D01*
X45355Y301660D01*
X45337Y301670D01*
X45208Y301753D01*
X45059Y301818D01*
X44902Y301864D01*
X44754Y301892D01*
X44616Y301910D01*
X44504Y301929D01*
X44403D01*
X44190Y301920D01*
X44005Y301883D01*
X43848Y301836D01*
X43709Y301781D01*
X43598Y301725D01*
X43524Y301679D01*
X43478Y301642D01*
X43459Y301633D01*
X43339Y301503D01*
X43246Y301364D01*
X43163Y301207D01*
X43108Y301050D01*
X43062Y300911D01*
X43025Y300800D01*
X43015Y300763D01*
Y300726D01*
X43006Y300708D01*
Y300698D01*
X41748Y300819D01*
X41776Y301013D01*
X41813Y301198D01*
X41868Y301374D01*
X41914Y301531D01*
X41979Y301679D01*
X42044Y301818D01*
X42109Y301938D01*
X42173Y302049D01*
X42238Y302141D01*
X42303Y302225D01*
X42358Y302299D01*
X42414Y302363D01*
X42451Y302410D01*
X42488Y302437D01*
X42507Y302456D01*
X42516Y302465D01*
X42645Y302567D01*
X42784Y302650D01*
X42932Y302724D01*
X43089Y302789D01*
X43237Y302835D01*
X43395Y302882D01*
X43700Y302946D01*
X43839Y302974D01*
X43968Y302993D01*
X44079Y303002D01*
X44181Y303011D01*
X44264Y303020D01*
X44384D01*
X44680Y303011D01*
D02*
G37*
G36*
X173900Y268400D02*
X149600Y314200D01*
X198200D01*
X173900Y268400D01*
D02*
G37*
%LPC*%
G36*
X46661Y312003D02*
X46605D01*
X46476Y311984D01*
X46356Y311947D01*
X46254Y311901D01*
X46161Y311836D01*
X46087Y311781D01*
X46022Y311725D01*
X45985Y311688D01*
X45976Y311679D01*
X45884Y311549D01*
X45819Y311402D01*
X45773Y311244D01*
X45745Y311096D01*
X45726Y310958D01*
X45708Y310856D01*
Y310809D01*
Y310782D01*
Y310763D01*
Y310754D01*
X45717Y310560D01*
X45745Y310393D01*
X45782Y310255D01*
X45828Y310134D01*
X45875Y310051D01*
X45911Y309986D01*
X45939Y309940D01*
X45948Y309931D01*
X46041Y309838D01*
X46143Y309764D01*
X46244Y309718D01*
X46337Y309681D01*
X46420Y309663D01*
X46494Y309644D01*
X46550D01*
X46679Y309653D01*
X46799Y309690D01*
X46901Y309736D01*
X46994Y309792D01*
X47068Y309847D01*
X47114Y309894D01*
X47151Y309931D01*
X47160Y309940D01*
X47243Y310060D01*
X47308Y310208D01*
X47345Y310366D01*
X47382Y310513D01*
X47401Y310652D01*
X47410Y310763D01*
Y310800D01*
Y310837D01*
Y310856D01*
Y310865D01*
X47401Y311078D01*
X47373Y311263D01*
X47336Y311411D01*
X47299Y311531D01*
X47253Y311624D01*
X47216Y311688D01*
X47188Y311735D01*
X47179Y311744D01*
X47086Y311827D01*
X46994Y311892D01*
X46892Y311938D01*
X46809Y311966D01*
X46725Y311984D01*
X46661Y312003D01*
D02*
G37*
G36*
X11733Y311818D02*
X10595D01*
Y307581D01*
X11437D01*
X11557Y307591D01*
X11668D01*
X11761Y307600D01*
X11844D01*
X11927Y307609D01*
X11992D01*
X12094Y307628D01*
X12167Y307637D01*
X12214Y307646D01*
X12223D01*
X12353Y307683D01*
X12464Y307729D01*
X12565Y307775D01*
X12658Y307831D01*
X12722Y307877D01*
X12778Y307914D01*
X12806Y307942D01*
X12815Y307951D01*
X12898Y308044D01*
X12972Y308145D01*
X13037Y308247D01*
X13092Y308340D01*
X13129Y308432D01*
X13157Y308506D01*
X13176Y308553D01*
X13185Y308562D01*
Y308571D01*
X13231Y308737D01*
X13268Y308913D01*
X13287Y309107D01*
X13305Y309293D01*
X13315Y309450D01*
X13324Y309524D01*
Y309589D01*
Y309635D01*
Y309672D01*
Y309700D01*
Y309709D01*
X13315Y309968D01*
X13305Y310208D01*
X13277Y310402D01*
X13259Y310569D01*
X13231Y310708D01*
X13222Y310763D01*
X13204Y310800D01*
X13194Y310837D01*
Y310865D01*
X13185Y310874D01*
Y310883D01*
X13129Y311032D01*
X13083Y311161D01*
X13018Y311263D01*
X12972Y311346D01*
X12926Y311411D01*
X12889Y311457D01*
X12861Y311485D01*
X12852Y311494D01*
X12769Y311559D01*
X12686Y311614D01*
X12602Y311661D01*
X12519Y311698D01*
X12445Y311725D01*
X12389Y311744D01*
X12353Y311762D01*
X12334D01*
X12232Y311781D01*
X12112Y311790D01*
X11982Y311808D01*
X11853D01*
X11733Y311818D01*
D02*
G37*
G36*
X36486Y312003D02*
X36449D01*
X36366Y311994D01*
X36292Y311984D01*
X36227Y311957D01*
X36171Y311929D01*
X36125Y311910D01*
X36088Y311882D01*
X36070Y311873D01*
X36060Y311864D01*
X36005Y311799D01*
X35949Y311716D01*
X35903Y311624D01*
X35857Y311531D01*
X35829Y311448D01*
X35801Y311374D01*
X35792Y311328D01*
X35783Y311309D01*
X35764Y311216D01*
X35746Y311115D01*
X35727Y311004D01*
X35718Y310883D01*
X35699Y310625D01*
X35690Y310366D01*
X35681Y310245D01*
Y310125D01*
X35672Y310023D01*
Y309931D01*
Y309857D01*
Y309792D01*
Y309755D01*
Y309746D01*
Y309542D01*
X35681Y309348D01*
Y309181D01*
X35690Y309015D01*
X35699Y308876D01*
X35709Y308737D01*
X35718Y308627D01*
X35737Y308516D01*
X35746Y308423D01*
X35755Y308349D01*
X35764Y308284D01*
X35774Y308229D01*
X35783Y308192D01*
Y308155D01*
X35792Y308145D01*
Y308136D01*
X35829Y308007D01*
X35875Y307896D01*
X35912Y307812D01*
X35958Y307738D01*
X35996Y307692D01*
X36023Y307655D01*
X36042Y307637D01*
X36051Y307628D01*
X36116Y307581D01*
X36190Y307544D01*
X36255Y307517D01*
X36319Y307498D01*
X36366Y307489D01*
X36412Y307480D01*
X36449D01*
X36532Y307489D01*
X36606Y307498D01*
X36671Y307526D01*
X36726Y307554D01*
X36773Y307581D01*
X36810Y307600D01*
X36828Y307618D01*
X36837Y307628D01*
X36893Y307692D01*
X36948Y307775D01*
X36994Y307868D01*
X37041Y307961D01*
X37069Y308053D01*
X37096Y308127D01*
X37106Y308173D01*
X37115Y308183D01*
Y308192D01*
X37133Y308275D01*
X37152Y308377D01*
X37170Y308497D01*
X37189Y308617D01*
X37207Y308867D01*
X37216Y309126D01*
X37226Y309246D01*
Y309366D01*
X37235Y309468D01*
Y309561D01*
Y309635D01*
Y309700D01*
Y309736D01*
Y309746D01*
Y309949D01*
X37226Y310143D01*
Y310319D01*
X37216Y310476D01*
X37207Y310625D01*
X37198Y310754D01*
X37179Y310874D01*
X37170Y310976D01*
X37161Y311069D01*
X37143Y311142D01*
X37133Y311207D01*
X37124Y311263D01*
X37115Y311300D01*
Y311337D01*
X37106Y311346D01*
Y311355D01*
X37069Y311485D01*
X37022Y311586D01*
X36976Y311679D01*
X36939Y311744D01*
X36902Y311799D01*
X36865Y311836D01*
X36847Y311855D01*
X36837Y311864D01*
X36773Y311910D01*
X36708Y311947D01*
X36643Y311966D01*
X36578Y311984D01*
X36532Y311994D01*
X36486Y312003D01*
D02*
G37*
G36*
X38187Y299209D02*
X36929D01*
Y297581D01*
X38409D01*
X38492Y297590D01*
X38695D01*
X38779Y297600D01*
X38834D01*
X38862Y297609D01*
X38871D01*
X38982Y297637D01*
X39084Y297674D01*
X39167Y297711D01*
X39232Y297757D01*
X39287Y297803D01*
X39334Y297831D01*
X39352Y297859D01*
X39362Y297868D01*
X39417Y297942D01*
X39463Y298035D01*
X39491Y298118D01*
X39519Y298201D01*
X39528Y298275D01*
X39537Y298330D01*
Y298368D01*
Y298386D01*
X39528Y298488D01*
X39519Y298580D01*
X39491Y298663D01*
X39472Y298738D01*
X39445Y298793D01*
X39417Y298830D01*
X39408Y298858D01*
X39399Y298867D01*
X39343Y298932D01*
X39287Y298987D01*
X39167Y299071D01*
X39121Y299098D01*
X39075Y299117D01*
X39047Y299135D01*
X39038D01*
X38991Y299145D01*
X38917Y299163D01*
X38844Y299172D01*
X38760Y299182D01*
X38566Y299191D01*
X38372Y299200D01*
X38187Y299209D01*
D02*
G37*
G36*
X17310D02*
X16051D01*
Y297581D01*
X17531D01*
X17615Y297590D01*
X17818D01*
X17901Y297600D01*
X17957D01*
X17985Y297609D01*
X17994D01*
X18105Y297637D01*
X18207Y297674D01*
X18290Y297711D01*
X18355Y297757D01*
X18410Y297803D01*
X18456Y297831D01*
X18475Y297859D01*
X18484Y297868D01*
X18540Y297942D01*
X18586Y298035D01*
X18614Y298118D01*
X18642Y298201D01*
X18651Y298275D01*
X18660Y298330D01*
Y298368D01*
Y298386D01*
X18651Y298488D01*
X18642Y298580D01*
X18614Y298663D01*
X18595Y298738D01*
X18567Y298793D01*
X18540Y298830D01*
X18530Y298858D01*
X18521Y298867D01*
X18466Y298932D01*
X18410Y298987D01*
X18290Y299071D01*
X18244Y299098D01*
X18198Y299117D01*
X18170Y299135D01*
X18160D01*
X18114Y299145D01*
X18040Y299163D01*
X17966Y299172D01*
X17883Y299182D01*
X17689Y299191D01*
X17494Y299200D01*
X17310Y299209D01*
D02*
G37*
G36*
X66899Y301818D02*
X65761D01*
Y297581D01*
X66603D01*
X66723Y297590D01*
X66834D01*
X66926Y297600D01*
X67010D01*
X67093Y297609D01*
X67158D01*
X67260Y297627D01*
X67334Y297637D01*
X67380Y297646D01*
X67389D01*
X67519Y297683D01*
X67629Y297729D01*
X67731Y297776D01*
X67824Y297831D01*
X67888Y297877D01*
X67944Y297914D01*
X67972Y297942D01*
X67981Y297951D01*
X68064Y298044D01*
X68138Y298146D01*
X68203Y298247D01*
X68259Y298340D01*
X68296Y298432D01*
X68323Y298506D01*
X68342Y298552D01*
X68351Y298562D01*
Y298571D01*
X68397Y298738D01*
X68434Y298913D01*
X68453Y299108D01*
X68471Y299292D01*
X68480Y299450D01*
X68490Y299524D01*
Y299588D01*
Y299635D01*
Y299672D01*
Y299699D01*
Y299709D01*
X68480Y299968D01*
X68471Y300208D01*
X68444Y300402D01*
X68425Y300569D01*
X68397Y300708D01*
X68388Y300763D01*
X68370Y300800D01*
X68360Y300837D01*
Y300865D01*
X68351Y300874D01*
Y300884D01*
X68296Y301031D01*
X68249Y301161D01*
X68185Y301263D01*
X68138Y301346D01*
X68092Y301411D01*
X68055Y301457D01*
X68027Y301485D01*
X68018Y301494D01*
X67935Y301559D01*
X67852Y301614D01*
X67768Y301660D01*
X67685Y301697D01*
X67611Y301725D01*
X67555Y301744D01*
X67519Y301762D01*
X67500D01*
X67398Y301781D01*
X67278Y301790D01*
X67149Y301809D01*
X67019D01*
X66899Y301818D01*
D02*
G37*
G36*
X10733D02*
X9595D01*
Y297581D01*
X10437D01*
X10557Y297590D01*
X10668D01*
X10761Y297600D01*
X10844D01*
X10927Y297609D01*
X10992D01*
X11094Y297627D01*
X11168Y297637D01*
X11214Y297646D01*
X11223D01*
X11353Y297683D01*
X11463Y297729D01*
X11565Y297776D01*
X11658Y297831D01*
X11722Y297877D01*
X11778Y297914D01*
X11806Y297942D01*
X11815Y297951D01*
X11898Y298044D01*
X11972Y298146D01*
X12037Y298247D01*
X12093Y298340D01*
X12129Y298432D01*
X12157Y298506D01*
X12176Y298552D01*
X12185Y298562D01*
Y298571D01*
X12231Y298738D01*
X12268Y298913D01*
X12287Y299108D01*
X12305Y299292D01*
X12314Y299450D01*
X12324Y299524D01*
Y299588D01*
Y299635D01*
Y299672D01*
Y299699D01*
Y299709D01*
X12314Y299968D01*
X12305Y300208D01*
X12278Y300402D01*
X12259Y300569D01*
X12231Y300708D01*
X12222Y300763D01*
X12203Y300800D01*
X12194Y300837D01*
Y300865D01*
X12185Y300874D01*
Y300884D01*
X12129Y301031D01*
X12083Y301161D01*
X12019Y301263D01*
X11972Y301346D01*
X11926Y301411D01*
X11889Y301457D01*
X11861Y301485D01*
X11852Y301494D01*
X11769Y301559D01*
X11686Y301614D01*
X11602Y301660D01*
X11519Y301697D01*
X11445Y301725D01*
X11389Y301744D01*
X11353Y301762D01*
X11334D01*
X11232Y301781D01*
X11112Y301790D01*
X10983Y301809D01*
X10853D01*
X10733Y301818D01*
D02*
G37*
G36*
X96628Y302003D02*
X96591D01*
X96508Y301993D01*
X96434Y301984D01*
X96369Y301957D01*
X96314Y301929D01*
X96267Y301910D01*
X96231Y301883D01*
X96212Y301873D01*
X96203Y301864D01*
X96147Y301799D01*
X96092Y301716D01*
X96046Y301624D01*
X95999Y301531D01*
X95972Y301448D01*
X95944Y301374D01*
X95934Y301327D01*
X95925Y301309D01*
X95907Y301217D01*
X95888Y301115D01*
X95870Y301004D01*
X95860Y300884D01*
X95842Y300624D01*
X95833Y300365D01*
X95824Y300245D01*
Y300125D01*
X95814Y300023D01*
Y299931D01*
Y299857D01*
Y299792D01*
Y299755D01*
Y299746D01*
Y299542D01*
X95824Y299348D01*
Y299182D01*
X95833Y299015D01*
X95842Y298876D01*
X95851Y298738D01*
X95860Y298626D01*
X95879Y298516D01*
X95888Y298423D01*
X95898Y298349D01*
X95907Y298284D01*
X95916Y298229D01*
X95925Y298192D01*
Y298155D01*
X95934Y298146D01*
Y298136D01*
X95972Y298007D01*
X96018Y297896D01*
X96055Y297813D01*
X96101Y297739D01*
X96138Y297692D01*
X96166Y297655D01*
X96184Y297637D01*
X96193Y297627D01*
X96258Y297581D01*
X96332Y297544D01*
X96397Y297516D01*
X96462Y297498D01*
X96508Y297489D01*
X96554Y297480D01*
X96591D01*
X96675Y297489D01*
X96749Y297498D01*
X96813Y297526D01*
X96869Y297553D01*
X96915Y297581D01*
X96952Y297600D01*
X96970Y297618D01*
X96980Y297627D01*
X97035Y297692D01*
X97091Y297776D01*
X97137Y297868D01*
X97183Y297960D01*
X97211Y298053D01*
X97239Y298127D01*
X97248Y298173D01*
X97257Y298183D01*
Y298192D01*
X97276Y298275D01*
X97294Y298377D01*
X97313Y298497D01*
X97331Y298617D01*
X97350Y298867D01*
X97359Y299126D01*
X97368Y299246D01*
Y299366D01*
X97378Y299468D01*
Y299561D01*
Y299635D01*
Y299699D01*
Y299736D01*
Y299746D01*
Y299949D01*
X97368Y300144D01*
Y300319D01*
X97359Y300477D01*
X97350Y300624D01*
X97341Y300754D01*
X97322Y300874D01*
X97313Y300976D01*
X97303Y301068D01*
X97285Y301143D01*
X97276Y301207D01*
X97267Y301263D01*
X97257Y301300D01*
Y301337D01*
X97248Y301346D01*
Y301355D01*
X97211Y301485D01*
X97165Y301587D01*
X97119Y301679D01*
X97082Y301744D01*
X97044Y301799D01*
X97008Y301836D01*
X96989Y301855D01*
X96980Y301864D01*
X96915Y301910D01*
X96850Y301947D01*
X96785Y301966D01*
X96721Y301984D01*
X96675Y301993D01*
X96628Y302003D01*
D02*
G37*
G36*
X194430Y311400D02*
X153370D01*
X173900Y272300D01*
X194430Y311400D01*
D02*
G37*
%LPD*%
D17*
X27000Y38000D02*
X29000D01*
X26000Y36000D02*
X30000D01*
X24000Y34000D02*
X32000D01*
X20543Y32000D02*
X28000D01*
Y34000D01*
X28228Y7000D02*
Y9000D01*
X20500Y7000D02*
X28228D01*
X24228Y9000D02*
X32228D01*
X26228Y11000D02*
X30228D01*
X27228Y13000D02*
X29228D01*
X27185Y75000D02*
X29185D01*
X26185Y73000D02*
X30185D01*
X24185Y71000D02*
X32185D01*
X20457Y69000D02*
X28185D01*
Y71000D01*
X27957Y94000D02*
Y96000D01*
X20500Y94000D02*
X27957D01*
X23957Y96000D02*
X31957D01*
X25957Y98000D02*
X29957D01*
X26957Y100000D02*
X28957D01*
X27185Y137000D02*
X29185D01*
X26185Y135000D02*
X30185D01*
X24185Y133000D02*
X32185D01*
X20457Y131000D02*
X28185D01*
Y133000D01*
X27957Y156000D02*
Y158000D01*
X20500Y156000D02*
X27957D01*
X23957Y158000D02*
X31957D01*
X25957Y160000D02*
X29957D01*
X26957Y162000D02*
X28957D01*
X27185Y199000D02*
X29185D01*
X26185Y197000D02*
X30185D01*
X24185Y195000D02*
X32185D01*
X20457Y193000D02*
X28185D01*
Y195000D01*
X27957Y218000D02*
Y220000D01*
X20500Y218000D02*
X27957D01*
X23957Y220000D02*
X31957D01*
X25957Y222000D02*
X29957D01*
X26957Y224000D02*
X28957D01*
X34000Y249000D02*
Y243002D01*
X36999D01*
X37999Y244002D01*
Y246001D01*
X36999Y247001D01*
X34000D01*
X35999D02*
X37999Y249000D01*
X39998Y243002D02*
X43997Y249000D01*
Y243002D02*
X39998Y249000D01*
X222000Y228002D02*
X225999D01*
X223999D01*
Y234000D01*
X227998Y228002D02*
X231997Y234000D01*
Y228002D02*
X227998Y234000D01*
X0Y0D02*
X260000D01*
Y320000D01*
X0D02*
X260000D01*
X0Y0D02*
Y320000D01*
D18*
X47000Y225000D02*
Y229000D01*
Y216000D02*
Y220000D01*
Y207000D02*
Y211000D01*
Y198000D02*
Y202000D01*
Y189000D02*
Y193000D01*
Y144000D02*
Y148000D01*
Y153000D02*
Y157000D01*
Y162000D02*
Y166000D01*
Y171000D02*
Y175000D01*
Y180000D02*
Y184000D01*
Y99000D02*
Y103000D01*
Y108000D02*
Y112000D01*
Y117000D02*
Y121000D01*
Y126000D02*
Y130000D01*
Y135000D02*
Y139000D01*
Y54000D02*
Y58000D01*
Y63000D02*
Y67000D01*
Y72000D02*
Y76000D01*
Y81000D02*
Y85000D01*
Y90000D02*
Y94000D01*
Y9000D02*
Y13000D01*
Y18000D02*
Y22000D01*
Y27000D02*
Y31000D01*
Y36000D02*
Y40000D01*
Y45000D02*
Y49000D01*
X215000D02*
Y53000D01*
Y40000D02*
Y44000D01*
Y31000D02*
Y35000D01*
Y22000D02*
Y26000D01*
Y13000D02*
Y17000D01*
Y94000D02*
Y98000D01*
Y85000D02*
Y89000D01*
Y76000D02*
Y80000D01*
Y67000D02*
Y71000D01*
Y58000D02*
Y62000D01*
Y139000D02*
Y143000D01*
Y130000D02*
Y134000D01*
Y121000D02*
Y125000D01*
Y112000D02*
Y116000D01*
Y103000D02*
Y107000D01*
Y184000D02*
Y188000D01*
Y175000D02*
Y179000D01*
Y166000D02*
Y170000D01*
Y157000D02*
Y161000D01*
Y148000D02*
Y152000D01*
Y193000D02*
Y197000D01*
Y202000D02*
Y206000D01*
Y211000D02*
Y215000D01*
Y220000D02*
Y224000D01*
Y229000D02*
Y233000D01*
D19*
X174800Y305100D02*
G03*
X174800Y305100I-1000J0D01*
G01*
D20*
X11500Y243000D02*
G03*
X11500Y243000I-500J0D01*
G01*
Y181000D02*
G03*
X11500Y181000I-500J0D01*
G01*
Y119000D02*
G03*
X11500Y119000I-500J0D01*
G01*
Y57000D02*
G03*
X11500Y57000I-500J0D01*
G01*
X250500Y181000D02*
G03*
X250500Y181000I-500J0D01*
G01*
Y129000D02*
G03*
X250500Y129000I-500J0D01*
G01*
Y77000D02*
G03*
X250500Y77000I-500J0D01*
G01*
Y25000D02*
G03*
X250500Y25000I-500J0D01*
G01*
D33*
X206921Y235500D02*
G03*
X206921Y235500I-4921J0D01*
G01*
X55421Y236500D02*
G03*
X55421Y236500I-4921J0D01*
G01*
X112921Y32000D02*
G03*
X112921Y32000I-4921J0D01*
G01*
D36*
X30000Y272100D02*
X38100D01*
X40800D02*
X48900D01*
X53400D02*
X84300D01*
X30000Y272400D02*
X36900D01*
X42000D02*
X48900D01*
X53400D02*
X84600D01*
X30000Y272700D02*
X36000D01*
X42900D02*
X48900D01*
X53400D02*
X84600D01*
X30000Y273000D02*
X35400D01*
X43500D02*
X48900D01*
X53400D02*
X84600D01*
X30000Y273300D02*
X34800D01*
X44100D02*
X48900D01*
X53400D02*
X84600D01*
X30000Y273600D02*
X34200D01*
X44700D02*
X48900D01*
X53400D02*
X84600D01*
X30000Y273900D02*
X33900D01*
X45000D02*
X48900D01*
X53400D02*
X84600D01*
X30000Y274200D02*
X33600D01*
X45300D02*
X48900D01*
X53400D02*
X84600D01*
X30000Y274500D02*
X33000D01*
X45600D02*
X48900D01*
X53700D02*
X84300D01*
X30000Y274800D02*
X32700D01*
X45900D02*
X48900D01*
X30000Y275100D02*
X32400D01*
X33000D02*
X37800D01*
X40800D02*
X45900D01*
X46200D02*
X48900D01*
X30000Y275400D02*
X32100D01*
X33000D02*
X36900D01*
X41700D02*
X45900D01*
X46500D02*
X48900D01*
X30000Y275700D02*
X32100D01*
X33000D02*
X36300D01*
X42600D02*
X45900D01*
X46800D02*
X48900D01*
X30000Y276000D02*
X31800D01*
X33000D02*
X35700D01*
X42900D02*
X45900D01*
X47100D02*
X48900D01*
X30000Y276300D02*
X31500D01*
X33000D02*
X35400D01*
X43500D02*
X45900D01*
X47400D02*
X48900D01*
X81300D02*
X81600D01*
X30000Y276600D02*
X31200D01*
X33000D02*
X35100D01*
X43800D02*
X45900D01*
X47400D02*
X48900D01*
X80700D02*
X81900D01*
X30000Y276900D02*
X31200D01*
X33000D02*
X34800D01*
X44100D02*
X45900D01*
X47700D02*
X48900D01*
X80100D02*
X81900D01*
X30000Y277200D02*
X30900D01*
X33000D02*
X34500D01*
X44400D02*
X45900D01*
X47700D02*
X48900D01*
X79800D02*
X81300D01*
X30000Y277500D02*
X30900D01*
X33000D02*
X34200D01*
X44700D02*
X45900D01*
X48000D02*
X48900D01*
X80100D02*
X80400D01*
X30000Y277800D02*
X30600D01*
X33000D02*
X33900D01*
X44700D02*
X45900D01*
X48000D02*
X48900D01*
X30000Y278100D02*
X30600D01*
X33000D02*
X33900D01*
X45000D02*
X45900D01*
X48300D02*
X48900D01*
X30000Y278400D02*
X30600D01*
X33000D02*
X33600D01*
X45300D02*
X45900D01*
X48300D02*
X48900D01*
X54000D02*
X57000D01*
X59400D02*
X62400D01*
X65100D02*
X68100D01*
X70800D02*
X72600D01*
X75000D02*
X76800D01*
X79500D02*
X82200D01*
X30000Y278700D02*
X30300D01*
X33000D02*
X33600D01*
X45300D02*
X45900D01*
X48300D02*
X48900D01*
X54000D02*
X57000D01*
X59400D02*
X62400D01*
X65100D02*
X68100D01*
X70800D02*
X72600D01*
X75000D02*
X76800D01*
X79500D02*
X82500D01*
X30000Y279000D02*
X30300D01*
X33000D02*
X33300D01*
X45600D02*
X45900D01*
X48600D02*
X48900D01*
X54000D02*
X57000D01*
X59400D02*
X62400D01*
X65100D02*
X68100D01*
X70800D02*
X72600D01*
X75000D02*
X76800D01*
X79200D02*
X82500D01*
X30000Y279300D02*
X30300D01*
X33000D02*
X33300D01*
X45600D02*
X45900D01*
X48600D02*
X48900D01*
X54000D02*
X57300D01*
X59100D02*
X62400D01*
X64800D02*
X68400D01*
X70800D02*
X72600D01*
X75000D02*
X76800D01*
X79200D02*
X82500D01*
X30000Y279600D02*
X30300D01*
X45600D02*
X45900D01*
X48600D02*
X48900D01*
X54000D02*
X57300D01*
X59100D02*
X62400D01*
X64800D02*
X68400D01*
X70800D02*
X72600D01*
X75000D02*
X76800D01*
X79200D02*
X82800D01*
X48600Y279900D02*
X48900D01*
X54000D02*
X57300D01*
X59100D02*
X62400D01*
X64800D02*
X66600D01*
X66900D02*
X68400D01*
X70800D02*
X72600D01*
X75000D02*
X76800D01*
X78900D02*
X80700D01*
X81000D02*
X82800D01*
X54000Y280200D02*
X55500D01*
X55800D02*
X57600D01*
X59100D02*
X60600D01*
X60900D02*
X62400D01*
X64500D02*
X66300D01*
X66900D02*
X68700D01*
X70800D02*
X72600D01*
X75000D02*
X76800D01*
X78900D02*
X80700D01*
X81300D02*
X82800D01*
X54000Y280500D02*
X55500D01*
X56100D02*
X57600D01*
X58800D02*
X60600D01*
X60900D02*
X62400D01*
X64500D02*
X66300D01*
X66900D02*
X68700D01*
X70800D02*
X72600D01*
X75000D02*
X76800D01*
X78900D02*
X80700D01*
X81300D02*
X83100D01*
X54000Y280800D02*
X55500D01*
X56100D02*
X57600D01*
X58800D02*
X60300D01*
X60900D02*
X62400D01*
X64500D02*
X66300D01*
X67200D02*
X68700D01*
X70800D02*
X72600D01*
X75000D02*
X76800D01*
X78600D02*
X80400D01*
X81300D02*
X83100D01*
X54000Y281100D02*
X55500D01*
X56100D02*
X57600D01*
X58800D02*
X60300D01*
X60900D02*
X62400D01*
X64500D02*
X66000D01*
X67200D02*
X69000D01*
X70800D02*
X72600D01*
X75000D02*
X76800D01*
X78600D02*
X80400D01*
X81300D02*
X83100D01*
X54000Y281400D02*
X55500D01*
X56400D02*
X57900D01*
X58500D02*
X60300D01*
X60900D02*
X62400D01*
X64200D02*
X66000D01*
X67200D02*
X69000D01*
X70800D02*
X72600D01*
X75000D02*
X76800D01*
X78600D02*
X80400D01*
X81600D02*
X83100D01*
X54000Y281700D02*
X55500D01*
X56400D02*
X57900D01*
X58500D02*
X60000D01*
X60900D02*
X62400D01*
X64200D02*
X66000D01*
X67200D02*
X69000D01*
X70800D02*
X72600D01*
X75000D02*
X76800D01*
X78600D02*
X80100D01*
X81600D02*
X83400D01*
X54000Y282000D02*
X55500D01*
X56400D02*
X57900D01*
X58500D02*
X60000D01*
X60900D02*
X62400D01*
X64200D02*
X66000D01*
X67500D02*
X69000D01*
X70800D02*
X72600D01*
X75000D02*
X76800D01*
X78300D02*
X80100D01*
X81600D02*
X83400D01*
X54000Y282300D02*
X55500D01*
X56700D02*
X60000D01*
X60900D02*
X62400D01*
X63900D02*
X65700D01*
X67500D02*
X69300D01*
X70800D02*
X72600D01*
X75000D02*
X76800D01*
X78300D02*
X80100D01*
X81900D02*
X83400D01*
X54000Y282600D02*
X55800D01*
X56700D02*
X59700D01*
X60900D02*
X62400D01*
X63900D02*
X69300D01*
X70800D02*
X72600D01*
X75000D02*
X76800D01*
X78300D02*
X83700D01*
X48600Y282900D02*
X48900D01*
X54000D02*
X55800D01*
X56700D02*
X59700D01*
X60900D02*
X62400D01*
X63900D02*
X69300D01*
X70800D02*
X72600D01*
X75000D02*
X76800D01*
X78000D02*
X83700D01*
X45600Y283200D02*
X45900D01*
X48600D02*
X48900D01*
X54000D02*
X55800D01*
X57000D02*
X59700D01*
X60900D02*
X62400D01*
X63600D02*
X69600D01*
X70800D02*
X72600D01*
X74700D02*
X76800D01*
X78000D02*
X83700D01*
X30000Y283500D02*
X30300D01*
X33000D02*
X33300D01*
X45600D02*
X45900D01*
X48600D02*
X48900D01*
X54000D02*
X55800D01*
X57000D02*
X59400D01*
X60900D02*
X62400D01*
X63600D02*
X69600D01*
X70800D02*
X73200D01*
X74400D02*
X76500D01*
X78000D02*
X84000D01*
X30000Y283800D02*
X30300D01*
X33000D02*
X33300D01*
X45600D02*
X45900D01*
X48600D02*
X48900D01*
X54000D02*
X55800D01*
X57000D02*
X59400D01*
X60900D02*
X62400D01*
X63600D02*
X65400D01*
X67800D02*
X69600D01*
X70800D02*
X76500D01*
X77700D02*
X79800D01*
X82200D02*
X84000D01*
X30000Y284100D02*
X30300D01*
X33000D02*
X33300D01*
X45300D02*
X45900D01*
X48300D02*
X48900D01*
X54000D02*
X55800D01*
X57300D02*
X59400D01*
X60600D02*
X62400D01*
X63600D02*
X65400D01*
X68100D02*
X69900D01*
X71100D02*
X76500D01*
X77700D02*
X79500D01*
X82200D02*
X84000D01*
X30000Y284400D02*
X30600D01*
X33000D02*
X33600D01*
X45300D02*
X45900D01*
X48300D02*
X48900D01*
X54000D02*
X55800D01*
X57300D02*
X59100D01*
X60600D02*
X62400D01*
X63300D02*
X65100D01*
X68100D02*
X69900D01*
X71400D02*
X76200D01*
X77700D02*
X79500D01*
X82500D02*
X84300D01*
X30000Y284700D02*
X30600D01*
X33000D02*
X33600D01*
X45000D02*
X45900D01*
X48300D02*
X48900D01*
X54000D02*
X55800D01*
X57300D02*
X59100D01*
X60600D02*
X62400D01*
X63300D02*
X65100D01*
X68100D02*
X69900D01*
X71700D02*
X75900D01*
X77400D02*
X79500D01*
X82500D02*
X84300D01*
X30000Y285000D02*
X30600D01*
X33000D02*
X33900D01*
X45000D02*
X45900D01*
X48000D02*
X48900D01*
X73200D02*
X74400D01*
X30000Y285300D02*
X30900D01*
X33000D02*
X34200D01*
X44700D02*
X45900D01*
X48000D02*
X48900D01*
X30000Y285600D02*
X30900D01*
X33000D02*
X34500D01*
X44400D02*
X45900D01*
X48000D02*
X48900D01*
X30000Y285900D02*
X31200D01*
X33000D02*
X34500D01*
X44100D02*
X45900D01*
X47700D02*
X48900D01*
X30000Y286200D02*
X31200D01*
X33000D02*
X34800D01*
X43800D02*
X45900D01*
X47400D02*
X48900D01*
X30000Y286500D02*
X31500D01*
X33000D02*
X35400D01*
X43500D02*
X45900D01*
X47400D02*
X48900D01*
X30000Y286800D02*
X31800D01*
X33000D02*
X35700D01*
X43200D02*
X45900D01*
X47100D02*
X48900D01*
X30000Y287100D02*
X31800D01*
X33000D02*
X36000D01*
X42600D02*
X45900D01*
X46800D02*
X48900D01*
X30000Y287400D02*
X32100D01*
X33000D02*
X36600D01*
X42000D02*
X45900D01*
X46800D02*
X48900D01*
X30000Y287700D02*
X32400D01*
X33000D02*
X37500D01*
X41400D02*
X45900D01*
X46500D02*
X48900D01*
X30000Y288000D02*
X32700D01*
X37200D02*
X37500D01*
X41100D02*
X41700D01*
X46200D02*
X48900D01*
X30000Y288300D02*
X33000D01*
X45900D02*
X48900D01*
X30000Y288600D02*
X33300D01*
X45600D02*
X48900D01*
X53400D02*
X84600D01*
X30000Y288900D02*
X33600D01*
X45300D02*
X48900D01*
X53400D02*
X84600D01*
X30000Y289200D02*
X34200D01*
X44700D02*
X48900D01*
X53400D02*
X84600D01*
X30000Y289500D02*
X34500D01*
X44400D02*
X48900D01*
X53400D02*
X84600D01*
X30000Y289800D02*
X35100D01*
X43800D02*
X48900D01*
X53400D02*
X84600D01*
X30000Y290100D02*
X35700D01*
X43200D02*
X48900D01*
X53400D02*
X84600D01*
X30000Y290400D02*
X36600D01*
X42300D02*
X48900D01*
X53400D02*
X84600D01*
X30000Y290700D02*
X37800D01*
X41100D02*
X48900D01*
X53400D02*
X84600D01*
D37*
X62900Y195346D02*
G03*
X63100Y188654I3447J-3246D01*
G01*
X72900Y188654D02*
G03*
X73100Y195346I-3246J3447D01*
G01*
X124900Y193347D02*
G03*
X125100Y186653I3447J-3246D01*
G01*
X134900Y186653D02*
G03*
X135100Y193346I-3246J3447D01*
G01*
X62900Y151347D02*
G03*
X63100Y144653I3447J-3246D01*
G01*
X72900Y144653D02*
G03*
X73100Y151346I-3246J3447D01*
G01*
X62900Y101347D02*
G03*
X63100Y94653I3447J-3246D01*
G01*
X72900Y94653D02*
G03*
X73100Y101346I-3246J3447D01*
G01*
X62900Y57346D02*
G03*
X63100Y50653I3447J-3246D01*
G01*
X72900Y50653D02*
G03*
X73100Y57346I-3246J3447D01*
G01*
X186900Y195346D02*
G03*
X187100Y188654I3447J-3246D01*
G01*
X196900Y188654D02*
G03*
X197100Y195346I-3246J3447D01*
G01*
X186900Y151347D02*
G03*
X187100Y144653I3447J-3246D01*
G01*
X196900Y144653D02*
G03*
X197100Y151346I-3246J3447D01*
G01*
X186900Y101347D02*
G03*
X187100Y94653I3447J-3246D01*
G01*
X196900Y94653D02*
G03*
X197100Y101346I-3246J3447D01*
G01*
X186900Y57346D02*
G03*
X187100Y50653I3447J-3246D01*
G01*
X196900Y50653D02*
G03*
X197100Y57346I-3246J3447D01*
G01*
X240457Y177457D02*
Y224543D01*
X247543D01*
Y177457D02*
Y224543D01*
X240457Y177457D02*
X247543D01*
X240457Y125457D02*
Y172543D01*
X247543D01*
Y125457D02*
Y172543D01*
X240457Y125457D02*
X247543D01*
X240457Y73457D02*
Y120543D01*
X247543D01*
Y73457D02*
Y120543D01*
X240457Y73457D02*
X247543D01*
X240457Y21457D02*
Y68543D01*
X247543D01*
Y21457D02*
Y68543D01*
X240457Y21457D02*
X247543D01*
X20543Y3457D02*
Y60543D01*
X13457Y3457D02*
X20543D01*
X13457D02*
Y60543D01*
X20543D01*
Y65457D02*
Y122543D01*
X13457Y65457D02*
X20543D01*
X13457D02*
Y122543D01*
X20543D01*
Y127457D02*
Y184543D01*
X13457Y127457D02*
X20543D01*
X13457D02*
Y184543D01*
X20543D01*
Y189457D02*
Y246543D01*
X13457Y189457D02*
X20543D01*
X13457D02*
Y246543D01*
X20543D01*
X63100Y188654D02*
X72900D01*
X62900Y195346D02*
X73100D01*
X110413Y196158D02*
Y215843D01*
X149587Y196158D02*
Y215843D01*
X110413Y196158D02*
X149587D01*
X110413Y215843D02*
X149587D01*
X125100Y186653D02*
X134900D01*
X124900Y193347D02*
X135100D01*
X63100Y144653D02*
X72900D01*
X62900Y151347D02*
X73100D01*
X63100Y94653D02*
X72900D01*
X62900Y101347D02*
X73100D01*
X63100Y50653D02*
X72900D01*
X62900Y57346D02*
X73100D01*
X187100Y188654D02*
X196900D01*
X186900Y195346D02*
X197100D01*
X187100Y144653D02*
X196900D01*
X186900Y151347D02*
X197100D01*
X187100Y94653D02*
X196900D01*
X186900Y101347D02*
X197100D01*
X187100Y50653D02*
X196900D01*
X186900Y57346D02*
X197100D01*
X154713Y207674D02*
Y204300D01*
X156400Y205987D02*
X153026D01*
D38*
X250668Y49334D02*
X250001Y50001D01*
Y51334D01*
X250668Y52000D01*
X253334D01*
X254000Y51334D01*
Y50001D01*
X253334Y49334D01*
X254000Y48001D02*
X250001D01*
X254000Y45336D01*
X250001D01*
X250668Y44003D02*
X250001Y43336D01*
Y42003D01*
X250668Y41337D01*
X251334D01*
X252001Y42003D01*
X252667Y41337D01*
X253334D01*
X254000Y42003D01*
Y43336D01*
X253334Y44003D01*
X252667D01*
X252001Y43336D01*
X251334Y44003D01*
X250668D01*
X252001Y43336D02*
Y42003D01*
X250668Y100334D02*
X250001Y101001D01*
Y102334D01*
X250668Y103000D01*
X253334D01*
X254000Y102334D01*
Y101001D01*
X253334Y100334D01*
X254000Y99001D02*
X250001D01*
X254000Y96336D01*
X250001D01*
Y95003D02*
Y92337D01*
X250668D01*
X253334Y95003D01*
X254000D01*
X250668Y152334D02*
X250001Y153001D01*
Y154333D01*
X250668Y155000D01*
X253334D01*
X254000Y154333D01*
Y153001D01*
X253334Y152334D01*
X254000Y151001D02*
X250001D01*
X254000Y148336D01*
X250001D01*
Y144337D02*
X250668Y145670D01*
X252001Y147003D01*
X253334D01*
X254000Y146336D01*
Y145003D01*
X253334Y144337D01*
X252667D01*
X252001Y145003D01*
Y147003D01*
X250668Y203334D02*
X250001Y204001D01*
Y205334D01*
X250668Y206000D01*
X253334D01*
X254000Y205334D01*
Y204001D01*
X253334Y203334D01*
X254000Y202001D02*
X250001D01*
X254000Y199336D01*
X250001D01*
Y195337D02*
Y198003D01*
X252001D01*
X251334Y196670D01*
Y196003D01*
X252001Y195337D01*
X253334D01*
X254000Y196003D01*
Y197336D01*
X253334Y198003D01*
X7668Y34334D02*
X7001Y35001D01*
Y36334D01*
X7668Y37000D01*
X10334D01*
X11000Y36334D01*
Y35001D01*
X10334Y34334D01*
X11000Y33001D02*
X7001D01*
X11000Y30336D01*
X7001D01*
X11000Y27003D02*
X7001D01*
X9001Y29003D01*
Y26337D01*
X7668Y95334D02*
X7001Y96001D01*
Y97334D01*
X7668Y98000D01*
X10334D01*
X11000Y97334D01*
Y96001D01*
X10334Y95334D01*
X11000Y94001D02*
X7001D01*
X11000Y91335D01*
X7001D01*
X7668Y90003D02*
X7001Y89336D01*
Y88003D01*
X7668Y87337D01*
X8334D01*
X9001Y88003D01*
Y88670D01*
Y88003D01*
X9667Y87337D01*
X10334D01*
X11000Y88003D01*
Y89336D01*
X10334Y90003D01*
X7668Y157334D02*
X7001Y158001D01*
Y159334D01*
X7668Y160000D01*
X10334D01*
X11000Y159334D01*
Y158001D01*
X10334Y157334D01*
X11000Y156001D02*
X7001D01*
X11000Y153335D01*
X7001D01*
X11000Y149337D02*
Y152003D01*
X8334Y149337D01*
X7668D01*
X7001Y150003D01*
Y151336D01*
X7668Y152003D01*
Y218334D02*
X7001Y219001D01*
Y220334D01*
X7668Y221000D01*
X10334D01*
X11000Y220334D01*
Y219001D01*
X10334Y218334D01*
X11000Y217001D02*
X7001D01*
X11000Y214335D01*
X7001D01*
X11000Y213003D02*
Y211670D01*
Y212336D01*
X7001D01*
X7668Y213003D01*
X71666Y198668D02*
X70999Y198001D01*
X69666D01*
X69000Y198668D01*
Y201333D01*
X69666Y202000D01*
X70999D01*
X71666Y201333D01*
X72999Y202000D02*
X74332D01*
X73665D01*
Y198001D01*
X72999Y198668D01*
X71666Y103668D02*
X70999Y103001D01*
X69666D01*
X69000Y103668D01*
Y106333D01*
X69666Y107000D01*
X70999D01*
X71666Y106333D01*
X75665Y107000D02*
X72999D01*
X75665Y104334D01*
Y103668D01*
X74998Y103001D01*
X73665D01*
X72999Y103668D01*
X71666Y154668D02*
X70999Y154001D01*
X69666D01*
X69000Y154668D01*
Y157334D01*
X69666Y158000D01*
X70999D01*
X71666Y157334D01*
X72999Y154668D02*
X73665Y154001D01*
X74998D01*
X75665Y154668D01*
Y155334D01*
X74998Y156001D01*
X74332D01*
X74998D01*
X75665Y156667D01*
Y157334D01*
X74998Y158000D01*
X73665D01*
X72999Y157334D01*
X71666Y59668D02*
X70999Y59001D01*
X69666D01*
X69000Y59668D01*
Y62334D01*
X69666Y63000D01*
X70999D01*
X71666Y62334D01*
X74998Y63000D02*
Y59001D01*
X72999Y61001D01*
X75665D01*
X129666Y218668D02*
X128999Y218001D01*
X127666D01*
X127000Y218668D01*
Y221334D01*
X127666Y222000D01*
X128999D01*
X129666Y221334D01*
X133665Y218001D02*
X130999D01*
Y220001D01*
X132332Y219334D01*
X132998D01*
X133665Y220001D01*
Y221334D01*
X132998Y222000D01*
X131665D01*
X130999Y221334D01*
X195666Y198668D02*
X194999Y198001D01*
X193667D01*
X193000Y198668D01*
Y201333D01*
X193667Y202000D01*
X194999D01*
X195666Y201333D01*
X199664Y198001D02*
X198332Y198668D01*
X196999Y200001D01*
Y201333D01*
X197665Y202000D01*
X198998D01*
X199664Y201333D01*
Y200667D01*
X198998Y200001D01*
X196999D01*
X195666Y104668D02*
X194999Y104001D01*
X193667D01*
X193000Y104668D01*
Y107334D01*
X193667Y108000D01*
X194999D01*
X195666Y107334D01*
X196999Y104001D02*
X199664D01*
Y104668D01*
X196999Y107334D01*
Y108000D01*
X195666Y154668D02*
X194999Y154001D01*
X193667D01*
X193000Y154668D01*
Y157334D01*
X193667Y158000D01*
X194999D01*
X195666Y157334D01*
X196999Y154668D02*
X197665Y154001D01*
X198998D01*
X199664Y154668D01*
Y155334D01*
X198998Y156001D01*
X199664Y156667D01*
Y157334D01*
X198998Y158000D01*
X197665D01*
X196999Y157334D01*
Y156667D01*
X197665Y156001D01*
X196999Y155334D01*
Y154668D01*
X197665Y156001D02*
X198998D01*
X195666Y59668D02*
X194999Y59001D01*
X193667D01*
X193000Y59668D01*
Y62334D01*
X193667Y63000D01*
X194999D01*
X195666Y62334D01*
X196999D02*
X197665Y63000D01*
X198998D01*
X199664Y62334D01*
Y59668D01*
X198998Y59001D01*
X197665D01*
X196999Y59668D01*
Y60334D01*
X197665Y61001D01*
X199664D01*
X127666Y181668D02*
X126999Y181001D01*
X125666D01*
X125000Y181668D01*
Y184334D01*
X125666Y185000D01*
X126999D01*
X127666Y184334D01*
X128999Y185000D02*
X130332D01*
X129665D01*
Y181001D01*
X128999Y181668D01*
X132331D02*
X132997Y181001D01*
X134330D01*
X134997Y181668D01*
Y184334D01*
X134330Y185000D01*
X132997D01*
X132331Y184334D01*
Y181668D01*
X34000Y255001D02*
X36666D01*
X35333D01*
Y259000D01*
X37999D02*
Y255001D01*
X39998D01*
X40664Y255668D01*
Y257001D01*
X39998Y257667D01*
X37999D01*
X41997Y259666D02*
X44663D01*
X48662Y255668D02*
X47995Y255001D01*
X46663D01*
X45996Y255668D01*
Y258334D01*
X46663Y259000D01*
X47995D01*
X48662Y258334D01*
Y257001D01*
X47329D01*
X49995Y259000D02*
Y255001D01*
X52661Y259000D01*
Y255001D01*
X53994D02*
Y259000D01*
X55993D01*
X56659Y258334D01*
Y255668D01*
X55993Y255001D01*
X53994D01*
X218100Y245101D02*
X220766D01*
X219433D01*
Y249100D01*
X222099D02*
Y245101D01*
X224098D01*
X224764Y245768D01*
Y247101D01*
X224098Y247767D01*
X222099D01*
X226097Y249766D02*
X228763D01*
X230096Y245768D02*
X230763Y245101D01*
X232096D01*
X232762Y245768D01*
Y246434D01*
X232096Y247101D01*
X231429D01*
X232096D01*
X232762Y247767D01*
Y248434D01*
X232096Y249100D01*
X230763D01*
X230096Y248434D01*
X234095Y245101D02*
Y247767D01*
X235428Y249100D01*
X236761Y247767D01*
Y245101D01*
X238094Y245768D02*
X238760Y245101D01*
X240093D01*
X240759Y245768D01*
Y246434D01*
X240093Y247101D01*
X239426D01*
X240093D01*
X240759Y247767D01*
Y248434D01*
X240093Y249100D01*
X238760D01*
X238094Y248434D01*
X134000Y82000D02*
Y78001D01*
X135999D01*
X136666Y78668D01*
Y80001D01*
X135999Y80667D01*
X134000D01*
X135333D02*
X136666Y82000D01*
X137999Y79334D02*
X140665Y82000D01*
X139332Y80667D01*
X140665Y79334D01*
X137999Y82000D01*
X141997Y79334D02*
X142664D01*
Y80001D01*
X141997D01*
Y79334D01*
Y81334D02*
X142664D01*
Y82000D01*
X141997D01*
Y81334D01*
X147995Y78668D02*
X147329Y78001D01*
X145996D01*
X145330Y78668D01*
Y81334D01*
X145996Y82000D01*
X147329D01*
X147995Y81334D01*
X149328Y82000D02*
Y79334D01*
X151328D01*
X151994Y80001D01*
Y82000D01*
X155326D02*
Y78001D01*
X153327Y80001D01*
X155993D01*
X158659Y82000D02*
X157326Y80667D01*
Y79334D01*
X158659Y78001D01*
X160658D02*
X163324D01*
Y78668D01*
X160658Y81334D01*
Y82000D01*
X164657D02*
Y81334D01*
X165323D01*
Y82000D01*
X164657D01*
X167989D02*
Y81334D01*
X168656D01*
Y82000D01*
X167989D01*
X171321D02*
X172654D01*
X171988D01*
Y78001D01*
X171321Y78668D01*
X174654D02*
X175320Y78001D01*
X176653D01*
X177319Y78668D01*
Y81334D01*
X176653Y82000D01*
X175320D01*
X174654Y81334D01*
Y78668D01*
X178652Y82000D02*
X179985Y80667D01*
Y79334D01*
X178652Y78001D01*
X134000Y72001D02*
X136666D01*
X135333D01*
Y76000D01*
X137999Y73334D02*
X140665Y76000D01*
X139332Y74667D01*
X140665Y73334D01*
X137999Y76000D01*
X141997Y73334D02*
X142664D01*
Y74001D01*
X141997D01*
Y73334D01*
Y75334D02*
X142664D01*
Y76000D01*
X141997D01*
Y75334D01*
X147995Y72668D02*
X147329Y72001D01*
X145996D01*
X145330Y72668D01*
Y75334D01*
X145996Y76000D01*
X147329D01*
X147995Y75334D01*
X149328Y76000D02*
Y73334D01*
X151328D01*
X151994Y74001D01*
Y76000D01*
X153327Y72668D02*
X153994Y72001D01*
X155326D01*
X155993Y72668D01*
Y73334D01*
X155326Y74001D01*
X155993Y74667D01*
Y75334D01*
X155326Y76000D01*
X153994D01*
X153327Y75334D01*
Y74667D01*
X153994Y74001D01*
X153327Y73334D01*
Y72668D01*
X153994Y74001D02*
X155326D01*
X158659Y76000D02*
X157326Y74667D01*
Y73334D01*
X158659Y72001D01*
X163324D02*
X161991Y72668D01*
X160658Y74001D01*
Y75334D01*
X161325Y76000D01*
X162657D01*
X163324Y75334D01*
Y74667D01*
X162657Y74001D01*
X160658D01*
X164657Y76000D02*
Y75334D01*
X165323D01*
Y76000D01*
X164657D01*
X167989D02*
Y75334D01*
X168656D01*
Y76000D01*
X167989D01*
X171321Y75334D02*
X171988Y76000D01*
X173321D01*
X173987Y75334D01*
Y72668D01*
X173321Y72001D01*
X171988D01*
X171321Y72668D01*
Y73334D01*
X171988Y74001D01*
X173987D01*
X175320Y76000D02*
X176653Y74667D01*
Y73334D01*
X175320Y72001D01*
X134000Y110000D02*
Y106001D01*
X135999D01*
X136666Y106668D01*
Y108001D01*
X135999Y108667D01*
X134000D01*
X135333D02*
X136666Y110000D01*
X137999Y107334D02*
X140665Y110000D01*
X139332Y108667D01*
X140665Y107334D01*
X137999Y110000D01*
X141997Y107334D02*
X142664D01*
Y108001D01*
X141997D01*
Y107334D01*
Y109334D02*
X142664D01*
Y110000D01*
X141997D01*
Y109334D01*
X147995Y106668D02*
X147329Y106001D01*
X145996D01*
X145330Y106668D01*
Y109334D01*
X145996Y110000D01*
X147329D01*
X147995Y109334D01*
X149328Y110000D02*
Y107334D01*
X151328D01*
X151994Y108001D01*
Y110000D01*
X153327Y106668D02*
X153994Y106001D01*
X155326D01*
X155993Y106668D01*
Y107334D01*
X155326Y108001D01*
X154660D01*
X155326D01*
X155993Y108667D01*
Y109334D01*
X155326Y110000D01*
X153994D01*
X153327Y109334D01*
X158659Y110000D02*
X157326Y108667D01*
Y107334D01*
X158659Y106001D01*
X160658D02*
X163324D01*
Y106668D01*
X160658Y109334D01*
Y110000D01*
X164657D02*
Y109334D01*
X165323D01*
Y110000D01*
X164657D01*
X167989D02*
Y109334D01*
X168656D01*
Y110000D01*
X167989D01*
X171321D02*
X172654D01*
X171988D01*
Y106001D01*
X171321Y106668D01*
X174654D02*
X175320Y106001D01*
X176653D01*
X177319Y106668D01*
Y109334D01*
X176653Y110000D01*
X175320D01*
X174654Y109334D01*
Y106668D01*
X178652Y110000D02*
X179985Y108667D01*
Y107334D01*
X178652Y106001D01*
X134000Y100001D02*
X136666D01*
X135333D01*
Y104000D01*
X137999Y101334D02*
X140665Y104000D01*
X139332Y102667D01*
X140665Y101334D01*
X137999Y104000D01*
X141997Y101334D02*
X142664D01*
Y102001D01*
X141997D01*
Y101334D01*
Y103333D02*
X142664D01*
Y104000D01*
X141997D01*
Y103333D01*
X147995Y100668D02*
X147329Y100001D01*
X145996D01*
X145330Y100668D01*
Y103333D01*
X145996Y104000D01*
X147329D01*
X147995Y103333D01*
X149328Y104000D02*
Y101334D01*
X151328D01*
X151994Y102001D01*
Y104000D01*
X153327Y100001D02*
X155993D01*
Y100668D01*
X153327Y103333D01*
Y104000D01*
X158659D02*
X157326Y102667D01*
Y101334D01*
X158659Y100001D01*
X163324D02*
X161991Y100668D01*
X160658Y102001D01*
Y103333D01*
X161325Y104000D01*
X162657D01*
X163324Y103333D01*
Y102667D01*
X162657Y102001D01*
X160658D01*
X164657Y104000D02*
Y103333D01*
X165323D01*
Y104000D01*
X164657D01*
X167989D02*
Y103333D01*
X168656D01*
Y104000D01*
X167989D01*
X171321Y103333D02*
X171988Y104000D01*
X173321D01*
X173987Y103333D01*
Y100668D01*
X173321Y100001D01*
X171988D01*
X171321Y100668D01*
Y101334D01*
X171988Y102001D01*
X173987D01*
X175320Y104000D02*
X176653Y102667D01*
Y101334D01*
X175320Y100001D01*
X87600Y69601D02*
X90266D01*
X88933D01*
Y73600D01*
X91599Y70934D02*
X94265Y73600D01*
X92932Y72267D01*
X94265Y70934D01*
X91599Y73600D01*
X95597Y70934D02*
X96264D01*
Y71601D01*
X95597D01*
Y70934D01*
Y72934D02*
X96264D01*
Y73600D01*
X95597D01*
Y72934D01*
X101595Y70268D02*
X100929Y69601D01*
X99596D01*
X98930Y70268D01*
Y72934D01*
X99596Y73600D01*
X100929D01*
X101595Y72934D01*
X102928Y73600D02*
Y70934D01*
X104928D01*
X105594Y71601D01*
Y73600D01*
X106927Y70268D02*
X107594Y69601D01*
X108926D01*
X109593Y70268D01*
Y70934D01*
X108926Y71601D01*
X109593Y72267D01*
Y72934D01*
X108926Y73600D01*
X107594D01*
X106927Y72934D01*
Y72267D01*
X107594Y71601D01*
X106927Y70934D01*
Y70268D01*
X107594Y71601D02*
X108926D01*
X112259Y73600D02*
X110926Y72267D01*
Y70934D01*
X112259Y69601D01*
X114258Y73600D02*
X115591D01*
X114925D01*
Y69601D01*
X114258Y70268D01*
X117590Y73600D02*
Y72934D01*
X118257D01*
Y73600D01*
X117590D01*
X120923D02*
Y72934D01*
X121589D01*
Y73600D01*
X120923D01*
X126921Y69601D02*
X124255D01*
Y71601D01*
X125588Y70934D01*
X126254D01*
X126921Y71601D01*
Y72934D01*
X126254Y73600D01*
X124921D01*
X124255Y72934D01*
X128254Y73600D02*
X129587Y72267D01*
Y70934D01*
X128254Y69601D01*
X88200Y80800D02*
Y76801D01*
X90199D01*
X90866Y77468D01*
Y78801D01*
X90199Y79467D01*
X88200D01*
X89533D02*
X90866Y80800D01*
X92199Y78134D02*
X94864Y80800D01*
X93532Y79467D01*
X94864Y78134D01*
X92199Y80800D01*
X96197Y78134D02*
X96864D01*
Y78801D01*
X96197D01*
Y78134D01*
Y80134D02*
X96864D01*
Y80800D01*
X96197D01*
Y80134D01*
X102196Y77468D02*
X101529Y76801D01*
X100196D01*
X99530Y77468D01*
Y80134D01*
X100196Y80800D01*
X101529D01*
X102196Y80134D01*
X103528Y80800D02*
Y78134D01*
X105528D01*
X106194Y78801D01*
Y80800D01*
X109526D02*
Y76801D01*
X107527Y78801D01*
X110193D01*
X112859Y80800D02*
X111526Y79467D01*
Y78134D01*
X112859Y76801D01*
X114858Y80800D02*
X116191D01*
X115524D01*
Y76801D01*
X114858Y77468D01*
X118190Y80800D02*
Y80134D01*
X118857D01*
Y80800D01*
X118190D01*
X121523D02*
Y80134D01*
X122189D01*
Y80800D01*
X121523D01*
X126854D02*
Y76801D01*
X124855Y78801D01*
X127521D01*
X128854Y80800D02*
X130186Y79467D01*
Y78134D01*
X128854Y76801D01*
X84600Y99601D02*
X87266D01*
X85933D01*
Y103600D01*
X88599Y100934D02*
X91264Y103600D01*
X89932Y102267D01*
X91264Y100934D01*
X88599Y103600D01*
X92597Y100934D02*
X93264D01*
Y101601D01*
X92597D01*
Y100934D01*
Y102934D02*
X93264D01*
Y103600D01*
X92597D01*
Y102934D01*
X98595Y100268D02*
X97929Y99601D01*
X96596D01*
X95930Y100268D01*
Y102934D01*
X96596Y103600D01*
X97929D01*
X98595Y102934D01*
X99928Y103600D02*
Y100934D01*
X101928D01*
X102594Y101601D01*
Y103600D01*
X103927Y99601D02*
X106593D01*
Y100268D01*
X103927Y102934D01*
Y103600D01*
X109259D02*
X107926Y102267D01*
Y100934D01*
X109259Y99601D01*
X111258Y103600D02*
X112591D01*
X111925D01*
Y99601D01*
X111258Y100268D01*
X114590Y103600D02*
Y102934D01*
X115257D01*
Y103600D01*
X114590D01*
X117923D02*
Y102934D01*
X118589D01*
Y103600D01*
X117923D01*
X123921Y99601D02*
X121255D01*
Y101601D01*
X122588Y100934D01*
X123254D01*
X123921Y101601D01*
Y102934D01*
X123254Y103600D01*
X121921D01*
X121255Y102934D01*
X125254Y103600D02*
X126586Y102267D01*
Y100934D01*
X125254Y99601D01*
X85200Y110800D02*
Y106801D01*
X87199D01*
X87866Y107468D01*
Y108801D01*
X87199Y109467D01*
X85200D01*
X86533D02*
X87866Y110800D01*
X89199Y108134D02*
X91865Y110800D01*
X90532Y109467D01*
X91865Y108134D01*
X89199Y110800D01*
X93197Y108134D02*
X93864D01*
Y108801D01*
X93197D01*
Y108134D01*
Y110134D02*
X93864D01*
Y110800D01*
X93197D01*
Y110134D01*
X99195Y107468D02*
X98529Y106801D01*
X97196D01*
X96530Y107468D01*
Y110134D01*
X97196Y110800D01*
X98529D01*
X99195Y110134D01*
X100528Y110800D02*
Y108134D01*
X102528D01*
X103194Y108801D01*
Y110800D01*
X104527Y107468D02*
X105194Y106801D01*
X106526D01*
X107193Y107468D01*
Y108134D01*
X106526Y108801D01*
X105860D01*
X106526D01*
X107193Y109467D01*
Y110134D01*
X106526Y110800D01*
X105194D01*
X104527Y110134D01*
X109859Y110800D02*
X108526Y109467D01*
Y108134D01*
X109859Y106801D01*
X111858Y110800D02*
X113191D01*
X112524D01*
Y106801D01*
X111858Y107468D01*
X115190Y110800D02*
Y110134D01*
X115857D01*
Y110800D01*
X115190D01*
X118523D02*
Y110134D01*
X119189D01*
Y110800D01*
X118523D01*
X123854D02*
Y106801D01*
X121855Y108801D01*
X124521D01*
X125854Y110800D02*
X127187Y109467D01*
Y108134D01*
X125854Y106801D01*
X135000Y130001D02*
X137666D01*
X136333D01*
Y134000D01*
X138999Y131334D02*
X141665Y134000D01*
X140332Y132667D01*
X141665Y131334D01*
X138999Y134000D01*
X142997Y131334D02*
X143664D01*
Y132001D01*
X142997D01*
Y131334D01*
Y133334D02*
X143664D01*
Y134000D01*
X142997D01*
Y133334D01*
X148995Y130668D02*
X148329Y130001D01*
X146996D01*
X146330Y130668D01*
Y133334D01*
X146996Y134000D01*
X148329D01*
X148995Y133334D01*
X150328Y134000D02*
Y131334D01*
X152328D01*
X152994Y132001D01*
Y134000D01*
X156993Y130001D02*
X155660Y130668D01*
X154327Y132001D01*
Y133334D01*
X154994Y134000D01*
X156326D01*
X156993Y133334D01*
Y132667D01*
X156326Y132001D01*
X154327D01*
X159659Y134000D02*
X158326Y132667D01*
Y131334D01*
X159659Y130001D01*
X164324D02*
X162991Y130668D01*
X161658Y132001D01*
Y133334D01*
X162325Y134000D01*
X163657D01*
X164324Y133334D01*
Y132667D01*
X163657Y132001D01*
X161658D01*
X165657Y134000D02*
Y133334D01*
X166323D01*
Y134000D01*
X165657D01*
X168989D02*
Y133334D01*
X169656D01*
Y134000D01*
X168989D01*
X172321Y133334D02*
X172988Y134000D01*
X174321D01*
X174987Y133334D01*
Y130668D01*
X174321Y130001D01*
X172988D01*
X172321Y130668D01*
Y131334D01*
X172988Y132001D01*
X174987D01*
X176320Y134000D02*
X177653Y132667D01*
Y131334D01*
X176320Y130001D01*
X135000Y140000D02*
Y136001D01*
X136999D01*
X137666Y136668D01*
Y138001D01*
X136999Y138667D01*
X135000D01*
X136333D02*
X137666Y140000D01*
X138999Y137334D02*
X141665Y140000D01*
X140332Y138667D01*
X141665Y137334D01*
X138999Y140000D01*
X142997Y137334D02*
X143664D01*
Y138001D01*
X142997D01*
Y137334D01*
Y139333D02*
X143664D01*
Y140000D01*
X142997D01*
Y139333D01*
X148995Y136668D02*
X148329Y136001D01*
X146996D01*
X146330Y136668D01*
Y139333D01*
X146996Y140000D01*
X148329D01*
X148995Y139333D01*
X150328Y140000D02*
Y137334D01*
X152328D01*
X152994Y138001D01*
Y140000D01*
X156993D02*
X154327D01*
X156993Y137334D01*
Y136668D01*
X156326Y136001D01*
X154994D01*
X154327Y136668D01*
X159659Y140000D02*
X158326Y138667D01*
Y137334D01*
X159659Y136001D01*
X161658D02*
X164324D01*
Y136668D01*
X161658Y139333D01*
Y140000D01*
X165657D02*
Y139333D01*
X166323D01*
Y140000D01*
X165657D01*
X168989D02*
Y139333D01*
X169656D01*
Y140000D01*
X168989D01*
X172321D02*
X173654D01*
X172988D01*
Y136001D01*
X172321Y136668D01*
X175654D02*
X176320Y136001D01*
X177653D01*
X178319Y136668D01*
Y139333D01*
X177653Y140000D01*
X176320D01*
X175654Y139333D01*
Y136668D01*
X179652Y140000D02*
X180985Y138667D01*
Y137334D01*
X179652Y136001D01*
X87200Y140800D02*
Y136801D01*
X89199D01*
X89866Y137468D01*
Y138801D01*
X89199Y139467D01*
X87200D01*
X88533D02*
X89866Y140800D01*
X91199Y138134D02*
X93865Y140800D01*
X92532Y139467D01*
X93865Y138134D01*
X91199Y140800D01*
X95197Y138134D02*
X95864D01*
Y138801D01*
X95197D01*
Y138134D01*
Y140134D02*
X95864D01*
Y140800D01*
X95197D01*
Y140134D01*
X101196Y137468D02*
X100529Y136801D01*
X99196D01*
X98530Y137468D01*
Y140134D01*
X99196Y140800D01*
X100529D01*
X101196Y140134D01*
X102528Y140800D02*
Y138134D01*
X104528D01*
X105194Y138801D01*
Y140800D01*
X109193D02*
X106527D01*
X109193Y138134D01*
Y137468D01*
X108526Y136801D01*
X107194D01*
X106527Y137468D01*
X111859Y140800D02*
X110526Y139467D01*
Y138134D01*
X111859Y136801D01*
X113858Y140800D02*
X115191D01*
X114524D01*
Y136801D01*
X113858Y137468D01*
X117190Y140800D02*
Y140134D01*
X117857D01*
Y140800D01*
X117190D01*
X120523D02*
Y140134D01*
X121189D01*
Y140800D01*
X120523D01*
X125854D02*
Y136801D01*
X123855Y138801D01*
X126521D01*
X127854Y140800D02*
X129186Y139467D01*
Y138134D01*
X127854Y136801D01*
X86600Y129601D02*
X89266D01*
X87933D01*
Y133600D01*
X90599Y130934D02*
X93265Y133600D01*
X91932Y132267D01*
X93265Y130934D01*
X90599Y133600D01*
X94597Y130934D02*
X95264D01*
Y131601D01*
X94597D01*
Y130934D01*
Y132933D02*
X95264D01*
Y133600D01*
X94597D01*
Y132933D01*
X100595Y130268D02*
X99929Y129601D01*
X98596D01*
X97930Y130268D01*
Y132933D01*
X98596Y133600D01*
X99929D01*
X100595Y132933D01*
X101928Y133600D02*
Y130934D01*
X103928D01*
X104594Y131601D01*
Y133600D01*
X108593Y129601D02*
X107260Y130268D01*
X105927Y131601D01*
Y132933D01*
X106594Y133600D01*
X107926D01*
X108593Y132933D01*
Y132267D01*
X107926Y131601D01*
X105927D01*
X111259Y133600D02*
X109926Y132267D01*
Y130934D01*
X111259Y129601D01*
X113258Y133600D02*
X114591D01*
X113925D01*
Y129601D01*
X113258Y130268D01*
X116590Y133600D02*
Y132933D01*
X117257D01*
Y133600D01*
X116590D01*
X119923D02*
Y132933D01*
X120589D01*
Y133600D01*
X119923D01*
X125921Y129601D02*
X123255D01*
Y131601D01*
X124588Y130934D01*
X125254D01*
X125921Y131601D01*
Y132933D01*
X125254Y133600D01*
X123921D01*
X123255Y132933D01*
X127254Y133600D02*
X128586Y132267D01*
Y130934D01*
X127254Y129601D01*
X94666Y156168D02*
X93999Y155501D01*
X92666D01*
X92000Y156168D01*
Y156834D01*
X92666Y157501D01*
X93999D01*
X94666Y158167D01*
Y158834D01*
X93999Y159500D01*
X92666D01*
X92000Y158834D01*
X95999Y160833D02*
Y156834D01*
X97998D01*
X98664Y157501D01*
Y158834D01*
X97998Y159500D01*
X95999D01*
X99997Y155501D02*
Y159500D01*
X101330Y158167D01*
X102663Y159500D01*
Y155501D01*
X107995Y159500D02*
Y156834D01*
X109328Y155501D01*
X110661Y156834D01*
Y159500D01*
Y157501D01*
X107995D01*
X111994Y156834D02*
X112660D01*
Y157501D01*
X111994D01*
Y156834D01*
Y158834D02*
X112660D01*
Y159500D01*
X111994D01*
Y158834D01*
X87500Y162501D02*
X90166D01*
X88833D01*
Y166500D01*
X91499Y163834D02*
X94165Y166500D01*
X92832Y165167D01*
X94165Y163834D01*
X91499Y166500D01*
X95497Y163834D02*
X96164D01*
Y164501D01*
X95497D01*
Y163834D01*
Y165833D02*
X96164D01*
Y166500D01*
X95497D01*
Y165833D01*
X101496Y163168D02*
X100829Y162501D01*
X99496D01*
X98830Y163168D01*
Y165833D01*
X99496Y166500D01*
X100829D01*
X101496Y165833D01*
X102828Y166500D02*
Y163834D01*
X104828D01*
X105494Y164501D01*
Y166500D01*
X109493Y162501D02*
X106827D01*
Y164501D01*
X108160Y163834D01*
X108826D01*
X109493Y164501D01*
Y165833D01*
X108826Y166500D01*
X107494D01*
X106827Y165833D01*
X112159Y166500D02*
X110826Y165167D01*
Y163834D01*
X112159Y162501D01*
X114158Y166500D02*
X115491D01*
X114824D01*
Y162501D01*
X114158Y163168D01*
X117490Y166500D02*
Y165833D01*
X118157D01*
Y166500D01*
X117490D01*
X120823D02*
Y165833D01*
X121489D01*
Y166500D01*
X120823D01*
X126821Y162501D02*
X124155D01*
Y164501D01*
X125488Y163834D01*
X126154D01*
X126821Y164501D01*
Y165833D01*
X126154Y166500D01*
X124821D01*
X124155Y165833D01*
X128154Y166500D02*
X129487Y165167D01*
Y163834D01*
X128154Y162501D01*
X89500Y173500D02*
Y169501D01*
X91499D01*
X92166Y170168D01*
Y171501D01*
X91499Y172167D01*
X89500D01*
X90833D02*
X92166Y173500D01*
X93499Y170834D02*
X96165Y173500D01*
X94832Y172167D01*
X96165Y170834D01*
X93499Y173500D01*
X97497Y170834D02*
X98164D01*
Y171501D01*
X97497D01*
Y170834D01*
Y172834D02*
X98164D01*
Y173500D01*
X97497D01*
Y172834D01*
X103496Y170168D02*
X102829Y169501D01*
X101496D01*
X100830Y170168D01*
Y172834D01*
X101496Y173500D01*
X102829D01*
X103496Y172834D01*
X104828Y173500D02*
Y170834D01*
X106828D01*
X107494Y171501D01*
Y173500D01*
X108827D02*
X110160D01*
X109494D01*
Y169501D01*
X108827Y170168D01*
X113492Y173500D02*
X112159Y172167D01*
Y170834D01*
X113492Y169501D01*
X115492Y173500D02*
X116824D01*
X116158D01*
Y169501D01*
X115492Y170168D01*
X118824Y173500D02*
Y172834D01*
X119490D01*
Y173500D01*
X118824D01*
X122156D02*
Y172834D01*
X122823D01*
Y173500D01*
X122156D01*
X127488D02*
Y169501D01*
X125488Y171501D01*
X128154D01*
X129487Y173500D02*
X130820Y172167D01*
Y170834D01*
X129487Y169501D01*
X133500Y173500D02*
Y169501D01*
X135499D01*
X136166Y170168D01*
Y171501D01*
X135499Y172167D01*
X133500D01*
X134833D02*
X136166Y173500D01*
X137499Y170834D02*
X140164Y173500D01*
X138832Y172167D01*
X140164Y170834D01*
X137499Y173500D01*
X141497Y170834D02*
X142164D01*
Y171501D01*
X141497D01*
Y170834D01*
Y172834D02*
X142164D01*
Y173500D01*
X141497D01*
Y172834D01*
X147495Y170168D02*
X146829Y169501D01*
X145496D01*
X144830Y170168D01*
Y172834D01*
X145496Y173500D01*
X146829D01*
X147495Y172834D01*
X148828Y173500D02*
Y170834D01*
X150828D01*
X151494Y171501D01*
Y173500D01*
X152827D02*
X154160D01*
X153494D01*
Y169501D01*
X152827Y170168D01*
X157492Y173500D02*
X156159Y172167D01*
Y170834D01*
X157492Y169501D01*
X159492D02*
X162157D01*
Y170168D01*
X159492Y172834D01*
Y173500D01*
X163490D02*
Y172834D01*
X164157D01*
Y173500D01*
X163490D01*
X166823D02*
Y172834D01*
X167489D01*
Y173500D01*
X166823D01*
X170155D02*
X171488D01*
X170821D01*
Y169501D01*
X170155Y170168D01*
X173487D02*
X174154Y169501D01*
X175487D01*
X176153Y170168D01*
Y172834D01*
X175487Y173500D01*
X174154D01*
X173487Y172834D01*
Y170168D01*
X177486Y173500D02*
X178819Y172167D01*
Y170834D01*
X177486Y169501D01*
X133000Y162501D02*
X135666D01*
X134333D01*
Y166500D01*
X136999Y163834D02*
X139664Y166500D01*
X138332Y165167D01*
X139664Y163834D01*
X136999Y166500D01*
X140997Y163834D02*
X141664D01*
Y164501D01*
X140997D01*
Y163834D01*
Y165833D02*
X141664D01*
Y166500D01*
X140997D01*
Y165833D01*
X146995Y163168D02*
X146329Y162501D01*
X144996D01*
X144330Y163168D01*
Y165833D01*
X144996Y166500D01*
X146329D01*
X146995Y165833D01*
X148328Y166500D02*
Y163834D01*
X150328D01*
X150994Y164501D01*
Y166500D01*
X154993Y162501D02*
X152327D01*
Y164501D01*
X153660Y163834D01*
X154326D01*
X154993Y164501D01*
Y165833D01*
X154326Y166500D01*
X152994D01*
X152327Y165833D01*
X157659Y166500D02*
X156326Y165167D01*
Y163834D01*
X157659Y162501D01*
X162324D02*
X160991Y163168D01*
X159658Y164501D01*
Y165833D01*
X160325Y166500D01*
X161657D01*
X162324Y165833D01*
Y165167D01*
X161657Y164501D01*
X159658D01*
X163657Y166500D02*
Y165833D01*
X164323D01*
Y166500D01*
X163657D01*
X166989D02*
Y165833D01*
X167656D01*
Y166500D01*
X166989D01*
X170321Y165833D02*
X170988Y166500D01*
X172321D01*
X172987Y165833D01*
Y163168D01*
X172321Y162501D01*
X170988D01*
X170321Y163168D01*
Y163834D01*
X170988Y164501D01*
X172987D01*
X174320Y166500D02*
X175653Y165167D01*
Y163834D01*
X174320Y162501D01*
X139666Y156168D02*
X138999Y155501D01*
X137666D01*
X137000Y156168D01*
Y156834D01*
X137666Y157501D01*
X138999D01*
X139666Y158167D01*
Y158834D01*
X138999Y159500D01*
X137666D01*
X137000Y158834D01*
X140999Y160833D02*
Y156834D01*
X142998D01*
X143665Y157501D01*
Y158834D01*
X142998Y159500D01*
X140999D01*
X144997Y155501D02*
Y159500D01*
X146330Y158167D01*
X147663Y159500D01*
Y155501D01*
X152995D02*
Y159500D01*
X154994D01*
X155661Y158834D01*
Y158167D01*
X154994Y157501D01*
X152995D01*
X154994D01*
X155661Y156834D01*
Y156168D01*
X154994Y155501D01*
X152995D01*
X156994Y156834D02*
X157660D01*
Y157501D01*
X156994D01*
Y156834D01*
Y158834D02*
X157660D01*
Y159500D01*
X156994D01*
Y158834D01*
X95466Y123668D02*
X94799Y123001D01*
X93466D01*
X92800Y123668D01*
Y124334D01*
X93466Y125001D01*
X94799D01*
X95466Y125667D01*
Y126333D01*
X94799Y127000D01*
X93466D01*
X92800Y126333D01*
X96799Y128333D02*
Y124334D01*
X98798D01*
X99464Y125001D01*
Y126333D01*
X98798Y127000D01*
X96799D01*
X100797Y123001D02*
Y127000D01*
X102130Y125667D01*
X103463Y127000D01*
Y123001D01*
X111461Y123668D02*
X110794Y123001D01*
X109461D01*
X108795Y123668D01*
Y126333D01*
X109461Y127000D01*
X110794D01*
X111461Y126333D01*
X112794Y124334D02*
X113460D01*
Y125001D01*
X112794D01*
Y124334D01*
Y126333D02*
X113460D01*
Y127000D01*
X112794D01*
Y126333D01*
X140066Y123968D02*
X139399Y123301D01*
X138066D01*
X137400Y123968D01*
Y124634D01*
X138066Y125301D01*
X139399D01*
X140066Y125967D01*
Y126634D01*
X139399Y127300D01*
X138066D01*
X137400Y126634D01*
X141399Y128633D02*
Y124634D01*
X143398D01*
X144064Y125301D01*
Y126634D01*
X143398Y127300D01*
X141399D01*
X145397Y123301D02*
Y127300D01*
X146730Y125967D01*
X148063Y127300D01*
Y123301D01*
X153395D02*
Y127300D01*
X155394D01*
X156061Y126634D01*
Y123968D01*
X155394Y123301D01*
X153395D01*
X157394Y124634D02*
X158060D01*
Y125301D01*
X157394D01*
Y124634D01*
Y126634D02*
X158060D01*
Y127300D01*
X157394D01*
Y126634D01*
X94566Y92968D02*
X93899Y92301D01*
X92566D01*
X91900Y92968D01*
Y93634D01*
X92566Y94301D01*
X93899D01*
X94566Y94967D01*
Y95634D01*
X93899Y96300D01*
X92566D01*
X91900Y95634D01*
X95899Y97633D02*
Y93634D01*
X97898D01*
X98564Y94301D01*
Y95634D01*
X97898Y96300D01*
X95899D01*
X99897Y92301D02*
Y96300D01*
X101230Y94967D01*
X102563Y96300D01*
Y92301D01*
X110561D02*
X107895D01*
Y96300D01*
X110561D01*
X107895Y94301D02*
X109228D01*
X111894Y93634D02*
X112560D01*
Y94301D01*
X111894D01*
Y93634D01*
Y95634D02*
X112560D01*
Y96300D01*
X111894D01*
Y95634D01*
X139366Y92768D02*
X138699Y92101D01*
X137366D01*
X136700Y92768D01*
Y93434D01*
X137366Y94101D01*
X138699D01*
X139366Y94767D01*
Y95434D01*
X138699Y96100D01*
X137366D01*
X136700Y95434D01*
X140699Y97433D02*
Y93434D01*
X142698D01*
X143365Y94101D01*
Y95434D01*
X142698Y96100D01*
X140699D01*
X144697Y92101D02*
Y96100D01*
X146030Y94767D01*
X147363Y96100D01*
Y92101D01*
X155361D02*
X152695D01*
Y94101D01*
X154028D01*
X152695D01*
Y96100D01*
X156694Y93434D02*
X157360D01*
Y94101D01*
X156694D01*
Y93434D01*
Y95434D02*
X157360D01*
Y96100D01*
X156694D01*
Y95434D01*
X93666Y63868D02*
X92999Y63201D01*
X91666D01*
X91000Y63868D01*
Y64534D01*
X91666Y65201D01*
X92999D01*
X93666Y65867D01*
Y66534D01*
X92999Y67200D01*
X91666D01*
X91000Y66534D01*
X94999Y68533D02*
Y64534D01*
X96998D01*
X97664Y65201D01*
Y66534D01*
X96998Y67200D01*
X94999D01*
X98997Y63201D02*
Y67200D01*
X100330Y65867D01*
X101663Y67200D01*
Y63201D01*
X109661Y63868D02*
X108994Y63201D01*
X107661D01*
X106995Y63868D01*
Y66534D01*
X107661Y67200D01*
X108994D01*
X109661Y66534D01*
Y65201D01*
X108328D01*
X110994Y64534D02*
X111660D01*
Y65201D01*
X110994D01*
Y64534D01*
Y66534D02*
X111660D01*
Y67200D01*
X110994D01*
Y66534D01*
X138466Y63868D02*
X137799Y63201D01*
X136467D01*
X135800Y63868D01*
Y64534D01*
X136467Y65201D01*
X137799D01*
X138466Y65867D01*
Y66534D01*
X137799Y67200D01*
X136467D01*
X135800Y66534D01*
X139799Y68533D02*
Y64534D01*
X141798D01*
X142464Y65201D01*
Y66534D01*
X141798Y67200D01*
X139799D01*
X143797Y63201D02*
Y67200D01*
X145130Y65867D01*
X146463Y67200D01*
Y63201D01*
X151795D02*
Y67200D01*
Y65201D01*
X154461D01*
Y63201D01*
Y67200D01*
X155794Y64534D02*
X156460D01*
Y65201D01*
X155794D01*
Y64534D01*
Y66534D02*
X156460D01*
Y67200D01*
X155794D01*
Y66534D01*
X25166Y234168D02*
X24499Y233501D01*
X23167D01*
X22500Y234168D01*
Y234834D01*
X23167Y235501D01*
X24499D01*
X25166Y236167D01*
Y236834D01*
X24499Y237500D01*
X23167D01*
X22500Y236834D01*
X26499Y238833D02*
Y234834D01*
X28498D01*
X29164Y235501D01*
Y236834D01*
X28498Y237500D01*
X26499D01*
X30497Y233501D02*
Y237500D01*
X31830Y236167D01*
X33163Y237500D01*
Y233501D01*
X38495Y237500D02*
Y234834D01*
X39828Y233501D01*
X41161Y234834D01*
Y237500D01*
Y235501D01*
X38495D01*
X25166Y204168D02*
X24499Y203501D01*
X23167D01*
X22500Y204168D01*
Y204834D01*
X23167Y205501D01*
X24499D01*
X25166Y206167D01*
Y206834D01*
X24499Y207500D01*
X23167D01*
X22500Y206834D01*
X26499Y208833D02*
Y204834D01*
X28498D01*
X29164Y205501D01*
Y206834D01*
X28498Y207500D01*
X26499D01*
X30497Y203501D02*
Y207500D01*
X31830Y206167D01*
X33163Y207500D01*
Y203501D01*
X38495D02*
Y207500D01*
X40494D01*
X41161Y206834D01*
Y206167D01*
X40494Y205501D01*
X38495D01*
X40494D01*
X41161Y204834D01*
Y204168D01*
X40494Y203501D01*
X38495D01*
X25166Y141668D02*
X24499Y141001D01*
X23167D01*
X22500Y141668D01*
Y142334D01*
X23167Y143001D01*
X24499D01*
X25166Y143667D01*
Y144334D01*
X24499Y145000D01*
X23167D01*
X22500Y144334D01*
X26499Y146333D02*
Y142334D01*
X28498D01*
X29164Y143001D01*
Y144334D01*
X28498Y145000D01*
X26499D01*
X30497Y141001D02*
Y145000D01*
X31830Y143667D01*
X33163Y145000D01*
Y141001D01*
X38495D02*
Y145000D01*
X40494D01*
X41161Y144334D01*
Y141668D01*
X40494Y141001D01*
X38495D01*
X25166Y171668D02*
X24499Y171001D01*
X23167D01*
X22500Y171668D01*
Y172334D01*
X23167Y173001D01*
X24499D01*
X25166Y173667D01*
Y174334D01*
X24499Y175000D01*
X23167D01*
X22500Y174334D01*
X26499Y176333D02*
Y172334D01*
X28498D01*
X29164Y173001D01*
Y174334D01*
X28498Y175000D01*
X26499D01*
X30497Y171001D02*
Y175000D01*
X31830Y173667D01*
X33163Y175000D01*
Y171001D01*
X41161Y171668D02*
X40494Y171001D01*
X39161D01*
X38495Y171668D01*
Y174334D01*
X39161Y175000D01*
X40494D01*
X41161Y174334D01*
X25166Y79168D02*
X24499Y78501D01*
X23167D01*
X22500Y79168D01*
Y79834D01*
X23167Y80501D01*
X24499D01*
X25166Y81167D01*
Y81834D01*
X24499Y82500D01*
X23167D01*
X22500Y81834D01*
X26499Y83833D02*
Y79834D01*
X28498D01*
X29164Y80501D01*
Y81834D01*
X28498Y82500D01*
X26499D01*
X30497Y78501D02*
Y82500D01*
X31830Y81167D01*
X33163Y82500D01*
Y78501D01*
X41161D02*
X38495D01*
Y80501D01*
X39828D01*
X38495D01*
Y82500D01*
X25166Y109168D02*
X24499Y108501D01*
X23167D01*
X22500Y109168D01*
Y109834D01*
X23167Y110501D01*
X24499D01*
X25166Y111167D01*
Y111834D01*
X24499Y112500D01*
X23167D01*
X22500Y111834D01*
X26499Y113833D02*
Y109834D01*
X28498D01*
X29164Y110501D01*
Y111834D01*
X28498Y112500D01*
X26499D01*
X30497Y108501D02*
Y112500D01*
X31830Y111167D01*
X33163Y112500D01*
Y108501D01*
X41161D02*
X38495D01*
Y112500D01*
X41161D01*
X38495Y110501D02*
X39828D01*
X25666Y17668D02*
X24999Y17001D01*
X23666D01*
X23000Y17668D01*
Y18334D01*
X23666Y19001D01*
X24999D01*
X25666Y19667D01*
Y20334D01*
X24999Y21000D01*
X23666D01*
X23000Y20334D01*
X26999Y22333D02*
Y18334D01*
X28998D01*
X29664Y19001D01*
Y20334D01*
X28998Y21000D01*
X26999D01*
X30997Y17001D02*
Y21000D01*
X32330Y19667D01*
X33663Y21000D01*
Y17001D01*
X38995D02*
Y21000D01*
Y19001D01*
X41661D01*
Y17001D01*
Y21000D01*
X25666Y47668D02*
X24999Y47001D01*
X23666D01*
X23000Y47668D01*
Y48334D01*
X23666Y49001D01*
X24999D01*
X25666Y49667D01*
Y50334D01*
X24999Y51000D01*
X23666D01*
X23000Y50334D01*
X26999Y52333D02*
Y48334D01*
X28998D01*
X29664Y49001D01*
Y50334D01*
X28998Y51000D01*
X26999D01*
X30997Y47001D02*
Y51000D01*
X32330Y49667D01*
X33663Y51000D01*
Y47001D01*
X41661Y47668D02*
X40994Y47001D01*
X39661D01*
X38995Y47668D01*
Y50334D01*
X39661Y51000D01*
X40994D01*
X41661Y50334D01*
Y49001D01*
X40328D01*
X221666Y189668D02*
X220999Y189001D01*
X219666D01*
X219000Y189668D01*
Y190334D01*
X219666Y191001D01*
X220999D01*
X221666Y191667D01*
Y192333D01*
X220999Y193000D01*
X219666D01*
X219000Y192333D01*
X222999Y194333D02*
Y190334D01*
X224998D01*
X225664Y191001D01*
Y192333D01*
X224998Y193000D01*
X222999D01*
X226997Y189001D02*
Y193000D01*
X228330Y191667D01*
X229663Y193000D01*
Y189001D01*
X234995Y193000D02*
Y190334D01*
X236328Y189001D01*
X237661Y190334D01*
Y193000D01*
Y191001D01*
X234995D01*
X221666Y211668D02*
X220999Y211001D01*
X219666D01*
X219000Y211668D01*
Y212334D01*
X219666Y213001D01*
X220999D01*
X221666Y213667D01*
Y214334D01*
X220999Y215000D01*
X219666D01*
X219000Y214334D01*
X222999Y216333D02*
Y212334D01*
X224998D01*
X225664Y213001D01*
Y214334D01*
X224998Y215000D01*
X222999D01*
X226997Y211001D02*
Y215000D01*
X228330Y213667D01*
X229663Y215000D01*
Y211001D01*
X234995D02*
Y215000D01*
X236994D01*
X237661Y214334D01*
Y213667D01*
X236994Y213001D01*
X234995D01*
X236994D01*
X237661Y212334D01*
Y211668D01*
X236994Y211001D01*
X234995D01*
X221666Y159668D02*
X220999Y159001D01*
X219666D01*
X219000Y159668D01*
Y160334D01*
X219666Y161001D01*
X220999D01*
X221666Y161667D01*
Y162334D01*
X220999Y163000D01*
X219666D01*
X219000Y162334D01*
X222999Y164333D02*
Y160334D01*
X224998D01*
X225664Y161001D01*
Y162334D01*
X224998Y163000D01*
X222999D01*
X226997Y159001D02*
Y163000D01*
X228330Y161667D01*
X229663Y163000D01*
Y159001D01*
X234995D02*
Y163000D01*
X236994D01*
X237661Y162334D01*
Y159668D01*
X236994Y159001D01*
X234995D01*
X221666Y137668D02*
X220999Y137001D01*
X219666D01*
X219000Y137668D01*
Y138334D01*
X219666Y139001D01*
X220999D01*
X221666Y139667D01*
Y140333D01*
X220999Y141000D01*
X219666D01*
X219000Y140333D01*
X222999Y142333D02*
Y138334D01*
X224998D01*
X225664Y139001D01*
Y140333D01*
X224998Y141000D01*
X222999D01*
X226997Y137001D02*
Y141000D01*
X228330Y139667D01*
X229663Y141000D01*
Y137001D01*
X237661Y137668D02*
X236994Y137001D01*
X235661D01*
X234995Y137668D01*
Y140333D01*
X235661Y141000D01*
X236994D01*
X237661Y140333D01*
X221666Y107668D02*
X220999Y107001D01*
X219666D01*
X219000Y107668D01*
Y108334D01*
X219666Y109001D01*
X220999D01*
X221666Y109667D01*
Y110334D01*
X220999Y111000D01*
X219666D01*
X219000Y110334D01*
X222999Y112333D02*
Y108334D01*
X224998D01*
X225664Y109001D01*
Y110334D01*
X224998Y111000D01*
X222999D01*
X226997Y107001D02*
Y111000D01*
X228330Y109667D01*
X229663Y111000D01*
Y107001D01*
X237661D02*
X234995D01*
Y109001D01*
X236328D01*
X234995D01*
Y111000D01*
X221666Y85668D02*
X220999Y85001D01*
X219666D01*
X219000Y85668D01*
Y86334D01*
X219666Y87001D01*
X220999D01*
X221666Y87667D01*
Y88334D01*
X220999Y89000D01*
X219666D01*
X219000Y88334D01*
X222999Y90333D02*
Y86334D01*
X224998D01*
X225664Y87001D01*
Y88334D01*
X224998Y89000D01*
X222999D01*
X226997Y85001D02*
Y89000D01*
X228330Y87667D01*
X229663Y89000D01*
Y85001D01*
X237661D02*
X234995D01*
Y89000D01*
X237661D01*
X234995Y87001D02*
X236328D01*
X221666Y55668D02*
X220999Y55001D01*
X219666D01*
X219000Y55668D01*
Y56334D01*
X219666Y57001D01*
X220999D01*
X221666Y57667D01*
Y58334D01*
X220999Y59000D01*
X219666D01*
X219000Y58334D01*
X222999Y60333D02*
Y56334D01*
X224998D01*
X225664Y57001D01*
Y58334D01*
X224998Y59000D01*
X222999D01*
X226997Y55001D02*
Y59000D01*
X228330Y57667D01*
X229663Y59000D01*
Y55001D01*
X234995D02*
Y59000D01*
Y57001D01*
X237661D01*
Y55001D01*
Y59000D01*
X221666Y33668D02*
X220999Y33001D01*
X219666D01*
X219000Y33668D01*
Y34334D01*
X219666Y35001D01*
X220999D01*
X221666Y35667D01*
Y36334D01*
X220999Y37000D01*
X219666D01*
X219000Y36334D01*
X222999Y38333D02*
Y34334D01*
X224998D01*
X225664Y35001D01*
Y36334D01*
X224998Y37000D01*
X222999D01*
X226997Y33001D02*
Y37000D01*
X228330Y35667D01*
X229663Y37000D01*
Y33001D01*
X237661Y33668D02*
X236994Y33001D01*
X235661D01*
X234995Y33668D01*
Y36334D01*
X235661Y37000D01*
X236994D01*
X237661Y36334D01*
Y35001D01*
X236328D01*
D40*
X173900Y268450D02*
D03*
X228981Y267939D02*
D03*
X218082Y294039D02*
D03*
X231782Y294339D02*
D03*
X238482Y301839D02*
D03*
X226982Y302139D02*
D03*
X224982Y303239D02*
D03*
X225382Y304039D02*
D03*
X229682Y306739D02*
D03*
X234182Y309839D02*
D03*
D41*
X173900Y268650D02*
D03*
X228981Y268039D02*
D03*
X221682Y280639D02*
D03*
X221582Y280839D02*
D03*
X221482Y280939D02*
D03*
Y281039D02*
D03*
X221382Y281139D02*
D03*
Y281239D02*
D03*
X221282Y281339D02*
D03*
X221182Y281539D02*
D03*
X221082Y281639D02*
D03*
Y281739D02*
D03*
X220982Y281839D02*
D03*
Y281939D02*
D03*
X220882Y282039D02*
D03*
X220782Y282139D02*
D03*
Y282239D02*
D03*
X220682Y282339D02*
D03*
Y282439D02*
D03*
X220582Y282539D02*
D03*
X220482Y282739D02*
D03*
X220382Y282839D02*
D03*
Y282939D02*
D03*
X220282Y283039D02*
D03*
Y283139D02*
D03*
X220182Y283239D02*
D03*
X220082Y283439D02*
D03*
X219982Y283539D02*
D03*
Y283639D02*
D03*
X219882Y283739D02*
D03*
Y283839D02*
D03*
X219782Y283939D02*
D03*
X219682Y284039D02*
D03*
Y284139D02*
D03*
X219582Y284239D02*
D03*
Y284339D02*
D03*
X219482Y284439D02*
D03*
X219382Y284639D02*
D03*
X219282Y284739D02*
D03*
Y284839D02*
D03*
X219182Y284939D02*
D03*
Y285039D02*
D03*
X219082Y285139D02*
D03*
X218982Y285339D02*
D03*
X218882Y285439D02*
D03*
Y285539D02*
D03*
X218782Y285639D02*
D03*
X218682Y285839D02*
D03*
X218582Y285939D02*
D03*
Y286039D02*
D03*
X218482Y286139D02*
D03*
X239482Y286239D02*
D03*
X218482D02*
D03*
X239482Y286339D02*
D03*
X218382D02*
D03*
X239582Y286439D02*
D03*
X239682Y286539D02*
D03*
X218282D02*
D03*
X239682Y286639D02*
D03*
X218182D02*
D03*
X239782Y286739D02*
D03*
X218182D02*
D03*
X239782Y286839D02*
D03*
X218082D02*
D03*
X239882Y286939D02*
D03*
X218082D02*
D03*
X217982Y287039D02*
D03*
X239982Y287139D02*
D03*
X217882D02*
D03*
X240082Y287239D02*
D03*
X217882D02*
D03*
X240082Y287339D02*
D03*
X217782D02*
D03*
X240182Y287439D02*
D03*
X217782D02*
D03*
X240182Y287539D02*
D03*
X217682D02*
D03*
X240282Y287639D02*
D03*
X217582Y287739D02*
D03*
X240382Y287839D02*
D03*
X217482D02*
D03*
X240482Y287939D02*
D03*
X217482D02*
D03*
X240482Y288039D02*
D03*
X217382D02*
D03*
X240582Y288139D02*
D03*
X217382D02*
D03*
X217282Y288239D02*
D03*
X240682Y288339D02*
D03*
X240782Y288439D02*
D03*
X217182D02*
D03*
X240782Y288539D02*
D03*
X217082D02*
D03*
Y288639D02*
D03*
X216982Y288739D02*
D03*
Y288839D02*
D03*
X216882Y288939D02*
D03*
X216782Y289039D02*
D03*
Y289139D02*
D03*
X216682Y289239D02*
D03*
Y289339D02*
D03*
X216582Y289439D02*
D03*
X216482Y289639D02*
D03*
X216382Y289739D02*
D03*
Y289839D02*
D03*
X216282Y289939D02*
D03*
Y290039D02*
D03*
X216182Y290139D02*
D03*
X216082Y290339D02*
D03*
X215982Y290439D02*
D03*
Y290539D02*
D03*
X215882Y290639D02*
D03*
X215782Y290839D02*
D03*
X215682Y290939D02*
D03*
Y291039D02*
D03*
X215582Y291139D02*
D03*
Y291239D02*
D03*
X215482Y291339D02*
D03*
X215382Y291539D02*
D03*
X215282Y291639D02*
D03*
Y291739D02*
D03*
X215182Y291839D02*
D03*
Y291939D02*
D03*
X215082Y292039D02*
D03*
X214982Y292139D02*
D03*
Y292239D02*
D03*
X214882Y292339D02*
D03*
Y292439D02*
D03*
X214782Y292539D02*
D03*
X214682Y292739D02*
D03*
X218082Y294139D02*
D03*
X231782Y294439D02*
D03*
X233882Y295339D02*
D03*
X236082Y295539D02*
D03*
X233182Y301339D02*
D03*
X209382Y301839D02*
D03*
Y301939D02*
D03*
X226982Y302039D02*
D03*
X209282D02*
D03*
X209182Y302139D02*
D03*
Y302239D02*
D03*
X225182Y302339D02*
D03*
X209082D02*
D03*
X225082Y302439D02*
D03*
X209082D02*
D03*
X208982Y302539D02*
D03*
X224982Y302739D02*
D03*
X208882D02*
D03*
X208782Y302839D02*
D03*
X225682Y302939D02*
D03*
X208782D02*
D03*
X225582Y303039D02*
D03*
X208682D02*
D03*
X225482Y303139D02*
D03*
X208682D02*
D03*
X225482Y303239D02*
D03*
X208582D02*
D03*
X225382Y303339D02*
D03*
Y303439D02*
D03*
X208482D02*
D03*
X208382Y303539D02*
D03*
Y303639D02*
D03*
X208282Y303739D02*
D03*
Y303839D02*
D03*
X208182Y303939D02*
D03*
X208082Y304039D02*
D03*
Y304139D02*
D03*
X207982Y304239D02*
D03*
Y304339D02*
D03*
X207882Y304439D02*
D03*
X207782Y304639D02*
D03*
X207682Y304739D02*
D03*
Y304839D02*
D03*
X232782Y304939D02*
D03*
X207582D02*
D03*
Y305039D02*
D03*
X207482Y305139D02*
D03*
X207382Y305239D02*
D03*
Y305339D02*
D03*
X207282Y305439D02*
D03*
Y305539D02*
D03*
X207182Y305639D02*
D03*
X207082Y305839D02*
D03*
X206982Y305939D02*
D03*
Y306039D02*
D03*
X206882Y306139D02*
D03*
Y306239D02*
D03*
X206782Y306339D02*
D03*
X206682Y306539D02*
D03*
X206582Y306639D02*
D03*
Y306739D02*
D03*
X229982Y307039D02*
D03*
X230082Y307139D02*
D03*
X230182Y307239D02*
D03*
X230282Y307439D02*
D03*
X231682Y307539D02*
D03*
X230382D02*
D03*
X231682Y307639D02*
D03*
X230482D02*
D03*
X231682Y307739D02*
D03*
X230482D02*
D03*
X230582Y307839D02*
D03*
X230682Y307939D02*
D03*
X231782Y308039D02*
D03*
X230682D02*
D03*
X230782Y308139D02*
D03*
X231882Y308239D02*
D03*
X230882D02*
D03*
X231982Y308339D02*
D03*
X230882D02*
D03*
X230982Y308439D02*
D03*
X227282Y308539D02*
D03*
X231082Y308639D02*
D03*
X231182Y308739D02*
D03*
Y308839D02*
D03*
X231282Y308939D02*
D03*
X227282D02*
D03*
X227382Y309139D02*
D03*
Y309239D02*
D03*
X231282Y309339D02*
D03*
X227482D02*
D03*
Y309439D02*
D03*
X231182Y309639D02*
D03*
X227582D02*
D03*
X234182Y309739D02*
D03*
X231082D02*
D03*
X227682D02*
D03*
Y309839D02*
D03*
X227782Y309939D02*
D03*
Y310039D02*
D03*
X227882Y310139D02*
D03*
X227982Y310239D02*
D03*
Y310339D02*
D03*
X228082Y310439D02*
D03*
X228182Y310539D02*
D03*
D42*
X173850Y268750D02*
D03*
X229031Y268139D02*
D03*
X240932Y288639D02*
D03*
Y288739D02*
D03*
X217832Y294539D02*
D03*
X230332Y295139D02*
D03*
X233132Y301439D02*
D03*
X209532Y301739D02*
D03*
X225432Y302039D02*
D03*
X225332Y302139D02*
D03*
X225232Y302239D02*
D03*
X227232Y302739D02*
D03*
X231632Y307239D02*
D03*
Y307339D02*
D03*
X230232D02*
D03*
X237432Y307439D02*
D03*
X231632D02*
D03*
X227832Y308039D02*
D03*
X227432Y308339D02*
D03*
X227332Y308439D02*
D03*
X231032Y309839D02*
D03*
X237432Y309939D02*
D03*
X230932D02*
D03*
X230832Y310039D02*
D03*
X230732Y310139D02*
D03*
X230632Y310239D02*
D03*
X228232Y310639D02*
D03*
X228332Y310739D02*
D03*
X228432Y310839D02*
D03*
D43*
X173900Y268850D02*
D03*
X228981Y268239D02*
D03*
X214682Y292839D02*
D03*
X217982Y294239D02*
D03*
Y294339D02*
D03*
X217882Y294439D02*
D03*
X233182Y301539D02*
D03*
X226782Y301939D02*
D03*
X225882Y302739D02*
D03*
X225782Y302839D02*
D03*
X229682Y306839D02*
D03*
X231582Y307039D02*
D03*
X229382D02*
D03*
X231582Y307139D02*
D03*
X229182D02*
D03*
X228882Y307339D02*
D03*
X228582Y307539D02*
D03*
X228382Y307639D02*
D03*
X228282Y307739D02*
D03*
X228082Y307839D02*
D03*
X232882Y307939D02*
D03*
X227982D02*
D03*
X227682Y308139D02*
D03*
X227582Y308239D02*
D03*
X232082Y308439D02*
D03*
X234182Y309639D02*
D03*
X236782Y310339D02*
D03*
X230482D02*
D03*
X230382Y310439D02*
D03*
X236482Y310539D02*
D03*
X230182D02*
D03*
X236182Y310739D02*
D03*
X235882Y310939D02*
D03*
X235782Y311039D02*
D03*
X235582Y311139D02*
D03*
X235482Y311239D02*
D03*
D44*
X173850Y268950D02*
D03*
X229031Y268339D02*
D03*
X235332Y288039D02*
D03*
X235132Y288139D02*
D03*
X234932Y288239D02*
D03*
X234632Y288439D02*
D03*
X234432Y288539D02*
D03*
X234232Y288639D02*
D03*
X234032Y288739D02*
D03*
X240932Y288839D02*
D03*
X233832D02*
D03*
X233632Y288939D02*
D03*
X233432Y289039D02*
D03*
X233232Y289139D02*
D03*
X233032Y289239D02*
D03*
X232732Y289439D02*
D03*
X232532Y289539D02*
D03*
X232332Y289639D02*
D03*
X232132Y289739D02*
D03*
X231932Y289839D02*
D03*
X231732Y289939D02*
D03*
X238732Y290039D02*
D03*
X231532D02*
D03*
X238532Y290139D02*
D03*
X231332D02*
D03*
X238332Y290239D02*
D03*
X238132Y290339D02*
D03*
X237932Y290439D02*
D03*
X230832D02*
D03*
X237732Y290539D02*
D03*
X230632D02*
D03*
X237532Y290639D02*
D03*
X230432D02*
D03*
X230232Y290739D02*
D03*
X237232Y290839D02*
D03*
X230032D02*
D03*
X237032Y290939D02*
D03*
X229832D02*
D03*
X236832Y291039D02*
D03*
X229632D02*
D03*
X236632Y291139D02*
D03*
X229432D02*
D03*
X236432Y291239D02*
D03*
X236232Y291339D02*
D03*
X236032Y291439D02*
D03*
X228932D02*
D03*
X235832Y291539D02*
D03*
X228732D02*
D03*
X228532Y291639D02*
D03*
X235532Y291739D02*
D03*
X228332D02*
D03*
X235332Y291839D02*
D03*
X228132D02*
D03*
X235132Y291939D02*
D03*
X227932D02*
D03*
X234932Y292039D02*
D03*
X227732D02*
D03*
X234732Y292139D02*
D03*
X227532D02*
D03*
X234532Y292239D02*
D03*
X234332Y292339D02*
D03*
X227032Y292439D02*
D03*
X234032Y292539D02*
D03*
X226832D02*
D03*
X233832Y292639D02*
D03*
X226632D02*
D03*
X233632Y292739D02*
D03*
X226432D02*
D03*
X233432Y292839D02*
D03*
X226232D02*
D03*
X233232Y292939D02*
D03*
X226032D02*
D03*
X233032Y293039D02*
D03*
X225832D02*
D03*
X232832Y293139D02*
D03*
X225632D02*
D03*
X232532Y293339D02*
D03*
X232332Y293439D02*
D03*
X225132D02*
D03*
X232132Y293539D02*
D03*
X224932D02*
D03*
X231932Y293639D02*
D03*
X224732D02*
D03*
X231732Y293739D02*
D03*
X224532D02*
D03*
X231532Y293839D02*
D03*
X224332D02*
D03*
X231332Y293939D02*
D03*
X224132D02*
D03*
X231132Y294039D02*
D03*
X223932D02*
D03*
X223732Y294139D02*
D03*
X230832Y294239D02*
D03*
X230632Y294339D02*
D03*
X230432Y294439D02*
D03*
X223232D02*
D03*
X230232Y294539D02*
D03*
X223032D02*
D03*
X230032Y294639D02*
D03*
X222832D02*
D03*
X229832Y294739D02*
D03*
X222632D02*
D03*
X229632Y294839D02*
D03*
X222432D02*
D03*
X222232Y294939D02*
D03*
X229332Y295039D02*
D03*
X222032D02*
D03*
X229132Y295139D02*
D03*
X221832D02*
D03*
X228932Y295239D02*
D03*
X228732Y295339D02*
D03*
X221332Y295439D02*
D03*
X221132Y295539D02*
D03*
X220932Y295639D02*
D03*
X220732Y295739D02*
D03*
X220532Y295839D02*
D03*
X220332Y295939D02*
D03*
X220132Y296039D02*
D03*
X227232Y296139D02*
D03*
X219932D02*
D03*
X227032Y296239D02*
D03*
X226832Y296339D02*
D03*
X226632Y296439D02*
D03*
X219432D02*
D03*
X219232Y296539D02*
D03*
X219032Y296639D02*
D03*
X226132Y296739D02*
D03*
X218832D02*
D03*
X225932Y296839D02*
D03*
X225732Y296939D02*
D03*
X225532Y297039D02*
D03*
X225332Y297139D02*
D03*
X225132Y297239D02*
D03*
X224932Y297339D02*
D03*
X224632Y297539D02*
D03*
X224432Y297639D02*
D03*
X224232Y297739D02*
D03*
X224032Y297839D02*
D03*
X223832Y297939D02*
D03*
X223632Y298039D02*
D03*
X223432Y298139D02*
D03*
X223132Y298339D02*
D03*
X222932Y298439D02*
D03*
X222732Y298539D02*
D03*
X222532Y298639D02*
D03*
X222332Y298739D02*
D03*
X222132Y298839D02*
D03*
X221932Y298939D02*
D03*
X221432Y299239D02*
D03*
X221232Y299339D02*
D03*
X221032Y299439D02*
D03*
X220832Y299539D02*
D03*
X220632Y299639D02*
D03*
X220432Y299739D02*
D03*
X220232Y299839D02*
D03*
X233132Y301639D02*
D03*
X209632D02*
D03*
X233132Y301839D02*
D03*
X225632Y301939D02*
D03*
X233032Y302039D02*
D03*
X232932Y302239D02*
D03*
Y302339D02*
D03*
X232832Y302539D02*
D03*
Y302639D02*
D03*
X232732Y302939D02*
D03*
X231532Y306839D02*
D03*
Y306939D02*
D03*
X229032Y307239D02*
D03*
X228732Y307439D02*
D03*
X232832Y307839D02*
D03*
X234132Y309539D02*
D03*
X236932Y310239D02*
D03*
X236632Y310439D02*
D03*
X236332Y310639D02*
D03*
X230032D02*
D03*
X229832Y310739D02*
D03*
X236032Y310839D02*
D03*
X228932Y311139D02*
D03*
D45*
X173850Y269150D02*
D03*
X229032Y268439D02*
D03*
X209932Y301439D02*
D03*
X226232Y301639D02*
D03*
X232632Y303339D02*
D03*
X232532Y303739D02*
D03*
Y303839D02*
D03*
Y303939D02*
D03*
Y304039D02*
D03*
Y304739D02*
D03*
X230732Y304839D02*
D03*
Y304939D02*
D03*
X230832Y305139D02*
D03*
X230932Y305239D02*
D03*
X231532Y306639D02*
D03*
X229632Y306939D02*
D03*
X232832Y307639D02*
D03*
X232232Y308539D02*
D03*
X232432Y308939D02*
D03*
Y309039D02*
D03*
Y309139D02*
D03*
X234132Y309339D02*
D03*
X232432Y309439D02*
D03*
Y309539D02*
D03*
D46*
X173900Y269250D02*
D03*
X228982Y268539D02*
D03*
X235382Y287939D02*
D03*
X240882Y288939D02*
D03*
X214782Y293039D02*
D03*
X230182Y295239D02*
D03*
X232482Y304139D02*
D03*
Y304239D02*
D03*
Y304339D02*
D03*
Y304439D02*
D03*
Y304539D02*
D03*
Y304639D02*
D03*
X230682D02*
D03*
Y304739D02*
D03*
X230982Y305339D02*
D03*
X231082Y305439D02*
D03*
X231582Y306539D02*
D03*
X232882Y307339D02*
D03*
X232782Y307539D02*
D03*
X232382Y308739D02*
D03*
Y308839D02*
D03*
X234182Y309139D02*
D03*
Y309239D02*
D03*
X232382Y309639D02*
D03*
X238482Y310339D02*
D03*
D47*
X229032Y268639D02*
D03*
X240832Y289039D02*
D03*
X231732Y294639D02*
D03*
X220032Y300039D02*
D03*
X210032Y301339D02*
D03*
X226632Y302439D02*
D03*
X230632Y304439D02*
D03*
Y304539D02*
D03*
X231532Y306339D02*
D03*
Y306439D02*
D03*
X232932Y307239D02*
D03*
X232832Y307439D02*
D03*
X232432Y308639D02*
D03*
X234332Y308839D02*
D03*
X234232Y309039D02*
D03*
X232432Y309739D02*
D03*
Y309839D02*
D03*
D48*
X173900Y269350D02*
D03*
Y269450D02*
D03*
X228982Y268739D02*
D03*
X214882Y293139D02*
D03*
X234382Y295539D02*
D03*
X210182Y301239D02*
D03*
X234682Y301439D02*
D03*
X234782Y301639D02*
D03*
X230582Y304239D02*
D03*
Y304339D02*
D03*
X231182Y305539D02*
D03*
X233082Y306939D02*
D03*
X232982Y307039D02*
D03*
Y307139D02*
D03*
X234382Y308739D02*
D03*
X234282Y308939D02*
D03*
X237482Y310039D02*
D03*
X238182Y310239D02*
D03*
X228982Y311039D02*
D03*
D49*
X229032Y268839D02*
D03*
X234332Y300839D02*
D03*
X234432Y301039D02*
D03*
X234532Y301139D02*
D03*
Y301239D02*
D03*
X234632Y301339D02*
D03*
X234732Y301539D02*
D03*
X234832Y301739D02*
D03*
X226232D02*
D03*
X230532Y303939D02*
D03*
Y304039D02*
D03*
Y304139D02*
D03*
X231332Y305639D02*
D03*
X231532Y306139D02*
D03*
Y306239D02*
D03*
X233232Y306639D02*
D03*
X233132Y306839D02*
D03*
X234532Y308439D02*
D03*
X234432Y308639D02*
D03*
X232432Y309939D02*
D03*
D50*
X229032Y268939D02*
D03*
X235232Y287839D02*
D03*
X214932Y293339D02*
D03*
X235332Y297839D02*
D03*
X235432Y298039D02*
D03*
X233032Y298239D02*
D03*
X235532Y298339D02*
D03*
X233132Y298439D02*
D03*
X235632Y298539D02*
D03*
X235732Y298739D02*
D03*
X233232D02*
D03*
X235732Y298839D02*
D03*
X233332Y298939D02*
D03*
X235832Y299039D02*
D03*
X233432Y299139D02*
D03*
X235932Y299239D02*
D03*
X233532D02*
D03*
Y299339D02*
D03*
X236032Y299439D02*
D03*
X233632D02*
D03*
Y299539D02*
D03*
X236132Y299639D02*
D03*
X233732Y299739D02*
D03*
X236232Y299839D02*
D03*
X233832Y299939D02*
D03*
X233932Y300139D02*
D03*
X234832Y301939D02*
D03*
X226632Y302539D02*
D03*
X230532Y303739D02*
D03*
Y303839D02*
D03*
X234232Y304639D02*
D03*
Y304739D02*
D03*
Y304839D02*
D03*
Y304939D02*
D03*
X234132Y305239D02*
D03*
X234032Y305439D02*
D03*
X231532Y305939D02*
D03*
Y306039D02*
D03*
X233432Y306439D02*
D03*
X234732Y308139D02*
D03*
X234632Y308239D02*
D03*
X232432Y310139D02*
D03*
X229032Y310939D02*
D03*
D51*
X173900Y269750D02*
D03*
X228982Y269039D02*
D03*
X240682Y289239D02*
D03*
X231882Y294839D02*
D03*
X231982Y295039D02*
D03*
Y295139D02*
D03*
X232082Y295439D02*
D03*
Y295539D02*
D03*
Y295639D02*
D03*
X232182Y295839D02*
D03*
Y295939D02*
D03*
X232282Y296239D02*
D03*
Y296339D02*
D03*
X232382Y296539D02*
D03*
Y296639D02*
D03*
X234982Y296739D02*
D03*
X232482Y296839D02*
D03*
Y296939D02*
D03*
X235082Y297039D02*
D03*
X232582D02*
D03*
X235082Y297139D02*
D03*
X232582D02*
D03*
Y297239D02*
D03*
X235182Y297339D02*
D03*
X232682D02*
D03*
X235182Y297439D02*
D03*
X232682D02*
D03*
X235182Y297539D02*
D03*
X232782D02*
D03*
X235282Y297639D02*
D03*
X232782D02*
D03*
X235282Y297739D02*
D03*
X232782D02*
D03*
X232882Y297839D02*
D03*
X235382Y297939D02*
D03*
X232882D02*
D03*
X232982Y298039D02*
D03*
X235482Y298139D02*
D03*
X232982D02*
D03*
X235482Y298239D02*
D03*
X233082Y298339D02*
D03*
X235582Y298439D02*
D03*
X233182Y298539D02*
D03*
X235682Y298639D02*
D03*
X233182D02*
D03*
X233282Y298839D02*
D03*
X235782Y298939D02*
D03*
X233382Y299039D02*
D03*
X235882Y299139D02*
D03*
X235982Y299339D02*
D03*
X236082Y299539D02*
D03*
X236182Y299739D02*
D03*
X236282Y299939D02*
D03*
Y300039D02*
D03*
X236382Y300139D02*
D03*
Y300239D02*
D03*
X219882D02*
D03*
X236482Y300339D02*
D03*
Y300439D02*
D03*
X236582Y300539D02*
D03*
Y300639D02*
D03*
X236682Y300739D02*
D03*
Y300839D02*
D03*
X236782Y300939D02*
D03*
X210482D02*
D03*
X236882Y301139D02*
D03*
X236982Y301339D02*
D03*
X237082Y301539D02*
D03*
X237182Y301639D02*
D03*
X237282Y301839D02*
D03*
X234782Y302039D02*
D03*
Y302139D02*
D03*
X230482Y303539D02*
D03*
Y303639D02*
D03*
X234282Y304239D02*
D03*
Y304339D02*
D03*
Y304439D02*
D03*
Y304539D02*
D03*
X234082Y305339D02*
D03*
X233982Y305539D02*
D03*
X231582Y305839D02*
D03*
X233582Y306239D02*
D03*
X233482Y306339D02*
D03*
D52*
X173850Y269850D02*
D03*
X229032Y269139D02*
D03*
X231932Y294939D02*
D03*
X232032Y295239D02*
D03*
Y295339D02*
D03*
X232132Y295739D02*
D03*
X232232Y296039D02*
D03*
Y296139D02*
D03*
X232332Y296439D02*
D03*
X234932Y296539D02*
D03*
Y296639D02*
D03*
X232432Y296739D02*
D03*
X235032Y296839D02*
D03*
Y296939D02*
D03*
X235132Y297239D02*
D03*
X210632Y300839D02*
D03*
X236832Y301039D02*
D03*
X236932Y301239D02*
D03*
X237032Y301439D02*
D03*
X237232Y301739D02*
D03*
X226232Y301839D02*
D03*
X234732Y302239D02*
D03*
X237232Y302339D02*
D03*
X234732D02*
D03*
X237232Y302439D02*
D03*
Y302539D02*
D03*
X234632D02*
D03*
X237232Y302639D02*
D03*
X234632D02*
D03*
X226632D02*
D03*
X237132Y302839D02*
D03*
Y302939D02*
D03*
X234532D02*
D03*
X237132Y303039D02*
D03*
X234532D02*
D03*
X237032Y303339D02*
D03*
X234432D02*
D03*
X237032Y303439D02*
D03*
X234432D02*
D03*
Y303539D02*
D03*
X236932Y303839D02*
D03*
X234332D02*
D03*
Y303939D02*
D03*
Y304039D02*
D03*
Y304139D02*
D03*
X233932Y305639D02*
D03*
Y305739D02*
D03*
X231532D02*
D03*
X233832Y305839D02*
D03*
Y305939D02*
D03*
X234932Y307939D02*
D03*
X234832Y308039D02*
D03*
X237632Y310139D02*
D03*
X232432Y310239D02*
D03*
D53*
X173900Y269950D02*
D03*
X174800Y271850D02*
D03*
X172900D02*
D03*
X174900Y271950D02*
D03*
Y272050D02*
D03*
X172800D02*
D03*
X175000Y272150D02*
D03*
X172700Y272250D02*
D03*
X175100Y272350D02*
D03*
X172600Y272450D02*
D03*
X175200Y272550D02*
D03*
X172500Y272650D02*
D03*
X175300Y272750D02*
D03*
X172400Y272850D02*
D03*
X175400Y272950D02*
D03*
X172300Y273050D02*
D03*
X175500Y273150D02*
D03*
X175600Y273350D02*
D03*
X172100D02*
D03*
X175700Y273550D02*
D03*
X172000D02*
D03*
X175800Y273750D02*
D03*
X171900D02*
D03*
X175900Y273950D02*
D03*
X171800D02*
D03*
X176000Y274150D02*
D03*
X171700D02*
D03*
X176100Y274350D02*
D03*
X171600D02*
D03*
X176200Y274550D02*
D03*
X171500D02*
D03*
X176300Y274650D02*
D03*
Y274750D02*
D03*
X171400D02*
D03*
X176400Y274850D02*
D03*
Y274950D02*
D03*
X176500Y275050D02*
D03*
X171200D02*
D03*
X176500Y275150D02*
D03*
X176600Y275250D02*
D03*
X171100D02*
D03*
X176700Y275450D02*
D03*
X171000D02*
D03*
X176800Y275650D02*
D03*
X170900D02*
D03*
X176900Y275850D02*
D03*
X170800D02*
D03*
X177000Y276050D02*
D03*
X170700D02*
D03*
X177100Y276250D02*
D03*
X170600D02*
D03*
X177200Y276450D02*
D03*
X170500D02*
D03*
X177300Y276650D02*
D03*
X170400D02*
D03*
X170300Y276750D02*
D03*
X177400Y276850D02*
D03*
X170200Y276950D02*
D03*
X177500Y277050D02*
D03*
X170100Y277150D02*
D03*
X177600Y277250D02*
D03*
X170000Y277350D02*
D03*
X177700Y277450D02*
D03*
X169900Y277550D02*
D03*
X177800Y277650D02*
D03*
X177900Y277750D02*
D03*
X169800D02*
D03*
X177900Y277850D02*
D03*
X178000Y277950D02*
D03*
X169700D02*
D03*
X178000Y278050D02*
D03*
X178100Y278150D02*
D03*
X169600D02*
D03*
X178100Y278250D02*
D03*
X178200Y278350D02*
D03*
X169500D02*
D03*
X169400Y278450D02*
D03*
X178300Y278550D02*
D03*
X169300Y278650D02*
D03*
X178400Y278750D02*
D03*
X169200Y278850D02*
D03*
X178500Y278950D02*
D03*
X169100Y279050D02*
D03*
X178600Y279150D02*
D03*
X169000Y279250D02*
D03*
X178700Y279350D02*
D03*
X168900Y279450D02*
D03*
X178800Y279550D02*
D03*
X168800Y279650D02*
D03*
X178900Y279750D02*
D03*
X168700Y279850D02*
D03*
X179000Y279950D02*
D03*
X168600Y280050D02*
D03*
X179100Y280150D02*
D03*
X168500D02*
D03*
X179200Y280350D02*
D03*
X168400D02*
D03*
X179300Y280550D02*
D03*
X168300D02*
D03*
X179400Y280750D02*
D03*
X168200D02*
D03*
X179500Y280850D02*
D03*
Y280950D02*
D03*
X168100D02*
D03*
X179600Y281050D02*
D03*
Y281150D02*
D03*
X168000D02*
D03*
X179700Y281250D02*
D03*
X167900Y281350D02*
D03*
X179800Y281450D02*
D03*
X167800Y281550D02*
D03*
X179900Y281650D02*
D03*
X167700Y281750D02*
D03*
X180000Y281850D02*
D03*
X180100Y282050D02*
D03*
X167500D02*
D03*
X180200Y282250D02*
D03*
X167400D02*
D03*
X180300Y282450D02*
D03*
X167300D02*
D03*
X180400Y282650D02*
D03*
X167200D02*
D03*
X180500Y282850D02*
D03*
X167100D02*
D03*
X180600Y283050D02*
D03*
X167000D02*
D03*
X180700Y283250D02*
D03*
X166900D02*
D03*
X180800Y283450D02*
D03*
X166800D02*
D03*
X180900Y283650D02*
D03*
X166600Y283750D02*
D03*
X181000Y283850D02*
D03*
X181100Y283950D02*
D03*
X166500D02*
D03*
X181100Y284050D02*
D03*
X181200Y284150D02*
D03*
X166400D02*
D03*
X181200Y284250D02*
D03*
X181300Y284350D02*
D03*
X166300D02*
D03*
X181400Y284550D02*
D03*
X166200D02*
D03*
X181500Y284750D02*
D03*
X166100D02*
D03*
X181600Y284950D02*
D03*
X166000D02*
D03*
X181700Y285150D02*
D03*
X165900D02*
D03*
X181800Y285350D02*
D03*
X165800D02*
D03*
X165700Y285450D02*
D03*
X181900Y285550D02*
D03*
X165600Y285650D02*
D03*
X182000Y285750D02*
D03*
X165500Y285850D02*
D03*
X182100Y285950D02*
D03*
X165400Y286050D02*
D03*
X182200Y286150D02*
D03*
X165300Y286250D02*
D03*
X182300Y286350D02*
D03*
X165200Y286450D02*
D03*
X182400Y286550D02*
D03*
X165100Y286650D02*
D03*
X182500Y286750D02*
D03*
X182600Y286850D02*
D03*
X165000D02*
D03*
X182600Y286950D02*
D03*
X182700Y287050D02*
D03*
X164900D02*
D03*
X182700Y287150D02*
D03*
X164800D02*
D03*
X182800Y287250D02*
D03*
Y287350D02*
D03*
X164700D02*
D03*
X182900Y287450D02*
D03*
X164600Y287550D02*
D03*
X183000Y287650D02*
D03*
X164500Y287750D02*
D03*
X183100Y287850D02*
D03*
X164400Y287950D02*
D03*
X183200Y288050D02*
D03*
X164300Y288150D02*
D03*
X183300Y288250D02*
D03*
X164200Y288350D02*
D03*
X183400Y288450D02*
D03*
X164100Y288550D02*
D03*
X183500Y288650D02*
D03*
X164000Y288750D02*
D03*
X183600Y288850D02*
D03*
X163900D02*
D03*
X183700Y289050D02*
D03*
X163800D02*
D03*
X183800Y289250D02*
D03*
X163700D02*
D03*
X183900Y289450D02*
D03*
X163600D02*
D03*
X184000Y289650D02*
D03*
X163500D02*
D03*
X184100Y289850D02*
D03*
X163400D02*
D03*
X184200Y289950D02*
D03*
Y290050D02*
D03*
X163300D02*
D03*
X184300Y290150D02*
D03*
Y290250D02*
D03*
X163200D02*
D03*
X184400Y290350D02*
D03*
X163100Y290450D02*
D03*
X184500Y290550D02*
D03*
X184600Y290750D02*
D03*
X162900D02*
D03*
X184700Y290950D02*
D03*
X162800D02*
D03*
X184800Y291150D02*
D03*
X162700D02*
D03*
X184900Y291350D02*
D03*
X162600D02*
D03*
X185000Y291550D02*
D03*
X162500D02*
D03*
X185100Y291750D02*
D03*
X162400D02*
D03*
X185200Y291950D02*
D03*
X162300D02*
D03*
X185300Y292150D02*
D03*
X162200D02*
D03*
X185400Y292350D02*
D03*
X162000Y292450D02*
D03*
X185500Y292550D02*
D03*
X161900Y292650D02*
D03*
X185600Y292750D02*
D03*
X161800Y292850D02*
D03*
X185700Y292950D02*
D03*
X185800Y293050D02*
D03*
X161700D02*
D03*
X185800Y293150D02*
D03*
X185900Y293250D02*
D03*
X161600D02*
D03*
X185900Y293350D02*
D03*
X186000Y293450D02*
D03*
X161500D02*
D03*
X186100Y293650D02*
D03*
X161400D02*
D03*
X186200Y293850D02*
D03*
X161300D02*
D03*
X186300Y294050D02*
D03*
X161200D02*
D03*
X161100Y294150D02*
D03*
X186400Y294250D02*
D03*
X161000Y294350D02*
D03*
X186500Y294450D02*
D03*
X160900Y294550D02*
D03*
X186600Y294650D02*
D03*
X160800Y294750D02*
D03*
X186700Y294850D02*
D03*
X160700Y294950D02*
D03*
X186800Y295050D02*
D03*
X160600Y295150D02*
D03*
X186900Y295250D02*
D03*
X160500Y295350D02*
D03*
X187000Y295450D02*
D03*
X160400Y295550D02*
D03*
X187100Y295650D02*
D03*
X160300Y295750D02*
D03*
X187200Y295850D02*
D03*
X160200D02*
D03*
X187300Y295950D02*
D03*
Y296050D02*
D03*
X160100D02*
D03*
X187400Y296150D02*
D03*
Y296250D02*
D03*
X160000D02*
D03*
X187500Y296350D02*
D03*
Y296450D02*
D03*
X159900D02*
D03*
X187600Y296550D02*
D03*
X159800Y296650D02*
D03*
X187700Y296750D02*
D03*
X159700Y296850D02*
D03*
X187800Y296950D02*
D03*
X159600Y297050D02*
D03*
X187900Y297150D02*
D03*
X159500Y297250D02*
D03*
X188000Y297350D02*
D03*
X159400Y297450D02*
D03*
X188100Y297550D02*
D03*
X159300D02*
D03*
X188200Y297750D02*
D03*
X159200D02*
D03*
X188300Y297950D02*
D03*
X159100D02*
D03*
X188400Y298150D02*
D03*
X159000D02*
D03*
X188500Y298350D02*
D03*
X158900D02*
D03*
X188600Y298550D02*
D03*
X158800D02*
D03*
X188700Y298750D02*
D03*
X158700D02*
D03*
X188800Y298950D02*
D03*
X158600D02*
D03*
X188900Y299050D02*
D03*
Y299150D02*
D03*
X158500D02*
D03*
X189000Y299250D02*
D03*
Y299350D02*
D03*
X189100Y299450D02*
D03*
X158300D02*
D03*
X189100Y299550D02*
D03*
X189200Y299650D02*
D03*
X158200D02*
D03*
X189300Y299850D02*
D03*
X158100D02*
D03*
X189400Y300050D02*
D03*
X158000D02*
D03*
X189500Y300250D02*
D03*
X157900D02*
D03*
X189600Y300450D02*
D03*
X157800D02*
D03*
X189700Y300650D02*
D03*
X157700D02*
D03*
X189800Y300850D02*
D03*
X157600D02*
D03*
X189900Y301050D02*
D03*
X157400Y301150D02*
D03*
X190000Y301250D02*
D03*
X157300Y301350D02*
D03*
X190100Y301450D02*
D03*
X157200Y301550D02*
D03*
X190200Y301650D02*
D03*
X157100Y301750D02*
D03*
X190300Y301850D02*
D03*
X157000Y301950D02*
D03*
X190400Y302050D02*
D03*
X190500Y302150D02*
D03*
X156900D02*
D03*
X190500Y302250D02*
D03*
X190600Y302350D02*
D03*
X156800D02*
D03*
X190600Y302450D02*
D03*
X190700Y302550D02*
D03*
X156700D02*
D03*
X190800Y302750D02*
D03*
X156600D02*
D03*
X156500Y302850D02*
D03*
X190900Y302950D02*
D03*
X156400Y303050D02*
D03*
X191000Y303150D02*
D03*
X156300Y303250D02*
D03*
X191100Y303350D02*
D03*
X156200Y303450D02*
D03*
X191200Y303550D02*
D03*
X156100Y303650D02*
D03*
X191300Y303750D02*
D03*
X156000Y303850D02*
D03*
X191400Y303950D02*
D03*
X155900Y304050D02*
D03*
X191500Y304150D02*
D03*
X155800Y304250D02*
D03*
X191600Y304350D02*
D03*
X155700Y304450D02*
D03*
X191700Y304550D02*
D03*
X155600D02*
D03*
X191800Y304750D02*
D03*
X155500D02*
D03*
X191900Y304950D02*
D03*
X155400D02*
D03*
X192000Y305050D02*
D03*
Y305150D02*
D03*
X155300D02*
D03*
X192100Y305250D02*
D03*
Y305350D02*
D03*
X155200D02*
D03*
X192200Y305450D02*
D03*
Y305550D02*
D03*
X155100D02*
D03*
X192300Y305650D02*
D03*
X155000Y305750D02*
D03*
X192400Y305850D02*
D03*
X154900Y305950D02*
D03*
X192500Y306050D02*
D03*
X154800Y306150D02*
D03*
X192600Y306250D02*
D03*
X154700D02*
D03*
X192700Y306450D02*
D03*
X154600D02*
D03*
X192800Y306650D02*
D03*
X154500D02*
D03*
X192900Y306850D02*
D03*
X154400D02*
D03*
X193000Y307050D02*
D03*
X154300D02*
D03*
X193100Y307250D02*
D03*
X154200D02*
D03*
X193200Y307450D02*
D03*
X154100D02*
D03*
X193300Y307650D02*
D03*
X154000D02*
D03*
X193400Y307850D02*
D03*
X153900D02*
D03*
X193500Y308050D02*
D03*
X193600Y308150D02*
D03*
X153700D02*
D03*
X193600Y308250D02*
D03*
X193700Y308350D02*
D03*
X153600D02*
D03*
X193700Y308450D02*
D03*
X193800Y308550D02*
D03*
X153500D02*
D03*
X193800Y308650D02*
D03*
X193900Y308750D02*
D03*
X153400D02*
D03*
X194000Y308950D02*
D03*
X153300D02*
D03*
X194100Y309150D02*
D03*
X153200D02*
D03*
X194200Y309350D02*
D03*
X153100D02*
D03*
X194300Y309550D02*
D03*
X153000D02*
D03*
X194400Y309750D02*
D03*
X152800Y309850D02*
D03*
X194500Y309950D02*
D03*
X152700Y310050D02*
D03*
X194600Y310150D02*
D03*
X152600Y310250D02*
D03*
X194700Y310350D02*
D03*
X152500Y310450D02*
D03*
X194800Y310550D02*
D03*
X152400Y310650D02*
D03*
X194900Y310750D02*
D03*
X152300Y310850D02*
D03*
X195000Y310950D02*
D03*
X152200Y311050D02*
D03*
X195100Y311150D02*
D03*
X195200Y311250D02*
D03*
X152100D02*
D03*
X195200Y311350D02*
D03*
X195300Y311450D02*
D03*
X152000D02*
D03*
X195300Y311550D02*
D03*
X151900D02*
D03*
X195400Y311650D02*
D03*
X151800Y311750D02*
D03*
X195500Y311850D02*
D03*
X151700Y311950D02*
D03*
X195600Y312050D02*
D03*
X151600Y312150D02*
D03*
X195700Y312250D02*
D03*
X151500Y312350D02*
D03*
X195800Y312450D02*
D03*
X151400Y312550D02*
D03*
X228982Y269239D02*
D03*
X214982Y293439D02*
D03*
X234882Y296239D02*
D03*
Y296339D02*
D03*
Y296439D02*
D03*
X210782Y300739D02*
D03*
X234682Y302439D02*
D03*
X237182Y302739D02*
D03*
X234582D02*
D03*
Y302839D02*
D03*
X237082Y303139D02*
D03*
X234482D02*
D03*
X237082Y303239D02*
D03*
X234482D02*
D03*
X230482Y303339D02*
D03*
Y303439D02*
D03*
X236982Y303539D02*
D03*
Y303639D02*
D03*
X234382D02*
D03*
X236982Y303739D02*
D03*
X234382D02*
D03*
X236882Y303939D02*
D03*
Y304039D02*
D03*
Y304139D02*
D03*
Y304239D02*
D03*
X236782Y304439D02*
D03*
Y304539D02*
D03*
Y304639D02*
D03*
Y304739D02*
D03*
X236682Y304939D02*
D03*
Y305039D02*
D03*
Y305139D02*
D03*
X236582Y305439D02*
D03*
Y305539D02*
D03*
X236482Y305939D02*
D03*
X233782Y306039D02*
D03*
X233682Y306139D02*
D03*
X234982Y307839D02*
D03*
D54*
X173850Y270050D02*
D03*
X172850Y271950D02*
D03*
X172750Y272150D02*
D03*
X175050Y272250D02*
D03*
X172650Y272350D02*
D03*
X175150Y272450D02*
D03*
X172550Y272550D02*
D03*
X175250Y272650D02*
D03*
X172450Y272750D02*
D03*
X175350Y272850D02*
D03*
X172350Y272950D02*
D03*
X175450Y273050D02*
D03*
X172250Y273150D02*
D03*
X175550Y273250D02*
D03*
X172150D02*
D03*
X175650Y273450D02*
D03*
X172050D02*
D03*
X175750Y273650D02*
D03*
X171950D02*
D03*
X175850Y273850D02*
D03*
X171850D02*
D03*
X175950Y274050D02*
D03*
X171750D02*
D03*
X176050Y274250D02*
D03*
X171650D02*
D03*
X176150Y274450D02*
D03*
X171550D02*
D03*
X171450Y274650D02*
D03*
X171350Y274850D02*
D03*
X171250Y274950D02*
D03*
X171150Y275150D02*
D03*
X176650Y275350D02*
D03*
X171050D02*
D03*
X176750Y275550D02*
D03*
X170950D02*
D03*
X176850Y275750D02*
D03*
X170850D02*
D03*
X176950Y275950D02*
D03*
X170750D02*
D03*
X177050Y276150D02*
D03*
X170650D02*
D03*
X177150Y276350D02*
D03*
X170550D02*
D03*
X177250Y276550D02*
D03*
X170450D02*
D03*
X177350Y276750D02*
D03*
X170250Y276850D02*
D03*
X177450Y276950D02*
D03*
X170150Y277050D02*
D03*
X177550Y277150D02*
D03*
X170050Y277250D02*
D03*
X177650Y277350D02*
D03*
X169950Y277450D02*
D03*
X177750Y277550D02*
D03*
X169850Y277650D02*
D03*
X169750Y277850D02*
D03*
X169650Y278050D02*
D03*
X169550Y278250D02*
D03*
X178250Y278450D02*
D03*
X169350Y278550D02*
D03*
X178350Y278650D02*
D03*
X169250Y278750D02*
D03*
X178450Y278850D02*
D03*
X169150Y278950D02*
D03*
X178550Y279050D02*
D03*
X169050Y279150D02*
D03*
X178650Y279250D02*
D03*
X168950Y279350D02*
D03*
X178750Y279450D02*
D03*
X168850Y279550D02*
D03*
X178850Y279650D02*
D03*
X168750Y279750D02*
D03*
X178950Y279850D02*
D03*
X168650Y279950D02*
D03*
X179050Y280050D02*
D03*
X179150Y280250D02*
D03*
X168450D02*
D03*
X179250Y280450D02*
D03*
X168350D02*
D03*
X179350Y280650D02*
D03*
X168250D02*
D03*
X168150Y280850D02*
D03*
X168050Y281050D02*
D03*
X167950Y281250D02*
D03*
X179750Y281350D02*
D03*
X167850Y281450D02*
D03*
X179850Y281550D02*
D03*
X167750Y281650D02*
D03*
X179950Y281750D02*
D03*
X167650Y281850D02*
D03*
X180050Y281950D02*
D03*
X167550D02*
D03*
X180150Y282150D02*
D03*
X167450D02*
D03*
X180250Y282350D02*
D03*
X167350D02*
D03*
X180350Y282550D02*
D03*
X167250D02*
D03*
X180450Y282750D02*
D03*
X167150D02*
D03*
X180550Y282950D02*
D03*
X167050D02*
D03*
X180650Y283150D02*
D03*
X166950D02*
D03*
X180750Y283350D02*
D03*
X166850D02*
D03*
X180850Y283550D02*
D03*
X166750D02*
D03*
X166650Y283650D02*
D03*
X180950Y283750D02*
D03*
X166550Y283850D02*
D03*
X166450Y284050D02*
D03*
X166350Y284250D02*
D03*
X181350Y284450D02*
D03*
X166250D02*
D03*
X181450Y284650D02*
D03*
X166150D02*
D03*
X181550Y284850D02*
D03*
X166050D02*
D03*
X181650Y285050D02*
D03*
X165950D02*
D03*
X181750Y285250D02*
D03*
X165850D02*
D03*
X181850Y285450D02*
D03*
X165650Y285550D02*
D03*
X181950Y285650D02*
D03*
X165550Y285750D02*
D03*
X182050Y285850D02*
D03*
X165450Y285950D02*
D03*
X182150Y286050D02*
D03*
X165350Y286150D02*
D03*
X182250Y286250D02*
D03*
X165250Y286350D02*
D03*
X182350Y286450D02*
D03*
X165150Y286550D02*
D03*
X182450Y286650D02*
D03*
X165050Y286750D02*
D03*
X164950Y286950D02*
D03*
X164750Y287250D02*
D03*
X164650Y287450D02*
D03*
X182950Y287550D02*
D03*
X164550Y287650D02*
D03*
X183050Y287750D02*
D03*
X164450Y287850D02*
D03*
X183150Y287950D02*
D03*
X164350Y288050D02*
D03*
X183250Y288150D02*
D03*
X164250Y288250D02*
D03*
X183350Y288350D02*
D03*
X164150Y288450D02*
D03*
X183450Y288550D02*
D03*
X164050Y288650D02*
D03*
X183550Y288750D02*
D03*
X183650Y288950D02*
D03*
X163850D02*
D03*
X183750Y289150D02*
D03*
X163750D02*
D03*
X183850Y289350D02*
D03*
X163650D02*
D03*
X183950Y289550D02*
D03*
X163550D02*
D03*
X184050Y289750D02*
D03*
X163450D02*
D03*
X163350Y289950D02*
D03*
X163250Y290150D02*
D03*
X163150Y290350D02*
D03*
X184450Y290450D02*
D03*
X163050Y290550D02*
D03*
X184550Y290650D02*
D03*
X162950D02*
D03*
X184650Y290850D02*
D03*
X162850D02*
D03*
X184750Y291050D02*
D03*
X162750D02*
D03*
X184850Y291250D02*
D03*
X162650D02*
D03*
X184950Y291450D02*
D03*
X162550D02*
D03*
X185050Y291650D02*
D03*
X162450D02*
D03*
X185150Y291850D02*
D03*
X162350D02*
D03*
X185250Y292050D02*
D03*
X162250D02*
D03*
X185350Y292250D02*
D03*
X162150D02*
D03*
X162050Y292350D02*
D03*
X185450Y292450D02*
D03*
X161950Y292550D02*
D03*
X185550Y292650D02*
D03*
X161850Y292750D02*
D03*
X185650Y292850D02*
D03*
X161750Y292950D02*
D03*
X161650Y293150D02*
D03*
X161550Y293350D02*
D03*
X186050Y293550D02*
D03*
X161450D02*
D03*
X186150Y293750D02*
D03*
X161350D02*
D03*
X186250Y293950D02*
D03*
X161250D02*
D03*
X186350Y294150D02*
D03*
X161050Y294250D02*
D03*
X186450Y294350D02*
D03*
X160950Y294450D02*
D03*
X186550Y294550D02*
D03*
X160850Y294650D02*
D03*
X186650Y294750D02*
D03*
X160750Y294850D02*
D03*
X186750Y294950D02*
D03*
X160650Y295050D02*
D03*
X186850Y295150D02*
D03*
X160550Y295250D02*
D03*
X186950Y295350D02*
D03*
X160450Y295450D02*
D03*
X187050Y295550D02*
D03*
X160350Y295650D02*
D03*
X187150Y295750D02*
D03*
X160150Y295950D02*
D03*
X160050Y296150D02*
D03*
X159950Y296350D02*
D03*
X159850Y296550D02*
D03*
X187650Y296650D02*
D03*
X159750Y296750D02*
D03*
X187750Y296850D02*
D03*
X159650Y296950D02*
D03*
X187850Y297050D02*
D03*
X159550Y297150D02*
D03*
X187950Y297250D02*
D03*
X159450Y297350D02*
D03*
X188050Y297450D02*
D03*
X188150Y297650D02*
D03*
X159250D02*
D03*
X188250Y297850D02*
D03*
X159150D02*
D03*
X188350Y298050D02*
D03*
X159050D02*
D03*
X188450Y298250D02*
D03*
X158950D02*
D03*
X188550Y298450D02*
D03*
X158850D02*
D03*
X188650Y298650D02*
D03*
X158750D02*
D03*
X188750Y298850D02*
D03*
X158650D02*
D03*
X158550Y299050D02*
D03*
X158450Y299250D02*
D03*
X158350Y299350D02*
D03*
X158250Y299550D02*
D03*
X189250Y299750D02*
D03*
X158150D02*
D03*
X189350Y299950D02*
D03*
X158050D02*
D03*
X189450Y300150D02*
D03*
X157950D02*
D03*
X189550Y300350D02*
D03*
X157850D02*
D03*
X189650Y300550D02*
D03*
X157750D02*
D03*
X189750Y300750D02*
D03*
X157650D02*
D03*
X189850Y300950D02*
D03*
X157550D02*
D03*
X157450Y301050D02*
D03*
X189950Y301150D02*
D03*
X157350Y301250D02*
D03*
X190050Y301350D02*
D03*
X157250Y301450D02*
D03*
X190150Y301550D02*
D03*
X157150Y301650D02*
D03*
X190250Y301750D02*
D03*
X157050Y301850D02*
D03*
X190350Y301950D02*
D03*
X156950Y302050D02*
D03*
X156850Y302250D02*
D03*
X156750Y302450D02*
D03*
X190750Y302650D02*
D03*
X156650D02*
D03*
X190850Y302850D02*
D03*
X156450Y302950D02*
D03*
X190950Y303050D02*
D03*
X156350Y303150D02*
D03*
X191050Y303250D02*
D03*
X156250Y303350D02*
D03*
X191150Y303450D02*
D03*
X156150Y303550D02*
D03*
X191250Y303650D02*
D03*
X156050Y303750D02*
D03*
X191350Y303850D02*
D03*
X155950Y303950D02*
D03*
X191450Y304050D02*
D03*
X155850Y304150D02*
D03*
X191550Y304250D02*
D03*
X155750Y304350D02*
D03*
X191650Y304450D02*
D03*
X191750Y304650D02*
D03*
X155550D02*
D03*
X191850Y304850D02*
D03*
X155450D02*
D03*
X155350Y305050D02*
D03*
X155250Y305250D02*
D03*
X155150Y305450D02*
D03*
X155050Y305650D02*
D03*
X192350Y305750D02*
D03*
X154950Y305850D02*
D03*
X192450Y305950D02*
D03*
X154850Y306050D02*
D03*
X192550Y306150D02*
D03*
X192650Y306350D02*
D03*
X154650D02*
D03*
X192750Y306550D02*
D03*
X154550D02*
D03*
X192850Y306750D02*
D03*
X154450D02*
D03*
X192950Y306950D02*
D03*
X154350D02*
D03*
X193050Y307150D02*
D03*
X154250D02*
D03*
X193150Y307350D02*
D03*
X154150D02*
D03*
X193250Y307550D02*
D03*
X154050D02*
D03*
X193350Y307750D02*
D03*
X153950D02*
D03*
X193450Y307950D02*
D03*
X153850D02*
D03*
X153750Y308050D02*
D03*
X153650Y308250D02*
D03*
X153550Y308450D02*
D03*
X153450Y308650D02*
D03*
X193950Y308850D02*
D03*
X153350D02*
D03*
X194050Y309050D02*
D03*
X153250D02*
D03*
X194150Y309250D02*
D03*
X153150D02*
D03*
X194250Y309450D02*
D03*
X153050D02*
D03*
X194350Y309650D02*
D03*
X152950D02*
D03*
X152850Y309750D02*
D03*
X194450Y309850D02*
D03*
X152750Y309950D02*
D03*
X194550Y310050D02*
D03*
X152650Y310150D02*
D03*
X194650Y310250D02*
D03*
X152550Y310350D02*
D03*
X194750Y310450D02*
D03*
X152450Y310550D02*
D03*
X194850Y310650D02*
D03*
X152350Y310750D02*
D03*
X194950Y310850D02*
D03*
X152250Y310950D02*
D03*
X195050Y311050D02*
D03*
X152150Y311150D02*
D03*
X152050Y311350D02*
D03*
X151850Y311650D02*
D03*
X195450Y311750D02*
D03*
X151750Y311850D02*
D03*
X195550Y311950D02*
D03*
X151650Y312050D02*
D03*
X195650Y312150D02*
D03*
X151550Y312250D02*
D03*
X195750Y312350D02*
D03*
X151450Y312450D02*
D03*
X195850Y312550D02*
D03*
X229032Y269339D02*
D03*
X235232Y287739D02*
D03*
X240632Y289339D02*
D03*
X234832Y296039D02*
D03*
Y296139D02*
D03*
X219832Y300339D02*
D03*
X230432Y303139D02*
D03*
Y303239D02*
D03*
X236832Y304339D02*
D03*
X236732Y304839D02*
D03*
X236632Y305239D02*
D03*
Y305339D02*
D03*
X236532Y305639D02*
D03*
Y305739D02*
D03*
Y305839D02*
D03*
X236432Y306039D02*
D03*
Y306139D02*
D03*
Y306239D02*
D03*
Y306339D02*
D03*
X236332Y306439D02*
D03*
Y306539D02*
D03*
Y306639D02*
D03*
X235132Y307739D02*
D03*
X232432Y310339D02*
D03*
D55*
X173900Y270150D02*
D03*
X228982Y269439D02*
D03*
X214982Y293539D02*
D03*
X210882Y300639D02*
D03*
X237482Y302239D02*
D03*
X236282Y306739D02*
D03*
X235182Y307639D02*
D03*
X232482Y310439D02*
D03*
D56*
X173850Y270250D02*
D03*
X229032Y269539D02*
D03*
X240532Y289439D02*
D03*
X215032Y293639D02*
D03*
X219832Y300439D02*
D03*
X211032Y300539D02*
D03*
X237532Y302139D02*
D03*
X230432Y302939D02*
D03*
Y303039D02*
D03*
X235332Y307539D02*
D03*
D57*
X173850Y270450D02*
D03*
X229032Y269639D02*
D03*
X235232Y287639D02*
D03*
X211132Y300439D02*
D03*
X230432Y302739D02*
D03*
X236132Y306839D02*
D03*
X236032Y306939D02*
D03*
X235532Y307439D02*
D03*
D58*
X173900Y270550D02*
D03*
X228982Y269739D02*
D03*
X240482Y289539D02*
D03*
X240682Y289939D02*
D03*
X240782Y290139D02*
D03*
X215082Y293739D02*
D03*
X235082Y295839D02*
D03*
X211282Y300339D02*
D03*
X219782Y300539D02*
D03*
X230382Y302539D02*
D03*
Y302639D02*
D03*
D59*
X173850Y270650D02*
D03*
X229032Y269839D02*
D03*
X240732Y290039D02*
D03*
X240832Y290239D02*
D03*
X240932Y290339D02*
D03*
Y290439D02*
D03*
X241032Y290639D02*
D03*
X215132Y293839D02*
D03*
X229432Y295439D02*
D03*
X235032Y295639D02*
D03*
Y295739D02*
D03*
X211432Y300239D02*
D03*
X230332Y302439D02*
D03*
D60*
X173900Y270750D02*
D03*
X228982Y269939D02*
D03*
X240982Y290539D02*
D03*
X241082Y290739D02*
D03*
X241182Y290939D02*
D03*
X211482Y300139D02*
D03*
X230382Y302339D02*
D03*
X232482Y310639D02*
D03*
D61*
X173850Y270850D02*
D03*
X229032Y270039D02*
D03*
X235232Y287539D02*
D03*
X240432Y289639D02*
D03*
X241132Y290839D02*
D03*
X241232Y291039D02*
D03*
Y291139D02*
D03*
X241332Y291239D02*
D03*
Y291339D02*
D03*
X229332Y295539D02*
D03*
X211632Y300039D02*
D03*
X219732Y300639D02*
D03*
X230332Y302139D02*
D03*
Y302239D02*
D03*
X236032Y307039D02*
D03*
D62*
X173850Y271050D02*
D03*
X229032Y270139D02*
D03*
Y270239D02*
D03*
X240332Y289739D02*
D03*
X241532Y291739D02*
D03*
X241632Y291939D02*
D03*
X241732Y292139D02*
D03*
X211732Y299939D02*
D03*
X230332Y301939D02*
D03*
Y302039D02*
D03*
D63*
X173850Y271250D02*
D03*
X229032Y270339D02*
D03*
X235232Y287439D02*
D03*
X241932Y292639D02*
D03*
X242032Y292839D02*
D03*
X215232Y294139D02*
D03*
X229332Y296139D02*
D03*
Y296239D02*
D03*
X230332Y301739D02*
D03*
Y301839D02*
D03*
D64*
X173900Y271350D02*
D03*
X228982Y270439D02*
D03*
X240282Y289839D02*
D03*
X241982Y292739D02*
D03*
X242082Y292939D02*
D03*
Y293039D02*
D03*
X242182Y293139D02*
D03*
Y293239D02*
D03*
X229182Y295739D02*
D03*
X229382Y296339D02*
D03*
Y296439D02*
D03*
Y296539D02*
D03*
X229482Y296739D02*
D03*
Y296839D02*
D03*
X211982Y299739D02*
D03*
X230282Y301639D02*
D03*
X236082Y307239D02*
D03*
D65*
X173850Y271450D02*
D03*
X229032Y270539D02*
D03*
X242232Y293339D02*
D03*
X242332Y293539D02*
D03*
X229132Y295839D02*
D03*
X229432Y296639D02*
D03*
X229532Y296939D02*
D03*
Y297039D02*
D03*
Y297139D02*
D03*
X229632Y297439D02*
D03*
X212132Y299639D02*
D03*
X219632Y300839D02*
D03*
X230332Y301539D02*
D03*
X236032Y307339D02*
D03*
D66*
X228982Y270639D02*
D03*
X242282Y293439D02*
D03*
X242382Y293639D02*
D03*
Y293739D02*
D03*
X242482Y293839D02*
D03*
X215282Y294239D02*
D03*
X229582Y297239D02*
D03*
Y297339D02*
D03*
X229682Y297539D02*
D03*
Y297639D02*
D03*
X212282Y299539D02*
D03*
X230282Y301439D02*
D03*
D67*
X173850Y271550D02*
D03*
Y271650D02*
D03*
X229032Y270739D02*
D03*
X235232Y287339D02*
D03*
X242532Y293939D02*
D03*
Y294039D02*
D03*
X242632Y294239D02*
D03*
X215332Y294339D02*
D03*
X229032Y295939D02*
D03*
X229732Y297739D02*
D03*
Y297839D02*
D03*
Y297939D02*
D03*
X229832Y298139D02*
D03*
X219532Y300939D02*
D03*
X230332Y301339D02*
D03*
X232832Y310739D02*
D03*
D68*
X173850Y271750D02*
D03*
X229032Y270839D02*
D03*
X215332Y294439D02*
D03*
X242832Y294639D02*
D03*
Y294739D02*
D03*
X242932Y294839D02*
D03*
Y294939D02*
D03*
X229932Y298439D02*
D03*
Y298539D02*
D03*
X232832Y310839D02*
D03*
D69*
X228982Y270939D02*
D03*
X242982Y295039D02*
D03*
Y295139D02*
D03*
X243082Y295239D02*
D03*
X228982Y296039D02*
D03*
X229982Y298639D02*
D03*
Y298739D02*
D03*
X230082Y298939D02*
D03*
Y299039D02*
D03*
X212582Y299239D02*
D03*
X230282Y300939D02*
D03*
Y301039D02*
D03*
X219482D02*
D03*
D70*
X229032Y271039D02*
D03*
X235232Y287239D02*
D03*
X215432Y294539D02*
D03*
X243132Y295339D02*
D03*
Y295439D02*
D03*
X243232Y295539D02*
D03*
Y295639D02*
D03*
X230032Y298839D02*
D03*
X230132Y299139D02*
D03*
X212732D02*
D03*
X230132Y299239D02*
D03*
X230332Y300739D02*
D03*
Y300839D02*
D03*
X232732Y310939D02*
D03*
D71*
X228982Y271139D02*
D03*
X243282Y295739D02*
D03*
X243382Y295839D02*
D03*
Y295939D02*
D03*
X243482Y296139D02*
D03*
X230182Y299339D02*
D03*
D72*
X229032Y271239D02*
D03*
X243432Y296039D02*
D03*
X243532Y296239D02*
D03*
Y296339D02*
D03*
X243632Y296439D02*
D03*
X212832Y299039D02*
D03*
X230232Y299439D02*
D03*
Y299539D02*
D03*
X230332Y299739D02*
D03*
Y300639D02*
D03*
X219432Y301139D02*
D03*
X232732Y311039D02*
D03*
D73*
X228982Y271339D02*
D03*
X243682Y296539D02*
D03*
Y296639D02*
D03*
X243782Y296739D02*
D03*
Y296839D02*
D03*
X212982Y298939D02*
D03*
X230282Y299639D02*
D03*
X230382Y299839D02*
D03*
Y299939D02*
D03*
Y300439D02*
D03*
Y300539D02*
D03*
D74*
X229032Y271439D02*
D03*
X235232Y287139D02*
D03*
X243832Y296939D02*
D03*
X243932Y297039D02*
D03*
Y297139D02*
D03*
X244032Y297339D02*
D03*
X213132Y298839D02*
D03*
X230432Y300039D02*
D03*
Y300139D02*
D03*
Y300339D02*
D03*
X232632Y311139D02*
D03*
D75*
X229032Y271539D02*
D03*
X244232Y297739D02*
D03*
X244332Y297939D02*
D03*
Y298039D02*
D03*
X244432Y298139D02*
D03*
Y298239D02*
D03*
X244532Y298339D02*
D03*
X244632Y298539D02*
D03*
X244732Y298739D02*
D03*
X213232D02*
D03*
D76*
X228982Y271639D02*
D03*
X235282Y287039D02*
D03*
X215682Y294639D02*
D03*
X215582Y294839D02*
D03*
X244582Y298439D02*
D03*
X244682Y298639D02*
D03*
X213382D02*
D03*
X244782Y298839D02*
D03*
X244882Y299039D02*
D03*
X244982Y299239D02*
D03*
X245082Y299339D02*
D03*
Y299439D02*
D03*
X219382Y301339D02*
D03*
X232582Y311239D02*
D03*
D77*
X229032Y271739D02*
D03*
X215632Y294739D02*
D03*
X215532Y294939D02*
D03*
Y295039D02*
D03*
X215432Y295139D02*
D03*
Y295239D02*
D03*
X244832Y298939D02*
D03*
X244932Y299139D02*
D03*
X245132Y299539D02*
D03*
X245232Y299639D02*
D03*
Y299739D02*
D03*
X245332Y299839D02*
D03*
Y299939D02*
D03*
X245432Y300039D02*
D03*
Y300139D02*
D03*
D78*
X228982Y271839D02*
D03*
X215382Y295339D02*
D03*
X213582Y298439D02*
D03*
X213482Y298539D02*
D03*
X245482Y300239D02*
D03*
D79*
X229032Y271939D02*
D03*
X235232Y286939D02*
D03*
X215332Y295439D02*
D03*
Y295539D02*
D03*
X213732Y298339D02*
D03*
X245532Y300339D02*
D03*
Y300439D02*
D03*
X245632Y300539D02*
D03*
Y300639D02*
D03*
X219332Y301439D02*
D03*
D80*
X229032Y272039D02*
D03*
X215332Y295639D02*
D03*
Y295739D02*
D03*
X213832Y298239D02*
D03*
X245632Y300739D02*
D03*
D81*
X228982Y272139D02*
D03*
X215282Y295839D02*
D03*
X213982Y298139D02*
D03*
X245682Y300839D02*
D03*
Y300939D02*
D03*
X219282Y301539D02*
D03*
D82*
X229032Y272239D02*
D03*
X235232Y286839D02*
D03*
X245732Y301039D02*
D03*
Y301139D02*
D03*
D83*
X228982Y272339D02*
D03*
X215282Y295939D02*
D03*
Y296039D02*
D03*
X214082Y298039D02*
D03*
D84*
X229032Y272439D02*
D03*
X215232Y296139D02*
D03*
X214232Y297939D02*
D03*
X245732Y301239D02*
D03*
Y301339D02*
D03*
X219232Y301639D02*
D03*
X232832Y311339D02*
D03*
D85*
X228982Y272539D02*
D03*
X215282Y296239D02*
D03*
X245782Y301439D02*
D03*
X232682Y311439D02*
D03*
D86*
X229032Y272639D02*
D03*
X235232Y286739D02*
D03*
X215232Y296339D02*
D03*
X214332Y297839D02*
D03*
X245832Y301539D02*
D03*
Y301639D02*
D03*
X232432Y311539D02*
D03*
D87*
X229032Y272739D02*
D03*
X215232Y296539D02*
D03*
X214632Y297639D02*
D03*
X245832Y301739D02*
D03*
Y301839D02*
D03*
D88*
X228982Y272839D02*
D03*
X235282Y286639D02*
D03*
X214682Y297539D02*
D03*
X219082Y301839D02*
D03*
X245882Y301939D02*
D03*
D89*
X229032Y272939D02*
D03*
X215232Y296639D02*
D03*
Y296739D02*
D03*
X214832Y297439D02*
D03*
X245932Y302039D02*
D03*
D90*
X228982Y273039D02*
D03*
X245882Y302139D02*
D03*
D91*
X229032Y273139D02*
D03*
X214932Y297339D02*
D03*
X219032Y301939D02*
D03*
X245932Y302239D02*
D03*
Y302339D02*
D03*
D92*
X228982Y273239D02*
D03*
X235282Y286539D02*
D03*
X215082Y297239D02*
D03*
X245982Y302439D02*
D03*
D93*
X229032Y273339D02*
D03*
X245932Y302539D02*
D03*
D94*
X229032Y273439D02*
D03*
X215432Y296939D02*
D03*
X246032Y302739D02*
D03*
Y302839D02*
D03*
D95*
X228982Y273539D02*
D03*
X235282Y286439D02*
D03*
D96*
X229032Y273639D02*
D03*
X215532Y296839D02*
D03*
X218932Y302139D02*
D03*
X246032Y302939D02*
D03*
Y303039D02*
D03*
D97*
X228982Y273739D02*
D03*
X246082Y303139D02*
D03*
Y303239D02*
D03*
D98*
X229032Y273839D02*
D03*
X218932Y302239D02*
D03*
D99*
X229032Y273939D02*
D03*
X246132Y303439D02*
D03*
Y303539D02*
D03*
D100*
X228982Y274039D02*
D03*
X218882Y302339D02*
D03*
X246182Y303639D02*
D03*
D101*
X229032Y274139D02*
D03*
X235332Y286239D02*
D03*
X246132Y303739D02*
D03*
D102*
X228982Y274239D02*
D03*
X246182Y303839D02*
D03*
D103*
X229032Y274339D02*
D03*
X218832Y302439D02*
D03*
X246232Y303939D02*
D03*
Y304039D02*
D03*
D104*
X228982Y274439D02*
D03*
D105*
X229032Y274539D02*
D03*
X246232Y304139D02*
D03*
Y304239D02*
D03*
D106*
X229032Y274639D02*
D03*
D107*
X228982Y274739D02*
D03*
X235482Y286139D02*
D03*
X246282Y304539D02*
D03*
D108*
X229032Y274839D02*
D03*
X218732Y302639D02*
D03*
X246332Y304639D02*
D03*
Y304739D02*
D03*
D109*
X228982Y274939D02*
D03*
X235382Y286039D02*
D03*
X246382Y304839D02*
D03*
D110*
X229032Y275039D02*
D03*
X246332Y304939D02*
D03*
D111*
X229032Y275139D02*
D03*
Y275239D02*
D03*
X235232Y285839D02*
D03*
X246432Y305239D02*
D03*
D112*
X229032Y275339D02*
D03*
X234932Y285639D02*
D03*
X218632Y302839D02*
D03*
X246432Y305339D02*
D03*
Y305439D02*
D03*
D113*
X228982Y275439D02*
D03*
X234882Y285539D02*
D03*
X246482Y305539D02*
D03*
D114*
X229032Y275539D02*
D03*
X234732Y285439D02*
D03*
X246432Y305639D02*
D03*
D115*
X228982Y275639D02*
D03*
X218582Y302939D02*
D03*
X246482Y305739D02*
D03*
D116*
X229032Y275739D02*
D03*
X234532Y285239D02*
D03*
X234632Y285339D02*
D03*
X246532Y305839D02*
D03*
Y305939D02*
D03*
D117*
X229032Y275839D02*
D03*
X234432Y285139D02*
D03*
X218532Y303039D02*
D03*
X246532Y306039D02*
D03*
Y306139D02*
D03*
D118*
X228982Y275939D02*
D03*
X234282Y285039D02*
D03*
X246582Y306239D02*
D03*
Y306339D02*
D03*
D119*
X229032Y276039D02*
D03*
X234132Y284939D02*
D03*
X218532Y303139D02*
D03*
D120*
X228982Y276139D02*
D03*
X234082Y284839D02*
D03*
X246582Y306439D02*
D03*
D121*
X229032Y276239D02*
D03*
X233932Y284739D02*
D03*
X246632Y306539D02*
D03*
Y306639D02*
D03*
D122*
X228982Y276339D02*
D03*
X218482Y303239D02*
D03*
D123*
X229032Y276439D02*
D03*
X233732Y284539D02*
D03*
X233832Y284639D02*
D03*
X246632Y306739D02*
D03*
Y306839D02*
D03*
D124*
X229032Y276539D02*
D03*
D125*
X228982Y276639D02*
D03*
X233382Y284239D02*
D03*
X233482Y284339D02*
D03*
X218282Y303439D02*
D03*
X246682Y307039D02*
D03*
Y307139D02*
D03*
D126*
X229032Y276739D02*
D03*
X246732Y307239D02*
D03*
D127*
X228982Y276839D02*
D03*
X233282Y284139D02*
D03*
X246682Y307339D02*
D03*
D128*
X229032Y276939D02*
D03*
X233132Y284039D02*
D03*
X218232Y303539D02*
D03*
X246732Y307439D02*
D03*
Y307539D02*
D03*
D129*
X229032Y277039D02*
D03*
X232932Y283839D02*
D03*
X233032Y283939D02*
D03*
X218132Y303639D02*
D03*
D130*
X228982Y277139D02*
D03*
X232782Y283739D02*
D03*
X246782Y307739D02*
D03*
Y307839D02*
D03*
D131*
X229032Y277239D02*
D03*
X218032Y303739D02*
D03*
X246832Y307939D02*
D03*
D132*
X228982Y277339D02*
D03*
X232582Y283539D02*
D03*
X232682Y283639D02*
D03*
X246782Y308039D02*
D03*
D133*
X229032Y277439D02*
D03*
X246832Y308139D02*
D03*
D134*
X228982Y277539D02*
D03*
X232482Y283439D02*
D03*
X217982Y303839D02*
D03*
X246782Y308239D02*
D03*
D135*
X229032Y277639D02*
D03*
X232232Y283239D02*
D03*
X232332Y283339D02*
D03*
X217932Y303939D02*
D03*
X246832Y308339D02*
D03*
D136*
X229032Y277739D02*
D03*
X232132Y283139D02*
D03*
X217832Y304039D02*
D03*
X246832Y308539D02*
D03*
D137*
X228982Y277839D02*
D03*
X231982Y283039D02*
D03*
X246882Y308639D02*
D03*
Y308739D02*
D03*
D138*
X229032Y277939D02*
D03*
X231932Y282939D02*
D03*
D139*
X228982Y278039D02*
D03*
X231782Y282839D02*
D03*
X217782Y304139D02*
D03*
X246882Y308839D02*
D03*
D140*
X229032Y278139D02*
D03*
X246932Y308939D02*
D03*
D141*
X228982Y278239D02*
D03*
X231582Y282639D02*
D03*
X231682Y282739D02*
D03*
X217682Y304239D02*
D03*
X246882Y309039D02*
D03*
D142*
X229032Y278339D02*
D03*
X231432Y282539D02*
D03*
X246932Y309139D02*
D03*
D143*
X229032Y278439D02*
D03*
X231232Y282339D02*
D03*
X231332Y282439D02*
D03*
X246932Y309339D02*
D03*
D144*
X228982Y278539D02*
D03*
X246882Y309439D02*
D03*
D145*
X229032Y278639D02*
D03*
X231132Y282239D02*
D03*
X217532Y304439D02*
D03*
X246932Y309539D02*
D03*
D146*
X228982Y278739D02*
D03*
X230982Y282139D02*
D03*
D147*
X229032Y278839D02*
D03*
X230932Y282039D02*
D03*
X217432Y304539D02*
D03*
X246932Y309639D02*
D03*
D148*
X229032Y278939D02*
D03*
X230632Y281839D02*
D03*
D149*
X228982Y279039D02*
D03*
X230582Y281739D02*
D03*
X217382Y304639D02*
D03*
D150*
X229032Y279139D02*
D03*
X230432Y281639D02*
D03*
X246832Y309839D02*
D03*
D151*
X228982Y279239D02*
D03*
X217282Y304739D02*
D03*
D152*
X229032Y279339D02*
D03*
X230232Y281439D02*
D03*
X230332Y281539D02*
D03*
X217232Y304839D02*
D03*
X246732Y309939D02*
D03*
D153*
X228982Y279439D02*
D03*
X230082Y281339D02*
D03*
D154*
X229032Y279539D02*
D03*
D155*
Y279639D02*
D03*
X246632Y310039D02*
D03*
D156*
X228982Y279739D02*
D03*
X229782Y281039D02*
D03*
X217082Y305039D02*
D03*
D157*
X229032Y279839D02*
D03*
X229632Y280939D02*
D03*
X246532Y310139D02*
D03*
D158*
X228982Y279939D02*
D03*
X229582Y280839D02*
D03*
D159*
X229032Y280039D02*
D03*
X229432Y280739D02*
D03*
X217032Y305139D02*
D03*
D160*
X229032Y280139D02*
D03*
Y280239D02*
D03*
X216932Y305239D02*
D03*
D161*
X229032Y280339D02*
D03*
X246432Y310339D02*
D03*
D162*
X228982Y280439D02*
D03*
X216882Y305339D02*
D03*
D163*
X229032Y280539D02*
D03*
D164*
X229282Y280639D02*
D03*
X246482Y310239D02*
D03*
D165*
X173850Y268550D02*
D03*
X221632Y280739D02*
D03*
X221232Y281439D02*
D03*
X220532Y282639D02*
D03*
X220132Y283339D02*
D03*
X219432Y284539D02*
D03*
X219032Y285239D02*
D03*
X218732Y285739D02*
D03*
X218332Y286439D02*
D03*
X239932Y287039D02*
D03*
X217632Y287639D02*
D03*
X240332Y287739D02*
D03*
X240632Y288239D02*
D03*
X217232Y288339D02*
D03*
X216532Y289539D02*
D03*
X216132Y290239D02*
D03*
X215832Y290739D02*
D03*
X215432Y291439D02*
D03*
X214732Y292639D02*
D03*
X230432Y295039D02*
D03*
X233132Y301239D02*
D03*
X226632Y302339D02*
D03*
X225032Y302539D02*
D03*
Y302639D02*
D03*
X208932D02*
D03*
X227332Y302839D02*
D03*
X224932D02*
D03*
Y302939D02*
D03*
Y303039D02*
D03*
Y303139D02*
D03*
X208532Y303339D02*
D03*
X225332Y303539D02*
D03*
Y303639D02*
D03*
Y303739D02*
D03*
Y303839D02*
D03*
Y303939D02*
D03*
X207832Y304539D02*
D03*
X207132Y305739D02*
D03*
X206732Y306439D02*
D03*
X231732Y307839D02*
D03*
Y307939D02*
D03*
X232932Y308039D02*
D03*
X231832Y308139D02*
D03*
X231032Y308539D02*
D03*
X227232Y308639D02*
D03*
Y308739D02*
D03*
Y308839D02*
D03*
X231332Y309039D02*
D03*
X227332D02*
D03*
X231332Y309139D02*
D03*
Y309239D02*
D03*
X231232Y309439D02*
D03*
Y309539D02*
D03*
X227532D02*
D03*
D166*
X229882Y281139D02*
D03*
X229982Y281239D02*
D03*
X217182Y304939D02*
D03*
D167*
X230782Y281939D02*
D03*
X246882Y309739D02*
D03*
D168*
X233582Y284439D02*
D03*
X218382Y303339D02*
D03*
X246682Y306939D02*
D03*
D169*
X235082Y285739D02*
D03*
D170*
X235282Y285939D02*
D03*
X218682Y302739D02*
D03*
X246382Y305039D02*
D03*
Y305139D02*
D03*
D171*
X235282Y286339D02*
D03*
X246082Y303339D02*
D03*
D172*
X173900Y269050D02*
D03*
X234782Y288339D02*
D03*
X232882Y289339D02*
D03*
X238882Y289939D02*
D03*
X231182Y290239D02*
D03*
X230982Y290339D02*
D03*
X237382Y290739D02*
D03*
X229282Y291239D02*
D03*
X229082Y291339D02*
D03*
X235682Y291639D02*
D03*
X227382Y292239D02*
D03*
X227182Y292339D02*
D03*
X234182Y292439D02*
D03*
X214782Y292939D02*
D03*
X232682Y293239D02*
D03*
X225482D02*
D03*
X225282Y293339D02*
D03*
X230982Y294139D02*
D03*
X223582Y294239D02*
D03*
X223382Y294339D02*
D03*
X231782Y294539D02*
D03*
X229482Y294939D02*
D03*
X221682Y295239D02*
D03*
X221482Y295339D02*
D03*
X234082Y295439D02*
D03*
X219782Y296239D02*
D03*
X219582Y296339D02*
D03*
X226482Y296539D02*
D03*
X226282Y296639D02*
D03*
X224782Y297439D02*
D03*
X223282Y298239D02*
D03*
X221782Y299039D02*
D03*
X221582Y299139D02*
D03*
X220082Y299939D02*
D03*
X209782Y301539D02*
D03*
X233182Y301739D02*
D03*
X233082Y301939D02*
D03*
X232982Y302139D02*
D03*
X232882Y302439D02*
D03*
X232782Y302739D02*
D03*
Y302839D02*
D03*
X232682Y303039D02*
D03*
Y303139D02*
D03*
Y303239D02*
D03*
X232582Y303439D02*
D03*
Y303539D02*
D03*
Y303639D02*
D03*
Y304839D02*
D03*
X230782Y305039D02*
D03*
X231582Y306739D02*
D03*
X232782Y307739D02*
D03*
X232382Y309239D02*
D03*
Y309339D02*
D03*
X234182Y309439D02*
D03*
X229582Y310839D02*
D03*
D173*
X173900Y269550D02*
D03*
Y269650D02*
D03*
X240782Y289139D02*
D03*
X214882Y293239D02*
D03*
X231782Y294739D02*
D03*
X229982Y295339D02*
D03*
X233682Y299639D02*
D03*
X233782Y299839D02*
D03*
X233882Y300039D02*
D03*
X219982Y300139D02*
D03*
X233982Y300239D02*
D03*
X234082Y300339D02*
D03*
Y300439D02*
D03*
X234182Y300539D02*
D03*
Y300639D02*
D03*
X234282Y300739D02*
D03*
X234382Y300939D02*
D03*
X210382Y301039D02*
D03*
X210282Y301139D02*
D03*
X234782Y301839D02*
D03*
X234182Y305039D02*
D03*
Y305139D02*
D03*
X233282Y306539D02*
D03*
X233182Y306739D02*
D03*
X234582Y308339D02*
D03*
X234482Y308539D02*
D03*
X232482Y310039D02*
D03*
D174*
X173900Y270950D02*
D03*
X241382Y291439D02*
D03*
X241482Y291539D02*
D03*
Y291639D02*
D03*
X241582Y291839D02*
D03*
X215182Y293939D02*
D03*
D175*
X173900Y271150D02*
D03*
X241682Y292039D02*
D03*
X241782Y292239D02*
D03*
Y292339D02*
D03*
X241882Y292439D02*
D03*
Y292539D02*
D03*
X215182Y294039D02*
D03*
X229282Y295639D02*
D03*
X211882Y299839D02*
D03*
X219682Y300739D02*
D03*
X236082Y307139D02*
D03*
D176*
X242582Y294139D02*
D03*
X242682Y294339D02*
D03*
Y294439D02*
D03*
X242782Y294539D02*
D03*
X229782Y298039D02*
D03*
X229882Y298239D02*
D03*
Y298339D02*
D03*
X212482Y299339D02*
D03*
X212382Y299439D02*
D03*
X230282Y301139D02*
D03*
Y301239D02*
D03*
D177*
X233732Y295239D02*
D03*
X233132Y301039D02*
D03*
Y301139D02*
D03*
D178*
X173900Y270350D02*
D03*
X234982Y295939D02*
D03*
X237582Y301939D02*
D03*
Y302039D02*
D03*
X230382Y302839D02*
D03*
X232482Y310539D02*
D03*
D179*
X215282Y296439D02*
D03*
X214482Y297739D02*
D03*
X219182Y301739D02*
D03*
D180*
X215282Y297039D02*
D03*
X215182Y297139D02*
D03*
X218982Y302039D02*
D03*
X245982Y302639D02*
D03*
D181*
X243982Y297239D02*
D03*
X244082Y297439D02*
D03*
Y297539D02*
D03*
X244182Y297639D02*
D03*
X244282Y297839D02*
D03*
X230482Y300239D02*
D03*
X219382Y301239D02*
D03*
D182*
X218782Y302539D02*
D03*
X246282Y304339D02*
D03*
Y304439D02*
D03*
D183*
X217582Y304339D02*
D03*
X246882Y309239D02*
D03*
D184*
X216782Y305439D02*
D03*
D185*
X216732Y305539D02*
D03*
X246232Y310539D02*
D03*
D186*
X216632Y305639D02*
D03*
X246032Y310439D02*
D03*
X246132Y310639D02*
D03*
D187*
X216632Y305739D02*
D03*
D188*
X216532Y305839D02*
D03*
D189*
X216482Y305939D02*
D03*
D190*
X216382Y306039D02*
D03*
D191*
X216332Y306139D02*
D03*
D192*
X216232Y306239D02*
D03*
D193*
X216182Y306339D02*
D03*
X245682Y311239D02*
D03*
D194*
X216082Y306439D02*
D03*
X245582Y311339D02*
D03*
D195*
X216032Y306539D02*
D03*
X245532Y311439D02*
D03*
D196*
X215982Y306639D02*
D03*
D197*
X215932Y306739D02*
D03*
D198*
X215632Y306839D02*
D03*
X245232Y311839D02*
D03*
D199*
X215682Y306939D02*
D03*
D200*
Y307039D02*
D03*
D201*
X215632Y307139D02*
D03*
D202*
X215682Y307239D02*
D03*
D203*
X215632Y307339D02*
D03*
D204*
X215682Y307439D02*
D03*
D205*
Y307539D02*
D03*
Y307639D02*
D03*
D206*
X246782D02*
D03*
D207*
X215682Y307739D02*
D03*
D208*
X215632Y307839D02*
D03*
D209*
X215682Y307939D02*
D03*
D210*
Y308039D02*
D03*
Y308139D02*
D03*
D211*
Y308239D02*
D03*
Y308339D02*
D03*
D212*
X246882Y308439D02*
D03*
D213*
X215682D02*
D03*
D214*
Y308539D02*
D03*
Y308639D02*
D03*
D215*
Y308739D02*
D03*
Y308839D02*
D03*
D216*
Y308939D02*
D03*
D217*
X215632Y309039D02*
D03*
D218*
X215682Y309139D02*
D03*
D219*
X215632Y309239D02*
D03*
D220*
X215682Y309339D02*
D03*
D221*
X215632Y309439D02*
D03*
D222*
X215682Y309539D02*
D03*
D223*
X215632Y309639D02*
D03*
D224*
Y309739D02*
D03*
Y309839D02*
D03*
D225*
Y309939D02*
D03*
Y310039D02*
D03*
D226*
Y310139D02*
D03*
D227*
Y310239D02*
D03*
D228*
X215682Y310339D02*
D03*
D229*
X215632Y310439D02*
D03*
D230*
X215682Y310539D02*
D03*
D231*
Y310639D02*
D03*
D232*
X246082Y310739D02*
D03*
D233*
X215732D02*
D03*
D234*
X246032Y310839D02*
D03*
D235*
X215732D02*
D03*
D236*
X245932Y310939D02*
D03*
D237*
X215732D02*
D03*
D238*
X245882Y311039D02*
D03*
D239*
X215782D02*
D03*
D240*
X245782Y311139D02*
D03*
D241*
X215782D02*
D03*
D242*
X215882Y311239D02*
D03*
D243*
X215932Y311339D02*
D03*
D244*
X216032Y311439D02*
D03*
D245*
X245482Y311539D02*
D03*
D246*
X216132D02*
D03*
D247*
X245382Y311639D02*
D03*
D248*
X219382D02*
D03*
D249*
X245332Y311739D02*
D03*
D250*
X219482D02*
D03*
D251*
Y311839D02*
D03*
D252*
X229032Y311939D02*
D03*
D253*
Y312039D02*
D03*
D254*
X228982Y312139D02*
D03*
D255*
X229032Y312239D02*
D03*
D256*
X228982Y312339D02*
D03*
D257*
X229032Y312439D02*
D03*
D258*
X228982Y312539D02*
D03*
D259*
X229032Y312639D02*
D03*
D260*
Y312739D02*
D03*
D261*
X228982Y312839D02*
D03*
D262*
X229032Y312939D02*
D03*
D263*
X228982Y313039D02*
D03*
D264*
X229032Y313139D02*
D03*
D265*
X228982Y313239D02*
D03*
D266*
X229032Y313339D02*
D03*
D267*
Y313439D02*
D03*
D268*
X228982Y313539D02*
D03*
D269*
X229032Y313639D02*
D03*
D270*
X228982Y313739D02*
D03*
Y313839D02*
D03*
D271*
X173750Y292100D02*
D03*
D272*
X173600Y312650D02*
D03*
D273*
X173650Y312750D02*
D03*
D274*
X173600Y312850D02*
D03*
D275*
X173650Y312950D02*
D03*
D276*
X173600Y313050D02*
D03*
D277*
X173650Y313150D02*
D03*
D278*
X173600Y313250D02*
D03*
D279*
Y313350D02*
D03*
Y313450D02*
D03*
D280*
Y313550D02*
D03*
Y313650D02*
D03*
D281*
Y313750D02*
D03*
Y313850D02*
D03*
D282*
Y313950D02*
D03*
Y314050D02*
D03*
D283*
X173650Y314150D02*
D03*
D299*
X18885Y257814D02*
G03*
X18882Y258000I5115J186D01*
G01*
X220885Y257814D02*
G03*
X220882Y258000I5115J186D01*
G01*
D300*
X131350Y206000D02*
D03*
M02*
