G04 Layer_Color=128*
%FSLAX25Y25*%
%MOIN*%
G70*
G01*
G75*
%ADD17C,0.01000*%
%ADD31R,0.03740X0.03937*%
G04:AMPARAMS|DCode=32|XSize=118.11mil|YSize=124.02mil|CornerRadius=29.53mil|HoleSize=0mil|Usage=FLASHONLY|Rotation=90.000|XOffset=0mil|YOffset=0mil|HoleType=Round|Shape=RoundedRectangle|*
%AMROUNDEDRECTD32*
21,1,0.11811,0.06496,0,0,90.0*
21,1,0.05906,0.12402,0,0,90.0*
1,1,0.05906,0.03248,0.02953*
1,1,0.05906,0.03248,-0.02953*
1,1,0.05906,-0.03248,-0.02953*
1,1,0.05906,-0.03248,0.02953*
%
%ADD32ROUNDEDRECTD32*%
D17*
X0Y0D02*
X260000D01*
Y320000D01*
X0D02*
X260000D01*
X0Y0D02*
Y320000D01*
D31*
X64752Y192000D02*
D03*
X71248D02*
D03*
X126752Y190000D02*
D03*
X133248D02*
D03*
X64752Y148000D02*
D03*
X71248D02*
D03*
X64752Y98000D02*
D03*
X71248D02*
D03*
X64752Y54000D02*
D03*
X71248D02*
D03*
X188752Y192000D02*
D03*
X195248D02*
D03*
X188752Y148000D02*
D03*
X195248D02*
D03*
X188752Y98000D02*
D03*
X195248D02*
D03*
X188752Y54000D02*
D03*
X195248D02*
D03*
D32*
X120551Y206000D02*
D03*
X139449D02*
D03*
M02*
