G04 Layer_Color=2752767*
%FSLAX25Y25*%
%MOIN*%
G70*
G01*
G75*
%ADD17C,0.01000*%
%ADD301C,0.00200*%
%ADD302C,0.00267*%
D17*
X0Y0D02*
X260000D01*
Y320000D01*
X0D02*
X260000D01*
X0Y0D02*
Y320000D01*
D301*
X243200Y220200D02*
Y221800D01*
X244800D01*
Y220200D01*
X243200D01*
Y215200D02*
Y216800D01*
X244800D01*
Y215200D01*
X243200D01*
Y210200D02*
Y211800D01*
X244800D01*
Y210200D01*
X243200D01*
Y205200D02*
Y206800D01*
X244800D01*
Y205200D01*
X243200D01*
Y200200D02*
Y201800D01*
X244800D01*
Y200200D01*
X243200D01*
Y190200D02*
Y191800D01*
X244800D01*
Y190200D01*
X243200D01*
Y185200D02*
Y186800D01*
X244800D01*
Y185200D01*
X243200D01*
Y180200D02*
Y181800D01*
X244800D01*
Y180200D01*
X243200D01*
Y168200D02*
Y169800D01*
X244800D01*
Y168200D01*
X243200D01*
Y163200D02*
Y164800D01*
X244800D01*
Y163200D01*
X243200D01*
Y158200D02*
Y159800D01*
X244800D01*
Y158200D01*
X243200D01*
Y153200D02*
Y154800D01*
X244800D01*
Y153200D01*
X243200D01*
Y148200D02*
Y149800D01*
X244800D01*
Y148200D01*
X243200D01*
Y138200D02*
Y139800D01*
X244800D01*
Y138200D01*
X243200D01*
Y133200D02*
Y134800D01*
X244800D01*
Y133200D01*
X243200D01*
Y128200D02*
Y129800D01*
X244800D01*
Y128200D01*
X243200D01*
Y116200D02*
Y117800D01*
X244800D01*
Y116200D01*
X243200D01*
Y111200D02*
Y112800D01*
X244800D01*
Y111200D01*
X243200D01*
Y106200D02*
Y107800D01*
X244800D01*
Y106200D01*
X243200D01*
Y101200D02*
Y102800D01*
X244800D01*
Y101200D01*
X243200D01*
Y96200D02*
Y97800D01*
X244800D01*
Y96200D01*
X243200D01*
Y86200D02*
Y87800D01*
X244800D01*
Y86200D01*
X243200D01*
Y81200D02*
Y82800D01*
X244800D01*
Y81200D01*
X243200D01*
Y76200D02*
Y77800D01*
X244800D01*
Y76200D01*
X243200D01*
Y64200D02*
Y65800D01*
X244800D01*
Y64200D01*
X243200D01*
Y59200D02*
Y60800D01*
X244800D01*
Y59200D01*
X243200D01*
Y54200D02*
Y55800D01*
X244800D01*
Y54200D01*
X243200D01*
Y49200D02*
Y50800D01*
X244800D01*
Y49200D01*
X243200D01*
Y44200D02*
Y45800D01*
X244800D01*
Y44200D01*
X243200D01*
Y34200D02*
Y35800D01*
X244800D01*
Y34200D01*
X243200D01*
Y29200D02*
Y30800D01*
X244800D01*
Y29200D01*
X243200D01*
Y24200D02*
Y25800D01*
X244800D01*
Y24200D01*
X243200D01*
X16200Y6200D02*
Y7800D01*
X17800D01*
Y6200D01*
X16200D01*
Y11200D02*
Y12800D01*
X17800D01*
Y11200D01*
X16200D01*
Y16200D02*
Y17800D01*
X17800D01*
Y16200D01*
X16200D01*
Y21200D02*
Y22800D01*
X17800D01*
Y21200D01*
X16200D01*
Y26200D02*
Y27800D01*
X17800D01*
Y26200D01*
X16200D01*
Y31200D02*
Y32800D01*
X17800D01*
Y31200D01*
X16200D01*
Y41200D02*
Y42800D01*
X17800D01*
Y41200D01*
X16200D01*
Y46200D02*
Y47800D01*
X17800D01*
Y46200D01*
X16200D01*
Y51200D02*
Y52800D01*
X17800D01*
Y51200D01*
X16200D01*
Y56200D02*
Y57800D01*
X17800D01*
Y56200D01*
X16200D01*
Y68200D02*
Y69800D01*
X17800D01*
Y68200D01*
X16200D01*
Y73200D02*
Y74800D01*
X17800D01*
Y73200D01*
X16200D01*
Y78200D02*
Y79800D01*
X17800D01*
Y78200D01*
X16200D01*
Y83200D02*
Y84800D01*
X17800D01*
Y83200D01*
X16200D01*
Y88200D02*
Y89800D01*
X17800D01*
Y88200D01*
X16200D01*
Y93200D02*
Y94800D01*
X17800D01*
Y93200D01*
X16200D01*
Y103200D02*
Y104800D01*
X17800D01*
Y103200D01*
X16200D01*
Y108200D02*
Y109800D01*
X17800D01*
Y108200D01*
X16200D01*
Y113200D02*
Y114800D01*
X17800D01*
Y113200D01*
X16200D01*
Y118200D02*
Y119800D01*
X17800D01*
Y118200D01*
X16200D01*
Y130200D02*
Y131800D01*
X17800D01*
Y130200D01*
X16200D01*
Y135200D02*
Y136800D01*
X17800D01*
Y135200D01*
X16200D01*
Y140200D02*
Y141800D01*
X17800D01*
Y140200D01*
X16200D01*
Y145200D02*
Y146800D01*
X17800D01*
Y145200D01*
X16200D01*
Y150200D02*
Y151800D01*
X17800D01*
Y150200D01*
X16200D01*
Y155200D02*
Y156800D01*
X17800D01*
Y155200D01*
X16200D01*
Y165200D02*
Y166800D01*
X17800D01*
Y165200D01*
X16200D01*
Y170200D02*
Y171800D01*
X17800D01*
Y170200D01*
X16200D01*
Y175200D02*
Y176800D01*
X17800D01*
Y175200D01*
X16200D01*
Y180200D02*
Y181800D01*
X17800D01*
Y180200D01*
X16200D01*
Y192200D02*
Y193800D01*
X17800D01*
Y192200D01*
X16200D01*
Y197200D02*
Y198800D01*
X17800D01*
Y197200D01*
X16200D01*
Y202200D02*
Y203800D01*
X17800D01*
Y202200D01*
X16200D01*
Y207200D02*
Y208800D01*
X17800D01*
Y207200D01*
X16200D01*
Y212200D02*
Y213800D01*
X17800D01*
Y212200D01*
X16200D01*
Y217200D02*
Y218800D01*
X17800D01*
Y217200D01*
X16200D01*
Y227200D02*
Y228800D01*
X17800D01*
Y227200D01*
X16200D01*
Y232200D02*
Y233800D01*
X17800D01*
Y232200D01*
X16200D01*
Y237200D02*
Y238800D01*
X17800D01*
Y237200D01*
X16200D01*
Y242200D02*
Y243800D01*
X17800D01*
Y242200D01*
X16200D01*
X137992Y274318D02*
X137192Y275918D01*
X138792D01*
X137992Y274318D01*
Y44082D02*
X137192Y45682D01*
X138792D01*
X137992Y44082D01*
X24000Y257200D02*
X24400Y257600D01*
X24800D01*
X24400Y258000D01*
X24800Y258400D01*
X24400D01*
X24000Y258800D01*
X23600Y258400D01*
X23200D01*
X23600Y258000D01*
X23200Y257600D01*
X23600D01*
X24000Y257200D01*
X226000D02*
X226400Y257600D01*
X226800D01*
X226400Y258000D01*
X226800Y258400D01*
X226400D01*
X226000Y258800D01*
X225600Y258400D01*
X225200D01*
X225600Y258000D01*
X225200Y257600D01*
X225600D01*
X226000Y257200D01*
X205200Y122200D02*
X205600Y123000D01*
X205200Y123800D01*
X206000Y123400D01*
X206800Y123800D01*
X206400Y123000D01*
X206800Y122200D01*
X206000Y122600D01*
X205200Y122200D01*
Y172200D02*
X205600Y173000D01*
X205200Y173800D01*
X206000Y173400D01*
X206800Y173800D01*
X206400Y173000D01*
X206800Y172200D01*
X206000Y172600D01*
X205200Y172200D01*
Y216200D02*
X205600Y217000D01*
X205200Y217800D01*
X206000Y217400D01*
X206800Y217800D01*
X206400Y217000D01*
X206800Y216200D01*
X206000Y216600D01*
X205200Y216200D01*
X170200Y31200D02*
X170600Y32000D01*
X170200Y32800D01*
X171000Y32400D01*
X171800Y32800D01*
X171400Y32000D01*
X171800Y31200D01*
X171000Y31600D01*
X170200Y31200D01*
X202700Y26200D02*
X203100Y27000D01*
X202700Y27800D01*
X203500Y27400D01*
X204300Y27800D01*
X203900Y27000D01*
X204300Y26200D01*
X203500Y26600D01*
X202700Y26200D01*
X182200Y88200D02*
X182600Y89000D01*
X182200Y89800D01*
X183000Y89400D01*
X183800Y89800D01*
X183400Y89000D01*
X183800Y88200D01*
X183000Y88600D01*
X182200Y88200D01*
Y99200D02*
X182600Y100000D01*
X182200Y100800D01*
X183000Y100400D01*
X183800Y100800D01*
X183400Y100000D01*
X183800Y99200D01*
X183000Y99600D01*
X182200Y99200D01*
X185200Y88200D02*
X185600Y89000D01*
X185200Y89800D01*
X186000Y89400D01*
X186800Y89800D01*
X186400Y89000D01*
X186800Y88200D01*
X186000Y88600D01*
X185200Y88200D01*
Y91200D02*
X185600Y92000D01*
X185200Y92800D01*
X186000Y92400D01*
X186800Y92800D01*
X186400Y92000D01*
X186800Y91200D01*
X186000Y91600D01*
X185200Y91200D01*
X182200Y96200D02*
X182600Y97000D01*
X182200Y97800D01*
X183000Y97400D01*
X183800Y97800D01*
X183400Y97000D01*
X183800Y96200D01*
X183000Y96600D01*
X182200Y96200D01*
Y91200D02*
X182600Y92000D01*
X182200Y92800D01*
X183000Y92400D01*
X183800Y92800D01*
X183400Y92000D01*
X183800Y91200D01*
X183000Y91600D01*
X182200Y91200D01*
X107200Y200200D02*
X107600Y201000D01*
X107200Y201800D01*
X108000Y201400D01*
X108800Y201800D01*
X108400Y201000D01*
X108800Y200200D01*
X108000Y200600D01*
X107200Y200200D01*
Y197200D02*
X107600Y198000D01*
X107200Y198800D01*
X108000Y198400D01*
X108800Y198800D01*
X108400Y198000D01*
X108800Y197200D01*
X108000Y197600D01*
X107200Y197200D01*
Y203200D02*
X107600Y204000D01*
X107200Y204800D01*
X108000Y204400D01*
X108800Y204800D01*
X108400Y204000D01*
X108800Y203200D01*
X108000Y203600D01*
X107200Y203200D01*
X156700Y31200D02*
X157100Y32000D01*
X156700Y32800D01*
X157500Y32400D01*
X158300Y32800D01*
X157900Y32000D01*
X158300Y31200D01*
X157500Y31600D01*
X156700Y31200D01*
X161200D02*
X161600Y32000D01*
X161200Y32800D01*
X162000Y32400D01*
X162800Y32800D01*
X162400Y32000D01*
X162800Y31200D01*
X162000Y31600D01*
X161200Y31200D01*
X173200D02*
X173600Y32000D01*
X173200Y32800D01*
X174000Y32400D01*
X174800Y32800D01*
X174400Y32000D01*
X174800Y31200D01*
X174000Y31600D01*
X173200Y31200D01*
X205200Y28200D02*
X205600Y29000D01*
X205200Y29800D01*
X206000Y29400D01*
X206800Y29800D01*
X206400Y29000D01*
X206800Y28200D01*
X206000Y28600D01*
X205200Y28200D01*
X80200Y69200D02*
X80600Y70000D01*
X80200Y70800D01*
X81000Y70400D01*
X81800Y70800D01*
X81400Y70000D01*
X81800Y69200D01*
X81000Y69600D01*
X80200Y69200D01*
Y163200D02*
X80600Y164000D01*
X80200Y164800D01*
X81000Y164400D01*
X81800Y164800D01*
X81400Y164000D01*
X81800Y163200D01*
X81000Y163600D01*
X80200Y163200D01*
Y213200D02*
X80600Y214000D01*
X80200Y214800D01*
X81000Y214400D01*
X81800Y214800D01*
X81400Y214000D01*
X81800Y213200D01*
X81000Y213600D01*
X80200Y213200D01*
Y210200D02*
X80600Y211000D01*
X80200Y211800D01*
X81000Y211400D01*
X81800Y211800D01*
X81400Y211000D01*
X81800Y210200D01*
X81000Y210600D01*
X80200Y210200D01*
X207200Y21200D02*
X207600Y22000D01*
X207200Y22800D01*
X208000Y22400D01*
X208800Y22800D01*
X208400Y22000D01*
X208800Y21200D01*
X208000Y21600D01*
X207200Y21200D01*
X210200D02*
X210600Y22000D01*
X210200Y22800D01*
X211000Y22400D01*
X211800Y22800D01*
X211400Y22000D01*
X211800Y21200D01*
X211000Y21600D01*
X210200Y21200D01*
Y6700D02*
X210600Y7500D01*
X210200Y8300D01*
X211000Y7900D01*
X211800Y8300D01*
X211400Y7500D01*
X211800Y6700D01*
X211000Y7100D01*
X210200Y6700D01*
X80700D02*
X81100Y7500D01*
X80700Y8300D01*
X81500Y7900D01*
X82300Y8300D01*
X81900Y7500D01*
X82300Y6700D01*
X81500Y7100D01*
X80700Y6700D01*
Y3700D02*
X81100Y4500D01*
X80700Y5300D01*
X81500Y4900D01*
X82300Y5300D01*
X81900Y4500D01*
X82300Y3700D01*
X81500Y4100D01*
X80700Y3700D01*
X210200D02*
X210600Y4500D01*
X210200Y5300D01*
X211000Y4900D01*
X211800Y5300D01*
X211400Y4500D01*
X211800Y3700D01*
X211000Y4100D01*
X210200Y3700D01*
X85200Y76200D02*
X85600Y77000D01*
X85200Y77800D01*
X86000Y77400D01*
X86800Y77800D01*
X86400Y77000D01*
X86800Y76200D01*
X86000Y76600D01*
X85200Y76200D01*
Y79200D02*
X85600Y80000D01*
X85200Y80800D01*
X86000Y80400D01*
X86800Y80800D01*
X86400Y80000D01*
X86800Y79200D01*
X86000Y79600D01*
X85200Y79200D01*
X80200Y72200D02*
X80600Y73000D01*
X80200Y73800D01*
X81000Y73400D01*
X81800Y73800D01*
X81400Y73000D01*
X81800Y72200D01*
X81000Y72600D01*
X80200Y72200D01*
X85200Y120200D02*
X85600Y121000D01*
X85200Y121800D01*
X86000Y121400D01*
X86800Y121800D01*
X86400Y121000D01*
X86800Y120200D01*
X86000Y120600D01*
X85200Y120200D01*
X80200Y119200D02*
X80600Y120000D01*
X80200Y120800D01*
X81000Y120400D01*
X81800Y120800D01*
X81400Y120000D01*
X81800Y119200D01*
X81000Y119600D01*
X80200Y119200D01*
X85200Y123200D02*
X85600Y124000D01*
X85200Y124800D01*
X86000Y124400D01*
X86800Y124800D01*
X86400Y124000D01*
X86800Y123200D01*
X86000Y123600D01*
X85200Y123200D01*
X80200Y116200D02*
X80600Y117000D01*
X80200Y117800D01*
X81000Y117400D01*
X81800Y117800D01*
X81400Y117000D01*
X81800Y116200D01*
X81000Y116600D01*
X80200Y116200D01*
X85200Y170200D02*
X85600Y171000D01*
X85200Y171800D01*
X86000Y171400D01*
X86800Y171800D01*
X86400Y171000D01*
X86800Y170200D01*
X86000Y170600D01*
X85200Y170200D01*
Y173200D02*
X85600Y174000D01*
X85200Y174800D01*
X86000Y174400D01*
X86800Y174800D01*
X86400Y174000D01*
X86800Y173200D01*
X86000Y173600D01*
X85200Y173200D01*
X80200Y166200D02*
X80600Y167000D01*
X80200Y167800D01*
X81000Y167400D01*
X81800Y167800D01*
X81400Y167000D01*
X81800Y166200D01*
X81000Y166600D01*
X80200Y166200D01*
X210200Y207200D02*
X210600Y208000D01*
X210200Y208800D01*
X211000Y208400D01*
X211800Y208800D01*
X211400Y208000D01*
X211800Y207200D01*
X211000Y207600D01*
X210200Y207200D01*
Y210200D02*
X210600Y211000D01*
X210200Y211800D01*
X211000Y211400D01*
X211800Y211800D01*
X211400Y211000D01*
X211800Y210200D01*
X211000Y210600D01*
X210200Y210200D01*
X205200Y213200D02*
X205600Y214000D01*
X205200Y214800D01*
X206000Y214400D01*
X206800Y214800D01*
X206400Y214000D01*
X206800Y213200D01*
X206000Y213600D01*
X205200Y213200D01*
X210200Y163200D02*
X210600Y164000D01*
X210200Y164800D01*
X211000Y164400D01*
X211800Y164800D01*
X211400Y164000D01*
X211800Y163200D01*
X211000Y163600D01*
X210200Y163200D01*
Y166200D02*
X210600Y167000D01*
X210200Y167800D01*
X211000Y167400D01*
X211800Y167800D01*
X211400Y167000D01*
X211800Y166200D01*
X211000Y166600D01*
X210200Y166200D01*
X205200Y169200D02*
X205600Y170000D01*
X205200Y170800D01*
X206000Y170400D01*
X206800Y170800D01*
X206400Y170000D01*
X206800Y169200D01*
X206000Y169600D01*
X205200Y169200D01*
X210200Y113200D02*
X210600Y114000D01*
X210200Y114800D01*
X211000Y114400D01*
X211800Y114800D01*
X211400Y114000D01*
X211800Y113200D01*
X211000Y113600D01*
X210200Y113200D01*
Y116200D02*
X210600Y117000D01*
X210200Y117800D01*
X211000Y117400D01*
X211800Y117800D01*
X211400Y117000D01*
X211800Y116200D01*
X211000Y116600D01*
X210200Y116200D01*
X205200Y119200D02*
X205600Y120000D01*
X205200Y120800D01*
X206000Y120400D01*
X206800Y120800D01*
X206400Y120000D01*
X206800Y119200D01*
X206000Y119600D01*
X205200Y119200D01*
Y78200D02*
X205600Y79000D01*
X205200Y79800D01*
X206000Y79400D01*
X206800Y79800D01*
X206400Y79000D01*
X206800Y78200D01*
X206000Y78600D01*
X205200Y78200D01*
Y75200D02*
X205600Y76000D01*
X205200Y76800D01*
X206000Y76400D01*
X206800Y76800D01*
X206400Y76000D01*
X206800Y75200D01*
X206000Y75600D01*
X205200Y75200D01*
X210200Y72200D02*
X210600Y73000D01*
X210200Y73800D01*
X211000Y73400D01*
X211800Y73800D01*
X211400Y73000D01*
X211800Y72200D01*
X211000Y72600D01*
X210200Y72200D01*
Y69200D02*
X210600Y70000D01*
X210200Y70800D01*
X211000Y70400D01*
X211800Y70800D01*
X211400Y70000D01*
X211800Y69200D01*
X211000Y69600D01*
X210200Y69200D01*
X85200Y217200D02*
X85600Y218000D01*
X85200Y218800D01*
X86000Y218400D01*
X86800Y218800D01*
X86400Y218000D01*
X86800Y217200D01*
X86000Y217600D01*
X85200Y217200D01*
Y214200D02*
X85600Y215000D01*
X85200Y215800D01*
X86000Y215400D01*
X86800Y215800D01*
X86400Y215000D01*
X86800Y214200D01*
X86000Y214600D01*
X85200Y214200D01*
X177200Y8200D02*
X177600Y9000D01*
X177200Y9800D01*
X178000Y9400D01*
X178800Y9800D01*
X178400Y9000D01*
X178800Y8200D01*
X178000Y8600D01*
X177200Y8200D01*
X168200Y14700D02*
X168600Y15500D01*
X168200Y16300D01*
X169000Y15900D01*
X169800Y16300D01*
X169400Y15500D01*
X169800Y14700D01*
X169000Y15100D01*
X168200Y14700D01*
X162700D02*
X163100Y15500D01*
X162700Y16300D01*
X163500Y15900D01*
X164300Y16300D01*
X163900Y15500D01*
X164300Y14700D01*
X163500Y15100D01*
X162700Y14700D01*
X157200D02*
X157600Y15500D01*
X157200Y16300D01*
X158000Y15900D01*
X158800Y16300D01*
X158400Y15500D01*
X158800Y14700D01*
X158000Y15100D01*
X157200Y14700D01*
X56200Y27200D02*
X56600Y28000D01*
X56200Y28800D01*
X57000Y28400D01*
X57800Y28800D01*
X57400Y28000D01*
X57800Y27200D01*
X57000Y27600D01*
X56200Y27200D01*
X53200D02*
X53600Y28000D01*
X53200Y28800D01*
X54000Y28400D01*
X54800Y28800D01*
X54400Y28000D01*
X54800Y27200D01*
X54000Y27600D01*
X53200Y27200D01*
X174200Y8200D02*
X174600Y9000D01*
X174200Y9800D01*
X175000Y9400D01*
X175800Y9800D01*
X175400Y9000D01*
X175800Y8200D01*
X175000Y8600D01*
X174200Y8200D01*
X104200Y224200D02*
X104600Y225000D01*
X104200Y225800D01*
X105000Y225400D01*
X105800Y225800D01*
X105400Y225000D01*
X105800Y224200D01*
X105000Y224600D01*
X104200Y224200D01*
X107200Y227200D02*
X107600Y228000D01*
X107200Y228800D01*
X108000Y228400D01*
X108800Y228800D01*
X108400Y228000D01*
X108800Y227200D01*
X108000Y227600D01*
X107200Y227200D01*
Y224200D02*
X107600Y225000D01*
X107200Y225800D01*
X108000Y225400D01*
X108800Y225800D01*
X108400Y225000D01*
X108800Y224200D01*
X108000Y224600D01*
X107200Y224200D01*
X157200Y227200D02*
X157600Y228000D01*
X157200Y228800D01*
X158000Y228400D01*
X158800Y228800D01*
X158400Y228000D01*
X158800Y227200D01*
X158000Y227600D01*
X157200Y227200D01*
X177200Y71200D02*
X177600Y72000D01*
X177200Y72800D01*
X178000Y72400D01*
X178800Y72800D01*
X178400Y72000D01*
X178800Y71200D01*
X178000Y71600D01*
X177200Y71200D01*
Y68200D02*
X177600Y69000D01*
X177200Y69800D01*
X178000Y69400D01*
X178800Y69800D01*
X178400Y69000D01*
X178800Y68200D01*
X178000Y68600D01*
X177200Y68200D01*
Y115200D02*
X177600Y116000D01*
X177200Y116800D01*
X178000Y116400D01*
X178800Y116800D01*
X178400Y116000D01*
X178800Y115200D01*
X178000Y115600D01*
X177200Y115200D01*
Y112200D02*
X177600Y113000D01*
X177200Y113800D01*
X178000Y113400D01*
X178800Y113800D01*
X178400Y113000D01*
X178800Y112200D01*
X178000Y112600D01*
X177200Y112200D01*
Y165200D02*
X177600Y166000D01*
X177200Y166800D01*
X178000Y166400D01*
X178800Y166800D01*
X178400Y166000D01*
X178800Y165200D01*
X178000Y165600D01*
X177200Y165200D01*
Y162200D02*
X177600Y163000D01*
X177200Y163800D01*
X178000Y163400D01*
X178800Y163800D01*
X178400Y163000D01*
X178800Y162200D01*
X178000Y162600D01*
X177200Y162200D01*
Y209200D02*
X177600Y210000D01*
X177200Y210800D01*
X178000Y210400D01*
X178800Y210800D01*
X178400Y210000D01*
X178800Y209200D01*
X178000Y209600D01*
X177200Y209200D01*
Y206200D02*
X177600Y207000D01*
X177200Y207800D01*
X178000Y207400D01*
X178800Y207800D01*
X178400Y207000D01*
X178800Y206200D01*
X178000Y206600D01*
X177200Y206200D01*
X53200Y71200D02*
X53600Y72000D01*
X53200Y72800D01*
X54000Y72400D01*
X54800Y72800D01*
X54400Y72000D01*
X54800Y71200D01*
X54000Y71600D01*
X53200Y71200D01*
Y68200D02*
X53600Y69000D01*
X53200Y69800D01*
X54000Y69400D01*
X54800Y69800D01*
X54400Y69000D01*
X54800Y68200D01*
X54000Y68600D01*
X53200Y68200D01*
Y115200D02*
X53600Y116000D01*
X53200Y116800D01*
X54000Y116400D01*
X54800Y116800D01*
X54400Y116000D01*
X54800Y115200D01*
X54000Y115600D01*
X53200Y115200D01*
Y112200D02*
X53600Y113000D01*
X53200Y113800D01*
X54000Y113400D01*
X54800Y113800D01*
X54400Y113000D01*
X54800Y112200D01*
X54000Y112600D01*
X53200Y112200D01*
Y165200D02*
X53600Y166000D01*
X53200Y166800D01*
X54000Y166400D01*
X54800Y166800D01*
X54400Y166000D01*
X54800Y165200D01*
X54000Y165600D01*
X53200Y165200D01*
Y162200D02*
X53600Y163000D01*
X53200Y163800D01*
X54000Y163400D01*
X54800Y163800D01*
X54400Y163000D01*
X54800Y162200D01*
X54000Y162600D01*
X53200Y162200D01*
Y206200D02*
X53600Y207000D01*
X53200Y207800D01*
X54000Y207400D01*
X54800Y207800D01*
X54400Y207000D01*
X54800Y206200D01*
X54000Y206600D01*
X53200Y206200D01*
Y209200D02*
X53600Y210000D01*
X53200Y210800D01*
X54000Y210400D01*
X54800Y210800D01*
X54400Y210000D01*
X54800Y209200D01*
X54000Y209600D01*
X53200Y209200D01*
X193200Y49200D02*
X193600Y50000D01*
X193200Y50800D01*
X194000Y50400D01*
X194800Y50800D01*
X194400Y50000D01*
X194800Y49200D01*
X194000Y49600D01*
X193200Y49200D01*
X196200D02*
X196600Y50000D01*
X196200Y50800D01*
X197000Y50400D01*
X197800Y50800D01*
X197400Y50000D01*
X197800Y49200D01*
X197000Y49600D01*
X196200Y49200D01*
X193200Y93200D02*
X193600Y94000D01*
X193200Y94800D01*
X194000Y94400D01*
X194800Y94800D01*
X194400Y94000D01*
X194800Y93200D01*
X194000Y93600D01*
X193200Y93200D01*
X196200D02*
X196600Y94000D01*
X196200Y94800D01*
X197000Y94400D01*
X197800Y94800D01*
X197400Y94000D01*
X197800Y93200D01*
X197000Y93600D01*
X196200Y93200D01*
X193200Y143200D02*
X193600Y144000D01*
X193200Y144800D01*
X194000Y144400D01*
X194800Y144800D01*
X194400Y144000D01*
X194800Y143200D01*
X194000Y143600D01*
X193200Y143200D01*
X196200D02*
X196600Y144000D01*
X196200Y144800D01*
X197000Y144400D01*
X197800Y144800D01*
X197400Y144000D01*
X197800Y143200D01*
X197000Y143600D01*
X196200Y143200D01*
X193200Y187200D02*
X193600Y188000D01*
X193200Y188800D01*
X194000Y188400D01*
X194800Y188800D01*
X194400Y188000D01*
X194800Y187200D01*
X194000Y187600D01*
X193200Y187200D01*
X196200D02*
X196600Y188000D01*
X196200Y188800D01*
X197000Y188400D01*
X197800Y188800D01*
X197400Y188000D01*
X197800Y187200D01*
X197000Y187600D01*
X196200Y187200D01*
X69200Y49200D02*
X69600Y50000D01*
X69200Y50800D01*
X70000Y50400D01*
X70800Y50800D01*
X70400Y50000D01*
X70800Y49200D01*
X70000Y49600D01*
X69200Y49200D01*
X72200D02*
X72600Y50000D01*
X72200Y50800D01*
X73000Y50400D01*
X73800Y50800D01*
X73400Y50000D01*
X73800Y49200D01*
X73000Y49600D01*
X72200Y49200D01*
X69200Y93200D02*
X69600Y94000D01*
X69200Y94800D01*
X70000Y94400D01*
X70800Y94800D01*
X70400Y94000D01*
X70800Y93200D01*
X70000Y93600D01*
X69200Y93200D01*
X72200D02*
X72600Y94000D01*
X72200Y94800D01*
X73000Y94400D01*
X73800Y94800D01*
X73400Y94000D01*
X73800Y93200D01*
X73000Y93600D01*
X72200Y93200D01*
X69200Y143200D02*
X69600Y144000D01*
X69200Y144800D01*
X70000Y144400D01*
X70800Y144800D01*
X70400Y144000D01*
X70800Y143200D01*
X70000Y143600D01*
X69200Y143200D01*
X72200D02*
X72600Y144000D01*
X72200Y144800D01*
X73000Y144400D01*
X73800Y144800D01*
X73400Y144000D01*
X73800Y143200D01*
X73000Y143600D01*
X72200Y143200D01*
X76200Y191200D02*
X76600Y192000D01*
X76200Y192800D01*
X77000Y192400D01*
X77800Y192800D01*
X77400Y192000D01*
X77800Y191200D01*
X77000Y191600D01*
X76200Y191200D01*
Y194200D02*
X76600Y195000D01*
X76200Y195800D01*
X77000Y195400D01*
X77800Y195800D01*
X77400Y195000D01*
X77800Y194200D01*
X77000Y194600D01*
X76200Y194200D01*
Y182200D02*
X76600Y183000D01*
X76200Y183800D01*
X77000Y183400D01*
X77800Y183800D01*
X77400Y183000D01*
X77800Y182200D01*
X77000Y182600D01*
X76200Y182200D01*
Y185200D02*
X76600Y186000D01*
X76200Y186800D01*
X77000Y186400D01*
X77800Y186800D01*
X77400Y186000D01*
X77800Y185200D01*
X77000Y185600D01*
X76200Y185200D01*
X72200Y187200D02*
X72600Y188000D01*
X72200Y188800D01*
X73000Y188400D01*
X73800Y188800D01*
X73400Y188000D01*
X73800Y187200D01*
X73000Y187600D01*
X72200Y187200D01*
X69200D02*
X69600Y188000D01*
X69200Y188800D01*
X70000Y188400D01*
X70800Y188800D01*
X70400Y188000D01*
X70800Y187200D01*
X70000Y187600D01*
X69200Y187200D01*
X62200Y62200D02*
X62600Y63000D01*
X62200Y63800D01*
X63000Y63400D01*
X63800Y63800D01*
X63400Y63000D01*
X63800Y62200D01*
X63000Y62600D01*
X62200Y62200D01*
X65200D02*
X65600Y63000D01*
X65200Y63800D01*
X66000Y63400D01*
X66800Y63800D01*
X66400Y63000D01*
X66800Y62200D01*
X66000Y62600D01*
X65200Y62200D01*
X200200Y194200D02*
X200600Y195000D01*
X200200Y195800D01*
X201000Y195400D01*
X201800Y195800D01*
X201400Y195000D01*
X201800Y194200D01*
X201000Y194600D01*
X200200Y194200D01*
Y191200D02*
X200600Y192000D01*
X200200Y192800D01*
X201000Y192400D01*
X201800Y192800D01*
X201400Y192000D01*
X201800Y191200D01*
X201000Y191600D01*
X200200Y191200D01*
X157200Y224200D02*
X157600Y225000D01*
X157200Y225800D01*
X158000Y225400D01*
X158800Y225800D01*
X158400Y225000D01*
X158800Y224200D01*
X158000Y224600D01*
X157200Y224200D01*
X154200D02*
X154600Y225000D01*
X154200Y225800D01*
X155000Y225400D01*
X155800Y225800D01*
X155400Y225000D01*
X155800Y224200D01*
X155000Y224600D01*
X154200Y224200D01*
Y227200D02*
X154600Y228000D01*
X154200Y228800D01*
X155000Y228400D01*
X155800Y228800D01*
X155400Y228000D01*
X155800Y227200D01*
X155000Y227600D01*
X154200Y227200D01*
X104200D02*
X104600Y228000D01*
X104200Y228800D01*
X105000Y228400D01*
X105800Y228800D01*
X105400Y228000D01*
X105800Y227200D01*
X105000Y227600D01*
X104200Y227200D01*
X61500Y15200D02*
X61900Y16000D01*
X61500Y16800D01*
X62300Y16400D01*
X63100Y16800D01*
X62700Y16000D01*
X63100Y15200D01*
X62300Y15600D01*
X61500Y15200D01*
X129200Y80200D02*
X129600Y81000D01*
X129200Y81800D01*
X130000Y81400D01*
X130800Y81800D01*
X130400Y81000D01*
X130800Y80200D01*
X130000Y80600D01*
X129200Y80200D01*
Y105200D02*
X129600Y106000D01*
X129200Y106800D01*
X130000Y106400D01*
X130800Y106800D01*
X130400Y106000D01*
X130800Y105200D01*
X130000Y105600D01*
X129200Y105200D01*
Y134200D02*
X129600Y135000D01*
X129200Y135800D01*
X130000Y135400D01*
X130800Y135800D01*
X130400Y135000D01*
X130800Y134200D01*
X130000Y134600D01*
X129200Y134200D01*
Y159200D02*
X129600Y160000D01*
X129200Y160800D01*
X130000Y160400D01*
X130800Y160800D01*
X130400Y160000D01*
X130800Y159200D01*
X130000Y159600D01*
X129200Y159200D01*
Y238200D02*
X129600Y239000D01*
X129200Y239800D01*
X130000Y239400D01*
X130800Y239800D01*
X130400Y239000D01*
X130800Y238200D01*
X130000Y238600D01*
X129200Y238200D01*
Y263200D02*
X129600Y264000D01*
X129200Y264800D01*
X130000Y264400D01*
X130800Y264800D01*
X130400Y264000D01*
X130800Y263200D01*
X130000Y263600D01*
X129200Y263200D01*
X107200Y212200D02*
X107600Y213000D01*
X107200Y213800D01*
X108000Y213400D01*
X108800Y213800D01*
X108400Y213000D01*
X108800Y212200D01*
X108000Y212600D01*
X107200Y212200D01*
Y206200D02*
X107600Y207000D01*
X107200Y207800D01*
X108000Y207400D01*
X108800Y207800D01*
X108400Y207000D01*
X108800Y206200D01*
X108000Y206600D01*
X107200Y206200D01*
Y209200D02*
X107600Y210000D01*
X107200Y210800D01*
X108000Y210400D01*
X108800Y210800D01*
X108400Y210000D01*
X108800Y209200D01*
X108000Y209600D01*
X107200Y209200D01*
X200200Y185200D02*
X200600Y186000D01*
X200200Y186800D01*
X201000Y186400D01*
X201800Y186800D01*
X201400Y186000D01*
X201800Y185200D01*
X201000Y185600D01*
X200200Y185200D01*
Y182200D02*
X200600Y183000D01*
X200200Y183800D01*
X201000Y183400D01*
X201800Y183800D01*
X201400Y183000D01*
X201800Y182200D01*
X201000Y182600D01*
X200200Y182200D01*
X182200Y185200D02*
X182600Y186000D01*
X182200Y186800D01*
X183000Y186400D01*
X183800Y186800D01*
X183400Y186000D01*
X183800Y185200D01*
X183000Y185600D01*
X182200Y185200D01*
X185200Y182200D02*
X185600Y183000D01*
X185200Y183800D01*
X186000Y183400D01*
X186800Y183800D01*
X186400Y183000D01*
X186800Y182200D01*
X186000Y182600D01*
X185200Y182200D01*
X182200D02*
X182600Y183000D01*
X182200Y183800D01*
X183000Y183400D01*
X183800Y183800D01*
X183400Y183000D01*
X183800Y182200D01*
X183000Y182600D01*
X182200Y182200D01*
X185200Y185200D02*
X185600Y186000D01*
X185200Y186800D01*
X186000Y186400D01*
X186800Y186800D01*
X186400Y186000D01*
X186800Y185200D01*
X186000Y185600D01*
X185200Y185200D01*
X182200Y190200D02*
X182600Y191000D01*
X182200Y191800D01*
X183000Y191400D01*
X183800Y191800D01*
X183400Y191000D01*
X183800Y190200D01*
X183000Y190600D01*
X182200Y190200D01*
Y193200D02*
X182600Y194000D01*
X182200Y194800D01*
X183000Y194400D01*
X183800Y194800D01*
X183400Y194000D01*
X183800Y193200D01*
X183000Y193600D01*
X182200Y193200D01*
X189200Y200200D02*
X189600Y201000D01*
X189200Y201800D01*
X190000Y201400D01*
X190800Y201800D01*
X190400Y201000D01*
X190800Y200200D01*
X190000Y200600D01*
X189200Y200200D01*
X186200D02*
X186600Y201000D01*
X186200Y201800D01*
X187000Y201400D01*
X187800Y201800D01*
X187400Y201000D01*
X187800Y200200D01*
X187000Y200600D01*
X186200Y200200D01*
X182200Y141200D02*
X182600Y142000D01*
X182200Y142800D01*
X183000Y142400D01*
X183800Y142800D01*
X183400Y142000D01*
X183800Y141200D01*
X183000Y141600D01*
X182200Y141200D01*
X185200Y138200D02*
X185600Y139000D01*
X185200Y139800D01*
X186000Y139400D01*
X186800Y139800D01*
X186400Y139000D01*
X186800Y138200D01*
X186000Y138600D01*
X185200Y138200D01*
X182200D02*
X182600Y139000D01*
X182200Y139800D01*
X183000Y139400D01*
X183800Y139800D01*
X183400Y139000D01*
X183800Y138200D01*
X183000Y138600D01*
X182200Y138200D01*
X200200Y150200D02*
X200600Y151000D01*
X200200Y151800D01*
X201000Y151400D01*
X201800Y151800D01*
X201400Y151000D01*
X201800Y150200D01*
X201000Y150600D01*
X200200Y150200D01*
Y141200D02*
X200600Y142000D01*
X200200Y142800D01*
X201000Y142400D01*
X201800Y142800D01*
X201400Y142000D01*
X201800Y141200D01*
X201000Y141600D01*
X200200Y141200D01*
X185200D02*
X185600Y142000D01*
X185200Y142800D01*
X186000Y142400D01*
X186800Y142800D01*
X186400Y142000D01*
X186800Y141200D01*
X186000Y141600D01*
X185200Y141200D01*
X200200Y138200D02*
X200600Y139000D01*
X200200Y139800D01*
X201000Y139400D01*
X201800Y139800D01*
X201400Y139000D01*
X201800Y138200D01*
X201000Y138600D01*
X200200Y138200D01*
Y147200D02*
X200600Y148000D01*
X200200Y148800D01*
X201000Y148400D01*
X201800Y148800D01*
X201400Y148000D01*
X201800Y147200D01*
X201000Y147600D01*
X200200Y147200D01*
X182200Y146200D02*
X182600Y147000D01*
X182200Y147800D01*
X183000Y147400D01*
X183800Y147800D01*
X183400Y147000D01*
X183800Y146200D01*
X183000Y146600D01*
X182200Y146200D01*
Y149200D02*
X182600Y150000D01*
X182200Y150800D01*
X183000Y150400D01*
X183800Y150800D01*
X183400Y150000D01*
X183800Y149200D01*
X183000Y149600D01*
X182200Y149200D01*
X189200Y156200D02*
X189600Y157000D01*
X189200Y157800D01*
X190000Y157400D01*
X190800Y157800D01*
X190400Y157000D01*
X190800Y156200D01*
X190000Y156600D01*
X189200Y156200D01*
X186200D02*
X186600Y157000D01*
X186200Y157800D01*
X187000Y157400D01*
X187800Y157800D01*
X187400Y157000D01*
X187800Y156200D01*
X187000Y156600D01*
X186200Y156200D01*
X200200Y100200D02*
X200600Y101000D01*
X200200Y101800D01*
X201000Y101400D01*
X201800Y101800D01*
X201400Y101000D01*
X201800Y100200D01*
X201000Y100600D01*
X200200Y100200D01*
Y91200D02*
X200600Y92000D01*
X200200Y92800D01*
X201000Y92400D01*
X201800Y92800D01*
X201400Y92000D01*
X201800Y91200D01*
X201000Y91600D01*
X200200Y91200D01*
Y88200D02*
X200600Y89000D01*
X200200Y89800D01*
X201000Y89400D01*
X201800Y89800D01*
X201400Y89000D01*
X201800Y88200D01*
X201000Y88600D01*
X200200Y88200D01*
Y97200D02*
X200600Y98000D01*
X200200Y98800D01*
X201000Y98400D01*
X201800Y98800D01*
X201400Y98000D01*
X201800Y97200D01*
X201000Y97600D01*
X200200Y97200D01*
X189200Y106200D02*
X189600Y107000D01*
X189200Y107800D01*
X190000Y107400D01*
X190800Y107800D01*
X190400Y107000D01*
X190800Y106200D01*
X190000Y106600D01*
X189200Y106200D01*
X186200D02*
X186600Y107000D01*
X186200Y107800D01*
X187000Y107400D01*
X187800Y107800D01*
X187400Y107000D01*
X187800Y106200D01*
X187000Y106600D01*
X186200Y106200D01*
X182200Y47200D02*
X182600Y48000D01*
X182200Y48800D01*
X183000Y48400D01*
X183800Y48800D01*
X183400Y48000D01*
X183800Y47200D01*
X183000Y47600D01*
X182200Y47200D01*
X185200Y44200D02*
X185600Y45000D01*
X185200Y45800D01*
X186000Y45400D01*
X186800Y45800D01*
X186400Y45000D01*
X186800Y44200D01*
X186000Y44600D01*
X185200Y44200D01*
X182200D02*
X182600Y45000D01*
X182200Y45800D01*
X183000Y45400D01*
X183800Y45800D01*
X183400Y45000D01*
X183800Y44200D01*
X183000Y44600D01*
X182200Y44200D01*
X200200Y56200D02*
X200600Y57000D01*
X200200Y57800D01*
X201000Y57400D01*
X201800Y57800D01*
X201400Y57000D01*
X201800Y56200D01*
X201000Y56600D01*
X200200Y56200D01*
Y47200D02*
X200600Y48000D01*
X200200Y48800D01*
X201000Y48400D01*
X201800Y48800D01*
X201400Y48000D01*
X201800Y47200D01*
X201000Y47600D01*
X200200Y47200D01*
X185200D02*
X185600Y48000D01*
X185200Y48800D01*
X186000Y48400D01*
X186800Y48800D01*
X186400Y48000D01*
X186800Y47200D01*
X186000Y47600D01*
X185200Y47200D01*
X200200Y44200D02*
X200600Y45000D01*
X200200Y45800D01*
X201000Y45400D01*
X201800Y45800D01*
X201400Y45000D01*
X201800Y44200D01*
X201000Y44600D01*
X200200Y44200D01*
Y53200D02*
X200600Y54000D01*
X200200Y54800D01*
X201000Y54400D01*
X201800Y54800D01*
X201400Y54000D01*
X201800Y53200D01*
X201000Y53600D01*
X200200Y53200D01*
X182200Y52200D02*
X182600Y53000D01*
X182200Y53800D01*
X183000Y53400D01*
X183800Y53800D01*
X183400Y53000D01*
X183800Y52200D01*
X183000Y52600D01*
X182200Y52200D01*
Y55200D02*
X182600Y56000D01*
X182200Y56800D01*
X183000Y56400D01*
X183800Y56800D01*
X183400Y56000D01*
X183800Y55200D01*
X183000Y55600D01*
X182200Y55200D01*
X189200Y62200D02*
X189600Y63000D01*
X189200Y63800D01*
X190000Y63400D01*
X190800Y63800D01*
X190400Y63000D01*
X190800Y62200D01*
X190000Y62600D01*
X189200Y62200D01*
X186200D02*
X186600Y63000D01*
X186200Y63800D01*
X187000Y63400D01*
X187800Y63800D01*
X187400Y63000D01*
X187800Y62200D01*
X187000Y62600D01*
X186200Y62200D01*
X58200Y47200D02*
X58600Y48000D01*
X58200Y48800D01*
X59000Y48400D01*
X59800Y48800D01*
X59400Y48000D01*
X59800Y47200D01*
X59000Y47600D01*
X58200Y47200D01*
X61200Y44200D02*
X61600Y45000D01*
X61200Y45800D01*
X62000Y45400D01*
X62800Y45800D01*
X62400Y45000D01*
X62800Y44200D01*
X62000Y44600D01*
X61200Y44200D01*
X58200D02*
X58600Y45000D01*
X58200Y45800D01*
X59000Y45400D01*
X59800Y45800D01*
X59400Y45000D01*
X59800Y44200D01*
X59000Y44600D01*
X58200Y44200D01*
X76200Y56200D02*
X76600Y57000D01*
X76200Y57800D01*
X77000Y57400D01*
X77800Y57800D01*
X77400Y57000D01*
X77800Y56200D01*
X77000Y56600D01*
X76200Y56200D01*
Y47200D02*
X76600Y48000D01*
X76200Y48800D01*
X77000Y48400D01*
X77800Y48800D01*
X77400Y48000D01*
X77800Y47200D01*
X77000Y47600D01*
X76200Y47200D01*
X61200D02*
X61600Y48000D01*
X61200Y48800D01*
X62000Y48400D01*
X62800Y48800D01*
X62400Y48000D01*
X62800Y47200D01*
X62000Y47600D01*
X61200Y47200D01*
X76200Y44200D02*
X76600Y45000D01*
X76200Y45800D01*
X77000Y45400D01*
X77800Y45800D01*
X77400Y45000D01*
X77800Y44200D01*
X77000Y44600D01*
X76200Y44200D01*
Y53200D02*
X76600Y54000D01*
X76200Y54800D01*
X77000Y54400D01*
X77800Y54800D01*
X77400Y54000D01*
X77800Y53200D01*
X77000Y53600D01*
X76200Y53200D01*
X58200Y52200D02*
X58600Y53000D01*
X58200Y53800D01*
X59000Y53400D01*
X59800Y53800D01*
X59400Y53000D01*
X59800Y52200D01*
X59000Y52600D01*
X58200Y52200D01*
Y55200D02*
X58600Y56000D01*
X58200Y56800D01*
X59000Y56400D01*
X59800Y56800D01*
X59400Y56000D01*
X59800Y55200D01*
X59000Y55600D01*
X58200Y55200D01*
Y91200D02*
X58600Y92000D01*
X58200Y92800D01*
X59000Y92400D01*
X59800Y92800D01*
X59400Y92000D01*
X59800Y91200D01*
X59000Y91600D01*
X58200Y91200D01*
X61200Y88200D02*
X61600Y89000D01*
X61200Y89800D01*
X62000Y89400D01*
X62800Y89800D01*
X62400Y89000D01*
X62800Y88200D01*
X62000Y88600D01*
X61200Y88200D01*
X58200D02*
X58600Y89000D01*
X58200Y89800D01*
X59000Y89400D01*
X59800Y89800D01*
X59400Y89000D01*
X59800Y88200D01*
X59000Y88600D01*
X58200Y88200D01*
X76200Y100200D02*
X76600Y101000D01*
X76200Y101800D01*
X77000Y101400D01*
X77800Y101800D01*
X77400Y101000D01*
X77800Y100200D01*
X77000Y100600D01*
X76200Y100200D01*
Y91200D02*
X76600Y92000D01*
X76200Y92800D01*
X77000Y92400D01*
X77800Y92800D01*
X77400Y92000D01*
X77800Y91200D01*
X77000Y91600D01*
X76200Y91200D01*
X61200D02*
X61600Y92000D01*
X61200Y92800D01*
X62000Y92400D01*
X62800Y92800D01*
X62400Y92000D01*
X62800Y91200D01*
X62000Y91600D01*
X61200Y91200D01*
X76200Y88200D02*
X76600Y89000D01*
X76200Y89800D01*
X77000Y89400D01*
X77800Y89800D01*
X77400Y89000D01*
X77800Y88200D01*
X77000Y88600D01*
X76200Y88200D01*
Y97200D02*
X76600Y98000D01*
X76200Y98800D01*
X77000Y98400D01*
X77800Y98800D01*
X77400Y98000D01*
X77800Y97200D01*
X77000Y97600D01*
X76200Y97200D01*
X58200Y96200D02*
X58600Y97000D01*
X58200Y97800D01*
X59000Y97400D01*
X59800Y97800D01*
X59400Y97000D01*
X59800Y96200D01*
X59000Y96600D01*
X58200Y96200D01*
Y99200D02*
X58600Y100000D01*
X58200Y100800D01*
X59000Y100400D01*
X59800Y100800D01*
X59400Y100000D01*
X59800Y99200D01*
X59000Y99600D01*
X58200Y99200D01*
X65200Y106200D02*
X65600Y107000D01*
X65200Y107800D01*
X66000Y107400D01*
X66800Y107800D01*
X66400Y107000D01*
X66800Y106200D01*
X66000Y106600D01*
X65200Y106200D01*
X62200D02*
X62600Y107000D01*
X62200Y107800D01*
X63000Y107400D01*
X63800Y107800D01*
X63400Y107000D01*
X63800Y106200D01*
X63000Y106600D01*
X62200Y106200D01*
X58200Y141200D02*
X58600Y142000D01*
X58200Y142800D01*
X59000Y142400D01*
X59800Y142800D01*
X59400Y142000D01*
X59800Y141200D01*
X59000Y141600D01*
X58200Y141200D01*
X61200Y138200D02*
X61600Y139000D01*
X61200Y139800D01*
X62000Y139400D01*
X62800Y139800D01*
X62400Y139000D01*
X62800Y138200D01*
X62000Y138600D01*
X61200Y138200D01*
X58200D02*
X58600Y139000D01*
X58200Y139800D01*
X59000Y139400D01*
X59800Y139800D01*
X59400Y139000D01*
X59800Y138200D01*
X59000Y138600D01*
X58200Y138200D01*
X76200Y150200D02*
X76600Y151000D01*
X76200Y151800D01*
X77000Y151400D01*
X77800Y151800D01*
X77400Y151000D01*
X77800Y150200D01*
X77000Y150600D01*
X76200Y150200D01*
Y141200D02*
X76600Y142000D01*
X76200Y142800D01*
X77000Y142400D01*
X77800Y142800D01*
X77400Y142000D01*
X77800Y141200D01*
X77000Y141600D01*
X76200Y141200D01*
X61200D02*
X61600Y142000D01*
X61200Y142800D01*
X62000Y142400D01*
X62800Y142800D01*
X62400Y142000D01*
X62800Y141200D01*
X62000Y141600D01*
X61200Y141200D01*
X76200Y138200D02*
X76600Y139000D01*
X76200Y139800D01*
X77000Y139400D01*
X77800Y139800D01*
X77400Y139000D01*
X77800Y138200D01*
X77000Y138600D01*
X76200Y138200D01*
Y147200D02*
X76600Y148000D01*
X76200Y148800D01*
X77000Y148400D01*
X77800Y148800D01*
X77400Y148000D01*
X77800Y147200D01*
X77000Y147600D01*
X76200Y147200D01*
X58200Y146200D02*
X58600Y147000D01*
X58200Y147800D01*
X59000Y147400D01*
X59800Y147800D01*
X59400Y147000D01*
X59800Y146200D01*
X59000Y146600D01*
X58200Y146200D01*
Y149200D02*
X58600Y150000D01*
X58200Y150800D01*
X59000Y150400D01*
X59800Y150800D01*
X59400Y150000D01*
X59800Y149200D01*
X59000Y149600D01*
X58200Y149200D01*
X65200Y156200D02*
X65600Y157000D01*
X65200Y157800D01*
X66000Y157400D01*
X66800Y157800D01*
X66400Y157000D01*
X66800Y156200D01*
X66000Y156600D01*
X65200Y156200D01*
X62200D02*
X62600Y157000D01*
X62200Y157800D01*
X63000Y157400D01*
X63800Y157800D01*
X63400Y157000D01*
X63800Y156200D01*
X63000Y156600D01*
X62200Y156200D01*
Y200200D02*
X62600Y201000D01*
X62200Y201800D01*
X63000Y201400D01*
X63800Y201800D01*
X63400Y201000D01*
X63800Y200200D01*
X63000Y200600D01*
X62200Y200200D01*
X65200D02*
X65600Y201000D01*
X65200Y201800D01*
X66000Y201400D01*
X66800Y201800D01*
X66400Y201000D01*
X66800Y200200D01*
X66000Y200600D01*
X65200Y200200D01*
X58200Y193200D02*
X58600Y194000D01*
X58200Y194800D01*
X59000Y194400D01*
X59800Y194800D01*
X59400Y194000D01*
X59800Y193200D01*
X59000Y193600D01*
X58200Y193200D01*
Y190200D02*
X58600Y191000D01*
X58200Y191800D01*
X59000Y191400D01*
X59800Y191800D01*
X59400Y191000D01*
X59800Y190200D01*
X59000Y190600D01*
X58200Y190200D01*
X61200Y185200D02*
X61600Y186000D01*
X61200Y186800D01*
X62000Y186400D01*
X62800Y186800D01*
X62400Y186000D01*
X62800Y185200D01*
X62000Y185600D01*
X61200Y185200D01*
X58200Y182200D02*
X58600Y183000D01*
X58200Y183800D01*
X59000Y183400D01*
X59800Y183800D01*
X59400Y183000D01*
X59800Y182200D01*
X59000Y182600D01*
X58200Y182200D01*
X61200D02*
X61600Y183000D01*
X61200Y183800D01*
X62000Y183400D01*
X62800Y183800D01*
X62400Y183000D01*
X62800Y182200D01*
X62000Y182600D01*
X61200Y182200D01*
X58200Y185200D02*
X58600Y186000D01*
X58200Y186800D01*
X59000Y186400D01*
X59800Y186800D01*
X59400Y186000D01*
X59800Y185200D01*
X59000Y185600D01*
X58200Y185200D01*
X139200Y197200D02*
X139600Y198000D01*
X139200Y198800D01*
X140000Y198400D01*
X140800Y198800D01*
X140400Y198000D01*
X140800Y197200D01*
X140000Y197600D01*
X139200Y197200D01*
X142200D02*
X142600Y198000D01*
X142200Y198800D01*
X143000Y198400D01*
X143800Y198800D01*
X143400Y198000D01*
X143800Y197200D01*
X143000Y197600D01*
X142200Y197200D01*
X136200D02*
X136600Y198000D01*
X136200Y198800D01*
X137000Y198400D01*
X137800Y198800D01*
X137400Y198000D01*
X137800Y197200D01*
X137000Y197600D01*
X136200Y197200D01*
X143200Y193200D02*
X143600Y194000D01*
X143200Y194800D01*
X144000Y194400D01*
X144800Y194800D01*
X144400Y194000D01*
X144800Y193200D01*
X144000Y193600D01*
X143200Y193200D01*
X137200D02*
X137600Y194000D01*
X137200Y194800D01*
X138000Y194400D01*
X138800Y194800D01*
X138400Y194000D01*
X138800Y193200D01*
X138000Y193600D01*
X137200Y193200D01*
X140200D02*
X140600Y194000D01*
X140200Y194800D01*
X141000Y194400D01*
X141800Y194800D01*
X141400Y194000D01*
X141800Y193200D01*
X141000Y193600D01*
X140200Y193200D01*
X127500Y276700D02*
X127900Y277500D01*
X127500Y278300D01*
X128300Y277900D01*
X129100Y278300D01*
X128700Y277500D01*
X129100Y276700D01*
X128300Y277100D01*
X127500Y276700D01*
X130300D02*
X130700Y277500D01*
X130300Y278300D01*
X131100Y277900D01*
X131900Y278300D01*
X131500Y277500D01*
X131900Y276700D01*
X131100Y277100D01*
X130300Y276700D01*
Y279200D02*
X130700Y280000D01*
X130300Y280800D01*
X131100Y280400D01*
X131900Y280800D01*
X131500Y280000D01*
X131900Y279200D01*
X131100Y279600D01*
X130300Y279200D01*
X127500D02*
X127900Y280000D01*
X127500Y280800D01*
X128300Y280400D01*
X129100Y280800D01*
X128700Y280000D01*
X129100Y279200D01*
X128300Y279600D01*
X127500Y279200D01*
X130300Y281800D02*
X130700Y282600D01*
X130300Y283400D01*
X131100Y283000D01*
X131900Y283400D01*
X131500Y282600D01*
X131900Y281800D01*
X131100Y282200D01*
X130300Y281800D01*
X127500D02*
X127900Y282600D01*
X127500Y283400D01*
X128300Y283000D01*
X129100Y283400D01*
X128700Y282600D01*
X129100Y281800D01*
X128300Y282200D01*
X127500Y281800D01*
X126500Y38300D02*
X126900Y39100D01*
X126500Y39900D01*
X127300Y39500D01*
X128100Y39900D01*
X127700Y39100D01*
X128100Y38300D01*
X127300Y38700D01*
X126500Y38300D01*
Y41100D02*
X126900Y41900D01*
X126500Y42700D01*
X127300Y42300D01*
X128100Y42700D01*
X127700Y41900D01*
X128100Y41100D01*
X127300Y41500D01*
X126500Y41100D01*
X129100Y38300D02*
X129500Y39100D01*
X129100Y39900D01*
X129900Y39500D01*
X130700Y39900D01*
X130300Y39100D01*
X130700Y38300D01*
X129900Y38700D01*
X129100Y38300D01*
Y41100D02*
X129500Y41900D01*
X129100Y42700D01*
X129900Y42300D01*
X130700Y42700D01*
X130300Y41900D01*
X130700Y41100D01*
X129900Y41500D01*
X129100Y41100D01*
X131600D02*
X132000Y41900D01*
X131600Y42700D01*
X132400Y42300D01*
X133200Y42700D01*
X132800Y41900D01*
X133200Y41100D01*
X132400Y41500D01*
X131600Y41100D01*
Y38300D02*
X132000Y39100D01*
X131600Y39900D01*
X132400Y39500D01*
X133200Y39900D01*
X132800Y39100D01*
X133200Y38300D01*
X132400Y38700D01*
X131600Y38300D01*
D302*
X130800Y19996D02*
G03*
X130800Y19996I-800J0D01*
G01*
Y300004D02*
G03*
X130800Y300004I-800J0D01*
G01*
M02*
