G04 Layer_Physical_Order=1*
G04 Layer_Color=255*
%FSLAX25Y25*%
%MOIN*%
G70*
G01*
G75*
%ADD10R,0.03937X0.03740*%
%ADD11R,0.03937X0.03937*%
%ADD12O,0.07087X0.01181*%
%ADD13O,0.01181X0.07087*%
%ADD14R,0.05709X0.01181*%
%ADD15R,0.02520X0.10000*%
%ADD16R,0.02520X0.18504*%
%ADD17C,0.01000*%
%ADD18C,0.02000*%
%ADD19C,0.02500*%
%ADD20C,0.01200*%
%ADD21C,0.01500*%
%ADD22R,0.03173X0.06000*%
%ADD23R,0.03000X0.05000*%
%ADD24R,0.01890X0.04000*%
%ADD25C,0.03937*%
%ADD26R,0.03937X0.03937*%
%ADD27C,0.05906*%
%ADD28C,0.25000*%
%ADD29C,0.07874*%
%ADD30C,0.03000*%
G36*
X259953Y457D02*
X1000D01*
X0Y460D01*
Y319500D01*
X259953D01*
Y457D01*
D02*
G37*
%LPC*%
G36*
X130000Y314549D02*
X127725Y314370D01*
X125505Y313837D01*
X123397Y312964D01*
X121451Y311771D01*
X119715Y310289D01*
X118233Y308553D01*
X117041Y306607D01*
X116167Y304499D01*
X115634Y302279D01*
X115455Y300004D01*
X115634Y297729D01*
X116167Y295509D01*
X117041Y293401D01*
X118233Y291455D01*
X119715Y289719D01*
X121451Y288237D01*
X123397Y287044D01*
X125505Y286171D01*
X127725Y285638D01*
X130000Y285459D01*
X132275Y285638D01*
X134495Y286171D01*
X136603Y287044D01*
X138549Y288237D01*
X140285Y289719D01*
X141767Y291455D01*
X142959Y293401D01*
X143833Y295509D01*
X144366Y297729D01*
X144545Y300004D01*
X144366Y302279D01*
X143833Y304499D01*
X142959Y306607D01*
X141767Y308553D01*
X140285Y310289D01*
X138549Y311771D01*
X136603Y312964D01*
X134495Y313837D01*
X132275Y314370D01*
X130000Y314549D01*
D02*
G37*
G36*
X137992Y279161D02*
X136946Y279023D01*
X135971Y278619D01*
X135134Y277976D01*
X134491Y277139D01*
X134087Y276164D01*
X133950Y275118D01*
X134087Y274072D01*
X134491Y273097D01*
X135134Y272260D01*
X135971Y271617D01*
X136946Y271213D01*
X137992Y271076D01*
X139038Y271213D01*
X140013Y271617D01*
X140851Y272260D01*
X141493Y273097D01*
X141897Y274072D01*
X142035Y275118D01*
X141897Y276164D01*
X141493Y277139D01*
X140851Y277976D01*
X140013Y278619D01*
X139038Y279023D01*
X137992Y279161D01*
D02*
G37*
G36*
X226000Y263966D02*
X224836Y263851D01*
X223717Y263512D01*
X222686Y262960D01*
X221782Y262218D01*
X221040Y261314D01*
X220488Y260283D01*
X220149Y259164D01*
X220034Y258000D01*
X220149Y256836D01*
X220488Y255717D01*
X221040Y254686D01*
X221782Y253782D01*
X222686Y253040D01*
X223717Y252488D01*
X224836Y252149D01*
X226000Y252034D01*
X227164Y252149D01*
X228283Y252488D01*
X229314Y253040D01*
X230218Y253782D01*
X230960Y254686D01*
X231512Y255717D01*
X231851Y256836D01*
X231966Y258000D01*
X231851Y259164D01*
X231512Y260283D01*
X230960Y261314D01*
X230218Y262218D01*
X229314Y262960D01*
X228283Y263512D01*
X227164Y263851D01*
X226000Y263966D01*
D02*
G37*
G36*
X147020Y269874D02*
X137311D01*
Y264693D01*
Y262724D01*
Y258787D01*
Y256819D01*
Y252882D01*
Y250913D01*
Y246976D01*
Y245008D01*
Y241071D01*
Y239102D01*
Y235165D01*
Y233197D01*
Y229260D01*
Y227291D01*
Y223354D01*
Y221386D01*
Y217449D01*
Y215480D01*
Y211543D01*
Y209575D01*
X147020D01*
Y211543D01*
Y215480D01*
Y217449D01*
Y221386D01*
Y223354D01*
Y227291D01*
Y229260D01*
Y233197D01*
Y235165D01*
Y239102D01*
Y241071D01*
Y245008D01*
Y246976D01*
Y250913D01*
Y252882D01*
Y256819D01*
Y258787D01*
Y262724D01*
Y264693D01*
Y269874D01*
D02*
G37*
G36*
X122689D02*
X112980D01*
Y264693D01*
Y262724D01*
Y258787D01*
Y256819D01*
Y252882D01*
Y250913D01*
Y246976D01*
Y245008D01*
Y241071D01*
Y239102D01*
Y235165D01*
Y233197D01*
Y229260D01*
Y227291D01*
Y223354D01*
Y221386D01*
Y217449D01*
Y215480D01*
Y211543D01*
Y209575D01*
X122689D01*
Y211543D01*
Y215480D01*
Y217449D01*
Y221386D01*
Y223354D01*
Y227291D01*
Y229260D01*
Y233197D01*
Y235165D01*
Y239102D01*
Y241071D01*
Y245008D01*
Y246976D01*
Y250913D01*
Y252882D01*
Y256819D01*
Y258787D01*
Y262724D01*
Y264693D01*
Y269874D01*
D02*
G37*
G36*
X20968Y246969D02*
X13032D01*
Y239032D01*
X13032D01*
X13120Y238931D01*
X12997Y238000D01*
X13134Y236964D01*
X13533Y235999D01*
X13916Y235500D01*
X13533Y235001D01*
X13134Y234036D01*
X12997Y233000D01*
X13134Y231964D01*
X13533Y230999D01*
X13916Y230500D01*
X13533Y230001D01*
X13134Y229036D01*
X12997Y228000D01*
X13134Y226964D01*
X13533Y225999D01*
X13916Y225500D01*
X13533Y225001D01*
X13134Y224036D01*
X12997Y223000D01*
X13134Y221964D01*
X13533Y220999D01*
X14170Y220170D01*
X14999Y219533D01*
X15964Y219134D01*
X17000Y218997D01*
X18036Y219134D01*
X19001Y219533D01*
X19830Y220170D01*
X20467Y220999D01*
X20866Y221964D01*
X21003Y223000D01*
X20866Y224036D01*
X20664Y224524D01*
X21088Y224807D01*
X33451Y212444D01*
Y204161D01*
X32984Y203921D01*
X23102Y213802D01*
X22275Y214355D01*
X21300Y214549D01*
X20654D01*
X20467Y215001D01*
X19830Y215830D01*
X19001Y216466D01*
X18036Y216866D01*
X17000Y217003D01*
X15964Y216866D01*
X14999Y216466D01*
X14170Y215830D01*
X13533Y215001D01*
X13134Y214036D01*
X12997Y213000D01*
X13134Y211964D01*
X13533Y210999D01*
X13916Y210500D01*
X13533Y210001D01*
X13134Y209036D01*
X12997Y208000D01*
X13134Y206964D01*
X13533Y205999D01*
X13916Y205500D01*
X13533Y205001D01*
X13134Y204036D01*
X12997Y203000D01*
X13134Y201964D01*
X13533Y200999D01*
X13916Y200500D01*
X13533Y200001D01*
X13134Y199036D01*
X12997Y198000D01*
X13134Y196964D01*
X13533Y195999D01*
X14170Y195170D01*
X14999Y194534D01*
X15964Y194134D01*
X17000Y193997D01*
X18036Y194134D01*
X19001Y194534D01*
X19830Y195170D01*
X20205Y195658D01*
X20704Y195691D01*
X33087Y183308D01*
X33914Y182755D01*
X34890Y182561D01*
X48617D01*
X49102Y182497D01*
X55008D01*
X55684Y182586D01*
X56314Y182847D01*
X56855Y183263D01*
X57271Y183804D01*
X57532Y184434D01*
X57621Y185110D01*
X57532Y185786D01*
X57404Y186094D01*
X57532Y186402D01*
X57621Y187079D01*
X57532Y187755D01*
X57404Y188063D01*
X57532Y188371D01*
X57621Y189047D01*
X57532Y189724D01*
X57404Y190032D01*
X57532Y190340D01*
X57621Y191016D01*
X57607Y191122D01*
X57500Y191015D01*
X57494Y191035D01*
X57475Y191066D01*
X57443Y191108D01*
X57342Y191226D01*
X56988Y191597D01*
X56711Y191855D01*
X56411Y192095D01*
X56099Y192307D01*
X55775Y192491D01*
X55439Y192647D01*
X55092Y192774D01*
X54733Y192873D01*
X54362Y192943D01*
X53980Y192986D01*
X53586Y193000D01*
X54345Y193629D01*
X49102D01*
X48617Y193565D01*
X43340D01*
X43000Y193905D01*
X43240Y194372D01*
X48617D01*
X49102Y194308D01*
X55008D01*
X55195Y194333D01*
X56000Y195000D01*
X56406Y194729D01*
X56855Y195074D01*
X57271Y195615D01*
X57532Y196245D01*
X57621Y196921D01*
X57532Y197598D01*
X57404Y197906D01*
X57532Y198214D01*
X57621Y198890D01*
X57532Y199566D01*
X57404Y199874D01*
X57532Y200182D01*
X57621Y200858D01*
X57532Y201535D01*
X57404Y201842D01*
X57532Y202151D01*
X57569Y202431D01*
X57850Y202468D01*
X58157Y202596D01*
X58465Y202468D01*
X59142Y202379D01*
X59818Y202468D01*
X60126Y202596D01*
X60434Y202468D01*
X61110Y202379D01*
X61787Y202468D01*
X62417Y202729D01*
X62958Y203145D01*
X63373Y203686D01*
X63634Y204316D01*
X63723Y204992D01*
Y210898D01*
X63634Y211574D01*
X63378Y212192D01*
Y213442D01*
X63658Y213722D01*
X64393D01*
Y207945D01*
X64403Y207872D01*
Y204992D01*
X64492Y204316D01*
X64753Y203686D01*
X65168Y203145D01*
X65237Y203091D01*
X65280Y203134D01*
X65748Y202713D01*
X66339Y202468D01*
X67016Y202379D01*
X67692Y202468D01*
X68000Y202596D01*
X68308Y202468D01*
X68722Y202414D01*
Y191259D01*
X68235Y191057D01*
X67504Y190496D01*
X66943Y189765D01*
X66590Y188914D01*
X66470Y188000D01*
X66590Y187086D01*
X66943Y186235D01*
X67504Y185504D01*
X68235Y184943D01*
X68722Y184741D01*
Y181586D01*
X68308Y181532D01*
X68000Y181404D01*
X67692Y181532D01*
X67016Y181621D01*
X66339Y181532D01*
X66031Y181404D01*
X65724Y181532D01*
X65047Y181621D01*
X64371Y181532D01*
X64063Y181404D01*
X63755Y181532D01*
X63079Y181621D01*
X62402Y181532D01*
X62094Y181404D01*
X61787Y181532D01*
X61110Y181621D01*
X60434Y181532D01*
X59804Y181271D01*
X59263Y180856D01*
X58847Y180314D01*
X58586Y179684D01*
X58497Y179008D01*
Y173102D01*
X58586Y172426D01*
X58847Y171796D01*
X59138Y171417D01*
X57860Y170140D01*
X57380Y169513D01*
X57368Y169485D01*
X57173Y169510D01*
X56497Y169422D01*
X55867Y169160D01*
X55744Y169066D01*
X54914Y169410D01*
X54000Y169530D01*
X53086Y169410D01*
X52235Y169057D01*
X51504Y168496D01*
X50943Y167765D01*
X50590Y166914D01*
X50470Y166000D01*
X50590Y165086D01*
X50833Y164500D01*
X50590Y163914D01*
X50470Y163000D01*
X50590Y162086D01*
X50686Y161855D01*
X50408Y161440D01*
X49102D01*
X48617Y161376D01*
X41729D01*
X21802Y181302D01*
X20976Y181855D01*
X20968Y181856D01*
Y184968D01*
X13032D01*
Y177032D01*
X13032D01*
X13120Y176931D01*
X12997Y176000D01*
X13134Y174964D01*
X13533Y173999D01*
X13916Y173500D01*
X13533Y173001D01*
X13134Y172036D01*
X12997Y171000D01*
X13134Y169964D01*
X13533Y168999D01*
X13916Y168500D01*
X13533Y168001D01*
X13134Y167036D01*
X12997Y166000D01*
X13134Y164964D01*
X13533Y163999D01*
X13916Y163500D01*
X13533Y163001D01*
X13134Y162036D01*
X12997Y161000D01*
X13134Y159964D01*
X13533Y158999D01*
X14170Y158170D01*
X14999Y157534D01*
X15964Y157134D01*
X17000Y156997D01*
X18036Y157134D01*
X19001Y157534D01*
X19830Y158170D01*
X20467Y158999D01*
X20866Y159964D01*
X21003Y161000D01*
X20969Y161257D01*
X21417Y161478D01*
X31776Y151119D01*
X31881Y151049D01*
X31729Y150549D01*
X21556D01*
X20987Y151118D01*
X20866Y152036D01*
X20467Y153001D01*
X19830Y153830D01*
X19001Y154466D01*
X18036Y154866D01*
X17000Y155003D01*
X15964Y154866D01*
X14999Y154466D01*
X14170Y153830D01*
X13533Y153001D01*
X13134Y152036D01*
X12997Y151000D01*
X13134Y149964D01*
X13533Y148999D01*
X13916Y148500D01*
X13533Y148001D01*
X13134Y147036D01*
X12997Y146000D01*
X13134Y144964D01*
X13533Y143999D01*
X13916Y143500D01*
X13533Y143001D01*
X13134Y142036D01*
X12997Y141000D01*
X13134Y139964D01*
X13533Y138999D01*
X13916Y138500D01*
X13533Y138001D01*
X13134Y137036D01*
X12997Y136000D01*
X13134Y134964D01*
X13533Y133999D01*
X14170Y133170D01*
X14999Y132534D01*
X15964Y132134D01*
X17000Y131997D01*
X18036Y132134D01*
X19001Y132534D01*
X19830Y133170D01*
X20467Y133999D01*
X20866Y134964D01*
X20992Y135918D01*
X21007Y135990D01*
X21010Y136176D01*
X21018Y136288D01*
X21029Y136375D01*
X21040Y136436D01*
X21056Y136451D01*
X39500D01*
X40475Y136645D01*
X41302Y137198D01*
X42666Y138561D01*
X48617D01*
X49102Y138497D01*
X55008D01*
X55684Y138586D01*
X56314Y138847D01*
X56855Y139263D01*
X57271Y139804D01*
X57532Y140434D01*
X57621Y141110D01*
X57532Y141787D01*
X57404Y142095D01*
X57532Y142403D01*
X57621Y143079D01*
X57532Y143755D01*
X57404Y144063D01*
X57532Y144371D01*
X57621Y145047D01*
X57532Y145723D01*
X57404Y146031D01*
X57532Y146339D01*
X57621Y147016D01*
X57607Y147122D01*
X57500Y147015D01*
X57494Y147035D01*
X57475Y147066D01*
X57443Y147108D01*
X57342Y147226D01*
X56988Y147597D01*
X56711Y147854D01*
X56411Y148095D01*
X56099Y148307D01*
X55775Y148491D01*
X55439Y148646D01*
X55092Y148774D01*
X54733Y148873D01*
X54362Y148943D01*
X53980Y148986D01*
X53586Y149000D01*
X54345Y149629D01*
X49102D01*
X48617Y149565D01*
X47543D01*
X47219Y149926D01*
X47362Y150372D01*
X48617D01*
X49102Y150308D01*
X55008D01*
X55195Y150333D01*
X56000Y151000D01*
X56406Y150729D01*
X56855Y151074D01*
X57271Y151615D01*
X57532Y152245D01*
X57621Y152921D01*
X57532Y153597D01*
X57404Y153905D01*
X57532Y154214D01*
X57621Y154890D01*
X57532Y155566D01*
X57404Y155874D01*
X57532Y156182D01*
X57621Y156858D01*
X57532Y157535D01*
X57404Y157843D01*
X57532Y158150D01*
X57569Y158431D01*
X57850Y158468D01*
X58157Y158596D01*
X58465Y158468D01*
X59142Y158379D01*
X59818Y158468D01*
X60126Y158596D01*
X60434Y158468D01*
X61110Y158379D01*
X61787Y158468D01*
X62313Y158686D01*
X62293Y158707D01*
X62427Y158861D01*
X62547Y159042D01*
X62653Y159248D01*
X62745Y159480D01*
X62823Y159737D01*
X62887Y160021D01*
X62936Y160331D01*
X62993Y161027D01*
X63000Y161414D01*
X63723D01*
Y166898D01*
X63790Y166974D01*
X64393D01*
Y163945D01*
X64403Y163872D01*
Y161414D01*
X65000D01*
X65014Y161020D01*
X65057Y160638D01*
X65127Y160267D01*
X65226Y159908D01*
X65354Y159561D01*
X65509Y159225D01*
X65693Y158901D01*
X65849Y158671D01*
X66339Y158468D01*
X67016Y158379D01*
X67692Y158468D01*
X68000Y158596D01*
X68308Y158468D01*
X68722Y158414D01*
Y147259D01*
X68235Y147057D01*
X67504Y146496D01*
X66943Y145765D01*
X66590Y144914D01*
X66470Y144000D01*
X66590Y143086D01*
X66943Y142235D01*
X67504Y141504D01*
X68235Y140943D01*
X68722Y140741D01*
Y137586D01*
X68308Y137532D01*
X68000Y137404D01*
X67692Y137532D01*
X67016Y137621D01*
X66339Y137532D01*
X66031Y137404D01*
X65724Y137532D01*
X65047Y137621D01*
X64371Y137532D01*
X64063Y137404D01*
X63755Y137532D01*
X63079Y137621D01*
X62402Y137532D01*
X62094Y137404D01*
X61787Y137532D01*
X61110Y137621D01*
X61096Y137619D01*
X61034Y137574D01*
X60863Y137433D01*
X60652Y137236D01*
X60531Y137116D01*
X60241Y137452D01*
X59804Y137271D01*
X59777Y137250D01*
X59762Y137113D01*
X59750Y136801D01*
X59259D01*
X59495Y136619D01*
X60414Y137000D01*
X60145Y136711D01*
X59905Y136411D01*
X59788Y136238D01*
X59750Y135000D01*
X59201D01*
X59127Y134733D01*
X59057Y134362D01*
X59014Y133980D01*
X59000Y133586D01*
X58497Y134193D01*
Y129102D01*
X58586Y128426D01*
X58847Y127796D01*
X59263Y127255D01*
X59804Y126839D01*
X60053Y126736D01*
Y125921D01*
X60129Y125346D01*
X59860Y125140D01*
X57860Y123140D01*
X57380Y122513D01*
X57077Y121783D01*
X56974Y121000D01*
Y119484D01*
X56497Y119422D01*
X55867Y119160D01*
X55744Y119066D01*
X54914Y119410D01*
X54000Y119530D01*
X53086Y119410D01*
X52235Y119057D01*
X51504Y118496D01*
X50943Y117765D01*
X50590Y116914D01*
X50470Y116000D01*
X50590Y115086D01*
X50833Y114500D01*
X50590Y113914D01*
X50470Y113000D01*
X50590Y112086D01*
X50686Y111855D01*
X50408Y111440D01*
X49102D01*
X48617Y111376D01*
X43229D01*
X34802Y119802D01*
X33975Y120355D01*
X33000Y120549D01*
X20968D01*
Y122968D01*
X13032D01*
Y115032D01*
X13032D01*
X13120Y114931D01*
X12997Y114000D01*
X13134Y112964D01*
X13533Y111999D01*
X13916Y111500D01*
X13533Y111001D01*
X13134Y110036D01*
X12997Y109000D01*
X13134Y107964D01*
X13533Y106999D01*
X13916Y106500D01*
X13533Y106001D01*
X13134Y105036D01*
X12997Y104000D01*
X13134Y102964D01*
X13533Y101999D01*
X13916Y101500D01*
X13533Y101001D01*
X13134Y100036D01*
X12997Y99000D01*
X13134Y97964D01*
X13533Y96999D01*
X14170Y96170D01*
X14999Y95534D01*
X15964Y95134D01*
X17000Y94997D01*
X18036Y95134D01*
X19001Y95534D01*
X19830Y96170D01*
X20467Y96999D01*
X20866Y97964D01*
X21003Y99000D01*
X20866Y100036D01*
X20467Y101001D01*
X20084Y101500D01*
X20467Y101999D01*
X20866Y102964D01*
X20992Y103918D01*
X21007Y103990D01*
X21010Y104176D01*
X21018Y104288D01*
X21029Y104375D01*
X21040Y104436D01*
X21056Y104451D01*
X27944D01*
X31276Y101119D01*
X32103Y100566D01*
X33079Y100372D01*
X48617D01*
X49102Y100308D01*
X55008D01*
X55195Y100333D01*
X56000Y101000D01*
X56406Y100729D01*
X56855Y101074D01*
X57271Y101615D01*
X57532Y102245D01*
X57621Y102921D01*
X57532Y103597D01*
X57404Y103905D01*
X57532Y104214D01*
X57621Y104890D01*
X57532Y105566D01*
X57404Y105874D01*
X57532Y106182D01*
X57621Y106858D01*
X57532Y107535D01*
X57404Y107843D01*
X57532Y108150D01*
X57569Y108431D01*
X57850Y108468D01*
X58157Y108596D01*
X58465Y108468D01*
X59142Y108379D01*
X59818Y108468D01*
X60126Y108596D01*
X60434Y108468D01*
X61110Y108379D01*
X61787Y108468D01*
X62313Y108686D01*
X62293Y108707D01*
X62427Y108857D01*
X62547Y109025D01*
X62653Y109210D01*
X62745Y109413D01*
X62823Y109634D01*
X62887Y109872D01*
X62936Y110128D01*
X62993Y110692D01*
X63000Y111000D01*
X63723D01*
Y116898D01*
X63634Y117574D01*
X63373Y118204D01*
X63026Y118657D01*
Y119747D01*
X63253Y119974D01*
X64393D01*
Y113945D01*
X64403Y113872D01*
Y111000D01*
X65000D01*
X65014Y110685D01*
X65057Y110373D01*
X65127Y110064D01*
X65226Y109759D01*
X65354Y109457D01*
X65509Y109159D01*
X65693Y108864D01*
X65826Y108681D01*
X66339Y108468D01*
X67016Y108379D01*
X67692Y108468D01*
X68000Y108596D01*
X68308Y108468D01*
X68722Y108414D01*
Y97259D01*
X68235Y97057D01*
X67504Y96496D01*
X66943Y95765D01*
X66590Y94914D01*
X66470Y94000D01*
X66590Y93086D01*
X66943Y92235D01*
X67504Y91504D01*
X68235Y90943D01*
X68722Y90741D01*
Y87586D01*
X68308Y87532D01*
X68000Y87404D01*
X67692Y87532D01*
X67016Y87621D01*
X66339Y87532D01*
X66031Y87404D01*
X65724Y87532D01*
X65047Y87621D01*
X64371Y87532D01*
X64063Y87404D01*
X63755Y87532D01*
X63079Y87621D01*
X62402Y87532D01*
X62094Y87404D01*
X61787Y87532D01*
X61110Y87621D01*
X60434Y87532D01*
X59804Y87271D01*
X59263Y86856D01*
X58847Y86314D01*
X58586Y85684D01*
X58497Y85008D01*
Y79102D01*
X58586Y78426D01*
X58847Y77796D01*
X59138Y77417D01*
X57860Y76140D01*
X57380Y75513D01*
X57368Y75485D01*
X57173Y75511D01*
X56497Y75422D01*
X55867Y75160D01*
X55744Y75066D01*
X54914Y75410D01*
X54000Y75530D01*
X53086Y75410D01*
X52235Y75057D01*
X51504Y74496D01*
X50943Y73765D01*
X50590Y72914D01*
X50470Y72000D01*
X50590Y71086D01*
X50833Y70500D01*
X50590Y69914D01*
X50470Y69000D01*
X50590Y68086D01*
X50686Y67855D01*
X50408Y67440D01*
X49102D01*
X48617Y67376D01*
X35327D01*
X34351Y67182D01*
X33524Y66629D01*
X26444Y59549D01*
X20968D01*
Y60969D01*
X13032D01*
Y53031D01*
X13032D01*
X13120Y52931D01*
X12997Y52000D01*
X13134Y50964D01*
X13533Y49999D01*
X13916Y49500D01*
X13533Y49001D01*
X13134Y48036D01*
X12997Y47000D01*
X13134Y45964D01*
X13533Y44999D01*
X13916Y44500D01*
X13533Y44001D01*
X13134Y43036D01*
X12997Y42000D01*
X13134Y40964D01*
X13533Y39999D01*
X13916Y39500D01*
X13533Y39001D01*
X13134Y38036D01*
X12997Y37000D01*
X13134Y35964D01*
X13533Y34999D01*
X14170Y34170D01*
X14999Y33533D01*
X15964Y33134D01*
X17000Y32997D01*
X18036Y33134D01*
X19001Y33533D01*
X19830Y34170D01*
X20467Y34999D01*
X20866Y35964D01*
X21003Y37000D01*
X20866Y38036D01*
X20467Y39001D01*
X20084Y39500D01*
X20467Y39999D01*
X20866Y40964D01*
X20992Y41918D01*
X21007Y41990D01*
X21010Y42176D01*
X21018Y42288D01*
X21029Y42375D01*
X21040Y42436D01*
X21056Y42451D01*
X28139D01*
X28346Y41951D01*
X17352Y30957D01*
X17000Y31003D01*
X15964Y30866D01*
X14999Y30466D01*
X14170Y29830D01*
X13533Y29001D01*
X13134Y28036D01*
X12997Y27000D01*
X13134Y25964D01*
X13533Y24999D01*
X13916Y24500D01*
X13533Y24001D01*
X13134Y23036D01*
X12997Y22000D01*
X13134Y20964D01*
X13533Y19999D01*
X13916Y19500D01*
X13533Y19001D01*
X13134Y18036D01*
X12997Y17000D01*
X13134Y15964D01*
X13533Y14999D01*
X13916Y14500D01*
X13533Y14001D01*
X13134Y13036D01*
X12997Y12000D01*
X13134Y10964D01*
X13533Y9999D01*
X14170Y9170D01*
X14999Y8534D01*
X15964Y8134D01*
X17000Y7997D01*
X18036Y8134D01*
X19001Y8534D01*
X19830Y9170D01*
X20467Y9999D01*
X20866Y10964D01*
X21003Y12000D01*
X20956Y12352D01*
X22302Y13698D01*
X22855Y14525D01*
X23049Y15500D01*
Y16444D01*
X33302Y26698D01*
X33855Y27525D01*
X34049Y28500D01*
Y29444D01*
X49102Y44497D01*
X49102Y44497D01*
X55008D01*
X55684Y44586D01*
X56314Y44847D01*
X56855Y45263D01*
X57271Y45804D01*
X57532Y46434D01*
X57621Y47110D01*
X57532Y47787D01*
X57404Y48094D01*
X57532Y48403D01*
X57621Y49079D01*
X57532Y49755D01*
X57404Y50063D01*
X57532Y50371D01*
X57621Y51047D01*
X57532Y51723D01*
X57404Y52031D01*
X57532Y52340D01*
X57621Y53016D01*
X57607Y53122D01*
X57500Y53015D01*
X57494Y53035D01*
X57475Y53066D01*
X57443Y53108D01*
X57342Y53226D01*
X56988Y53597D01*
X56711Y53855D01*
X56411Y54095D01*
X56099Y54307D01*
X55775Y54491D01*
X55439Y54646D01*
X55092Y54774D01*
X54733Y54873D01*
X54362Y54943D01*
X53980Y54986D01*
X53586Y55000D01*
X54345Y55629D01*
X49102D01*
X48617Y55565D01*
X43394D01*
X43210Y55996D01*
X43515Y56372D01*
X48617D01*
X49102Y56308D01*
X55008D01*
X55195Y56333D01*
X56000Y57000D01*
X56406Y56729D01*
X56855Y57074D01*
X57271Y57615D01*
X57532Y58245D01*
X57621Y58921D01*
X57532Y59597D01*
X57404Y59905D01*
X57532Y60214D01*
X57621Y60890D01*
X57532Y61566D01*
X57404Y61874D01*
X57532Y62182D01*
X57621Y62858D01*
X57532Y63534D01*
X57404Y63842D01*
X57532Y64151D01*
X57569Y64431D01*
X57850Y64468D01*
X58157Y64596D01*
X58465Y64468D01*
X59142Y64379D01*
X59818Y64468D01*
X60126Y64596D01*
X60434Y64468D01*
X61110Y64379D01*
X61787Y64468D01*
X62313Y64687D01*
X62293Y64707D01*
X62427Y64862D01*
X62547Y65042D01*
X62653Y65248D01*
X62745Y65480D01*
X62823Y65737D01*
X62887Y66021D01*
X62936Y66331D01*
X62993Y67027D01*
X63000Y67414D01*
X63723D01*
Y72898D01*
X63790Y72974D01*
X64393D01*
Y69945D01*
X64403Y69872D01*
Y67414D01*
X65000D01*
X65014Y67020D01*
X65057Y66638D01*
X65127Y66267D01*
X65226Y65908D01*
X65354Y65561D01*
X65509Y65225D01*
X65693Y64901D01*
X65849Y64671D01*
X66339Y64468D01*
X67016Y64379D01*
X67692Y64468D01*
X68000Y64596D01*
X68308Y64468D01*
X68722Y64414D01*
Y53259D01*
X68235Y53057D01*
X67504Y52496D01*
X66943Y51765D01*
X66590Y50914D01*
X66470Y50000D01*
X66590Y49086D01*
X66943Y48235D01*
X67504Y47504D01*
X68235Y46943D01*
X68722Y46741D01*
Y43586D01*
X68308Y43532D01*
X68000Y43404D01*
X67692Y43532D01*
X67016Y43621D01*
X66339Y43532D01*
X66031Y43404D01*
X65724Y43532D01*
X65047Y43621D01*
X64371Y43532D01*
X64063Y43404D01*
X63755Y43532D01*
X63079Y43621D01*
X62402Y43532D01*
X62094Y43404D01*
X61787Y43532D01*
X61110Y43621D01*
X60434Y43532D01*
X59804Y43271D01*
X59263Y42856D01*
X58847Y42314D01*
X58586Y41684D01*
X58497Y41008D01*
Y35102D01*
X58586Y34426D01*
X58847Y33796D01*
X59263Y33255D01*
X59804Y32840D01*
X60053Y32736D01*
Y31921D01*
X60156Y31138D01*
X60193Y31049D01*
X59859Y30549D01*
X59442D01*
X59360Y30601D01*
X58765Y31057D01*
X57914Y31410D01*
X57000Y31530D01*
X56086Y31410D01*
X55500Y31167D01*
X54914Y31410D01*
X54000Y31530D01*
X53086Y31410D01*
X52235Y31057D01*
X51504Y30496D01*
X50943Y29765D01*
X50590Y28914D01*
X50470Y28000D01*
X50590Y27086D01*
X50943Y26235D01*
X51504Y25504D01*
X52235Y24943D01*
X53086Y24590D01*
X54000Y24470D01*
X54914Y24590D01*
X55500Y24833D01*
X56086Y24590D01*
X57000Y24470D01*
X57914Y24590D01*
X58765Y24943D01*
X59360Y25399D01*
X59442Y25451D01*
X91000D01*
X91975Y25645D01*
X92802Y26198D01*
X111000Y44395D01*
X122440Y32956D01*
X122377Y32331D01*
X121451Y31763D01*
X119715Y30281D01*
X118233Y28545D01*
X117041Y26599D01*
X116167Y24491D01*
X115634Y22271D01*
X115455Y19996D01*
X115634Y17721D01*
X116167Y15502D01*
X117041Y13393D01*
X118233Y11447D01*
X119715Y9711D01*
X121451Y8229D01*
X122591Y7530D01*
X122455Y7049D01*
X85350D01*
X85020Y7425D01*
X85030Y7500D01*
X84910Y8414D01*
X84557Y9265D01*
X83996Y9996D01*
X83265Y10557D01*
X82414Y10910D01*
X81500Y11030D01*
X80586Y10910D01*
X79735Y10557D01*
X79004Y9996D01*
X78443Y9265D01*
X78090Y8414D01*
X77970Y7500D01*
X78090Y6586D01*
X78333Y6000D01*
X78090Y5414D01*
X77970Y4500D01*
X78090Y3586D01*
X78443Y2735D01*
X79004Y2004D01*
X79735Y1443D01*
X80586Y1090D01*
X81500Y970D01*
X82414Y1090D01*
X83265Y1443D01*
X83860Y1899D01*
X83942Y1951D01*
X208559D01*
X208640Y1899D01*
X209235Y1443D01*
X210086Y1090D01*
X211000Y970D01*
X211914Y1090D01*
X212765Y1443D01*
X213496Y2004D01*
X214057Y2735D01*
X214410Y3586D01*
X214530Y4500D01*
X214410Y5414D01*
X214167Y6000D01*
X214410Y6586D01*
X214530Y7500D01*
X214410Y8414D01*
X214057Y9265D01*
X213496Y9996D01*
X212765Y10557D01*
X211914Y10910D01*
X211000Y11030D01*
X210086Y10910D01*
X209235Y10557D01*
X208504Y9996D01*
X207943Y9265D01*
X207590Y8414D01*
X207470Y7500D01*
X207480Y7425D01*
X207150Y7049D01*
X181521D01*
X181187Y7549D01*
X181410Y8086D01*
X181530Y9000D01*
X181410Y9914D01*
X181057Y10765D01*
X180496Y11496D01*
X179765Y12057D01*
X178914Y12410D01*
X178000Y12530D01*
X177086Y12410D01*
X176500Y12167D01*
X175914Y12410D01*
X175000Y12530D01*
X174086Y12410D01*
X173235Y12057D01*
X172640Y11601D01*
X172558Y11549D01*
X157556D01*
X153802Y15302D01*
X148549Y20556D01*
Y23378D01*
X155968D01*
X155968Y23378D01*
X156032D01*
Y23378D01*
X156468Y23378D01*
X163969D01*
X163969Y23378D01*
X164032D01*
Y23378D01*
X164469Y23378D01*
X171968D01*
X172031Y22904D01*
Y18032D01*
X179969D01*
Y19451D01*
X205558D01*
X205640Y19399D01*
X206235Y18943D01*
X207086Y18590D01*
X208000Y18470D01*
X208914Y18590D01*
X209500Y18833D01*
X210086Y18590D01*
X211000Y18470D01*
X211914Y18590D01*
X212765Y18943D01*
X213496Y19504D01*
X214057Y20235D01*
X214410Y21086D01*
X214530Y22000D01*
X214410Y22914D01*
X214057Y23765D01*
X213496Y24496D01*
X212765Y25057D01*
X211914Y25410D01*
X211000Y25530D01*
X210086Y25410D01*
X209500Y25167D01*
X208914Y25410D01*
X208007Y25529D01*
X207994Y25553D01*
X207861Y26016D01*
X208496Y26504D01*
X209057Y27235D01*
X209410Y28086D01*
X209530Y29000D01*
X209410Y29914D01*
X209057Y30765D01*
X208496Y31496D01*
X207765Y32057D01*
X206914Y32410D01*
X206000Y32530D01*
X205086Y32410D01*
X204235Y32057D01*
X203504Y31496D01*
X202943Y30765D01*
X202808Y30439D01*
X202586Y30410D01*
X201735Y30057D01*
X201140Y29601D01*
X201059Y29549D01*
X199309D01*
X199145Y30049D01*
X199542Y30566D01*
X199844Y31296D01*
X199947Y32079D01*
Y32181D01*
X200447Y32544D01*
X200858Y32489D01*
X201535Y32579D01*
X201842Y32706D01*
X202151Y32579D01*
X202827Y32489D01*
X203503Y32579D01*
X204133Y32840D01*
X204674Y33255D01*
X205090Y33796D01*
X205351Y34426D01*
X205440Y35102D01*
Y41008D01*
X205351Y41684D01*
X205090Y42314D01*
X204674Y42856D01*
X204135Y43270D01*
X204000Y43000D01*
Y43326D01*
X203503Y43532D01*
X202827Y43621D01*
X202151Y43532D01*
X201842Y43404D01*
X201535Y43532D01*
X200858Y43621D01*
X200182Y43532D01*
X199874Y43404D01*
X199566Y43532D01*
X199278Y43570D01*
Y47336D01*
X199496Y47504D01*
X200057Y48235D01*
X200410Y49086D01*
X200530Y50000D01*
X200410Y50914D01*
X200057Y51765D01*
X199496Y52496D01*
X199278Y52664D01*
Y64430D01*
X199566Y64468D01*
X199874Y64596D01*
X200182Y64468D01*
X200858Y64379D01*
X201535Y64468D01*
X201842Y64596D01*
X202151Y64468D01*
X202431Y64431D01*
X202468Y64151D01*
X202596Y63842D01*
X202468Y63534D01*
X202379Y62858D01*
X202468Y62182D01*
X202596Y61874D01*
X202468Y61566D01*
X202379Y60890D01*
X202468Y60214D01*
X202596Y59905D01*
X202468Y59597D01*
X202379Y58921D01*
X202468Y58245D01*
X202729Y57615D01*
X203145Y57074D01*
X203686Y56658D01*
X204316Y56397D01*
X204992Y56308D01*
X210898D01*
X211383Y56372D01*
X215516D01*
X215825Y55997D01*
X215639Y55549D01*
X211503D01*
X210898Y55629D01*
X204992D01*
X204316Y55540D01*
X203686Y55279D01*
X203145Y54863D01*
X203078Y54776D01*
X203134Y54720D01*
X202689Y54225D01*
X202468Y53692D01*
X202379Y53016D01*
X202468Y52340D01*
X202596Y52031D01*
X202468Y51723D01*
X202379Y51047D01*
X202468Y50371D01*
X202596Y50063D01*
X202468Y49755D01*
X202379Y49079D01*
X202468Y48403D01*
X202596Y48094D01*
X202468Y47787D01*
X202379Y47110D01*
X202381Y47096D01*
X202426Y47034D01*
X202567Y46863D01*
X202764Y46652D01*
X202884Y46531D01*
X202548Y46241D01*
X202729Y45804D01*
X203145Y45263D01*
X203632Y44889D01*
X203000Y46414D01*
X203533Y45905D01*
X203999Y45509D01*
X204207Y45354D01*
X204399Y45226D01*
X204574Y45127D01*
X204732Y45057D01*
X204875Y45014D01*
X205000Y45000D01*
X204764Y44527D01*
X204992Y44497D01*
X210898D01*
X210898Y44497D01*
X229198Y26198D01*
X230025Y25645D01*
X231000Y25451D01*
X239944D01*
X240032Y25364D01*
Y21032D01*
X247969D01*
Y28969D01*
X247969D01*
X247880Y29069D01*
X248003Y30000D01*
X247866Y31036D01*
X247466Y32001D01*
X247084Y32500D01*
X247466Y32999D01*
X247866Y33964D01*
X248003Y35000D01*
X247866Y36036D01*
X247466Y37001D01*
X247084Y37500D01*
X247466Y37999D01*
X247866Y38964D01*
X248003Y40000D01*
X247866Y41036D01*
X247466Y42001D01*
X247084Y42500D01*
X247466Y42999D01*
X247866Y43964D01*
X248003Y45000D01*
X247866Y46036D01*
X247466Y47001D01*
X247084Y47500D01*
X247466Y47999D01*
X247866Y48964D01*
X248003Y50000D01*
X247866Y51036D01*
X247466Y52001D01*
X247084Y52500D01*
X247466Y52999D01*
X247866Y53964D01*
X248003Y55000D01*
X247866Y56036D01*
X247466Y57001D01*
X247084Y57500D01*
X247466Y57999D01*
X247866Y58964D01*
X248003Y60000D01*
X247866Y61036D01*
X247466Y62001D01*
X247084Y62500D01*
X247466Y62999D01*
X247866Y63964D01*
X248003Y65000D01*
X247866Y66036D01*
X247466Y67001D01*
X246830Y67830D01*
X246001Y68467D01*
X245036Y68866D01*
X244000Y69003D01*
X242964Y68866D01*
X241999Y68467D01*
X241170Y67830D01*
X240954Y67549D01*
X231000D01*
X230129Y67376D01*
X214028D01*
X213782Y67876D01*
X214057Y68235D01*
X214410Y69086D01*
X214530Y70000D01*
X214410Y70914D01*
X214167Y71500D01*
X214410Y72086D01*
X214530Y73000D01*
X214410Y73914D01*
X214057Y74765D01*
X213496Y75496D01*
X212765Y76057D01*
X211914Y76410D01*
X211000Y76530D01*
X210086Y76410D01*
X209887Y76327D01*
X209454Y76577D01*
X209410Y76914D01*
X209167Y77500D01*
X209410Y78086D01*
X209530Y79000D01*
X209410Y79914D01*
X209057Y80765D01*
X208496Y81496D01*
X207765Y82057D01*
X206914Y82410D01*
X206000Y82530D01*
X205816Y82506D01*
X205440Y82836D01*
Y85008D01*
X205351Y85684D01*
X205090Y86314D01*
X204674Y86856D01*
X204133Y87271D01*
X203503Y87532D01*
X202827Y87621D01*
X202151Y87532D01*
X201842Y87404D01*
X201535Y87532D01*
X200858Y87621D01*
X200182Y87532D01*
X199874Y87404D01*
X199566Y87532D01*
X199278Y87570D01*
Y91336D01*
X199496Y91504D01*
X200057Y92235D01*
X200410Y93086D01*
X200530Y94000D01*
X200410Y94914D01*
X200057Y95765D01*
X199496Y96496D01*
X199278Y96664D01*
Y108430D01*
X199566Y108468D01*
X199874Y108596D01*
X200182Y108468D01*
X200858Y108379D01*
X201535Y108468D01*
X201842Y108596D01*
X202151Y108468D01*
X202431Y108431D01*
X202468Y108150D01*
X202596Y107843D01*
X202468Y107535D01*
X202379Y106858D01*
X202468Y106182D01*
X202596Y105874D01*
X202468Y105566D01*
X202379Y104890D01*
X202468Y104214D01*
X202596Y103905D01*
X202468Y103597D01*
X202379Y102921D01*
X202468Y102245D01*
X202729Y101615D01*
X203145Y101074D01*
X203686Y100658D01*
X204316Y100397D01*
X204992Y100308D01*
X210898D01*
X211383Y100372D01*
X230421D01*
X231397Y100566D01*
X232224Y101119D01*
X233556Y102451D01*
X239944D01*
X239960Y102436D01*
X239971Y102375D01*
X239982Y102288D01*
X239990Y102176D01*
X239993Y101990D01*
X240008Y101918D01*
X240134Y100964D01*
X240533Y99999D01*
X240916Y99500D01*
X240533Y99001D01*
X240134Y98036D01*
X239997Y97000D01*
X240044Y96648D01*
X238944Y95549D01*
X236587D01*
X233318Y98818D01*
X232491Y99371D01*
X231516Y99565D01*
X211383D01*
X210898Y99629D01*
X204992D01*
X204316Y99540D01*
X203686Y99279D01*
X203145Y98863D01*
X203078Y98776D01*
X203134Y98720D01*
X202689Y98225D01*
X202468Y97692D01*
X202379Y97016D01*
X202468Y96339D01*
X202596Y96031D01*
X202468Y95723D01*
X202379Y95047D01*
X202468Y94371D01*
X202596Y94063D01*
X202468Y93755D01*
X202379Y93079D01*
X202468Y92402D01*
X202596Y92094D01*
X202468Y91786D01*
X202379Y91110D01*
X202381Y91096D01*
X202426Y91034D01*
X202567Y90863D01*
X202764Y90652D01*
X202884Y90531D01*
X202548Y90241D01*
X202729Y89804D01*
X203145Y89263D01*
X203686Y88847D01*
X204316Y88586D01*
X204992Y88497D01*
X210898D01*
X211383Y88561D01*
X213334D01*
X223698Y78198D01*
X224524Y77645D01*
X225500Y77451D01*
X239944D01*
X240032Y77364D01*
Y73032D01*
X247969D01*
Y80968D01*
X247969D01*
X247880Y81069D01*
X248003Y82000D01*
X247866Y83036D01*
X247466Y84001D01*
X247084Y84500D01*
X247466Y84999D01*
X247866Y85964D01*
X248003Y87000D01*
X247866Y88036D01*
X247466Y89001D01*
X247084Y89500D01*
X247466Y89999D01*
X247866Y90964D01*
X248003Y92000D01*
X247866Y93036D01*
X247466Y94001D01*
X247084Y94500D01*
X247466Y94999D01*
X247866Y95964D01*
X248003Y97000D01*
X247866Y98036D01*
X247466Y99001D01*
X247084Y99500D01*
X247466Y99999D01*
X247866Y100964D01*
X248003Y102000D01*
X247866Y103036D01*
X247466Y104001D01*
X247084Y104500D01*
X247466Y104999D01*
X247866Y105964D01*
X248003Y107000D01*
X247866Y108036D01*
X247466Y109001D01*
X247084Y109500D01*
X247466Y109999D01*
X247866Y110964D01*
X248003Y112000D01*
X247866Y113036D01*
X247466Y114001D01*
X247084Y114500D01*
X247466Y114999D01*
X247866Y115964D01*
X248003Y117000D01*
X247866Y118036D01*
X247466Y119001D01*
X246830Y119830D01*
X246001Y120466D01*
X245036Y120866D01*
X244000Y121003D01*
X242964Y120866D01*
X241999Y120466D01*
X241170Y119830D01*
X240954Y119549D01*
X231000D01*
X230025Y119355D01*
X229198Y118802D01*
X221771Y111376D01*
X214028D01*
X213782Y111876D01*
X214057Y112235D01*
X214410Y113086D01*
X214530Y114000D01*
X214410Y114914D01*
X214167Y115500D01*
X214410Y116086D01*
X214530Y117000D01*
X214410Y117914D01*
X214057Y118765D01*
X213496Y119496D01*
X212765Y120057D01*
X211914Y120410D01*
X211000Y120530D01*
X210086Y120410D01*
X209887Y120327D01*
X209454Y120577D01*
X209410Y120914D01*
X209167Y121500D01*
X209410Y122086D01*
X209530Y123000D01*
X209410Y123914D01*
X209057Y124765D01*
X208496Y125496D01*
X207765Y126057D01*
X206914Y126410D01*
X206000Y126530D01*
X205086Y126410D01*
X204235Y126057D01*
X203504Y125496D01*
X202943Y124765D01*
X202590Y123914D01*
X202470Y123000D01*
X202480Y122925D01*
X202150Y122549D01*
X201900D01*
X200924Y122355D01*
X200098Y121802D01*
X199740Y121445D01*
X199278Y121636D01*
Y126541D01*
X199566Y126578D01*
X199874Y126706D01*
X200182Y126578D01*
X200858Y126489D01*
X201535Y126578D01*
X201842Y126706D01*
X202151Y126578D01*
X202827Y126489D01*
X203503Y126578D01*
X204133Y126839D01*
X204674Y127255D01*
X205090Y127796D01*
X205351Y128426D01*
X205440Y129102D01*
Y135008D01*
X205351Y135684D01*
X205090Y136314D01*
X204674Y136855D01*
X204135Y137269D01*
X204000Y137000D01*
Y137326D01*
X203503Y137532D01*
X202827Y137621D01*
X202151Y137532D01*
X201842Y137404D01*
X201535Y137532D01*
X200858Y137621D01*
X200182Y137532D01*
X199874Y137404D01*
X199566Y137532D01*
X199278Y137570D01*
Y141336D01*
X199496Y141504D01*
X200057Y142235D01*
X200410Y143086D01*
X200530Y144000D01*
X200410Y144914D01*
X200057Y145765D01*
X199496Y146496D01*
X199278Y146664D01*
Y158430D01*
X199566Y158468D01*
X199874Y158596D01*
X200182Y158468D01*
X200858Y158379D01*
X201535Y158468D01*
X201842Y158596D01*
X202151Y158468D01*
X202431Y158431D01*
X202468Y158150D01*
X202596Y157843D01*
X202468Y157535D01*
X202379Y156858D01*
X202468Y156182D01*
X202596Y155874D01*
X202468Y155566D01*
X202379Y154890D01*
X202468Y154214D01*
X202596Y153905D01*
X202468Y153597D01*
X202379Y152921D01*
X202468Y152245D01*
X202729Y151615D01*
X203145Y151074D01*
X203686Y150658D01*
X204316Y150397D01*
X204992Y150308D01*
X210898D01*
X211383Y150372D01*
X228421D01*
X229397Y150566D01*
X230224Y151119D01*
X233556Y154451D01*
X239944D01*
X239960Y154436D01*
X239971Y154375D01*
X239982Y154288D01*
X239990Y154176D01*
X239993Y153990D01*
X240008Y153918D01*
X240134Y152964D01*
X240533Y151999D01*
X240916Y151500D01*
X240533Y151001D01*
X240134Y150036D01*
X239997Y149000D01*
X240044Y148648D01*
X238944Y147549D01*
X237056D01*
X235787Y148818D01*
X234960Y149371D01*
X233984Y149565D01*
X211383D01*
X210898Y149629D01*
X204992D01*
X204316Y149540D01*
X203686Y149279D01*
X203145Y148863D01*
X203078Y148776D01*
X203134Y148720D01*
X202689Y148225D01*
X202468Y147692D01*
X202379Y147016D01*
X202468Y146339D01*
X202596Y146031D01*
X202468Y145723D01*
X202379Y145047D01*
X202468Y144371D01*
X202596Y144063D01*
X202468Y143755D01*
X202379Y143079D01*
X202468Y142403D01*
X202596Y142095D01*
X202468Y141787D01*
X202379Y141110D01*
X202381Y141096D01*
X202426Y141034D01*
X202567Y140863D01*
X202764Y140652D01*
X202884Y140531D01*
X202548Y140241D01*
X202729Y139804D01*
X203145Y139263D01*
X203632Y138889D01*
X203000Y140414D01*
X203533Y139905D01*
X203999Y139509D01*
X204207Y139354D01*
X204399Y139226D01*
X204574Y139127D01*
X204732Y139057D01*
X204875Y139014D01*
X205000Y139000D01*
X204764Y138527D01*
X204992Y138497D01*
X210898D01*
X210898Y138497D01*
X219198Y130198D01*
X220024Y129645D01*
X221000Y129451D01*
X239944D01*
X240032Y129364D01*
Y125031D01*
X247969D01*
Y132968D01*
X247969D01*
X247880Y133069D01*
X248003Y134000D01*
X247866Y135036D01*
X247466Y136001D01*
X247084Y136500D01*
X247466Y136999D01*
X247866Y137964D01*
X248003Y139000D01*
X247866Y140036D01*
X247466Y141001D01*
X247084Y141500D01*
X247466Y141999D01*
X247866Y142964D01*
X248003Y144000D01*
X247866Y145036D01*
X247466Y146001D01*
X247084Y146500D01*
X247466Y146999D01*
X247866Y147964D01*
X248003Y149000D01*
X247866Y150036D01*
X247466Y151001D01*
X247084Y151500D01*
X247466Y151999D01*
X247866Y152964D01*
X248003Y154000D01*
X247866Y155036D01*
X247466Y156001D01*
X247084Y156500D01*
X247466Y156999D01*
X247866Y157964D01*
X248003Y159000D01*
X247866Y160036D01*
X247466Y161001D01*
X247084Y161500D01*
X247466Y161999D01*
X247866Y162964D01*
X248003Y164000D01*
X247866Y165036D01*
X247466Y166001D01*
X247084Y166500D01*
X247466Y166999D01*
X247866Y167964D01*
X248003Y169000D01*
X247866Y170036D01*
X247466Y171001D01*
X246830Y171830D01*
X246001Y172467D01*
X245036Y172866D01*
X244000Y173003D01*
X242964Y172866D01*
X241999Y172467D01*
X241170Y171830D01*
X240954Y171549D01*
X231000D01*
X230025Y171355D01*
X229198Y170802D01*
X219771Y161376D01*
X214028D01*
X213782Y161876D01*
X214057Y162235D01*
X214410Y163086D01*
X214530Y164000D01*
X214410Y164914D01*
X214167Y165500D01*
X214410Y166086D01*
X214530Y167000D01*
X214410Y167914D01*
X214057Y168765D01*
X213496Y169496D01*
X212765Y170057D01*
X211914Y170410D01*
X211000Y170530D01*
X210086Y170410D01*
X209887Y170327D01*
X209454Y170577D01*
X209410Y170914D01*
X209167Y171500D01*
X209410Y172086D01*
X209530Y173000D01*
X209410Y173914D01*
X209057Y174765D01*
X208496Y175496D01*
X207765Y176057D01*
X206914Y176410D01*
X206000Y176530D01*
X205816Y176506D01*
X205440Y176836D01*
Y179008D01*
X205351Y179684D01*
X205090Y180314D01*
X204674Y180856D01*
X204234Y181194D01*
X204000Y181000D01*
Y181326D01*
X203503Y181532D01*
X202827Y181621D01*
X202151Y181532D01*
X201842Y181404D01*
X201535Y181532D01*
X200858Y181621D01*
X200182Y181532D01*
X199874Y181404D01*
X199566Y181532D01*
X199278Y181570D01*
Y185336D01*
X199496Y185504D01*
X200057Y186235D01*
X200410Y187086D01*
X200530Y188000D01*
X200410Y188914D01*
X200057Y189765D01*
X199496Y190496D01*
X199278Y190664D01*
Y202430D01*
X199566Y202468D01*
X199874Y202596D01*
X200182Y202468D01*
X200858Y202379D01*
X201535Y202468D01*
X201842Y202596D01*
X202151Y202468D01*
X202431Y202431D01*
X202468Y202151D01*
X202596Y201842D01*
X202468Y201535D01*
X202379Y200858D01*
X202468Y200182D01*
X202596Y199874D01*
X202468Y199566D01*
X202379Y198890D01*
X202468Y198214D01*
X202596Y197906D01*
X202468Y197598D01*
X202379Y196921D01*
X202468Y196245D01*
X202729Y195615D01*
X203145Y195074D01*
X203686Y194658D01*
X204316Y194397D01*
X204992Y194308D01*
X210898D01*
X211383Y194372D01*
X220421D01*
X220595Y194407D01*
X220841Y193946D01*
X220460Y193565D01*
X211383D01*
X210898Y193629D01*
X204992D01*
X204316Y193540D01*
X203686Y193279D01*
X203145Y192863D01*
X203078Y192776D01*
X203134Y192720D01*
X202689Y192225D01*
X202468Y191692D01*
X202379Y191016D01*
X202468Y190340D01*
X202596Y190032D01*
X202468Y189724D01*
X202379Y189047D01*
X202468Y188371D01*
X202596Y188063D01*
X202468Y187755D01*
X202379Y187079D01*
X202468Y186402D01*
X202596Y186094D01*
X202468Y185786D01*
X202379Y185110D01*
X202381Y185096D01*
X202426Y185034D01*
X202567Y184863D01*
X202764Y184652D01*
X202884Y184530D01*
X202548Y184241D01*
X202729Y183804D01*
X203145Y183263D01*
X203632Y182889D01*
X203000Y184414D01*
X203289Y184145D01*
X203589Y183905D01*
X203901Y183693D01*
X204225Y183509D01*
X204561Y183353D01*
X204908Y183226D01*
X205267Y183127D01*
X205638Y183057D01*
X206020Y183014D01*
X206414Y183000D01*
X205807Y182497D01*
X210898D01*
X211383Y182561D01*
X211834D01*
X212198Y182198D01*
X213024Y181645D01*
X214000Y181451D01*
X239944D01*
X240032Y181364D01*
Y177032D01*
X247969D01*
Y184968D01*
X247969D01*
X247880Y185069D01*
X248003Y186000D01*
X247866Y187036D01*
X247466Y188001D01*
X247084Y188500D01*
X247466Y188999D01*
X247866Y189964D01*
X248003Y191000D01*
X247866Y192036D01*
X247466Y193001D01*
X247084Y193500D01*
X247466Y193999D01*
X247866Y194964D01*
X248003Y196000D01*
X247866Y197036D01*
X247466Y198001D01*
X247084Y198500D01*
X247466Y198999D01*
X247866Y199964D01*
X248003Y201000D01*
X247866Y202036D01*
X247466Y203001D01*
X247084Y203500D01*
X247466Y203999D01*
X247866Y204964D01*
X248003Y206000D01*
X247866Y207036D01*
X247466Y208001D01*
X247084Y208500D01*
X247466Y208999D01*
X247866Y209964D01*
X248003Y211000D01*
X247866Y212036D01*
X247466Y213001D01*
X247084Y213500D01*
X247466Y213999D01*
X247866Y214964D01*
X248003Y216000D01*
X247866Y217036D01*
X247466Y218001D01*
X247084Y218500D01*
X247466Y218999D01*
X247866Y219964D01*
X248003Y221000D01*
X247866Y222036D01*
X247466Y223001D01*
X246830Y223830D01*
X246001Y224466D01*
X245036Y224866D01*
X244000Y225003D01*
X242964Y224866D01*
X241999Y224466D01*
X241170Y223830D01*
X240954Y223549D01*
X231000D01*
X230025Y223355D01*
X229198Y222802D01*
X214914Y208519D01*
X214441Y208680D01*
X214410Y208914D01*
X214167Y209500D01*
X214410Y210086D01*
X214530Y211000D01*
X214410Y211914D01*
X214057Y212765D01*
X213496Y213496D01*
X212765Y214057D01*
X211914Y214410D01*
X211000Y214530D01*
X210086Y214410D01*
X209887Y214327D01*
X209454Y214577D01*
X209410Y214914D01*
X209167Y215500D01*
X209410Y216086D01*
X209530Y217000D01*
X209410Y217914D01*
X209057Y218765D01*
X208496Y219496D01*
X207765Y220057D01*
X206914Y220410D01*
X206000Y220530D01*
X205086Y220410D01*
X204235Y220057D01*
X203504Y219496D01*
X202943Y218765D01*
X202590Y217914D01*
X202470Y217000D01*
X202525Y216578D01*
X202500Y216549D01*
X201524Y216355D01*
X200698Y215802D01*
X199714Y214819D01*
X199642Y214849D01*
X199268Y215079D01*
X199166Y215848D01*
X198839Y216639D01*
X198318Y217318D01*
X197318Y218318D01*
X196639Y218839D01*
X195848Y219166D01*
X195424Y219222D01*
X195000Y219278D01*
X185800D01*
X184952Y219166D01*
X184186Y218849D01*
X175718Y227318D01*
X175039Y227839D01*
X174248Y228166D01*
X173824Y228222D01*
X173400Y228278D01*
X161494D01*
X161410Y228914D01*
X161057Y229765D01*
X160496Y230496D01*
X159765Y231057D01*
X158914Y231410D01*
X158000Y231530D01*
X157086Y231410D01*
X156768Y231278D01*
X156232D01*
X155914Y231410D01*
X155000Y231530D01*
X154086Y231410D01*
X153235Y231057D01*
X152504Y230496D01*
X151943Y229765D01*
X151590Y228914D01*
X151470Y228000D01*
X151590Y227086D01*
X151722Y226768D01*
Y226232D01*
X151590Y225914D01*
X151470Y225000D01*
X151590Y224086D01*
X151943Y223235D01*
X152504Y222504D01*
X153235Y221943D01*
X154086Y221590D01*
X155000Y221470D01*
X155914Y221590D01*
X156232Y221722D01*
X156768D01*
X157086Y221590D01*
X158000Y221470D01*
X158914Y221590D01*
X159232Y221722D01*
X172042D01*
X179872Y213892D01*
X179783Y213313D01*
X179509Y213163D01*
X178914Y213410D01*
X178000Y213530D01*
X177086Y213410D01*
X176235Y213057D01*
X175504Y212496D01*
X174943Y211765D01*
X174590Y210914D01*
X174470Y210000D01*
X174590Y209086D01*
X174833Y208500D01*
X174590Y207914D01*
X174470Y207000D01*
X174590Y206086D01*
X174686Y205855D01*
X174408Y205440D01*
X173102D01*
X172617Y205376D01*
X165827D01*
X164851Y205182D01*
X164024Y204629D01*
X147482Y188086D01*
X147020Y188278D01*
Y191134D01*
X146779D01*
X146596Y191634D01*
X147057Y192235D01*
X147410Y193086D01*
X147530Y194000D01*
X147410Y194914D01*
X147057Y195765D01*
X147055Y195768D01*
X147036Y196126D01*
X147026Y196167D01*
Y197000D01*
X146923Y197783D01*
X146621Y198513D01*
X146430Y198761D01*
X146410Y198914D01*
X146057Y199765D01*
X145496Y200496D01*
X144765Y201057D01*
X143914Y201410D01*
X143000Y201530D01*
X142086Y201410D01*
X141500Y201167D01*
X140914Y201410D01*
X140000Y201530D01*
X139086Y201410D01*
X138500Y201167D01*
X137914Y201410D01*
X137000Y201530D01*
X136086Y201410D01*
X135235Y201057D01*
X134504Y200496D01*
X133943Y199765D01*
X133590Y198914D01*
X133470Y198000D01*
X133590Y197086D01*
X133943Y196235D01*
X133945Y196232D01*
X133964Y195874D01*
X133974Y195833D01*
Y195000D01*
X134061Y194340D01*
X133760Y194040D01*
X133280Y193413D01*
X132977Y192683D01*
X132874Y191900D01*
Y53000D01*
X132977Y52217D01*
X133280Y51487D01*
X133760Y50860D01*
X134387Y50380D01*
X135112Y50079D01*
X136245Y48946D01*
X136147Y48456D01*
X135971Y48383D01*
X135134Y47740D01*
X134491Y46903D01*
X134087Y45928D01*
X133950Y44882D01*
X134087Y43836D01*
X134491Y42861D01*
X135134Y42024D01*
X135971Y41381D01*
X136946Y40977D01*
X137992Y40839D01*
X139038Y40977D01*
X140013Y41381D01*
X140851Y42024D01*
X141493Y42861D01*
X141566Y43037D01*
X142057Y43135D01*
X145798Y39394D01*
X145798Y39394D01*
X146341Y38977D01*
X146973Y38715D01*
X147652Y38626D01*
X148031Y38311D01*
Y30882D01*
Y29797D01*
X146808D01*
X140302Y36302D01*
X139476Y36855D01*
X138500Y37049D01*
X125556D01*
X113586Y49019D01*
X113579Y49029D01*
X113569Y49046D01*
X113562Y49061D01*
X113557Y49077D01*
X113551Y49096D01*
X113549Y49108D01*
Y52095D01*
X122689D01*
Y56032D01*
Y59969D01*
Y63906D01*
Y67843D01*
Y69811D01*
Y73748D01*
Y78929D01*
Y83591D01*
Y87528D01*
Y91465D01*
Y95402D01*
Y99339D01*
Y103276D01*
Y107213D01*
Y112394D01*
X112980D01*
Y112352D01*
X112303D01*
X111328Y112158D01*
X110501Y111606D01*
X110271Y111376D01*
X87383D01*
X86898Y111440D01*
X81440D01*
Y113528D01*
X81914Y113590D01*
X82765Y113943D01*
X83496Y114504D01*
X84057Y115235D01*
X84410Y116086D01*
X84530Y117000D01*
X84481Y117372D01*
X84878Y117676D01*
X85086Y117590D01*
X86000Y117470D01*
X86914Y117590D01*
X87765Y117943D01*
X88496Y118504D01*
X89057Y119235D01*
X89410Y120086D01*
X89530Y121000D01*
X89410Y121914D01*
X89167Y122500D01*
X89410Y123086D01*
X89530Y124000D01*
X89410Y124914D01*
X89057Y125765D01*
X88496Y126496D01*
X87765Y127057D01*
X86914Y127410D01*
X86000Y127530D01*
X85086Y127410D01*
X84235Y127057D01*
X83640Y126601D01*
X83558Y126549D01*
X80576D01*
X80406Y127049D01*
X80674Y127255D01*
X81090Y127796D01*
X81351Y128426D01*
X81440Y129102D01*
Y135008D01*
X81351Y135684D01*
X81090Y136314D01*
X80674Y136855D01*
X80211Y137211D01*
X80000Y137000D01*
Y137326D01*
X79503Y137532D01*
X78827Y137621D01*
X78150Y137532D01*
X77842Y137404D01*
X77535Y137532D01*
X76858Y137621D01*
X76182Y137532D01*
X75874Y137404D01*
X75566Y137532D01*
X75278Y137570D01*
Y141336D01*
X75496Y141504D01*
X76057Y142235D01*
X76410Y143086D01*
X76530Y144000D01*
X76410Y144914D01*
X76057Y145765D01*
X75496Y146496D01*
X75278Y146664D01*
Y158430D01*
X75566Y158468D01*
X75874Y158596D01*
X76182Y158468D01*
X76858Y158379D01*
X77535Y158468D01*
X77842Y158596D01*
X78150Y158468D01*
X78431Y158431D01*
X78468Y158150D01*
X78596Y157843D01*
X78468Y157535D01*
X78379Y156858D01*
X78468Y156182D01*
X78596Y155874D01*
X78468Y155566D01*
X78379Y154890D01*
X78468Y154214D01*
X78596Y153905D01*
X78468Y153597D01*
X78379Y152921D01*
X78468Y152245D01*
X78729Y151615D01*
X79145Y151074D01*
X79686Y150658D01*
X80316Y150397D01*
X80992Y150308D01*
X86898D01*
X87383Y150372D01*
X107203D01*
X107284Y150254D01*
X107020Y149754D01*
X88605D01*
X87655Y149565D01*
X87383D01*
X86898Y149629D01*
X80992D01*
X80702Y149590D01*
X81414Y149000D01*
X81020Y148986D01*
X80638Y148943D01*
X80267Y148873D01*
X79908Y148774D01*
X79561Y148646D01*
X79225Y148491D01*
X78901Y148307D01*
X78653Y148138D01*
X78468Y147692D01*
X78379Y147016D01*
X78468Y146339D01*
X78596Y146031D01*
X78468Y145723D01*
X78379Y145047D01*
X78468Y144371D01*
X78596Y144063D01*
X78468Y143755D01*
X78379Y143079D01*
X78468Y142403D01*
X78596Y142095D01*
X78468Y141787D01*
X78379Y141110D01*
X78381Y141096D01*
X78426Y141034D01*
X78567Y140863D01*
X78764Y140652D01*
X78884Y140531D01*
X78548Y140241D01*
X78729Y139804D01*
X79145Y139263D01*
X79632Y138889D01*
X79000Y140414D01*
X79285Y140146D01*
X79573Y139905D01*
X79864Y139693D01*
X80159Y139509D01*
X80457Y139354D01*
X80759Y139226D01*
X81064Y139127D01*
X81373Y139057D01*
X81685Y139014D01*
X82000Y139000D01*
X81497Y138497D01*
X86898D01*
X87383Y138561D01*
X107334D01*
X108367Y137528D01*
X109194Y136976D01*
X110169Y136782D01*
X112980D01*
Y132803D01*
Y128866D01*
X122689D01*
Y132803D01*
Y136740D01*
Y140677D01*
Y144614D01*
Y148551D01*
Y152488D01*
Y156425D01*
Y160362D01*
Y164299D01*
Y169480D01*
Y174142D01*
Y178079D01*
Y182016D01*
Y185953D01*
Y191134D01*
X112980D01*
Y188278D01*
X112518Y188086D01*
X95976Y204629D01*
X95149Y205182D01*
X94173Y205376D01*
X87383D01*
X86898Y205440D01*
X81440D01*
Y207528D01*
X81914Y207590D01*
X82765Y207943D01*
X83496Y208504D01*
X84057Y209235D01*
X84410Y210086D01*
X84530Y211000D01*
X84481Y211372D01*
X84878Y211676D01*
X85086Y211590D01*
X86000Y211470D01*
X86914Y211590D01*
X87765Y211943D01*
X88496Y212504D01*
X89057Y213235D01*
X89410Y214086D01*
X89530Y215000D01*
X89410Y215914D01*
X89167Y216500D01*
X89410Y217086D01*
X89530Y218000D01*
X89410Y218914D01*
X89057Y219765D01*
X88496Y220496D01*
X87765Y221057D01*
X87367Y221222D01*
X87467Y221722D01*
X103768D01*
X104086Y221590D01*
X105000Y221470D01*
X105914Y221590D01*
X106232Y221722D01*
X106768D01*
X107086Y221590D01*
X108000Y221470D01*
X108914Y221590D01*
X109765Y221943D01*
X110496Y222504D01*
X111057Y223235D01*
X111410Y224086D01*
X111530Y225000D01*
X111410Y225914D01*
X111278Y226232D01*
Y226768D01*
X111410Y227086D01*
X111530Y228000D01*
X111410Y228914D01*
X111057Y229765D01*
X110496Y230496D01*
X109765Y231057D01*
X108914Y231410D01*
X108000Y231530D01*
X107086Y231410D01*
X106768Y231278D01*
X106232D01*
X105914Y231410D01*
X105000Y231530D01*
X104086Y231410D01*
X103235Y231057D01*
X102504Y230496D01*
X101943Y229765D01*
X101590Y228914D01*
X101506Y228278D01*
X80000D01*
X79576Y228222D01*
X79152Y228166D01*
X78361Y227839D01*
X77682Y227318D01*
X70642Y220278D01*
X62300D01*
X61876Y220222D01*
X61452Y220166D01*
X60661Y219839D01*
X59982Y219318D01*
X57782Y217118D01*
X57261Y216439D01*
X56934Y215648D01*
X56878Y215224D01*
X56822Y214800D01*
Y213464D01*
X56497Y213422D01*
X55867Y213160D01*
X55744Y213066D01*
X54914Y213410D01*
X54000Y213530D01*
X53086Y213410D01*
X52235Y213057D01*
X51504Y212496D01*
X50943Y211765D01*
X50590Y210914D01*
X50470Y210000D01*
X50590Y209086D01*
X50833Y208500D01*
X50590Y207914D01*
X50470Y207000D01*
X50590Y206086D01*
X50686Y205855D01*
X50408Y205440D01*
X49165D01*
X48549Y206056D01*
Y216000D01*
X48355Y216975D01*
X47802Y217802D01*
X22552Y243052D01*
X21725Y243605D01*
X20968Y243756D01*
Y246969D01*
D02*
G37*
G36*
X54345Y99629D02*
X49102D01*
X48617Y99565D01*
X39016D01*
X38040Y99371D01*
X37213Y98818D01*
X29944Y91549D01*
X20046D01*
X19830Y91830D01*
X19001Y92466D01*
X18036Y92866D01*
X17000Y93003D01*
X15964Y92866D01*
X14999Y92466D01*
X14170Y91830D01*
X13533Y91001D01*
X13134Y90036D01*
X12997Y89000D01*
X13134Y87964D01*
X13533Y86999D01*
X13916Y86500D01*
X13533Y86001D01*
X13134Y85036D01*
X12997Y84000D01*
X13134Y82964D01*
X13533Y81999D01*
X13916Y81500D01*
X13533Y81001D01*
X13134Y80036D01*
X12997Y79000D01*
X13134Y77964D01*
X13533Y76999D01*
X13916Y76500D01*
X13533Y76001D01*
X13134Y75036D01*
X12997Y74000D01*
X13134Y72964D01*
X13533Y71999D01*
X14170Y71170D01*
X14999Y70534D01*
X15964Y70134D01*
X17000Y69997D01*
X18036Y70134D01*
X19001Y70534D01*
X19830Y71170D01*
X20467Y71999D01*
X20866Y72964D01*
X20992Y73918D01*
X21007Y73990D01*
X21010Y74176D01*
X21018Y74288D01*
X21029Y74375D01*
X21040Y74436D01*
X21056Y74451D01*
X32500D01*
X33476Y74645D01*
X34302Y75198D01*
X47666Y88561D01*
X48617D01*
X49102Y88497D01*
X55008D01*
X55684Y88586D01*
X56314Y88847D01*
X56855Y89263D01*
X57271Y89804D01*
X57532Y90434D01*
X57621Y91110D01*
X57532Y91786D01*
X57404Y92094D01*
X57532Y92402D01*
X57621Y93079D01*
X57532Y93755D01*
X57404Y94063D01*
X57532Y94371D01*
X57621Y95047D01*
X57532Y95723D01*
X57404Y96031D01*
X57532Y96339D01*
X57621Y97016D01*
X57607Y97122D01*
X57500Y97015D01*
X57494Y97035D01*
X57475Y97066D01*
X57443Y97108D01*
X57342Y97226D01*
X56988Y97597D01*
X56711Y97855D01*
X56411Y98095D01*
X56099Y98307D01*
X55775Y98491D01*
X55439Y98646D01*
X55092Y98774D01*
X54733Y98873D01*
X54362Y98943D01*
X53980Y98986D01*
X53586Y99000D01*
X54345Y99629D01*
D02*
G37*
%LPD*%
G36*
X18956Y242155D02*
X18987Y242070D01*
X19038Y241995D01*
X19109Y241930D01*
X19200Y241875D01*
X19311Y241830D01*
X19443Y241795D01*
X19594Y241770D01*
X19765Y241755D01*
X19956Y241750D01*
Y240750D01*
X18957Y241043D01*
X18945Y242250D01*
X18956Y242155D01*
D02*
G37*
G36*
X17830Y239803D02*
X18828Y239560D01*
X18999Y239534D01*
X19313Y239504D01*
X19456Y239500D01*
X20000Y238500D01*
X19836Y238490D01*
X19685Y238461D01*
X19546Y238412D01*
X19419Y238344D01*
X19304Y238257D01*
X19201Y238150D01*
X19110Y238023D01*
X19031Y237877D01*
X18965Y237712D01*
X18911Y237527D01*
X17602Y239874D01*
X17830Y239803D01*
D02*
G37*
G36*
X71249Y217728D02*
X71329Y217700D01*
X71456Y217664D01*
X71586Y217636D01*
X71720Y217616D01*
X71858Y217604D01*
X72000Y217600D01*
Y216400D01*
X71858Y216396D01*
X71720Y216384D01*
X71586Y216364D01*
X71456Y216336D01*
X71329Y216300D01*
X71249Y216272D01*
Y216001D01*
X71141Y216076D01*
X71029Y216144D01*
X71000Y216159D01*
X70971Y216144D01*
X70859Y216076D01*
X70751Y216001D01*
Y216272D01*
X70671Y216300D01*
X70544Y216336D01*
X70414Y216364D01*
X70280Y216384D01*
X70142Y216396D01*
X70000Y216400D01*
Y217600D01*
X70142Y217604D01*
X70280Y217616D01*
X70414Y217636D01*
X70544Y217664D01*
X70671Y217700D01*
X70751Y217728D01*
Y218000D01*
X70859Y217924D01*
X70971Y217856D01*
X71000Y217841D01*
X71029Y217856D01*
X71141Y217924D01*
X71249Y218000D01*
Y217728D01*
D02*
G37*
G36*
X84929Y216950D02*
X84819Y217055D01*
X84707Y217148D01*
X84591Y217231D01*
X84471Y217302D01*
X84348Y217362D01*
X84223Y217412D01*
X84093Y217450D01*
X83961Y217478D01*
X83825Y217495D01*
X83686Y217500D01*
Y218500D01*
X83825Y218506D01*
X83961Y218522D01*
X84093Y218549D01*
X84223Y218588D01*
X84348Y218637D01*
X84471Y218698D01*
X84591Y218770D01*
X84707Y218852D01*
X84819Y218946D01*
X84929Y219050D01*
Y216950D01*
D02*
G37*
G36*
X194249Y216738D02*
X194352Y216700D01*
X194476Y216664D01*
X194602Y216636D01*
X194732Y216616D01*
X194864Y216604D01*
X195000Y216600D01*
Y215400D01*
X194864Y215396D01*
X194732Y215384D01*
X194602Y215364D01*
X194476Y215336D01*
X194352Y215300D01*
X194249Y215262D01*
Y215001D01*
X194141Y215077D01*
X194030Y215145D01*
X194016Y215152D01*
X194001Y215145D01*
X193890Y215077D01*
X193783Y215001D01*
Y215262D01*
X193679Y215300D01*
X193556Y215336D01*
X193429Y215364D01*
X193300Y215384D01*
X193167Y215396D01*
X193032Y215400D01*
Y216600D01*
X193167Y216604D01*
X193300Y216616D01*
X193429Y216636D01*
X193556Y216664D01*
X193679Y216700D01*
X193783Y216738D01*
Y216999D01*
X193890Y216923D01*
X194001Y216855D01*
X194016Y216848D01*
X194030Y216855D01*
X194141Y216923D01*
X194249Y216999D01*
Y216738D01*
D02*
G37*
G36*
X206205Y215791D02*
X206650Y215648D01*
X206537Y215591D01*
X206353Y215486D01*
X206361Y215478D01*
X206395Y215458D01*
X206436Y215438D01*
X206486Y215419D01*
X206171Y215367D01*
X205891Y215157D01*
X205788Y215070D01*
X205775Y215057D01*
X205691Y214953D01*
X205625Y214846D01*
X205589Y214755D01*
X205582Y214677D01*
X205606Y214613D01*
X205659Y214564D01*
X205743Y214528D01*
X205856Y214507D01*
X206000Y214500D01*
X204929Y213964D01*
Y212950D01*
X204819Y213054D01*
X204707Y213148D01*
X204591Y213230D01*
X204471Y213302D01*
X204348Y213363D01*
X204222Y213412D01*
X204093Y213451D01*
X203961Y213478D01*
X203825Y213494D01*
X203686Y213500D01*
Y213760D01*
X202793Y214500D01*
X202990Y214507D01*
X203181Y214528D01*
X203366Y214564D01*
X203546Y214613D01*
X203720Y214677D01*
X203887Y214755D01*
X204049Y214846D01*
X204205Y214953D01*
X204356Y215073D01*
X204477Y215186D01*
X204559Y215275D01*
X204641Y215384D01*
X204706Y215493D01*
X204754Y215603D01*
X204785Y215714D01*
X204799Y215826D01*
X204796Y215938D01*
X204776Y216052D01*
X204739Y216165D01*
X204684Y216280D01*
X205456Y216032D01*
X205636Y216343D01*
X206205Y215791D01*
D02*
G37*
G36*
X242294Y218425D02*
X242430Y218327D01*
X242578Y218241D01*
X242739Y218166D01*
X242914Y218104D01*
X243101Y218053D01*
X243301Y218014D01*
X243515Y217987D01*
X243741Y217972D01*
X243980Y217968D01*
X242032Y216020D01*
X242028Y216259D01*
X242013Y216485D01*
X241986Y216699D01*
X241947Y216899D01*
X241896Y217086D01*
X241833Y217261D01*
X241759Y217422D01*
X241673Y217570D01*
X241575Y217706D01*
X241465Y217828D01*
X242172Y218535D01*
X242294Y218425D01*
D02*
G37*
G36*
X86506Y217175D02*
X86522Y217039D01*
X86545Y216929D01*
X87050D01*
X86945Y216819D01*
X86852Y216707D01*
X86769Y216590D01*
X86715Y216500D01*
X86769Y216409D01*
X86852Y216293D01*
X86945Y216181D01*
X87050Y216071D01*
X86545D01*
X86522Y215961D01*
X86506Y215825D01*
X86500Y215686D01*
X85500D01*
X85495Y215825D01*
X85478Y215961D01*
X85455Y216071D01*
X84950D01*
X85054Y216181D01*
X85148Y216293D01*
X85230Y216409D01*
X85285Y216500D01*
X85230Y216590D01*
X85148Y216707D01*
X85054Y216819D01*
X84950Y216929D01*
X85455D01*
X85478Y217039D01*
X85495Y217175D01*
X85500Y217314D01*
X86500D01*
X86506Y217175D01*
D02*
G37*
G36*
X70001Y215750D02*
X69907Y215733D01*
X69787Y215681D01*
X69641Y215595D01*
X69468Y215475D01*
X69045Y215132D01*
X68515Y214651D01*
X67881Y214033D01*
X67033Y214881D01*
X67359Y215211D01*
X68475Y216468D01*
X68595Y216641D01*
X68681Y216787D01*
X68733Y216907D01*
X68750Y217001D01*
X70001Y215750D01*
D02*
G37*
G36*
X193161Y214757D02*
X193039Y214734D01*
X192905Y214689D01*
X192761Y214623D01*
X192605Y214536D01*
X192438Y214427D01*
X192261Y214297D01*
X191872Y213971D01*
X191440Y213560D01*
X190592Y214408D01*
X190808Y214630D01*
X191328Y215229D01*
X191458Y215407D01*
X191567Y215573D01*
X191655Y215729D01*
X191721Y215874D01*
X191765Y216007D01*
X191788Y216130D01*
X193161Y214757D01*
D02*
G37*
G36*
X80472Y213013D02*
X80478Y213039D01*
X80494Y213175D01*
X80500Y213314D01*
X81500D01*
X81506Y213175D01*
X81522Y213039D01*
X81545Y212929D01*
X82050D01*
X81946Y212819D01*
X81852Y212707D01*
X81770Y212591D01*
X81715Y212500D01*
X81770Y212409D01*
X81852Y212293D01*
X81946Y212181D01*
X82050Y212071D01*
X81545D01*
X81522Y211961D01*
X81506Y211825D01*
X81500Y211686D01*
X80500D01*
X80494Y211825D01*
X80478Y211961D01*
X80455Y212071D01*
X80154D01*
X79587Y211504D01*
X79593Y211537D01*
X79589Y211575D01*
X79574Y211620D01*
X79550Y211670D01*
X79516Y211726D01*
X79472Y211789D01*
X79418Y211857D01*
X79280Y212011D01*
X79197Y212097D01*
X79414Y212314D01*
X79010Y212717D01*
X79105Y212819D01*
X79189Y212927D01*
X79263Y213040D01*
X79327Y213159D01*
X79381Y213283D01*
X79425Y213412D01*
X79459Y213547D01*
X79483Y213688D01*
X79497Y213834D01*
X79500Y213985D01*
X80472Y213013D01*
D02*
G37*
G36*
X18966Y213288D02*
X19035Y213123D01*
X19118Y212977D01*
X19214Y212850D01*
X19325Y212743D01*
X19449Y212656D01*
X19587Y212588D01*
X19739Y212539D01*
X19905Y212510D01*
X20085Y212500D01*
X19456Y211500D01*
X19313Y211496D01*
X18999Y211466D01*
X18828Y211440D01*
X18258Y211317D01*
X17830Y211197D01*
X17602Y211126D01*
X18911Y213473D01*
X18966Y213288D01*
D02*
G37*
G36*
X201400Y212128D02*
X201403Y211123D01*
X200313D01*
X200330Y211158D01*
X200344Y211210D01*
X200358Y211280D01*
X200369Y211366D01*
X200386Y211592D01*
X200400Y212253D01*
X201400Y212128D01*
D02*
G37*
G36*
X77328Y212047D02*
X77376Y211205D01*
X77389Y211155D01*
X77403Y211123D01*
X76313D01*
X76316Y211137D01*
X76318Y211171D01*
X76326Y211632D01*
X76327Y212143D01*
X77327Y212238D01*
X77328Y212047D01*
D02*
G37*
G36*
X211121Y209824D02*
X211675Y209660D01*
X211573Y209607D01*
X211369Y209484D01*
X211347Y209468D01*
X211353Y209464D01*
X211377Y209454D01*
X211405Y209444D01*
X211269Y209415D01*
X211268Y209415D01*
X210961Y209176D01*
X210859Y209087D01*
X210795Y209026D01*
X210787Y209018D01*
X210689Y208897D01*
X210620Y208791D01*
X210580Y208699D01*
X210568Y208622D01*
X210586Y208558D01*
X210632Y208508D01*
X210708Y208473D01*
X210812Y208452D01*
X210945Y208445D01*
X209931Y207924D01*
X209968Y206911D01*
X209854Y207013D01*
X209737Y207103D01*
X209618Y207183D01*
X209496Y207253D01*
X209371Y207312D01*
X209244Y207360D01*
X209114Y207397D01*
X208980Y207423D01*
X208845Y207439D01*
X208706Y207445D01*
X208697Y207696D01*
X207793Y208445D01*
X207990Y208452D01*
X208181Y208473D01*
X208366Y208508D01*
X208546Y208558D01*
X208720Y208622D01*
X208887Y208699D01*
X209049Y208791D01*
X209205Y208897D01*
X209356Y209018D01*
X209495Y209148D01*
X209591Y209252D01*
X209673Y209360D01*
X209738Y209470D01*
X209786Y209579D01*
X209816Y209688D01*
X209828Y209798D01*
X209824Y209909D01*
X209802Y210019D01*
X209763Y210130D01*
X209706Y210241D01*
X210475Y210014D01*
X210647Y210298D01*
X211121Y209824D01*
D02*
G37*
G36*
X19354Y209647D02*
X19243Y209528D01*
X19146Y209411D01*
X19065Y209294D01*
X18998Y209177D01*
X18946Y209061D01*
X18909Y208945D01*
X18886Y208830D01*
X18879Y208716D01*
X18885Y208602D01*
X18907Y208488D01*
X17488Y209907D01*
X17602Y209885D01*
X17716Y209878D01*
X17830Y209886D01*
X17945Y209909D01*
X18061Y209946D01*
X18177Y209998D01*
X18294Y210065D01*
X18411Y210146D01*
X18528Y210243D01*
X18646Y210353D01*
X19354Y209647D01*
D02*
G37*
G36*
X242594Y209622D02*
X242423Y209789D01*
X242252Y209938D01*
X242082Y210070D01*
X241912Y210184D01*
X241744Y210280D01*
X241577Y210360D01*
X241410Y210421D01*
X241244Y210465D01*
X241079Y210491D01*
X240915Y210500D01*
Y211500D01*
X241079Y211509D01*
X241244Y211535D01*
X241410Y211579D01*
X241577Y211641D01*
X241744Y211719D01*
X241912Y211816D01*
X242082Y211930D01*
X242252Y212062D01*
X242423Y212211D01*
X242594Y212378D01*
Y209622D01*
D02*
G37*
G36*
X203912Y208488D02*
X204052Y208465D01*
X204224Y208450D01*
X204417Y208445D01*
Y207445D01*
X204224Y207440D01*
X204052Y207425D01*
X203901Y207400D01*
X203769Y207365D01*
X203762Y207362D01*
X203412Y207012D01*
X203405Y206945D01*
Y207005D01*
X203400Y207000D01*
Y209000D01*
X203912Y208488D01*
D02*
G37*
G36*
X242294Y208425D02*
X242430Y208327D01*
X242578Y208241D01*
X242739Y208167D01*
X242914Y208104D01*
X243101Y208053D01*
X243301Y208014D01*
X243515Y207987D01*
X243741Y207972D01*
X243980Y207968D01*
X242032Y206020D01*
X242028Y206259D01*
X242013Y206485D01*
X241986Y206699D01*
X241947Y206899D01*
X241896Y207086D01*
X241833Y207261D01*
X241759Y207422D01*
X241673Y207570D01*
X241575Y207706D01*
X241465Y207828D01*
X242172Y208535D01*
X242294Y208425D01*
D02*
G37*
G36*
X188393Y207945D02*
X188403Y207872D01*
Y204992D01*
X188492Y204316D01*
X188753Y203686D01*
X189168Y203145D01*
X189237Y203091D01*
X189280Y203134D01*
X189748Y202713D01*
X190340Y202468D01*
X191016Y202379D01*
X191692Y202468D01*
X192000Y202596D01*
X192308Y202468D01*
X192722Y202414D01*
Y191259D01*
X192235Y191057D01*
X191504Y190496D01*
X190943Y189765D01*
X190590Y188914D01*
X190470Y188000D01*
X190590Y187086D01*
X190943Y186235D01*
X191504Y185504D01*
X192235Y184943D01*
X192722Y184741D01*
Y181586D01*
X192308Y181532D01*
X192000Y181404D01*
X191692Y181532D01*
X191016Y181621D01*
X190340Y181532D01*
X190032Y181404D01*
X189724Y181532D01*
X189047Y181621D01*
X188371Y181532D01*
X188063Y181404D01*
X187755Y181532D01*
X187079Y181621D01*
X186402Y181532D01*
X186094Y181404D01*
X185786Y181532D01*
X185110Y181621D01*
X184434Y181532D01*
X183804Y181271D01*
X183263Y180856D01*
X182847Y180314D01*
X182586Y179684D01*
X182497Y179008D01*
Y173102D01*
X182586Y172426D01*
X182838Y171818D01*
X181960Y170940D01*
X181480Y170313D01*
X181177Y169583D01*
X181168Y169510D01*
X180497Y169422D01*
X179867Y169160D01*
X179744Y169066D01*
X178914Y169410D01*
X178000Y169530D01*
X177086Y169410D01*
X176235Y169057D01*
X175504Y168496D01*
X174943Y167765D01*
X174590Y166914D01*
X174470Y166000D01*
X174590Y165086D01*
X174833Y164500D01*
X174590Y163914D01*
X174470Y163000D01*
X174590Y162086D01*
X174686Y161855D01*
X174408Y161440D01*
X173102D01*
X172563Y161369D01*
X172560Y161371D01*
X171584Y161565D01*
X152323D01*
X152131Y162027D01*
X172660Y182555D01*
X173102Y182497D01*
X179008D01*
X179684Y182586D01*
X180314Y182847D01*
X180856Y183263D01*
X181271Y183804D01*
X181532Y184434D01*
X181621Y185110D01*
X181532Y185786D01*
X181404Y186094D01*
X181532Y186402D01*
X181621Y187079D01*
X181532Y187755D01*
X181404Y188063D01*
X181532Y188371D01*
X181621Y189047D01*
X181532Y189724D01*
X181404Y190032D01*
X181532Y190340D01*
X181621Y191016D01*
X181607Y191122D01*
X181500Y191015D01*
X181494Y191035D01*
X181475Y191066D01*
X181443Y191108D01*
X181342Y191226D01*
X180986Y191598D01*
X180984Y191601D01*
X180467Y192095D01*
X180001Y192491D01*
X179793Y192647D01*
X179601Y192774D01*
X179426Y192873D01*
X179268Y192943D01*
X179211Y192960D01*
X178980Y192986D01*
X178586Y193000D01*
X179293Y193586D01*
X179295Y193591D01*
X179008Y193629D01*
X173102D01*
X172617Y193565D01*
X170323D01*
X170132Y194027D01*
X170477Y194372D01*
X172617D01*
X173102Y194308D01*
X179008D01*
X179684Y194397D01*
X179702Y194405D01*
X180000Y195000D01*
X180406Y194729D01*
X180856Y195074D01*
X181271Y195615D01*
X181532Y196245D01*
X181621Y196921D01*
X181532Y197598D01*
X181404Y197906D01*
X181532Y198214D01*
X181621Y198890D01*
X181532Y199566D01*
X181404Y199874D01*
X181532Y200182D01*
X181621Y200858D01*
X181532Y201535D01*
X181404Y201842D01*
X181532Y202151D01*
X181569Y202431D01*
X181850Y202468D01*
X182158Y202596D01*
X182466Y202468D01*
X183142Y202379D01*
X183818Y202468D01*
X184126Y202596D01*
X184434Y202468D01*
X185110Y202379D01*
X185786Y202468D01*
X186417Y202729D01*
X186958Y203145D01*
X187373Y203686D01*
X187634Y204316D01*
X187723Y204992D01*
Y210898D01*
X187634Y211574D01*
X187378Y212192D01*
Y212722D01*
X188393D01*
Y207945D01*
D02*
G37*
G36*
X18966Y203288D02*
X19035Y203123D01*
X19118Y202977D01*
X19214Y202850D01*
X19325Y202743D01*
X19449Y202656D01*
X19587Y202588D01*
X19739Y202539D01*
X19905Y202510D01*
X20085Y202500D01*
X19456Y201500D01*
X19313Y201496D01*
X18999Y201466D01*
X18828Y201440D01*
X18258Y201317D01*
X17830Y201197D01*
X17602Y201126D01*
X18911Y203473D01*
X18966Y203288D01*
D02*
G37*
G36*
X19304Y199597D02*
X19198Y199485D01*
X19107Y199376D01*
X19029Y199269D01*
X18966Y199164D01*
X18917Y199061D01*
X18882Y198960D01*
X18860Y198862D01*
X18853Y198766D01*
X18860Y198671D01*
X18881Y198579D01*
X17579Y199881D01*
X17671Y199860D01*
X17765Y199853D01*
X17862Y199861D01*
X17960Y199882D01*
X18061Y199917D01*
X18164Y199966D01*
X18269Y200029D01*
X18376Y200107D01*
X18485Y200198D01*
X18596Y200304D01*
X19304Y199597D01*
D02*
G37*
G36*
X141929Y199000D02*
X142018Y199000D01*
Y197467D01*
X142985Y196500D01*
X142965Y196494D01*
X142934Y196475D01*
X142892Y196443D01*
X142774Y196342D01*
X142402Y195986D01*
X142280Y195866D01*
X141190Y196956D01*
X141071Y196950D01*
X141020Y197000D01*
X140982Y197000D01*
Y197037D01*
X140000Y198000D01*
X140982Y198962D01*
Y199000D01*
X141022Y199002D01*
X141071Y199050D01*
X141089Y199040D01*
X141125Y199032D01*
X141177Y199024D01*
X141286Y199016D01*
X141929Y199050D01*
Y199000D01*
D02*
G37*
G36*
X138980Y199000D02*
X139018Y199000D01*
Y198962D01*
X140000Y198000D01*
X139691Y197697D01*
X139779Y197635D01*
X138470Y196116D01*
X138348Y196236D01*
X138009Y196536D01*
X138001Y196153D01*
X138000Y195982D01*
X136000D01*
X135950Y196929D01*
X137799D01*
X137982Y197499D01*
Y199000D01*
X138071Y199000D01*
Y199050D01*
X138090Y199040D01*
X138125Y199032D01*
X138177Y199024D01*
X138332Y199012D01*
X138500Y199009D01*
X138668Y199012D01*
X138823Y199024D01*
X138875Y199032D01*
X138910Y199040D01*
X138929Y199050D01*
X138980Y199000D01*
D02*
G37*
G36*
X243980Y199032D02*
X243741Y199028D01*
X243515Y199013D01*
X243301Y198986D01*
X243101Y198947D01*
X242914Y198896D01*
X242739Y198834D01*
X242578Y198759D01*
X242430Y198673D01*
X242294Y198575D01*
X242172Y198465D01*
X241465Y199172D01*
X241575Y199294D01*
X241673Y199430D01*
X241759Y199578D01*
X241833Y199739D01*
X241896Y199914D01*
X241947Y200101D01*
X241986Y200301D01*
X242013Y200515D01*
X242028Y200741D01*
X242032Y200980D01*
X243980Y199032D01*
D02*
G37*
G36*
X145050Y195071D02*
X142950D01*
X142959Y195089D01*
X142968Y195125D01*
X142975Y195177D01*
X142988Y195332D01*
X142999Y195847D01*
X143000Y196018D01*
X145000D01*
X145050Y195071D01*
D02*
G37*
G36*
X76182Y202468D02*
X76858Y202379D01*
X77535Y202468D01*
X77842Y202596D01*
X78150Y202468D01*
X78431Y202431D01*
X78468Y202151D01*
X78596Y201842D01*
X78468Y201535D01*
X78379Y200858D01*
X78468Y200182D01*
X78596Y199874D01*
X78468Y199566D01*
X78379Y198890D01*
X78468Y198214D01*
X78596Y197906D01*
X78468Y197598D01*
X78379Y196921D01*
X78468Y196245D01*
X78696Y195696D01*
X78707Y195707D01*
X78861Y195573D01*
X79042Y195452D01*
X79248Y195346D01*
X79480Y195255D01*
X79737Y195177D01*
X80021Y195113D01*
X80331Y195064D01*
X81027Y195007D01*
X81414Y195000D01*
Y194308D01*
X86898D01*
X87383Y194372D01*
X89023D01*
X89368Y194027D01*
X89177Y193565D01*
X87383D01*
X86898Y193629D01*
X81414D01*
Y193000D01*
X81020Y192986D01*
X80638Y192943D01*
X80267Y192873D01*
X79908Y192774D01*
X79561Y192647D01*
X79225Y192491D01*
X78901Y192307D01*
X78653Y192138D01*
X78468Y191692D01*
X78379Y191016D01*
X78468Y190340D01*
X78596Y190032D01*
X78468Y189724D01*
X78379Y189047D01*
X78468Y188371D01*
X78596Y188063D01*
X78468Y187755D01*
X78379Y187079D01*
X78468Y186402D01*
X78596Y186094D01*
X78468Y185786D01*
X78425Y185459D01*
X78426Y185456D01*
X78443Y185405D01*
X78501Y185261D01*
X78721Y184795D01*
X78730Y184777D01*
X78907Y184449D01*
X79101Y184145D01*
X79304Y183877D01*
X79517Y183644D01*
X79740Y183447D01*
X79972Y183286D01*
X80215Y183161D01*
X80467Y183072D01*
X80729Y183018D01*
X81000Y183000D01*
X80238Y182619D01*
X80316Y182586D01*
X80992Y182497D01*
X86898D01*
X86898Y182497D01*
X107369Y162027D01*
X107177Y161565D01*
X88616D01*
X87640Y161371D01*
X87608Y161349D01*
X87578D01*
X87574Y161351D01*
X86898Y161440D01*
X84426D01*
X84101Y161940D01*
X84212Y162500D01*
Y162610D01*
X84410Y163086D01*
X84530Y164000D01*
X84410Y164914D01*
X84212Y165391D01*
Y165610D01*
X84410Y166086D01*
X84530Y167000D01*
X84481Y167372D01*
X84878Y167676D01*
X85086Y167590D01*
X86000Y167470D01*
X86914Y167590D01*
X87765Y167943D01*
X88496Y168504D01*
X89057Y169235D01*
X89410Y170086D01*
X89530Y171000D01*
X89410Y171914D01*
X89167Y172500D01*
X89410Y173086D01*
X89530Y174000D01*
X89410Y174914D01*
X89057Y175765D01*
X88496Y176496D01*
X87765Y177057D01*
X86914Y177410D01*
X86000Y177530D01*
X85086Y177410D01*
X84235Y177057D01*
X83504Y176496D01*
X82943Y175765D01*
X82590Y174914D01*
X82492Y174170D01*
X82471Y174076D01*
X81940Y173545D01*
X81440Y173752D01*
Y179008D01*
X81351Y179684D01*
X81090Y180314D01*
X80674Y180856D01*
X80133Y181271D01*
X79503Y181532D01*
X78827Y181621D01*
X78150Y181532D01*
X77842Y181404D01*
X77535Y181532D01*
X76858Y181621D01*
X76182Y181532D01*
X75874Y181404D01*
X75566Y181532D01*
X75278Y181570D01*
Y185336D01*
X75496Y185504D01*
X76057Y186235D01*
X76410Y187086D01*
X76530Y188000D01*
X76410Y188914D01*
X76057Y189765D01*
X75496Y190496D01*
X75278Y190664D01*
Y202430D01*
X75566Y202468D01*
X75874Y202596D01*
X76182Y202468D01*
D02*
G37*
G36*
X142810Y195044D02*
X142929Y195050D01*
Y195000D01*
X143018Y195000D01*
Y194836D01*
X143134Y194720D01*
X143018Y194591D01*
Y193000D01*
X142929Y192995D01*
Y192950D01*
X142911Y192959D01*
X142875Y192968D01*
X142823Y192975D01*
X142714Y192984D01*
X142071Y192950D01*
X142020Y193000D01*
X141982Y193000D01*
Y193037D01*
X141000Y194000D01*
X141765Y194750D01*
X141015Y195500D01*
X141035Y195506D01*
X141066Y195525D01*
X141108Y195557D01*
X141226Y195658D01*
X141598Y196013D01*
X141720Y196134D01*
X142810Y195044D01*
D02*
G37*
G36*
X139271Y195583D02*
X139531Y195884D01*
X139652Y195764D01*
X140034Y195426D01*
X140104Y195376D01*
X140163Y195340D01*
X140212Y195318D01*
X140251Y195310D01*
X140280Y195316D01*
X140131Y194852D01*
X141000Y194000D01*
X140018Y193037D01*
Y193000D01*
X139978Y192998D01*
X139929Y192950D01*
X139500Y192973D01*
X139071Y192950D01*
Y192995D01*
X138982Y193000D01*
Y193824D01*
X138221Y194365D01*
X138651Y194864D01*
X138015Y195500D01*
X138035Y195506D01*
X138066Y195525D01*
X138108Y195557D01*
X138226Y195658D01*
X138599Y196013D01*
X138720Y196134D01*
X139271Y195583D01*
D02*
G37*
G36*
X137985Y192500D02*
X137965Y192494D01*
X137934Y192475D01*
X137892Y192443D01*
X137774Y192342D01*
X137401Y191987D01*
X137280Y191866D01*
X135866Y193280D01*
X136500Y193985D01*
X137985Y192500D01*
D02*
G37*
G36*
X242294Y193425D02*
X242430Y193327D01*
X242578Y193241D01*
X242739Y193166D01*
X242914Y193104D01*
X243101Y193053D01*
X243301Y193014D01*
X243515Y192987D01*
X243741Y192972D01*
X243980Y192968D01*
X242032Y191020D01*
X242028Y191259D01*
X242013Y191485D01*
X241986Y191699D01*
X241947Y191899D01*
X241896Y192086D01*
X241833Y192261D01*
X241759Y192422D01*
X241673Y192570D01*
X241575Y192706D01*
X241465Y192828D01*
X242172Y193535D01*
X242294Y193425D01*
D02*
G37*
G36*
X242594Y184622D02*
X242423Y184789D01*
X242252Y184938D01*
X242082Y185070D01*
X241912Y185184D01*
X241744Y185281D01*
X241577Y185360D01*
X241410Y185421D01*
X241244Y185465D01*
X241079Y185491D01*
X240915Y185500D01*
Y186500D01*
X241079Y186509D01*
X241244Y186535D01*
X241410Y186579D01*
X241577Y186641D01*
X241744Y186720D01*
X241912Y186816D01*
X242082Y186930D01*
X242252Y187062D01*
X242423Y187211D01*
X242594Y187378D01*
Y184622D01*
D02*
G37*
G36*
X242250Y183464D02*
X242619Y183151D01*
X242782Y183037D01*
X242930Y182950D01*
X243065Y182893D01*
X243184Y182863D01*
X243290Y182862D01*
X243381Y182889D01*
X243458Y182945D01*
X242056Y181542D01*
X242111Y181619D01*
X242138Y181710D01*
X242137Y181816D01*
X242107Y181935D01*
X242050Y182070D01*
X241964Y182218D01*
X241849Y182381D01*
X241706Y182559D01*
X241336Y182957D01*
X242043Y183664D01*
X242250Y183464D01*
D02*
G37*
G36*
X18955Y180405D02*
X18986Y180320D01*
X19037Y180245D01*
X19108Y180180D01*
X19200Y180125D01*
X19311Y180080D01*
X19442Y180045D01*
X19593Y180020D01*
X19765Y180005D01*
X19956Y180000D01*
Y179000D01*
X18957Y179043D01*
X18945Y180500D01*
X18955Y180405D01*
D02*
G37*
G36*
X18577Y177211D02*
X18748Y177062D01*
X18918Y176930D01*
X19087Y176816D01*
X19256Y176719D01*
X19423Y176640D01*
X19590Y176579D01*
X19756Y176535D01*
X19921Y176509D01*
X20085Y176500D01*
Y175500D01*
X19921Y175491D01*
X19756Y175465D01*
X19590Y175421D01*
X19423Y175359D01*
X19256Y175280D01*
X19087Y175184D01*
X18918Y175070D01*
X18748Y174938D01*
X18577Y174789D01*
X18406Y174622D01*
Y177378D01*
X18577Y177211D01*
D02*
G37*
G36*
X206205Y171791D02*
X206650Y171648D01*
X206537Y171591D01*
X206353Y171485D01*
X206361Y171478D01*
X206395Y171458D01*
X206436Y171438D01*
X206486Y171419D01*
X206171Y171367D01*
X205891Y171157D01*
X205788Y171070D01*
X205775Y171057D01*
X205691Y170952D01*
X205625Y170846D01*
X205589Y170755D01*
X205582Y170677D01*
X205606Y170613D01*
X205659Y170564D01*
X205743Y170528D01*
X205856Y170507D01*
X206000Y170500D01*
X204929Y169964D01*
Y168950D01*
X204819Y169054D01*
X204707Y169148D01*
X204591Y169230D01*
X204471Y169302D01*
X204348Y169362D01*
X204222Y169412D01*
X204093Y169450D01*
X203961Y169478D01*
X203825Y169494D01*
X203686Y169500D01*
Y169760D01*
X202793Y170500D01*
X202990Y170507D01*
X203181Y170528D01*
X203366Y170564D01*
X203546Y170613D01*
X203720Y170677D01*
X203887Y170755D01*
X204049Y170846D01*
X204205Y170952D01*
X204356Y171073D01*
X204477Y171186D01*
X204559Y171275D01*
X204641Y171384D01*
X204706Y171493D01*
X204754Y171603D01*
X204785Y171714D01*
X204799Y171826D01*
X204796Y171938D01*
X204776Y172052D01*
X204739Y172165D01*
X204684Y172280D01*
X205456Y172032D01*
X205636Y172344D01*
X206205Y171791D01*
D02*
G37*
G36*
X85473Y173013D02*
X85478Y173039D01*
X85495Y173175D01*
X85500Y173314D01*
X86500D01*
X86506Y173175D01*
X86522Y173039D01*
X86545Y172929D01*
X87050D01*
X86945Y172819D01*
X86852Y172706D01*
X86769Y172590D01*
X86715Y172500D01*
X86769Y172409D01*
X86852Y172293D01*
X86945Y172181D01*
X87050Y172071D01*
X86545D01*
X86522Y171961D01*
X86506Y171825D01*
X86500Y171686D01*
X85500D01*
X85495Y171825D01*
X85478Y171961D01*
X85455Y172071D01*
X84950D01*
X85054Y172181D01*
X85148Y172293D01*
X85178Y172336D01*
X85159Y172327D01*
X85040Y172263D01*
X84927Y172189D01*
X84819Y172105D01*
X84717Y172010D01*
X84010Y172717D01*
X84105Y172819D01*
X84189Y172927D01*
X84263Y173040D01*
X84327Y173159D01*
X84381Y173283D01*
X84425Y173413D01*
X84459Y173547D01*
X84483Y173688D01*
X84497Y173834D01*
X84500Y173985D01*
X85473Y173013D01*
D02*
G37*
G36*
X188020Y171914D02*
X188272Y171722D01*
X188541Y171553D01*
X188828Y171406D01*
X189132Y171282D01*
X189454Y171180D01*
X189793Y171101D01*
X190149Y171045D01*
X190523Y171011D01*
X190914Y171000D01*
X188500Y169000D01*
Y170000D01*
X187786Y172128D01*
X188020Y171914D01*
D02*
G37*
G36*
X64289Y172145D02*
X64589Y171905D01*
X64901Y171693D01*
X65225Y171509D01*
X65561Y171353D01*
X65908Y171226D01*
X66267Y171127D01*
X66638Y171057D01*
X67020Y171014D01*
X67414Y171000D01*
X65000Y169000D01*
X62000Y171000D01*
X62109Y171002D01*
X62202Y171009D01*
X62279Y171019D01*
X62341Y171034D01*
X62386Y171054D01*
X62415Y171077D01*
X62428Y171105D01*
X62425Y171137D01*
X62406Y171174D01*
X62372Y171214D01*
X64000Y172414D01*
X64289Y172145D01*
D02*
G37*
G36*
X201301Y168086D02*
X201351Y167292D01*
X201366Y167219D01*
X201384Y167163D01*
X201403Y167123D01*
X200313D01*
X200311Y167129D01*
X200308Y167154D01*
X200305Y167263D01*
X200300Y168056D01*
X201300Y168278D01*
X201301Y168086D01*
D02*
G37*
G36*
X77403Y167123D02*
X76313D01*
X76322Y167146D01*
X76329Y167188D01*
X76336Y167248D01*
X76351Y167540D01*
X76358Y168191D01*
X77358D01*
X77403Y167123D01*
D02*
G37*
G36*
X197250Y170000D02*
X194750Y166500D01*
X194730Y166975D01*
X194670Y167400D01*
X194570Y167775D01*
X194430Y168100D01*
X194250Y168375D01*
X194030Y168600D01*
X193770Y168775D01*
X193470Y168900D01*
X193130Y168975D01*
X192750Y169000D01*
Y171000D01*
X193130Y171025D01*
X193470Y171100D01*
X193770Y171225D01*
X194030Y171400D01*
X194250Y171625D01*
X194430Y171900D01*
X194570Y172225D01*
X194670Y172600D01*
X194730Y173025D01*
X194750Y173500D01*
X197250Y170000D01*
D02*
G37*
G36*
X73250D02*
X70750Y166500D01*
X70730Y166975D01*
X70670Y167400D01*
X70570Y167775D01*
X70430Y168100D01*
X70250Y168375D01*
X70030Y168600D01*
X69770Y168775D01*
X69470Y168900D01*
X69130Y168975D01*
X68750Y169000D01*
Y171000D01*
X69130Y171025D01*
X69470Y171100D01*
X69770Y171225D01*
X70030Y171400D01*
X70250Y171625D01*
X70430Y171900D01*
X70570Y172225D01*
X70670Y172600D01*
X70730Y173025D01*
X70750Y173500D01*
X73250Y170000D01*
D02*
G37*
G36*
X18084Y167652D02*
X18171Y167620D01*
X18274Y167592D01*
X18394Y167568D01*
X18683Y167530D01*
X19037Y167508D01*
X19456Y167500D01*
X19500Y166500D01*
X19396Y166496D01*
X19303Y166483D01*
X19222Y166461D01*
X19152Y166431D01*
X19093Y166393D01*
X19045Y166345D01*
X19009Y166290D01*
X18984Y166225D01*
X18970Y166152D01*
X18967Y166071D01*
X18014Y167687D01*
X18084Y167652D01*
D02*
G37*
G36*
X211121Y165824D02*
X211675Y165660D01*
X211573Y165607D01*
X211369Y165484D01*
X211347Y165468D01*
X211353Y165464D01*
X211377Y165454D01*
X211405Y165444D01*
X211269Y165415D01*
X211268Y165415D01*
X210961Y165176D01*
X210859Y165087D01*
X210795Y165026D01*
X210787Y165018D01*
X210689Y164897D01*
X210620Y164791D01*
X210580Y164699D01*
X210568Y164622D01*
X210586Y164558D01*
X210632Y164508D01*
X210708Y164473D01*
X210812Y164452D01*
X210945Y164445D01*
X209931Y163924D01*
X209968Y162911D01*
X209854Y163013D01*
X209737Y163103D01*
X209618Y163183D01*
X209496Y163253D01*
X209371Y163312D01*
X209244Y163359D01*
X209114Y163397D01*
X208980Y163424D01*
X208845Y163440D01*
X208706Y163445D01*
X208697Y163696D01*
X207793Y164445D01*
X207990Y164452D01*
X208181Y164473D01*
X208366Y164508D01*
X208546Y164558D01*
X208720Y164622D01*
X208887Y164699D01*
X209049Y164791D01*
X209205Y164897D01*
X209356Y165018D01*
X209495Y165147D01*
X209591Y165252D01*
X209673Y165360D01*
X209738Y165470D01*
X209786Y165579D01*
X209816Y165688D01*
X209828Y165798D01*
X209824Y165909D01*
X209802Y166019D01*
X209763Y166130D01*
X209706Y166241D01*
X210475Y166014D01*
X210647Y166298D01*
X211121Y165824D01*
D02*
G37*
G36*
X203411Y164889D02*
X203777Y164523D01*
X203901Y164490D01*
X204052Y164465D01*
X204224Y164450D01*
X204417Y164445D01*
Y163445D01*
X204224Y163440D01*
X204052Y163425D01*
X203901Y163400D01*
X203900Y163400D01*
X203400Y162900D01*
Y164900D01*
X203405Y164895D01*
Y164945D01*
X203411Y164889D01*
D02*
G37*
G36*
X242294Y166425D02*
X242430Y166327D01*
X242578Y166241D01*
X242739Y166166D01*
X242914Y166104D01*
X243101Y166053D01*
X243301Y166014D01*
X243515Y165987D01*
X243741Y165972D01*
X243980Y165968D01*
X242032Y164020D01*
X242028Y164259D01*
X242013Y164485D01*
X241986Y164699D01*
X241947Y164899D01*
X241896Y165086D01*
X241833Y165261D01*
X241759Y165422D01*
X241673Y165570D01*
X241575Y165706D01*
X241465Y165828D01*
X242172Y166535D01*
X242294Y166425D01*
D02*
G37*
G36*
X188310Y166970D02*
X188393Y166476D01*
Y163945D01*
X188403Y163872D01*
Y161414D01*
X189000D01*
X189014Y161020D01*
X189057Y160638D01*
X189127Y160267D01*
X189226Y159908D01*
X189354Y159561D01*
X189509Y159225D01*
X189693Y158901D01*
X189849Y158671D01*
X190340Y158468D01*
X191016Y158379D01*
X191692Y158468D01*
X192000Y158596D01*
X192308Y158468D01*
X192722Y158414D01*
Y147259D01*
X192235Y147057D01*
X191504Y146496D01*
X190943Y145765D01*
X190590Y144914D01*
X190470Y144000D01*
X190590Y143086D01*
X190943Y142235D01*
X191504Y141504D01*
X192235Y140943D01*
X192722Y140741D01*
Y137586D01*
X192308Y137532D01*
X192000Y137404D01*
X191692Y137532D01*
X191016Y137621D01*
X190340Y137532D01*
X190032Y137404D01*
X189724Y137532D01*
X189047Y137621D01*
X188371Y137532D01*
X188063Y137404D01*
X187755Y137532D01*
X187079Y137621D01*
X186402Y137532D01*
X186094Y137404D01*
X185786Y137532D01*
X185110Y137621D01*
X184434Y137532D01*
X183804Y137271D01*
X183263Y136855D01*
X182847Y136314D01*
X182586Y135684D01*
X182497Y135008D01*
Y129102D01*
X182586Y128426D01*
X182847Y127796D01*
X183263Y127255D01*
X183804Y126839D01*
X184053Y126736D01*
Y125287D01*
X183860Y125140D01*
X181860Y123140D01*
X181379Y122513D01*
X181077Y121783D01*
X180974Y121000D01*
Y119484D01*
X180497Y119422D01*
X179867Y119160D01*
X179744Y119066D01*
X178914Y119410D01*
X178000Y119530D01*
X177086Y119410D01*
X176235Y119057D01*
X175504Y118496D01*
X174943Y117765D01*
X174590Y116914D01*
X174470Y116000D01*
X174590Y115086D01*
X174833Y114500D01*
X174590Y113914D01*
X174470Y113000D01*
X174590Y112086D01*
X174686Y111855D01*
X174408Y111440D01*
X173102D01*
X172617Y111376D01*
X149187D01*
X148958Y111606D01*
X148131Y112158D01*
X147155Y112352D01*
X147020D01*
Y112394D01*
X138926D01*
Y128834D01*
X142165D01*
X142408Y128866D01*
X147020D01*
Y132803D01*
Y136782D01*
X148131D01*
X149106Y136976D01*
X149933Y137528D01*
X150956Y138551D01*
X172695D01*
X173102Y138497D01*
X179008D01*
X179684Y138586D01*
X180314Y138847D01*
X180856Y139263D01*
X181271Y139804D01*
X181532Y140434D01*
X181621Y141110D01*
X181532Y141787D01*
X181404Y142095D01*
X181532Y142403D01*
X181621Y143079D01*
X181532Y143755D01*
X181404Y144063D01*
X181532Y144371D01*
X181621Y145047D01*
X181532Y145723D01*
X181404Y146031D01*
X181532Y146339D01*
X181621Y147016D01*
X181607Y147122D01*
X181500Y147015D01*
X181494Y147035D01*
X181475Y147066D01*
X181443Y147108D01*
X181342Y147226D01*
X180988Y147597D01*
X180711Y147854D01*
X180411Y148095D01*
X180099Y148307D01*
X179775Y148491D01*
X179439Y148646D01*
X179092Y148774D01*
X178733Y148873D01*
X178362Y148943D01*
X177980Y148986D01*
X177586Y149000D01*
X178345Y149629D01*
X173102D01*
X172617Y149565D01*
X172245D01*
X171295Y149754D01*
X150279D01*
X150016Y150254D01*
X150097Y150372D01*
X172617D01*
X173102Y150308D01*
X179008D01*
X179195Y150333D01*
X180000Y151000D01*
X180406Y150729D01*
X180856Y151074D01*
X181271Y151615D01*
X181532Y152245D01*
X181621Y152921D01*
X181532Y153597D01*
X181404Y153905D01*
X181532Y154214D01*
X181621Y154890D01*
X181532Y155566D01*
X181404Y155874D01*
X181532Y156182D01*
X181621Y156858D01*
X181532Y157535D01*
X181404Y157843D01*
X181532Y158150D01*
X181569Y158431D01*
X181850Y158468D01*
X182158Y158596D01*
X182466Y158468D01*
X183142Y158379D01*
X183818Y158468D01*
X184126Y158596D01*
X184434Y158468D01*
X185110Y158379D01*
X185786Y158468D01*
X186313Y158686D01*
X186293Y158707D01*
X186427Y158861D01*
X186548Y159042D01*
X186653Y159248D01*
X186745Y159480D01*
X186823Y159737D01*
X186887Y160021D01*
X186936Y160331D01*
X186993Y161027D01*
X187000Y161414D01*
X187723D01*
Y166898D01*
X187790Y166974D01*
X188295D01*
X188310Y166970D01*
D02*
G37*
G36*
X242594Y157622D02*
X242423Y157789D01*
X242252Y157938D01*
X242082Y158070D01*
X241912Y158184D01*
X241744Y158281D01*
X241577Y158360D01*
X241410Y158421D01*
X241244Y158465D01*
X241079Y158491D01*
X240915Y158500D01*
Y159500D01*
X241079Y159509D01*
X241244Y159535D01*
X241410Y159579D01*
X241577Y159641D01*
X241744Y159720D01*
X241912Y159816D01*
X242082Y159930D01*
X242252Y160062D01*
X242423Y160211D01*
X242594Y160378D01*
Y157622D01*
D02*
G37*
G36*
X242294Y156425D02*
X242430Y156327D01*
X242578Y156241D01*
X242739Y156167D01*
X242914Y156104D01*
X243101Y156053D01*
X243301Y156014D01*
X243515Y155987D01*
X243741Y155972D01*
X243980Y155968D01*
X242032Y154020D01*
X242028Y154259D01*
X242013Y154485D01*
X241986Y154699D01*
X241947Y154899D01*
X241896Y155086D01*
X241833Y155261D01*
X241759Y155422D01*
X241673Y155570D01*
X241575Y155706D01*
X241465Y155828D01*
X242172Y156535D01*
X242294Y156425D01*
D02*
G37*
G36*
X18577Y147211D02*
X18748Y147062D01*
X18918Y146930D01*
X19087Y146816D01*
X19256Y146720D01*
X19423Y146641D01*
X19590Y146579D01*
X19756Y146535D01*
X19921Y146509D01*
X20085Y146500D01*
Y145500D01*
X19921Y145491D01*
X19756Y145465D01*
X19590Y145421D01*
X19423Y145360D01*
X19256Y145281D01*
X19087Y145184D01*
X18918Y145070D01*
X18748Y144938D01*
X18577Y144789D01*
X18406Y144622D01*
Y147378D01*
X18577Y147211D01*
D02*
G37*
G36*
Y142211D02*
X18748Y142062D01*
X18918Y141930D01*
X19087Y141816D01*
X19256Y141719D01*
X19423Y141640D01*
X19590Y141579D01*
X19756Y141535D01*
X19921Y141509D01*
X20085Y141500D01*
Y140500D01*
X19921Y140491D01*
X19756Y140465D01*
X19590Y140421D01*
X19423Y140359D01*
X19256Y140280D01*
X19087Y140184D01*
X18918Y140070D01*
X18748Y139938D01*
X18577Y139789D01*
X18406Y139622D01*
Y142378D01*
X18577Y142211D01*
D02*
G37*
G36*
X242294Y141425D02*
X242430Y141327D01*
X242578Y141241D01*
X242739Y141166D01*
X242914Y141104D01*
X243101Y141053D01*
X243301Y141014D01*
X243515Y140987D01*
X243741Y140972D01*
X243980Y140968D01*
X242032Y139020D01*
X242028Y139259D01*
X242013Y139485D01*
X241986Y139699D01*
X241947Y139899D01*
X241896Y140086D01*
X241833Y140261D01*
X241759Y140422D01*
X241673Y140570D01*
X241575Y140706D01*
X241465Y140828D01*
X242172Y141535D01*
X242294Y141425D01*
D02*
G37*
G36*
X19535Y137828D02*
X19425Y137706D01*
X19327Y137570D01*
X19241Y137422D01*
X19166Y137261D01*
X19104Y137086D01*
X19053Y136899D01*
X19014Y136699D01*
X18987Y136485D01*
X18972Y136259D01*
X18968Y136020D01*
X17020Y137968D01*
X17259Y137972D01*
X17485Y137987D01*
X17699Y138014D01*
X17899Y138053D01*
X18086Y138104D01*
X18261Y138166D01*
X18422Y138241D01*
X18570Y138327D01*
X18706Y138425D01*
X18828Y138535D01*
X19535Y137828D01*
D02*
G37*
G36*
X242594Y132622D02*
X242423Y132789D01*
X242252Y132938D01*
X242082Y133070D01*
X241912Y133184D01*
X241744Y133281D01*
X241577Y133360D01*
X241410Y133421D01*
X241244Y133465D01*
X241079Y133491D01*
X240915Y133500D01*
Y134500D01*
X241079Y134509D01*
X241244Y134535D01*
X241410Y134579D01*
X241577Y134641D01*
X241744Y134720D01*
X241912Y134816D01*
X242082Y134930D01*
X242252Y135062D01*
X242423Y135211D01*
X242594Y135378D01*
Y132622D01*
D02*
G37*
G36*
X242250Y131464D02*
X242619Y131151D01*
X242782Y131037D01*
X242930Y130950D01*
X243065Y130893D01*
X243184Y130863D01*
X243290Y130862D01*
X243381Y130889D01*
X243458Y130945D01*
X242056Y129542D01*
X242111Y129619D01*
X242138Y129710D01*
X242137Y129815D01*
X242107Y129935D01*
X242050Y130070D01*
X241964Y130218D01*
X241849Y130381D01*
X241706Y130559D01*
X241336Y130956D01*
X242043Y131664D01*
X242250Y131464D01*
D02*
G37*
G36*
X65289Y125145D02*
X65589Y124905D01*
X65901Y124693D01*
X66225Y124509D01*
X66561Y124354D01*
X66908Y124226D01*
X67267Y124127D01*
X67638Y124057D01*
X68020Y124014D01*
X68414Y124000D01*
X66000Y123000D01*
X62000Y124000D01*
X62289Y124012D01*
X62522Y124049D01*
X62700Y124109D01*
X62821Y124194D01*
X62886Y124303D01*
X62895Y124437D01*
X62848Y124595D01*
X62745Y124777D01*
X62586Y124984D01*
X62372Y125214D01*
X65000Y125414D01*
X65289Y125145D01*
D02*
G37*
G36*
X84929Y122950D02*
X84819Y123055D01*
X84707Y123148D01*
X84591Y123231D01*
X84471Y123302D01*
X84348Y123363D01*
X84223Y123412D01*
X84093Y123451D01*
X83961Y123478D01*
X83825Y123495D01*
X83686Y123500D01*
Y124500D01*
X83825Y124505D01*
X83961Y124522D01*
X84093Y124549D01*
X84223Y124588D01*
X84348Y124637D01*
X84471Y124698D01*
X84591Y124769D01*
X84707Y124852D01*
X84819Y124945D01*
X84929Y125050D01*
Y122950D01*
D02*
G37*
G36*
X206205Y121791D02*
X206650Y121648D01*
X206537Y121591D01*
X206353Y121485D01*
X206361Y121478D01*
X206395Y121458D01*
X206436Y121438D01*
X206486Y121419D01*
X206171Y121367D01*
X205891Y121157D01*
X205788Y121070D01*
X205775Y121057D01*
X205691Y120952D01*
X205625Y120846D01*
X205589Y120755D01*
X205582Y120677D01*
X205606Y120613D01*
X205659Y120564D01*
X205743Y120528D01*
X205856Y120507D01*
X206000Y120500D01*
X204929Y119964D01*
Y118950D01*
X204819Y119054D01*
X204707Y119148D01*
X204591Y119230D01*
X204471Y119302D01*
X204348Y119362D01*
X204222Y119412D01*
X204093Y119450D01*
X203961Y119478D01*
X203825Y119494D01*
X203686Y119500D01*
Y119760D01*
X202793Y120500D01*
X202990Y120507D01*
X203181Y120528D01*
X203366Y120564D01*
X203546Y120613D01*
X203720Y120677D01*
X203887Y120755D01*
X204049Y120846D01*
X204205Y120952D01*
X204356Y121073D01*
X204477Y121186D01*
X204559Y121275D01*
X204641Y121384D01*
X204706Y121493D01*
X204754Y121603D01*
X204785Y121714D01*
X204799Y121826D01*
X204796Y121938D01*
X204776Y122052D01*
X204739Y122165D01*
X204684Y122280D01*
X205456Y122032D01*
X205636Y122344D01*
X206205Y121791D01*
D02*
G37*
G36*
X188289Y125145D02*
X188589Y124905D01*
X188901Y124693D01*
X189225Y124509D01*
X189561Y124354D01*
X189908Y124226D01*
X190267Y124127D01*
X190638Y124057D01*
X191020Y124014D01*
X191414Y124000D01*
X189000Y122000D01*
X186000Y124000D01*
X186109Y124002D01*
X186202Y124009D01*
X186279Y124019D01*
X186341Y124034D01*
X186386Y124054D01*
X186415Y124077D01*
X186428Y124105D01*
X186425Y124137D01*
X186407Y124173D01*
X186372Y124214D01*
X188000Y125414D01*
X188289Y125145D01*
D02*
G37*
G36*
X86506Y123175D02*
X86522Y123039D01*
X86545Y122929D01*
X87050D01*
X86945Y122819D01*
X86852Y122706D01*
X86769Y122590D01*
X86715Y122500D01*
X86769Y122409D01*
X86852Y122293D01*
X86945Y122181D01*
X87050Y122071D01*
X86545D01*
X86522Y121961D01*
X86506Y121825D01*
X86500Y121686D01*
X85500D01*
X85495Y121825D01*
X85478Y121961D01*
X85455Y122071D01*
X84950D01*
X85054Y122181D01*
X85148Y122293D01*
X85230Y122409D01*
X85285Y122500D01*
X85230Y122590D01*
X85148Y122706D01*
X85054Y122819D01*
X84950Y122929D01*
X85455D01*
X85478Y123039D01*
X85495Y123175D01*
X85500Y123314D01*
X86500D01*
X86506Y123175D01*
D02*
G37*
G36*
X67003Y123069D02*
X67023Y123002D01*
X67049Y122934D01*
X67084Y122864D01*
X67125Y122793D01*
X67173Y122719D01*
X67229Y122644D01*
X67362Y122489D01*
X67440Y122408D01*
X66592Y121560D01*
X66511Y121638D01*
X66356Y121771D01*
X66281Y121827D01*
X66207Y121875D01*
X66136Y121916D01*
X66066Y121950D01*
X65998Y121977D01*
X65931Y121997D01*
X65867Y122009D01*
X66991Y123133D01*
X67003Y123069D01*
D02*
G37*
G36*
X197250Y123000D02*
X194750Y119500D01*
X194730Y119975D01*
X194670Y120400D01*
X194570Y120775D01*
X194430Y121100D01*
X194250Y121375D01*
X194030Y121600D01*
X193770Y121775D01*
X193470Y121900D01*
X193130Y121975D01*
X192750Y122000D01*
Y124000D01*
X193130Y124025D01*
X193470Y124100D01*
X193770Y124225D01*
X194030Y124400D01*
X194250Y124625D01*
X194430Y124900D01*
X194570Y125225D01*
X194670Y125600D01*
X194730Y126025D01*
X194750Y126500D01*
X197250Y123000D01*
D02*
G37*
G36*
X73250D02*
X70750Y119500D01*
X70730Y119975D01*
X70670Y120400D01*
X70570Y120775D01*
X70430Y121100D01*
X70250Y121375D01*
X70030Y121600D01*
X69770Y121775D01*
X69470Y121900D01*
X69130Y121975D01*
X68750Y122000D01*
Y124000D01*
X69130Y124025D01*
X69470Y124100D01*
X69770Y124225D01*
X70030Y124400D01*
X70250Y124625D01*
X70430Y124900D01*
X70570Y125225D01*
X70670Y125600D01*
X70730Y126025D01*
X70750Y126500D01*
X73250Y123000D01*
D02*
G37*
G36*
X80472Y119013D02*
X80478Y119039D01*
X80494Y119175D01*
X80500Y119314D01*
X81500D01*
X81506Y119175D01*
X81522Y119039D01*
X81545Y118929D01*
X82050D01*
X81946Y118819D01*
X81852Y118707D01*
X81770Y118590D01*
X81715Y118500D01*
X81770Y118410D01*
X81852Y118293D01*
X81946Y118181D01*
X82050Y118071D01*
X81545D01*
X81522Y117961D01*
X81506Y117825D01*
X81500Y117686D01*
X80500D01*
X80494Y117825D01*
X80478Y117961D01*
X80455Y118071D01*
X79950D01*
X80054Y118181D01*
X80148Y118293D01*
X80178Y118336D01*
X80159Y118327D01*
X80040Y118263D01*
X79927Y118189D01*
X79819Y118105D01*
X79717Y118010D01*
X79010Y118717D01*
X79105Y118819D01*
X79189Y118927D01*
X79263Y119040D01*
X79327Y119159D01*
X79381Y119283D01*
X79425Y119413D01*
X79459Y119547D01*
X79483Y119688D01*
X79497Y119834D01*
X79500Y119985D01*
X80472Y119013D01*
D02*
G37*
G36*
X201400Y118128D02*
X201403Y117123D01*
X200313D01*
X200330Y117158D01*
X200344Y117210D01*
X200358Y117280D01*
X200369Y117366D01*
X200386Y117592D01*
X200400Y118253D01*
X201400Y118128D01*
D02*
G37*
G36*
X77328Y118047D02*
X77376Y117205D01*
X77389Y117155D01*
X77403Y117123D01*
X76313D01*
X76316Y117137D01*
X76318Y117171D01*
X76326Y117632D01*
X76327Y118143D01*
X77327Y118238D01*
X77328Y118047D01*
D02*
G37*
G36*
X18955Y118905D02*
X18986Y118820D01*
X19037Y118745D01*
X19108Y118680D01*
X19199Y118625D01*
X19310Y118580D01*
X19442Y118545D01*
X19593Y118520D01*
X19765Y118505D01*
X19956Y118500D01*
Y117500D01*
X19767Y117495D01*
X19597Y117482D01*
X19446Y117459D01*
X19317Y117427D01*
X19207Y117386D01*
X19117Y117336D01*
X19047Y117276D01*
X18996Y117208D01*
X18967Y117130D01*
X18957Y117043D01*
X18945Y119000D01*
X18955Y118905D01*
D02*
G37*
G36*
X211121Y115824D02*
X211675Y115660D01*
X211573Y115607D01*
X211369Y115484D01*
X211347Y115468D01*
X211353Y115464D01*
X211377Y115454D01*
X211405Y115444D01*
X211269Y115415D01*
X211268Y115415D01*
X210961Y115176D01*
X210859Y115087D01*
X210795Y115026D01*
X210787Y115018D01*
X210689Y114897D01*
X210620Y114791D01*
X210580Y114699D01*
X210568Y114622D01*
X210586Y114558D01*
X210632Y114508D01*
X210708Y114473D01*
X210812Y114452D01*
X210945Y114445D01*
X209931Y113924D01*
X209968Y112911D01*
X209854Y113013D01*
X209737Y113103D01*
X209618Y113183D01*
X209496Y113253D01*
X209371Y113312D01*
X209244Y113359D01*
X209114Y113397D01*
X208980Y113424D01*
X208845Y113440D01*
X208706Y113445D01*
X208697Y113696D01*
X207793Y114445D01*
X207990Y114452D01*
X208181Y114473D01*
X208366Y114508D01*
X208546Y114558D01*
X208720Y114622D01*
X208887Y114699D01*
X209049Y114791D01*
X209205Y114897D01*
X209356Y115018D01*
X209495Y115147D01*
X209591Y115252D01*
X209673Y115360D01*
X209738Y115470D01*
X209786Y115579D01*
X209816Y115688D01*
X209828Y115798D01*
X209824Y115909D01*
X209802Y116019D01*
X209763Y116130D01*
X209706Y116241D01*
X210475Y116014D01*
X210647Y116298D01*
X211121Y115824D01*
D02*
G37*
G36*
X79618Y117490D02*
X79885Y117498D01*
X80396Y117500D01*
X80417Y116500D01*
X80202Y116495D01*
X80013Y116480D01*
X79849Y116455D01*
X79710Y116420D01*
X79597Y116375D01*
X79508Y116320D01*
X79444Y116255D01*
X79406Y116180D01*
X79393Y116095D01*
X79405Y116000D01*
X79284Y116493D01*
X79111Y116499D01*
X79000Y116500D01*
Y117500D01*
X79111Y117501D01*
X79502Y117530D01*
X79548Y117541D01*
X79582Y117553D01*
X79606Y117568D01*
X79618Y117583D01*
Y117490D01*
D02*
G37*
G36*
X19788Y115081D02*
X19697Y114982D01*
X19606Y114866D01*
X19513Y114732D01*
X19326Y114413D01*
X19231Y114227D01*
X18942Y113566D01*
X18844Y113311D01*
X17725Y115830D01*
X17922Y115761D01*
X18111Y115713D01*
X18293Y115685D01*
X18468Y115678D01*
X18636Y115692D01*
X18796Y115727D01*
X18949Y115782D01*
X19095Y115858D01*
X19234Y115955D01*
X19366Y116073D01*
X19788Y115081D01*
D02*
G37*
G36*
X203912Y114488D02*
X204052Y114465D01*
X204224Y114450D01*
X204417Y114445D01*
Y113445D01*
X204224Y113440D01*
X204052Y113425D01*
X203901Y113400D01*
X203769Y113365D01*
X203762Y113362D01*
X203412Y113012D01*
X203405Y112945D01*
Y113005D01*
X203400Y113000D01*
Y115000D01*
X203912Y114488D01*
D02*
G37*
G36*
X242294Y114425D02*
X242430Y114327D01*
X242578Y114241D01*
X242739Y114166D01*
X242914Y114104D01*
X243101Y114053D01*
X243301Y114014D01*
X243515Y113987D01*
X243741Y113972D01*
X243980Y113968D01*
X242032Y112020D01*
X242028Y112259D01*
X242013Y112485D01*
X241986Y112699D01*
X241947Y112899D01*
X241896Y113086D01*
X241833Y113261D01*
X241759Y113422D01*
X241673Y113570D01*
X241575Y113706D01*
X241465Y113828D01*
X242172Y114535D01*
X242294Y114425D01*
D02*
G37*
G36*
X188393Y113945D02*
X188403Y113872D01*
Y110992D01*
X188492Y110316D01*
X188753Y109686D01*
X189168Y109144D01*
X189237Y109091D01*
X189280Y109134D01*
X189748Y108713D01*
X190340Y108468D01*
X191016Y108379D01*
X191692Y108468D01*
X192000Y108596D01*
X192308Y108468D01*
X192722Y108414D01*
Y97259D01*
X192235Y97057D01*
X191504Y96496D01*
X190943Y95765D01*
X190590Y94914D01*
X190470Y94000D01*
X190590Y93086D01*
X190943Y92235D01*
X191504Y91504D01*
X192235Y90943D01*
X192722Y90741D01*
Y87586D01*
X192308Y87532D01*
X192000Y87404D01*
X191692Y87532D01*
X191016Y87621D01*
X190340Y87532D01*
X190032Y87404D01*
X189724Y87532D01*
X189047Y87621D01*
X188371Y87532D01*
X188063Y87404D01*
X187755Y87532D01*
X187079Y87621D01*
X186402Y87532D01*
X186094Y87404D01*
X185786Y87532D01*
X185110Y87621D01*
X184434Y87532D01*
X183804Y87271D01*
X183263Y86856D01*
X182847Y86314D01*
X182586Y85684D01*
X182497Y85008D01*
Y79102D01*
X182586Y78426D01*
X182750Y78030D01*
X181860Y77140D01*
X181379Y76513D01*
X181077Y75783D01*
X181039Y75493D01*
X180497Y75422D01*
X179867Y75160D01*
X179744Y75066D01*
X178914Y75410D01*
X178000Y75530D01*
X177086Y75410D01*
X176235Y75057D01*
X175504Y74496D01*
X174943Y73765D01*
X174590Y72914D01*
X174470Y72000D01*
X174590Y71086D01*
X174833Y70500D01*
X174590Y69914D01*
X174470Y69000D01*
X174590Y68086D01*
X174686Y67855D01*
X174408Y67440D01*
X173102D01*
X172771Y67396D01*
X152183Y87984D01*
X152082Y88051D01*
X152234Y88551D01*
X172695D01*
X173102Y88497D01*
X179008D01*
X179684Y88586D01*
X180314Y88847D01*
X180856Y89263D01*
X181271Y89804D01*
X181532Y90434D01*
X181621Y91110D01*
X181532Y91786D01*
X181404Y92094D01*
X181532Y92402D01*
X181621Y93079D01*
X181532Y93755D01*
X181404Y94063D01*
X181532Y94371D01*
X181621Y95047D01*
X181532Y95723D01*
X181404Y96031D01*
X181532Y96339D01*
X181621Y97016D01*
X181607Y97122D01*
X181500Y97015D01*
X181494Y97035D01*
X181475Y97066D01*
X181443Y97108D01*
X181342Y97226D01*
X180988Y97597D01*
X180711Y97855D01*
X180411Y98095D01*
X180099Y98307D01*
X179775Y98491D01*
X179439Y98646D01*
X179092Y98774D01*
X178733Y98873D01*
X178362Y98943D01*
X177980Y98986D01*
X177586Y99000D01*
X178345Y99629D01*
X173102D01*
X172617Y99565D01*
X150240D01*
X150010Y99795D01*
X149894Y99872D01*
X150046Y100372D01*
X172617D01*
X173102Y100308D01*
X179008D01*
X179195Y100333D01*
X180000Y101000D01*
X180406Y100729D01*
X180856Y101074D01*
X181271Y101615D01*
X181532Y102245D01*
X181621Y102921D01*
X181532Y103597D01*
X181404Y103905D01*
X181532Y104214D01*
X181621Y104890D01*
X181532Y105566D01*
X181404Y105874D01*
X181532Y106182D01*
X181621Y106858D01*
X181532Y107535D01*
X181404Y107843D01*
X181532Y108150D01*
X181569Y108431D01*
X181850Y108468D01*
X182158Y108596D01*
X182466Y108468D01*
X183142Y108379D01*
X183818Y108468D01*
X184126Y108596D01*
X184434Y108468D01*
X185110Y108379D01*
X185786Y108468D01*
X186417Y108729D01*
X186958Y109144D01*
X187373Y109686D01*
X187634Y110316D01*
X187723Y110992D01*
Y116898D01*
X187634Y117574D01*
X187373Y118204D01*
X187026Y118657D01*
Y119747D01*
X187253Y119974D01*
X188393D01*
Y113945D01*
D02*
G37*
G36*
X18577Y110211D02*
X18748Y110062D01*
X18918Y109930D01*
X19087Y109816D01*
X19256Y109720D01*
X19423Y109641D01*
X19590Y109579D01*
X19756Y109535D01*
X19921Y109509D01*
X20085Y109500D01*
Y108500D01*
X19921Y108491D01*
X19756Y108465D01*
X19590Y108421D01*
X19423Y108360D01*
X19256Y108281D01*
X19087Y108184D01*
X18918Y108070D01*
X18748Y107938D01*
X18577Y107789D01*
X18406Y107622D01*
Y110378D01*
X18577Y110211D01*
D02*
G37*
G36*
X242594Y105622D02*
X242423Y105789D01*
X242252Y105938D01*
X242082Y106070D01*
X241912Y106184D01*
X241744Y106281D01*
X241577Y106360D01*
X241410Y106421D01*
X241244Y106465D01*
X241079Y106491D01*
X240915Y106500D01*
Y107500D01*
X241079Y107509D01*
X241244Y107535D01*
X241410Y107579D01*
X241577Y107641D01*
X241744Y107720D01*
X241912Y107816D01*
X242082Y107930D01*
X242252Y108062D01*
X242423Y108211D01*
X242594Y108378D01*
Y105622D01*
D02*
G37*
G36*
X19535Y105828D02*
X19425Y105706D01*
X19327Y105570D01*
X19241Y105422D01*
X19166Y105261D01*
X19104Y105086D01*
X19053Y104899D01*
X19014Y104699D01*
X18987Y104485D01*
X18972Y104259D01*
X18968Y104020D01*
X17020Y105968D01*
X17259Y105972D01*
X17485Y105987D01*
X17699Y106014D01*
X17899Y106053D01*
X18086Y106104D01*
X18261Y106167D01*
X18422Y106241D01*
X18570Y106327D01*
X18706Y106425D01*
X18828Y106535D01*
X19535Y105828D01*
D02*
G37*
G36*
X242294Y104425D02*
X242430Y104327D01*
X242578Y104241D01*
X242739Y104166D01*
X242914Y104104D01*
X243101Y104053D01*
X243301Y104014D01*
X243515Y103987D01*
X243741Y103972D01*
X243980Y103968D01*
X242032Y102020D01*
X242028Y102259D01*
X242013Y102485D01*
X241986Y102699D01*
X241947Y102899D01*
X241896Y103086D01*
X241833Y103261D01*
X241759Y103422D01*
X241673Y103570D01*
X241575Y103706D01*
X241465Y103828D01*
X242172Y104535D01*
X242294Y104425D01*
D02*
G37*
G36*
X76182Y108468D02*
X76858Y108379D01*
X77535Y108468D01*
X77842Y108596D01*
X78150Y108468D01*
X78431Y108431D01*
X78468Y108150D01*
X78596Y107843D01*
X78468Y107535D01*
X78379Y106858D01*
X78468Y106182D01*
X78596Y105874D01*
X78468Y105566D01*
X78379Y104890D01*
X78468Y104214D01*
X78596Y103905D01*
X78468Y103597D01*
X78379Y102921D01*
X78468Y102245D01*
X78696Y101696D01*
X78707Y101707D01*
X78861Y101573D01*
X79042Y101453D01*
X79248Y101347D01*
X79480Y101255D01*
X79737Y101177D01*
X80021Y101113D01*
X80331Y101064D01*
X81027Y101007D01*
X81414Y101000D01*
Y100308D01*
X86898D01*
X87383Y100372D01*
X110523D01*
X110768Y100127D01*
X110796Y100108D01*
X110824Y100017D01*
X110577Y99565D01*
X87383D01*
X86898Y99629D01*
X81414D01*
Y99000D01*
X81020Y98986D01*
X80638Y98943D01*
X80267Y98873D01*
X79908Y98774D01*
X79561Y98646D01*
X79225Y98491D01*
X78901Y98307D01*
X78653Y98138D01*
X78468Y97692D01*
X78379Y97016D01*
X78468Y96339D01*
X78596Y96031D01*
X78468Y95723D01*
X78379Y95047D01*
X78468Y94371D01*
X78596Y94063D01*
X78468Y93755D01*
X78379Y93079D01*
X78468Y92402D01*
X78596Y92094D01*
X78468Y91786D01*
X78379Y91110D01*
X78381Y91096D01*
X78426Y91034D01*
X78567Y90863D01*
X78764Y90652D01*
X78884Y90531D01*
X78548Y90241D01*
X78729Y89804D01*
X79145Y89263D01*
X79632Y88889D01*
X79000Y90414D01*
X79289Y90145D01*
X79589Y89905D01*
X79901Y89693D01*
X80225Y89509D01*
X80561Y89354D01*
X80908Y89226D01*
X81267Y89127D01*
X81638Y89057D01*
X82020Y89014D01*
X82414Y89000D01*
X81807Y88497D01*
X86898D01*
X87383Y88561D01*
X107343D01*
X107495Y88061D01*
X107379Y87984D01*
X86835Y67440D01*
X84426D01*
X84101Y67940D01*
X84212Y68500D01*
Y68609D01*
X84410Y69086D01*
X84530Y70000D01*
X84410Y70914D01*
X84212Y71390D01*
Y71609D01*
X84410Y72086D01*
X84530Y73000D01*
X84481Y73372D01*
X84878Y73676D01*
X85086Y73590D01*
X86000Y73470D01*
X86914Y73590D01*
X87765Y73943D01*
X88496Y74504D01*
X89057Y75235D01*
X89410Y76086D01*
X89530Y77000D01*
X89410Y77914D01*
X89167Y78500D01*
X89410Y79086D01*
X89530Y80000D01*
X89410Y80914D01*
X89057Y81765D01*
X88496Y82496D01*
X87765Y83057D01*
X86914Y83410D01*
X86000Y83530D01*
X85086Y83410D01*
X84235Y83057D01*
X83504Y82496D01*
X82943Y81765D01*
X82590Y80914D01*
X82470Y80000D01*
X82480Y79925D01*
X82150Y79549D01*
X81700D01*
X81440Y79763D01*
Y85008D01*
X81351Y85684D01*
X81090Y86314D01*
X80674Y86856D01*
X80234Y87194D01*
X80000Y87000D01*
Y87326D01*
X79503Y87532D01*
X78827Y87621D01*
X78150Y87532D01*
X77842Y87404D01*
X77535Y87532D01*
X76858Y87621D01*
X76182Y87532D01*
X75874Y87404D01*
X75566Y87532D01*
X75278Y87570D01*
Y91336D01*
X75496Y91504D01*
X76057Y92235D01*
X76410Y93086D01*
X76530Y94000D01*
X76410Y94914D01*
X76057Y95765D01*
X75496Y96496D01*
X75278Y96664D01*
Y108430D01*
X75566Y108468D01*
X75874Y108596D01*
X76182Y108468D01*
D02*
G37*
G36*
X242294Y89425D02*
X242430Y89327D01*
X242578Y89241D01*
X242739Y89166D01*
X242914Y89104D01*
X243101Y89053D01*
X243301Y89014D01*
X243515Y88987D01*
X243741Y88972D01*
X243980Y88968D01*
X242032Y87020D01*
X242028Y87259D01*
X242013Y87485D01*
X241986Y87699D01*
X241947Y87899D01*
X241896Y88086D01*
X241833Y88261D01*
X241759Y88422D01*
X241673Y88570D01*
X241575Y88706D01*
X241465Y88828D01*
X242172Y89535D01*
X242294Y89425D01*
D02*
G37*
G36*
X136555Y82722D02*
X136898Y83064D01*
X136902Y83019D01*
X136910Y82975D01*
X136920Y82933D01*
X136934Y82891D01*
X136951Y82851D01*
X136971Y82812D01*
X136993Y82774D01*
X137019Y82738D01*
X137048Y82702D01*
X137080Y82668D01*
X136584Y82172D01*
X136608Y81707D01*
X135193D01*
X135213Y81747D01*
X135231Y81825D01*
X135247Y81940D01*
X135273Y82284D01*
X135300Y83800D01*
X136500D01*
X136555Y82722D01*
D02*
G37*
G36*
X242594Y80622D02*
X242423Y80789D01*
X242252Y80938D01*
X242082Y81070D01*
X241912Y81184D01*
X241744Y81280D01*
X241577Y81359D01*
X241410Y81421D01*
X241244Y81465D01*
X241079Y81491D01*
X240915Y81500D01*
Y82500D01*
X241079Y82509D01*
X241244Y82535D01*
X241410Y82579D01*
X241577Y82640D01*
X241744Y82719D01*
X241912Y82816D01*
X242082Y82930D01*
X242252Y83062D01*
X242423Y83211D01*
X242594Y83378D01*
Y80622D01*
D02*
G37*
G36*
X86205Y78791D02*
X86650Y78648D01*
X86537Y78591D01*
X86353Y78486D01*
X86361Y78478D01*
X86395Y78458D01*
X86436Y78438D01*
X86486Y78419D01*
X86171Y78367D01*
X85891Y78157D01*
X85788Y78070D01*
X85775Y78057D01*
X85691Y77952D01*
X85625Y77846D01*
X85589Y77755D01*
X85582Y77677D01*
X85606Y77613D01*
X85659Y77564D01*
X85743Y77528D01*
X85856Y77507D01*
X86000Y77500D01*
X84929Y76964D01*
Y75950D01*
X84819Y76055D01*
X84707Y76148D01*
X84591Y76231D01*
X84471Y76302D01*
X84348Y76363D01*
X84223Y76412D01*
X84093Y76451D01*
X83961Y76478D01*
X83825Y76494D01*
X83686Y76500D01*
Y76760D01*
X82793Y77500D01*
X82990Y77507D01*
X83181Y77528D01*
X83367Y77564D01*
X83546Y77613D01*
X83720Y77677D01*
X83887Y77755D01*
X84049Y77846D01*
X84205Y77952D01*
X84356Y78073D01*
X84477Y78186D01*
X84559Y78275D01*
X84641Y78384D01*
X84706Y78493D01*
X84754Y78603D01*
X84785Y78714D01*
X84799Y78826D01*
X84796Y78938D01*
X84776Y79052D01*
X84739Y79165D01*
X84684Y79280D01*
X85456Y79032D01*
X85636Y79343D01*
X86205Y78791D01*
D02*
G37*
G36*
X206205Y77791D02*
X206650Y77648D01*
X206537Y77591D01*
X206353Y77486D01*
X206361Y77478D01*
X206395Y77458D01*
X206436Y77438D01*
X206486Y77419D01*
X206171Y77367D01*
X205891Y77157D01*
X205788Y77069D01*
X205775Y77057D01*
X205691Y76952D01*
X205625Y76846D01*
X205589Y76755D01*
X205582Y76677D01*
X205606Y76613D01*
X205659Y76564D01*
X205743Y76528D01*
X205856Y76507D01*
X206000Y76500D01*
X204929Y75964D01*
Y74950D01*
X204819Y75055D01*
X204707Y75148D01*
X204591Y75230D01*
X204471Y75302D01*
X204348Y75362D01*
X204222Y75412D01*
X204093Y75450D01*
X203961Y75478D01*
X203825Y75494D01*
X203686Y75500D01*
Y75760D01*
X202793Y76500D01*
X202990Y76507D01*
X203181Y76528D01*
X203366Y76564D01*
X203546Y76613D01*
X203720Y76677D01*
X203887Y76755D01*
X204049Y76846D01*
X204205Y76952D01*
X204356Y77073D01*
X204477Y77186D01*
X204559Y77275D01*
X204641Y77384D01*
X204706Y77493D01*
X204754Y77603D01*
X204785Y77714D01*
X204799Y77826D01*
X204796Y77938D01*
X204776Y78052D01*
X204739Y78165D01*
X204684Y78280D01*
X205456Y78032D01*
X205636Y78343D01*
X206205Y77791D01*
D02*
G37*
G36*
X242250Y79464D02*
X242619Y79151D01*
X242782Y79036D01*
X242930Y78951D01*
X243065Y78893D01*
X243184Y78863D01*
X243290Y78862D01*
X243381Y78889D01*
X243458Y78944D01*
X242056Y77542D01*
X242111Y77619D01*
X242138Y77710D01*
X242137Y77816D01*
X242107Y77935D01*
X242050Y78070D01*
X241964Y78218D01*
X241849Y78381D01*
X241706Y78559D01*
X241336Y78957D01*
X242043Y79664D01*
X242250Y79464D01*
D02*
G37*
G36*
X188289Y78145D02*
X188589Y77905D01*
X188901Y77693D01*
X189225Y77509D01*
X189561Y77354D01*
X189908Y77226D01*
X190267Y77127D01*
X190638Y77057D01*
X191020Y77014D01*
X191414Y77000D01*
X189000Y75000D01*
X185000Y77000D01*
X185298Y77003D01*
X185782Y77026D01*
X185968Y77047D01*
X186116Y77073D01*
X186227Y77105D01*
X186300Y77144D01*
X186335Y77188D01*
X186333Y77237D01*
X186293Y77293D01*
X188000Y78414D01*
X188289Y78145D01*
D02*
G37*
G36*
X64289D02*
X64589Y77905D01*
X64901Y77693D01*
X65225Y77509D01*
X65561Y77354D01*
X65908Y77226D01*
X66267Y77127D01*
X66638Y77057D01*
X67020Y77014D01*
X67414Y77000D01*
X65000Y75000D01*
X62000Y77000D01*
X62109Y77002D01*
X62202Y77009D01*
X62279Y77019D01*
X62341Y77034D01*
X62386Y77053D01*
X62415Y77077D01*
X62428Y77105D01*
X62425Y77137D01*
X62406Y77174D01*
X62372Y77214D01*
X64000Y78414D01*
X64289Y78145D01*
D02*
G37*
G36*
X201400Y74128D02*
X201403Y73123D01*
X200313D01*
X200330Y73158D01*
X200344Y73210D01*
X200358Y73280D01*
X200369Y73366D01*
X200386Y73592D01*
X200400Y74253D01*
X201400Y74128D01*
D02*
G37*
G36*
X77403Y73123D02*
X76313D01*
X76322Y73146D01*
X76329Y73188D01*
X76336Y73248D01*
X76351Y73540D01*
X76358Y74191D01*
X77358D01*
X77403Y73123D01*
D02*
G37*
G36*
X197250Y76000D02*
X194750Y72500D01*
X194730Y72975D01*
X194670Y73400D01*
X194570Y73775D01*
X194430Y74100D01*
X194250Y74375D01*
X194030Y74600D01*
X193770Y74775D01*
X193470Y74900D01*
X193130Y74975D01*
X192750Y75000D01*
Y77000D01*
X193130Y77025D01*
X193470Y77100D01*
X193770Y77225D01*
X194030Y77400D01*
X194250Y77625D01*
X194430Y77900D01*
X194570Y78225D01*
X194670Y78600D01*
X194730Y79025D01*
X194750Y79500D01*
X197250Y76000D01*
D02*
G37*
G36*
X73250D02*
X70750Y72500D01*
X70730Y72975D01*
X70670Y73400D01*
X70570Y73775D01*
X70430Y74100D01*
X70250Y74375D01*
X70030Y74600D01*
X69770Y74775D01*
X69470Y74900D01*
X69130Y74975D01*
X68750Y75000D01*
Y77000D01*
X69130Y77025D01*
X69470Y77100D01*
X69770Y77225D01*
X70030Y77400D01*
X70250Y77625D01*
X70430Y77900D01*
X70570Y78225D01*
X70670Y78600D01*
X70730Y79025D01*
X70750Y79500D01*
X73250Y76000D01*
D02*
G37*
G36*
X211121Y71824D02*
X211675Y71660D01*
X211573Y71607D01*
X211369Y71484D01*
X211347Y71468D01*
X211353Y71464D01*
X211377Y71453D01*
X211405Y71444D01*
X211269Y71415D01*
X211268Y71415D01*
X210961Y71176D01*
X210859Y71087D01*
X210795Y71026D01*
X210787Y71018D01*
X210689Y70897D01*
X210620Y70791D01*
X210580Y70699D01*
X210568Y70622D01*
X210586Y70558D01*
X210632Y70508D01*
X210708Y70473D01*
X210812Y70452D01*
X210945Y70445D01*
X209931Y69924D01*
X209968Y68911D01*
X209854Y69013D01*
X209737Y69103D01*
X209618Y69183D01*
X209496Y69253D01*
X209371Y69311D01*
X209244Y69359D01*
X209114Y69397D01*
X208980Y69424D01*
X208845Y69440D01*
X208706Y69445D01*
X208697Y69696D01*
X207793Y70445D01*
X207990Y70452D01*
X208181Y70473D01*
X208366Y70508D01*
X208546Y70558D01*
X208720Y70622D01*
X208887Y70699D01*
X209049Y70791D01*
X209205Y70897D01*
X209356Y71018D01*
X209495Y71148D01*
X209591Y71252D01*
X209673Y71360D01*
X209738Y71469D01*
X209786Y71579D01*
X209816Y71688D01*
X209828Y71798D01*
X209824Y71908D01*
X209802Y72019D01*
X209763Y72130D01*
X209706Y72241D01*
X210475Y72014D01*
X210647Y72298D01*
X211121Y71824D01*
D02*
G37*
G36*
X203912Y70488D02*
X204052Y70465D01*
X204224Y70450D01*
X204417Y70445D01*
Y69445D01*
X204224Y69440D01*
X204052Y69425D01*
X203901Y69400D01*
X203769Y69365D01*
X203762Y69362D01*
X203412Y69012D01*
X203405Y68945D01*
Y69005D01*
X203400Y69000D01*
Y71000D01*
X203912Y70488D01*
D02*
G37*
G36*
X188393Y69945D02*
X188403Y69872D01*
Y67414D01*
X189000D01*
X189014Y67020D01*
X189057Y66638D01*
X189127Y66267D01*
X189226Y65908D01*
X189354Y65561D01*
X189509Y65225D01*
X189693Y64901D01*
X189849Y64671D01*
X190340Y64468D01*
X191016Y64379D01*
X191692Y64468D01*
X192000Y64596D01*
X192308Y64468D01*
X192722Y64414D01*
Y53259D01*
X192235Y53057D01*
X191504Y52496D01*
X190943Y51765D01*
X190590Y50914D01*
X190470Y50000D01*
X190590Y49086D01*
X190943Y48235D01*
X191504Y47504D01*
X192235Y46943D01*
X192722Y46741D01*
Y43586D01*
X192308Y43532D01*
X192000Y43404D01*
X191692Y43532D01*
X191016Y43621D01*
X190340Y43532D01*
X190032Y43404D01*
X189724Y43532D01*
X189047Y43621D01*
X188371Y43532D01*
X188063Y43404D01*
X187755Y43532D01*
X187079Y43621D01*
X186402Y43532D01*
X186094Y43404D01*
X185786Y43532D01*
X185110Y43621D01*
X184434Y43532D01*
X183804Y43271D01*
X183263Y42856D01*
X182847Y42314D01*
X182586Y41684D01*
X182497Y41008D01*
Y35102D01*
X182569Y34560D01*
X182267Y34308D01*
X182124Y34255D01*
X181975Y34355D01*
X181000Y34549D01*
X176442D01*
X176360Y34601D01*
X175765Y35057D01*
X174914Y35410D01*
X174000Y35530D01*
X173086Y35410D01*
X172500Y35167D01*
X171914Y35410D01*
X171000Y35530D01*
X170086Y35410D01*
X169965Y35359D01*
X169549Y35637D01*
Y37600D01*
X169355Y38576D01*
X168802Y39402D01*
X163319Y44886D01*
X163638Y45274D01*
X164414Y44755D01*
X165390Y44561D01*
X172617D01*
X173102Y44497D01*
X179008D01*
X179684Y44586D01*
X180314Y44847D01*
X180856Y45263D01*
X181271Y45804D01*
X181532Y46434D01*
X181621Y47110D01*
X181532Y47787D01*
X181404Y48094D01*
X181532Y48403D01*
X181621Y49079D01*
X181532Y49755D01*
X181404Y50063D01*
X181532Y50371D01*
X181621Y51047D01*
X181532Y51723D01*
X181404Y52031D01*
X181532Y52340D01*
X181621Y53016D01*
X181607Y53122D01*
X181500Y53015D01*
X181494Y53035D01*
X181475Y53066D01*
X181443Y53108D01*
X181342Y53226D01*
X180988Y53597D01*
X180711Y53855D01*
X180411Y54095D01*
X180099Y54307D01*
X179775Y54491D01*
X179439Y54646D01*
X179092Y54774D01*
X178733Y54873D01*
X178362Y54943D01*
X177980Y54986D01*
X177586Y55000D01*
X178345Y55629D01*
X173102D01*
X172617Y55565D01*
X170540D01*
X170194Y55910D01*
X170386Y56372D01*
X172617D01*
X173102Y56308D01*
X179008D01*
X179195Y56333D01*
X180000Y57000D01*
X180406Y56729D01*
X180856Y57074D01*
X181271Y57615D01*
X181532Y58245D01*
X181621Y58921D01*
X181532Y59597D01*
X181404Y59905D01*
X181532Y60214D01*
X181621Y60890D01*
X181532Y61566D01*
X181404Y61874D01*
X181532Y62182D01*
X181621Y62858D01*
X181532Y63534D01*
X181404Y63842D01*
X181532Y64151D01*
X181569Y64431D01*
X181850Y64468D01*
X182158Y64596D01*
X182466Y64468D01*
X183142Y64379D01*
X183818Y64468D01*
X184126Y64596D01*
X184434Y64468D01*
X185110Y64379D01*
X185786Y64468D01*
X186313Y64687D01*
X186293Y64707D01*
X186427Y64862D01*
X186548Y65042D01*
X186653Y65248D01*
X186745Y65480D01*
X186823Y65737D01*
X186887Y66021D01*
X186936Y66331D01*
X186993Y67027D01*
X187000Y67414D01*
X187723D01*
Y72898D01*
X187790Y72974D01*
X188393D01*
Y69945D01*
D02*
G37*
G36*
X242294Y62425D02*
X242430Y62327D01*
X242578Y62241D01*
X242739Y62167D01*
X242914Y62104D01*
X243101Y62053D01*
X243301Y62014D01*
X243515Y61987D01*
X243741Y61972D01*
X243980Y61968D01*
X242032Y60020D01*
X242028Y60259D01*
X242013Y60485D01*
X241986Y60699D01*
X241947Y60899D01*
X241896Y61086D01*
X241833Y61261D01*
X241759Y61422D01*
X241673Y61570D01*
X241575Y61706D01*
X241465Y61828D01*
X242172Y62535D01*
X242294Y62425D01*
D02*
G37*
G36*
X114992Y60012D02*
X114982Y60027D01*
X114952Y60040D01*
X114902Y60052D01*
X114832Y60062D01*
X114632Y60078D01*
X113992Y60091D01*
Y61090D01*
X114182Y61091D01*
X114952Y61141D01*
X114982Y61154D01*
X114992Y61169D01*
Y60012D01*
D02*
G37*
G36*
X18955Y57905D02*
X18985Y57820D01*
X19036Y57745D01*
X19106Y57680D01*
X19197Y57625D01*
X19309Y57580D01*
X19440Y57545D01*
X19592Y57520D01*
X19764Y57505D01*
X19956Y57500D01*
Y56500D01*
X19764Y56495D01*
X19592Y56480D01*
X19440Y56455D01*
X19309Y56420D01*
X19197Y56375D01*
X19106Y56320D01*
X19036Y56255D01*
X18985Y56180D01*
X18955Y56095D01*
X18945Y56000D01*
Y58000D01*
X18955Y57905D01*
D02*
G37*
G36*
X19788Y53081D02*
X19697Y52982D01*
X19606Y52866D01*
X19513Y52732D01*
X19326Y52413D01*
X19231Y52227D01*
X18942Y51566D01*
X18844Y51311D01*
X17725Y53830D01*
X17922Y53761D01*
X18111Y53713D01*
X18293Y53685D01*
X18468Y53678D01*
X18636Y53692D01*
X18796Y53727D01*
X18949Y53782D01*
X19095Y53859D01*
X19234Y53955D01*
X19366Y54073D01*
X19788Y53081D01*
D02*
G37*
G36*
X242594Y53622D02*
X242423Y53789D01*
X242252Y53938D01*
X242082Y54070D01*
X241912Y54184D01*
X241744Y54281D01*
X241577Y54360D01*
X241410Y54421D01*
X241244Y54465D01*
X241079Y54491D01*
X240915Y54500D01*
Y55500D01*
X241079Y55509D01*
X241244Y55535D01*
X241410Y55579D01*
X241577Y55641D01*
X241744Y55720D01*
X241912Y55816D01*
X242082Y55930D01*
X242252Y56062D01*
X242423Y56211D01*
X242594Y56378D01*
Y53622D01*
D02*
G37*
G36*
X136357Y53404D02*
X136411Y53386D01*
X137403Y53318D01*
X137632Y53316D01*
X138832Y52117D01*
X138612Y52108D01*
X138434Y52083D01*
X138296Y52040D01*
X138200Y51981D01*
X138144Y51904D01*
X138129Y51811D01*
X138156Y51701D01*
X138223Y51573D01*
X138331Y51429D01*
X138480Y51268D01*
X135759Y52292D01*
X136324Y53424D01*
X136357Y53404D01*
D02*
G37*
G36*
X242294Y52425D02*
X242430Y52327D01*
X242578Y52241D01*
X242739Y52166D01*
X242914Y52104D01*
X243101Y52053D01*
X243301Y52014D01*
X243515Y51987D01*
X243741Y51972D01*
X243980Y51968D01*
X242032Y50020D01*
X242028Y50259D01*
X242013Y50485D01*
X241986Y50699D01*
X241947Y50899D01*
X241896Y51086D01*
X241833Y51261D01*
X241759Y51422D01*
X241673Y51570D01*
X241575Y51706D01*
X241465Y51828D01*
X242172Y52535D01*
X242294Y52425D01*
D02*
G37*
G36*
X111507Y49010D02*
X111528Y48819D01*
X111564Y48634D01*
X111613Y48454D01*
X111677Y48280D01*
X111755Y48112D01*
X111846Y47951D01*
X111952Y47795D01*
X112073Y47644D01*
X112207Y47500D01*
X111707Y46586D01*
X111566Y46713D01*
X111424Y46812D01*
X111283Y46883D01*
X111141Y46925D01*
X111000Y46939D01*
X110859Y46925D01*
X110717Y46883D01*
X110576Y46812D01*
X110434Y46713D01*
X110293Y46586D01*
X109793Y47500D01*
X109927Y47644D01*
X110047Y47795D01*
X110153Y47951D01*
X110245Y48112D01*
X110323Y48280D01*
X110387Y48454D01*
X110436Y48634D01*
X110472Y48819D01*
X110493Y49010D01*
X110500Y49207D01*
X111500D01*
X111507Y49010D01*
D02*
G37*
G36*
X18577Y48211D02*
X18748Y48062D01*
X18918Y47930D01*
X19087Y47816D01*
X19256Y47719D01*
X19423Y47640D01*
X19590Y47579D01*
X19756Y47535D01*
X19921Y47509D01*
X20085Y47500D01*
Y46500D01*
X19921Y46491D01*
X19756Y46465D01*
X19590Y46421D01*
X19423Y46360D01*
X19256Y46281D01*
X19087Y46184D01*
X18918Y46070D01*
X18748Y45938D01*
X18577Y45789D01*
X18406Y45622D01*
Y48378D01*
X18577Y48211D01*
D02*
G37*
G36*
X243980Y43032D02*
X243741Y43028D01*
X243515Y43013D01*
X243301Y42986D01*
X243101Y42947D01*
X242914Y42896D01*
X242739Y42834D01*
X242578Y42759D01*
X242430Y42673D01*
X242294Y42575D01*
X242172Y42465D01*
X241465Y43172D01*
X241575Y43294D01*
X241673Y43430D01*
X241759Y43578D01*
X241833Y43739D01*
X241896Y43914D01*
X241947Y44101D01*
X241986Y44301D01*
X242013Y44515D01*
X242028Y44741D01*
X242032Y44980D01*
X243980Y43032D01*
D02*
G37*
G36*
X19535Y43828D02*
X19425Y43706D01*
X19327Y43570D01*
X19241Y43422D01*
X19166Y43261D01*
X19104Y43086D01*
X19053Y42899D01*
X19014Y42699D01*
X18987Y42485D01*
X18972Y42259D01*
X18968Y42020D01*
X17020Y43968D01*
X17259Y43972D01*
X17485Y43987D01*
X17699Y44014D01*
X17899Y44053D01*
X18086Y44104D01*
X18261Y44166D01*
X18422Y44241D01*
X18570Y44327D01*
X18706Y44425D01*
X18828Y44535D01*
X19535Y43828D01*
D02*
G37*
G36*
X150056Y40048D02*
X150043Y40162D01*
X150007Y40264D01*
X149946Y40354D01*
X149862Y40432D01*
X149752Y40498D01*
X149619Y40552D01*
X149462Y40594D01*
X149280Y40624D01*
X149074Y40642D01*
X148844Y40648D01*
Y41848D01*
X149074Y41854D01*
X149280Y41872D01*
X149462Y41902D01*
X149619Y41944D01*
X149752Y41998D01*
X149862Y42064D01*
X149946Y42142D01*
X150007Y42232D01*
X150043Y42334D01*
X150056Y42448D01*
Y40048D01*
D02*
G37*
G36*
X242294Y37425D02*
X242430Y37327D01*
X242578Y37241D01*
X242739Y37167D01*
X242914Y37104D01*
X243101Y37053D01*
X243301Y37014D01*
X243515Y36987D01*
X243741Y36972D01*
X243980Y36968D01*
X242032Y35020D01*
X242028Y35259D01*
X242013Y35485D01*
X241986Y35699D01*
X241947Y35899D01*
X241896Y36086D01*
X241833Y36261D01*
X241759Y36422D01*
X241673Y36570D01*
X241575Y36706D01*
X241465Y36828D01*
X242172Y37535D01*
X242294Y37425D01*
D02*
G37*
G36*
X160407Y34110D02*
X160428Y33919D01*
X160464Y33733D01*
X160513Y33554D01*
X160577Y33380D01*
X160655Y33213D01*
X160656Y33210D01*
X160736Y33193D01*
X160840Y33187D01*
X160946Y33196D01*
X161055Y33221D01*
X161166Y33261D01*
X161280Y33316D01*
X161064Y32646D01*
X161107Y32600D01*
X161075Y32534D01*
X161210Y32510D01*
X161400Y32500D01*
Y31500D01*
X161210Y31490D01*
X161075Y31466D01*
X161107Y31400D01*
X161064Y31354D01*
X161280Y30684D01*
X161166Y30739D01*
X161055Y30779D01*
X160946Y30804D01*
X160840Y30813D01*
X160736Y30807D01*
X160656Y30790D01*
X160655Y30788D01*
X160577Y30620D01*
X160513Y30446D01*
X160464Y30266D01*
X160428Y30081D01*
X160407Y29891D01*
X160420Y29746D01*
X160445Y29596D01*
X160480Y29466D01*
X160525Y29356D01*
X160580Y29266D01*
X160645Y29196D01*
X160720Y29146D01*
X160805Y29116D01*
X160900Y29106D01*
X158900D01*
X158995Y29116D01*
X159080Y29146D01*
X159155Y29196D01*
X159220Y29266D01*
X159275Y29356D01*
X159320Y29466D01*
X159355Y29596D01*
X159380Y29746D01*
X159393Y29891D01*
X159372Y30081D01*
X159336Y30266D01*
X159287Y30446D01*
X159223Y30620D01*
X159145Y30788D01*
X159074Y30914D01*
X159023Y30936D01*
X158920Y30964D01*
X158819Y30972D01*
X158719Y30963D01*
X158622Y30935D01*
X158525Y30889D01*
X158431Y30824D01*
X158548Y31492D01*
X158400Y31500D01*
Y32500D01*
X158548Y32508D01*
X158431Y33176D01*
X158525Y33111D01*
X158622Y33065D01*
X158719Y33037D01*
X158819Y33027D01*
X158920Y33037D01*
X159023Y33064D01*
X159074Y33086D01*
X159145Y33213D01*
X159223Y33380D01*
X159287Y33554D01*
X159336Y33733D01*
X159372Y33919D01*
X159393Y34110D01*
X159400Y34307D01*
X160400D01*
X160407Y34110D01*
D02*
G37*
G36*
X172929Y32545D02*
X173039Y32522D01*
X173175Y32506D01*
X173314Y32500D01*
Y31500D01*
X173175Y31495D01*
X173039Y31478D01*
X172929Y31455D01*
Y30950D01*
X172819Y31054D01*
X172706Y31148D01*
X172590Y31231D01*
X172500Y31285D01*
X172409Y31231D01*
X172293Y31148D01*
X172181Y31054D01*
X172071Y30950D01*
Y31455D01*
X171961Y31478D01*
X171825Y31495D01*
X171686Y31500D01*
Y32500D01*
X171825Y32506D01*
X171961Y32522D01*
X172071Y32545D01*
Y33050D01*
X172181Y32945D01*
X172293Y32852D01*
X172409Y32770D01*
X172500Y32715D01*
X172590Y32770D01*
X172706Y32852D01*
X172819Y32945D01*
X172929Y33050D01*
Y32545D01*
D02*
G37*
G36*
X76182Y64468D02*
X76858Y64379D01*
X77535Y64468D01*
X77842Y64596D01*
X78150Y64468D01*
X78431Y64431D01*
X78468Y64151D01*
X78596Y63842D01*
X78468Y63534D01*
X78379Y62858D01*
X78468Y62182D01*
X78596Y61874D01*
X78468Y61566D01*
X78379Y60890D01*
X78468Y60214D01*
X78596Y59905D01*
X78468Y59597D01*
X78379Y58921D01*
X78468Y58245D01*
X78729Y57615D01*
X79145Y57074D01*
X79686Y56658D01*
X80316Y56397D01*
X80992Y56308D01*
X86898D01*
X87383Y56372D01*
X89114D01*
X89306Y55910D01*
X88960Y55565D01*
X87383D01*
X86898Y55629D01*
X80992D01*
X80316Y55540D01*
X79686Y55279D01*
X79145Y54863D01*
X79078Y54776D01*
X79134Y54720D01*
X78689Y54225D01*
X78468Y53692D01*
X78379Y53016D01*
X78468Y52340D01*
X78596Y52031D01*
X78468Y51723D01*
X78379Y51047D01*
X78468Y50371D01*
X78596Y50063D01*
X78468Y49755D01*
X78379Y49079D01*
X78468Y48403D01*
X78596Y48094D01*
X78468Y47787D01*
X78379Y47110D01*
X78381Y47096D01*
X78426Y47034D01*
X78567Y46863D01*
X78764Y46652D01*
X78884Y46531D01*
X78548Y46241D01*
X78729Y45804D01*
X79145Y45263D01*
X79686Y44847D01*
X80316Y44586D01*
X80992Y44497D01*
X86898D01*
X87383Y44561D01*
X94110D01*
X95086Y44755D01*
X95913Y45308D01*
X107989Y57384D01*
X108451Y57193D01*
Y49108D01*
X108449Y49096D01*
X108443Y49077D01*
X108438Y49061D01*
X108431Y49046D01*
X108421Y49029D01*
X108414Y49019D01*
X89944Y30549D01*
X76141D01*
X75807Y31049D01*
X75844Y31138D01*
X75947Y31921D01*
Y32181D01*
X76447Y32544D01*
X76858Y32489D01*
X77535Y32579D01*
X77842Y32706D01*
X78150Y32579D01*
X78827Y32489D01*
X79503Y32579D01*
X80133Y32840D01*
X80674Y33255D01*
X81090Y33796D01*
X81351Y34426D01*
X81440Y35102D01*
Y41008D01*
X81351Y41684D01*
X81090Y42314D01*
X80674Y42856D01*
X80133Y43271D01*
X79503Y43532D01*
X78827Y43621D01*
X78150Y43532D01*
X77842Y43404D01*
X77535Y43532D01*
X76858Y43621D01*
X76182Y43532D01*
X75874Y43404D01*
X75566Y43532D01*
X75278Y43570D01*
Y47336D01*
X75496Y47504D01*
X76057Y48235D01*
X76410Y49086D01*
X76530Y50000D01*
X76410Y50914D01*
X76057Y51765D01*
X75496Y52496D01*
X75278Y52664D01*
Y64430D01*
X75566Y64468D01*
X75874Y64596D01*
X76182Y64468D01*
D02*
G37*
G36*
X152905Y32896D02*
X152820Y32865D01*
X152745Y32815D01*
X152680Y32744D01*
X152625Y32653D01*
X152580Y32542D01*
X152545Y32410D01*
X152520Y32258D01*
X152505Y32086D01*
X152500Y31894D01*
X151500D01*
X151495Y32086D01*
X151480Y32258D01*
X151455Y32410D01*
X151420Y32542D01*
X151375Y32653D01*
X151320Y32744D01*
X151255Y32815D01*
X151180Y32865D01*
X151095Y32896D01*
X151000Y32906D01*
X153000D01*
X152905Y32896D01*
D02*
G37*
G36*
X175181Y32945D02*
X175294Y32852D01*
X175409Y32770D01*
X175529Y32698D01*
X175652Y32638D01*
X175777Y32588D01*
X175907Y32550D01*
X176039Y32522D01*
X176175Y32506D01*
X176314Y32500D01*
Y31500D01*
X176175Y31495D01*
X176039Y31478D01*
X175907Y31451D01*
X175777Y31412D01*
X175652Y31363D01*
X175529Y31302D01*
X175409Y31231D01*
X175294Y31148D01*
X175181Y31054D01*
X175071Y30950D01*
Y33050D01*
X175181Y32945D01*
D02*
G37*
G36*
X167505Y29916D02*
X167520Y29746D01*
X167545Y29596D01*
X167580Y29466D01*
X167625Y29356D01*
X167680Y29266D01*
X167745Y29196D01*
X167820Y29146D01*
X167905Y29116D01*
X168000Y29106D01*
X166043D01*
X166130Y29116D01*
X166208Y29146D01*
X166276Y29196D01*
X166336Y29266D01*
X166386Y29356D01*
X166427Y29466D01*
X166459Y29596D01*
X166482Y29746D01*
X166495Y29916D01*
X166500Y30106D01*
X167500D01*
X167505Y29916D01*
D02*
G37*
G36*
X152505D02*
X152520Y29746D01*
X152545Y29596D01*
X152580Y29466D01*
X152625Y29356D01*
X152680Y29266D01*
X152745Y29196D01*
X152820Y29146D01*
X152905Y29116D01*
X153000Y29106D01*
X151000D01*
X151095Y29116D01*
X151180Y29146D01*
X151255Y29196D01*
X151320Y29266D01*
X151375Y29356D01*
X151420Y29466D01*
X151455Y29596D01*
X151480Y29746D01*
X151495Y29916D01*
X151500Y30106D01*
X152500D01*
X152505Y29916D01*
D02*
G37*
G36*
X242594Y28622D02*
X242423Y28789D01*
X242252Y28938D01*
X242082Y29070D01*
X241912Y29184D01*
X241744Y29280D01*
X241577Y29359D01*
X241410Y29421D01*
X241244Y29465D01*
X241079Y29491D01*
X240915Y29500D01*
Y30500D01*
X241079Y30509D01*
X241244Y30535D01*
X241410Y30579D01*
X241577Y30641D01*
X241744Y30720D01*
X241912Y30816D01*
X242082Y30930D01*
X242252Y31062D01*
X242423Y31211D01*
X242594Y31378D01*
Y28622D01*
D02*
G37*
G36*
X204871Y28614D02*
X204873Y28616D01*
X204983Y28699D01*
X205088Y28795D01*
X205612Y27905D01*
X205597Y27889D01*
X205985Y27500D01*
X205834Y27497D01*
X205688Y27483D01*
X205547Y27459D01*
X205413Y27425D01*
X205283Y27381D01*
X205209Y27349D01*
X205151Y27231D01*
X205095Y27097D01*
X205000Y26812D01*
X204961Y26661D01*
X204737Y27029D01*
X204717Y27010D01*
X204010Y27717D01*
X204104Y27819D01*
X204189Y27927D01*
X204189Y27928D01*
X203868Y28454D01*
X204007Y28426D01*
X204141Y28411D01*
X204273Y28410D01*
X204400Y28424D01*
X204430Y28430D01*
X204459Y28547D01*
X204483Y28688D01*
X204497Y28834D01*
X204500Y28985D01*
X204871Y28614D01*
D02*
G37*
G36*
X58181Y28945D02*
X58293Y28852D01*
X58410Y28769D01*
X58529Y28698D01*
X58652Y28637D01*
X58777Y28588D01*
X58907Y28550D01*
X59039Y28522D01*
X59175Y28506D01*
X59314Y28500D01*
Y27500D01*
X59175Y27494D01*
X59039Y27478D01*
X58907Y27450D01*
X58777Y27412D01*
X58652Y27362D01*
X58529Y27302D01*
X58410Y27231D01*
X58293Y27148D01*
X58181Y27055D01*
X58071Y26950D01*
Y29050D01*
X58181Y28945D01*
D02*
G37*
G36*
X150056Y26248D02*
X150045Y26343D01*
X150015Y26428D01*
X149964Y26503D01*
X149894Y26568D01*
X149802Y26623D01*
X149691Y26668D01*
X149560Y26703D01*
X149408Y26728D01*
X149236Y26743D01*
X149044Y26748D01*
Y27748D01*
X149236Y27753D01*
X149408Y27768D01*
X149560Y27793D01*
X149691Y27828D01*
X149802Y27873D01*
X149894Y27928D01*
X149964Y27993D01*
X150015Y28068D01*
X150045Y28153D01*
X150056Y28248D01*
Y26248D01*
D02*
G37*
G36*
X202429Y25950D02*
X202319Y26054D01*
X202206Y26148D01*
X202091Y26230D01*
X201971Y26302D01*
X201849Y26362D01*
X201723Y26412D01*
X201593Y26450D01*
X201461Y26478D01*
X201325Y26495D01*
X201186Y26500D01*
Y27500D01*
X201325Y27505D01*
X201461Y27522D01*
X201593Y27549D01*
X201723Y27588D01*
X201849Y27637D01*
X201971Y27698D01*
X202091Y27770D01*
X202206Y27852D01*
X202319Y27946D01*
X202429Y28050D01*
Y25950D01*
D02*
G37*
G36*
X174056Y25921D02*
X174045Y26016D01*
X174015Y26101D01*
X173964Y26176D01*
X173894Y26241D01*
X173802Y26296D01*
X173691Y26341D01*
X173560Y26376D01*
X173408Y26401D01*
X173236Y26416D01*
X173044Y26421D01*
Y27421D01*
X173236Y27426D01*
X173408Y27441D01*
X173560Y27466D01*
X173691Y27501D01*
X173802Y27546D01*
X173894Y27601D01*
X173964Y27666D01*
X174015Y27741D01*
X174045Y27826D01*
X174056Y27921D01*
Y25921D01*
D02*
G37*
G36*
X169955Y27826D02*
X169985Y27741D01*
X170036Y27666D01*
X170106Y27601D01*
X170197Y27546D01*
X170309Y27501D01*
X170440Y27466D01*
X170592Y27441D01*
X170764Y27426D01*
X170957Y27421D01*
Y26421D01*
X170764Y26416D01*
X170592Y26401D01*
X170440Y26376D01*
X170309Y26341D01*
X170197Y26296D01*
X170106Y26241D01*
X170036Y26176D01*
X169985Y26101D01*
X169955Y26016D01*
X169945Y25921D01*
Y27921D01*
X169955Y27826D01*
D02*
G37*
G36*
X242250Y27464D02*
X242619Y27151D01*
X242782Y27036D01*
X242930Y26950D01*
X243065Y26893D01*
X243184Y26863D01*
X243290Y26862D01*
X243381Y26889D01*
X243458Y26945D01*
X242056Y25542D01*
X242111Y25619D01*
X242138Y25710D01*
X242137Y25815D01*
X242107Y25935D01*
X242050Y26070D01*
X241964Y26218D01*
X241849Y26381D01*
X241706Y26559D01*
X241336Y26956D01*
X242043Y27664D01*
X242250Y27464D01*
D02*
G37*
G36*
X209929Y22545D02*
X210039Y22522D01*
X210175Y22505D01*
X210314Y22500D01*
Y21500D01*
X210175Y21495D01*
X210039Y21478D01*
X209929Y21455D01*
Y20950D01*
X209819Y21055D01*
X209707Y21148D01*
X209591Y21230D01*
X209500Y21285D01*
X209409Y21230D01*
X209293Y21148D01*
X209181Y21055D01*
X209071Y20950D01*
X208000Y22000D01*
X209071Y23050D01*
X209181Y22945D01*
X209293Y22852D01*
X209409Y22770D01*
X209500Y22715D01*
X209591Y22770D01*
X209707Y22852D01*
X209819Y22945D01*
X209929Y23050D01*
Y22545D01*
D02*
G37*
G36*
X19535Y23828D02*
X19425Y23706D01*
X19327Y23570D01*
X19241Y23422D01*
X19166Y23261D01*
X19104Y23086D01*
X19053Y22899D01*
X19014Y22699D01*
X18987Y22485D01*
X18972Y22259D01*
X18968Y22020D01*
X17020Y23968D01*
X17259Y23972D01*
X17485Y23987D01*
X17699Y24014D01*
X17899Y24053D01*
X18086Y24104D01*
X18261Y24167D01*
X18422Y24241D01*
X18570Y24327D01*
X18706Y24425D01*
X18828Y24535D01*
X19535Y23828D01*
D02*
G37*
G36*
X177955Y22905D02*
X177985Y22820D01*
X178036Y22745D01*
X178106Y22680D01*
X178198Y22625D01*
X178309Y22580D01*
X178440Y22545D01*
X178592Y22520D01*
X178764Y22505D01*
X178956Y22500D01*
Y21500D01*
X178764Y21495D01*
X178592Y21480D01*
X178440Y21455D01*
X178309Y21420D01*
X178198Y21375D01*
X178106Y21320D01*
X178036Y21255D01*
X177985Y21180D01*
X177955Y21095D01*
X177945Y21000D01*
Y23000D01*
X177955Y22905D01*
D02*
G37*
G36*
X208000Y22000D02*
X206929Y20950D01*
X206819Y21055D01*
X206707Y21148D01*
X206591Y21230D01*
X206471Y21302D01*
X206348Y21362D01*
X206223Y21412D01*
X206093Y21451D01*
X205961Y21478D01*
X205825Y21495D01*
X205686Y21500D01*
Y22500D01*
X205825Y22505D01*
X205961Y22522D01*
X206093Y22549D01*
X206223Y22588D01*
X206348Y22637D01*
X206471Y22698D01*
X206591Y22770D01*
X206707Y22852D01*
X206819Y22945D01*
X206929Y23050D01*
X208000Y22000D01*
D02*
G37*
G36*
X19535Y18828D02*
X19425Y18706D01*
X19327Y18570D01*
X19241Y18422D01*
X19166Y18261D01*
X19104Y18086D01*
X19053Y17899D01*
X19014Y17699D01*
X18987Y17485D01*
X18972Y17259D01*
X18968Y17020D01*
X17020Y18968D01*
X17259Y18972D01*
X17485Y18987D01*
X17699Y19014D01*
X17899Y19053D01*
X18086Y19104D01*
X18261Y19166D01*
X18422Y19241D01*
X18570Y19327D01*
X18706Y19425D01*
X18828Y19535D01*
X19535Y18828D01*
D02*
G37*
G36*
X176929Y9545D02*
X177039Y9522D01*
X177175Y9505D01*
X177314Y9500D01*
Y8500D01*
X177175Y8495D01*
X177039Y8478D01*
X176929Y8455D01*
Y7950D01*
X176819Y8055D01*
X176707Y8148D01*
X176591Y8230D01*
X176500Y8285D01*
X176409Y8230D01*
X176294Y8148D01*
X176181Y8055D01*
X176071Y7950D01*
X175000Y9000D01*
X176071Y10050D01*
X176181Y9945D01*
X176294Y9852D01*
X176409Y9770D01*
X176500Y9715D01*
X176591Y9770D01*
X176707Y9852D01*
X176819Y9945D01*
X176929Y10050D01*
Y9545D01*
D02*
G37*
G36*
X175000Y9000D02*
X173929Y7950D01*
X173819Y8055D01*
X173706Y8148D01*
X173591Y8230D01*
X173471Y8302D01*
X173348Y8363D01*
X173222Y8412D01*
X173093Y8450D01*
X172961Y8478D01*
X172825Y8495D01*
X172686Y8500D01*
Y9500D01*
X172825Y9505D01*
X172961Y9522D01*
X173093Y9550D01*
X173222Y9588D01*
X173348Y9638D01*
X173471Y9698D01*
X173591Y9770D01*
X173706Y9852D01*
X173819Y9945D01*
X173929Y10050D01*
X175000Y9000D01*
D02*
G37*
G36*
X211506Y6675D02*
X211522Y6539D01*
X211545Y6429D01*
X212050D01*
X211946Y6319D01*
X211852Y6207D01*
X211770Y6090D01*
X211715Y6000D01*
X211770Y5909D01*
X211852Y5793D01*
X211946Y5681D01*
X212050Y5571D01*
X211545D01*
X211522Y5461D01*
X211506Y5325D01*
X211500Y5186D01*
X210500D01*
X210494Y5325D01*
X210478Y5461D01*
X210455Y5571D01*
X209950D01*
X210054Y5681D01*
X210148Y5793D01*
X210230Y5909D01*
X210285Y6000D01*
X210230Y6090D01*
X210148Y6207D01*
X210054Y6319D01*
X209950Y6429D01*
X210455D01*
X210478Y6539D01*
X210494Y6675D01*
X210500Y6814D01*
X211500D01*
X211506Y6675D01*
D02*
G37*
G36*
X82006D02*
X82022Y6539D01*
X82045Y6429D01*
X82550D01*
X82446Y6319D01*
X82352Y6207D01*
X82270Y6090D01*
X82215Y6000D01*
X82270Y5909D01*
X82352Y5793D01*
X82446Y5681D01*
X82550Y5571D01*
X82045D01*
X82022Y5461D01*
X82006Y5325D01*
X82000Y5186D01*
X81000D01*
X80994Y5325D01*
X80978Y5461D01*
X80955Y5571D01*
X80450D01*
X80554Y5681D01*
X80648Y5793D01*
X80730Y5909D01*
X80785Y6000D01*
X80730Y6090D01*
X80648Y6207D01*
X80554Y6319D01*
X80450Y6429D01*
X80955D01*
X80978Y6539D01*
X80994Y6675D01*
X81000Y6814D01*
X82000D01*
X82006Y6675D01*
D02*
G37*
G36*
X209929Y3450D02*
X209819Y3554D01*
X209707Y3648D01*
X209591Y3731D01*
X209471Y3802D01*
X209349Y3862D01*
X209223Y3912D01*
X209093Y3951D01*
X208961Y3978D01*
X208825Y3994D01*
X208686Y4000D01*
Y5000D01*
X208825Y5006D01*
X208961Y5022D01*
X209093Y5049D01*
X209223Y5088D01*
X209349Y5138D01*
X209471Y5198D01*
X209591Y5269D01*
X209707Y5352D01*
X209819Y5446D01*
X209929Y5550D01*
Y3450D01*
D02*
G37*
G36*
X82681Y5446D02*
X82793Y5352D01*
X82910Y5269D01*
X83029Y5198D01*
X83152Y5138D01*
X83277Y5088D01*
X83407Y5049D01*
X83539Y5022D01*
X83675Y5006D01*
X83814Y5000D01*
Y4000D01*
X83675Y3994D01*
X83539Y3978D01*
X83407Y3951D01*
X83277Y3912D01*
X83152Y3862D01*
X83029Y3802D01*
X82910Y3731D01*
X82793Y3648D01*
X82681Y3554D01*
X82571Y3450D01*
Y5550D01*
X82681Y5446D01*
D02*
G37*
%LPC*%
G36*
X78741Y184614D02*
X78463Y184475D01*
X78468Y184434D01*
X78729Y183804D01*
X78835Y183666D01*
X78741Y184614D01*
D02*
G37*
%LPD*%
G36*
X19535Y85828D02*
X19425Y85706D01*
X19327Y85570D01*
X19241Y85422D01*
X19166Y85261D01*
X19104Y85086D01*
X19053Y84899D01*
X19014Y84699D01*
X18987Y84485D01*
X18972Y84259D01*
X18968Y84020D01*
X17020Y85968D01*
X17259Y85972D01*
X17485Y85987D01*
X17699Y86014D01*
X17899Y86053D01*
X18086Y86104D01*
X18261Y86167D01*
X18422Y86241D01*
X18570Y86327D01*
X18706Y86425D01*
X18828Y86535D01*
X19535Y85828D01*
D02*
G37*
G36*
X18577Y80211D02*
X18748Y80062D01*
X18918Y79930D01*
X19087Y79816D01*
X19256Y79720D01*
X19423Y79641D01*
X19590Y79579D01*
X19756Y79535D01*
X19921Y79509D01*
X20085Y79500D01*
Y78500D01*
X19921Y78491D01*
X19756Y78465D01*
X19590Y78421D01*
X19423Y78360D01*
X19256Y78281D01*
X19087Y78184D01*
X18918Y78070D01*
X18748Y77938D01*
X18577Y77789D01*
X18406Y77622D01*
Y80378D01*
X18577Y80211D01*
D02*
G37*
G36*
X19535Y75828D02*
X19425Y75706D01*
X19327Y75570D01*
X19241Y75422D01*
X19166Y75261D01*
X19104Y75086D01*
X19053Y74899D01*
X19014Y74699D01*
X18987Y74485D01*
X18972Y74259D01*
X18968Y74020D01*
X17020Y75968D01*
X17259Y75972D01*
X17485Y75987D01*
X17699Y76014D01*
X17899Y76053D01*
X18086Y76104D01*
X18261Y76166D01*
X18422Y76241D01*
X18570Y76327D01*
X18706Y76425D01*
X18828Y76535D01*
X19535Y75828D01*
D02*
G37*
D10*
X152000Y20752D02*
D03*
Y27248D02*
D03*
X160000Y20752D02*
D03*
Y27248D02*
D03*
X168000Y20752D02*
D03*
Y27248D02*
D03*
X152000Y34752D02*
D03*
Y41248D02*
D03*
D11*
X176000Y26921D02*
D03*
Y22000D02*
D03*
Y17079D02*
D03*
D12*
X83945Y202827D02*
D03*
Y200858D02*
D03*
Y198890D02*
D03*
Y196921D02*
D03*
Y194953D02*
D03*
Y192984D02*
D03*
Y191016D02*
D03*
Y189047D02*
D03*
Y187079D02*
D03*
Y185110D02*
D03*
Y183142D02*
D03*
Y181173D02*
D03*
X52055D02*
D03*
Y183142D02*
D03*
Y185110D02*
D03*
Y187079D02*
D03*
Y189047D02*
D03*
Y191016D02*
D03*
Y192984D02*
D03*
Y194953D02*
D03*
Y196921D02*
D03*
Y198890D02*
D03*
Y200858D02*
D03*
Y202827D02*
D03*
X207945D02*
D03*
Y200858D02*
D03*
Y198890D02*
D03*
Y196921D02*
D03*
Y194953D02*
D03*
Y192984D02*
D03*
Y191016D02*
D03*
Y189047D02*
D03*
Y187079D02*
D03*
Y185110D02*
D03*
Y183142D02*
D03*
Y181173D02*
D03*
X176055D02*
D03*
Y183142D02*
D03*
Y185110D02*
D03*
Y187079D02*
D03*
Y189047D02*
D03*
Y191016D02*
D03*
Y192984D02*
D03*
Y194953D02*
D03*
Y196921D02*
D03*
Y198890D02*
D03*
Y200858D02*
D03*
Y202827D02*
D03*
X207945Y158827D02*
D03*
Y156858D02*
D03*
Y154890D02*
D03*
Y152921D02*
D03*
Y150953D02*
D03*
Y148984D02*
D03*
Y147016D02*
D03*
Y145047D02*
D03*
Y143079D02*
D03*
Y141110D02*
D03*
Y139142D02*
D03*
Y137173D02*
D03*
X176055D02*
D03*
Y139142D02*
D03*
Y141110D02*
D03*
Y143079D02*
D03*
Y145047D02*
D03*
Y147016D02*
D03*
Y148984D02*
D03*
Y150953D02*
D03*
Y152921D02*
D03*
Y154890D02*
D03*
Y156858D02*
D03*
Y158827D02*
D03*
X207945Y108827D02*
D03*
Y106858D02*
D03*
Y104890D02*
D03*
Y102921D02*
D03*
Y100953D02*
D03*
Y98984D02*
D03*
Y97016D02*
D03*
Y95047D02*
D03*
Y93079D02*
D03*
Y91110D02*
D03*
Y89142D02*
D03*
Y87173D02*
D03*
X176055D02*
D03*
Y89142D02*
D03*
Y91110D02*
D03*
Y93079D02*
D03*
Y95047D02*
D03*
Y97016D02*
D03*
Y98984D02*
D03*
Y100953D02*
D03*
Y102921D02*
D03*
Y104890D02*
D03*
Y106858D02*
D03*
Y108827D02*
D03*
X207945Y64827D02*
D03*
Y62858D02*
D03*
Y60890D02*
D03*
Y58921D02*
D03*
Y56953D02*
D03*
Y54984D02*
D03*
Y53016D02*
D03*
Y51047D02*
D03*
Y49079D02*
D03*
Y47110D02*
D03*
Y45142D02*
D03*
Y43173D02*
D03*
X176055D02*
D03*
Y45142D02*
D03*
Y47110D02*
D03*
Y49079D02*
D03*
Y51047D02*
D03*
Y53016D02*
D03*
Y54984D02*
D03*
Y56953D02*
D03*
Y58921D02*
D03*
Y60890D02*
D03*
Y62858D02*
D03*
Y64827D02*
D03*
X83945Y158827D02*
D03*
Y156858D02*
D03*
Y154890D02*
D03*
Y152921D02*
D03*
Y150953D02*
D03*
Y148984D02*
D03*
Y147016D02*
D03*
Y145047D02*
D03*
Y143079D02*
D03*
Y141110D02*
D03*
Y139142D02*
D03*
Y137173D02*
D03*
X52055D02*
D03*
Y139142D02*
D03*
Y141110D02*
D03*
Y143079D02*
D03*
Y145047D02*
D03*
Y147016D02*
D03*
Y148984D02*
D03*
Y150953D02*
D03*
Y152921D02*
D03*
Y154890D02*
D03*
Y156858D02*
D03*
Y158827D02*
D03*
X83945Y108827D02*
D03*
Y106858D02*
D03*
Y104890D02*
D03*
Y102921D02*
D03*
Y100953D02*
D03*
Y98984D02*
D03*
Y97016D02*
D03*
Y95047D02*
D03*
Y93079D02*
D03*
Y91110D02*
D03*
Y89142D02*
D03*
Y87173D02*
D03*
X52055D02*
D03*
Y89142D02*
D03*
Y91110D02*
D03*
Y93079D02*
D03*
Y95047D02*
D03*
Y97016D02*
D03*
Y98984D02*
D03*
Y100953D02*
D03*
Y102921D02*
D03*
Y104890D02*
D03*
Y106858D02*
D03*
Y108827D02*
D03*
X83945Y64827D02*
D03*
Y62858D02*
D03*
Y60890D02*
D03*
Y58921D02*
D03*
Y56953D02*
D03*
Y54984D02*
D03*
Y53016D02*
D03*
Y51047D02*
D03*
Y49079D02*
D03*
Y47110D02*
D03*
Y45142D02*
D03*
Y43173D02*
D03*
X52055D02*
D03*
Y45142D02*
D03*
Y47110D02*
D03*
Y49079D02*
D03*
Y51047D02*
D03*
Y53016D02*
D03*
Y54984D02*
D03*
Y56953D02*
D03*
Y58921D02*
D03*
Y60890D02*
D03*
Y62858D02*
D03*
Y64827D02*
D03*
D13*
X78827Y176055D02*
D03*
X76858D02*
D03*
X74890D02*
D03*
X72921D02*
D03*
X70953D02*
D03*
X68984D02*
D03*
X67016D02*
D03*
X65047D02*
D03*
X63079D02*
D03*
X61110D02*
D03*
X59142D02*
D03*
X57173D02*
D03*
Y207945D02*
D03*
X59142D02*
D03*
X61110D02*
D03*
X63079D02*
D03*
X65047D02*
D03*
X67016D02*
D03*
X68984D02*
D03*
X70953D02*
D03*
X72921D02*
D03*
X74890D02*
D03*
X76858D02*
D03*
X78827D02*
D03*
X202827Y176055D02*
D03*
X200858D02*
D03*
X198890D02*
D03*
X196921D02*
D03*
X194953D02*
D03*
X192984D02*
D03*
X191016D02*
D03*
X189047D02*
D03*
X187079D02*
D03*
X185110D02*
D03*
X183142D02*
D03*
X181173D02*
D03*
Y207945D02*
D03*
X183142D02*
D03*
X185110D02*
D03*
X187079D02*
D03*
X189047D02*
D03*
X191016D02*
D03*
X192984D02*
D03*
X194953D02*
D03*
X196921D02*
D03*
X198890D02*
D03*
X200858D02*
D03*
X202827D02*
D03*
Y132055D02*
D03*
X200858D02*
D03*
X198890D02*
D03*
X196921D02*
D03*
X194953D02*
D03*
X192984D02*
D03*
X191016D02*
D03*
X189047D02*
D03*
X187079D02*
D03*
X185110D02*
D03*
X183142D02*
D03*
X181173D02*
D03*
Y163945D02*
D03*
X183142D02*
D03*
X185110D02*
D03*
X187079D02*
D03*
X189047D02*
D03*
X191016D02*
D03*
X192984D02*
D03*
X194953D02*
D03*
X196921D02*
D03*
X198890D02*
D03*
X200858D02*
D03*
X202827D02*
D03*
Y82055D02*
D03*
X200858D02*
D03*
X198890D02*
D03*
X196921D02*
D03*
X194953D02*
D03*
X192984D02*
D03*
X191016D02*
D03*
X189047D02*
D03*
X187079D02*
D03*
X185110D02*
D03*
X183142D02*
D03*
X181173D02*
D03*
Y113945D02*
D03*
X183142D02*
D03*
X185110D02*
D03*
X187079D02*
D03*
X189047D02*
D03*
X191016D02*
D03*
X192984D02*
D03*
X194953D02*
D03*
X196921D02*
D03*
X198890D02*
D03*
X200858D02*
D03*
X202827D02*
D03*
Y38055D02*
D03*
X200858D02*
D03*
X198890D02*
D03*
X196921D02*
D03*
X194953D02*
D03*
X192984D02*
D03*
X191016D02*
D03*
X189047D02*
D03*
X187079D02*
D03*
X185110D02*
D03*
X183142D02*
D03*
X181173D02*
D03*
Y69945D02*
D03*
X183142D02*
D03*
X185110D02*
D03*
X187079D02*
D03*
X189047D02*
D03*
X191016D02*
D03*
X192984D02*
D03*
X194953D02*
D03*
X196921D02*
D03*
X198890D02*
D03*
X200858D02*
D03*
X202827D02*
D03*
X78827Y132055D02*
D03*
X76858D02*
D03*
X74890D02*
D03*
X72921D02*
D03*
X70953D02*
D03*
X68984D02*
D03*
X67016D02*
D03*
X65047D02*
D03*
X63079D02*
D03*
X61110D02*
D03*
X59142D02*
D03*
X57173D02*
D03*
Y163945D02*
D03*
X59142D02*
D03*
X61110D02*
D03*
X63079D02*
D03*
X65047D02*
D03*
X67016D02*
D03*
X68984D02*
D03*
X70953D02*
D03*
X72921D02*
D03*
X74890D02*
D03*
X76858D02*
D03*
X78827D02*
D03*
Y82055D02*
D03*
X76858D02*
D03*
X74890D02*
D03*
X72921D02*
D03*
X70953D02*
D03*
X68984D02*
D03*
X67016D02*
D03*
X65047D02*
D03*
X63079D02*
D03*
X61110D02*
D03*
X59142D02*
D03*
X57173D02*
D03*
Y113945D02*
D03*
X59142D02*
D03*
X61110D02*
D03*
X63079D02*
D03*
X65047D02*
D03*
X67016D02*
D03*
X68984D02*
D03*
X70953D02*
D03*
X72921D02*
D03*
X74890D02*
D03*
X76858D02*
D03*
X78827D02*
D03*
Y38055D02*
D03*
X76858D02*
D03*
X74890D02*
D03*
X72921D02*
D03*
X70953D02*
D03*
X68984D02*
D03*
X67016D02*
D03*
X65047D02*
D03*
X63079D02*
D03*
X61110D02*
D03*
X59142D02*
D03*
X57173D02*
D03*
Y69945D02*
D03*
X59142D02*
D03*
X61110D02*
D03*
X63079D02*
D03*
X65047D02*
D03*
X67016D02*
D03*
X68984D02*
D03*
X70953D02*
D03*
X72921D02*
D03*
X74890D02*
D03*
X76858D02*
D03*
X78827D02*
D03*
D14*
X142165Y267284D02*
D03*
X117835D02*
D03*
X142165Y265315D02*
D03*
X117835D02*
D03*
X142165Y261378D02*
D03*
X117835D02*
D03*
X142165Y259409D02*
D03*
X117835D02*
D03*
X142165Y255472D02*
D03*
X117835D02*
D03*
X142165Y253504D02*
D03*
X117835D02*
D03*
X142165Y249567D02*
D03*
X117835D02*
D03*
X142165Y247598D02*
D03*
X117835D02*
D03*
X142165Y243661D02*
D03*
X117835D02*
D03*
X142165Y241693D02*
D03*
X117835D02*
D03*
X142165Y237756D02*
D03*
X117835D02*
D03*
X142165Y235787D02*
D03*
X117835D02*
D03*
X142165Y231850D02*
D03*
X117835D02*
D03*
X142165Y229882D02*
D03*
X117835D02*
D03*
X142165Y225945D02*
D03*
X117835D02*
D03*
X142165Y223976D02*
D03*
X117835D02*
D03*
X142165Y220039D02*
D03*
X117835D02*
D03*
X142165Y218071D02*
D03*
X117835D02*
D03*
X142165Y214134D02*
D03*
X117835D02*
D03*
X142165Y212165D02*
D03*
X117835D02*
D03*
X142165Y188543D02*
D03*
X117835D02*
D03*
X142165Y186575D02*
D03*
X117835D02*
D03*
X142165Y184606D02*
D03*
X117835D02*
D03*
X142165Y182638D02*
D03*
X117835D02*
D03*
X142165Y180669D02*
D03*
X117835D02*
D03*
X142165Y178701D02*
D03*
X117835D02*
D03*
X142165Y176732D02*
D03*
X117835D02*
D03*
X142165Y174764D02*
D03*
X117835D02*
D03*
X142165Y172795D02*
D03*
X117835D02*
D03*
X142165Y170827D02*
D03*
X117835D02*
D03*
X142165Y168858D02*
D03*
X117835D02*
D03*
X142165Y166890D02*
D03*
X117835D02*
D03*
X142165Y164921D02*
D03*
X117835D02*
D03*
X142165Y162953D02*
D03*
X117835D02*
D03*
X142165Y160984D02*
D03*
X117835D02*
D03*
X142165Y159016D02*
D03*
X117835D02*
D03*
X142165Y157047D02*
D03*
X117835D02*
D03*
X142165Y155079D02*
D03*
X117835D02*
D03*
X142165Y153110D02*
D03*
X117835D02*
D03*
X142165Y151142D02*
D03*
X117835D02*
D03*
X142165Y149173D02*
D03*
X117835D02*
D03*
X142165Y147205D02*
D03*
X117835D02*
D03*
X142165Y145236D02*
D03*
X117835D02*
D03*
X142165Y143268D02*
D03*
X117835D02*
D03*
X142165Y141299D02*
D03*
X117835D02*
D03*
X142165Y139331D02*
D03*
X117835D02*
D03*
X142165Y137362D02*
D03*
X117835D02*
D03*
X142165Y135394D02*
D03*
X117835D02*
D03*
X142165Y133425D02*
D03*
X117835D02*
D03*
X142165Y131457D02*
D03*
X117835D02*
D03*
X142165Y109803D02*
D03*
X117835D02*
D03*
X142165Y107835D02*
D03*
X117835D02*
D03*
X142165Y105866D02*
D03*
X117835D02*
D03*
X142165Y103898D02*
D03*
X117835D02*
D03*
X142165Y101929D02*
D03*
X117835D02*
D03*
X142165Y99961D02*
D03*
X117835D02*
D03*
X142165Y97992D02*
D03*
X117835D02*
D03*
X142165Y96024D02*
D03*
X117835D02*
D03*
X142165Y94055D02*
D03*
X117835D02*
D03*
X142165Y92087D02*
D03*
X117835D02*
D03*
X142165Y90118D02*
D03*
X117835D02*
D03*
X142165Y88150D02*
D03*
X117835D02*
D03*
X142165Y86181D02*
D03*
X117835D02*
D03*
X142165Y84213D02*
D03*
X117835D02*
D03*
X142165Y82244D02*
D03*
X117835D02*
D03*
X142165Y80276D02*
D03*
X117835D02*
D03*
X142165Y78307D02*
D03*
X117835D02*
D03*
X142165Y76339D02*
D03*
X117835D02*
D03*
X142165Y74370D02*
D03*
X117835D02*
D03*
X142165Y72402D02*
D03*
X117835D02*
D03*
X142165Y70433D02*
D03*
X117835D02*
D03*
X142165Y68465D02*
D03*
X117835D02*
D03*
X142165Y66496D02*
D03*
X117835D02*
D03*
X142165Y64528D02*
D03*
X117835D02*
D03*
X142165Y62559D02*
D03*
X117835D02*
D03*
X142165Y60590D02*
D03*
X117835D02*
D03*
X142165Y58622D02*
D03*
X117835D02*
D03*
X142165Y56653D02*
D03*
X117835D02*
D03*
X142165Y54685D02*
D03*
X117835D02*
D03*
X142165Y52716D02*
D03*
X117835D02*
D03*
D15*
X130000Y271988D02*
D03*
Y205492D02*
D03*
Y193248D02*
D03*
Y126752D02*
D03*
Y114508D02*
D03*
Y48012D02*
D03*
D16*
Y251240D02*
D03*
Y226240D02*
D03*
Y172500D02*
D03*
Y147500D02*
D03*
Y93760D02*
D03*
Y68760D02*
D03*
D17*
X20500Y27500D02*
X44047Y51047D01*
X20500Y25500D02*
Y27500D01*
X17000Y22000D02*
X20500Y25500D01*
X231000Y28000D02*
X241000D01*
X211890Y47110D02*
X231000Y28000D01*
X232000Y30000D02*
X244000D01*
X212921Y49079D02*
X232000Y30000D01*
X207945Y49079D02*
X212921D01*
X207945Y47110D02*
X211890D01*
X227000Y39000D02*
X240000D01*
X214953Y51047D02*
X227000Y39000D01*
X207945Y51047D02*
X214953D01*
X228000Y41000D02*
X240000D01*
X216000Y53000D02*
X228000Y41000D01*
X207961Y53000D02*
X216000D01*
X207945Y53016D02*
X207961Y53000D01*
X223500Y55000D02*
X244000D01*
X217610Y60890D02*
X223500Y55000D01*
X207945Y60890D02*
X217610D01*
X216579Y58921D02*
X222500Y53000D01*
X207945Y58921D02*
X216579D01*
X222500Y53000D02*
X241000D01*
X231000Y65000D02*
X244000D01*
X230827Y64827D02*
X231000Y65000D01*
X241142Y62858D02*
X244000Y60000D01*
X207945Y62858D02*
X241142D01*
X207945Y64827D02*
X230827D01*
X241000Y53000D02*
X244000Y50000D01*
X243500Y35000D02*
X244000D01*
X240000Y41000D02*
X244000Y45000D01*
X240000Y39000D02*
X244000Y35000D01*
X241000Y28000D02*
X244000Y25000D01*
X226500Y82000D02*
X244000D01*
X215421Y93079D02*
X226500Y82000D01*
X207945Y93079D02*
X215421D01*
X214390Y91110D02*
X225500Y80000D01*
X207945Y91110D02*
X214390D01*
X225500Y80000D02*
X241000D01*
X234500Y91000D02*
X240000D01*
X230453Y95047D02*
X234500Y91000D01*
X207945Y95047D02*
X230453D01*
X231516Y97016D02*
X235531Y93000D01*
X207945Y97016D02*
X231516D01*
X207945Y102921D02*
X230421D01*
X207945Y104890D02*
X229390D01*
X207945Y106858D02*
X223858D01*
X207945Y108827D02*
X222827D01*
X231000Y117000D01*
X244000D01*
X223858Y106858D02*
X232000Y115000D01*
X241000D01*
X244000Y112000D01*
X241000Y105000D02*
X244000Y102000D01*
X230421Y102921D02*
X232500Y105000D01*
X241000D01*
X229390Y104890D02*
X231500Y107000D01*
X244000D01*
X243500Y87000D02*
X244000D01*
X240000Y93000D02*
X244000Y97000D01*
X235531Y93000D02*
X240000D01*
Y91000D02*
X244000Y87000D01*
X241000Y80000D02*
X244000Y77000D01*
X235000Y143000D02*
X240000D01*
X232953Y145047D02*
X235000Y143000D01*
X207945Y145047D02*
X232953D01*
X236000Y145000D02*
X240000D01*
X233984Y147016D02*
X236000Y145000D01*
X207945Y147016D02*
X233984D01*
X207945Y141110D02*
X211890D01*
X221000Y132000D01*
X207945Y143079D02*
X212921D01*
X222000Y134000D01*
X232500Y157000D02*
X241000D01*
X228421Y152921D02*
X232500Y157000D01*
X207945Y152921D02*
X228421D01*
X227390Y154890D02*
X231500Y159000D01*
X207945Y154890D02*
X227390D01*
X207945Y156858D02*
X221858D01*
X207945Y158827D02*
X220827D01*
X231000Y169000D01*
X244000D01*
X221858Y156858D02*
X232000Y167000D01*
X241000D01*
X244000Y164000D01*
X241000Y157000D02*
X244000Y154000D01*
X231500Y159000D02*
X244000D01*
X243500Y139000D02*
X244000D01*
X240000Y145000D02*
X244000Y149000D01*
X240000Y143000D02*
X244000Y139000D01*
X222000Y134000D02*
X244000D01*
X221000Y132000D02*
X241000D01*
X244000Y129000D01*
X241000Y184000D02*
X244000Y181000D01*
X214000Y184000D02*
X241000D01*
X212890Y185110D02*
X214000Y184000D01*
X207945Y185110D02*
X212890D01*
X207945Y187079D02*
X213921D01*
X215000Y186000D01*
X244000D01*
X240000Y195000D02*
X244000Y191000D01*
X228500Y195000D02*
X240000D01*
X222547Y189047D02*
X228500Y195000D01*
X207945Y189047D02*
X222547D01*
X221516Y191016D02*
X227500Y197000D01*
X207945Y191016D02*
X221516D01*
X227500Y197000D02*
X240000D01*
X244000Y201000D01*
X243500Y191000D02*
X244000D01*
X231500Y211000D02*
X244000D01*
X219390Y198890D02*
X231500Y211000D01*
X207945Y198890D02*
X219390D01*
X232500Y209000D02*
X241000D01*
X220421Y196921D02*
X232500Y209000D01*
X207945Y196921D02*
X220421D01*
X241000Y209000D02*
X244000Y206000D01*
X241000Y219000D02*
X244000Y216000D01*
X232000Y219000D02*
X241000D01*
X213858Y200858D02*
X232000Y219000D01*
X207945Y200858D02*
X213858D01*
X231000Y221000D02*
X244000D01*
X212827Y202827D02*
X231000Y221000D01*
X207945Y202827D02*
X212827D01*
X17000Y12000D02*
X20500Y15500D01*
Y17500D01*
X31500Y28500D01*
Y30500D01*
X48110Y47110D01*
X52055D01*
X47079Y49079D02*
X52055D01*
X29500Y31500D02*
X47079Y49079D01*
X29500Y29500D02*
Y31500D01*
X17000Y17000D02*
X29500Y29500D01*
X44047Y51047D02*
X52055D01*
X17000Y27000D02*
X43016Y53016D01*
X52055D01*
X42421Y58921D02*
X52055D01*
X28500Y45000D02*
X42421Y58921D01*
X20000Y45000D02*
X28500D01*
X41390Y60890D02*
X52055D01*
X27500Y47000D02*
X41390Y60890D01*
X17000Y47000D02*
X27500D01*
X17000Y42000D02*
X20000Y45000D01*
X17000Y52000D02*
X18000D01*
X21000Y55000D01*
X28500D01*
X36358Y62858D01*
X52055D01*
X35327Y64827D02*
X52055D01*
X27500Y57000D02*
X35327Y64827D01*
X17000Y57000D02*
X27500D01*
X17000Y74000D02*
X20000Y77000D01*
X32500D01*
X46610Y91110D01*
X52055D01*
X45579Y93079D02*
X52055D01*
X31500Y79000D02*
X45579Y93079D01*
X17000Y79000D02*
X31500D01*
X17000Y84000D02*
X20000Y87000D01*
X32000D01*
X40047Y95047D01*
X52055D01*
X39016Y97016D02*
X52055D01*
X31000Y89000D02*
X39016Y97016D01*
X17000Y89000D02*
X31000D01*
X17000Y104000D02*
X20000Y107000D01*
X29000D01*
X33079Y102921D01*
X52055D01*
X34110Y104890D02*
X52055D01*
X30000Y109000D02*
X34110Y104890D01*
X17000Y109000D02*
X30000D01*
X20000Y116000D02*
X32000D01*
X18000Y114000D02*
X20000Y116000D01*
X17000Y114000D02*
X18000D01*
X33000Y118000D02*
X42173Y108827D01*
X18000Y118000D02*
X33000D01*
X17000Y119000D02*
X18000Y118000D01*
X32000Y116000D02*
X41142Y106858D01*
X52055D01*
X42173Y108827D02*
X52055D01*
X17000Y181000D02*
X18500Y179500D01*
X20000D01*
X40673Y158827D01*
X52055D01*
X39642Y156858D02*
X52055D01*
X20500Y176000D02*
X39642Y156858D01*
X17000Y176000D02*
X20500D01*
X17000Y171000D02*
X18500Y169500D01*
X20000D01*
X34610Y154890D01*
X17000Y166000D02*
X18000Y167000D01*
X19500D01*
X33579Y152921D01*
X52055D01*
X34610Y154890D02*
X52055D01*
X17000Y151000D02*
X17500D01*
X20500Y148000D01*
X45500D01*
X46484Y147016D01*
X52055D01*
X45453Y145047D02*
X52055D01*
X44500Y146000D02*
X45453Y145047D01*
X17000Y146000D02*
X44500D01*
X40579Y143079D02*
X52055D01*
X38500Y141000D02*
X40579Y143079D01*
X17000Y141000D02*
X38500D01*
X39500Y139000D02*
X41610Y141110D01*
X20000Y139000D02*
X39500D01*
X17000Y136000D02*
X20000Y139000D01*
X41610Y141110D02*
X52055D01*
X20900Y202000D02*
X35821Y187079D01*
X18000Y202000D02*
X20900D01*
X17000Y203000D02*
X18000Y202000D01*
X21300Y212000D02*
X42284Y191016D01*
X18000Y212000D02*
X21300D01*
X17000Y213000D02*
X18000Y212000D01*
X21000Y231500D02*
X38000Y214500D01*
X18500Y231500D02*
X21000D01*
X17000Y233000D02*
X18500Y231500D01*
X18750Y241250D02*
X20750D01*
X17000Y243000D02*
X18750Y241250D01*
X20750D02*
X46000Y216000D01*
X20000Y239000D02*
X44000Y215000D01*
X18000Y239000D02*
X20000D01*
X17000Y228000D02*
X18500Y229500D01*
X20000D01*
X36000Y213500D01*
Y204000D02*
Y213500D01*
Y204000D02*
X43079Y196921D01*
X52055D01*
X44110Y198890D02*
X52055D01*
X38000Y205000D02*
X44110Y198890D01*
X38000Y205000D02*
Y214500D01*
X17000Y238000D02*
X18000Y239000D01*
X44000Y204000D02*
Y215000D01*
Y204000D02*
X47142Y200858D01*
X52055D01*
X48173Y202827D02*
X52055D01*
X46000Y205000D02*
X48173Y202827D01*
X46000Y205000D02*
Y216000D01*
X17000Y208000D02*
X19000Y210000D01*
X20500D01*
X41453Y189047D02*
X52055D01*
X20500Y210000D02*
X41453Y189047D01*
X42284Y191016D02*
X52055D01*
X17000Y198000D02*
X18950Y199950D01*
X20050D01*
X34890Y185110D01*
X35821Y187079D02*
X52055D01*
X34890Y185110D02*
X52055D01*
X84000Y77000D02*
X86000Y79000D01*
Y80000D01*
X209000Y69945D02*
X211000Y71945D01*
Y73000D01*
X209000Y113945D02*
X211000Y115945D01*
Y117000D01*
X209000Y163945D02*
X211000Y165945D01*
Y167000D01*
X209000Y207945D02*
X211000Y209945D01*
Y211000D01*
X204000Y214000D02*
X206000Y216000D01*
Y217000D01*
X202500Y214000D02*
X206000D01*
X204000Y76000D02*
X206000Y78000D01*
Y79000D01*
X204000Y120000D02*
X206000Y122000D01*
Y123000D01*
X204000Y170000D02*
X206000Y172000D01*
Y173000D01*
X205500Y217000D02*
X206000D01*
X171000Y32000D02*
X174000D01*
X167000Y28248D02*
X168327Y26921D01*
X142165Y60590D02*
X145909D01*
X148000Y58500D01*
X142165Y62559D02*
X146441D01*
X150000Y59000D01*
X165390Y47110D02*
X176055D01*
X146004Y66496D02*
X165390Y47110D01*
X142165Y66496D02*
X146004D01*
X166421Y49079D02*
X176055D01*
X147035Y68465D02*
X166421Y49079D01*
X142165Y68465D02*
X147035D01*
X168453Y51047D02*
X176055D01*
X147098Y72402D02*
X168453Y51047D01*
X142165Y72402D02*
X147098D01*
X169484Y53016D02*
X176055D01*
X148130Y74370D02*
X169484Y53016D01*
X142165Y74370D02*
X148130D01*
X167579Y58921D02*
X176055D01*
X148193Y78307D02*
X167579Y58921D01*
X142165Y78307D02*
X148193D01*
X168610Y60890D02*
X176055D01*
X149224Y80276D02*
X168610Y60890D01*
X142165Y80276D02*
X149224D01*
X170642Y62858D02*
X176055D01*
X149287Y84213D02*
X170642Y62858D01*
X142165Y84213D02*
X149287D01*
X171735Y64827D02*
X176055D01*
X150381Y86181D02*
X171735Y64827D01*
X142165Y86181D02*
X150381D01*
X148421Y102921D02*
X176055D01*
X147429Y101929D02*
X148421Y102921D01*
X142165Y101929D02*
X147429D01*
X147290Y104890D02*
X176055D01*
X146298Y103898D02*
X147290Y104890D01*
X142165Y103898D02*
X146298D01*
X176045Y91100D02*
X176055Y91110D01*
X149900Y91100D02*
X176045D01*
X148918Y90118D02*
X149900Y91100D01*
X148679Y93079D02*
X176055D01*
X147687Y92087D02*
X148679Y93079D01*
X142165Y90118D02*
X148918D01*
X142165Y92087D02*
X147687D01*
X147653Y95047D02*
X176055D01*
X146676Y96024D02*
X147653Y95047D01*
X142165Y96024D02*
X146676D01*
X149184Y97016D02*
X176055D01*
X148208Y97992D02*
X149184Y97016D01*
X142165Y97992D02*
X148208D01*
X148132Y108827D02*
X176055D01*
X147155Y109803D02*
X148132Y108827D01*
X142165Y109803D02*
X147155D01*
X147042Y106858D02*
X176055D01*
X146065Y107835D02*
X147042Y106858D01*
X142165Y107835D02*
X146065D01*
X88605Y147205D02*
X117835D01*
X88416Y147016D02*
X88605Y147205D01*
X83945Y147016D02*
X88416D01*
X89247Y157047D02*
X117835D01*
X89058Y156858D02*
X89247Y157047D01*
X83945Y156858D02*
X89058D01*
X171042D02*
X176055D01*
X170853Y157047D02*
X171042Y156858D01*
X142165Y157047D02*
X170853D01*
X171800Y158800D02*
X176028D01*
X171584Y159016D02*
X171800Y158800D01*
X142165Y159016D02*
X171584D01*
X176045Y141100D02*
X176055Y141110D01*
X149900Y141100D02*
X176045D01*
X148131Y139331D02*
X149900Y141100D01*
X142165Y139331D02*
X148131D01*
X146899Y141299D02*
X148679Y143079D01*
X176055D01*
X142165Y141299D02*
X146899D01*
X171653Y145047D02*
X176055D01*
X171464Y145236D02*
X171653Y145047D01*
X142165Y145236D02*
X171464D01*
X171484Y147016D02*
X176055D01*
X171295Y147205D02*
X171484Y147016D01*
X142165Y147205D02*
X171295D01*
X148721Y152921D02*
X176055D01*
X146942Y151142D02*
X148721Y152921D01*
X142165Y151142D02*
X146942D01*
X147690Y154890D02*
X176055D01*
X145910Y153110D02*
X147690Y154890D01*
X142165Y153110D02*
X145910D01*
X176028Y158800D02*
X176055Y158827D01*
X170579Y187079D02*
X176055D01*
X148421Y164921D02*
X170579Y187079D01*
X142165Y164921D02*
X148421D01*
X171610Y185110D02*
X176055D01*
X149453Y162953D02*
X171610Y185110D01*
X142165Y162953D02*
X149453D01*
X168047Y189047D02*
X176055D01*
X147858Y168858D02*
X168047Y189047D01*
X142165Y168858D02*
X147858D01*
X167016Y191016D02*
X176055D01*
X146827Y170827D02*
X167016Y191016D01*
X142165Y170827D02*
X146827D01*
X169421Y196921D02*
X176055D01*
X147264Y174764D02*
X169421Y196921D01*
X142165Y174764D02*
X147264D01*
X168390Y198890D02*
X176055D01*
X146232Y176732D02*
X168390Y198890D01*
X142165Y176732D02*
X146232D01*
X166858Y200858D02*
X176055D01*
X146669Y180669D02*
X166858Y200858D01*
X142165Y180669D02*
X146669D01*
X165827Y202827D02*
X176055D01*
X145638Y182638D02*
X165827Y202827D01*
X142165Y182638D02*
X145638D01*
X111142Y168858D02*
X117835D01*
X90953Y189047D02*
X111142Y168858D01*
X83945Y189047D02*
X90953D01*
X110047Y162953D02*
X117835D01*
X87890Y185110D02*
X110047Y162953D01*
X83945Y185110D02*
X87890D01*
X88825Y187079D02*
X110983Y164921D01*
X83945Y187079D02*
X88825D01*
X110983Y164921D02*
X117835D01*
X112173Y170827D02*
X117835D01*
X91984Y191016D02*
X112173Y170827D01*
X83945Y191016D02*
X91984D01*
X113268Y176732D02*
X117835D01*
X91110Y198890D02*
X113268Y176732D01*
X83945Y198890D02*
X91110D01*
X113331Y180669D02*
X117835D01*
X93142Y200858D02*
X113331Y180669D01*
X83945Y200858D02*
X93142D01*
X112236Y174764D02*
X117835D01*
X90079Y196921D02*
X112236Y174764D01*
X83945Y196921D02*
X90079D01*
X94173Y202827D02*
X114362Y182638D01*
X83945Y202827D02*
X94173D01*
X114362Y182638D02*
X117835D01*
X83945Y47110D02*
X94110D01*
X113496Y66496D01*
X117835D01*
X83945Y49079D02*
X93079D01*
X112465Y68465D01*
X117835D01*
X83945Y51047D02*
X91047D01*
X112402Y72402D01*
X117835D01*
X111370Y74370D02*
X117835D01*
X90016Y53016D02*
X111370Y74370D01*
X83945Y53016D02*
X90016D01*
X111307Y78307D02*
X117835D01*
X91921Y58921D02*
X111307Y78307D01*
X83945Y58921D02*
X91921D01*
X110276Y80276D02*
X117835D01*
X90890Y60890D02*
X110276Y80276D01*
X83945Y60890D02*
X90890D01*
X110213Y84213D02*
X117835D01*
X88858Y62858D02*
X110213Y84213D01*
X83945Y62858D02*
X88858D01*
X109181Y86181D02*
X117835D01*
X87827Y64827D02*
X109181Y86181D01*
X83945Y64827D02*
X87827D01*
X83945Y91110D02*
X110890D01*
X111882Y90118D01*
X117835D01*
X83945Y93079D02*
X111921D01*
X112913Y92087D01*
X117835D01*
X83945Y95047D02*
X113047D01*
X114024Y96024D01*
X117835D01*
X83945Y97016D02*
X112016D01*
X112992Y97992D01*
X117835D01*
X83945Y102921D02*
X111579D01*
X112571Y101929D01*
X117835D01*
X113335Y107835D02*
X117835D01*
X112358Y106858D02*
X113335Y107835D01*
X83945Y106858D02*
X112358D01*
X83945Y104890D02*
X112610D01*
X113602Y103898D01*
X117835D01*
X112303Y109803D02*
X117835D01*
X111327Y108827D02*
X112303Y109803D01*
X83945Y108827D02*
X111327D01*
X83945Y141110D02*
X108390D01*
X110169Y139331D01*
X117835D01*
X83945Y143079D02*
X109921D01*
X111701Y141299D01*
X117835D01*
X83945Y145047D02*
X89547D01*
X89736Y145236D01*
X117835D01*
X83945Y152921D02*
X108579D01*
X110358Y151142D01*
X117835D01*
X83945Y154890D02*
X109810D01*
X111590Y153110D01*
X117835D01*
X88616Y159016D02*
X117835D01*
X83945Y158827D02*
X83972Y158800D01*
X88400D01*
X88616Y159016D01*
X158800Y32000D02*
X159900Y30900D01*
X157500Y32000D02*
X158800D01*
X159900Y33100D01*
X157500Y32000D02*
X162000D01*
X159900Y30900D02*
X161000Y32000D01*
X162000D01*
X159900Y33100D02*
X161000Y32000D01*
X159900D02*
X162000D01*
X174000D02*
X181000D01*
X186000Y27000D01*
X204000D01*
X206000Y29000D01*
X76858Y69945D02*
Y75558D01*
X77700Y76400D01*
X81100D01*
X81700Y77000D01*
X86000D01*
Y121000D02*
Y124000D01*
X76827Y122027D02*
X78800Y124000D01*
X76827Y113945D02*
Y122027D01*
X78800Y124000D02*
X86000D01*
Y171000D02*
Y174000D01*
X76858Y163945D02*
Y169158D01*
X78100Y170400D01*
X82400D01*
X86000Y174000D01*
X76827Y207945D02*
Y214927D01*
X79900Y218000D01*
X86000D01*
Y215000D02*
Y218000D01*
X79550Y212450D02*
Y212550D01*
Y212450D02*
X81000Y211000D01*
X200900Y72307D02*
X200961Y72246D01*
X200900Y72307D02*
Y74800D01*
X202100Y76000D01*
X206000D01*
X200900Y116307D02*
X200961Y116246D01*
X200900Y116307D02*
Y119000D01*
X201900Y120000D01*
X206000D01*
Y170000D02*
Y170300D01*
X200800Y166367D02*
Y168500D01*
X202300Y170000D01*
X206000D01*
Y214000D02*
Y214300D01*
X200900Y210307D02*
Y212400D01*
X202500Y214000D01*
X211000Y4500D02*
Y7500D01*
X81500Y4500D02*
Y7500D01*
X122000Y4500D02*
X211000D01*
X81500D02*
X122000D01*
X176000Y22000D02*
X176000Y22000D01*
X211000D01*
X210945Y69945D02*
X211000Y70000D01*
X202827Y69945D02*
X210945D01*
Y113945D02*
X211000Y114000D01*
X202827Y113945D02*
X210945D01*
X202827Y163945D02*
X210945D01*
X202827Y207945D02*
X205000D01*
X210945D01*
X211000Y208000D01*
X79000Y117000D02*
X81000D01*
Y120000D01*
X78827Y117827D02*
X81000Y120000D01*
X78827Y113945D02*
Y117827D01*
Y211827D02*
X81000Y214000D01*
X78827Y207945D02*
Y211827D01*
X81000Y211000D02*
Y214000D01*
X152000Y13500D02*
X156500Y9000D01*
X178000D01*
X168327Y26921D02*
X176000D01*
X159900Y27348D02*
X160000Y27248D01*
X146000Y24700D02*
Y27000D01*
X138500Y34500D02*
X146000Y27000D01*
X124500Y34500D02*
X138500D01*
X111000Y48000D02*
X124500Y34500D01*
X112591Y60590D02*
X117835D01*
X111000Y59000D02*
X112591Y60590D01*
X111000Y48000D02*
Y59000D01*
X91000Y28000D02*
X111000Y48000D01*
X57000Y28000D02*
X91000D01*
X150000Y54600D02*
Y59000D01*
Y54600D02*
X167000Y37600D01*
Y28248D02*
Y37600D01*
X148000Y52800D02*
Y58500D01*
Y52800D02*
X159900Y40900D01*
Y27348D02*
Y40900D01*
X152000Y27248D02*
Y34752D01*
X146000Y19500D02*
Y24700D01*
Y19500D02*
X152000Y13500D01*
X146000Y27000D02*
X146248Y27248D01*
X147100D01*
X152000D01*
X145752D02*
X147100D01*
X0Y0D02*
X260000D01*
Y320000D01*
X0D02*
X260000D01*
X0Y0D02*
Y320000D01*
D18*
X204000Y56000D02*
X208000D01*
X204000Y100000D02*
X208000D01*
X204000Y150000D02*
X208000D01*
X204000Y194000D02*
X208000D01*
X52000Y56000D02*
X56000D01*
X52000Y100000D02*
X56000D01*
X52000Y150000D02*
X56000D01*
X72000Y31000D02*
X72921Y31921D01*
X64000Y31000D02*
X72000D01*
X63079Y31921D02*
X64000Y31000D01*
X63079Y31921D02*
Y38055D01*
X72921Y31921D02*
Y38055D01*
X60000Y70000D02*
Y74000D01*
X62000Y76000D01*
X65000D01*
X63079Y77921D02*
Y82055D01*
Y77921D02*
X65000Y76000D01*
X72000D01*
X60000Y114000D02*
Y121000D01*
X62000Y123000D01*
X66000D01*
X63079Y125921D02*
Y132055D01*
Y125921D02*
X66000Y123000D01*
X72000D01*
X60000Y164000D02*
Y168000D01*
X62000Y170000D01*
X65000D01*
X63079Y171921D02*
Y176055D01*
Y171921D02*
X65000Y170000D01*
X72000D01*
X187079Y32921D02*
Y38055D01*
Y32921D02*
X189000Y31000D01*
X195843D01*
X196921Y32079D01*
Y38055D01*
X184000Y69000D02*
Y75000D01*
X185000Y76000D01*
X189000D01*
X187079Y78079D02*
Y82055D01*
X187000Y78000D02*
X187079Y78079D01*
X187000Y78000D02*
X189000Y76000D01*
X196000D01*
X184000Y114000D02*
Y121000D01*
X186000Y123000D01*
X189000D01*
X187079Y124921D02*
Y132055D01*
Y124921D02*
X189000Y123000D01*
X196000D01*
X184100Y163600D02*
Y168800D01*
X185300Y170000D01*
X188500D01*
X187079Y171421D02*
Y176055D01*
Y171421D02*
X188500Y170000D01*
X196000D01*
X77000Y186000D02*
X79000Y182000D01*
X77000Y183000D02*
X78000Y182000D01*
X81000D01*
X86000D01*
X79000D02*
X81000D01*
X77000Y183000D02*
X78000D01*
X77000Y184000D02*
Y186000D01*
Y184000D02*
X79000Y182000D01*
X56000Y100000D02*
X59000Y97000D01*
X179000Y194000D02*
X180000D01*
X183000Y191000D01*
X56000Y150000D02*
X59000Y147000D01*
X63000Y108000D02*
X64000Y109000D01*
X63000Y107000D02*
Y108000D01*
X78000Y101000D02*
X79000Y100000D01*
X77000Y101000D02*
X78000D01*
X63000Y64000D02*
X64000Y65000D01*
X63000Y63000D02*
Y64000D01*
X182000Y86000D02*
Y88000D01*
Y180000D02*
Y182000D01*
X201000Y185000D02*
X204000Y182000D01*
X201000Y185000D02*
Y186000D01*
X202000Y182000D02*
X210000D01*
X201000Y183000D02*
Y186000D01*
Y183000D02*
X202000Y182000D01*
Y101000D02*
X203000Y100000D01*
X201000Y101000D02*
X202000D01*
Y151000D02*
X203000Y150000D01*
X201000Y151000D02*
X202000D01*
Y195000D02*
X203000Y194000D01*
X201000Y195000D02*
X202000D01*
X203000Y194000D02*
X210000D01*
X201000Y192000D02*
X203000Y194000D01*
X201000Y192000D02*
Y195000D01*
X182000Y174000D02*
Y180000D01*
X183000Y181000D01*
Y183000D01*
X174000Y182000D02*
X182000D01*
X183000Y183000D01*
X186000D01*
X183000Y186000D02*
X186000Y183000D01*
X183000D02*
Y186000D01*
Y183000D02*
X186000D01*
Y186000D01*
X183000D02*
X186000D01*
X181000Y194000D02*
X183000Y192000D01*
Y191000D02*
Y192000D01*
X174000Y194000D02*
X183000D01*
Y191000D02*
Y194000D01*
X188000Y203000D02*
X190000Y201000D01*
X188000Y203000D02*
Y210000D01*
X187000Y202000D02*
X188000Y203000D01*
X187000Y201000D02*
Y202000D01*
Y201000D02*
X190000D01*
X201000Y151000D02*
X202000Y150000D01*
X203000D01*
X210000D01*
X201000Y148000D02*
X203000Y150000D01*
X201000Y148000D02*
Y151000D01*
X204000Y138000D02*
X205000D01*
X201000Y141000D02*
X204000Y138000D01*
X201000Y141000D02*
Y142000D01*
X202000Y138000D02*
X210000D01*
X201000Y139000D02*
X202000Y138000D01*
X201000Y139000D02*
Y142000D01*
X182000Y130000D02*
Y137000D01*
X183000Y138000D01*
Y139000D01*
X182000D02*
X186000D01*
X174000Y138000D02*
X181000D01*
X182000Y139000D01*
X183000Y142000D02*
X186000Y139000D01*
X183000D02*
Y142000D01*
Y139000D02*
X186000D01*
Y142000D01*
X183000D02*
X186000D01*
X180000Y150000D02*
X183000Y147000D01*
X180000Y150000D02*
X183000D01*
X174000D02*
X180000D01*
X183000Y147000D02*
Y150000D01*
X187000Y158000D02*
X188000Y159000D01*
X187000Y157000D02*
Y158000D01*
X188000Y159000D02*
Y166000D01*
Y159000D02*
X190000Y157000D01*
X187000D02*
X190000D01*
X201000Y101000D02*
X202000Y100000D01*
X201000Y101000D02*
X202000Y100000D01*
X203000D01*
X210000D01*
X201000Y98000D02*
X203000Y100000D01*
X201000Y98000D02*
Y101000D01*
X204000Y88000D02*
X205000D01*
X201000Y91000D02*
X204000Y88000D01*
X201000Y91000D02*
Y92000D01*
X203000Y88000D02*
X210000D01*
X202000Y89000D02*
X203000Y88000D01*
X201000Y89000D02*
X202000D01*
X201000D02*
Y92000D01*
X182000Y80000D02*
Y86000D01*
X183000Y87000D01*
Y89000D01*
X174000Y88000D02*
X182000D01*
X183000Y89000D01*
X186000D01*
X183000Y92000D02*
X186000Y89000D01*
X183000D02*
Y92000D01*
Y89000D02*
X186000D01*
Y92000D01*
X183000D02*
X186000D01*
X180000Y100000D02*
X183000Y97000D01*
X174000Y100000D02*
X183000D01*
Y97000D02*
Y100000D01*
X188000Y109000D02*
X190000Y107000D01*
X188000Y109000D02*
Y116000D01*
X187000Y108000D02*
X188000Y109000D01*
X187000Y107000D02*
Y108000D01*
Y107000D02*
X190000D01*
X204000Y44000D02*
X205000D01*
X201000Y47000D02*
X204000Y44000D01*
X201000Y47000D02*
Y48000D01*
X202000Y44000D02*
X210000D01*
X201000Y45000D02*
X202000Y44000D01*
X201000Y45000D02*
Y48000D01*
X202000Y57000D02*
X203000Y56000D01*
X201000Y57000D02*
X202000D01*
X203000Y56000D02*
X210000D01*
X201000Y54000D02*
X203000Y56000D01*
X201000Y54000D02*
Y57000D01*
X182000Y42000D02*
Y43000D01*
X181000Y44000D02*
X182000Y43000D01*
Y36000D02*
Y42000D01*
X183000Y43000D01*
Y45000D01*
X174000Y44000D02*
X181000D01*
X182000Y45000D01*
X183000D01*
Y48000D02*
X186000Y45000D01*
X183000Y48000D02*
X186000D01*
Y45000D02*
Y48000D01*
X183000Y45000D02*
X186000D01*
X183000D02*
Y48000D01*
X180000Y56000D02*
X183000Y53000D01*
X180000Y56000D02*
X183000D01*
X174000D02*
X180000D01*
X183000Y53000D02*
Y56000D01*
X187000Y64000D02*
X188000Y65000D01*
X187000Y63000D02*
Y64000D01*
Y63000D02*
X188000Y64000D01*
Y65000D01*
Y72000D01*
Y65000D02*
X190000Y63000D01*
X187000D02*
X190000D01*
X77000Y47000D02*
Y48000D01*
Y47000D02*
X80000Y44000D01*
X86000D01*
X79000D02*
X80000D01*
X78000Y45000D02*
X79000Y44000D01*
X77000Y45000D02*
X78000D01*
X77000D02*
Y48000D01*
X79000Y56000D02*
X82000D01*
X78000Y57000D02*
X79000Y56000D01*
X77000Y57000D02*
X78000D01*
X79000Y56000D02*
X86000D01*
X77000Y54000D02*
X79000Y56000D01*
X77000Y54000D02*
Y57000D01*
X58000Y36000D02*
Y43000D01*
X59000Y44000D01*
Y45000D01*
X50000Y44000D02*
X57000D01*
X58000Y45000D01*
X62000D01*
X59000Y48000D02*
X62000Y45000D01*
X59000D02*
Y48000D01*
Y45000D02*
X62000D01*
Y48000D01*
X59000D02*
X62000D01*
X56000Y56000D02*
X59000Y53000D01*
X56000Y56000D02*
X59000D01*
X50000D02*
X56000D01*
X59000Y53000D02*
Y56000D01*
X63000Y63000D02*
X64000Y64000D01*
Y65000D01*
Y72000D01*
Y65000D02*
X66000Y63000D01*
X63000D02*
X66000D01*
X77000Y101000D02*
X78000Y100000D01*
X79000D01*
X86000D01*
X77000Y98000D02*
X79000Y100000D01*
X77000Y98000D02*
Y101000D01*
Y91000D02*
Y92000D01*
Y91000D02*
X80000Y88000D01*
X86000D01*
X78000D02*
X80000D01*
X77000Y89000D02*
X78000Y88000D01*
X77000Y89000D02*
Y92000D01*
X57000Y88000D02*
X58000Y87000D01*
Y86000D02*
Y87000D01*
Y80000D02*
Y86000D01*
X59000Y87000D01*
Y89000D01*
X50000Y88000D02*
X57000D01*
X58000Y89000D01*
X62000D01*
X59000Y92000D02*
X62000Y89000D01*
X59000D02*
Y92000D01*
Y89000D02*
X62000D01*
Y92000D01*
X59000D02*
X62000D01*
X56000Y100000D02*
X57000D01*
X59000Y98000D01*
Y97000D02*
Y98000D01*
X50000Y100000D02*
X59000D01*
Y97000D02*
Y100000D01*
X63000Y107000D02*
X64000Y108000D01*
Y111000D01*
Y116000D01*
Y109000D02*
Y111000D01*
Y108000D02*
Y111000D01*
X63000Y107000D02*
X64000Y108000D01*
Y109000D02*
X66000Y107000D01*
X63000D02*
X66000D01*
X80000Y138000D02*
X82000D01*
X77000Y141000D02*
X80000Y138000D01*
X77000Y141000D02*
Y142000D01*
X78000Y138000D02*
X86000D01*
X77000Y139000D02*
X78000Y138000D01*
X77000Y139000D02*
Y142000D01*
X78000Y150000D02*
Y151000D01*
X77000D02*
X78000D01*
Y150000D02*
X79000D01*
X77000Y151000D02*
X78000Y150000D01*
X79000D02*
X86000D01*
X77000Y148000D02*
X79000Y150000D01*
X77000Y148000D02*
Y151000D01*
X61000Y139000D02*
X62000D01*
X58000Y136000D02*
X61000Y139000D01*
X58000Y136000D02*
Y138000D01*
Y130000D02*
Y136000D01*
Y138000D02*
X59000Y139000D01*
X58000Y138000D02*
X62000Y142000D01*
X50000Y138000D02*
X58000D01*
X62000Y139000D02*
Y142000D01*
X59000Y139000D02*
X62000D01*
X59000D02*
Y142000D01*
X62000D01*
X56000Y150000D02*
X57000D01*
X59000Y148000D01*
Y147000D02*
Y148000D01*
X50000Y150000D02*
X59000D01*
Y147000D02*
Y150000D01*
X63000Y158000D02*
X64000Y159000D01*
X63000Y157000D02*
Y158000D01*
X64000Y159000D02*
Y166000D01*
Y159000D02*
X66000Y157000D01*
X63000D02*
X66000D01*
X78000Y195000D02*
X79000Y194000D01*
X77000Y195000D02*
X78000D01*
X79000Y194000D02*
X86000D01*
X77000Y192000D02*
X79000Y194000D01*
X77000Y192000D02*
Y195000D01*
X78000Y183000D02*
X79000Y182000D01*
X77000Y183000D02*
X78000D01*
X77000D02*
Y186000D01*
X58000Y174000D02*
Y181000D01*
X59000Y182000D01*
X50000D02*
X58000D01*
X59000Y183000D01*
X56000Y194000D02*
X59000Y191000D01*
X52000Y194000D02*
X56000D01*
X50000D02*
X59000D01*
Y191000D02*
Y194000D01*
X64000Y203000D02*
Y204000D01*
X63000Y202000D02*
X64000Y203000D01*
X63000Y201000D02*
Y202000D01*
X64000Y203000D02*
Y210000D01*
Y203000D02*
X66000Y201000D01*
X135900Y53000D02*
Y191900D01*
X138000Y194000D01*
X143000Y198000D02*
X144000Y197000D01*
X137000Y195000D02*
Y198000D01*
Y195000D02*
X138000Y194000D01*
X140000Y196000D01*
X138000Y198000D02*
X140000Y196000D01*
X138000D02*
Y198000D01*
Y196000D02*
X140000Y194000D01*
Y195000D01*
X143000Y198000D01*
X141000Y194000D02*
X144000Y197000D01*
X138000Y194000D02*
X144000D01*
Y197000D01*
X137000Y198000D02*
X143000D01*
X159248Y20752D02*
X160000D01*
X152000D02*
X160000D01*
X168000D01*
D19*
X70000Y50000D02*
X72000D01*
Y217000D02*
X80000Y225000D01*
X173400D02*
X184100Y214300D01*
X158000Y225000D02*
X173400D01*
X80000D02*
X105000D01*
X155000D02*
X157000Y227000D01*
X155000Y225000D02*
Y228000D01*
Y225000D02*
X158000D01*
Y228000D01*
X155000D02*
X158000D01*
X155000Y225000D02*
Y228000D01*
X105000D02*
X108000Y225000D01*
Y228000D01*
X105000D02*
X108000D01*
X105000Y225000D02*
Y228000D01*
Y225000D02*
X108000D01*
X194000Y50000D02*
X196000D01*
X194000Y94000D02*
X196000D01*
X194000Y144000D02*
X196000D01*
X194000Y188000D02*
X196000D01*
X70000Y94000D02*
X72000D01*
X70000Y144000D02*
X72000D01*
X70000Y188000D02*
X72000D01*
Y170000D02*
Y217000D01*
Y36000D02*
Y76000D01*
Y123000D01*
Y170000D01*
X196000Y76000D02*
Y123000D01*
Y36000D02*
Y76000D01*
Y123000D02*
Y170000D01*
Y215000D01*
X184100Y205900D02*
Y214300D01*
X185800Y216000D01*
X195000D01*
X60100Y205900D02*
Y214800D01*
X62300Y217000D01*
X72000D01*
X195000Y216000D02*
X196000Y215000D01*
D20*
X126716Y52716D02*
X130000Y56000D01*
X125295Y52716D02*
X126716D01*
X117835D02*
X125295D01*
X70000Y217000D02*
X72000D01*
X67000Y76000D02*
X67016Y75984D01*
Y69945D02*
Y75984D01*
X66000Y123000D02*
X67016Y121984D01*
Y113945D02*
Y121984D01*
X67000Y170000D02*
X67016Y169984D01*
Y163945D02*
Y169984D01*
X191000Y76000D02*
X191016Y75984D01*
Y69945D02*
Y75984D01*
X191000Y123000D02*
X191016Y122984D01*
Y113945D02*
Y122984D01*
Y169916D02*
X191100Y170000D01*
X191016Y163945D02*
Y169916D01*
X193032Y216000D02*
X195000D01*
X191016Y213984D02*
X193032Y216000D01*
X191016Y207945D02*
Y213984D01*
X67016Y214016D02*
X70000Y217000D01*
X67016Y207945D02*
Y214016D01*
X135900Y53000D02*
X136184Y52716D01*
X136278Y58622D02*
X142165D01*
X135900Y59000D02*
X136278Y58622D01*
X136184Y52716D02*
X142165D01*
X136372Y64528D02*
X142165D01*
X135900Y65000D02*
X136372Y64528D01*
X136467Y70433D02*
X142165D01*
X135900Y71000D02*
X136467Y70433D01*
X136239Y76339D02*
X142165D01*
X135900Y76000D02*
X136239Y76339D01*
X136144Y82244D02*
X142165D01*
X135900Y82000D02*
X136144Y82244D01*
X135955Y94055D02*
X142165D01*
X135900Y94000D02*
X135955Y94055D01*
X135939Y99961D02*
X142165D01*
X135900Y100000D02*
X135939Y99961D01*
X137034Y105866D02*
X142165D01*
X136766D02*
X142165D01*
X136939Y99961D02*
X142165D01*
X136861D02*
X142165D01*
X136845Y94055D02*
X142165D01*
X136955D02*
X142165D01*
X137050Y88150D02*
X142165D01*
X136656Y82244D02*
X142165D01*
X135900Y83000D02*
X136656Y82244D01*
X137144D02*
X142165D01*
X135900Y81000D02*
Y84000D01*
X137239Y76339D02*
X142165D01*
X137333Y70433D02*
X142165D01*
X137467D02*
X142165D01*
X137372Y64528D02*
X142165D01*
X137428D02*
X142165D01*
X137278Y58622D02*
X142165D01*
X137522D02*
X142165D01*
X137561Y76339D02*
X142165D01*
X137656Y82244D02*
X142165D01*
X135900Y80000D02*
Y80488D01*
Y88000D02*
X136050Y88150D01*
X142165D01*
X135900Y87000D02*
Y88000D01*
X137750Y88150D02*
X142165D01*
X136750D02*
X142165D01*
X136357Y131457D02*
X142165D01*
X135900Y131000D02*
X136357Y131457D01*
X136262Y137362D02*
X142165D01*
X135900Y137000D02*
X136262Y137362D01*
X136168Y143268D02*
X142165D01*
X135900Y143000D02*
X136168Y143268D01*
X136073Y149173D02*
X142165D01*
X135900Y149000D02*
X136073Y149173D01*
X135979Y155079D02*
X142165D01*
X135900Y155000D02*
X135979Y155079D01*
X135916Y160984D02*
X142165D01*
X135900Y161000D02*
X135916Y160984D01*
X136010Y166890D02*
X142165D01*
X135900Y167000D02*
X136010Y166890D01*
X136105Y172795D02*
X142165D01*
X135900Y173000D02*
X136105Y172795D01*
X136199Y178701D02*
X142165D01*
X135900Y179000D02*
X136199Y178701D01*
X136294Y184606D02*
X142165D01*
X135900Y185000D02*
X136294Y184606D01*
X135900Y53000D02*
X147652Y41248D01*
X152000D01*
D21*
X59000Y135000D02*
Y139000D01*
Y183000D02*
X62000Y186000D01*
X59000Y183000D02*
X62000D01*
Y186000D01*
X59000D02*
X62000D01*
X59000Y183000D02*
Y186000D01*
Y182000D02*
Y183000D01*
X63000Y201000D02*
X66000D01*
X63000D02*
X66000D01*
D22*
X80587Y71500D02*
D03*
Y165500D02*
D03*
D23*
X179500Y70500D02*
D03*
Y114500D02*
D03*
Y164500D02*
D03*
Y208500D02*
D03*
X55500Y70500D02*
D03*
Y114500D02*
D03*
Y164500D02*
D03*
Y208500D02*
D03*
D24*
X186134Y38110D02*
D03*
X188102D02*
D03*
X184165Y70000D02*
D03*
X186055Y82055D02*
D03*
X188102Y82110D02*
D03*
X184165Y114000D02*
D03*
X186055Y132055D02*
D03*
X188102Y132110D02*
D03*
X184055Y164055D02*
D03*
X186134Y176110D02*
D03*
X188055Y176055D02*
D03*
X184165Y208000D02*
D03*
X62134Y38110D02*
D03*
X64102D02*
D03*
X60165Y70000D02*
D03*
X62134Y82110D02*
D03*
X64102D02*
D03*
X60165Y114000D02*
D03*
X62134Y132110D02*
D03*
X64102D02*
D03*
X60055Y164055D02*
D03*
X62134Y176110D02*
D03*
X64102D02*
D03*
X197945Y208000D02*
D03*
Y176110D02*
D03*
Y164000D02*
D03*
Y132110D02*
D03*
Y114000D02*
D03*
Y82110D02*
D03*
Y70000D02*
D03*
Y38110D02*
D03*
X73945D02*
D03*
Y70000D02*
D03*
Y82110D02*
D03*
Y114000D02*
D03*
Y132110D02*
D03*
Y164000D02*
D03*
Y176110D02*
D03*
Y208000D02*
D03*
D25*
X244000Y221000D02*
D03*
Y216000D02*
D03*
Y211000D02*
D03*
Y206000D02*
D03*
Y201000D02*
D03*
Y196000D02*
D03*
Y191000D02*
D03*
Y186000D02*
D03*
Y169000D02*
D03*
Y164000D02*
D03*
Y159000D02*
D03*
Y154000D02*
D03*
Y149000D02*
D03*
Y144000D02*
D03*
Y139000D02*
D03*
Y134000D02*
D03*
Y117000D02*
D03*
Y112000D02*
D03*
Y107000D02*
D03*
Y102000D02*
D03*
Y97000D02*
D03*
Y92000D02*
D03*
Y87000D02*
D03*
Y82000D02*
D03*
Y65000D02*
D03*
Y60000D02*
D03*
Y55000D02*
D03*
Y50000D02*
D03*
Y45000D02*
D03*
Y40000D02*
D03*
Y35000D02*
D03*
Y30000D02*
D03*
X17000Y7000D02*
D03*
Y12000D02*
D03*
Y17000D02*
D03*
Y22000D02*
D03*
Y27000D02*
D03*
Y32000D02*
D03*
Y37000D02*
D03*
Y42000D02*
D03*
Y47000D02*
D03*
Y52000D02*
D03*
Y69000D02*
D03*
Y74000D02*
D03*
Y79000D02*
D03*
Y84000D02*
D03*
Y89000D02*
D03*
Y94000D02*
D03*
Y99000D02*
D03*
Y104000D02*
D03*
Y109000D02*
D03*
Y114000D02*
D03*
Y131000D02*
D03*
Y136000D02*
D03*
Y141000D02*
D03*
Y146000D02*
D03*
Y151000D02*
D03*
Y156000D02*
D03*
Y161000D02*
D03*
Y166000D02*
D03*
Y171000D02*
D03*
Y176000D02*
D03*
Y193000D02*
D03*
Y198000D02*
D03*
Y203000D02*
D03*
Y208000D02*
D03*
Y213000D02*
D03*
Y218000D02*
D03*
Y223000D02*
D03*
Y228000D02*
D03*
Y233000D02*
D03*
Y238000D02*
D03*
D26*
X244000Y181000D02*
D03*
Y129000D02*
D03*
Y77000D02*
D03*
Y25000D02*
D03*
X17000Y57000D02*
D03*
Y119000D02*
D03*
Y181000D02*
D03*
Y243000D02*
D03*
D27*
X202000Y235500D02*
D03*
X50500Y236500D02*
D03*
X108000Y32000D02*
D03*
D28*
X130000Y19996D02*
D03*
Y300004D02*
D03*
D29*
X24000Y258000D02*
D03*
X226000D02*
D03*
D30*
X206000Y123000D02*
D03*
Y173000D02*
D03*
Y217000D02*
D03*
X171000Y32000D02*
D03*
X203500Y27000D02*
D03*
X183000Y89000D02*
D03*
Y100000D02*
D03*
X186000Y89000D02*
D03*
Y92000D02*
D03*
X183000Y97000D02*
D03*
Y92000D02*
D03*
X108000Y201000D02*
D03*
Y198000D02*
D03*
Y204000D02*
D03*
X157500Y32000D02*
D03*
X162000D02*
D03*
X174000D02*
D03*
X206000Y29000D02*
D03*
X81000Y70000D02*
D03*
Y164000D02*
D03*
Y214000D02*
D03*
Y211000D02*
D03*
X208000Y22000D02*
D03*
X211000D02*
D03*
Y7500D02*
D03*
X81500D02*
D03*
Y4500D02*
D03*
X211000D02*
D03*
X86000Y77000D02*
D03*
Y80000D02*
D03*
X81000Y73000D02*
D03*
X86000Y121000D02*
D03*
X81000Y120000D02*
D03*
X86000Y124000D02*
D03*
X81000Y117000D02*
D03*
X86000Y171000D02*
D03*
Y174000D02*
D03*
X81000Y167000D02*
D03*
X211000Y208000D02*
D03*
Y211000D02*
D03*
X206000Y214000D02*
D03*
X211000Y164000D02*
D03*
Y167000D02*
D03*
X206000Y170000D02*
D03*
X211000Y114000D02*
D03*
Y117000D02*
D03*
X206000Y120000D02*
D03*
Y79000D02*
D03*
Y76000D02*
D03*
X211000Y73000D02*
D03*
Y70000D02*
D03*
X86000Y218000D02*
D03*
Y215000D02*
D03*
X178000Y9000D02*
D03*
X169000Y15500D02*
D03*
X163500D02*
D03*
X158000D02*
D03*
X57000Y28000D02*
D03*
X54000D02*
D03*
X175000Y9000D02*
D03*
X105000Y225000D02*
D03*
X108000Y228000D02*
D03*
Y225000D02*
D03*
X158000Y228000D02*
D03*
X178000Y72000D02*
D03*
Y69000D02*
D03*
Y116000D02*
D03*
Y113000D02*
D03*
Y166000D02*
D03*
Y163000D02*
D03*
Y210000D02*
D03*
Y207000D02*
D03*
X54000Y72000D02*
D03*
Y69000D02*
D03*
Y116000D02*
D03*
Y113000D02*
D03*
Y166000D02*
D03*
Y163000D02*
D03*
Y207000D02*
D03*
Y210000D02*
D03*
X194000Y50000D02*
D03*
X197000D02*
D03*
X194000Y94000D02*
D03*
X197000D02*
D03*
X194000Y144000D02*
D03*
X197000D02*
D03*
X194000Y188000D02*
D03*
X197000D02*
D03*
X70000Y50000D02*
D03*
X73000D02*
D03*
X70000Y94000D02*
D03*
X73000D02*
D03*
X70000Y144000D02*
D03*
X73000D02*
D03*
X77000Y192000D02*
D03*
Y195000D02*
D03*
Y183000D02*
D03*
Y186000D02*
D03*
X73000Y188000D02*
D03*
X70000D02*
D03*
X63000Y63000D02*
D03*
X66000D02*
D03*
X201000Y195000D02*
D03*
Y192000D02*
D03*
X158000Y225000D02*
D03*
X155000D02*
D03*
Y228000D02*
D03*
X105000D02*
D03*
X62300Y16000D02*
D03*
X130000Y81000D02*
D03*
Y106000D02*
D03*
Y135000D02*
D03*
Y160000D02*
D03*
Y239000D02*
D03*
Y264000D02*
D03*
X108000Y213000D02*
D03*
Y207000D02*
D03*
Y210000D02*
D03*
X201000Y186000D02*
D03*
Y183000D02*
D03*
X183000Y186000D02*
D03*
X186000Y183000D02*
D03*
X183000D02*
D03*
X186000Y186000D02*
D03*
X183000Y191000D02*
D03*
Y194000D02*
D03*
X190000Y201000D02*
D03*
X187000D02*
D03*
X183000Y142000D02*
D03*
X186000Y139000D02*
D03*
X183000D02*
D03*
X201000Y151000D02*
D03*
Y142000D02*
D03*
X186000D02*
D03*
X201000Y139000D02*
D03*
Y148000D02*
D03*
X183000Y147000D02*
D03*
Y150000D02*
D03*
X190000Y157000D02*
D03*
X187000D02*
D03*
X201000Y101000D02*
D03*
Y92000D02*
D03*
Y89000D02*
D03*
Y98000D02*
D03*
X190000Y107000D02*
D03*
X187000D02*
D03*
X183000Y48000D02*
D03*
X186000Y45000D02*
D03*
X183000D02*
D03*
X201000Y57000D02*
D03*
Y48000D02*
D03*
X186000D02*
D03*
X201000Y45000D02*
D03*
Y54000D02*
D03*
X183000Y53000D02*
D03*
Y56000D02*
D03*
X190000Y63000D02*
D03*
X187000D02*
D03*
X59000Y48000D02*
D03*
X62000Y45000D02*
D03*
X59000D02*
D03*
X77000Y57000D02*
D03*
Y48000D02*
D03*
X62000D02*
D03*
X77000Y45000D02*
D03*
Y54000D02*
D03*
X59000Y53000D02*
D03*
Y56000D02*
D03*
Y92000D02*
D03*
X62000Y89000D02*
D03*
X59000D02*
D03*
X77000Y101000D02*
D03*
Y92000D02*
D03*
X62000D02*
D03*
X77000Y89000D02*
D03*
Y98000D02*
D03*
X59000Y97000D02*
D03*
Y100000D02*
D03*
X66000Y107000D02*
D03*
X63000D02*
D03*
X59000Y142000D02*
D03*
X62000Y139000D02*
D03*
X59000D02*
D03*
X77000Y151000D02*
D03*
Y142000D02*
D03*
X62000D02*
D03*
X77000Y139000D02*
D03*
Y148000D02*
D03*
X59000Y147000D02*
D03*
Y150000D02*
D03*
X66000Y157000D02*
D03*
X63000D02*
D03*
Y201000D02*
D03*
X66000D02*
D03*
X59000Y194000D02*
D03*
Y191000D02*
D03*
X62000Y186000D02*
D03*
X59000Y183000D02*
D03*
X62000D02*
D03*
X59000Y186000D02*
D03*
X140000Y198000D02*
D03*
X143000D02*
D03*
X137000D02*
D03*
X144000Y194000D02*
D03*
X138000D02*
D03*
X141000D02*
D03*
X128300Y277500D02*
D03*
X131100D02*
D03*
Y280000D02*
D03*
X128300D02*
D03*
X131100Y282600D02*
D03*
X128300D02*
D03*
X127300Y39100D02*
D03*
Y41900D02*
D03*
X129900Y39100D02*
D03*
Y41900D02*
D03*
X132400D02*
D03*
Y39100D02*
D03*
M02*
