G04 Layer_Color=8388736*
%FSLAX25Y25*%
%MOIN*%
G70*
G01*
G75*
%ADD17C,0.01000*%
%ADD284R,0.04737X0.04540*%
%ADD285R,0.04737X0.04737*%
%ADD286O,0.07887X0.01981*%
%ADD287O,0.01981X0.07887*%
%ADD288R,0.06102X0.01575*%
%ADD289R,0.02913X0.10394*%
%ADD290R,0.02913X0.18898*%
%ADD291C,0.04737*%
%ADD292R,0.04737X0.04737*%
%ADD293C,0.09055*%
%ADD294C,0.25800*%
%ADD295C,0.00800*%
%ADD296C,0.08674*%
D17*
X0Y0D02*
X260000D01*
Y320000D01*
X0D02*
X260000D01*
X0Y0D02*
Y320000D01*
D284*
X152000Y20752D02*
D03*
Y27248D02*
D03*
X160000Y20752D02*
D03*
Y27248D02*
D03*
X168000Y20752D02*
D03*
Y27248D02*
D03*
X152000Y34752D02*
D03*
Y41248D02*
D03*
D285*
X176000Y26921D02*
D03*
Y22000D02*
D03*
Y17079D02*
D03*
D286*
X83945Y202827D02*
D03*
Y200858D02*
D03*
Y198890D02*
D03*
Y196921D02*
D03*
Y194953D02*
D03*
Y192984D02*
D03*
Y191016D02*
D03*
Y189047D02*
D03*
Y187079D02*
D03*
Y185110D02*
D03*
Y183142D02*
D03*
Y181173D02*
D03*
X52055D02*
D03*
Y183142D02*
D03*
Y185110D02*
D03*
Y187079D02*
D03*
Y189047D02*
D03*
Y191016D02*
D03*
Y192984D02*
D03*
Y194953D02*
D03*
Y196921D02*
D03*
Y198890D02*
D03*
Y200858D02*
D03*
Y202827D02*
D03*
X207945D02*
D03*
Y200858D02*
D03*
Y198890D02*
D03*
Y196921D02*
D03*
Y194953D02*
D03*
Y192984D02*
D03*
Y191016D02*
D03*
Y189047D02*
D03*
Y187079D02*
D03*
Y185110D02*
D03*
Y183142D02*
D03*
Y181173D02*
D03*
X176055D02*
D03*
Y183142D02*
D03*
Y185110D02*
D03*
Y187079D02*
D03*
Y189047D02*
D03*
Y191016D02*
D03*
Y192984D02*
D03*
Y194953D02*
D03*
Y196921D02*
D03*
Y198890D02*
D03*
Y200858D02*
D03*
Y202827D02*
D03*
X207945Y158827D02*
D03*
Y156858D02*
D03*
Y154890D02*
D03*
Y152921D02*
D03*
Y150953D02*
D03*
Y148984D02*
D03*
Y147016D02*
D03*
Y145047D02*
D03*
Y143079D02*
D03*
Y141110D02*
D03*
Y139142D02*
D03*
Y137173D02*
D03*
X176055D02*
D03*
Y139142D02*
D03*
Y141110D02*
D03*
Y143079D02*
D03*
Y145047D02*
D03*
Y147016D02*
D03*
Y148984D02*
D03*
Y150953D02*
D03*
Y152921D02*
D03*
Y154890D02*
D03*
Y156858D02*
D03*
Y158827D02*
D03*
X207945Y108827D02*
D03*
Y106858D02*
D03*
Y104890D02*
D03*
Y102921D02*
D03*
Y100953D02*
D03*
Y98984D02*
D03*
Y97016D02*
D03*
Y95047D02*
D03*
Y93079D02*
D03*
Y91110D02*
D03*
Y89142D02*
D03*
Y87173D02*
D03*
X176055D02*
D03*
Y89142D02*
D03*
Y91110D02*
D03*
Y93079D02*
D03*
Y95047D02*
D03*
Y97016D02*
D03*
Y98984D02*
D03*
Y100953D02*
D03*
Y102921D02*
D03*
Y104890D02*
D03*
Y106858D02*
D03*
Y108827D02*
D03*
X207945Y64827D02*
D03*
Y62858D02*
D03*
Y60890D02*
D03*
Y58921D02*
D03*
Y56953D02*
D03*
Y54984D02*
D03*
Y53016D02*
D03*
Y51047D02*
D03*
Y49079D02*
D03*
Y47110D02*
D03*
Y45142D02*
D03*
Y43173D02*
D03*
X176055D02*
D03*
Y45142D02*
D03*
Y47110D02*
D03*
Y49079D02*
D03*
Y51047D02*
D03*
Y53016D02*
D03*
Y54984D02*
D03*
Y56953D02*
D03*
Y58921D02*
D03*
Y60890D02*
D03*
Y62858D02*
D03*
Y64827D02*
D03*
X83945Y158827D02*
D03*
Y156858D02*
D03*
Y154890D02*
D03*
Y152921D02*
D03*
Y150953D02*
D03*
Y148984D02*
D03*
Y147016D02*
D03*
Y145047D02*
D03*
Y143079D02*
D03*
Y141110D02*
D03*
Y139142D02*
D03*
Y137173D02*
D03*
X52055D02*
D03*
Y139142D02*
D03*
Y141110D02*
D03*
Y143079D02*
D03*
Y145047D02*
D03*
Y147016D02*
D03*
Y148984D02*
D03*
Y150953D02*
D03*
Y152921D02*
D03*
Y154890D02*
D03*
Y156858D02*
D03*
Y158827D02*
D03*
X83945Y108827D02*
D03*
Y106858D02*
D03*
Y104890D02*
D03*
Y102921D02*
D03*
Y100953D02*
D03*
Y98984D02*
D03*
Y97016D02*
D03*
Y95047D02*
D03*
Y93079D02*
D03*
Y91110D02*
D03*
Y89142D02*
D03*
Y87173D02*
D03*
X52055D02*
D03*
Y89142D02*
D03*
Y91110D02*
D03*
Y93079D02*
D03*
Y95047D02*
D03*
Y97016D02*
D03*
Y98984D02*
D03*
Y100953D02*
D03*
Y102921D02*
D03*
Y104890D02*
D03*
Y106858D02*
D03*
Y108827D02*
D03*
X83945Y64827D02*
D03*
Y62858D02*
D03*
Y60890D02*
D03*
Y58921D02*
D03*
Y56953D02*
D03*
Y54984D02*
D03*
Y53016D02*
D03*
Y51047D02*
D03*
Y49079D02*
D03*
Y47110D02*
D03*
Y45142D02*
D03*
Y43173D02*
D03*
X52055D02*
D03*
Y45142D02*
D03*
Y47110D02*
D03*
Y49079D02*
D03*
Y51047D02*
D03*
Y53016D02*
D03*
Y54984D02*
D03*
Y56953D02*
D03*
Y58921D02*
D03*
Y60890D02*
D03*
Y62858D02*
D03*
Y64827D02*
D03*
D287*
X78827Y176055D02*
D03*
X76858D02*
D03*
X74890D02*
D03*
X72921D02*
D03*
X70953D02*
D03*
X68984D02*
D03*
X67016D02*
D03*
X65047D02*
D03*
X63079D02*
D03*
X61110D02*
D03*
X59142D02*
D03*
X57173D02*
D03*
Y207945D02*
D03*
X59142D02*
D03*
X61110D02*
D03*
X63079D02*
D03*
X65047D02*
D03*
X67016D02*
D03*
X68984D02*
D03*
X70953D02*
D03*
X72921D02*
D03*
X74890D02*
D03*
X76858D02*
D03*
X78827D02*
D03*
X202827Y176055D02*
D03*
X200858D02*
D03*
X198890D02*
D03*
X196921D02*
D03*
X194953D02*
D03*
X192984D02*
D03*
X191016D02*
D03*
X189047D02*
D03*
X187079D02*
D03*
X185110D02*
D03*
X183142D02*
D03*
X181173D02*
D03*
Y207945D02*
D03*
X183142D02*
D03*
X185110D02*
D03*
X187079D02*
D03*
X189047D02*
D03*
X191016D02*
D03*
X192984D02*
D03*
X194953D02*
D03*
X196921D02*
D03*
X198890D02*
D03*
X200858D02*
D03*
X202827D02*
D03*
Y132055D02*
D03*
X200858D02*
D03*
X198890D02*
D03*
X196921D02*
D03*
X194953D02*
D03*
X192984D02*
D03*
X191016D02*
D03*
X189047D02*
D03*
X187079D02*
D03*
X185110D02*
D03*
X183142D02*
D03*
X181173D02*
D03*
Y163945D02*
D03*
X183142D02*
D03*
X185110D02*
D03*
X187079D02*
D03*
X189047D02*
D03*
X191016D02*
D03*
X192984D02*
D03*
X194953D02*
D03*
X196921D02*
D03*
X198890D02*
D03*
X200858D02*
D03*
X202827D02*
D03*
Y82055D02*
D03*
X200858D02*
D03*
X198890D02*
D03*
X196921D02*
D03*
X194953D02*
D03*
X192984D02*
D03*
X191016D02*
D03*
X189047D02*
D03*
X187079D02*
D03*
X185110D02*
D03*
X183142D02*
D03*
X181173D02*
D03*
Y113945D02*
D03*
X183142D02*
D03*
X185110D02*
D03*
X187079D02*
D03*
X189047D02*
D03*
X191016D02*
D03*
X192984D02*
D03*
X194953D02*
D03*
X196921D02*
D03*
X198890D02*
D03*
X200858D02*
D03*
X202827D02*
D03*
Y38055D02*
D03*
X200858D02*
D03*
X198890D02*
D03*
X196921D02*
D03*
X194953D02*
D03*
X192984D02*
D03*
X191016D02*
D03*
X189047D02*
D03*
X187079D02*
D03*
X185110D02*
D03*
X183142D02*
D03*
X181173D02*
D03*
Y69945D02*
D03*
X183142D02*
D03*
X185110D02*
D03*
X187079D02*
D03*
X189047D02*
D03*
X191016D02*
D03*
X192984D02*
D03*
X194953D02*
D03*
X196921D02*
D03*
X198890D02*
D03*
X200858D02*
D03*
X202827D02*
D03*
X78827Y132055D02*
D03*
X76858D02*
D03*
X74890D02*
D03*
X72921D02*
D03*
X70953D02*
D03*
X68984D02*
D03*
X67016D02*
D03*
X65047D02*
D03*
X63079D02*
D03*
X61110D02*
D03*
X59142D02*
D03*
X57173D02*
D03*
Y163945D02*
D03*
X59142D02*
D03*
X61110D02*
D03*
X63079D02*
D03*
X65047D02*
D03*
X67016D02*
D03*
X68984D02*
D03*
X70953D02*
D03*
X72921D02*
D03*
X74890D02*
D03*
X76858D02*
D03*
X78827D02*
D03*
Y82055D02*
D03*
X76858D02*
D03*
X74890D02*
D03*
X72921D02*
D03*
X70953D02*
D03*
X68984D02*
D03*
X67016D02*
D03*
X65047D02*
D03*
X63079D02*
D03*
X61110D02*
D03*
X59142D02*
D03*
X57173D02*
D03*
Y113945D02*
D03*
X59142D02*
D03*
X61110D02*
D03*
X63079D02*
D03*
X65047D02*
D03*
X67016D02*
D03*
X68984D02*
D03*
X70953D02*
D03*
X72921D02*
D03*
X74890D02*
D03*
X76858D02*
D03*
X78827D02*
D03*
Y38055D02*
D03*
X76858D02*
D03*
X74890D02*
D03*
X72921D02*
D03*
X70953D02*
D03*
X68984D02*
D03*
X67016D02*
D03*
X65047D02*
D03*
X63079D02*
D03*
X61110D02*
D03*
X59142D02*
D03*
X57173D02*
D03*
Y69945D02*
D03*
X59142D02*
D03*
X61110D02*
D03*
X63079D02*
D03*
X65047D02*
D03*
X67016D02*
D03*
X68984D02*
D03*
X70953D02*
D03*
X72921D02*
D03*
X74890D02*
D03*
X76858D02*
D03*
X78827D02*
D03*
D288*
X142165Y267284D02*
D03*
X117835D02*
D03*
X142165Y265315D02*
D03*
X117835D02*
D03*
X142165Y261378D02*
D03*
X117835D02*
D03*
X142165Y259409D02*
D03*
X117835D02*
D03*
X142165Y255472D02*
D03*
X117835D02*
D03*
X142165Y253504D02*
D03*
X117835D02*
D03*
X142165Y249567D02*
D03*
X117835D02*
D03*
X142165Y247598D02*
D03*
X117835D02*
D03*
X142165Y243661D02*
D03*
X117835D02*
D03*
X142165Y241693D02*
D03*
X117835D02*
D03*
X142165Y237756D02*
D03*
X117835D02*
D03*
X142165Y235787D02*
D03*
X117835D02*
D03*
X142165Y231850D02*
D03*
X117835D02*
D03*
X142165Y229882D02*
D03*
X117835D02*
D03*
X142165Y225945D02*
D03*
X117835D02*
D03*
X142165Y223976D02*
D03*
X117835D02*
D03*
X142165Y220039D02*
D03*
X117835D02*
D03*
X142165Y218071D02*
D03*
X117835D02*
D03*
X142165Y214134D02*
D03*
X117835D02*
D03*
X142165Y212165D02*
D03*
X117835D02*
D03*
X142165Y188543D02*
D03*
X117835D02*
D03*
X142165Y186575D02*
D03*
X117835D02*
D03*
X142165Y184606D02*
D03*
X117835D02*
D03*
X142165Y182638D02*
D03*
X117835D02*
D03*
X142165Y180669D02*
D03*
X117835D02*
D03*
X142165Y178701D02*
D03*
X117835D02*
D03*
X142165Y176732D02*
D03*
X117835D02*
D03*
X142165Y174764D02*
D03*
X117835D02*
D03*
X142165Y172795D02*
D03*
X117835D02*
D03*
X142165Y170827D02*
D03*
X117835D02*
D03*
X142165Y168858D02*
D03*
X117835D02*
D03*
X142165Y166890D02*
D03*
X117835D02*
D03*
X142165Y164921D02*
D03*
X117835D02*
D03*
X142165Y162953D02*
D03*
X117835D02*
D03*
X142165Y160984D02*
D03*
X117835D02*
D03*
X142165Y159016D02*
D03*
X117835D02*
D03*
X142165Y157047D02*
D03*
X117835D02*
D03*
X142165Y155079D02*
D03*
X117835D02*
D03*
X142165Y153110D02*
D03*
X117835D02*
D03*
X142165Y151142D02*
D03*
X117835D02*
D03*
X142165Y149173D02*
D03*
X117835D02*
D03*
X142165Y147205D02*
D03*
X117835D02*
D03*
X142165Y145236D02*
D03*
X117835D02*
D03*
X142165Y143268D02*
D03*
X117835D02*
D03*
X142165Y141299D02*
D03*
X117835D02*
D03*
X142165Y139331D02*
D03*
X117835D02*
D03*
X142165Y137362D02*
D03*
X117835D02*
D03*
X142165Y135394D02*
D03*
X117835D02*
D03*
X142165Y133425D02*
D03*
X117835D02*
D03*
X142165Y131457D02*
D03*
X117835D02*
D03*
X142165Y109803D02*
D03*
X117835D02*
D03*
X142165Y107835D02*
D03*
X117835D02*
D03*
X142165Y105866D02*
D03*
X117835D02*
D03*
X142165Y103898D02*
D03*
X117835D02*
D03*
X142165Y101929D02*
D03*
X117835D02*
D03*
X142165Y99961D02*
D03*
X117835D02*
D03*
X142165Y97992D02*
D03*
X117835D02*
D03*
X142165Y96024D02*
D03*
X117835D02*
D03*
X142165Y94055D02*
D03*
X117835D02*
D03*
X142165Y92087D02*
D03*
X117835D02*
D03*
X142165Y90118D02*
D03*
X117835D02*
D03*
X142165Y88150D02*
D03*
X117835D02*
D03*
X142165Y86181D02*
D03*
X117835D02*
D03*
X142165Y84213D02*
D03*
X117835D02*
D03*
X142165Y82244D02*
D03*
X117835D02*
D03*
X142165Y80276D02*
D03*
X117835D02*
D03*
X142165Y78307D02*
D03*
X117835D02*
D03*
X142165Y76339D02*
D03*
X117835D02*
D03*
X142165Y74370D02*
D03*
X117835D02*
D03*
X142165Y72402D02*
D03*
X117835D02*
D03*
X142165Y70433D02*
D03*
X117835D02*
D03*
X142165Y68465D02*
D03*
X117835D02*
D03*
X142165Y66496D02*
D03*
X117835D02*
D03*
X142165Y64528D02*
D03*
X117835D02*
D03*
X142165Y62559D02*
D03*
X117835D02*
D03*
X142165Y60590D02*
D03*
X117835D02*
D03*
X142165Y58622D02*
D03*
X117835D02*
D03*
X142165Y56653D02*
D03*
X117835D02*
D03*
X142165Y54685D02*
D03*
X117835D02*
D03*
X142165Y52716D02*
D03*
X117835D02*
D03*
D289*
X130000Y271988D02*
D03*
Y205492D02*
D03*
Y193248D02*
D03*
Y126752D02*
D03*
Y114508D02*
D03*
Y48012D02*
D03*
D290*
Y251240D02*
D03*
Y226240D02*
D03*
Y172500D02*
D03*
Y147500D02*
D03*
Y93760D02*
D03*
Y68760D02*
D03*
D291*
X244000Y221000D02*
D03*
Y216000D02*
D03*
Y211000D02*
D03*
Y206000D02*
D03*
Y201000D02*
D03*
Y191000D02*
D03*
Y186000D02*
D03*
Y169000D02*
D03*
Y164000D02*
D03*
Y159000D02*
D03*
Y154000D02*
D03*
Y149000D02*
D03*
Y139000D02*
D03*
Y134000D02*
D03*
Y117000D02*
D03*
Y112000D02*
D03*
Y107000D02*
D03*
Y102000D02*
D03*
Y97000D02*
D03*
Y87000D02*
D03*
Y82000D02*
D03*
Y65000D02*
D03*
Y60000D02*
D03*
Y55000D02*
D03*
Y50000D02*
D03*
Y45000D02*
D03*
Y35000D02*
D03*
Y30000D02*
D03*
X17000Y7000D02*
D03*
Y12000D02*
D03*
Y17000D02*
D03*
Y22000D02*
D03*
Y27000D02*
D03*
Y32000D02*
D03*
Y42000D02*
D03*
Y47000D02*
D03*
Y52000D02*
D03*
Y69000D02*
D03*
Y74000D02*
D03*
Y79000D02*
D03*
Y84000D02*
D03*
Y89000D02*
D03*
Y94000D02*
D03*
Y104000D02*
D03*
Y109000D02*
D03*
Y114000D02*
D03*
Y131000D02*
D03*
Y136000D02*
D03*
Y141000D02*
D03*
Y146000D02*
D03*
Y151000D02*
D03*
Y156000D02*
D03*
Y166000D02*
D03*
Y171000D02*
D03*
Y176000D02*
D03*
Y193000D02*
D03*
Y198000D02*
D03*
Y203000D02*
D03*
Y208000D02*
D03*
Y213000D02*
D03*
Y218000D02*
D03*
Y228000D02*
D03*
Y233000D02*
D03*
Y238000D02*
D03*
D292*
X244000Y181000D02*
D03*
Y129000D02*
D03*
Y77000D02*
D03*
Y25000D02*
D03*
X17000Y57000D02*
D03*
Y119000D02*
D03*
Y181000D02*
D03*
Y243000D02*
D03*
D293*
X202000Y235500D02*
D03*
X50500Y236500D02*
D03*
X108000Y32000D02*
D03*
D294*
X130000Y19996D02*
D03*
Y300004D02*
D03*
D295*
X137992Y275118D02*
D03*
Y44882D02*
D03*
D296*
X24000Y258000D02*
D03*
X226000D02*
D03*
M02*
