G04 Layer_Color=2752767*
%FSLAX25Y25*%
%MOIN*%
G70*
G01*
G75*
%ADD11C,0.01000*%
%ADD302C,0.00200*%
%ADD303C,0.00267*%
D11*
X0Y0D02*
X692500D01*
X0Y157500D02*
X692500D01*
X0Y0D02*
Y157500D01*
X692500Y0D02*
Y157500D01*
D302*
X132240Y103900D02*
Y105500D01*
X133840D01*
Y103900D01*
X132240D01*
X53500D02*
Y105500D01*
X55100D01*
Y103900D01*
X53500D01*
X9500Y72300D02*
X8700Y73900D01*
X10300D01*
X9500Y72300D01*
X19500D02*
X18700Y73900D01*
X20300D01*
X19500Y72300D01*
X478700Y75956D02*
X477900Y77556D01*
X479500D01*
X478700Y75956D01*
Y65956D02*
X477900Y67556D01*
X479500D01*
X478700Y65956D01*
Y55956D02*
X477900Y57556D01*
X479500D01*
X478700Y55956D01*
X20000Y19200D02*
X20400Y19600D01*
X20800D01*
X20400Y20000D01*
X20800Y20400D01*
X20400D01*
X20000Y20800D01*
X19600Y20400D01*
X19200D01*
X19600Y20000D01*
X19200Y19600D01*
X19600D01*
X20000Y19200D01*
X673000D02*
X673400Y19600D01*
X673800D01*
X673400Y20000D01*
X673800Y20400D01*
X673400D01*
X673000Y20800D01*
X672600Y20400D01*
X672200D01*
X672600Y20000D01*
X672200Y19600D01*
X672600D01*
X673000Y19200D01*
Y137200D02*
X673400Y137600D01*
X673800D01*
X673400Y138000D01*
X673800Y138400D01*
X673400D01*
X673000Y138800D01*
X672600Y138400D01*
X672200D01*
X672600Y138000D01*
X672200Y137600D01*
X672600D01*
X673000Y137200D01*
X20000D02*
X20400Y137600D01*
X20800D01*
X20400Y138000D01*
X20800Y138400D01*
X20400D01*
X20000Y138800D01*
X19600Y138400D01*
X19200D01*
X19600Y138000D01*
X19200Y137600D01*
X19600D01*
X20000Y137200D01*
X478700Y123200D02*
X477900Y124800D01*
X479500D01*
X478700Y123200D01*
Y113200D02*
X477900Y114800D01*
X479500D01*
X478700Y113200D01*
Y103200D02*
X477900Y104800D01*
X479500D01*
X478700Y103200D01*
X418200Y75956D02*
X417400Y77556D01*
X419000D01*
X418200Y75956D01*
Y65956D02*
X417400Y67556D01*
X419000D01*
X418200Y65956D01*
Y55956D02*
X417400Y57556D01*
X419000D01*
X418200Y55956D01*
Y123200D02*
X417400Y124800D01*
X419000D01*
X418200Y123200D01*
Y113200D02*
X417400Y114800D01*
X419000D01*
X418200Y113200D01*
Y103200D02*
X417400Y104800D01*
X419000D01*
X418200Y103200D01*
X357700Y75956D02*
X356900Y77556D01*
X358500D01*
X357700Y75956D01*
Y65956D02*
X356900Y67556D01*
X358500D01*
X357700Y65956D01*
Y55956D02*
X356900Y57556D01*
X358500D01*
X357700Y55956D01*
Y123200D02*
X356900Y124800D01*
X358500D01*
X357700Y123200D01*
Y113200D02*
X356900Y114800D01*
X358500D01*
X357700Y113200D01*
Y103200D02*
X356900Y104800D01*
X358500D01*
X357700Y103200D01*
X297200Y75956D02*
X296400Y77556D01*
X298000D01*
X297200Y75956D01*
Y65956D02*
X296400Y67556D01*
X298000D01*
X297200Y65956D01*
Y55956D02*
X296400Y57556D01*
X298000D01*
X297200Y55956D01*
Y123200D02*
X296400Y124800D01*
X298000D01*
X297200Y123200D01*
Y113200D02*
X296400Y114800D01*
X298000D01*
X297200Y113200D01*
Y103200D02*
X296400Y104800D01*
X298000D01*
X297200Y103200D01*
X533200Y96100D02*
X533600Y96900D01*
X533200Y97700D01*
X534000Y97300D01*
X534800Y97700D01*
X534400Y96900D01*
X534800Y96100D01*
X534000Y96500D01*
X533200Y96100D01*
X619100D02*
X619500Y96900D01*
X619100Y97700D01*
X619900Y97300D01*
X620700Y97700D01*
X620300Y96900D01*
X620700Y96100D01*
X619900Y96500D01*
X619100Y96100D01*
X566000Y93300D02*
Y92900D01*
X566800D01*
Y93300D01*
X567200D01*
Y94100D01*
X566800D01*
Y94500D01*
X566000D01*
Y94100D01*
X565600D01*
Y93300D01*
X566000D01*
X585600Y74600D02*
Y74200D01*
X586400D01*
Y74600D01*
X586800D01*
Y75400D01*
X586400D01*
Y75800D01*
X585600D01*
Y75400D01*
X585200D01*
Y74600D01*
X585600D01*
X582600Y75300D02*
Y74900D01*
X583400D01*
Y75300D01*
X583800D01*
Y76100D01*
X583400D01*
Y76500D01*
X582600D01*
Y76100D01*
X582200D01*
Y75300D01*
X582600D01*
X624600Y31100D02*
Y30700D01*
X625400D01*
Y31100D01*
X625800D01*
Y31900D01*
X625400D01*
Y32300D01*
X624600D01*
Y31900D01*
X624200D01*
Y31100D01*
X624600D01*
X592600Y30900D02*
Y30500D01*
X593400D01*
Y30900D01*
X593800D01*
Y31700D01*
X593400D01*
Y32100D01*
X592600D01*
Y31700D01*
X592200D01*
Y30900D01*
X592600D01*
X560100Y31000D02*
Y30600D01*
X560900D01*
Y31000D01*
X561300D01*
Y31800D01*
X560900D01*
Y32200D01*
X560100D01*
Y31800D01*
X559700D01*
Y31000D01*
X560100D01*
X529700D02*
Y30600D01*
X530500D01*
Y31000D01*
X530900D01*
Y31800D01*
X530500D01*
Y32200D01*
X529700D01*
Y31800D01*
X529300D01*
Y31000D01*
X529700D01*
X495000Y31300D02*
Y30900D01*
X495800D01*
Y31300D01*
X496200D01*
Y32100D01*
X495800D01*
Y32500D01*
X495000D01*
Y32100D01*
X494600D01*
Y31300D01*
X495000D01*
X568600Y93300D02*
Y92900D01*
X569400D01*
Y93300D01*
X569800D01*
Y94100D01*
X569400D01*
Y94500D01*
X568600D01*
Y94100D01*
X568200D01*
Y93300D01*
X568600D01*
X454000Y50300D02*
Y49900D01*
X454800D01*
Y50300D01*
X455200D01*
Y51100D01*
X454800D01*
Y51500D01*
X454000D01*
Y51100D01*
X453600D01*
Y50300D01*
X454000D01*
Y97400D02*
Y97000D01*
X454800D01*
Y97400D01*
X455200D01*
Y98200D01*
X454800D01*
Y98600D01*
X454000D01*
Y98200D01*
X453600D01*
Y97400D01*
X454000D01*
X454500Y76800D02*
Y76400D01*
X455300D01*
Y76800D01*
X455700D01*
Y77600D01*
X455300D01*
Y78000D01*
X454500D01*
Y77600D01*
X454100D01*
Y76800D01*
X454500D01*
Y124400D02*
Y124000D01*
X455300D01*
Y124400D01*
X455700D01*
Y125200D01*
X455300D01*
Y125600D01*
X454500D01*
Y125200D01*
X454100D01*
Y124400D01*
X454500D01*
X394100Y125200D02*
Y124800D01*
X394900D01*
Y125200D01*
X395300D01*
Y126000D01*
X394900D01*
Y126400D01*
X394100D01*
Y126000D01*
X393700D01*
Y125200D01*
X394100D01*
X394000Y98000D02*
Y97600D01*
X394800D01*
Y98000D01*
X395200D01*
Y98800D01*
X394800D01*
Y99200D01*
X394000D01*
Y98800D01*
X393600D01*
Y98000D01*
X394000D01*
X393800Y77600D02*
Y77200D01*
X394600D01*
Y77600D01*
X395000D01*
Y78400D01*
X394600D01*
Y78800D01*
X393800D01*
Y78400D01*
X393400D01*
Y77600D01*
X393800D01*
X393700Y50300D02*
Y49900D01*
X394500D01*
Y50300D01*
X394900D01*
Y51100D01*
X394500D01*
Y51500D01*
X393700D01*
Y51100D01*
X393300D01*
Y50300D01*
X393700D01*
X334000Y50600D02*
Y50200D01*
X334800D01*
Y50600D01*
X335200D01*
Y51400D01*
X334800D01*
Y51800D01*
X334000D01*
Y51400D01*
X333600D01*
Y50600D01*
X334000D01*
X333500Y77000D02*
Y76600D01*
X334300D01*
Y77000D01*
X334700D01*
Y77800D01*
X334300D01*
Y78200D01*
X333500D01*
Y77800D01*
X333100D01*
Y77000D01*
X333500D01*
X334200Y98800D02*
Y98400D01*
X335000D01*
Y98800D01*
X335400D01*
Y99600D01*
X335000D01*
Y100000D01*
X334200D01*
Y99600D01*
X333800D01*
Y98800D01*
X334200D01*
X333800Y124900D02*
Y124500D01*
X334600D01*
Y124900D01*
X335000D01*
Y125700D01*
X334600D01*
Y126100D01*
X333800D01*
Y125700D01*
X333400D01*
Y124900D01*
X333800D01*
X272900Y53200D02*
Y52800D01*
X273700D01*
Y53200D01*
X274100D01*
Y54000D01*
X273700D01*
Y54400D01*
X272900D01*
Y54000D01*
X272500D01*
Y53200D01*
X272900D01*
X272800Y77500D02*
Y77100D01*
X273600D01*
Y77500D01*
X274000D01*
Y78300D01*
X273600D01*
Y78700D01*
X272800D01*
Y78300D01*
X272400D01*
Y77500D01*
X272800D01*
X272300Y99900D02*
Y99500D01*
X273100D01*
Y99900D01*
X273500D01*
Y100700D01*
X273100D01*
Y101100D01*
X272300D01*
Y100700D01*
X271900D01*
Y99900D01*
X272300D01*
X273000Y123900D02*
Y123500D01*
X273800D01*
Y123900D01*
X274200D01*
Y124700D01*
X273800D01*
Y125100D01*
X273000D01*
Y124700D01*
X272600D01*
Y123900D01*
X273000D01*
X120900Y129200D02*
Y128800D01*
X121700D01*
Y129200D01*
X122100D01*
Y130000D01*
X121700D01*
Y130400D01*
X120900D01*
Y130000D01*
X120500D01*
Y129200D01*
X120900D01*
X125900Y62700D02*
Y62300D01*
X126700D01*
Y62700D01*
X127100D01*
Y63500D01*
X126700D01*
Y63900D01*
X125900D01*
Y63500D01*
X125500D01*
Y62700D01*
X125900D01*
X130900Y82900D02*
Y82500D01*
X131700D01*
Y82900D01*
X132100D01*
Y83700D01*
X131700D01*
Y84100D01*
X130900D01*
Y83700D01*
X130500D01*
Y82900D01*
X130900D01*
X133300Y120200D02*
Y119800D01*
X134100D01*
Y120200D01*
X134500D01*
Y121000D01*
X134100D01*
Y121400D01*
X133300D01*
Y121000D01*
X132900D01*
Y120200D01*
X133300D01*
X140900Y145200D02*
Y144800D01*
X141700D01*
Y145200D01*
X142100D01*
Y146000D01*
X141700D01*
Y146400D01*
X140900D01*
Y146000D01*
X140500D01*
Y145200D01*
X140900D01*
X146000Y66700D02*
Y66300D01*
X146800D01*
Y66700D01*
X147200D01*
Y67500D01*
X146800D01*
Y67900D01*
X146000D01*
Y67500D01*
X145600D01*
Y66700D01*
X146000D01*
X150900Y89900D02*
Y89500D01*
X151700D01*
Y89900D01*
X152100D01*
Y90700D01*
X151700D01*
Y91100D01*
X150900D01*
Y90700D01*
X150500D01*
Y89900D01*
X150900D01*
X155800Y137500D02*
Y137100D01*
X156600D01*
Y137500D01*
X157000D01*
Y138300D01*
X156600D01*
Y138700D01*
X155800D01*
Y138300D01*
X155400D01*
Y137500D01*
X155800D01*
X160900Y149100D02*
Y148700D01*
X161700D01*
Y149100D01*
X162100D01*
Y149900D01*
X161700D01*
Y150300D01*
X160900D01*
Y149900D01*
X160500D01*
Y149100D01*
X160900D01*
X166100Y58200D02*
Y57800D01*
X166900D01*
Y58200D01*
X167300D01*
Y59000D01*
X166900D01*
Y59400D01*
X166100D01*
Y59000D01*
X165700D01*
Y58200D01*
X166100D01*
X170900Y93600D02*
Y93200D01*
X171700D01*
Y93600D01*
X172100D01*
Y94400D01*
X171700D01*
Y94800D01*
X170900D01*
Y94400D01*
X170500D01*
Y93600D01*
X170900D01*
X176000Y141800D02*
Y141400D01*
X176800D01*
Y141800D01*
X177200D01*
Y142600D01*
X176800D01*
Y143000D01*
X176000D01*
Y142600D01*
X175600D01*
Y141800D01*
X176000D01*
X180900Y151700D02*
Y151300D01*
X181700D01*
Y151700D01*
X182100D01*
Y152500D01*
X181700D01*
Y152900D01*
X180900D01*
Y152500D01*
X180500D01*
Y151700D01*
X180900D01*
X185900Y54800D02*
Y54400D01*
X186700D01*
Y54800D01*
X187100D01*
Y55600D01*
X186700D01*
Y56000D01*
X185900D01*
Y55600D01*
X185500D01*
Y54800D01*
X185900D01*
X190000Y96300D02*
Y95900D01*
X190800D01*
Y96300D01*
X191200D01*
Y97100D01*
X190800D01*
Y97500D01*
X190000D01*
Y97100D01*
X189600D01*
Y96300D01*
X190000D01*
X68200Y65600D02*
Y65200D01*
X69000D01*
Y65600D01*
X69400D01*
Y66400D01*
X69000D01*
Y66800D01*
X68200D01*
Y66400D01*
X67800D01*
Y65600D01*
X68200D01*
X105000Y41900D02*
Y41500D01*
X105800D01*
Y41900D01*
X106200D01*
Y42700D01*
X105800D01*
Y43100D01*
X105000D01*
Y42700D01*
X104600D01*
Y41900D01*
X105000D01*
X102400D02*
Y41500D01*
X103200D01*
Y41900D01*
X103600D01*
Y42700D01*
X103200D01*
Y43100D01*
X102400D01*
Y42700D01*
X102000D01*
Y41900D01*
X102400D01*
X196300Y46800D02*
Y46400D01*
X197100D01*
Y46800D01*
X197500D01*
Y47600D01*
X197100D01*
Y48000D01*
X196300D01*
Y47600D01*
X195900D01*
Y46800D01*
X196300D01*
X193600Y47100D02*
Y46700D01*
X194400D01*
Y47100D01*
X194800D01*
Y47900D01*
X194400D01*
Y48300D01*
X193600D01*
Y47900D01*
X193200D01*
Y47100D01*
X193600D01*
X96300Y111500D02*
Y111100D01*
X97100D01*
Y111500D01*
X97500D01*
Y112300D01*
X97100D01*
Y112700D01*
X96300D01*
Y112300D01*
X95900D01*
Y111500D01*
X96300D01*
X572600Y70600D02*
Y70200D01*
X573400D01*
Y70600D01*
X573800D01*
Y71400D01*
X573400D01*
Y71800D01*
X572600D01*
Y71400D01*
X572200D01*
Y70600D01*
X572600D01*
X546600D02*
Y70200D01*
X547400D01*
Y70600D01*
X547800D01*
Y71400D01*
X547400D01*
Y71800D01*
X546600D01*
Y71400D01*
X546200D01*
Y70600D01*
X546600D01*
X578100Y84600D02*
Y84200D01*
X578900D01*
Y84600D01*
X579300D01*
Y85400D01*
X578900D01*
Y85800D01*
X578100D01*
Y85400D01*
X577700D01*
Y84600D01*
X578100D01*
X569100D02*
Y84200D01*
X569900D01*
Y84600D01*
X570300D01*
Y85400D01*
X569900D01*
Y85800D01*
X569100D01*
Y85400D01*
X568700D01*
Y84600D01*
X569100D01*
X630500Y69500D02*
Y69100D01*
X631300D01*
Y69500D01*
X631700D01*
Y70300D01*
X631300D01*
Y70700D01*
X630500D01*
Y70300D01*
X630100D01*
Y69500D01*
X630500D01*
X625500Y69600D02*
Y69200D01*
X626300D01*
Y69600D01*
X626700D01*
Y70400D01*
X626300D01*
Y70800D01*
X625500D01*
Y70400D01*
X625100D01*
Y69600D01*
X625500D01*
X627800D02*
Y69200D01*
X628600D01*
Y69600D01*
X629000D01*
Y70400D01*
X628600D01*
Y70800D01*
X627800D01*
Y70400D01*
X627400D01*
Y69600D01*
X627800D01*
X49300Y73700D02*
Y73300D01*
X50100D01*
Y73700D01*
X50500D01*
Y74500D01*
X50100D01*
Y74900D01*
X49300D01*
Y74500D01*
X48900D01*
Y73700D01*
X49300D01*
X51800D02*
Y73300D01*
X52600D01*
Y73700D01*
X53000D01*
Y74500D01*
X52600D01*
Y74900D01*
X51800D01*
Y74500D01*
X51400D01*
Y73700D01*
X51800D01*
X65600Y65600D02*
Y65200D01*
X66400D01*
Y65600D01*
X66800D01*
Y66400D01*
X66400D01*
Y66800D01*
X65600D01*
Y66400D01*
X65200D01*
Y65600D01*
X65600D01*
X54900Y8600D02*
Y8200D01*
X55700D01*
Y8600D01*
X56100D01*
Y9400D01*
X55700D01*
Y9800D01*
X54900D01*
Y9400D01*
X54500D01*
Y8600D01*
X54900D01*
X42600Y12600D02*
Y12200D01*
X43400D01*
Y12600D01*
X43800D01*
Y13400D01*
X43400D01*
Y13800D01*
X42600D01*
Y13400D01*
X42200D01*
Y12600D01*
X42600D01*
X50800Y4500D02*
Y4100D01*
X51600D01*
Y4500D01*
X52000D01*
Y5300D01*
X51600D01*
Y5700D01*
X50800D01*
Y5300D01*
X50400D01*
Y4500D01*
X50800D01*
X39300Y8500D02*
Y8100D01*
X40100D01*
Y8500D01*
X40500D01*
Y9300D01*
X40100D01*
Y9700D01*
X39300D01*
Y9300D01*
X38900D01*
Y8500D01*
X39300D01*
X35800Y4300D02*
Y3900D01*
X36600D01*
Y4300D01*
X37000D01*
Y5100D01*
X36600D01*
Y5500D01*
X35800D01*
Y5100D01*
X35400D01*
Y4300D01*
X35800D01*
X50300Y13000D02*
Y12600D01*
X51100D01*
Y13000D01*
X51500D01*
Y13800D01*
X51100D01*
Y14200D01*
X50300D01*
Y13800D01*
X49900D01*
Y13000D01*
X50300D01*
X46900Y8700D02*
Y8300D01*
X47700D01*
Y8700D01*
X48100D01*
Y9500D01*
X47700D01*
Y9900D01*
X46900D01*
Y9500D01*
X46500D01*
Y8700D01*
X46900D01*
X42900Y4400D02*
Y4000D01*
X43700D01*
Y4400D01*
X44100D01*
Y5200D01*
X43700D01*
Y5600D01*
X42900D01*
Y5200D01*
X42500D01*
Y4400D01*
X42900D01*
X63700Y4800D02*
Y4400D01*
X64500D01*
Y4800D01*
X64900D01*
Y5600D01*
X64500D01*
Y6000D01*
X63700D01*
Y5600D01*
X63300D01*
Y4800D01*
X63700D01*
X57200Y4600D02*
Y4200D01*
X58000D01*
Y4600D01*
X58400D01*
Y5400D01*
X58000D01*
Y5800D01*
X57200D01*
Y5400D01*
X56800D01*
Y4600D01*
X57200D01*
X108800Y91000D02*
Y90600D01*
X109600D01*
Y91000D01*
X110000D01*
Y91800D01*
X109600D01*
Y92200D01*
X108800D01*
Y91800D01*
X108400D01*
Y91000D01*
X108800D01*
X104800Y86500D02*
Y86100D01*
X105600D01*
Y86500D01*
X106000D01*
Y87300D01*
X105600D01*
Y87700D01*
X104800D01*
Y87300D01*
X104400D01*
Y86500D01*
X104800D01*
X112600Y96800D02*
Y96400D01*
X113400D01*
Y96800D01*
X113800D01*
Y97600D01*
X113400D01*
Y98000D01*
X112600D01*
Y97600D01*
X112200D01*
Y96800D01*
X112600D01*
X105400D02*
Y96400D01*
X106200D01*
Y96800D01*
X106600D01*
Y97600D01*
X106200D01*
Y98000D01*
X105400D01*
Y97600D01*
X105000D01*
Y96800D01*
X105400D01*
X113300Y86200D02*
Y85800D01*
X114100D01*
Y86200D01*
X114500D01*
Y87000D01*
X114100D01*
Y87400D01*
X113300D01*
Y87000D01*
X112900D01*
Y86200D01*
X113300D01*
X203000Y102100D02*
Y101700D01*
X203800D01*
Y102100D01*
X204200D01*
Y102900D01*
X203800D01*
Y103300D01*
X203000D01*
Y102900D01*
X202600D01*
Y102100D01*
X203000D01*
X210200D02*
Y101700D01*
X211000D01*
Y102100D01*
X211400D01*
Y102900D01*
X211000D01*
Y103300D01*
X210200D01*
Y102900D01*
X209800D01*
Y102100D01*
X210200D01*
X224100D02*
Y101700D01*
X224900D01*
Y102100D01*
X225300D01*
Y102900D01*
X224900D01*
Y103300D01*
X224100D01*
Y102900D01*
X223700D01*
Y102100D01*
X224100D01*
X231500D02*
Y101700D01*
X232300D01*
Y102100D01*
X232700D01*
Y102900D01*
X232300D01*
Y103300D01*
X231500D01*
Y102900D01*
X231100D01*
Y102100D01*
X231500D01*
X217100D02*
Y101700D01*
X217900D01*
Y102100D01*
X218300D01*
Y102900D01*
X217900D01*
Y103300D01*
X217100D01*
Y102900D01*
X216700D01*
Y102100D01*
X217100D01*
X220400Y74100D02*
Y73700D01*
X221200D01*
Y74100D01*
X221600D01*
Y74900D01*
X221200D01*
Y75300D01*
X220400D01*
Y74900D01*
X220000D01*
Y74100D01*
X220400D01*
X225600Y74300D02*
Y73900D01*
X226400D01*
Y74300D01*
X226800D01*
Y75100D01*
X226400D01*
Y75500D01*
X225600D01*
Y75100D01*
X225200D01*
Y74300D01*
X225600D01*
X231200Y74400D02*
Y74000D01*
X232000D01*
Y74400D01*
X232400D01*
Y75200D01*
X232000D01*
Y75600D01*
X231200D01*
Y75200D01*
X230800D01*
Y74400D01*
X231200D01*
X208400Y73900D02*
Y73500D01*
X209200D01*
Y73900D01*
X209600D01*
Y74700D01*
X209200D01*
Y75100D01*
X208400D01*
Y74700D01*
X208000D01*
Y73900D01*
X208400D01*
X109000Y81700D02*
Y81300D01*
X109800D01*
Y81700D01*
X110200D01*
Y82500D01*
X109800D01*
Y82900D01*
X109000D01*
Y82500D01*
X108600D01*
Y81700D01*
X109000D01*
X108700Y101600D02*
Y101200D01*
X109500D01*
Y101600D01*
X109900D01*
Y102400D01*
X109500D01*
Y102800D01*
X108700D01*
Y102400D01*
X108300D01*
Y101600D01*
X108700D01*
X114800Y91400D02*
Y91000D01*
X115600D01*
Y91400D01*
X116000D01*
Y92200D01*
X115600D01*
Y92600D01*
X114800D01*
Y92200D01*
X114400D01*
Y91400D01*
X114800D01*
X103400Y91700D02*
Y91300D01*
X104200D01*
Y91700D01*
X104600D01*
Y92500D01*
X104200D01*
Y92900D01*
X103400D01*
Y92500D01*
X103000D01*
Y91700D01*
X103400D01*
X100200Y113800D02*
Y113400D01*
X101000D01*
Y113800D01*
X101400D01*
Y114600D01*
X101000D01*
Y115000D01*
X100200D01*
Y114600D01*
X99800D01*
Y113800D01*
X100200D01*
X98100Y113100D02*
Y112700D01*
X98900D01*
Y113100D01*
X99300D01*
Y113900D01*
X98900D01*
Y114300D01*
X98100D01*
Y113900D01*
X97700D01*
Y113100D01*
X98100D01*
X215000Y74000D02*
Y73600D01*
X215800D01*
Y74000D01*
X216200D01*
Y74800D01*
X215800D01*
Y75200D01*
X215000D01*
Y74800D01*
X214600D01*
Y74000D01*
X215000D01*
D303*
X647600Y40900D02*
G03*
X647600Y40900I-800J0D01*
G01*
Y50900D02*
G03*
X647600Y50900I-800J0D01*
G01*
X617400Y40900D02*
G03*
X617400Y40900I-800J0D01*
G01*
Y50900D02*
G03*
X617400Y50900I-800J0D01*
G01*
X584800Y40900D02*
G03*
X584800Y40900I-800J0D01*
G01*
Y50900D02*
G03*
X584800Y50900I-800J0D01*
G01*
X551700Y40900D02*
G03*
X551700Y40900I-800J0D01*
G01*
Y50900D02*
G03*
X551700Y50900I-800J0D01*
G01*
X522400Y40900D02*
G03*
X522400Y40900I-800J0D01*
G01*
Y50900D02*
G03*
X522400Y50900I-800J0D01*
G01*
X596500Y124700D02*
G03*
X596500Y124700I-800J0D01*
G01*
Y134700D02*
G03*
X596500Y134700I-800J0D01*
G01*
X557900Y123800D02*
G03*
X557900Y123800I-800J0D01*
G01*
Y133800D02*
G03*
X557900Y133800I-800J0D01*
G01*
X252100Y23400D02*
G03*
X252100Y23400I-800J0D01*
G01*
Y33400D02*
G03*
X252100Y33400I-800J0D01*
G01*
X242100Y23400D02*
G03*
X242100Y23400I-800J0D01*
G01*
Y33400D02*
G03*
X242100Y33400I-800J0D01*
G01*
X232100Y23400D02*
G03*
X232100Y23400I-800J0D01*
G01*
Y33400D02*
G03*
X232100Y33400I-800J0D01*
G01*
X222100Y23400D02*
G03*
X222100Y23400I-800J0D01*
G01*
Y33400D02*
G03*
X222100Y33400I-800J0D01*
G01*
X212100Y23400D02*
G03*
X212100Y23400I-800J0D01*
G01*
Y33400D02*
G03*
X212100Y33400I-800J0D01*
G01*
X202100Y23400D02*
G03*
X202100Y23400I-800J0D01*
G01*
Y33400D02*
G03*
X202100Y33400I-800J0D01*
G01*
X192100Y23400D02*
G03*
X192100Y23400I-800J0D01*
G01*
Y33400D02*
G03*
X192100Y33400I-800J0D01*
G01*
X182100Y23400D02*
G03*
X182100Y23400I-800J0D01*
G01*
Y33400D02*
G03*
X182100Y33400I-800J0D01*
G01*
X172100Y23400D02*
G03*
X172100Y23400I-800J0D01*
G01*
Y33400D02*
G03*
X172100Y33400I-800J0D01*
G01*
X162100Y23400D02*
G03*
X162100Y23400I-800J0D01*
G01*
Y33400D02*
G03*
X162100Y33400I-800J0D01*
G01*
X152100Y23400D02*
G03*
X152100Y23400I-800J0D01*
G01*
Y33400D02*
G03*
X152100Y33400I-800J0D01*
G01*
X142100Y23400D02*
G03*
X142100Y23400I-800J0D01*
G01*
Y33400D02*
G03*
X142100Y33400I-800J0D01*
G01*
X132100Y23400D02*
G03*
X132100Y23400I-800J0D01*
G01*
Y33400D02*
G03*
X132100Y33400I-800J0D01*
G01*
X122100Y23400D02*
G03*
X122100Y23400I-800J0D01*
G01*
Y33400D02*
G03*
X122100Y33400I-800J0D01*
G01*
X112100Y23400D02*
G03*
X112100Y23400I-800J0D01*
G01*
Y33400D02*
G03*
X112100Y33400I-800J0D01*
G01*
X102100Y23400D02*
G03*
X102100Y23400I-800J0D01*
G01*
Y33400D02*
G03*
X102100Y33400I-800J0D01*
G01*
X92100Y23400D02*
G03*
X92100Y23400I-800J0D01*
G01*
Y33400D02*
G03*
X92100Y33400I-800J0D01*
G01*
X82100Y23400D02*
G03*
X82100Y23400I-800J0D01*
G01*
Y33400D02*
G03*
X82100Y33400I-800J0D01*
G01*
X72100Y23400D02*
G03*
X72100Y23400I-800J0D01*
G01*
Y33400D02*
G03*
X72100Y33400I-800J0D01*
G01*
X62100Y23400D02*
G03*
X62100Y23400I-800J0D01*
G01*
Y33400D02*
G03*
X62100Y33400I-800J0D01*
G01*
X682700Y82300D02*
G03*
X682700Y82300I-800J0D01*
G01*
Y92300D02*
G03*
X682700Y92300I-800J0D01*
G01*
M02*
