G04 Layer_Color=32896*
%FSLAX25Y25*%
%MOIN*%
G70*
G01*
G75*
%ADD11C,0.01000*%
%ADD13C,0.02500*%
%ADD32C,0.00500*%
%ADD33C,0.00787*%
%ADD34C,0.00300*%
%ADD35C,0.00600*%
%ADD36C,0.00700*%
%ADD38R,0.00200X0.00100*%
%ADD39R,0.00400X0.00100*%
%ADD40R,0.00500X0.00100*%
%ADD41R,0.00600X0.00100*%
%ADD42R,0.00700X0.00100*%
%ADD43R,0.00900X0.00100*%
%ADD44R,0.01000X0.00100*%
%ADD45R,0.01100X0.00100*%
%ADD46R,0.01200X0.00100*%
%ADD47R,0.01300X0.00100*%
%ADD48R,0.01500X0.00100*%
%ADD49R,0.01600X0.00100*%
%ADD50R,0.01700X0.00100*%
%ADD51R,0.01800X0.00100*%
%ADD52R,0.01900X0.00100*%
%ADD53R,0.02000X0.00100*%
%ADD54R,0.02100X0.00100*%
%ADD55R,0.02300X0.00100*%
%ADD56R,0.02400X0.00100*%
%ADD57R,0.02500X0.00100*%
%ADD58R,0.02600X0.00100*%
%ADD59R,0.02700X0.00100*%
%ADD60R,0.02900X0.00100*%
%ADD61R,0.03100X0.00100*%
%ADD62R,0.03200X0.00100*%
%ADD63R,0.03300X0.00100*%
%ADD64R,0.03400X0.00100*%
%ADD65R,0.03500X0.00100*%
%ADD66R,0.03700X0.00100*%
%ADD67R,0.03800X0.00100*%
%ADD68R,0.03900X0.00100*%
%ADD69R,0.04000X0.00100*%
%ADD70R,0.04100X0.00100*%
%ADD71R,0.04200X0.00100*%
%ADD72R,0.04300X0.00100*%
%ADD73R,0.04500X0.00100*%
%ADD74R,0.04600X0.00100*%
%ADD75R,0.04700X0.00100*%
%ADD76R,0.04800X0.00100*%
%ADD77R,0.04900X0.00100*%
%ADD78R,0.05100X0.00100*%
%ADD79R,0.05200X0.00100*%
%ADD80R,0.05300X0.00100*%
%ADD81R,0.05400X0.00100*%
%ADD82R,0.05500X0.00100*%
%ADD83R,0.05600X0.00100*%
%ADD84R,0.05700X0.00100*%
%ADD85R,0.05900X0.00100*%
%ADD86R,0.06000X0.00100*%
%ADD87R,0.06100X0.00100*%
%ADD88R,0.06200X0.00100*%
%ADD89R,0.06300X0.00100*%
%ADD90R,0.06400X0.00100*%
%ADD91R,0.06500X0.00100*%
%ADD92R,0.06700X0.00100*%
%ADD93R,0.06800X0.00100*%
%ADD94R,0.06900X0.00100*%
%ADD95R,0.07000X0.00100*%
%ADD96R,0.07100X0.00100*%
%ADD97R,0.07300X0.00100*%
%ADD98R,0.07400X0.00100*%
%ADD99R,0.07500X0.00100*%
%ADD100R,0.07600X0.00100*%
%ADD101R,0.07700X0.00100*%
%ADD102R,0.07800X0.00100*%
%ADD103R,0.07900X0.00100*%
%ADD104R,0.08100X0.00100*%
%ADD105R,0.08200X0.00100*%
%ADD106R,0.08300X0.00100*%
%ADD107R,0.08400X0.00100*%
%ADD108R,0.08500X0.00100*%
%ADD109R,0.08700X0.00100*%
%ADD110R,0.08900X0.00100*%
%ADD111R,0.09000X0.00100*%
%ADD112R,0.09100X0.00100*%
%ADD113R,0.09200X0.00100*%
%ADD114R,0.09300X0.00100*%
%ADD115R,0.09500X0.00100*%
%ADD116R,0.09600X0.00100*%
%ADD117R,0.09700X0.00100*%
%ADD118R,0.09800X0.00100*%
%ADD119R,0.09900X0.00100*%
%ADD120R,0.10000X0.00100*%
%ADD121R,0.10100X0.00100*%
%ADD122R,0.10300X0.00100*%
%ADD123R,0.10400X0.00100*%
%ADD124R,0.10500X0.00100*%
%ADD125R,0.10600X0.00100*%
%ADD126R,0.10700X0.00100*%
%ADD127R,0.10900X0.00100*%
%ADD128R,0.11000X0.00100*%
%ADD129R,0.11100X0.00100*%
%ADD130R,0.11200X0.00100*%
%ADD131R,0.11300X0.00100*%
%ADD132R,0.11400X0.00100*%
%ADD133R,0.11500X0.00100*%
%ADD134R,0.11700X0.00100*%
%ADD135R,0.11800X0.00100*%
%ADD136R,0.11900X0.00100*%
%ADD137R,0.12000X0.00100*%
%ADD138R,0.12100X0.00100*%
%ADD139R,0.12200X0.00100*%
%ADD140R,0.12300X0.00100*%
%ADD141R,0.12500X0.00100*%
%ADD142R,0.12600X0.00100*%
%ADD143R,0.12700X0.00100*%
%ADD144R,0.12800X0.00100*%
%ADD145R,0.12900X0.00100*%
%ADD146R,0.13100X0.00100*%
%ADD147R,0.13200X0.00100*%
%ADD148R,0.13300X0.00100*%
%ADD149R,0.13400X0.00100*%
%ADD150R,0.13500X0.00100*%
%ADD151R,0.13600X0.00100*%
%ADD152R,0.13700X0.00100*%
%ADD153R,0.13900X0.00100*%
%ADD154R,0.14000X0.00100*%
%ADD155R,0.14100X0.00100*%
%ADD156R,0.14200X0.00100*%
%ADD157R,0.14300X0.00100*%
%ADD158R,0.14500X0.00100*%
%ADD159R,0.14700X0.00100*%
%ADD160R,0.14800X0.00100*%
%ADD161R,0.14900X0.00100*%
%ADD162R,0.14400X0.00100*%
%ADD163R,0.00300X0.00100*%
%ADD164R,0.13800X0.00100*%
%ADD165R,0.13000X0.00100*%
%ADD166R,0.10200X0.00100*%
%ADD167R,0.08800X0.00100*%
%ADD168R,0.08600X0.00100*%
%ADD169R,0.07200X0.00100*%
%ADD170R,0.00800X0.00100*%
%ADD171R,0.01400X0.00100*%
%ADD172R,0.02800X0.00100*%
%ADD173R,0.03000X0.00100*%
%ADD174R,0.03600X0.00100*%
%ADD175R,0.00100X0.00100*%
%ADD176R,0.02200X0.00100*%
%ADD177R,0.05800X0.00100*%
%ADD178R,0.06600X0.00100*%
%ADD179R,0.04400X0.00100*%
%ADD180R,0.08000X0.00100*%
%ADD181R,0.12400X0.00100*%
%ADD182R,0.15000X0.00100*%
%ADD183R,0.15300X0.00100*%
%ADD184R,0.15500X0.00100*%
%ADD185R,0.15700X0.00100*%
%ADD186R,0.15900X0.00100*%
%ADD187R,0.16200X0.00100*%
%ADD188R,0.16400X0.00100*%
%ADD189R,0.16700X0.00100*%
%ADD190R,0.16900X0.00100*%
%ADD191R,0.17200X0.00100*%
%ADD192R,0.17400X0.00100*%
%ADD193R,0.17700X0.00100*%
%ADD194R,0.17800X0.00100*%
%ADD195R,0.18100X0.00100*%
%ADD196R,0.18700X0.00100*%
%ADD197R,0.18800X0.00100*%
%ADD198R,0.19000X0.00100*%
%ADD199R,0.19100X0.00100*%
%ADD200R,0.19200X0.00100*%
%ADD201R,0.19300X0.00100*%
%ADD202R,0.19400X0.00100*%
%ADD203R,0.19600X0.00100*%
%ADD204R,0.10800X0.00100*%
%ADD205R,0.19800X0.00100*%
%ADD206R,0.19900X0.00100*%
%ADD207R,0.20000X0.00100*%
%ADD208R,0.20200X0.00100*%
%ADD209R,0.20400X0.00100*%
%ADD210R,0.11600X0.00100*%
%ADD211R,0.20600X0.00100*%
%ADD212R,0.20800X0.00100*%
%ADD213R,0.21000X0.00100*%
%ADD214R,0.21200X0.00100*%
%ADD215R,0.21300X0.00100*%
%ADD216R,0.21400X0.00100*%
%ADD217R,0.21500X0.00100*%
%ADD218R,0.21600X0.00100*%
%ADD219R,0.21700X0.00100*%
%ADD220R,0.21800X0.00100*%
%ADD221R,0.21900X0.00100*%
%ADD222R,0.22100X0.00100*%
%ADD223R,0.22300X0.00100*%
%ADD224R,0.22500X0.00100*%
%ADD225R,0.22700X0.00100*%
%ADD226R,0.22800X0.00100*%
%ADD227R,0.22900X0.00100*%
%ADD228R,0.23000X0.00100*%
%ADD229R,0.23200X0.00100*%
%ADD230R,0.15800X0.00100*%
%ADD231R,0.23300X0.00100*%
%ADD232R,0.16100X0.00100*%
%ADD233R,0.23500X0.00100*%
%ADD234R,0.16300X0.00100*%
%ADD235R,0.23700X0.00100*%
%ADD236R,0.16600X0.00100*%
%ADD237R,0.23800X0.00100*%
%ADD238R,0.16800X0.00100*%
%ADD239R,0.24000X0.00100*%
%ADD240R,0.24200X0.00100*%
%ADD241R,0.24500X0.00100*%
%ADD242R,0.24700X0.00100*%
%ADD243R,0.18000X0.00100*%
%ADD244R,0.25100X0.00100*%
%ADD245R,0.18200X0.00100*%
%ADD246R,0.31800X0.00100*%
%ADD247R,0.18500X0.00100*%
%ADD248R,0.32000X0.00100*%
%ADD249R,0.32200X0.00100*%
%ADD250R,0.51300X0.00100*%
%ADD251R,0.51500X0.00100*%
%ADD252R,0.51600X0.00100*%
%ADD253R,0.51700X0.00100*%
%ADD254R,0.51800X0.00100*%
%ADD255R,0.51900X0.00100*%
%ADD256R,0.52000X0.00100*%
%ADD257R,0.52100X0.00100*%
%ADD258R,0.52300X0.00100*%
%ADD259R,0.52400X0.00100*%
%ADD260R,0.52500X0.00100*%
%ADD261R,0.52600X0.00100*%
%ADD262R,0.52700X0.00100*%
%ADD263R,0.52800X0.00100*%
%ADD264R,0.52900X0.00100*%
%ADD265R,0.53100X0.00100*%
%ADD266R,0.53200X0.00100*%
%ADD267R,0.53300X0.00100*%
%ADD268R,0.53400X0.00100*%
%ADD269R,0.04100X0.16800*%
%ADD270R,0.46400X0.00100*%
%ADD271R,0.46500X0.00100*%
%ADD272R,0.46600X0.00100*%
%ADD273R,0.46700X0.00100*%
%ADD274R,0.46800X0.00100*%
%ADD275R,0.46900X0.00100*%
%ADD276R,0.47000X0.00100*%
%ADD277R,0.47200X0.00100*%
%ADD278R,0.47400X0.00100*%
%ADD279R,0.47600X0.00100*%
%ADD280R,0.47800X0.00100*%
%ADD281R,0.47900X0.00100*%
%ADD299C,0.00984*%
%ADD300C,0.01575*%
%ADD301C,0.00800*%
G36*
X218600Y49900D02*
X170000D01*
X194300Y95700D01*
X218600Y49900D01*
D02*
G37*
G36*
X372486Y35229D02*
X372634Y35219D01*
X372921Y35173D01*
X373161Y35099D01*
X373272Y35062D01*
X373374Y35016D01*
X373466Y34979D01*
X373540Y34933D01*
X373615Y34896D01*
X373670Y34868D01*
X373716Y34831D01*
X373744Y34813D01*
X373762Y34803D01*
X373772Y34794D01*
X373873Y34701D01*
X373966Y34609D01*
X374049Y34498D01*
X374123Y34378D01*
X374234Y34137D01*
X374327Y33906D01*
X374355Y33786D01*
X374382Y33684D01*
X374410Y33591D01*
X374419Y33508D01*
X374438Y33434D01*
Y33388D01*
X374447Y33351D01*
Y33342D01*
X373226Y33222D01*
X373207Y33406D01*
X373170Y33564D01*
X373133Y33702D01*
X373087Y33804D01*
X373050Y33887D01*
X373013Y33943D01*
X372986Y33980D01*
X372976Y33989D01*
X372884Y34063D01*
X372782Y34119D01*
X372680Y34165D01*
X372579Y34193D01*
X372495Y34211D01*
X372421Y34220D01*
X372357D01*
X372218Y34211D01*
X372097Y34183D01*
X371996Y34146D01*
X371903Y34110D01*
X371838Y34073D01*
X371783Y34036D01*
X371755Y34008D01*
X371746Y33999D01*
X371672Y33906D01*
X371617Y33804D01*
X371580Y33702D01*
X371552Y33601D01*
X371533Y33508D01*
X371524Y33425D01*
Y33379D01*
Y33369D01*
Y33360D01*
X371533Y33222D01*
X371561Y33092D01*
X371607Y32963D01*
X371654Y32851D01*
X371700Y32750D01*
X371746Y32676D01*
X371774Y32629D01*
X371783Y32611D01*
X371820Y32555D01*
X371876Y32491D01*
X371950Y32408D01*
X372024Y32333D01*
X372190Y32158D01*
X372357Y31982D01*
X372523Y31815D01*
X372597Y31741D01*
X372671Y31686D01*
X372726Y31631D01*
X372763Y31593D01*
X372791Y31566D01*
X372800Y31556D01*
X372986Y31381D01*
X373152Y31214D01*
X373309Y31057D01*
X373448Y30918D01*
X373577Y30779D01*
X373689Y30650D01*
X373790Y30539D01*
X373873Y30428D01*
X373948Y30336D01*
X374012Y30252D01*
X374068Y30187D01*
X374105Y30123D01*
X374142Y30086D01*
X374160Y30049D01*
X374179Y30030D01*
Y30021D01*
X374299Y29808D01*
X374392Y29586D01*
X374465Y29383D01*
X374521Y29198D01*
X374558Y29031D01*
X374567Y28967D01*
X374576Y28911D01*
X374586Y28865D01*
X374595Y28828D01*
Y28809D01*
Y28800D01*
X370294D01*
Y29938D01*
X372736D01*
X372662Y30058D01*
X372579Y30160D01*
X372541Y30206D01*
X372514Y30243D01*
X372495Y30261D01*
X372486Y30271D01*
X372449Y30308D01*
X372412Y30354D01*
X372301Y30456D01*
X372181Y30576D01*
X372060Y30696D01*
X371940Y30807D01*
X371838Y30900D01*
X371801Y30937D01*
X371774Y30964D01*
X371755Y30974D01*
X371746Y30983D01*
X371543Y31177D01*
X371376Y31334D01*
X371237Y31482D01*
X371126Y31593D01*
X371043Y31686D01*
X370988Y31751D01*
X370951Y31797D01*
X370941Y31806D01*
X370821Y31964D01*
X370719Y32111D01*
X370636Y32250D01*
X370571Y32370D01*
X370516Y32472D01*
X370479Y32555D01*
X370460Y32602D01*
X370451Y32620D01*
X370395Y32768D01*
X370358Y32916D01*
X370331Y33055D01*
X370312Y33184D01*
X370303Y33286D01*
X370294Y33369D01*
Y33425D01*
Y33443D01*
X370303Y33582D01*
X370321Y33721D01*
X370340Y33850D01*
X370377Y33971D01*
X370469Y34183D01*
X370562Y34369D01*
X370618Y34452D01*
X370664Y34517D01*
X370710Y34581D01*
X370756Y34628D01*
X370793Y34664D01*
X370812Y34701D01*
X370830Y34711D01*
X370840Y34720D01*
X370941Y34813D01*
X371061Y34896D01*
X371172Y34960D01*
X371302Y35016D01*
X371543Y35109D01*
X371783Y35173D01*
X371894Y35192D01*
X371996Y35210D01*
X372088Y35219D01*
X372171Y35229D01*
X372236Y35238D01*
X372329D01*
X372486Y35229D01*
D02*
G37*
G36*
X359555D02*
X359702Y35219D01*
X359989Y35173D01*
X360230Y35099D01*
X360341Y35062D01*
X360442Y35016D01*
X360535Y34979D01*
X360609Y34933D01*
X360683Y34896D01*
X360738Y34868D01*
X360785Y34831D01*
X360812Y34813D01*
X360831Y34803D01*
X360840Y34794D01*
X360942Y34701D01*
X361034Y34609D01*
X361118Y34498D01*
X361192Y34378D01*
X361303Y34137D01*
X361395Y33906D01*
X361423Y33786D01*
X361451Y33684D01*
X361478Y33591D01*
X361488Y33508D01*
X361506Y33434D01*
Y33388D01*
X361515Y33351D01*
Y33342D01*
X360295Y33222D01*
X360276Y33406D01*
X360239Y33564D01*
X360202Y33702D01*
X360156Y33804D01*
X360119Y33887D01*
X360082Y33943D01*
X360054Y33980D01*
X360045Y33989D01*
X359952Y34063D01*
X359851Y34119D01*
X359749Y34165D01*
X359647Y34193D01*
X359564Y34211D01*
X359490Y34220D01*
X359425D01*
X359286Y34211D01*
X359166Y34183D01*
X359064Y34146D01*
X358972Y34110D01*
X358907Y34073D01*
X358852Y34036D01*
X358824Y34008D01*
X358815Y33999D01*
X358740Y33906D01*
X358685Y33804D01*
X358648Y33702D01*
X358620Y33601D01*
X358602Y33508D01*
X358593Y33425D01*
Y33379D01*
Y33369D01*
Y33360D01*
X358602Y33222D01*
X358629Y33092D01*
X358676Y32963D01*
X358722Y32851D01*
X358768Y32750D01*
X358815Y32676D01*
X358842Y32629D01*
X358852Y32611D01*
X358889Y32555D01*
X358944Y32491D01*
X359018Y32408D01*
X359092Y32333D01*
X359259Y32158D01*
X359425Y31982D01*
X359592Y31815D01*
X359665Y31741D01*
X359739Y31686D01*
X359795Y31631D01*
X359832Y31593D01*
X359860Y31566D01*
X359869Y31556D01*
X360054Y31381D01*
X360221Y31214D01*
X360378Y31057D01*
X360517Y30918D01*
X360646Y30779D01*
X360757Y30650D01*
X360859Y30539D01*
X360942Y30428D01*
X361016Y30336D01*
X361081Y30252D01*
X361136Y30187D01*
X361173Y30123D01*
X361210Y30086D01*
X361229Y30049D01*
X361247Y30030D01*
Y30021D01*
X361368Y29808D01*
X361460Y29586D01*
X361534Y29383D01*
X361590Y29198D01*
X361627Y29031D01*
X361636Y28967D01*
X361645Y28911D01*
X361654Y28865D01*
X361664Y28828D01*
Y28809D01*
Y28800D01*
X357362D01*
Y29938D01*
X359804D01*
X359730Y30058D01*
X359647Y30160D01*
X359610Y30206D01*
X359582Y30243D01*
X359564Y30261D01*
X359555Y30271D01*
X359518Y30308D01*
X359481Y30354D01*
X359369Y30456D01*
X359249Y30576D01*
X359129Y30696D01*
X359009Y30807D01*
X358907Y30900D01*
X358870Y30937D01*
X358842Y30964D01*
X358824Y30974D01*
X358815Y30983D01*
X358611Y31177D01*
X358444Y31334D01*
X358306Y31482D01*
X358195Y31593D01*
X358112Y31686D01*
X358056Y31751D01*
X358019Y31797D01*
X358010Y31806D01*
X357890Y31964D01*
X357788Y32111D01*
X357704Y32250D01*
X357640Y32370D01*
X357584Y32472D01*
X357547Y32555D01*
X357529Y32602D01*
X357520Y32620D01*
X357464Y32768D01*
X357427Y32916D01*
X357399Y33055D01*
X357381Y33184D01*
X357371Y33286D01*
X357362Y33369D01*
Y33425D01*
Y33443D01*
X357371Y33582D01*
X357390Y33721D01*
X357408Y33850D01*
X357446Y33971D01*
X357538Y34183D01*
X357630Y34369D01*
X357686Y34452D01*
X357732Y34517D01*
X357779Y34581D01*
X357825Y34628D01*
X357862Y34664D01*
X357880Y34701D01*
X357899Y34711D01*
X357908Y34720D01*
X358010Y34813D01*
X358130Y34896D01*
X358241Y34960D01*
X358370Y35016D01*
X358611Y35109D01*
X358852Y35173D01*
X358962Y35192D01*
X359064Y35210D01*
X359157Y35219D01*
X359240Y35229D01*
X359305Y35238D01*
X359397D01*
X359555Y35229D01*
D02*
G37*
G36*
X387323Y35025D02*
X387443Y34831D01*
X387573Y34646D01*
X387702Y34498D01*
X387813Y34378D01*
X387915Y34285D01*
X387952Y34248D01*
X387980Y34220D01*
X387998Y34211D01*
X388007Y34202D01*
X388211Y34054D01*
X388405Y33924D01*
X388581Y33823D01*
X388738Y33749D01*
X388868Y33693D01*
X388960Y33647D01*
X388997Y33638D01*
X389025Y33628D01*
X389034Y33619D01*
X389043D01*
Y32509D01*
X388710Y32639D01*
X388415Y32778D01*
X388276Y32851D01*
X388146Y32935D01*
X388026Y33009D01*
X387915Y33083D01*
X387813Y33157D01*
X387721Y33222D01*
X387647Y33277D01*
X387582Y33332D01*
X387526Y33379D01*
X387490Y33406D01*
X387471Y33425D01*
X387462Y33434D01*
Y28800D01*
X386231D01*
Y35238D01*
X387230D01*
X387323Y35025D01*
D02*
G37*
G36*
X349509D02*
X349629Y34831D01*
X349759Y34646D01*
X349888Y34498D01*
X349999Y34378D01*
X350101Y34285D01*
X350138Y34248D01*
X350166Y34220D01*
X350184Y34211D01*
X350194Y34202D01*
X350397Y34054D01*
X350591Y33924D01*
X350767Y33823D01*
X350924Y33749D01*
X351054Y33693D01*
X351146Y33647D01*
X351183Y33638D01*
X351211Y33628D01*
X351220Y33619D01*
X351230D01*
Y32509D01*
X350897Y32639D01*
X350601Y32778D01*
X350462Y32851D01*
X350332Y32935D01*
X350212Y33009D01*
X350101Y33083D01*
X349999Y33157D01*
X349907Y33222D01*
X349833Y33277D01*
X349768Y33332D01*
X349712Y33379D01*
X349675Y33406D01*
X349657Y33425D01*
X349648Y33434D01*
Y28800D01*
X348417D01*
Y35238D01*
X349416D01*
X349509Y35025D01*
D02*
G37*
G36*
X439789Y28800D02*
X438596D01*
Y33018D01*
X435996Y28800D01*
X434701D01*
Y35201D01*
X435895D01*
Y30891D01*
X438540Y35201D01*
X439789D01*
Y28800D01*
D02*
G37*
G36*
X416941D02*
X415748D01*
Y33832D01*
X414490Y28800D01*
X413241D01*
X411983Y33832D01*
X411974Y28800D01*
X410781D01*
Y35201D01*
X412723D01*
X413861Y30826D01*
X415008Y35201D01*
X416941D01*
Y28800D01*
D02*
G37*
G36*
X394714Y30511D02*
X392300D01*
Y31741D01*
X394714D01*
Y30511D01*
D02*
G37*
G36*
X366853D02*
X364439D01*
Y31741D01*
X366853D01*
Y30511D01*
D02*
G37*
G36*
X333876Y31778D02*
Y31584D01*
X333867Y31399D01*
Y31223D01*
X333858Y31066D01*
X333849Y30918D01*
X333840Y30789D01*
X333830Y30669D01*
X333812Y30558D01*
X333803Y30465D01*
X333793Y30382D01*
X333784Y30308D01*
X333775Y30252D01*
X333766Y30206D01*
Y30178D01*
X333756Y30160D01*
Y30150D01*
X333710Y30012D01*
X333664Y29882D01*
X333599Y29762D01*
X333543Y29660D01*
X333488Y29568D01*
X333442Y29494D01*
X333405Y29457D01*
X333396Y29438D01*
X333284Y29318D01*
X333164Y29207D01*
X333035Y29114D01*
X332914Y29031D01*
X332813Y28967D01*
X332720Y28920D01*
X332665Y28892D01*
X332656Y28883D01*
X332646D01*
X332554Y28846D01*
X332452Y28819D01*
X332221Y28763D01*
X331990Y28726D01*
X331768Y28708D01*
X331666Y28698D01*
X331564Y28689D01*
X331481D01*
X331398Y28680D01*
X331249D01*
X330981Y28689D01*
X330741Y28708D01*
X330528Y28745D01*
X330352Y28782D01*
X330278Y28791D01*
X330204Y28809D01*
X330149Y28828D01*
X330102Y28846D01*
X330065Y28855D01*
X330038Y28865D01*
X330029Y28874D01*
X330019D01*
X329853Y28948D01*
X329705Y29041D01*
X329575Y29124D01*
X329464Y29207D01*
X329381Y29281D01*
X329316Y29337D01*
X329279Y29373D01*
X329270Y29392D01*
X329168Y29522D01*
X329085Y29660D01*
X329020Y29790D01*
X328965Y29919D01*
X328928Y30030D01*
X328900Y30123D01*
X328891Y30150D01*
Y30178D01*
X328882Y30187D01*
Y30197D01*
X328863Y30299D01*
X328844Y30410D01*
X328826Y30530D01*
X328817Y30650D01*
X328798Y30928D01*
X328780Y31196D01*
Y31316D01*
Y31436D01*
X328770Y31547D01*
Y31640D01*
Y31714D01*
Y31778D01*
Y31815D01*
Y31825D01*
Y35201D01*
X330065D01*
Y31649D01*
Y31510D01*
Y31381D01*
X330075Y31260D01*
Y31150D01*
X330084Y31057D01*
Y30964D01*
X330093Y30881D01*
Y30807D01*
X330112Y30696D01*
X330121Y30613D01*
X330130Y30567D01*
Y30548D01*
X330158Y30428D01*
X330204Y30326D01*
X330260Y30234D01*
X330315Y30150D01*
X330371Y30086D01*
X330417Y30040D01*
X330454Y30012D01*
X330463Y30002D01*
X330574Y29928D01*
X330713Y29873D01*
X330842Y29836D01*
X330981Y29808D01*
X331101Y29790D01*
X331194Y29781D01*
X331287D01*
X331481Y29790D01*
X331647Y29818D01*
X331795Y29855D01*
X331925Y29901D01*
X332017Y29938D01*
X332091Y29975D01*
X332128Y30002D01*
X332147Y30012D01*
X332248Y30104D01*
X332332Y30215D01*
X332406Y30317D01*
X332452Y30419D01*
X332489Y30511D01*
X332517Y30585D01*
X332535Y30632D01*
Y30650D01*
X332544Y30705D01*
X332554Y30761D01*
Y30835D01*
X332563Y30918D01*
X332572Y31094D01*
Y31279D01*
X332581Y31446D01*
Y31519D01*
Y31593D01*
Y31649D01*
Y31686D01*
Y31714D01*
Y31723D01*
Y35201D01*
X333876D01*
Y31778D01*
D02*
G37*
G36*
X454700Y28800D02*
X453405D01*
Y31214D01*
X452258D01*
X452119Y31223D01*
X451990D01*
X451869Y31233D01*
X451758Y31242D01*
X451657Y31251D01*
X451574Y31260D01*
X451490D01*
X451426Y31270D01*
X451361Y31279D01*
X451314Y31288D01*
X451277D01*
X451250Y31297D01*
X451231D01*
X451102Y31334D01*
X450982Y31381D01*
X450871Y31427D01*
X450769Y31482D01*
X450686Y31529D01*
X450621Y31566D01*
X450584Y31593D01*
X450565Y31603D01*
X450445Y31695D01*
X450343Y31797D01*
X450242Y31908D01*
X450168Y32000D01*
X450103Y32093D01*
X450057Y32167D01*
X450029Y32213D01*
X450020Y32232D01*
X449945Y32389D01*
X449890Y32555D01*
X449853Y32731D01*
X449825Y32888D01*
X449807Y33018D01*
Y33083D01*
X449797Y33129D01*
Y33175D01*
Y33203D01*
Y33222D01*
Y33231D01*
X449816Y33499D01*
X449853Y33749D01*
X449918Y33952D01*
X449983Y34137D01*
X450020Y34211D01*
X450057Y34276D01*
X450084Y34332D01*
X450121Y34387D01*
X450140Y34424D01*
X450158Y34452D01*
X450177Y34461D01*
Y34470D01*
X450325Y34637D01*
X450473Y34776D01*
X450630Y34887D01*
X450769Y34970D01*
X450898Y35025D01*
X451000Y35072D01*
X451037Y35081D01*
X451065Y35090D01*
X451083Y35099D01*
X451092D01*
X451166Y35118D01*
X451259Y35136D01*
X451370Y35146D01*
X451481Y35155D01*
X451740Y35173D01*
X451999Y35192D01*
X452240D01*
X452341Y35201D01*
X454700D01*
Y28800D01*
D02*
G37*
G36*
X449391D02*
X448022D01*
X447494Y30252D01*
X444923D01*
X444368Y28800D01*
X442971D01*
X445542Y35201D01*
X446911D01*
X449391Y28800D01*
D02*
G37*
G36*
X442323D02*
X441028D01*
Y35201D01*
X442323D01*
Y28800D01*
D02*
G37*
G36*
X433332D02*
X428467D01*
Y29882D01*
X432037D01*
Y31621D01*
X428828D01*
Y32704D01*
X432037D01*
Y34119D01*
X428587D01*
Y35201D01*
X433332D01*
Y28800D01*
D02*
G37*
G36*
X427339D02*
X422824D01*
Y29882D01*
X426044D01*
Y35155D01*
X427339D01*
Y28800D01*
D02*
G37*
G36*
X409468D02*
X404602D01*
Y29882D01*
X408173D01*
Y31621D01*
X404963D01*
Y32704D01*
X408173D01*
Y34119D01*
X404722D01*
Y35201D01*
X409468D01*
Y28800D01*
D02*
G37*
G36*
X403501D02*
X400726D01*
X400569Y28809D01*
X400291D01*
X400180Y28819D01*
X400005D01*
X399940Y28828D01*
X399848D01*
X399811Y28837D01*
X399774D01*
X399588Y28865D01*
X399422Y28911D01*
X399274Y28957D01*
X399145Y29013D01*
X399043Y29059D01*
X398969Y29105D01*
X398922Y29133D01*
X398904Y29142D01*
X398775Y29244D01*
X398673Y29355D01*
X398571Y29457D01*
X398497Y29568D01*
X398432Y29660D01*
X398386Y29734D01*
X398358Y29781D01*
X398349Y29799D01*
X398284Y29956D01*
X398229Y30104D01*
X398192Y30252D01*
X398173Y30382D01*
X398155Y30493D01*
X398146Y30576D01*
Y30632D01*
Y30641D01*
Y30650D01*
X398155Y30854D01*
X398192Y31038D01*
X398247Y31196D01*
X398303Y31344D01*
X398358Y31455D01*
X398414Y31538D01*
X398451Y31593D01*
X398460Y31612D01*
X398589Y31760D01*
X398728Y31880D01*
X398885Y31982D01*
X399024Y32056D01*
X399154Y32121D01*
X399265Y32167D01*
X399302Y32176D01*
X399329Y32186D01*
X399348Y32195D01*
X399357D01*
X399209Y32278D01*
X399080Y32361D01*
X398969Y32463D01*
X398876Y32546D01*
X398812Y32629D01*
X398756Y32694D01*
X398719Y32741D01*
X398710Y32759D01*
X398626Y32907D01*
X398562Y33046D01*
X398525Y33184D01*
X398488Y33314D01*
X398469Y33425D01*
X398460Y33508D01*
Y33564D01*
Y33573D01*
Y33582D01*
X398469Y33730D01*
X398488Y33878D01*
X398525Y33999D01*
X398562Y34110D01*
X398599Y34202D01*
X398636Y34276D01*
X398654Y34313D01*
X398663Y34332D01*
X398738Y34452D01*
X398821Y34554D01*
X398904Y34646D01*
X398978Y34729D01*
X399052Y34785D01*
X399108Y34831D01*
X399145Y34859D01*
X399154Y34868D01*
X399265Y34942D01*
X399385Y34997D01*
X399496Y35044D01*
X399598Y35081D01*
X399690Y35109D01*
X399755Y35127D01*
X399801Y35136D01*
X399820D01*
X399977Y35155D01*
X400153Y35173D01*
X400338Y35182D01*
X400523Y35192D01*
X400689Y35201D01*
X403501D01*
Y28800D01*
D02*
G37*
G36*
X346577Y33980D02*
X343793D01*
X344098Y33564D01*
X344366Y33129D01*
X344496Y32926D01*
X344606Y32713D01*
X344708Y32519D01*
X344801Y32333D01*
X344884Y32158D01*
X344958Y32000D01*
X345023Y31852D01*
X345078Y31732D01*
X345115Y31640D01*
X345143Y31566D01*
X345162Y31519D01*
X345171Y31501D01*
X345263Y31242D01*
X345346Y30992D01*
X345411Y30742D01*
X345476Y30502D01*
X345522Y30261D01*
X345568Y30040D01*
X345605Y29827D01*
X345633Y29632D01*
X345661Y29457D01*
X345679Y29290D01*
X345698Y29151D01*
X345707Y29031D01*
Y28929D01*
X345717Y28855D01*
Y28819D01*
Y28800D01*
X344532D01*
X344523Y29124D01*
X344496Y29457D01*
X344449Y29781D01*
X344431Y29928D01*
X344403Y30077D01*
X344375Y30206D01*
X344348Y30336D01*
X344329Y30437D01*
X344310Y30530D01*
X344292Y30613D01*
X344273Y30669D01*
X344264Y30705D01*
Y30715D01*
X344144Y31113D01*
X344015Y31492D01*
X343950Y31668D01*
X343876Y31834D01*
X343811Y31991D01*
X343746Y32139D01*
X343682Y32269D01*
X343626Y32389D01*
X343570Y32500D01*
X343533Y32583D01*
X343496Y32657D01*
X343469Y32704D01*
X343450Y32741D01*
X343441Y32750D01*
X343339Y32926D01*
X343237Y33092D01*
X343145Y33240D01*
X343053Y33388D01*
X342960Y33518D01*
X342867Y33638D01*
X342784Y33749D01*
X342710Y33850D01*
X342636Y33943D01*
X342571Y34017D01*
X342516Y34082D01*
X342470Y34137D01*
X342433Y34174D01*
X342405Y34202D01*
X342387Y34220D01*
X342377Y34230D01*
Y35118D01*
X346577D01*
Y33980D01*
D02*
G37*
G36*
X327374Y28800D02*
X322860D01*
Y29882D01*
X326079D01*
Y35155D01*
X327374D01*
Y28800D01*
D02*
G37*
G36*
X341989Y28689D02*
X341082D01*
X339482Y35312D01*
X340407D01*
X341989Y28689D01*
D02*
G37*
G36*
X377509Y35229D02*
X377666Y35210D01*
X377823Y35173D01*
X377962Y35136D01*
X378092Y35081D01*
X378212Y35025D01*
X378313Y34970D01*
X378415Y34905D01*
X378499Y34840D01*
X378582Y34785D01*
X378646Y34729D01*
X378693Y34674D01*
X378739Y34637D01*
X378767Y34600D01*
X378785Y34581D01*
X378795Y34572D01*
X378906Y34415D01*
X378998Y34230D01*
X379081Y34036D01*
X379155Y33832D01*
X379211Y33619D01*
X379266Y33397D01*
X379303Y33184D01*
X379340Y32972D01*
X379359Y32768D01*
X379377Y32583D01*
X379396Y32408D01*
X379405Y32260D01*
X379414Y32139D01*
Y32047D01*
Y32010D01*
Y31982D01*
Y31973D01*
Y31964D01*
X379405Y31631D01*
X379386Y31325D01*
X379359Y31038D01*
X379322Y30779D01*
X379285Y30548D01*
X379239Y30336D01*
X379183Y30150D01*
X379128Y29984D01*
X379081Y29845D01*
X379026Y29716D01*
X378979Y29614D01*
X378933Y29531D01*
X378906Y29475D01*
X378878Y29429D01*
X378859Y29401D01*
X378850Y29392D01*
X378739Y29263D01*
X378619Y29161D01*
X378499Y29059D01*
X378369Y28985D01*
X378249Y28911D01*
X378119Y28855D01*
X377999Y28809D01*
X377879Y28772D01*
X377768Y28735D01*
X377666Y28717D01*
X377573Y28698D01*
X377500Y28689D01*
X377435D01*
X377379Y28680D01*
X377342D01*
X377176Y28689D01*
X377018Y28708D01*
X376861Y28745D01*
X376723Y28782D01*
X376593Y28828D01*
X376473Y28883D01*
X376371Y28948D01*
X376269Y29013D01*
X376186Y29068D01*
X376103Y29133D01*
X376038Y29188D01*
X375982Y29235D01*
X375945Y29272D01*
X375918Y29309D01*
X375899Y29327D01*
X375890Y29337D01*
X375779Y29494D01*
X375687Y29679D01*
X375594Y29873D01*
X375529Y30086D01*
X375465Y30299D01*
X375418Y30511D01*
X375372Y30733D01*
X375335Y30946D01*
X375317Y31150D01*
X375298Y31334D01*
X375279Y31510D01*
X375270Y31658D01*
X375261Y31778D01*
Y31871D01*
Y31908D01*
Y31936D01*
Y31945D01*
Y31954D01*
X375270Y32287D01*
X375289Y32592D01*
X375317Y32870D01*
X375363Y33129D01*
X375409Y33369D01*
X375455Y33582D01*
X375520Y33777D01*
X375575Y33943D01*
X375631Y34100D01*
X375687Y34220D01*
X375742Y34332D01*
X375788Y34424D01*
X375834Y34489D01*
X375862Y34535D01*
X375881Y34563D01*
X375890Y34572D01*
X375992Y34692D01*
X376103Y34794D01*
X376223Y34877D01*
X376343Y34960D01*
X376464Y35025D01*
X376584Y35072D01*
X376695Y35118D01*
X376815Y35155D01*
X376926Y35182D01*
X377018Y35201D01*
X377111Y35219D01*
X377185Y35229D01*
X377250Y35238D01*
X377342D01*
X377509Y35229D01*
D02*
G37*
G36*
X354624D02*
X354782Y35210D01*
X354939Y35173D01*
X355078Y35136D01*
X355207Y35081D01*
X355327Y35025D01*
X355429Y34970D01*
X355531Y34905D01*
X355614Y34840D01*
X355697Y34785D01*
X355762Y34729D01*
X355808Y34674D01*
X355855Y34637D01*
X355882Y34600D01*
X355901Y34581D01*
X355910Y34572D01*
X356021Y34415D01*
X356114Y34230D01*
X356197Y34036D01*
X356271Y33832D01*
X356326Y33619D01*
X356382Y33397D01*
X356419Y33184D01*
X356456Y32972D01*
X356474Y32768D01*
X356493Y32583D01*
X356511Y32408D01*
X356521Y32260D01*
X356530Y32139D01*
Y32047D01*
Y32010D01*
Y31982D01*
Y31973D01*
Y31964D01*
X356521Y31631D01*
X356502Y31325D01*
X356474Y31038D01*
X356437Y30779D01*
X356400Y30548D01*
X356354Y30336D01*
X356298Y30150D01*
X356243Y29984D01*
X356197Y29845D01*
X356141Y29716D01*
X356095Y29614D01*
X356049Y29531D01*
X356021Y29475D01*
X355993Y29429D01*
X355975Y29401D01*
X355965Y29392D01*
X355855Y29263D01*
X355734Y29161D01*
X355614Y29059D01*
X355485Y28985D01*
X355364Y28911D01*
X355235Y28855D01*
X355115Y28809D01*
X354994Y28772D01*
X354883Y28735D01*
X354782Y28717D01*
X354689Y28698D01*
X354615Y28689D01*
X354550D01*
X354495Y28680D01*
X354458D01*
X354291Y28689D01*
X354134Y28708D01*
X353977Y28745D01*
X353838Y28782D01*
X353709Y28828D01*
X353588Y28883D01*
X353486Y28948D01*
X353385Y29013D01*
X353302Y29068D01*
X353218Y29133D01*
X353153Y29188D01*
X353098Y29235D01*
X353061Y29272D01*
X353033Y29309D01*
X353015Y29327D01*
X353006Y29337D01*
X352894Y29494D01*
X352802Y29679D01*
X352710Y29873D01*
X352645Y30086D01*
X352580Y30299D01*
X352534Y30511D01*
X352487Y30733D01*
X352450Y30946D01*
X352432Y31150D01*
X352414Y31334D01*
X352395Y31510D01*
X352386Y31658D01*
X352377Y31778D01*
Y31871D01*
Y31908D01*
Y31936D01*
Y31945D01*
Y31954D01*
X352386Y32287D01*
X352404Y32592D01*
X352432Y32870D01*
X352478Y33129D01*
X352524Y33369D01*
X352571Y33582D01*
X352636Y33777D01*
X352691Y33943D01*
X352747Y34100D01*
X352802Y34220D01*
X352857Y34332D01*
X352904Y34424D01*
X352950Y34489D01*
X352978Y34535D01*
X352996Y34563D01*
X353006Y34572D01*
X353107Y34692D01*
X353218Y34794D01*
X353339Y34877D01*
X353459Y34960D01*
X353579Y35025D01*
X353699Y35072D01*
X353810Y35118D01*
X353930Y35155D01*
X354042Y35182D01*
X354134Y35201D01*
X354226Y35219D01*
X354300Y35229D01*
X354365Y35238D01*
X354458D01*
X354624Y35229D01*
D02*
G37*
G36*
X336531Y31048D02*
Y30909D01*
X336541Y30779D01*
X336550Y30669D01*
X336559Y30558D01*
X336578Y30465D01*
X336587Y30382D01*
X336605Y30308D01*
X336624Y30243D01*
X336661Y30141D01*
X336688Y30077D01*
X336707Y30030D01*
X336716Y30021D01*
X336790Y29938D01*
X336883Y29882D01*
X336984Y29836D01*
X337086Y29808D01*
X337170Y29790D01*
X337244Y29781D01*
X337317D01*
X337466Y29799D01*
X337595Y29836D01*
X337706Y29891D01*
X337789Y29956D01*
X337863Y30012D01*
X337910Y30067D01*
X337937Y30104D01*
X337947Y30123D01*
X337993Y30224D01*
X338030Y30336D01*
X338057Y30465D01*
X338076Y30595D01*
X338094Y30715D01*
Y30807D01*
X338104Y30844D01*
Y30872D01*
Y30891D01*
Y30900D01*
X339334Y30761D01*
X339325Y30576D01*
X339316Y30400D01*
X339288Y30234D01*
X339251Y30086D01*
X339214Y29947D01*
X339177Y29818D01*
X339130Y29706D01*
X339075Y29596D01*
X339029Y29512D01*
X338983Y29429D01*
X338946Y29364D01*
X338909Y29309D01*
X338872Y29263D01*
X338844Y29235D01*
X338835Y29216D01*
X338825Y29207D01*
X338723Y29114D01*
X338613Y29031D01*
X338502Y28967D01*
X338381Y28902D01*
X338261Y28855D01*
X338141Y28809D01*
X337900Y28745D01*
X337789Y28726D01*
X337687Y28708D01*
X337604Y28698D01*
X337521Y28689D01*
X337456Y28680D01*
X337364D01*
X337077Y28698D01*
X336818Y28735D01*
X336596Y28782D01*
X336504Y28819D01*
X336411Y28846D01*
X336337Y28874D01*
X336263Y28911D01*
X336208Y28939D01*
X336161Y28957D01*
X336115Y28985D01*
X336087Y28994D01*
X336078Y29013D01*
X336069D01*
X335893Y29151D01*
X335754Y29300D01*
X335634Y29447D01*
X335542Y29586D01*
X335468Y29716D01*
X335421Y29818D01*
X335403Y29855D01*
X335394Y29882D01*
X335384Y29901D01*
Y29910D01*
X335338Y30086D01*
X335301Y30289D01*
X335273Y30493D01*
X335255Y30687D01*
X335245Y30863D01*
X335236Y30946D01*
Y31011D01*
Y31066D01*
Y31103D01*
Y31131D01*
Y31140D01*
Y35201D01*
X336531D01*
Y31048D01*
D02*
G37*
G36*
X422640Y27033D02*
X417533D01*
Y27829D01*
X422640D01*
Y27033D01*
D02*
G37*
G36*
X384853D02*
X379747D01*
Y27829D01*
X384853D01*
Y27033D01*
D02*
G37*
G36*
X359075Y24384D02*
X358308D01*
X357096Y25688D01*
X358465D01*
X359075Y24384D01*
D02*
G37*
G36*
X428700Y17400D02*
X427507D01*
Y21618D01*
X424907Y17400D01*
X423612D01*
Y23801D01*
X424806D01*
Y19490D01*
X427451Y23801D01*
X428700D01*
Y17400D01*
D02*
G37*
G36*
X319374D02*
X318181D01*
Y21618D01*
X315582Y17400D01*
X314287D01*
Y23801D01*
X315480D01*
Y19490D01*
X318126Y23801D01*
X319374D01*
Y17400D01*
D02*
G37*
G36*
X452084D02*
X450891D01*
Y22432D01*
X449633Y17400D01*
X448384D01*
X447126Y22432D01*
X447117Y17400D01*
X445924D01*
Y23801D01*
X447866D01*
X449004Y19426D01*
X450151Y23801D01*
X452084D01*
Y17400D01*
D02*
G37*
G36*
X381506D02*
X380313D01*
Y22432D01*
X379055Y17400D01*
X377806D01*
X376549Y22432D01*
X376539Y17400D01*
X375346D01*
Y23801D01*
X377289D01*
X378426Y19426D01*
X379573Y23801D01*
X381506D01*
Y17400D01*
D02*
G37*
G36*
X436812Y19111D02*
X434398D01*
Y20342D01*
X436812D01*
Y19111D01*
D02*
G37*
G36*
X323315Y23912D02*
X323555Y23884D01*
X323768Y23838D01*
X323981Y23783D01*
X324166Y23718D01*
X324351Y23644D01*
X324508Y23561D01*
X324656Y23477D01*
X324795Y23394D01*
X324906Y23311D01*
X325008Y23237D01*
X325091Y23172D01*
X325155Y23117D01*
X325202Y23070D01*
X325230Y23043D01*
X325239Y23033D01*
X325387Y22858D01*
X325507Y22672D01*
X325618Y22478D01*
X325711Y22275D01*
X325794Y22062D01*
X325858Y21858D01*
X325914Y21655D01*
X325960Y21461D01*
X325997Y21267D01*
X326016Y21100D01*
X326034Y20943D01*
X326053Y20813D01*
Y20702D01*
X326062Y20619D01*
Y20563D01*
Y20554D01*
Y20545D01*
X326053Y20267D01*
X326025Y20008D01*
X325988Y19759D01*
X325933Y19537D01*
X325877Y19324D01*
X325803Y19120D01*
X325729Y18945D01*
X325655Y18788D01*
X325581Y18640D01*
X325507Y18510D01*
X325433Y18408D01*
X325377Y18316D01*
X325322Y18251D01*
X325285Y18195D01*
X325257Y18168D01*
X325248Y18158D01*
X325091Y18001D01*
X324924Y17872D01*
X324748Y17752D01*
X324573Y17659D01*
X324397Y17576D01*
X324221Y17502D01*
X324055Y17446D01*
X323898Y17400D01*
X323740Y17363D01*
X323602Y17335D01*
X323472Y17317D01*
X323370Y17308D01*
X323278Y17298D01*
X323213Y17289D01*
X323158D01*
X322963Y17298D01*
X322787Y17308D01*
X322612Y17335D01*
X322455Y17372D01*
X322306Y17409D01*
X322168Y17446D01*
X322038Y17492D01*
X321918Y17548D01*
X321816Y17594D01*
X321724Y17640D01*
X321640Y17677D01*
X321576Y17715D01*
X321520Y17752D01*
X321483Y17779D01*
X321465Y17788D01*
X321456Y17798D01*
X321335Y17899D01*
X321224Y18011D01*
X321021Y18260D01*
X320854Y18519D01*
X320725Y18769D01*
X320669Y18889D01*
X320623Y19000D01*
X320586Y19102D01*
X320549Y19185D01*
X320521Y19259D01*
X320503Y19315D01*
X320494Y19352D01*
Y19361D01*
X321751Y19749D01*
X321826Y19500D01*
X321909Y19287D01*
X321992Y19111D01*
X322084Y18963D01*
X322159Y18852D01*
X322223Y18778D01*
X322270Y18732D01*
X322288Y18713D01*
X322436Y18602D01*
X322584Y18529D01*
X322732Y18473D01*
X322862Y18427D01*
X322982Y18408D01*
X323083Y18399D01*
X323120Y18390D01*
X323167D01*
X323296Y18399D01*
X323416Y18408D01*
X323639Y18473D01*
X323833Y18547D01*
X323990Y18649D01*
X324119Y18741D01*
X324212Y18815D01*
X324249Y18852D01*
X324277Y18880D01*
X324286Y18889D01*
X324295Y18899D01*
X324369Y19000D01*
X324434Y19120D01*
X324499Y19250D01*
X324545Y19389D01*
X324619Y19676D01*
X324675Y19962D01*
X324693Y20101D01*
X324702Y20221D01*
X324721Y20342D01*
Y20443D01*
X324730Y20517D01*
Y20582D01*
Y20628D01*
Y20638D01*
X324721Y20850D01*
X324711Y21045D01*
X324693Y21220D01*
X324665Y21387D01*
X324628Y21535D01*
X324591Y21674D01*
X324554Y21794D01*
X324508Y21905D01*
X324471Y21997D01*
X324434Y22081D01*
X324397Y22145D01*
X324360Y22201D01*
X324332Y22247D01*
X324314Y22275D01*
X324295Y22293D01*
Y22302D01*
X324212Y22395D01*
X324119Y22478D01*
X324027Y22543D01*
X323925Y22599D01*
X323731Y22691D01*
X323546Y22756D01*
X323389Y22793D01*
X323315Y22802D01*
X323259Y22811D01*
X323204Y22820D01*
X323139D01*
X322954Y22811D01*
X322787Y22774D01*
X322639Y22728D01*
X322510Y22672D01*
X322408Y22617D01*
X322334Y22571D01*
X322288Y22534D01*
X322270Y22524D01*
X322149Y22413D01*
X322038Y22284D01*
X321955Y22154D01*
X321890Y22025D01*
X321844Y21914D01*
X321816Y21831D01*
X321798Y21794D01*
Y21766D01*
X321789Y21757D01*
Y21747D01*
X320512Y22053D01*
X320604Y22321D01*
X320706Y22552D01*
X320817Y22756D01*
X320919Y22922D01*
X321021Y23052D01*
X321058Y23107D01*
X321095Y23154D01*
X321123Y23181D01*
X321150Y23209D01*
X321160Y23227D01*
X321169D01*
X321307Y23348D01*
X321465Y23459D01*
X321613Y23551D01*
X321770Y23625D01*
X321936Y23699D01*
X322094Y23755D01*
X322251Y23801D01*
X322399Y23838D01*
X322538Y23866D01*
X322667Y23884D01*
X322778Y23903D01*
X322880Y23912D01*
X322963Y23921D01*
X323074D01*
X323315Y23912D01*
D02*
G37*
G36*
X402874Y20379D02*
Y20184D01*
X402865Y19999D01*
Y19824D01*
X402855Y19666D01*
X402846Y19518D01*
X402837Y19389D01*
X402828Y19268D01*
X402809Y19158D01*
X402800Y19065D01*
X402791Y18982D01*
X402781Y18908D01*
X402772Y18852D01*
X402763Y18806D01*
Y18778D01*
X402754Y18760D01*
Y18751D01*
X402707Y18612D01*
X402661Y18482D01*
X402597Y18362D01*
X402541Y18260D01*
X402486Y18168D01*
X402439Y18094D01*
X402402Y18057D01*
X402393Y18038D01*
X402282Y17918D01*
X402162Y17807D01*
X402032Y17715D01*
X401912Y17631D01*
X401810Y17567D01*
X401718Y17520D01*
X401662Y17492D01*
X401653Y17483D01*
X401644D01*
X401551Y17446D01*
X401449Y17418D01*
X401218Y17363D01*
X400987Y17326D01*
X400765Y17308D01*
X400663Y17298D01*
X400562Y17289D01*
X400478D01*
X400395Y17280D01*
X400247D01*
X399979Y17289D01*
X399738Y17308D01*
X399525Y17345D01*
X399350Y17381D01*
X399276Y17391D01*
X399202Y17409D01*
X399146Y17428D01*
X399100Y17446D01*
X399063Y17456D01*
X399035Y17465D01*
X399026Y17474D01*
X399017D01*
X398850Y17548D01*
X398702Y17640D01*
X398573Y17724D01*
X398462Y17807D01*
X398378Y17881D01*
X398314Y17936D01*
X398277Y17974D01*
X398268Y17992D01*
X398166Y18122D01*
X398082Y18260D01*
X398018Y18390D01*
X397962Y18519D01*
X397925Y18630D01*
X397898Y18723D01*
X397888Y18751D01*
Y18778D01*
X397879Y18788D01*
Y18797D01*
X397861Y18899D01*
X397842Y19010D01*
X397824Y19130D01*
X397814Y19250D01*
X397796Y19527D01*
X397777Y19796D01*
Y19916D01*
Y20036D01*
X397768Y20147D01*
Y20240D01*
Y20314D01*
Y20379D01*
Y20415D01*
Y20425D01*
Y23801D01*
X399063D01*
Y20249D01*
Y20110D01*
Y19981D01*
X399072Y19861D01*
Y19749D01*
X399081Y19657D01*
Y19565D01*
X399091Y19481D01*
Y19407D01*
X399109Y19296D01*
X399118Y19213D01*
X399128Y19167D01*
Y19148D01*
X399155Y19028D01*
X399202Y18926D01*
X399257Y18834D01*
X399313Y18751D01*
X399368Y18686D01*
X399414Y18640D01*
X399451Y18612D01*
X399461Y18602D01*
X399572Y18529D01*
X399710Y18473D01*
X399840Y18436D01*
X399979Y18408D01*
X400099Y18390D01*
X400191Y18381D01*
X400284D01*
X400478Y18390D01*
X400645Y18417D01*
X400793Y18454D01*
X400922Y18501D01*
X401015Y18538D01*
X401089Y18575D01*
X401126Y18602D01*
X401144Y18612D01*
X401246Y18704D01*
X401329Y18815D01*
X401403Y18917D01*
X401449Y19019D01*
X401486Y19111D01*
X401514Y19185D01*
X401533Y19231D01*
Y19250D01*
X401542Y19306D01*
X401551Y19361D01*
Y19435D01*
X401560Y19518D01*
X401570Y19694D01*
Y19879D01*
X401579Y20045D01*
Y20120D01*
Y20193D01*
Y20249D01*
Y20286D01*
Y20314D01*
Y20323D01*
Y23801D01*
X402874D01*
Y20379D01*
D02*
G37*
G36*
X367595D02*
Y20184D01*
X367585Y19999D01*
Y19824D01*
X367576Y19666D01*
X367567Y19518D01*
X367558Y19389D01*
X367548Y19268D01*
X367530Y19158D01*
X367520Y19065D01*
X367511Y18982D01*
X367502Y18908D01*
X367493Y18852D01*
X367483Y18806D01*
Y18778D01*
X367474Y18760D01*
Y18751D01*
X367428Y18612D01*
X367382Y18482D01*
X367317Y18362D01*
X367262Y18260D01*
X367206Y18168D01*
X367160Y18094D01*
X367123Y18057D01*
X367113Y18038D01*
X367003Y17918D01*
X366882Y17807D01*
X366753Y17715D01*
X366633Y17631D01*
X366531Y17567D01*
X366438Y17520D01*
X366383Y17492D01*
X366373Y17483D01*
X366364D01*
X366272Y17446D01*
X366170Y17418D01*
X365939Y17363D01*
X365707Y17326D01*
X365486Y17308D01*
X365384Y17298D01*
X365282Y17289D01*
X365199D01*
X365115Y17280D01*
X364967D01*
X364699Y17289D01*
X364459Y17308D01*
X364246Y17345D01*
X364070Y17381D01*
X363996Y17391D01*
X363922Y17409D01*
X363867Y17428D01*
X363821Y17446D01*
X363784Y17456D01*
X363756Y17465D01*
X363747Y17474D01*
X363737D01*
X363571Y17548D01*
X363423Y17640D01*
X363293Y17724D01*
X363182Y17807D01*
X363099Y17881D01*
X363034Y17936D01*
X362997Y17974D01*
X362988Y17992D01*
X362886Y18122D01*
X362803Y18260D01*
X362738Y18390D01*
X362683Y18519D01*
X362646Y18630D01*
X362618Y18723D01*
X362609Y18751D01*
Y18778D01*
X362599Y18788D01*
Y18797D01*
X362581Y18899D01*
X362562Y19010D01*
X362544Y19130D01*
X362535Y19250D01*
X362516Y19527D01*
X362498Y19796D01*
Y19916D01*
Y20036D01*
X362489Y20147D01*
Y20240D01*
Y20314D01*
Y20379D01*
Y20415D01*
Y20425D01*
Y23801D01*
X363784D01*
Y20249D01*
Y20110D01*
Y19981D01*
X363793Y19861D01*
Y19749D01*
X363802Y19657D01*
Y19565D01*
X363811Y19481D01*
Y19407D01*
X363830Y19296D01*
X363839Y19213D01*
X363848Y19167D01*
Y19148D01*
X363876Y19028D01*
X363922Y18926D01*
X363978Y18834D01*
X364033Y18751D01*
X364089Y18686D01*
X364135Y18640D01*
X364172Y18612D01*
X364181Y18602D01*
X364292Y18529D01*
X364431Y18473D01*
X364561Y18436D01*
X364699Y18408D01*
X364820Y18390D01*
X364912Y18381D01*
X365004D01*
X365199Y18390D01*
X365365Y18417D01*
X365513Y18454D01*
X365643Y18501D01*
X365735Y18538D01*
X365809Y18575D01*
X365846Y18602D01*
X365865Y18612D01*
X365967Y18704D01*
X366050Y18815D01*
X366124Y18917D01*
X366170Y19019D01*
X366207Y19111D01*
X366235Y19185D01*
X366253Y19231D01*
Y19250D01*
X366263Y19306D01*
X366272Y19361D01*
Y19435D01*
X366281Y19518D01*
X366290Y19694D01*
Y19879D01*
X366300Y20045D01*
Y20120D01*
Y20193D01*
Y20249D01*
Y20286D01*
Y20314D01*
Y20323D01*
Y23801D01*
X367595D01*
Y20379D01*
D02*
G37*
G36*
X290931Y23912D02*
X291227Y23875D01*
X291356Y23847D01*
X291486Y23820D01*
X291606Y23792D01*
X291707Y23764D01*
X291800Y23727D01*
X291893Y23699D01*
X291957Y23672D01*
X292022Y23653D01*
X292068Y23625D01*
X292105Y23616D01*
X292124Y23597D01*
X292133D01*
X292420Y23431D01*
X292540Y23329D01*
X292660Y23237D01*
X292771Y23135D01*
X292873Y23033D01*
X292966Y22931D01*
X293049Y22839D01*
X293113Y22747D01*
X293178Y22663D01*
X293234Y22589D01*
X293280Y22524D01*
X293308Y22469D01*
X293336Y22432D01*
X293345Y22404D01*
X293354Y22395D01*
X293428Y22247D01*
X293493Y22099D01*
X293595Y21794D01*
X293669Y21488D01*
X293715Y21220D01*
X293733Y21091D01*
X293752Y20980D01*
X293761Y20878D01*
Y20786D01*
X293770Y20721D01*
Y20665D01*
Y20628D01*
Y20619D01*
X293752Y20277D01*
X293715Y19962D01*
X293650Y19676D01*
X293622Y19537D01*
X293585Y19417D01*
X293548Y19306D01*
X293520Y19204D01*
X293483Y19120D01*
X293456Y19047D01*
X293437Y18991D01*
X293419Y18945D01*
X293400Y18917D01*
Y18908D01*
X293243Y18630D01*
X293067Y18390D01*
X292882Y18177D01*
X292697Y18011D01*
X292614Y17936D01*
X292531Y17872D01*
X292466Y17816D01*
X292401Y17779D01*
X292355Y17742D01*
X292309Y17715D01*
X292290Y17705D01*
X292281Y17696D01*
X292133Y17622D01*
X291994Y17557D01*
X291689Y17456D01*
X291393Y17381D01*
X291125Y17335D01*
X290995Y17317D01*
X290884Y17298D01*
X290782Y17289D01*
X290690D01*
X290625Y17280D01*
X290524D01*
X290228Y17289D01*
X289950Y17326D01*
X289682Y17372D01*
X289451Y17428D01*
X289349Y17456D01*
X289256Y17483D01*
X289173Y17511D01*
X289099Y17529D01*
X289043Y17548D01*
X289006Y17567D01*
X288979Y17576D01*
X288969D01*
X288692Y17687D01*
X288461Y17807D01*
X288257Y17927D01*
X288082Y18029D01*
X287952Y18122D01*
X287906Y18158D01*
X287860Y18195D01*
X287832Y18223D01*
X287804Y18242D01*
X287786Y18260D01*
Y20832D01*
X290570D01*
Y19749D01*
X289090D01*
Y18926D01*
X289201Y18843D01*
X289321Y18769D01*
X289441Y18704D01*
X289552Y18649D01*
X289645Y18602D01*
X289728Y18565D01*
X289774Y18547D01*
X289784Y18538D01*
X289793D01*
X289941Y18482D01*
X290089Y18445D01*
X290228Y18417D01*
X290348Y18399D01*
X290459Y18390D01*
X290533Y18381D01*
X290607D01*
X290755Y18390D01*
X290903Y18408D01*
X291032Y18436D01*
X291162Y18473D01*
X291393Y18565D01*
X291486Y18612D01*
X291578Y18667D01*
X291661Y18723D01*
X291735Y18769D01*
X291791Y18824D01*
X291846Y18861D01*
X291883Y18899D01*
X291911Y18926D01*
X291930Y18945D01*
X291939Y18954D01*
X292022Y19065D01*
X292105Y19195D01*
X292170Y19324D01*
X292226Y19463D01*
X292318Y19749D01*
X292373Y20027D01*
X292392Y20156D01*
X292410Y20286D01*
X292420Y20388D01*
X292429Y20490D01*
X292438Y20563D01*
Y20628D01*
Y20665D01*
Y20674D01*
X292429Y20869D01*
X292420Y21045D01*
X292392Y21220D01*
X292364Y21377D01*
X292327Y21516D01*
X292281Y21646D01*
X292235Y21766D01*
X292189Y21877D01*
X292151Y21970D01*
X292105Y22053D01*
X292059Y22118D01*
X292022Y22173D01*
X291994Y22219D01*
X291967Y22247D01*
X291957Y22265D01*
X291948Y22275D01*
X291846Y22367D01*
X291744Y22460D01*
X291634Y22524D01*
X291523Y22589D01*
X291411Y22645D01*
X291301Y22691D01*
X291088Y22756D01*
X290986Y22774D01*
X290894Y22793D01*
X290810Y22802D01*
X290736Y22811D01*
X290681Y22820D01*
X290598D01*
X290394Y22811D01*
X290218Y22774D01*
X290061Y22737D01*
X289922Y22682D01*
X289821Y22636D01*
X289737Y22589D01*
X289691Y22552D01*
X289672Y22543D01*
X289543Y22432D01*
X289432Y22312D01*
X289339Y22192D01*
X289275Y22071D01*
X289219Y21960D01*
X289182Y21877D01*
X289164Y21822D01*
X289155Y21812D01*
Y21803D01*
X287869Y22043D01*
X287906Y22201D01*
X287961Y22358D01*
X288017Y22497D01*
X288091Y22626D01*
X288156Y22756D01*
X288229Y22867D01*
X288303Y22968D01*
X288377Y23061D01*
X288452Y23144D01*
X288516Y23218D01*
X288572Y23283D01*
X288627Y23329D01*
X288673Y23366D01*
X288710Y23403D01*
X288729Y23413D01*
X288738Y23422D01*
X288868Y23514D01*
X289006Y23588D01*
X289155Y23653D01*
X289312Y23708D01*
X289617Y23801D01*
X289913Y23856D01*
X290052Y23884D01*
X290181Y23893D01*
X290301Y23903D01*
X290403Y23912D01*
X290487Y23921D01*
X290598D01*
X290931Y23912D01*
D02*
G37*
G36*
X454600Y17400D02*
X453305D01*
Y23801D01*
X454600D01*
Y17400D01*
D02*
G37*
G36*
X445063Y22719D02*
X443167D01*
Y17400D01*
X441872D01*
Y22719D01*
X439985D01*
Y23801D01*
X445063D01*
Y22719D01*
D02*
G37*
G36*
X431235Y17400D02*
X429940D01*
Y23801D01*
X431235D01*
Y17400D01*
D02*
G37*
G36*
X416730Y22719D02*
X414834D01*
Y17400D01*
X413539D01*
Y22719D01*
X411652D01*
Y23801D01*
X416730D01*
Y22719D01*
D02*
G37*
G36*
X410857Y17400D02*
X409562D01*
Y23801D01*
X410857D01*
Y17400D01*
D02*
G37*
G36*
X408776Y22719D02*
X406879D01*
Y17400D01*
X405584D01*
Y22719D01*
X403697D01*
Y23801D01*
X408776D01*
Y22719D01*
D02*
G37*
G36*
X396852D02*
X394956D01*
Y17400D01*
X393661D01*
Y22719D01*
X391774D01*
Y23801D01*
X396852D01*
Y22719D01*
D02*
G37*
G36*
X374689Y17400D02*
X373320D01*
X372793Y18852D01*
X370221D01*
X369667Y17400D01*
X368270D01*
X370841Y23801D01*
X372210D01*
X374689Y17400D01*
D02*
G37*
G36*
X361776D02*
X360407D01*
X359880Y18852D01*
X357309D01*
X356753Y17400D01*
X355357D01*
X357928Y23801D01*
X359297D01*
X361776Y17400D01*
D02*
G37*
G36*
X352175D02*
X349751D01*
X349501Y17409D01*
X349270Y17418D01*
X349076Y17437D01*
X348919Y17465D01*
X348789Y17492D01*
X348688Y17511D01*
X348660Y17520D01*
X348632D01*
X348623Y17529D01*
X348614D01*
X348410Y17604D01*
X348225Y17687D01*
X348077Y17770D01*
X347948Y17853D01*
X347846Y17927D01*
X347772Y17983D01*
X347726Y18020D01*
X347707Y18038D01*
X347550Y18214D01*
X347411Y18399D01*
X347291Y18593D01*
X347198Y18769D01*
X347124Y18936D01*
X347087Y19000D01*
X347069Y19056D01*
X347050Y19111D01*
X347032Y19148D01*
X347023Y19167D01*
Y19176D01*
X346958Y19398D01*
X346902Y19629D01*
X346865Y19851D01*
X346847Y20064D01*
X346837Y20166D01*
X346828Y20258D01*
Y20332D01*
X346819Y20406D01*
Y20462D01*
Y20499D01*
Y20527D01*
Y20536D01*
X346828Y20859D01*
X346856Y21146D01*
X346865Y21285D01*
X346884Y21405D01*
X346902Y21526D01*
X346921Y21627D01*
X346949Y21720D01*
X346967Y21803D01*
X346986Y21877D01*
X346995Y21933D01*
X347013Y21979D01*
X347023Y22016D01*
X347032Y22034D01*
Y22043D01*
X347115Y22265D01*
X347217Y22469D01*
X347319Y22645D01*
X347420Y22793D01*
X347503Y22913D01*
X347578Y23006D01*
X347624Y23061D01*
X347633Y23079D01*
X347642D01*
X347799Y23227D01*
X347957Y23348D01*
X348123Y23449D01*
X348271Y23533D01*
X348401Y23597D01*
X348512Y23644D01*
X348549Y23653D01*
X348576Y23662D01*
X348595Y23672D01*
X348604D01*
X348780Y23718D01*
X348974Y23745D01*
X349178Y23773D01*
X349372Y23783D01*
X349548Y23792D01*
X349622Y23801D01*
X352175D01*
Y17400D01*
D02*
G37*
G36*
X345718D02*
X340853D01*
Y18482D01*
X344423D01*
Y20221D01*
X341213D01*
Y21304D01*
X344423D01*
Y22719D01*
X340973D01*
Y23801D01*
X345718D01*
Y17400D01*
D02*
G37*
G36*
X337717Y22719D02*
X335821D01*
Y17400D01*
X334526D01*
Y22719D01*
X332639D01*
Y23801D01*
X337717D01*
Y22719D01*
D02*
G37*
G36*
X331797Y17400D02*
X326932D01*
Y18482D01*
X330502D01*
Y20221D01*
X327292D01*
Y21304D01*
X330502D01*
Y22719D01*
X327052D01*
Y23801D01*
X331797D01*
Y17400D01*
D02*
G37*
G36*
X305934D02*
X301420D01*
Y18482D01*
X304639D01*
Y23755D01*
X305934D01*
Y17400D01*
D02*
G37*
G36*
X286629D02*
X285334D01*
Y23801D01*
X286629D01*
Y17400D01*
D02*
G37*
G36*
X284752D02*
X283383D01*
X282855Y18852D01*
X280284D01*
X279729Y17400D01*
X278332D01*
X280904Y23801D01*
X282273D01*
X284752Y17400D01*
D02*
G37*
G36*
X420283Y23912D02*
X420523Y23884D01*
X420736Y23847D01*
X420921Y23810D01*
X421004Y23783D01*
X421078Y23764D01*
X421134Y23745D01*
X421189Y23727D01*
X421226Y23708D01*
X421254Y23699D01*
X421272Y23690D01*
X421281D01*
X421466Y23597D01*
X421624Y23496D01*
X421763Y23385D01*
X421874Y23283D01*
X421966Y23190D01*
X422021Y23117D01*
X422068Y23061D01*
X422077Y23052D01*
Y23043D01*
X422169Y22885D01*
X422234Y22719D01*
X422281Y22561D01*
X422308Y22423D01*
X422327Y22302D01*
X422345Y22210D01*
Y22173D01*
Y22145D01*
Y22136D01*
Y22127D01*
X422336Y21988D01*
X422318Y21849D01*
X422290Y21729D01*
X422253Y21609D01*
X422160Y21387D01*
X422049Y21192D01*
X422003Y21109D01*
X421947Y21045D01*
X421901Y20980D01*
X421855Y20924D01*
X421818Y20887D01*
X421790Y20859D01*
X421772Y20841D01*
X421763Y20832D01*
X421679Y20767D01*
X421578Y20702D01*
X421476Y20638D01*
X421355Y20582D01*
X421124Y20471D01*
X420884Y20379D01*
X420763Y20342D01*
X420662Y20304D01*
X420560Y20277D01*
X420477Y20249D01*
X420412Y20231D01*
X420357Y20212D01*
X420320Y20203D01*
X420310D01*
X420162Y20166D01*
X420033Y20129D01*
X419912Y20101D01*
X419802Y20073D01*
X419709Y20045D01*
X419626Y20027D01*
X419552Y19999D01*
X419487Y19981D01*
X419431Y19972D01*
X419385Y19953D01*
X419320Y19934D01*
X419283Y19916D01*
X419274D01*
X419154Y19870D01*
X419062Y19824D01*
X418978Y19777D01*
X418914Y19731D01*
X418867Y19694D01*
X418840Y19666D01*
X418821Y19648D01*
X418812Y19638D01*
X418765Y19574D01*
X418728Y19509D01*
X418710Y19444D01*
X418691Y19389D01*
X418682Y19333D01*
X418673Y19287D01*
Y19259D01*
Y19250D01*
X418682Y19120D01*
X418719Y19010D01*
X418775Y18899D01*
X418830Y18806D01*
X418895Y18732D01*
X418941Y18677D01*
X418978Y18640D01*
X418997Y18630D01*
X419126Y18547D01*
X419274Y18482D01*
X419431Y18436D01*
X419580Y18408D01*
X419718Y18390D01*
X419829Y18371D01*
X419931D01*
X420144Y18381D01*
X420329Y18417D01*
X420486Y18464D01*
X420625Y18519D01*
X420736Y18575D01*
X420810Y18621D01*
X420856Y18658D01*
X420875Y18667D01*
X420995Y18797D01*
X421087Y18936D01*
X421171Y19093D01*
X421226Y19250D01*
X421272Y19389D01*
X421309Y19500D01*
X421318Y19537D01*
Y19574D01*
X421328Y19592D01*
Y19602D01*
X422586Y19481D01*
X422558Y19287D01*
X422521Y19102D01*
X422466Y18926D01*
X422419Y18769D01*
X422355Y18621D01*
X422290Y18482D01*
X422225Y18362D01*
X422160Y18251D01*
X422095Y18158D01*
X422031Y18075D01*
X421975Y18001D01*
X421920Y17936D01*
X421883Y17890D01*
X421846Y17863D01*
X421827Y17844D01*
X421818Y17835D01*
X421689Y17733D01*
X421550Y17650D01*
X421402Y17576D01*
X421244Y17511D01*
X421097Y17465D01*
X420939Y17418D01*
X420634Y17354D01*
X420495Y17326D01*
X420366Y17308D01*
X420255Y17298D01*
X420153Y17289D01*
X420070Y17280D01*
X419949D01*
X419654Y17289D01*
X419385Y17317D01*
X419145Y17354D01*
X419043Y17372D01*
X418941Y17400D01*
X418858Y17418D01*
X418784Y17437D01*
X418719Y17456D01*
X418664Y17474D01*
X418617Y17492D01*
X418590Y17502D01*
X418571Y17511D01*
X418562D01*
X418359Y17613D01*
X418192Y17724D01*
X418035Y17835D01*
X417914Y17955D01*
X417822Y18057D01*
X417748Y18149D01*
X417711Y18205D01*
X417693Y18214D01*
Y18223D01*
X417591Y18408D01*
X417508Y18584D01*
X417452Y18760D01*
X417415Y18926D01*
X417396Y19056D01*
X417387Y19120D01*
X417378Y19167D01*
Y19204D01*
Y19231D01*
Y19250D01*
Y19259D01*
X417387Y19481D01*
X417415Y19676D01*
X417461Y19851D01*
X417508Y19999D01*
X417554Y20120D01*
X417600Y20203D01*
X417628Y20258D01*
X417637Y20277D01*
X417739Y20425D01*
X417859Y20554D01*
X417979Y20665D01*
X418090Y20758D01*
X418192Y20832D01*
X418275Y20887D01*
X418331Y20924D01*
X418340Y20933D01*
X418349D01*
X418442Y20980D01*
X418534Y21026D01*
X418756Y21109D01*
X418988Y21183D01*
X419209Y21257D01*
X419311Y21285D01*
X419413Y21313D01*
X419506Y21340D01*
X419580Y21359D01*
X419644Y21377D01*
X419691Y21387D01*
X419728Y21396D01*
X419737D01*
X419903Y21442D01*
X420051Y21479D01*
X420190Y21516D01*
X420320Y21553D01*
X420421Y21590D01*
X420523Y21627D01*
X420606Y21664D01*
X420680Y21692D01*
X420745Y21720D01*
X420791Y21747D01*
X420837Y21766D01*
X420865Y21784D01*
X420912Y21812D01*
X420921Y21822D01*
X420986Y21886D01*
X421032Y21951D01*
X421060Y22016D01*
X421078Y22081D01*
X421097Y22127D01*
X421106Y22173D01*
Y22201D01*
Y22210D01*
X421097Y22302D01*
X421078Y22377D01*
X421041Y22451D01*
X421004Y22506D01*
X420967Y22552D01*
X420930Y22580D01*
X420912Y22599D01*
X420902Y22608D01*
X420773Y22691D01*
X420634Y22747D01*
X420486Y22793D01*
X420347Y22820D01*
X420227Y22839D01*
X420125Y22848D01*
X420033D01*
X419838Y22839D01*
X419672Y22811D01*
X419533Y22774D01*
X419422Y22737D01*
X419330Y22700D01*
X419265Y22663D01*
X419228Y22636D01*
X419219Y22626D01*
X419126Y22534D01*
X419043Y22423D01*
X418978Y22312D01*
X418932Y22192D01*
X418895Y22090D01*
X418877Y22006D01*
X418858Y21942D01*
Y21933D01*
Y21923D01*
X417563Y21970D01*
X417572Y22136D01*
X417600Y22284D01*
X417637Y22432D01*
X417683Y22561D01*
X417730Y22691D01*
X417785Y22811D01*
X417840Y22913D01*
X417896Y23015D01*
X417961Y23098D01*
X418016Y23172D01*
X418072Y23237D01*
X418118Y23292D01*
X418155Y23329D01*
X418183Y23357D01*
X418201Y23376D01*
X418211Y23385D01*
X418331Y23477D01*
X418460Y23561D01*
X418599Y23634D01*
X418747Y23699D01*
X418895Y23745D01*
X419043Y23792D01*
X419339Y23856D01*
X419478Y23875D01*
X419598Y23893D01*
X419718Y23903D01*
X419820Y23912D01*
X419903Y23921D01*
X420014D01*
X420283Y23912D01*
D02*
G37*
G36*
X388388D02*
X388657Y23884D01*
X388888Y23838D01*
X389091Y23792D01*
X389175Y23764D01*
X389258Y23745D01*
X389323Y23727D01*
X389378Y23699D01*
X389424Y23690D01*
X389461Y23672D01*
X389480Y23662D01*
X389489D01*
X389656Y23588D01*
X389813Y23496D01*
X389952Y23394D01*
X390072Y23302D01*
X390174Y23218D01*
X390257Y23144D01*
X390303Y23098D01*
X390313Y23089D01*
X390322Y23079D01*
X390451Y22931D01*
X390571Y22774D01*
X390673Y22636D01*
X390757Y22497D01*
X390821Y22377D01*
X390877Y22284D01*
X390886Y22247D01*
X390904Y22219D01*
X390914Y22210D01*
Y22201D01*
X391006Y21942D01*
X391080Y21664D01*
X391126Y21387D01*
X391163Y21128D01*
X391173Y21008D01*
X391182Y20897D01*
X391191Y20804D01*
Y20721D01*
X391200Y20647D01*
Y20601D01*
Y20563D01*
Y20554D01*
X391191Y20277D01*
X391163Y20008D01*
X391126Y19759D01*
X391071Y19527D01*
X391006Y19315D01*
X390932Y19120D01*
X390858Y18936D01*
X390775Y18778D01*
X390701Y18630D01*
X390627Y18510D01*
X390553Y18399D01*
X390488Y18306D01*
X390433Y18242D01*
X390396Y18186D01*
X390368Y18158D01*
X390359Y18149D01*
X390192Y17992D01*
X390017Y17863D01*
X389841Y17742D01*
X389647Y17650D01*
X389461Y17567D01*
X389267Y17492D01*
X389091Y17437D01*
X388907Y17391D01*
X388740Y17354D01*
X388583Y17326D01*
X388444Y17308D01*
X388324Y17298D01*
X388231Y17289D01*
X388157Y17280D01*
X388092D01*
X387833Y17289D01*
X387593Y17317D01*
X387362Y17363D01*
X387149Y17418D01*
X386946Y17483D01*
X386760Y17557D01*
X386594Y17631D01*
X386437Y17715D01*
X386307Y17798D01*
X386187Y17872D01*
X386085Y17946D01*
X386002Y18011D01*
X385928Y18066D01*
X385882Y18112D01*
X385854Y18140D01*
X385845Y18149D01*
X385697Y18325D01*
X385567Y18510D01*
X385447Y18704D01*
X385354Y18899D01*
X385271Y19102D01*
X385197Y19306D01*
X385142Y19509D01*
X385096Y19703D01*
X385068Y19879D01*
X385040Y20055D01*
X385021Y20203D01*
X385003Y20332D01*
Y20443D01*
X384994Y20527D01*
Y20573D01*
Y20591D01*
X385003Y20878D01*
X385031Y21146D01*
X385068Y21396D01*
X385123Y21636D01*
X385188Y21849D01*
X385262Y22053D01*
X385336Y22238D01*
X385419Y22395D01*
X385503Y22543D01*
X385577Y22672D01*
X385650Y22783D01*
X385715Y22876D01*
X385761Y22941D01*
X385808Y22996D01*
X385836Y23024D01*
X385845Y23033D01*
X386011Y23190D01*
X386187Y23329D01*
X386372Y23449D01*
X386557Y23551D01*
X386751Y23634D01*
X386936Y23708D01*
X387121Y23764D01*
X387297Y23810D01*
X387463Y23847D01*
X387621Y23875D01*
X387759Y23893D01*
X387880Y23912D01*
X387972D01*
X388046Y23921D01*
X388111D01*
X388388Y23912D01*
D02*
G37*
G36*
X310374D02*
X310642Y23884D01*
X310874Y23838D01*
X311077Y23792D01*
X311160Y23764D01*
X311244Y23745D01*
X311308Y23727D01*
X311364Y23699D01*
X311410Y23690D01*
X311447Y23672D01*
X311466Y23662D01*
X311475D01*
X311641Y23588D01*
X311799Y23496D01*
X311937Y23394D01*
X312057Y23302D01*
X312159Y23218D01*
X312243Y23144D01*
X312289Y23098D01*
X312298Y23089D01*
X312307Y23079D01*
X312437Y22931D01*
X312557Y22774D01*
X312659Y22636D01*
X312742Y22497D01*
X312807Y22377D01*
X312862Y22284D01*
X312872Y22247D01*
X312890Y22219D01*
X312899Y22210D01*
Y22201D01*
X312992Y21942D01*
X313066Y21664D01*
X313112Y21387D01*
X313149Y21128D01*
X313158Y21008D01*
X313168Y20897D01*
X313177Y20804D01*
Y20721D01*
X313186Y20647D01*
Y20601D01*
Y20563D01*
Y20554D01*
X313177Y20277D01*
X313149Y20008D01*
X313112Y19759D01*
X313056Y19527D01*
X312992Y19315D01*
X312918Y19120D01*
X312844Y18936D01*
X312760Y18778D01*
X312686Y18630D01*
X312613Y18510D01*
X312539Y18399D01*
X312474Y18306D01*
X312418Y18242D01*
X312381Y18186D01*
X312353Y18158D01*
X312344Y18149D01*
X312178Y17992D01*
X312002Y17863D01*
X311826Y17742D01*
X311632Y17650D01*
X311447Y17567D01*
X311253Y17492D01*
X311077Y17437D01*
X310892Y17391D01*
X310725Y17354D01*
X310568Y17326D01*
X310430Y17308D01*
X310309Y17298D01*
X310217Y17289D01*
X310143Y17280D01*
X310078D01*
X309819Y17289D01*
X309578Y17317D01*
X309347Y17363D01*
X309135Y17418D01*
X308931Y17483D01*
X308746Y17557D01*
X308579Y17631D01*
X308422Y17715D01*
X308293Y17798D01*
X308172Y17872D01*
X308071Y17946D01*
X307987Y18011D01*
X307913Y18066D01*
X307867Y18112D01*
X307839Y18140D01*
X307830Y18149D01*
X307682Y18325D01*
X307553Y18510D01*
X307433Y18704D01*
X307340Y18899D01*
X307257Y19102D01*
X307183Y19306D01*
X307127Y19509D01*
X307081Y19703D01*
X307053Y19879D01*
X307026Y20055D01*
X307007Y20203D01*
X306989Y20332D01*
Y20443D01*
X306979Y20527D01*
Y20573D01*
Y20591D01*
X306989Y20878D01*
X307016Y21146D01*
X307053Y21396D01*
X307109Y21636D01*
X307173Y21849D01*
X307247Y22053D01*
X307322Y22238D01*
X307405Y22395D01*
X307488Y22543D01*
X307562Y22672D01*
X307636Y22783D01*
X307701Y22876D01*
X307747Y22941D01*
X307793Y22996D01*
X307821Y23024D01*
X307830Y23033D01*
X307997Y23190D01*
X308172Y23329D01*
X308358Y23449D01*
X308542Y23551D01*
X308737Y23634D01*
X308922Y23708D01*
X309107Y23764D01*
X309282Y23810D01*
X309449Y23847D01*
X309606Y23875D01*
X309745Y23893D01*
X309865Y23912D01*
X309958D01*
X310032Y23921D01*
X310097D01*
X310374Y23912D01*
D02*
G37*
G36*
X297951D02*
X298219Y23884D01*
X298451Y23838D01*
X298654Y23792D01*
X298738Y23764D01*
X298821Y23745D01*
X298885Y23727D01*
X298941Y23699D01*
X298987Y23690D01*
X299024Y23672D01*
X299043Y23662D01*
X299052D01*
X299219Y23588D01*
X299376Y23496D01*
X299515Y23394D01*
X299635Y23302D01*
X299736Y23218D01*
X299820Y23144D01*
X299866Y23098D01*
X299875Y23089D01*
X299885Y23079D01*
X300014Y22931D01*
X300134Y22774D01*
X300236Y22636D01*
X300319Y22497D01*
X300384Y22377D01*
X300440Y22284D01*
X300449Y22247D01*
X300467Y22219D01*
X300477Y22210D01*
Y22201D01*
X300569Y21942D01*
X300643Y21664D01*
X300689Y21387D01*
X300726Y21128D01*
X300735Y21008D01*
X300745Y20897D01*
X300754Y20804D01*
Y20721D01*
X300763Y20647D01*
Y20601D01*
Y20563D01*
Y20554D01*
X300754Y20277D01*
X300726Y20008D01*
X300689Y19759D01*
X300634Y19527D01*
X300569Y19315D01*
X300495Y19120D01*
X300421Y18936D01*
X300338Y18778D01*
X300264Y18630D01*
X300190Y18510D01*
X300116Y18399D01*
X300051Y18306D01*
X299995Y18242D01*
X299958Y18186D01*
X299931Y18158D01*
X299921Y18149D01*
X299755Y17992D01*
X299579Y17863D01*
X299404Y17742D01*
X299209Y17650D01*
X299024Y17567D01*
X298830Y17492D01*
X298654Y17437D01*
X298469Y17391D01*
X298303Y17354D01*
X298146Y17326D01*
X298007Y17308D01*
X297886Y17298D01*
X297794Y17289D01*
X297720Y17280D01*
X297655D01*
X297396Y17289D01*
X297156Y17317D01*
X296924Y17363D01*
X296712Y17418D01*
X296508Y17483D01*
X296323Y17557D01*
X296157Y17631D01*
X296000Y17715D01*
X295870Y17798D01*
X295750Y17872D01*
X295648Y17946D01*
X295565Y18011D01*
X295491Y18066D01*
X295444Y18112D01*
X295417Y18140D01*
X295408Y18149D01*
X295259Y18325D01*
X295130Y18510D01*
X295010Y18704D01*
X294917Y18899D01*
X294834Y19102D01*
X294760Y19306D01*
X294705Y19509D01*
X294658Y19703D01*
X294631Y19879D01*
X294603Y20055D01*
X294584Y20203D01*
X294566Y20332D01*
Y20443D01*
X294556Y20527D01*
Y20573D01*
Y20591D01*
X294566Y20878D01*
X294594Y21146D01*
X294631Y21396D01*
X294686Y21636D01*
X294751Y21849D01*
X294825Y22053D01*
X294899Y22238D01*
X294982Y22395D01*
X295065Y22543D01*
X295139Y22672D01*
X295213Y22783D01*
X295278Y22876D01*
X295324Y22941D01*
X295371Y22996D01*
X295398Y23024D01*
X295408Y23033D01*
X295574Y23190D01*
X295750Y23329D01*
X295935Y23449D01*
X296120Y23551D01*
X296314Y23634D01*
X296499Y23708D01*
X296684Y23764D01*
X296860Y23810D01*
X297026Y23847D01*
X297183Y23875D01*
X297322Y23893D01*
X297443Y23912D01*
X297535D01*
X297609Y23921D01*
X297674D01*
X297951Y23912D01*
D02*
G37*
G36*
X454600Y6100D02*
X453407D01*
Y10318D01*
X450808Y6100D01*
X449512D01*
Y12501D01*
X450706D01*
Y8190D01*
X453351Y12501D01*
X454600D01*
Y6100D01*
D02*
G37*
G36*
X442177D02*
X437312D01*
Y7182D01*
X440882D01*
Y8921D01*
X437673D01*
Y10003D01*
X440882D01*
Y11419D01*
X437432D01*
Y12501D01*
X442177D01*
Y6100D01*
D02*
G37*
G36*
X436211D02*
X431346D01*
Y7182D01*
X434916D01*
Y8921D01*
X431706D01*
Y10003D01*
X434916D01*
Y11419D01*
X431466D01*
Y12501D01*
X436211D01*
Y6100D01*
D02*
G37*
G36*
X446182Y12612D02*
X446423Y12584D01*
X446636Y12547D01*
X446821Y12510D01*
X446904Y12483D01*
X446978Y12464D01*
X447034Y12445D01*
X447089Y12427D01*
X447126Y12409D01*
X447154Y12399D01*
X447172Y12390D01*
X447182D01*
X447367Y12297D01*
X447524Y12196D01*
X447662Y12085D01*
X447774Y11983D01*
X447866Y11891D01*
X447922Y11817D01*
X447968Y11761D01*
X447977Y11752D01*
Y11743D01*
X448069Y11585D01*
X448134Y11419D01*
X448180Y11261D01*
X448208Y11123D01*
X448227Y11003D01*
X448245Y10910D01*
Y10873D01*
Y10845D01*
Y10836D01*
Y10827D01*
X448236Y10688D01*
X448217Y10549D01*
X448190Y10429D01*
X448153Y10309D01*
X448060Y10087D01*
X447949Y9893D01*
X447903Y9809D01*
X447848Y9745D01*
X447801Y9680D01*
X447755Y9624D01*
X447718Y9587D01*
X447690Y9560D01*
X447672Y9541D01*
X447662Y9532D01*
X447579Y9467D01*
X447477Y9402D01*
X447376Y9337D01*
X447256Y9282D01*
X447024Y9171D01*
X446784Y9078D01*
X446664Y9042D01*
X446562Y9004D01*
X446460Y8977D01*
X446377Y8949D01*
X446312Y8930D01*
X446256Y8912D01*
X446219Y8903D01*
X446210D01*
X446062Y8866D01*
X445933Y8829D01*
X445813Y8801D01*
X445702Y8773D01*
X445609Y8745D01*
X445526Y8727D01*
X445452Y8699D01*
X445387Y8681D01*
X445331Y8671D01*
X445285Y8653D01*
X445221Y8635D01*
X445184Y8616D01*
X445174D01*
X445054Y8570D01*
X444962Y8523D01*
X444878Y8477D01*
X444813Y8431D01*
X444767Y8394D01*
X444739Y8366D01*
X444721Y8348D01*
X444712Y8338D01*
X444665Y8274D01*
X444628Y8209D01*
X444610Y8144D01*
X444592Y8089D01*
X444582Y8033D01*
X444573Y7987D01*
Y7959D01*
Y7950D01*
X444582Y7820D01*
X444619Y7710D01*
X444675Y7598D01*
X444730Y7506D01*
X444795Y7432D01*
X444841Y7377D01*
X444878Y7339D01*
X444897Y7330D01*
X445026Y7247D01*
X445174Y7182D01*
X445331Y7136D01*
X445479Y7108D01*
X445618Y7090D01*
X445729Y7071D01*
X445831D01*
X446044Y7080D01*
X446229Y7118D01*
X446386Y7164D01*
X446525Y7219D01*
X446636Y7275D01*
X446710Y7321D01*
X446756Y7358D01*
X446774Y7367D01*
X446895Y7497D01*
X446987Y7636D01*
X447071Y7793D01*
X447126Y7950D01*
X447172Y8089D01*
X447209Y8200D01*
X447219Y8237D01*
Y8274D01*
X447228Y8292D01*
Y8302D01*
X448486Y8181D01*
X448458Y7987D01*
X448421Y7802D01*
X448365Y7626D01*
X448319Y7469D01*
X448254Y7321D01*
X448190Y7182D01*
X448125Y7062D01*
X448060Y6951D01*
X447996Y6859D01*
X447931Y6775D01*
X447875Y6701D01*
X447820Y6637D01*
X447783Y6590D01*
X447746Y6562D01*
X447727Y6544D01*
X447718Y6535D01*
X447588Y6433D01*
X447450Y6350D01*
X447302Y6276D01*
X447145Y6211D01*
X446996Y6165D01*
X446839Y6118D01*
X446534Y6054D01*
X446395Y6026D01*
X446266Y6007D01*
X446155Y5998D01*
X446053Y5989D01*
X445970Y5980D01*
X445850D01*
X445553Y5989D01*
X445285Y6017D01*
X445045Y6054D01*
X444943Y6072D01*
X444841Y6100D01*
X444758Y6118D01*
X444684Y6137D01*
X444619Y6155D01*
X444564Y6174D01*
X444518Y6193D01*
X444490Y6202D01*
X444471Y6211D01*
X444462D01*
X444258Y6313D01*
X444092Y6424D01*
X443935Y6535D01*
X443815Y6655D01*
X443722Y6757D01*
X443648Y6849D01*
X443611Y6905D01*
X443593Y6914D01*
Y6923D01*
X443491Y7108D01*
X443407Y7284D01*
X443352Y7460D01*
X443315Y7626D01*
X443296Y7756D01*
X443287Y7820D01*
X443278Y7867D01*
Y7904D01*
Y7931D01*
Y7950D01*
Y7959D01*
X443287Y8181D01*
X443315Y8376D01*
X443361Y8551D01*
X443407Y8699D01*
X443454Y8820D01*
X443500Y8903D01*
X443528Y8958D01*
X443537Y8977D01*
X443639Y9125D01*
X443759Y9254D01*
X443879Y9365D01*
X443990Y9458D01*
X444092Y9532D01*
X444175Y9587D01*
X444231Y9624D01*
X444240Y9634D01*
X444249D01*
X444342Y9680D01*
X444434Y9726D01*
X444656Y9809D01*
X444887Y9883D01*
X445110Y9957D01*
X445211Y9985D01*
X445313Y10013D01*
X445405Y10041D01*
X445479Y10059D01*
X445544Y10078D01*
X445590Y10087D01*
X445627Y10096D01*
X445637D01*
X445803Y10142D01*
X445951Y10179D01*
X446090Y10216D01*
X446219Y10253D01*
X446321Y10290D01*
X446423Y10327D01*
X446506Y10364D01*
X446580Y10392D01*
X446645Y10420D01*
X446691Y10447D01*
X446737Y10466D01*
X446765Y10485D01*
X446811Y10512D01*
X446821Y10521D01*
X446885Y10586D01*
X446932Y10651D01*
X446959Y10716D01*
X446978Y10780D01*
X446996Y10827D01*
X447006Y10873D01*
Y10901D01*
Y10910D01*
X446996Y11003D01*
X446978Y11077D01*
X446941Y11151D01*
X446904Y11206D01*
X446867Y11252D01*
X446830Y11280D01*
X446811Y11299D01*
X446802Y11308D01*
X446673Y11391D01*
X446534Y11446D01*
X446386Y11493D01*
X446247Y11520D01*
X446127Y11539D01*
X446025Y11548D01*
X445933D01*
X445739Y11539D01*
X445572Y11511D01*
X445433Y11474D01*
X445322Y11437D01*
X445230Y11400D01*
X445165Y11363D01*
X445128Y11336D01*
X445119Y11326D01*
X445026Y11234D01*
X444943Y11123D01*
X444878Y11012D01*
X444832Y10892D01*
X444795Y10790D01*
X444776Y10706D01*
X444758Y10642D01*
Y10633D01*
Y10623D01*
X443463Y10669D01*
X443472Y10836D01*
X443500Y10984D01*
X443537Y11132D01*
X443583Y11261D01*
X443630Y11391D01*
X443685Y11511D01*
X443741Y11613D01*
X443796Y11715D01*
X443861Y11798D01*
X443916Y11872D01*
X443972Y11937D01*
X444018Y11992D01*
X444055Y12029D01*
X444083Y12057D01*
X444101Y12076D01*
X444110Y12085D01*
X444231Y12177D01*
X444360Y12261D01*
X444499Y12335D01*
X444647Y12399D01*
X444795Y12445D01*
X444943Y12492D01*
X445239Y12557D01*
X445378Y12575D01*
X445498Y12594D01*
X445618Y12603D01*
X445720Y12612D01*
X445803Y12621D01*
X445914D01*
X446182Y12612D01*
D02*
G37*
%LPC*%
G36*
X194300Y91800D02*
X173770Y52700D01*
X214830D01*
X194300Y91800D01*
D02*
G37*
G36*
X453405Y34119D02*
X452443D01*
X452351Y34110D01*
X452267D01*
X452184Y34100D01*
X452064D01*
X451971Y34091D01*
X451906Y34082D01*
X451869Y34073D01*
X451860D01*
X451749Y34045D01*
X451648Y34008D01*
X451555Y33961D01*
X451481Y33906D01*
X451426Y33860D01*
X451379Y33823D01*
X451351Y33795D01*
X451342Y33786D01*
X451268Y33693D01*
X451222Y33601D01*
X451185Y33499D01*
X451157Y33406D01*
X451139Y33323D01*
X451129Y33259D01*
Y33222D01*
Y33203D01*
X451139Y33101D01*
X451148Y33009D01*
X451176Y32926D01*
X451203Y32851D01*
X451231Y32787D01*
X451250Y32741D01*
X451268Y32713D01*
X451277Y32704D01*
X451333Y32629D01*
X451407Y32565D01*
X451472Y32509D01*
X451537Y32463D01*
X451592Y32435D01*
X451638Y32408D01*
X451675Y32398D01*
X451685Y32389D01*
X451740Y32370D01*
X451805Y32361D01*
X451953Y32333D01*
X452119Y32315D01*
X452286Y32306D01*
X452452D01*
X452517Y32296D01*
X453405D01*
Y34119D01*
D02*
G37*
G36*
X446236Y33712D02*
X445339Y31334D01*
X447106D01*
X446236Y33712D01*
D02*
G37*
G36*
X402206Y34137D02*
X400920D01*
X400819Y34128D01*
X400578D01*
X400523Y34119D01*
X400421D01*
X400384Y34110D01*
X400375D01*
X400264Y34091D01*
X400162Y34063D01*
X400079Y34026D01*
X400005Y33989D01*
X399958Y33952D01*
X399912Y33915D01*
X399894Y33897D01*
X399885Y33887D01*
X399829Y33814D01*
X399792Y33730D01*
X399755Y33656D01*
X399736Y33582D01*
X399727Y33508D01*
X399718Y33453D01*
Y33416D01*
Y33406D01*
X399727Y33296D01*
X399746Y33194D01*
X399783Y33110D01*
X399811Y33037D01*
X399848Y32972D01*
X399885Y32935D01*
X399903Y32907D01*
X399912Y32898D01*
X399986Y32833D01*
X400070Y32787D01*
X400153Y32750D01*
X400236Y32722D01*
X400319Y32694D01*
X400375Y32685D01*
X400412Y32676D01*
X400467D01*
X400523Y32667D01*
X400809D01*
X400967Y32657D01*
X402206D01*
Y34137D01*
D02*
G37*
G36*
Y31593D02*
X400865D01*
X400736Y31584D01*
X400625Y31575D01*
X400514D01*
X400421Y31566D01*
X400338Y31556D01*
X400273Y31547D01*
X400208Y31538D01*
X400162Y31529D01*
X400088Y31519D01*
X400042Y31501D01*
X400033D01*
X399940Y31464D01*
X399857Y31418D01*
X399783Y31372D01*
X399727Y31316D01*
X399681Y31279D01*
X399653Y31242D01*
X399635Y31214D01*
X399625Y31205D01*
X399579Y31122D01*
X399542Y31038D01*
X399515Y30964D01*
X399496Y30881D01*
X399487Y30817D01*
X399478Y30761D01*
Y30724D01*
Y30715D01*
X399487Y30595D01*
X399505Y30483D01*
X399533Y30391D01*
X399570Y30317D01*
X399607Y30252D01*
X399635Y30206D01*
X399653Y30178D01*
X399662Y30169D01*
X399736Y30104D01*
X399811Y30049D01*
X399894Y30002D01*
X399968Y29965D01*
X400033Y29947D01*
X400088Y29928D01*
X400125Y29919D01*
X400134D01*
X400171Y29910D01*
X400227D01*
X400347Y29901D01*
X400495Y29891D01*
X400643D01*
X400782Y29882D01*
X402206D01*
Y31593D01*
D02*
G37*
G36*
X377379Y34220D02*
X377342D01*
X377259Y34211D01*
X377185Y34202D01*
X377120Y34174D01*
X377065Y34146D01*
X377018Y34119D01*
X376981Y34100D01*
X376963Y34082D01*
X376954Y34073D01*
X376898Y34008D01*
X376843Y33924D01*
X376797Y33832D01*
X376750Y33740D01*
X376723Y33647D01*
X376695Y33573D01*
X376686Y33527D01*
X376676Y33518D01*
Y33508D01*
X376658Y33425D01*
X376639Y33323D01*
X376621Y33203D01*
X376602Y33083D01*
X376584Y32833D01*
X376574Y32574D01*
X376565Y32454D01*
Y32333D01*
X376556Y32232D01*
Y32139D01*
Y32065D01*
Y32000D01*
Y31964D01*
Y31954D01*
Y31751D01*
X376565Y31556D01*
Y31381D01*
X376574Y31223D01*
X376584Y31076D01*
X376593Y30946D01*
X376611Y30826D01*
X376621Y30724D01*
X376630Y30632D01*
X376648Y30558D01*
X376658Y30493D01*
X376667Y30437D01*
X376676Y30400D01*
Y30363D01*
X376686Y30354D01*
Y30345D01*
X376723Y30215D01*
X376769Y30114D01*
X376815Y30021D01*
X376852Y29956D01*
X376889Y29901D01*
X376926Y29864D01*
X376944Y29845D01*
X376954Y29836D01*
X377018Y29790D01*
X377083Y29753D01*
X377148Y29734D01*
X377213Y29716D01*
X377259Y29706D01*
X377305Y29697D01*
X377342D01*
X377426Y29706D01*
X377500Y29716D01*
X377564Y29743D01*
X377620Y29771D01*
X377666Y29790D01*
X377703Y29818D01*
X377722Y29827D01*
X377731Y29836D01*
X377786Y29901D01*
X377842Y29984D01*
X377888Y30077D01*
X377934Y30169D01*
X377962Y30252D01*
X377990Y30326D01*
X377999Y30373D01*
X378008Y30391D01*
X378027Y30483D01*
X378045Y30585D01*
X378064Y30696D01*
X378073Y30817D01*
X378092Y31076D01*
X378101Y31334D01*
X378110Y31455D01*
Y31575D01*
X378119Y31677D01*
Y31769D01*
Y31843D01*
Y31908D01*
Y31945D01*
Y31954D01*
Y32158D01*
X378110Y32352D01*
Y32519D01*
X378101Y32685D01*
X378092Y32824D01*
X378082Y32963D01*
X378073Y33073D01*
X378054Y33184D01*
X378045Y33277D01*
X378036Y33351D01*
X378027Y33416D01*
X378017Y33471D01*
X378008Y33508D01*
Y33545D01*
X377999Y33555D01*
Y33564D01*
X377962Y33693D01*
X377916Y33804D01*
X377879Y33887D01*
X377833Y33961D01*
X377796Y34008D01*
X377768Y34045D01*
X377749Y34063D01*
X377740Y34073D01*
X377675Y34119D01*
X377601Y34156D01*
X377537Y34183D01*
X377472Y34202D01*
X377426Y34211D01*
X377379Y34220D01*
D02*
G37*
G36*
X354495D02*
X354458D01*
X354375Y34211D01*
X354300Y34202D01*
X354236Y34174D01*
X354180Y34146D01*
X354134Y34119D01*
X354097Y34100D01*
X354079Y34082D01*
X354069Y34073D01*
X354014Y34008D01*
X353958Y33924D01*
X353912Y33832D01*
X353866Y33740D01*
X353838Y33647D01*
X353810Y33573D01*
X353801Y33527D01*
X353792Y33518D01*
Y33508D01*
X353773Y33425D01*
X353755Y33323D01*
X353736Y33203D01*
X353718Y33083D01*
X353699Y32833D01*
X353690Y32574D01*
X353681Y32454D01*
Y32333D01*
X353672Y32232D01*
Y32139D01*
Y32065D01*
Y32000D01*
Y31964D01*
Y31954D01*
Y31751D01*
X353681Y31556D01*
Y31381D01*
X353690Y31223D01*
X353699Y31076D01*
X353709Y30946D01*
X353727Y30826D01*
X353736Y30724D01*
X353746Y30632D01*
X353764Y30558D01*
X353773Y30493D01*
X353783Y30437D01*
X353792Y30400D01*
Y30363D01*
X353801Y30354D01*
Y30345D01*
X353838Y30215D01*
X353884Y30114D01*
X353930Y30021D01*
X353967Y29956D01*
X354005Y29901D01*
X354042Y29864D01*
X354060Y29845D01*
X354069Y29836D01*
X354134Y29790D01*
X354199Y29753D01*
X354263Y29734D01*
X354328Y29716D01*
X354375Y29706D01*
X354421Y29697D01*
X354458D01*
X354541Y29706D01*
X354615Y29716D01*
X354680Y29743D01*
X354735Y29771D01*
X354782Y29790D01*
X354819Y29818D01*
X354837Y29827D01*
X354846Y29836D01*
X354902Y29901D01*
X354957Y29984D01*
X355003Y30077D01*
X355050Y30169D01*
X355078Y30252D01*
X355105Y30326D01*
X355115Y30373D01*
X355124Y30391D01*
X355142Y30483D01*
X355161Y30585D01*
X355179Y30696D01*
X355188Y30817D01*
X355207Y31076D01*
X355216Y31334D01*
X355225Y31455D01*
Y31575D01*
X355235Y31677D01*
Y31769D01*
Y31843D01*
Y31908D01*
Y31945D01*
Y31954D01*
Y32158D01*
X355225Y32352D01*
Y32519D01*
X355216Y32685D01*
X355207Y32824D01*
X355198Y32963D01*
X355188Y33073D01*
X355170Y33184D01*
X355161Y33277D01*
X355152Y33351D01*
X355142Y33416D01*
X355133Y33471D01*
X355124Y33508D01*
Y33545D01*
X355115Y33555D01*
Y33564D01*
X355078Y33693D01*
X355031Y33804D01*
X354994Y33887D01*
X354948Y33961D01*
X354911Y34008D01*
X354883Y34045D01*
X354865Y34063D01*
X354855Y34073D01*
X354791Y34119D01*
X354717Y34156D01*
X354652Y34183D01*
X354587Y34202D01*
X354541Y34211D01*
X354495Y34220D01*
D02*
G37*
G36*
X371535Y22312D02*
X370638Y19934D01*
X372405D01*
X371535Y22312D01*
D02*
G37*
G36*
X358622D02*
X357725Y19934D01*
X359491D01*
X358622Y22312D01*
D02*
G37*
G36*
X350880Y22719D02*
X350038D01*
X349918Y22709D01*
X349807D01*
X349714Y22700D01*
X349631D01*
X349548Y22691D01*
X349483D01*
X349381Y22672D01*
X349307Y22663D01*
X349261Y22654D01*
X349252D01*
X349122Y22617D01*
X349011Y22571D01*
X348909Y22524D01*
X348817Y22469D01*
X348752Y22423D01*
X348697Y22386D01*
X348669Y22358D01*
X348660Y22349D01*
X348576Y22256D01*
X348502Y22154D01*
X348438Y22053D01*
X348382Y21960D01*
X348345Y21868D01*
X348318Y21794D01*
X348299Y21747D01*
X348290Y21738D01*
Y21729D01*
X348243Y21563D01*
X348206Y21387D01*
X348188Y21192D01*
X348169Y21008D01*
X348160Y20850D01*
X348151Y20776D01*
Y20711D01*
Y20665D01*
Y20628D01*
Y20601D01*
Y20591D01*
X348160Y20332D01*
X348169Y20092D01*
X348197Y19897D01*
X348216Y19731D01*
X348243Y19592D01*
X348253Y19537D01*
X348271Y19500D01*
X348281Y19463D01*
Y19435D01*
X348290Y19426D01*
Y19417D01*
X348345Y19268D01*
X348392Y19139D01*
X348456Y19037D01*
X348502Y18954D01*
X348549Y18889D01*
X348586Y18843D01*
X348614Y18815D01*
X348623Y18806D01*
X348706Y18741D01*
X348789Y18686D01*
X348872Y18640D01*
X348956Y18602D01*
X349030Y18575D01*
X349085Y18556D01*
X349122Y18538D01*
X349141D01*
X349242Y18519D01*
X349363Y18510D01*
X349492Y18492D01*
X349622D01*
X349742Y18482D01*
X350880D01*
Y22719D01*
D02*
G37*
G36*
X281597Y22312D02*
X280700Y19934D01*
X282467D01*
X281597Y22312D01*
D02*
G37*
G36*
X388166Y22820D02*
X388092D01*
X387945Y22811D01*
X387806Y22793D01*
X387676Y22774D01*
X387556Y22737D01*
X387343Y22645D01*
X387242Y22599D01*
X387158Y22552D01*
X387075Y22497D01*
X387010Y22451D01*
X386955Y22404D01*
X386899Y22358D01*
X386862Y22321D01*
X386835Y22302D01*
X386825Y22284D01*
X386816Y22275D01*
X386733Y22164D01*
X386649Y22043D01*
X386585Y21923D01*
X386529Y21784D01*
X386446Y21507D01*
X386390Y21239D01*
X386363Y21118D01*
X386353Y20998D01*
X386344Y20897D01*
X386335Y20804D01*
X386326Y20721D01*
Y20665D01*
Y20628D01*
Y20619D01*
X386335Y20415D01*
X386344Y20221D01*
X386372Y20045D01*
X386400Y19888D01*
X386437Y19731D01*
X386483Y19592D01*
X386529Y19472D01*
X386576Y19361D01*
X386622Y19259D01*
X386668Y19176D01*
X386705Y19102D01*
X386751Y19037D01*
X386779Y18991D01*
X386807Y18963D01*
X386816Y18945D01*
X386825Y18936D01*
X386918Y18834D01*
X387019Y18751D01*
X387130Y18677D01*
X387232Y18612D01*
X387343Y18565D01*
X387445Y18519D01*
X387649Y18454D01*
X387824Y18408D01*
X387898Y18399D01*
X387963Y18390D01*
X388018Y18381D01*
X388092D01*
X388231Y18390D01*
X388370Y18408D01*
X388499Y18436D01*
X388620Y18473D01*
X388842Y18556D01*
X389018Y18667D01*
X389101Y18713D01*
X389165Y18769D01*
X389230Y18815D01*
X389277Y18861D01*
X389314Y18889D01*
X389341Y18917D01*
X389360Y18936D01*
X389369Y18945D01*
X389452Y19056D01*
X389535Y19176D01*
X389600Y19306D01*
X389656Y19444D01*
X389748Y19713D01*
X389804Y19981D01*
X389822Y20110D01*
X389841Y20221D01*
X389850Y20332D01*
X389859Y20425D01*
X389868Y20499D01*
Y20554D01*
Y20591D01*
Y20601D01*
X389859Y20804D01*
X389850Y20989D01*
X389822Y21165D01*
X389794Y21331D01*
X389757Y21479D01*
X389721Y21618D01*
X389674Y21738D01*
X389628Y21849D01*
X389582Y21951D01*
X389535Y22034D01*
X389498Y22099D01*
X389461Y22164D01*
X389434Y22210D01*
X389406Y22238D01*
X389397Y22256D01*
X389387Y22265D01*
X389295Y22367D01*
X389193Y22451D01*
X389082Y22524D01*
X388981Y22589D01*
X388870Y22645D01*
X388758Y22682D01*
X388555Y22756D01*
X388370Y22793D01*
X388296Y22802D01*
X388222Y22811D01*
X388166Y22820D01*
D02*
G37*
G36*
X310152D02*
X310078D01*
X309930Y22811D01*
X309791Y22793D01*
X309662Y22774D01*
X309542Y22737D01*
X309329Y22645D01*
X309227Y22599D01*
X309144Y22552D01*
X309061Y22497D01*
X308996Y22451D01*
X308940Y22404D01*
X308885Y22358D01*
X308848Y22321D01*
X308820Y22302D01*
X308811Y22284D01*
X308802Y22275D01*
X308718Y22164D01*
X308635Y22043D01*
X308570Y21923D01*
X308515Y21784D01*
X308432Y21507D01*
X308376Y21239D01*
X308348Y21118D01*
X308339Y20998D01*
X308330Y20897D01*
X308320Y20804D01*
X308311Y20721D01*
Y20665D01*
Y20628D01*
Y20619D01*
X308320Y20415D01*
X308330Y20221D01*
X308358Y20045D01*
X308385Y19888D01*
X308422Y19731D01*
X308469Y19592D01*
X308515Y19472D01*
X308561Y19361D01*
X308607Y19259D01*
X308653Y19176D01*
X308691Y19102D01*
X308737Y19037D01*
X308765Y18991D01*
X308792Y18963D01*
X308802Y18945D01*
X308811Y18936D01*
X308903Y18834D01*
X309005Y18751D01*
X309116Y18677D01*
X309218Y18612D01*
X309329Y18565D01*
X309431Y18519D01*
X309634Y18454D01*
X309810Y18408D01*
X309884Y18399D01*
X309948Y18390D01*
X310004Y18381D01*
X310078D01*
X310217Y18390D01*
X310355Y18408D01*
X310485Y18436D01*
X310605Y18473D01*
X310827Y18556D01*
X311003Y18667D01*
X311086Y18713D01*
X311151Y18769D01*
X311216Y18815D01*
X311262Y18861D01*
X311299Y18889D01*
X311327Y18917D01*
X311345Y18936D01*
X311354Y18945D01*
X311438Y19056D01*
X311521Y19176D01*
X311586Y19306D01*
X311641Y19444D01*
X311734Y19713D01*
X311789Y19981D01*
X311808Y20110D01*
X311826Y20221D01*
X311836Y20332D01*
X311845Y20425D01*
X311854Y20499D01*
Y20554D01*
Y20591D01*
Y20601D01*
X311845Y20804D01*
X311836Y20989D01*
X311808Y21165D01*
X311780Y21331D01*
X311743Y21479D01*
X311706Y21618D01*
X311660Y21738D01*
X311613Y21849D01*
X311567Y21951D01*
X311521Y22034D01*
X311484Y22099D01*
X311447Y22164D01*
X311419Y22210D01*
X311391Y22238D01*
X311382Y22256D01*
X311373Y22265D01*
X311280Y22367D01*
X311179Y22451D01*
X311068Y22524D01*
X310966Y22589D01*
X310855Y22645D01*
X310744Y22682D01*
X310541Y22756D01*
X310355Y22793D01*
X310281Y22802D01*
X310208Y22811D01*
X310152Y22820D01*
D02*
G37*
G36*
X297729D02*
X297655D01*
X297507Y22811D01*
X297369Y22793D01*
X297239Y22774D01*
X297119Y22737D01*
X296906Y22645D01*
X296804Y22599D01*
X296721Y22552D01*
X296638Y22497D01*
X296573Y22451D01*
X296517Y22404D01*
X296462Y22358D01*
X296425Y22321D01*
X296397Y22302D01*
X296388Y22284D01*
X296379Y22275D01*
X296295Y22164D01*
X296212Y22043D01*
X296147Y21923D01*
X296092Y21784D01*
X296009Y21507D01*
X295953Y21239D01*
X295925Y21118D01*
X295916Y20998D01*
X295907Y20897D01*
X295898Y20804D01*
X295888Y20721D01*
Y20665D01*
Y20628D01*
Y20619D01*
X295898Y20415D01*
X295907Y20221D01*
X295935Y20045D01*
X295963Y19888D01*
X296000Y19731D01*
X296046Y19592D01*
X296092Y19472D01*
X296138Y19361D01*
X296184Y19259D01*
X296231Y19176D01*
X296268Y19102D01*
X296314Y19037D01*
X296342Y18991D01*
X296370Y18963D01*
X296379Y18945D01*
X296388Y18936D01*
X296480Y18834D01*
X296582Y18751D01*
X296693Y18677D01*
X296795Y18612D01*
X296906Y18565D01*
X297008Y18519D01*
X297211Y18454D01*
X297387Y18408D01*
X297461Y18399D01*
X297526Y18390D01*
X297581Y18381D01*
X297655D01*
X297794Y18390D01*
X297933Y18408D01*
X298062Y18436D01*
X298183Y18473D01*
X298405Y18556D01*
X298580Y18667D01*
X298663Y18713D01*
X298728Y18769D01*
X298793Y18815D01*
X298839Y18861D01*
X298876Y18889D01*
X298904Y18917D01*
X298922Y18936D01*
X298932Y18945D01*
X299015Y19056D01*
X299098Y19176D01*
X299163Y19306D01*
X299219Y19444D01*
X299311Y19713D01*
X299366Y19981D01*
X299385Y20110D01*
X299404Y20221D01*
X299413Y20332D01*
X299422Y20425D01*
X299431Y20499D01*
Y20554D01*
Y20591D01*
Y20601D01*
X299422Y20804D01*
X299413Y20989D01*
X299385Y21165D01*
X299357Y21331D01*
X299320Y21479D01*
X299283Y21618D01*
X299237Y21738D01*
X299191Y21849D01*
X299145Y21951D01*
X299098Y22034D01*
X299061Y22099D01*
X299024Y22164D01*
X298996Y22210D01*
X298969Y22238D01*
X298959Y22256D01*
X298950Y22265D01*
X298858Y22367D01*
X298756Y22451D01*
X298645Y22524D01*
X298543Y22589D01*
X298432Y22645D01*
X298321Y22682D01*
X298118Y22756D01*
X297933Y22793D01*
X297859Y22802D01*
X297785Y22811D01*
X297729Y22820D01*
D02*
G37*
%LPD*%
D11*
X156284Y104700D02*
G03*
X156284Y104700I-47244J0D01*
G01*
X41540Y91200D02*
Y104700D01*
Y118200D02*
X63540D01*
X41540Y91200D02*
X63540D01*
X41540Y104700D02*
Y118200D01*
X9500Y78100D02*
Y108100D01*
X19500D01*
X9500Y78100D02*
X19500D01*
X9500Y75600D02*
Y78100D01*
X19500D02*
Y108100D01*
Y75600D02*
Y78100D01*
X112273Y124589D02*
X112634Y125313D01*
X113358Y126037D01*
X114082Y126398D01*
X115529D01*
X116253Y126037D01*
X116976Y125313D01*
X117338Y124589D01*
X117700Y123504D01*
Y121695D01*
X117338Y120609D01*
X116976Y119886D01*
X116253Y119162D01*
X115529Y118800D01*
X114082D01*
X113358Y119162D01*
X112634Y119886D01*
X112273Y120609D01*
X110138Y126398D02*
Y118800D01*
Y126398D02*
X106881D01*
X105796Y126037D01*
X105434Y125675D01*
X105072Y124951D01*
Y124227D01*
X105434Y123504D01*
X105796Y123142D01*
X106881Y122780D01*
X110138D01*
X107605D02*
X105072Y118800D01*
X103010Y124589D02*
Y124951D01*
X102648Y125675D01*
X102286Y126037D01*
X101562Y126398D01*
X100115D01*
X99392Y126037D01*
X99030Y125675D01*
X98668Y124951D01*
Y124227D01*
X99030Y123504D01*
X99753Y122418D01*
X103372Y118800D01*
X98306D01*
X94434Y126398D02*
X95520Y126037D01*
X96244Y124951D01*
X96605Y123142D01*
Y122056D01*
X96244Y120247D01*
X95520Y119162D01*
X94434Y118800D01*
X93711D01*
X92625Y119162D01*
X91902Y120247D01*
X91540Y122056D01*
Y123142D01*
X91902Y124951D01*
X92625Y126037D01*
X93711Y126398D01*
X94434D01*
X89116D02*
X85136D01*
X87306Y123504D01*
X86221D01*
X85497Y123142D01*
X85136Y122780D01*
X84774Y121695D01*
Y120971D01*
X85136Y119886D01*
X85859Y119162D01*
X86945Y118800D01*
X88030D01*
X89116Y119162D01*
X89477Y119524D01*
X89839Y120247D01*
X82711Y124589D02*
Y124951D01*
X82349Y125675D01*
X81988Y126037D01*
X81264Y126398D01*
X79817D01*
X79093Y126037D01*
X78731Y125675D01*
X78369Y124951D01*
Y124227D01*
X78731Y123504D01*
X79455Y122418D01*
X83073Y118800D01*
X78008D01*
X45799Y102700D02*
Y106699D01*
X47798Y104699D02*
X43800D01*
X0Y0D02*
X692500D01*
X0Y157500D02*
X692500D01*
X0Y0D02*
Y157500D01*
X692500Y0D02*
Y157500D01*
D13*
X195400Y59000D02*
G03*
X195400Y59000I-1000J0D01*
G01*
D32*
X48821Y28500D02*
G03*
X48821Y28500I-4921J0D01*
G01*
X644421Y127400D02*
G03*
X644421Y127400I-4921J0D01*
G01*
D33*
X655246Y97500D02*
G03*
X648554Y97700I-3447J-3246D01*
G01*
X648554Y87500D02*
G03*
X655246Y87700I3246J3447D01*
G01*
X581953Y78600D02*
G03*
X588646Y78400I3447J3246D01*
G01*
X588647Y88600D02*
G03*
X581953Y88400I-3246J-3447D01*
G01*
X26400Y50147D02*
G03*
X26200Y43454I3246J-3447D01*
G01*
X36400Y43453D02*
G03*
X36200Y50147I-3447J3246D01*
G01*
X5654Y54300D02*
G03*
X12346Y54100I3447J3246D01*
G01*
X12347Y64300D02*
G03*
X5654Y64100I-3246J-3447D01*
G01*
X16554Y54300D02*
G03*
X23246Y54100I3447J3246D01*
G01*
X23246Y64300D02*
G03*
X16554Y64100I-3246J-3447D01*
G01*
X45500Y81954D02*
G03*
X45700Y88646I-3246J3447D01*
G01*
X35500Y88647D02*
G03*
X35700Y81954I3447J-3246D01*
G01*
X442453Y73601D02*
Y86199D01*
X449147Y73601D02*
Y86199D01*
X442453Y73601D02*
X449147D01*
X442453Y86199D02*
X449147D01*
X441753Y46701D02*
Y59299D01*
X448447Y46701D02*
Y59299D01*
X441753Y46701D02*
X448447D01*
X441753Y59299D02*
X448447D01*
X451082Y78924D02*
Y85321D01*
X461318Y78924D02*
Y85321D01*
X459547D02*
X461318D01*
X451082D02*
X452853D01*
X450482Y52424D02*
Y58821D01*
X460718Y52424D02*
Y58821D01*
X458947D02*
X460718D01*
X450482D02*
X452253D01*
X472247Y73901D02*
Y86499D01*
X465554Y73901D02*
Y86499D01*
X472247D01*
X465554Y73901D02*
X472247D01*
X471547Y47301D02*
Y59899D01*
X464853Y47301D02*
Y59899D01*
X471547D01*
X464853Y47301D02*
X471547D01*
X442453Y120901D02*
Y133499D01*
X449147Y120901D02*
Y133499D01*
X442453Y120901D02*
X449147D01*
X442453Y133499D02*
X449147D01*
X442054Y94201D02*
Y106799D01*
X448746Y94201D02*
Y106799D01*
X442054Y94201D02*
X448746D01*
X442054Y106799D02*
X448746D01*
X450682Y99524D02*
Y105921D01*
X460918Y99524D02*
Y105921D01*
X459146D02*
X460918D01*
X450682D02*
X452454D01*
X451082Y126424D02*
Y132821D01*
X461318Y126424D02*
Y132821D01*
X459547D02*
X461318D01*
X451082D02*
X452853D01*
X472247Y121401D02*
Y133999D01*
X465554Y121401D02*
Y133999D01*
X472247D01*
X465554Y121401D02*
X472247D01*
X471946Y94201D02*
Y106799D01*
X465253Y94201D02*
Y106799D01*
X471946D01*
X465253Y94201D02*
X471946D01*
X381854Y74101D02*
Y86699D01*
X388546Y74101D02*
Y86699D01*
X381854Y74101D02*
X388546D01*
X381854Y86699D02*
X388546D01*
X381954Y46901D02*
Y59499D01*
X388647Y46901D02*
Y59499D01*
X381954Y46901D02*
X388647D01*
X381954Y59499D02*
X388647D01*
X390382Y52424D02*
Y58821D01*
X400618Y52424D02*
Y58821D01*
X398847D02*
X400618D01*
X390382D02*
X392154D01*
X390482Y79624D02*
Y86021D01*
X400718Y79624D02*
Y86021D01*
X398946D02*
X400718D01*
X390482D02*
X392253D01*
X411547Y74201D02*
Y86799D01*
X404853Y74201D02*
Y86799D01*
X411547D01*
X404853Y74201D02*
X411547D01*
Y47401D02*
Y59999D01*
X404853Y47401D02*
Y59999D01*
X411547D01*
X404853Y47401D02*
X411547D01*
X381954Y94601D02*
Y107199D01*
X388647Y94601D02*
Y107199D01*
X381954Y94601D02*
X388647D01*
X381954Y107199D02*
X388647D01*
X382254Y121801D02*
Y134399D01*
X388947Y121801D02*
Y134399D01*
X382254Y121801D02*
X388947D01*
X382254Y134399D02*
X388947D01*
X390782Y127324D02*
Y133721D01*
X401018Y127324D02*
Y133721D01*
X399247D02*
X401018D01*
X390782D02*
X392553D01*
X390582Y100124D02*
Y106521D01*
X400818Y100124D02*
Y106521D01*
X399046D02*
X400818D01*
X390582D02*
X392354D01*
X411946Y94901D02*
Y107499D01*
X405254Y94901D02*
Y107499D01*
X411946D01*
X405254Y94901D02*
X411946D01*
Y121501D02*
Y134099D01*
X405254Y121501D02*
Y134099D01*
X411946D01*
X405254Y121501D02*
X411946D01*
X321253Y73901D02*
Y86499D01*
X327946Y73901D02*
Y86499D01*
X321253Y73901D02*
X327946D01*
X321253Y86499D02*
X327946D01*
X321954Y47401D02*
Y59999D01*
X328646Y47401D02*
Y59999D01*
X321954Y47401D02*
X328646D01*
X321954Y59999D02*
X328646D01*
X330482Y52724D02*
Y59121D01*
X340718Y52724D02*
Y59121D01*
X338947D02*
X340718D01*
X330482D02*
X332254D01*
X330082Y79224D02*
Y85621D01*
X340318Y79224D02*
Y85621D01*
X338546D02*
X340318D01*
X330082D02*
X331854D01*
X351247Y74201D02*
Y86799D01*
X344553Y74201D02*
Y86799D01*
X351247D01*
X344553Y74201D02*
X351247D01*
X351547Y47401D02*
Y59999D01*
X344853Y47401D02*
Y59999D01*
X351547D01*
X344853Y47401D02*
X351547D01*
X330282Y127224D02*
Y133621D01*
X340518Y127224D02*
Y133621D01*
X338747D02*
X340518D01*
X330282D02*
X332053D01*
X321453Y122001D02*
Y134599D01*
X328147Y122001D02*
Y134599D01*
X321453Y122001D02*
X328147D01*
X321453Y134599D02*
X328147D01*
X321754Y95901D02*
Y108499D01*
X328447Y95901D02*
Y108499D01*
X321754Y95901D02*
X328447D01*
X321754Y108499D02*
X328447D01*
X330682Y101024D02*
Y107421D01*
X340918Y101024D02*
Y107421D01*
X339146D02*
X340918D01*
X330682D02*
X332453D01*
X351547Y121501D02*
Y134099D01*
X344853Y121501D02*
Y134099D01*
X351547D01*
X344853Y121501D02*
X351547D01*
X351946Y95701D02*
Y108299D01*
X345253Y95701D02*
Y108299D01*
X351946D01*
X345253Y95701D02*
X351946D01*
X269182Y79724D02*
Y86121D01*
X279418Y79724D02*
Y86121D01*
X277646D02*
X279418D01*
X269182D02*
X270953D01*
X259554Y73801D02*
Y86399D01*
X266247Y73801D02*
Y86399D01*
X259554Y73801D02*
X266247D01*
X259554Y86399D02*
X266247D01*
X269382Y55524D02*
Y61921D01*
X279618Y55524D02*
Y61921D01*
X277847D02*
X279618D01*
X269382D02*
X271153D01*
X259953Y49701D02*
Y62299D01*
X266647Y49701D02*
Y62299D01*
X259953Y49701D02*
X266647D01*
X259953Y62299D02*
X266647D01*
X290546Y74401D02*
Y86999D01*
X283854Y74401D02*
Y86999D01*
X290546D01*
X283854Y74401D02*
X290546D01*
X290746Y49501D02*
Y62099D01*
X284053Y49501D02*
Y62099D01*
X290746D01*
X284053Y49501D02*
X290746D01*
X259753Y96701D02*
Y109299D01*
X266446Y96701D02*
Y109299D01*
X259753Y96701D02*
X266446D01*
X259753Y109299D02*
X266446D01*
X260154Y120201D02*
Y132799D01*
X266846Y120201D02*
Y132799D01*
X260154Y120201D02*
X266846D01*
X260154Y132799D02*
X266846D01*
X290546Y120301D02*
Y132899D01*
X283854Y120301D02*
Y132899D01*
X290546D01*
X283854Y120301D02*
X290546D01*
X269382Y125824D02*
Y132221D01*
X279618Y125824D02*
Y132221D01*
X277847D02*
X279618D01*
X269382D02*
X271153D01*
X268782Y102124D02*
Y108521D01*
X279018Y102124D02*
Y108521D01*
X277246D02*
X279018D01*
X268782D02*
X270553D01*
X290446Y96001D02*
Y108599D01*
X283753Y96001D02*
Y108599D01*
X290446D01*
X283753Y96001D02*
X290446D01*
X641800Y55900D02*
X651800D01*
X641800Y35900D02*
Y55900D01*
Y35900D02*
X651800D01*
Y55900D01*
X632353Y35900D02*
Y48498D01*
X639046Y35900D02*
Y48498D01*
X632353Y35900D02*
X639046D01*
X632353Y48498D02*
X639046D01*
X505653Y35900D02*
Y48498D01*
X512347Y35900D02*
Y48498D01*
X505653Y35900D02*
X512347D01*
X505653Y48498D02*
X512347D01*
X536353Y35900D02*
Y48498D01*
X543047Y35900D02*
Y48498D01*
X536353Y35900D02*
X543047D01*
X536353Y48498D02*
X543047D01*
X569453Y35900D02*
Y48498D01*
X576147Y35900D02*
Y48498D01*
X569453Y35900D02*
X576147D01*
X569453Y48498D02*
X576147D01*
X602753Y35900D02*
Y48498D01*
X609446Y35900D02*
Y48498D01*
X602753Y35900D02*
X609446D01*
X602753Y48498D02*
X609446D01*
X611600Y55900D02*
X621600D01*
X611600Y35900D02*
Y55900D01*
Y35900D02*
X621600D01*
Y55900D01*
X579000D02*
X589000D01*
X579000Y35900D02*
Y55900D01*
Y35900D02*
X589000D01*
Y55900D01*
X545900D02*
X555900D01*
X545900Y35900D02*
Y55900D01*
Y35900D02*
X555900D01*
Y55900D01*
X516600D02*
X526600D01*
X516600Y35900D02*
Y55900D01*
Y35900D02*
X526600D01*
Y55900D01*
X612601Y19532D02*
X625199D01*
X612601Y26225D02*
X625199D01*
Y19532D02*
Y26225D01*
X612601Y19532D02*
Y26225D01*
X580001Y19532D02*
X592599D01*
X580001Y26225D02*
X592599D01*
Y19532D02*
Y26225D01*
X580001Y19532D02*
Y26225D01*
X548101Y19532D02*
X560699D01*
X548101Y26225D02*
X560699D01*
Y19532D02*
Y26225D01*
X548101Y19532D02*
Y26225D01*
X632724Y32918D02*
X639121D01*
X632724Y22682D02*
X639121D01*
Y24453D01*
Y31146D02*
Y32918D01*
X600624D02*
X607021D01*
X600624Y22682D02*
X607021D01*
Y24453D01*
Y31146D02*
Y32918D01*
X568224D02*
X574621D01*
X568224Y22682D02*
X574621D01*
Y24453D01*
Y31146D02*
Y32918D01*
X515701Y19532D02*
X528299D01*
X515701Y26225D02*
X528299D01*
Y19532D02*
Y26225D01*
X515701Y19532D02*
Y26225D01*
X537724Y32918D02*
X544121D01*
X537724Y22682D02*
X544121D01*
Y24453D01*
Y31146D02*
Y32918D01*
X503024D02*
X509421D01*
X503024Y22682D02*
X509421D01*
Y24453D01*
Y31146D02*
Y32918D01*
X647301Y77354D02*
X659899D01*
X647301Y84047D02*
X659899D01*
Y77354D02*
Y84047D01*
X647301Y77354D02*
Y84047D01*
X648554Y87500D02*
Y97700D01*
X655246Y87700D02*
Y97500D01*
X659754Y86501D02*
Y99099D01*
X666446Y86501D02*
Y99099D01*
X659754Y86501D02*
X666446D01*
X659754Y99099D02*
X666446D01*
X661801Y77454D02*
X674399D01*
X661801Y84146D02*
X674399D01*
Y77454D02*
Y84146D01*
X661801Y77454D02*
Y84146D01*
X564354Y122801D02*
Y135399D01*
X571046Y122801D02*
Y135399D01*
X564354Y122801D02*
X571046D01*
X564354Y135399D02*
X571046D01*
X587746Y122701D02*
Y135299D01*
X581053Y122701D02*
Y135299D01*
X587746D01*
X581053Y122701D02*
X587746D01*
X588647Y78400D02*
Y88600D01*
X581953Y78600D02*
Y88400D01*
X570298Y98260D02*
X582502D01*
X570298Y105740D02*
X582502D01*
Y98260D02*
Y105740D01*
X570298Y98260D02*
Y105740D01*
X590700Y139700D02*
X600700D01*
X590700Y119700D02*
Y139700D01*
Y119700D02*
X600700D01*
Y139700D01*
X552100Y138800D02*
X562100D01*
X552100Y118800D02*
Y138800D01*
Y118800D02*
X562100D01*
Y138800D01*
X63747Y62601D02*
Y75199D01*
X57054Y62601D02*
Y75199D01*
X63747D01*
X57054Y62601D02*
X63747D01*
X46946Y35501D02*
Y48099D01*
X40253Y35501D02*
Y48099D01*
X46946D01*
X40253Y35501D02*
X46946D01*
X26200Y43453D02*
X36400D01*
X26400Y50147D02*
X36200D01*
X12347Y54100D02*
Y64300D01*
X5654Y54300D02*
Y64100D01*
X23246Y54100D02*
Y64300D01*
X16554Y54300D02*
Y64100D01*
X37747Y101001D02*
Y113599D01*
X31054Y101001D02*
Y113599D01*
X37747D01*
X31054Y101001D02*
X37747D01*
X35500Y88647D02*
X45700D01*
X35700Y81954D02*
X45500D01*
X49005Y63550D02*
Y69850D01*
X37194Y63550D02*
Y69850D01*
Y63550D02*
X49005D01*
X37194Y69850D02*
X49005D01*
X42900Y145600D02*
X62100D01*
X42900Y121900D02*
Y145600D01*
X62100Y121900D02*
Y145600D01*
X42900Y121900D02*
X62100D01*
X56300Y38400D02*
X256300D01*
X56300Y18400D02*
X256300D01*
X56300D02*
Y38400D01*
X256300Y18400D02*
Y38400D01*
X676900Y97300D02*
X686900D01*
X676900Y77300D02*
Y97300D01*
Y77300D02*
X686900D01*
Y97300D01*
X481601Y19532D02*
X494199D01*
X481601Y26225D02*
X494199D01*
Y19532D02*
Y26225D01*
X481601Y19532D02*
Y26225D01*
D34*
X475500Y134100D02*
X506700D01*
X511200D02*
X519000D01*
X522300D02*
X530100D01*
X475500Y134400D02*
X506700D01*
X511200D02*
X517800D01*
X523500D02*
X530100D01*
X475500Y134700D02*
X506700D01*
X511200D02*
X516900D01*
X524400D02*
X530100D01*
X475500Y135000D02*
X506700D01*
X511200D02*
X516300D01*
X525000D02*
X530100D01*
X475500Y135300D02*
X506700D01*
X511200D02*
X515700D01*
X525600D02*
X530100D01*
X475500Y135600D02*
X506700D01*
X511200D02*
X515400D01*
X525900D02*
X530100D01*
X475500Y135900D02*
X506700D01*
X511200D02*
X514800D01*
X526500D02*
X530100D01*
X475500Y136200D02*
X506700D01*
X511200D02*
X514500D01*
X526800D02*
X530100D01*
X511200Y136500D02*
X514200D01*
X527100D02*
X530100D01*
X511200Y136800D02*
X513900D01*
X518400D02*
X519000D01*
X522600D02*
X522900D01*
X527400D02*
X530100D01*
X511200Y137100D02*
X513600D01*
X514200D02*
X518700D01*
X522600D02*
X527100D01*
X527700D02*
X530100D01*
X511200Y137400D02*
X513300D01*
X514200D02*
X518100D01*
X523500D02*
X527100D01*
X528000D02*
X530100D01*
X511200Y137700D02*
X513300D01*
X514200D02*
X517500D01*
X524100D02*
X527100D01*
X528300D02*
X530100D01*
X511200Y138000D02*
X513000D01*
X514200D02*
X516900D01*
X524400D02*
X527100D01*
X528300D02*
X530100D01*
X511200Y138300D02*
X512700D01*
X514200D02*
X516600D01*
X524700D02*
X527100D01*
X528600D02*
X530100D01*
X511200Y138600D02*
X512700D01*
X514200D02*
X516300D01*
X525300D02*
X527100D01*
X528900D02*
X530100D01*
X511200Y138900D02*
X512400D01*
X514200D02*
X516000D01*
X525600D02*
X527100D01*
X528900D02*
X530100D01*
X511200Y139200D02*
X512100D01*
X514200D02*
X515700D01*
X525600D02*
X527100D01*
X529200D02*
X530100D01*
X511200Y139500D02*
X512100D01*
X514200D02*
X515400D01*
X525900D02*
X527100D01*
X529200D02*
X530100D01*
X485700Y139800D02*
X486900D01*
X511200D02*
X512100D01*
X514200D02*
X515100D01*
X526200D02*
X527100D01*
X529500D02*
X530100D01*
X475800Y140100D02*
X477600D01*
X480600D02*
X482700D01*
X484200D02*
X488400D01*
X490200D02*
X492000D01*
X495000D02*
X496800D01*
X497700D02*
X499500D01*
X501000D02*
X502800D01*
X504300D02*
X506100D01*
X511200D02*
X511800D01*
X514200D02*
X515100D01*
X526500D02*
X527100D01*
X529500D02*
X530100D01*
X475800Y140400D02*
X477600D01*
X480600D02*
X482400D01*
X483900D02*
X488700D01*
X490200D02*
X492000D01*
X495000D02*
X496800D01*
X497700D02*
X499500D01*
X501000D02*
X502800D01*
X504300D02*
X506100D01*
X511200D02*
X511800D01*
X514200D02*
X514800D01*
X526500D02*
X527100D01*
X529500D02*
X530100D01*
X476100Y140700D02*
X477900D01*
X480600D02*
X482400D01*
X483600D02*
X489000D01*
X490200D02*
X492000D01*
X494700D02*
X496500D01*
X497700D02*
X499500D01*
X500700D02*
X502800D01*
X504300D02*
X506100D01*
X511200D02*
X511800D01*
X514200D02*
X514800D01*
X526800D02*
X527100D01*
X529800D02*
X530100D01*
X476100Y141000D02*
X477900D01*
X480300D02*
X482400D01*
X483600D02*
X489300D01*
X490500D02*
X492300D01*
X494700D02*
X496500D01*
X497700D02*
X499200D01*
X500700D02*
X503100D01*
X504300D02*
X506100D01*
X511200D02*
X511500D01*
X514200D02*
X514500D01*
X526800D02*
X527100D01*
X529800D02*
X530100D01*
X476100Y141300D02*
X482100D01*
X483600D02*
X485700D01*
X486900D02*
X489300D01*
X490500D02*
X496500D01*
X497700D02*
X499200D01*
X500700D02*
X503100D01*
X504300D02*
X506100D01*
X511200D02*
X511500D01*
X514200D02*
X514500D01*
X526800D02*
X527100D01*
X529800D02*
X530100D01*
X476400Y141600D02*
X482100D01*
X483300D02*
X485400D01*
X487500D02*
X489300D01*
X490500D02*
X496500D01*
X497700D02*
X499200D01*
X500400D02*
X503100D01*
X504300D02*
X506100D01*
X511200D02*
X511500D01*
X514200D02*
X514500D01*
X476400Y141900D02*
X482100D01*
X483300D02*
X485100D01*
X487500D02*
X489300D01*
X490800D02*
X496200D01*
X497700D02*
X499200D01*
X500400D02*
X503400D01*
X504300D02*
X506100D01*
X511200D02*
X511500D01*
X476400Y142200D02*
X481800D01*
X483300D02*
X485100D01*
X487500D02*
X489300D01*
X490800D02*
X496200D01*
X497700D02*
X499200D01*
X500400D02*
X503400D01*
X504300D02*
X506100D01*
X476700Y142500D02*
X478200D01*
X480000D02*
X481800D01*
X483300D02*
X485100D01*
X487500D02*
X489300D01*
X490800D02*
X492600D01*
X494400D02*
X496200D01*
X497700D02*
X499200D01*
X500100D02*
X503400D01*
X504600D02*
X506100D01*
X476700Y142800D02*
X478500D01*
X480000D02*
X481800D01*
X483300D02*
X485100D01*
X487500D02*
X489300D01*
X491100D02*
X492600D01*
X494100D02*
X495900D01*
X497700D02*
X499200D01*
X500100D02*
X501600D01*
X502200D02*
X503700D01*
X504600D02*
X506100D01*
X476700Y143100D02*
X478500D01*
X480000D02*
X481500D01*
X483300D02*
X485100D01*
X487500D02*
X489300D01*
X491100D02*
X492900D01*
X494100D02*
X495900D01*
X497700D02*
X499200D01*
X500100D02*
X501600D01*
X502200D02*
X503700D01*
X504600D02*
X506100D01*
X477000Y143400D02*
X478500D01*
X479700D02*
X481500D01*
X483300D02*
X485100D01*
X487500D02*
X489300D01*
X491100D02*
X492900D01*
X494100D02*
X495900D01*
X497700D02*
X499200D01*
X499800D02*
X501600D01*
X502200D02*
X503700D01*
X504600D02*
X506100D01*
X477000Y143700D02*
X478800D01*
X479700D02*
X481500D01*
X483300D02*
X485100D01*
X487500D02*
X489300D01*
X491100D02*
X492900D01*
X494100D02*
X495600D01*
X497700D02*
X499200D01*
X499800D02*
X501300D01*
X502500D02*
X504000D01*
X504600D02*
X506100D01*
X477000Y144000D02*
X478800D01*
X479700D02*
X481500D01*
X483300D02*
X485100D01*
X487500D02*
X489300D01*
X491400D02*
X492900D01*
X493800D02*
X495600D01*
X497700D02*
X499200D01*
X499800D02*
X501300D01*
X502500D02*
X504000D01*
X504600D02*
X506100D01*
X477000Y144300D02*
X478800D01*
X479400D02*
X481200D01*
X483300D02*
X485100D01*
X487500D02*
X489300D01*
X491400D02*
X493200D01*
X493800D02*
X495600D01*
X497700D02*
X499200D01*
X499500D02*
X501300D01*
X502500D02*
X504000D01*
X504600D02*
X506100D01*
X477300Y144600D02*
X478800D01*
X479400D02*
X481200D01*
X483300D02*
X485100D01*
X487500D02*
X489300D01*
X491400D02*
X493200D01*
X493800D02*
X495600D01*
X497700D02*
X499200D01*
X499500D02*
X501000D01*
X502500D02*
X504300D01*
X504600D02*
X506100D01*
X477300Y144900D02*
X479100D01*
X479400D02*
X481200D01*
X483300D02*
X485100D01*
X487500D02*
X489300D01*
X491700D02*
X493200D01*
X493500D02*
X495300D01*
X497700D02*
X501000D01*
X502800D02*
X506100D01*
X511200D02*
X511500D01*
X477300Y145200D02*
X480900D01*
X483300D02*
X485100D01*
X487500D02*
X489300D01*
X491700D02*
X495300D01*
X497700D02*
X501000D01*
X502800D02*
X506100D01*
X511200D02*
X511500D01*
X514200D02*
X514500D01*
X529800D02*
X530100D01*
X477600Y145500D02*
X480900D01*
X483300D02*
X485100D01*
X487500D02*
X489300D01*
X491700D02*
X495300D01*
X497700D02*
X501000D01*
X502800D02*
X506100D01*
X511200D02*
X511500D01*
X514200D02*
X514500D01*
X526800D02*
X527100D01*
X529800D02*
X530100D01*
X477600Y145800D02*
X480900D01*
X483300D02*
X485100D01*
X487500D02*
X489300D01*
X492000D02*
X495000D01*
X497700D02*
X500700D01*
X503100D02*
X506100D01*
X511200D02*
X511500D01*
X514200D02*
X514500D01*
X526800D02*
X527100D01*
X529800D02*
X530100D01*
X477600Y146100D02*
X480600D01*
X483300D02*
X485100D01*
X487500D02*
X489300D01*
X492000D02*
X495000D01*
X497700D02*
X500700D01*
X503100D02*
X506100D01*
X511200D02*
X511800D01*
X514200D02*
X514800D01*
X526500D02*
X527100D01*
X529800D02*
X530100D01*
X477900Y146400D02*
X480600D01*
X483300D02*
X485100D01*
X487500D02*
X489300D01*
X492000D02*
X495000D01*
X497700D02*
X500700D01*
X503100D02*
X506100D01*
X511200D02*
X511800D01*
X514200D02*
X514800D01*
X526500D02*
X527100D01*
X529500D02*
X530100D01*
X511200Y146700D02*
X511800D01*
X514200D02*
X515100D01*
X526200D02*
X527100D01*
X529500D02*
X530100D01*
X511200Y147000D02*
X512100D01*
X514200D02*
X515400D01*
X526200D02*
X527100D01*
X529500D02*
X530100D01*
X479700Y147300D02*
X480000D01*
X511200D02*
X512100D01*
X514200D02*
X515400D01*
X525900D02*
X527100D01*
X529200D02*
X530100D01*
X478800Y147600D02*
X480300D01*
X511200D02*
X512400D01*
X514200D02*
X515700D01*
X525600D02*
X527100D01*
X529200D02*
X530100D01*
X478200Y147900D02*
X480000D01*
X511200D02*
X512400D01*
X514200D02*
X516000D01*
X525300D02*
X527100D01*
X528900D02*
X530100D01*
X478200Y148200D02*
X479400D01*
X511200D02*
X512700D01*
X514200D02*
X516300D01*
X525000D02*
X527100D01*
X528900D02*
X530100D01*
X478500Y148500D02*
X478800D01*
X511200D02*
X512700D01*
X514200D02*
X516600D01*
X524700D02*
X527100D01*
X528600D02*
X530100D01*
X511200Y148800D02*
X513000D01*
X514200D02*
X517200D01*
X524400D02*
X527100D01*
X528300D02*
X530100D01*
X511200Y149100D02*
X513300D01*
X514200D02*
X517500D01*
X523800D02*
X527100D01*
X528000D02*
X530100D01*
X511200Y149400D02*
X513600D01*
X514200D02*
X518400D01*
X523200D02*
X527100D01*
X528000D02*
X530100D01*
X511200Y149700D02*
X513900D01*
X514200D02*
X519300D01*
X522300D02*
X527100D01*
X527700D02*
X530100D01*
X511200Y150000D02*
X514200D01*
X527400D02*
X530100D01*
X475800Y150300D02*
X506400D01*
X511200D02*
X514500D01*
X527100D02*
X530100D01*
X475500Y150600D02*
X506700D01*
X511200D02*
X514800D01*
X526500D02*
X530100D01*
X475500Y150900D02*
X506700D01*
X511200D02*
X515100D01*
X526200D02*
X530100D01*
X475500Y151200D02*
X506700D01*
X511200D02*
X515400D01*
X525900D02*
X530100D01*
X475500Y151500D02*
X506700D01*
X511200D02*
X516000D01*
X525300D02*
X530100D01*
X475500Y151800D02*
X506700D01*
X511200D02*
X516600D01*
X524700D02*
X530100D01*
X475500Y152100D02*
X506700D01*
X511200D02*
X517200D01*
X524100D02*
X530100D01*
X475500Y152400D02*
X506700D01*
X511200D02*
X518100D01*
X523200D02*
X530100D01*
X475800Y152700D02*
X506700D01*
X511200D02*
X519300D01*
X522000D02*
X530100D01*
D35*
X644432Y60966D02*
X645099Y60299D01*
Y58966D01*
X644432Y58300D01*
X643766D01*
X643099Y58966D01*
Y60299D01*
X642433Y60966D01*
X641766D01*
X641100Y60299D01*
Y58966D01*
X641766Y58300D01*
X645099Y62299D02*
Y64964D01*
Y63632D01*
X641100D01*
Y66297D02*
Y67630D01*
Y66964D01*
X645099D01*
X644432Y66297D01*
X611732Y60766D02*
X612399Y60099D01*
Y58766D01*
X611732Y58100D01*
X611066D01*
X610399Y58766D01*
Y60099D01*
X609733Y60766D01*
X609066D01*
X608400Y60099D01*
Y58766D01*
X609066Y58100D01*
X612399Y62099D02*
Y64764D01*
Y63432D01*
X608400D01*
Y68763D02*
Y66097D01*
X611066Y68763D01*
X611732D01*
X612399Y68097D01*
Y66764D01*
X611732Y66097D01*
X577032Y60466D02*
X577699Y59799D01*
Y58466D01*
X577032Y57800D01*
X576366D01*
X575699Y58466D01*
Y59799D01*
X575033Y60466D01*
X574366D01*
X573700Y59799D01*
Y58466D01*
X574366Y57800D01*
X577699Y61799D02*
Y64464D01*
Y63132D01*
X573700D01*
X577032Y65797D02*
X577699Y66464D01*
Y67797D01*
X577032Y68463D01*
X576366D01*
X575699Y67797D01*
Y67130D01*
Y67797D01*
X575033Y68463D01*
X574366D01*
X573700Y67797D01*
Y66464D01*
X574366Y65797D01*
X545132Y60366D02*
X545799Y59699D01*
Y58366D01*
X545132Y57700D01*
X544466D01*
X543799Y58366D01*
Y59699D01*
X543133Y60366D01*
X542466D01*
X541800Y59699D01*
Y58366D01*
X542466Y57700D01*
X545799Y61699D02*
Y64364D01*
Y63032D01*
X541800D01*
Y67697D02*
X545799D01*
X543799Y65697D01*
Y68363D01*
X510500Y57900D02*
X514499D01*
Y59899D01*
X513832Y60566D01*
X512499D01*
X511833Y59899D01*
Y57900D01*
X514499Y63898D02*
Y62565D01*
X513832Y61899D01*
X511166D01*
X510500Y62565D01*
Y63898D01*
X511166Y64565D01*
X513832D01*
X514499Y63898D01*
Y65897D02*
X510500D01*
X511833Y67230D01*
X510500Y68563D01*
X514499D01*
Y72562D02*
Y69896D01*
X510500D01*
Y72562D01*
X512499Y69896D02*
Y71229D01*
X510500Y73895D02*
X514499D01*
Y75894D01*
X513832Y76561D01*
X512499D01*
X511833Y75894D01*
Y73895D01*
Y75228D02*
X510500Y76561D01*
X656700Y49900D02*
Y52566D01*
X655367Y53899D01*
X654034Y52566D01*
Y49900D01*
Y51899D01*
X656700D01*
X626100Y49800D02*
Y52466D01*
X624767Y53799D01*
X623434Y52466D01*
Y49800D01*
Y51799D01*
X626100D01*
X593700Y49800D02*
Y52466D01*
X592367Y53799D01*
X591034Y52466D01*
Y49800D01*
Y51799D01*
X593700D01*
X560500Y49800D02*
Y52466D01*
X559167Y53799D01*
X557834Y52466D01*
Y49800D01*
Y51799D01*
X560500D01*
X531200Y50000D02*
Y52666D01*
X529867Y53999D01*
X528534Y52666D01*
Y50000D01*
Y51999D01*
X531200D01*
X614532Y124766D02*
X615199Y124099D01*
Y122766D01*
X614532Y122100D01*
X613866D01*
X613199Y122766D01*
Y124099D01*
X612533Y124766D01*
X611866D01*
X611200Y124099D01*
Y122766D01*
X611866Y122100D01*
X615199Y126099D02*
Y127432D01*
Y126765D01*
X611200D01*
Y126099D01*
Y127432D01*
Y129431D02*
X615199D01*
X611200Y132097D01*
X615199D01*
X614532Y136095D02*
X615199Y135429D01*
Y134096D01*
X614532Y133430D01*
X611866D01*
X611200Y134096D01*
Y135429D01*
X611866Y136095D01*
X613199Y137428D02*
Y140094D01*
X615199Y141427D02*
Y142760D01*
Y142094D01*
X611200D01*
Y141427D01*
Y142760D01*
Y144759D02*
X615199D01*
X611200Y147425D01*
X615199D01*
X539332Y125466D02*
X539999Y124799D01*
Y123467D01*
X539332Y122800D01*
X538666D01*
X537999Y123467D01*
Y124799D01*
X537333Y125466D01*
X536666D01*
X536000Y124799D01*
Y123467D01*
X536666Y122800D01*
X539999Y126799D02*
Y128132D01*
Y127465D01*
X536000D01*
Y126799D01*
Y128132D01*
Y130131D02*
X539999D01*
X536000Y132797D01*
X539999D01*
X539332Y136795D02*
X539999Y136129D01*
Y134796D01*
X539332Y134130D01*
X536666D01*
X536000Y134796D01*
Y136129D01*
X536666Y136795D01*
X537999Y138128D02*
Y140794D01*
X539999Y144126D02*
Y142794D01*
X539332Y142127D01*
X536666D01*
X536000Y142794D01*
Y144126D01*
X536666Y144793D01*
X539332D01*
X539999Y144126D01*
Y146126D02*
X536666D01*
X536000Y146792D01*
Y148125D01*
X536666Y148792D01*
X539999D01*
Y150125D02*
Y152790D01*
Y151457D01*
X536000D01*
X682900Y56900D02*
X686899D01*
Y58899D01*
X686232Y59566D01*
X684899D01*
X684233Y58899D01*
Y56900D01*
Y58233D02*
X682900Y59566D01*
X686899Y63564D02*
Y60899D01*
X682900D01*
Y63564D01*
X684899Y60899D02*
Y62232D01*
X686232Y67563D02*
X686899Y66897D01*
Y65564D01*
X686232Y64897D01*
X685566D01*
X684899Y65564D01*
Y66897D01*
X684233Y67563D01*
X683566D01*
X682900Y66897D01*
Y65564D01*
X683566Y64897D01*
X686899Y71562D02*
Y68896D01*
X682900D01*
Y71562D01*
X684899Y68896D02*
Y70229D01*
X686899Y72895D02*
Y75561D01*
Y74228D01*
X682900D01*
D36*
X596199Y114000D02*
Y117332D01*
X597865Y115666D02*
X594533D01*
X558599Y113400D02*
Y116732D01*
X560265Y115066D02*
X556933D01*
X186968Y12865D02*
X187801Y13698D01*
X189467D01*
X190300Y12865D01*
Y9533D01*
X189467Y8700D01*
X187801D01*
X186968Y9533D01*
Y11199D01*
X188634D01*
X185302Y8700D02*
Y13698D01*
X182802D01*
X181969Y12865D01*
Y11199D01*
X182802Y10366D01*
X185302D01*
X180303Y13698D02*
X178637D01*
X179470D01*
Y8700D01*
X180303D01*
X178637D01*
X173639Y13698D02*
X175305D01*
X176138Y12865D01*
Y9533D01*
X175305Y8700D01*
X173639D01*
X172806Y9533D01*
Y12865D01*
X173639Y13698D01*
X171140Y8700D02*
X169473D01*
X170307D01*
Y13698D01*
X171140Y12865D01*
X161976Y11199D02*
X158644D01*
X148647Y13698D02*
X150313D01*
X149480D01*
Y9533D01*
X150313Y8700D01*
X151146D01*
X151979Y9533D01*
X146981Y8700D02*
Y13698D01*
X144482D01*
X143648Y12865D01*
Y11199D01*
X144482Y10366D01*
X146981D01*
X139483Y8700D02*
Y13698D01*
X141982Y11199D01*
X138650D01*
X128653Y13698D02*
Y8700D01*
X131152D01*
X131986Y9533D01*
Y11199D01*
X131152Y12032D01*
X128653D01*
X126154D02*
X124488D01*
X123655Y11199D01*
Y8700D01*
X126154D01*
X126987Y9533D01*
X126154Y10366D01*
X123655D01*
X116990Y13698D02*
Y8700D01*
X114491D01*
X113658Y9533D01*
Y12865D01*
X114491Y13698D01*
X116990D01*
X108660D02*
X111992D01*
Y8700D01*
X108660D01*
X111992Y11199D02*
X110326D01*
X104495Y8700D02*
Y13698D01*
X106994Y11199D01*
X103661D01*
X42468Y21598D02*
X45800D01*
Y19099D01*
X44134D01*
X45800D01*
Y16600D01*
X40802Y21598D02*
Y16600D01*
X38302D01*
X37469Y17433D01*
Y20765D01*
X38302Y21598D01*
X40802D01*
X32471Y16600D02*
X35803D01*
X32471Y19932D01*
Y20765D01*
X33304Y21598D01*
X34970D01*
X35803Y20765D01*
X640668Y140298D02*
X644000D01*
Y137799D01*
X642334D01*
X644000D01*
Y135300D01*
X639002Y140298D02*
Y135300D01*
X636502D01*
X635669Y136133D01*
Y139465D01*
X636502Y140298D01*
X639002D01*
X634003Y135300D02*
X632337D01*
X633170D01*
Y140298D01*
X634003Y139465D01*
X166768Y122365D02*
X167601Y123198D01*
X169267D01*
X170100Y122365D01*
Y119033D01*
X169267Y118200D01*
X167601D01*
X166768Y119033D01*
X165102Y118200D02*
Y123198D01*
X161769Y118200D01*
Y123198D01*
X156771D02*
X158437Y122365D01*
X160103Y120699D01*
Y119033D01*
X159270Y118200D01*
X157604D01*
X156771Y119033D01*
Y119866D01*
X157604Y120699D01*
X160103D01*
X34500Y71698D02*
Y67533D01*
X33667Y66700D01*
X32001D01*
X31168Y67533D01*
Y71698D01*
X29502Y66700D02*
X27836D01*
X28669D01*
Y71698D01*
X29502Y70865D01*
X61800Y153698D02*
Y148700D01*
X59301D01*
X58468Y149533D01*
Y152865D01*
X59301Y153698D01*
X61800D01*
X56802Y148700D02*
X55136D01*
X55969D01*
Y153698D01*
X56802Y152865D01*
X12200Y115998D02*
X8868Y111000D01*
Y115998D02*
X12200Y111000D01*
X7202D02*
X5536D01*
X6369D01*
Y115998D01*
X7202Y115165D01*
X595600Y104198D02*
Y100033D01*
X594767Y99200D01*
X593101D01*
X592268Y100033D01*
Y104198D01*
X587269Y99200D02*
X590602D01*
X587269Y102532D01*
Y103365D01*
X588102Y104198D01*
X589769D01*
X590602Y103365D01*
X581800Y138100D02*
X586798D01*
Y140599D01*
X585965Y141432D01*
X584299D01*
X583466Y140599D01*
Y138100D01*
Y139766D02*
X581800Y141432D01*
X586798Y146431D02*
Y143098D01*
X584299D01*
X585132Y144764D01*
Y145598D01*
X584299Y146431D01*
X582633D01*
X581800Y145598D01*
Y143931D01*
X582633Y143098D01*
X585965Y148097D02*
X586798Y148930D01*
Y150596D01*
X585965Y151429D01*
X582633D01*
X581800Y150596D01*
Y148930D01*
X582633Y148097D01*
X585965D01*
X565200Y137900D02*
X570198D01*
Y140399D01*
X569365Y141232D01*
X567699D01*
X566866Y140399D01*
Y137900D01*
Y139566D02*
X565200Y141232D01*
Y145398D02*
X570198D01*
X567699Y142898D01*
Y146231D01*
X566033Y147897D02*
X565200Y148730D01*
Y150396D01*
X566033Y151229D01*
X569365D01*
X570198Y150396D01*
Y148730D01*
X569365Y147897D01*
X568532D01*
X567699Y148730D01*
Y151229D01*
X660800Y68700D02*
Y73698D01*
X658301D01*
X657468Y72865D01*
Y71199D01*
X658301Y70366D01*
X660800D01*
X659134D02*
X657468Y68700D01*
X653302D02*
Y73698D01*
X655802Y71199D01*
X652469D01*
X650803Y72865D02*
X649970Y73698D01*
X648304D01*
X647471Y72865D01*
Y72032D01*
X648304Y71199D01*
X647471Y70366D01*
Y69533D01*
X648304Y68700D01*
X649970D01*
X650803Y69533D01*
Y70366D01*
X649970Y71199D01*
X650803Y72032D01*
Y72865D01*
X649970Y71199D02*
X648304D01*
X679200Y69100D02*
Y74098D01*
X676701D01*
X675868Y73265D01*
Y71599D01*
X676701Y70766D01*
X679200D01*
X677534D02*
X675868Y69100D01*
X671702D02*
Y74098D01*
X674202Y71599D01*
X670869D01*
X669203Y74098D02*
X665871D01*
Y73265D01*
X669203Y69933D01*
Y69100D01*
X659700Y101200D02*
X664698D01*
Y103699D01*
X663865Y104532D01*
X662199D01*
X661366Y103699D01*
Y101200D01*
Y102866D02*
X659700Y104532D01*
Y108698D02*
X664698D01*
X662199Y106198D01*
Y109531D01*
X664698Y114529D02*
X663865Y112863D01*
X662199Y111197D01*
X660533D01*
X659700Y112030D01*
Y113696D01*
X660533Y114529D01*
X661366D01*
X662199Y113696D01*
Y111197D01*
X422200Y74400D02*
X427198D01*
Y76899D01*
X426365Y77732D01*
X424699D01*
X423866Y76899D01*
Y74400D01*
Y76066D02*
X422200Y77732D01*
Y81898D02*
X427198D01*
X424699Y79398D01*
Y82731D01*
X427198Y87729D02*
Y84397D01*
X424699D01*
X425532Y86063D01*
Y86896D01*
X424699Y87729D01*
X423033D01*
X422200Y86896D01*
Y85230D01*
X423033Y84397D01*
X422400Y46700D02*
X427398D01*
Y49199D01*
X426565Y50032D01*
X424899D01*
X424066Y49199D01*
Y46700D01*
Y48366D02*
X422400Y50032D01*
Y54198D02*
X427398D01*
X424899Y51698D01*
Y55031D01*
X422400Y59196D02*
X427398D01*
X424899Y56697D01*
Y60029D01*
X422400Y121300D02*
X427398D01*
Y123799D01*
X426565Y124632D01*
X424899D01*
X424066Y123799D01*
Y121300D01*
Y122966D02*
X422400Y124632D01*
Y128798D02*
X427398D01*
X424899Y126298D01*
Y129631D01*
X426565Y131297D02*
X427398Y132130D01*
Y133796D01*
X426565Y134629D01*
X425732D01*
X424899Y133796D01*
Y132963D01*
Y133796D01*
X424066Y134629D01*
X423233D01*
X422400Y133796D01*
Y132130D01*
X423233Y131297D01*
X422500Y94100D02*
X427498D01*
Y96599D01*
X426665Y97432D01*
X424999D01*
X424166Y96599D01*
Y94100D01*
Y95766D02*
X422500Y97432D01*
Y101598D02*
X427498D01*
X424999Y99098D01*
Y102431D01*
X422500Y107429D02*
Y104097D01*
X425832Y107429D01*
X426665D01*
X427498Y106596D01*
Y104930D01*
X426665Y104097D01*
X361900Y75300D02*
X366898D01*
Y77799D01*
X366065Y78632D01*
X364399D01*
X363566Y77799D01*
Y75300D01*
Y76966D02*
X361900Y78632D01*
Y82798D02*
X366898D01*
X364399Y80298D01*
Y83631D01*
X361900Y85297D02*
Y86963D01*
Y86130D01*
X366898D01*
X366065Y85297D01*
X361900Y48100D02*
X366898D01*
Y50599D01*
X366065Y51432D01*
X364399D01*
X363566Y50599D01*
Y48100D01*
Y49766D02*
X361900Y51432D01*
Y55598D02*
X366898D01*
X364399Y53098D01*
Y56431D01*
X366065Y58097D02*
X366898Y58930D01*
Y60596D01*
X366065Y61429D01*
X362733D01*
X361900Y60596D01*
Y58930D01*
X362733Y58097D01*
X366065D01*
X362100Y121000D02*
X367098D01*
Y123499D01*
X366265Y124332D01*
X364599D01*
X363766Y123499D01*
Y121000D01*
Y122666D02*
X362100Y124332D01*
X366265Y125998D02*
X367098Y126831D01*
Y128498D01*
X366265Y129331D01*
X365432D01*
X364599Y128498D01*
Y127664D01*
Y128498D01*
X363766Y129331D01*
X362933D01*
X362100Y128498D01*
Y126831D01*
X362933Y125998D01*
Y130997D02*
X362100Y131830D01*
Y133496D01*
X362933Y134329D01*
X366265D01*
X367098Y133496D01*
Y131830D01*
X366265Y130997D01*
X365432D01*
X364599Y131830D01*
Y134329D01*
X362100Y94400D02*
X367098D01*
Y96899D01*
X366265Y97732D01*
X364599D01*
X363766Y96899D01*
Y94400D01*
Y96066D02*
X362100Y97732D01*
X366265Y99398D02*
X367098Y100231D01*
Y101898D01*
X366265Y102731D01*
X365432D01*
X364599Y101898D01*
Y101065D01*
Y101898D01*
X363766Y102731D01*
X362933D01*
X362100Y101898D01*
Y100231D01*
X362933Y99398D01*
X366265Y104397D02*
X367098Y105230D01*
Y106896D01*
X366265Y107729D01*
X365432D01*
X364599Y106896D01*
X363766Y107729D01*
X362933D01*
X362100Y106896D01*
Y105230D01*
X362933Y104397D01*
X363766D01*
X364599Y105230D01*
X365432Y104397D01*
X366265D01*
X364599Y105230D02*
Y106896D01*
X435800Y74000D02*
X440798D01*
Y76499D01*
X439965Y77332D01*
X438299D01*
X437466Y76499D01*
Y74000D01*
Y75666D02*
X435800Y77332D01*
X439965Y78998D02*
X440798Y79831D01*
Y81498D01*
X439965Y82331D01*
X439132D01*
X438299Y81498D01*
Y80664D01*
Y81498D01*
X437466Y82331D01*
X436633D01*
X435800Y81498D01*
Y79831D01*
X436633Y78998D01*
X440798Y83997D02*
Y87329D01*
X439965D01*
X436633Y83997D01*
X435800D01*
X434800Y47000D02*
X439798D01*
Y49499D01*
X438965Y50332D01*
X437299D01*
X436466Y49499D01*
Y47000D01*
Y48666D02*
X434800Y50332D01*
X438965Y51998D02*
X439798Y52831D01*
Y54498D01*
X438965Y55331D01*
X438132D01*
X437299Y54498D01*
Y53664D01*
Y54498D01*
X436466Y55331D01*
X435633D01*
X434800Y54498D01*
Y52831D01*
X435633Y51998D01*
X439798Y60329D02*
X438965Y58663D01*
X437299Y56997D01*
X435633D01*
X434800Y57830D01*
Y59496D01*
X435633Y60329D01*
X436466D01*
X437299Y59496D01*
Y56997D01*
X435400Y121400D02*
X440398D01*
Y123899D01*
X439565Y124732D01*
X437899D01*
X437066Y123899D01*
Y121400D01*
Y123066D02*
X435400Y124732D01*
X439565Y126398D02*
X440398Y127231D01*
Y128898D01*
X439565Y129731D01*
X438732D01*
X437899Y128898D01*
Y128065D01*
Y128898D01*
X437066Y129731D01*
X436233D01*
X435400Y128898D01*
Y127231D01*
X436233Y126398D01*
X440398Y134729D02*
Y131397D01*
X437899D01*
X438732Y133063D01*
Y133896D01*
X437899Y134729D01*
X436233D01*
X435400Y133896D01*
Y132230D01*
X436233Y131397D01*
X435100Y94200D02*
X440098D01*
Y96699D01*
X439265Y97532D01*
X437599D01*
X436766Y96699D01*
Y94200D01*
Y95866D02*
X435100Y97532D01*
X439265Y99198D02*
X440098Y100031D01*
Y101698D01*
X439265Y102531D01*
X438432D01*
X437599Y101698D01*
Y100865D01*
Y101698D01*
X436766Y102531D01*
X435933D01*
X435100Y101698D01*
Y100031D01*
X435933Y99198D01*
X435100Y106696D02*
X440098D01*
X437599Y104197D01*
Y107529D01*
X374900Y74300D02*
X379898D01*
Y76799D01*
X379065Y77632D01*
X377399D01*
X376566Y76799D01*
Y74300D01*
Y75966D02*
X374900Y77632D01*
X379065Y79298D02*
X379898Y80131D01*
Y81798D01*
X379065Y82631D01*
X378232D01*
X377399Y81798D01*
Y80964D01*
Y81798D01*
X376566Y82631D01*
X375733D01*
X374900Y81798D01*
Y80131D01*
X375733Y79298D01*
X379065Y84297D02*
X379898Y85130D01*
Y86796D01*
X379065Y87629D01*
X378232D01*
X377399Y86796D01*
Y85963D01*
Y86796D01*
X376566Y87629D01*
X375733D01*
X374900Y86796D01*
Y85130D01*
X375733Y84297D01*
X375100Y47700D02*
X380098D01*
Y50199D01*
X379265Y51032D01*
X377599D01*
X376766Y50199D01*
Y47700D01*
Y49366D02*
X375100Y51032D01*
X379265Y52698D02*
X380098Y53531D01*
Y55198D01*
X379265Y56031D01*
X378432D01*
X377599Y55198D01*
Y54365D01*
Y55198D01*
X376766Y56031D01*
X375933D01*
X375100Y55198D01*
Y53531D01*
X375933Y52698D01*
X375100Y61029D02*
Y57697D01*
X378432Y61029D01*
X379265D01*
X380098Y60196D01*
Y58530D01*
X379265Y57697D01*
X375400Y121700D02*
X380398D01*
Y124199D01*
X379565Y125032D01*
X377899D01*
X377066Y124199D01*
Y121700D01*
Y123366D02*
X375400Y125032D01*
X379565Y126698D02*
X380398Y127531D01*
Y129198D01*
X379565Y130031D01*
X378732D01*
X377899Y129198D01*
Y128365D01*
Y129198D01*
X377066Y130031D01*
X376233D01*
X375400Y129198D01*
Y127531D01*
X376233Y126698D01*
X375400Y131697D02*
Y133363D01*
Y132530D01*
X380398D01*
X379565Y131697D01*
X374900Y94500D02*
X379898D01*
Y96999D01*
X379065Y97832D01*
X377399D01*
X376566Y96999D01*
Y94500D01*
Y96166D02*
X374900Y97832D01*
X379065Y99498D02*
X379898Y100331D01*
Y101998D01*
X379065Y102831D01*
X378232D01*
X377399Y101998D01*
Y101164D01*
Y101998D01*
X376566Y102831D01*
X375733D01*
X374900Y101998D01*
Y100331D01*
X375733Y99498D01*
X379065Y104497D02*
X379898Y105330D01*
Y106996D01*
X379065Y107829D01*
X375733D01*
X374900Y106996D01*
Y105330D01*
X375733Y104497D01*
X379065D01*
X301400Y74900D02*
X306398D01*
Y77399D01*
X305565Y78232D01*
X303899D01*
X303066Y77399D01*
Y74900D01*
Y76566D02*
X301400Y78232D01*
Y83231D02*
Y79898D01*
X304732Y83231D01*
X305565D01*
X306398Y82398D01*
Y80731D01*
X305565Y79898D01*
X302233Y84897D02*
X301400Y85730D01*
Y87396D01*
X302233Y88229D01*
X305565D01*
X306398Y87396D01*
Y85730D01*
X305565Y84897D01*
X304732D01*
X303899Y85730D01*
Y88229D01*
X301700Y47600D02*
X306698D01*
Y50099D01*
X305865Y50932D01*
X304199D01*
X303366Y50099D01*
Y47600D01*
Y49266D02*
X301700Y50932D01*
Y55931D02*
Y52598D01*
X305032Y55931D01*
X305865D01*
X306698Y55098D01*
Y53431D01*
X305865Y52598D01*
Y57597D02*
X306698Y58430D01*
Y60096D01*
X305865Y60929D01*
X305032D01*
X304199Y60096D01*
X303366Y60929D01*
X302533D01*
X301700Y60096D01*
Y58430D01*
X302533Y57597D01*
X303366D01*
X304199Y58430D01*
X305032Y57597D01*
X305865D01*
X304199Y58430D02*
Y60096D01*
X301000Y123300D02*
X305998D01*
Y125799D01*
X305165Y126632D01*
X303499D01*
X302666Y125799D01*
Y123300D01*
Y124966D02*
X301000Y126632D01*
Y131631D02*
Y128298D01*
X304332Y131631D01*
X305165D01*
X305998Y130798D01*
Y129131D01*
X305165Y128298D01*
X305998Y133297D02*
Y136629D01*
X305165D01*
X301833Y133297D01*
X301000D01*
X301400Y96600D02*
X306398D01*
Y99099D01*
X305565Y99932D01*
X303899D01*
X303066Y99099D01*
Y96600D01*
Y98266D02*
X301400Y99932D01*
Y104931D02*
Y101598D01*
X304732Y104931D01*
X305565D01*
X306398Y104098D01*
Y102431D01*
X305565Y101598D01*
X306398Y109929D02*
X305565Y108263D01*
X303899Y106597D01*
X302233D01*
X301400Y107430D01*
Y109096D01*
X302233Y109929D01*
X303066D01*
X303899Y109096D01*
Y106597D01*
X235400Y74000D02*
X240398D01*
Y76499D01*
X239565Y77332D01*
X237899D01*
X237066Y76499D01*
Y74000D01*
Y75666D02*
X235400Y77332D01*
Y82331D02*
Y78998D01*
X238732Y82331D01*
X239565D01*
X240398Y81498D01*
Y79831D01*
X239565Y78998D01*
X240398Y87329D02*
Y83997D01*
X237899D01*
X238732Y85663D01*
Y86496D01*
X237899Y87329D01*
X236233D01*
X235400Y86496D01*
Y84830D01*
X236233Y83997D01*
X235200Y51200D02*
X240198D01*
Y53699D01*
X239365Y54532D01*
X237699D01*
X236866Y53699D01*
Y51200D01*
Y52866D02*
X235200Y54532D01*
Y59531D02*
Y56198D01*
X238532Y59531D01*
X239365D01*
X240198Y58698D01*
Y57031D01*
X239365Y56198D01*
X235200Y63696D02*
X240198D01*
X237699Y61197D01*
Y64529D01*
X237200Y120700D02*
X242198D01*
Y123199D01*
X241365Y124032D01*
X239699D01*
X238866Y123199D01*
Y120700D01*
Y122366D02*
X237200Y124032D01*
Y129031D02*
Y125698D01*
X240532Y129031D01*
X241365D01*
X242198Y128198D01*
Y126531D01*
X241365Y125698D01*
Y130697D02*
X242198Y131530D01*
Y133196D01*
X241365Y134029D01*
X240532D01*
X239699Y133196D01*
Y132363D01*
Y133196D01*
X238866Y134029D01*
X238033D01*
X237200Y133196D01*
Y131530D01*
X238033Y130697D01*
X235400Y96900D02*
X240398D01*
Y99399D01*
X239565Y100232D01*
X237899D01*
X237066Y99399D01*
Y96900D01*
Y98566D02*
X235400Y100232D01*
Y105231D02*
Y101898D01*
X238732Y105231D01*
X239565D01*
X240398Y104398D01*
Y102731D01*
X239565Y101898D01*
X235400Y110229D02*
Y106897D01*
X238732Y110229D01*
X239565D01*
X240398Y109396D01*
Y107730D01*
X239565Y106897D01*
X314500Y74900D02*
X319498D01*
Y77399D01*
X318665Y78232D01*
X316999D01*
X316166Y77399D01*
Y74900D01*
Y76566D02*
X314500Y78232D01*
Y83231D02*
Y79898D01*
X317832Y83231D01*
X318665D01*
X319498Y82398D01*
Y80731D01*
X318665Y79898D01*
X314500Y84897D02*
Y86563D01*
Y85730D01*
X319498D01*
X318665Y84897D01*
X314700Y47600D02*
X319698D01*
Y50099D01*
X318865Y50932D01*
X317199D01*
X316366Y50099D01*
Y47600D01*
Y49266D02*
X314700Y50932D01*
Y55931D02*
Y52598D01*
X318032Y55931D01*
X318865D01*
X319698Y55098D01*
Y53431D01*
X318865Y52598D01*
Y57597D02*
X319698Y58430D01*
Y60096D01*
X318865Y60929D01*
X315533D01*
X314700Y60096D01*
Y58430D01*
X315533Y57597D01*
X318865D01*
X314500Y122500D02*
X319498D01*
Y124999D01*
X318665Y125832D01*
X316999D01*
X316166Y124999D01*
Y122500D01*
Y124166D02*
X314500Y125832D01*
Y127498D02*
Y129165D01*
Y128331D01*
X319498D01*
X318665Y127498D01*
X315333Y131664D02*
X314500Y132497D01*
Y134163D01*
X315333Y134996D01*
X318665D01*
X319498Y134163D01*
Y132497D01*
X318665Y131664D01*
X317832D01*
X316999Y132497D01*
Y134996D01*
X314500Y96400D02*
X319498D01*
Y98899D01*
X318665Y99732D01*
X316999D01*
X316166Y98899D01*
Y96400D01*
Y98066D02*
X314500Y99732D01*
Y101398D02*
Y103065D01*
Y102231D01*
X319498D01*
X318665Y101398D01*
Y105564D02*
X319498Y106397D01*
Y108063D01*
X318665Y108896D01*
X317832D01*
X316999Y108063D01*
X316166Y108896D01*
X315333D01*
X314500Y108063D01*
Y106397D01*
X315333Y105564D01*
X316166D01*
X316999Y106397D01*
X317832Y105564D01*
X318665D01*
X316999Y106397D02*
Y108063D01*
X251800Y74400D02*
X256798D01*
Y76899D01*
X255965Y77732D01*
X254299D01*
X253466Y76899D01*
Y74400D01*
Y76066D02*
X251800Y77732D01*
Y79398D02*
Y81064D01*
Y80231D01*
X256798D01*
X255965Y79398D01*
X256798Y83564D02*
Y86896D01*
X255965D01*
X252633Y83564D01*
X251800D01*
X251400Y50400D02*
X256398D01*
Y52899D01*
X255565Y53732D01*
X253899D01*
X253066Y52899D01*
Y50400D01*
Y52066D02*
X251400Y53732D01*
Y55398D02*
Y57064D01*
Y56231D01*
X256398D01*
X255565Y55398D01*
X256398Y62896D02*
X255565Y61230D01*
X253899Y59564D01*
X252233D01*
X251400Y60397D01*
Y62063D01*
X252233Y62896D01*
X253066D01*
X253899Y62063D01*
Y59564D01*
X252700Y120500D02*
X257698D01*
Y122999D01*
X256865Y123832D01*
X255199D01*
X254366Y122999D01*
Y120500D01*
Y122166D02*
X252700Y123832D01*
Y125498D02*
Y127164D01*
Y126331D01*
X257698D01*
X256865Y125498D01*
X257698Y132996D02*
Y129664D01*
X255199D01*
X256032Y131330D01*
Y132163D01*
X255199Y132996D01*
X253533D01*
X252700Y132163D01*
Y130497D01*
X253533Y129664D01*
X251600Y97100D02*
X256598D01*
Y99599D01*
X255765Y100432D01*
X254099D01*
X253266Y99599D01*
Y97100D01*
Y98766D02*
X251600Y100432D01*
Y102098D02*
Y103764D01*
Y102931D01*
X256598D01*
X255765Y102098D01*
X251600Y108763D02*
X256598D01*
X254099Y106264D01*
Y109596D01*
X22800Y99000D02*
X27798D01*
Y101499D01*
X26965Y102332D01*
X25299D01*
X24466Y101499D01*
Y99000D01*
Y100666D02*
X22800Y102332D01*
Y103998D02*
Y105665D01*
Y104831D01*
X27798D01*
X26965Y103998D01*
Y108164D02*
X27798Y108997D01*
Y110663D01*
X26965Y111496D01*
X26132D01*
X25299Y110663D01*
Y109830D01*
Y110663D01*
X24466Y111496D01*
X23633D01*
X22800Y110663D01*
Y108997D01*
X23633Y108164D01*
X527600Y10779D02*
Y15777D01*
X525101D01*
X524268Y14944D01*
Y13278D01*
X525101Y12445D01*
X527600D01*
X525934D02*
X524268Y10779D01*
X522602D02*
X520935D01*
X521769D01*
Y15777D01*
X522602Y14944D01*
X515104Y10779D02*
X518436D01*
X515104Y14111D01*
Y14944D01*
X515937Y15777D01*
X517603D01*
X518436Y14944D01*
X560000Y10579D02*
Y15577D01*
X557501D01*
X556668Y14744D01*
Y13078D01*
X557501Y12245D01*
X560000D01*
X558334D02*
X556668Y10579D01*
X555002D02*
X553336D01*
X554169D01*
Y15577D01*
X555002Y14744D01*
X550836Y10579D02*
X549170D01*
X550003D01*
Y15577D01*
X550836Y14744D01*
X593200Y10979D02*
Y15977D01*
X590701D01*
X589868Y15144D01*
Y13478D01*
X590701Y12645D01*
X593200D01*
X591534D02*
X589868Y10979D01*
X588202D02*
X586536D01*
X587369D01*
Y15977D01*
X588202Y15144D01*
X584036D02*
X583203Y15977D01*
X581537D01*
X580704Y15144D01*
Y11812D01*
X581537Y10979D01*
X583203D01*
X584036Y11812D01*
Y15144D01*
X625600Y11379D02*
Y16377D01*
X623101D01*
X622268Y15544D01*
Y13878D01*
X623101Y13045D01*
X625600D01*
X623934D02*
X622268Y11379D01*
X620602Y12212D02*
X619769Y11379D01*
X618102D01*
X617269Y12212D01*
Y15544D01*
X618102Y16377D01*
X619769D01*
X620602Y15544D01*
Y14711D01*
X619769Y13878D01*
X617269D01*
X491000Y29100D02*
Y34098D01*
X488501D01*
X487668Y33265D01*
Y31599D01*
X488501Y30766D01*
X491000D01*
X489334D02*
X487668Y29100D01*
X486002Y33265D02*
X485169Y34098D01*
X483502D01*
X482669Y33265D01*
Y32432D01*
X483502Y31599D01*
X482669Y30766D01*
Y29933D01*
X483502Y29100D01*
X485169D01*
X486002Y29933D01*
Y30766D01*
X485169Y31599D01*
X486002Y32432D01*
Y33265D01*
X485169Y31599D02*
X483502D01*
X529300Y38200D02*
X534298D01*
Y40699D01*
X533465Y41532D01*
X531799D01*
X530966Y40699D01*
Y38200D01*
Y39866D02*
X529300Y41532D01*
X534298Y43198D02*
Y46531D01*
X533465D01*
X530133Y43198D01*
X529300D01*
X561900Y38000D02*
X566898D01*
Y40499D01*
X566065Y41332D01*
X564399D01*
X563566Y40499D01*
Y38000D01*
Y39666D02*
X561900Y41332D01*
X566898Y46331D02*
X566065Y44664D01*
X564399Y42998D01*
X562733D01*
X561900Y43831D01*
Y45498D01*
X562733Y46331D01*
X563566D01*
X564399Y45498D01*
Y42998D01*
X595900Y38400D02*
X600898D01*
Y40899D01*
X600065Y41732D01*
X598399D01*
X597566Y40899D01*
Y38400D01*
Y40066D02*
X595900Y41732D01*
X600898Y46731D02*
Y43398D01*
X598399D01*
X599232Y45064D01*
Y45898D01*
X598399Y46731D01*
X596733D01*
X595900Y45898D01*
Y44231D01*
X596733Y43398D01*
X625200Y38300D02*
X630198D01*
Y40799D01*
X629365Y41632D01*
X627699D01*
X626866Y40799D01*
Y38300D01*
Y39966D02*
X625200Y41632D01*
Y45798D02*
X630198D01*
X627699Y43298D01*
Y46631D01*
X497900Y38600D02*
X502898D01*
Y41099D01*
X502065Y41932D01*
X500399D01*
X499566Y41099D01*
Y38600D01*
Y40266D02*
X497900Y41932D01*
X502065Y43598D02*
X502898Y44431D01*
Y46098D01*
X502065Y46931D01*
X501232D01*
X500399Y46098D01*
Y45265D01*
Y46098D01*
X499566Y46931D01*
X498733D01*
X497900Y46098D01*
Y44431D01*
X498733Y43598D01*
X32900Y32300D02*
X37898D01*
Y34799D01*
X37065Y35632D01*
X35399D01*
X34566Y34799D01*
Y32300D01*
Y33966D02*
X32900Y35632D01*
Y40631D02*
Y37298D01*
X36232Y40631D01*
X37065D01*
X37898Y39798D01*
Y38131D01*
X37065Y37298D01*
X57800Y77500D02*
X62798D01*
Y79999D01*
X61965Y80832D01*
X60299D01*
X59466Y79999D01*
Y77500D01*
Y79166D02*
X57800Y80832D01*
Y82498D02*
Y84165D01*
Y83331D01*
X62798D01*
X61965Y82498D01*
X430033Y77732D02*
X433365D01*
X434198Y76899D01*
Y75233D01*
X433365Y74400D01*
X430033D01*
X429200Y75233D01*
Y76899D01*
X430866Y76066D02*
X429200Y77732D01*
Y76899D02*
X430033Y77732D01*
X429200Y82731D02*
Y79398D01*
X432532Y82731D01*
X433365D01*
X434198Y81898D01*
Y80231D01*
X433365Y79398D01*
X429200Y84397D02*
Y86063D01*
Y85230D01*
X434198D01*
X433365Y84397D01*
X429533Y49832D02*
X432865D01*
X433698Y48999D01*
Y47333D01*
X432865Y46500D01*
X429533D01*
X428700Y47333D01*
Y48999D01*
X430366Y48166D02*
X428700Y49832D01*
Y48999D02*
X429533Y49832D01*
X428700Y54831D02*
Y51498D01*
X432032Y54831D01*
X432865D01*
X433698Y53998D01*
Y52331D01*
X432865Y51498D01*
Y56497D02*
X433698Y57330D01*
Y58996D01*
X432865Y59829D01*
X429533D01*
X428700Y58996D01*
Y57330D01*
X429533Y56497D01*
X432865D01*
X429733Y125032D02*
X433065D01*
X433898Y124199D01*
Y122533D01*
X433065Y121700D01*
X429733D01*
X428900Y122533D01*
Y124199D01*
X430566Y123366D02*
X428900Y125032D01*
Y124199D02*
X429733Y125032D01*
X428900Y126698D02*
Y128365D01*
Y127531D01*
X433898D01*
X433065Y126698D01*
X429733Y130864D02*
X428900Y131697D01*
Y133363D01*
X429733Y134196D01*
X433065D01*
X433898Y133363D01*
Y131697D01*
X433065Y130864D01*
X432232D01*
X431399Y131697D01*
Y134196D01*
X429833Y98032D02*
X433165D01*
X433998Y97199D01*
Y95533D01*
X433165Y94700D01*
X429833D01*
X429000Y95533D01*
Y97199D01*
X430666Y96366D02*
X429000Y98032D01*
Y97199D02*
X429833Y98032D01*
X429000Y99698D02*
Y101365D01*
Y100531D01*
X433998D01*
X433165Y99698D01*
Y103864D02*
X433998Y104697D01*
Y106363D01*
X433165Y107196D01*
X432332D01*
X431499Y106363D01*
X430666Y107196D01*
X429833D01*
X429000Y106363D01*
Y104697D01*
X429833Y103864D01*
X430666D01*
X431499Y104697D01*
X432332Y103864D01*
X433165D01*
X431499Y104697D02*
Y106363D01*
X369433Y77932D02*
X372765D01*
X373598Y77099D01*
Y75433D01*
X372765Y74600D01*
X369433D01*
X368600Y75433D01*
Y77099D01*
X370266Y76266D02*
X368600Y77932D01*
Y77099D02*
X369433Y77932D01*
X368600Y79598D02*
Y81265D01*
Y80431D01*
X373598D01*
X372765Y79598D01*
X373598Y83764D02*
Y87096D01*
X372765D01*
X369433Y83764D01*
X368600D01*
X369433Y51432D02*
X372765D01*
X373598Y50599D01*
Y48933D01*
X372765Y48100D01*
X369433D01*
X368600Y48933D01*
Y50599D01*
X370266Y49766D02*
X368600Y51432D01*
Y50599D02*
X369433Y51432D01*
X368600Y53098D02*
Y54764D01*
Y53931D01*
X373598D01*
X372765Y53098D01*
X373598Y60596D02*
X372765Y58930D01*
X371099Y57264D01*
X369433D01*
X368600Y58097D01*
Y59763D01*
X369433Y60596D01*
X370266D01*
X371099Y59763D01*
Y57264D01*
X369533Y124332D02*
X372865D01*
X373698Y123499D01*
Y121833D01*
X372865Y121000D01*
X369533D01*
X368700Y121833D01*
Y123499D01*
X370366Y122666D02*
X368700Y124332D01*
Y123499D02*
X369533Y124332D01*
X368700Y125998D02*
Y127664D01*
Y126831D01*
X373698D01*
X372865Y125998D01*
X373698Y133496D02*
Y130164D01*
X371199D01*
X372032Y131830D01*
Y132663D01*
X371199Y133496D01*
X369533D01*
X368700Y132663D01*
Y130997D01*
X369533Y130164D01*
X369233Y97732D02*
X372565D01*
X373398Y96899D01*
Y95233D01*
X372565Y94400D01*
X369233D01*
X368400Y95233D01*
Y96899D01*
X370066Y96066D02*
X368400Y97732D01*
Y96899D02*
X369233Y97732D01*
X368400Y99398D02*
Y101065D01*
Y100231D01*
X373398D01*
X372565Y99398D01*
X368400Y106063D02*
X373398D01*
X370899Y103564D01*
Y106896D01*
X308633Y77732D02*
X311965D01*
X312798Y76899D01*
Y75233D01*
X311965Y74400D01*
X308633D01*
X307800Y75233D01*
Y76899D01*
X309466Y76066D02*
X307800Y77732D01*
Y76899D02*
X308633Y77732D01*
X307800Y79398D02*
Y81064D01*
Y80231D01*
X312798D01*
X311965Y79398D01*
Y83564D02*
X312798Y84397D01*
Y86063D01*
X311965Y86896D01*
X311132D01*
X310299Y86063D01*
Y85230D01*
Y86063D01*
X309466Y86896D01*
X308633D01*
X307800Y86063D01*
Y84397D01*
X308633Y83564D01*
X308833Y51032D02*
X312165D01*
X312998Y50199D01*
Y48533D01*
X312165Y47700D01*
X308833D01*
X308000Y48533D01*
Y50199D01*
X309666Y49366D02*
X308000Y51032D01*
Y50199D02*
X308833Y51032D01*
X308000Y52698D02*
Y54365D01*
Y53531D01*
X312998D01*
X312165Y52698D01*
X308000Y60196D02*
Y56864D01*
X311332Y60196D01*
X312165D01*
X312998Y59363D01*
Y57697D01*
X312165Y56864D01*
X308533Y126432D02*
X311865D01*
X312698Y125599D01*
Y123933D01*
X311865Y123100D01*
X308533D01*
X307700Y123933D01*
Y125599D01*
X309366Y124766D02*
X307700Y126432D01*
Y125599D02*
X308533Y126432D01*
X307700Y128098D02*
Y129764D01*
Y128931D01*
X312698D01*
X311865Y128098D01*
X307700Y132264D02*
Y133930D01*
Y133097D01*
X312698D01*
X311865Y132264D01*
X308833Y99732D02*
X312165D01*
X312998Y98899D01*
Y97233D01*
X312165Y96400D01*
X308833D01*
X308000Y97233D01*
Y98899D01*
X309666Y98066D02*
X308000Y99732D01*
Y98899D02*
X308833Y99732D01*
X308000Y101398D02*
Y103065D01*
Y102231D01*
X312998D01*
X312165Y101398D01*
Y105564D02*
X312998Y106397D01*
Y108063D01*
X312165Y108896D01*
X308833D01*
X308000Y108063D01*
Y106397D01*
X308833Y105564D01*
X312165D01*
X244133Y77332D02*
X247465D01*
X248298Y76499D01*
Y74833D01*
X247465Y74000D01*
X244133D01*
X243300Y74833D01*
Y76499D01*
X244966Y75666D02*
X243300Y77332D01*
Y76499D02*
X244133Y77332D01*
Y78998D02*
X243300Y79831D01*
Y81498D01*
X244133Y82331D01*
X247465D01*
X248298Y81498D01*
Y79831D01*
X247465Y78998D01*
X246632D01*
X245799Y79831D01*
Y82331D01*
X244533Y54132D02*
X247865D01*
X248698Y53299D01*
Y51633D01*
X247865Y50800D01*
X244533D01*
X243700Y51633D01*
Y53299D01*
X245366Y52466D02*
X243700Y54132D01*
Y53299D02*
X244533Y54132D01*
X247865Y55798D02*
X248698Y56631D01*
Y58298D01*
X247865Y59131D01*
X247032D01*
X246199Y58298D01*
X245366Y59131D01*
X244533D01*
X243700Y58298D01*
Y56631D01*
X244533Y55798D01*
X245366D01*
X246199Y56631D01*
X247032Y55798D01*
X247865D01*
X246199Y56631D02*
Y58298D01*
X245633Y123832D02*
X248965D01*
X249798Y122999D01*
Y121333D01*
X248965Y120500D01*
X245633D01*
X244800Y121333D01*
Y122999D01*
X246466Y122166D02*
X244800Y123832D01*
Y122999D02*
X245633Y123832D01*
X249798Y125498D02*
Y128831D01*
X248965D01*
X245633Y125498D01*
X244800D01*
X244333Y99932D02*
X247665D01*
X248498Y99099D01*
Y97433D01*
X247665Y96600D01*
X244333D01*
X243500Y97433D01*
Y99099D01*
X245166Y98266D02*
X243500Y99932D01*
Y99099D02*
X244333Y99932D01*
X248498Y104931D02*
X247665Y103264D01*
X245999Y101598D01*
X244333D01*
X243500Y102431D01*
Y104098D01*
X244333Y104931D01*
X245166D01*
X245999Y104098D01*
Y101598D01*
X539768Y12333D02*
Y15665D01*
X540601Y16498D01*
X542267D01*
X543100Y15665D01*
Y12333D01*
X542267Y11500D01*
X540601D01*
X541434Y13166D02*
X539768Y11500D01*
X540601D02*
X539768Y12333D01*
X534769Y16498D02*
X538102D01*
Y13999D01*
X536436Y14832D01*
X535602D01*
X534769Y13999D01*
Y12333D01*
X535602Y11500D01*
X537269D01*
X538102Y12333D01*
X570868Y13433D02*
Y16765D01*
X571701Y17598D01*
X573367D01*
X574200Y16765D01*
Y13433D01*
X573367Y12600D01*
X571701D01*
X572534Y14266D02*
X570868Y12600D01*
X571701D02*
X570868Y13433D01*
X566702Y12600D02*
Y17598D01*
X569202Y15099D01*
X565869D01*
X604368Y14333D02*
Y17665D01*
X605201Y18498D01*
X606867D01*
X607700Y17665D01*
Y14333D01*
X606867Y13500D01*
X605201D01*
X606034Y15166D02*
X604368Y13500D01*
X605201D02*
X604368Y14333D01*
X602702Y17665D02*
X601869Y18498D01*
X600202D01*
X599369Y17665D01*
Y16832D01*
X600202Y15999D01*
X601035D01*
X600202D01*
X599369Y15166D01*
Y14333D01*
X600202Y13500D01*
X601869D01*
X602702Y14333D01*
X638068Y14133D02*
Y17465D01*
X638901Y18298D01*
X640567D01*
X641400Y17465D01*
Y14133D01*
X640567Y13300D01*
X638901D01*
X639734Y14966D02*
X638068Y13300D01*
X638901D02*
X638068Y14133D01*
X633069Y13300D02*
X636402D01*
X633069Y16632D01*
Y17465D01*
X633902Y18298D01*
X635569D01*
X636402Y17465D01*
X503168Y13233D02*
Y16565D01*
X504001Y17398D01*
X505667D01*
X506500Y16565D01*
Y13233D01*
X505667Y12400D01*
X504001D01*
X504834Y14066D02*
X503168Y12400D01*
X504001D02*
X503168Y13233D01*
X501502Y12400D02*
X499835D01*
X500669D01*
Y17398D01*
X501502Y16565D01*
X607765Y123832D02*
X608598Y122999D01*
Y121333D01*
X607765Y120500D01*
X604433D01*
X603600Y121333D01*
Y122999D01*
X604433Y123832D01*
X603600Y125498D02*
X608598D01*
X603600Y128831D01*
X608598D01*
X603600Y130497D02*
Y132163D01*
Y131330D01*
X608598D01*
X607765Y130497D01*
Y134662D02*
X608598Y135495D01*
Y137161D01*
X607765Y137994D01*
X604433D01*
X603600Y137161D01*
Y135495D01*
X604433Y134662D01*
X607765D01*
X683565Y103332D02*
X684398Y102499D01*
Y100833D01*
X683565Y100000D01*
X680233D01*
X679400Y100833D01*
Y102499D01*
X680233Y103332D01*
X679400Y104998D02*
X684398D01*
X679400Y108331D01*
X684398D01*
X680233Y109997D02*
X679400Y110830D01*
Y112496D01*
X680233Y113329D01*
X683565D01*
X684398Y112496D01*
Y110830D01*
X683565Y109997D01*
X682732D01*
X681899Y110830D01*
Y113329D01*
X547265Y126632D02*
X548098Y125799D01*
Y124133D01*
X547265Y123300D01*
X543933D01*
X543100Y124133D01*
Y125799D01*
X543933Y126632D01*
X543100Y128298D02*
X548098D01*
X543100Y131631D01*
X548098D01*
X547265Y133297D02*
X548098Y134130D01*
Y135796D01*
X547265Y136629D01*
X546432D01*
X545599Y135796D01*
X544766Y136629D01*
X543933D01*
X543100Y135796D01*
Y134130D01*
X543933Y133297D01*
X544766D01*
X545599Y134130D01*
X546432Y133297D01*
X547265D01*
X545599Y134130D02*
Y135796D01*
X67468Y14065D02*
X68301Y14898D01*
X69967D01*
X70800Y14065D01*
Y10733D01*
X69967Y9900D01*
X68301D01*
X67468Y10733D01*
X65802Y9900D02*
Y14898D01*
X62469Y9900D01*
Y14898D01*
X60803D02*
X57471D01*
Y14065D01*
X60803Y10733D01*
Y9900D01*
X553465Y61832D02*
X554298Y60999D01*
Y59333D01*
X553465Y58500D01*
X550133D01*
X549300Y59333D01*
Y60999D01*
X550133Y61832D01*
X549300Y63498D02*
X554298D01*
X549300Y66831D01*
X554298D01*
Y71829D02*
Y68497D01*
X551799D01*
X552632Y70163D01*
Y70996D01*
X551799Y71829D01*
X550133D01*
X549300Y70996D01*
Y69330D01*
X550133Y68497D01*
X584465Y61332D02*
X585298Y60499D01*
Y58833D01*
X584465Y58000D01*
X581133D01*
X580300Y58833D01*
Y60499D01*
X581133Y61332D01*
X580300Y62998D02*
X585298D01*
X580300Y66331D01*
X585298D01*
X580300Y70496D02*
X585298D01*
X582799Y67997D01*
Y71329D01*
X619565Y61232D02*
X620398Y60399D01*
Y58733D01*
X619565Y57900D01*
X616233D01*
X615400Y58733D01*
Y60399D01*
X616233Y61232D01*
X615400Y62898D02*
X620398D01*
X615400Y66231D01*
X620398D01*
X619565Y67897D02*
X620398Y68730D01*
Y70396D01*
X619565Y71229D01*
X618732D01*
X617899Y70396D01*
Y69563D01*
Y70396D01*
X617066Y71229D01*
X616233D01*
X615400Y70396D01*
Y68730D01*
X616233Y67897D01*
X658265Y36332D02*
X659098Y35499D01*
Y33833D01*
X658265Y33000D01*
X654933D01*
X654100Y33833D01*
Y35499D01*
X654933Y36332D01*
X654100Y37998D02*
X659098D01*
X654100Y41331D01*
X659098D01*
X654100Y46329D02*
Y42997D01*
X657432Y46329D01*
X658265D01*
X659098Y45496D01*
Y43830D01*
X658265Y42997D01*
X520865Y61732D02*
X521698Y60899D01*
Y59233D01*
X520865Y58400D01*
X517533D01*
X516700Y59233D01*
Y60899D01*
X517533Y61732D01*
X516700Y63398D02*
X521698D01*
X516700Y66731D01*
X521698D01*
X516700Y68397D02*
Y70063D01*
Y69230D01*
X521698D01*
X520865Y68397D01*
X652265Y105232D02*
X653098Y104399D01*
Y102733D01*
X652265Y101900D01*
X648933D01*
X648100Y102733D01*
Y104399D01*
X648933Y105232D01*
X653098Y110231D02*
X652265Y108564D01*
X650599Y106898D01*
X648933D01*
X648100Y107731D01*
Y109398D01*
X648933Y110231D01*
X649766D01*
X650599Y109398D01*
Y106898D01*
X595265Y82632D02*
X596098Y81799D01*
Y80133D01*
X595265Y79300D01*
X591933D01*
X591100Y80133D01*
Y81799D01*
X591933Y82632D01*
X596098Y87631D02*
Y84298D01*
X593599D01*
X594432Y85965D01*
Y86798D01*
X593599Y87631D01*
X591933D01*
X591100Y86798D01*
Y85131D01*
X591933Y84298D01*
X28668Y85565D02*
X29501Y86398D01*
X31167D01*
X32000Y85565D01*
Y82233D01*
X31167Y81400D01*
X29501D01*
X28668Y82233D01*
X24502Y81400D02*
Y86398D01*
X27002Y83899D01*
X23669D01*
X10565Y45232D02*
X11398Y44399D01*
Y42733D01*
X10565Y41900D01*
X7233D01*
X6400Y42733D01*
Y44399D01*
X7233Y45232D01*
X10565Y46898D02*
X11398Y47731D01*
Y49398D01*
X10565Y50231D01*
X9732D01*
X8899Y49398D01*
Y48564D01*
Y49398D01*
X8066Y50231D01*
X7233D01*
X6400Y49398D01*
Y47731D01*
X7233Y46898D01*
X29965Y57732D02*
X30798Y56899D01*
Y55233D01*
X29965Y54400D01*
X26633D01*
X25800Y55233D01*
Y56899D01*
X26633Y57732D01*
X25800Y62731D02*
Y59398D01*
X29132Y62731D01*
X29965D01*
X30798Y61898D01*
Y60231D01*
X29965Y59398D01*
X19268Y47765D02*
X20101Y48598D01*
X21767D01*
X22600Y47765D01*
Y44433D01*
X21767Y43600D01*
X20101D01*
X19268Y44433D01*
X17602Y43600D02*
X15935D01*
X16769D01*
Y48598D01*
X17602Y47765D01*
D38*
X194519Y152761D02*
D03*
X205418Y126661D02*
D03*
X191718Y126361D02*
D03*
X185018Y118861D02*
D03*
X196518Y118561D02*
D03*
X198518Y117461D02*
D03*
X198118Y116661D02*
D03*
X193818Y113961D02*
D03*
X189318Y110861D02*
D03*
X194300Y95650D02*
D03*
D39*
X194519Y152661D02*
D03*
X201818Y140061D02*
D03*
X201918Y139861D02*
D03*
X202018Y139761D02*
D03*
Y139661D02*
D03*
X202118Y139561D02*
D03*
Y139461D02*
D03*
X202218Y139361D02*
D03*
X202318Y139161D02*
D03*
X202418Y139061D02*
D03*
Y138961D02*
D03*
X202518Y138861D02*
D03*
Y138761D02*
D03*
X202618Y138661D02*
D03*
X202718Y138561D02*
D03*
Y138461D02*
D03*
X202818Y138361D02*
D03*
Y138261D02*
D03*
X202918Y138161D02*
D03*
X203018Y137961D02*
D03*
X203118Y137861D02*
D03*
Y137761D02*
D03*
X203218Y137661D02*
D03*
Y137561D02*
D03*
X203318Y137461D02*
D03*
X203418Y137261D02*
D03*
X203518Y137161D02*
D03*
Y137061D02*
D03*
X203618Y136961D02*
D03*
Y136861D02*
D03*
X203718Y136761D02*
D03*
X203818Y136661D02*
D03*
Y136561D02*
D03*
X203918Y136461D02*
D03*
Y136361D02*
D03*
X204018Y136261D02*
D03*
X204118Y136061D02*
D03*
X204218Y135961D02*
D03*
Y135861D02*
D03*
X204318Y135761D02*
D03*
Y135661D02*
D03*
X204418Y135561D02*
D03*
X204518Y135361D02*
D03*
X204618Y135261D02*
D03*
Y135161D02*
D03*
X204718Y135061D02*
D03*
X204818Y134861D02*
D03*
X204918Y134761D02*
D03*
Y134661D02*
D03*
X205018Y134561D02*
D03*
X184018Y134461D02*
D03*
X205018D02*
D03*
X184018Y134361D02*
D03*
X205118D02*
D03*
X183918Y134261D02*
D03*
X183818Y134161D02*
D03*
X205218D02*
D03*
X183818Y134061D02*
D03*
X205318D02*
D03*
X183718Y133961D02*
D03*
X205318D02*
D03*
X183718Y133861D02*
D03*
X205418D02*
D03*
X183618Y133761D02*
D03*
X205418D02*
D03*
X205518Y133661D02*
D03*
X183518Y133561D02*
D03*
X205618D02*
D03*
X183418Y133461D02*
D03*
X205618D02*
D03*
X183418Y133361D02*
D03*
X205718D02*
D03*
X183318Y133261D02*
D03*
X205718D02*
D03*
X183318Y133161D02*
D03*
X205818D02*
D03*
X183218Y133061D02*
D03*
X205918Y132961D02*
D03*
X183118Y132861D02*
D03*
X206018D02*
D03*
X183018Y132761D02*
D03*
X206018D02*
D03*
X183018Y132661D02*
D03*
X206118D02*
D03*
X182918Y132561D02*
D03*
X206118D02*
D03*
X206218Y132461D02*
D03*
X182818Y132361D02*
D03*
X182718Y132261D02*
D03*
X206318D02*
D03*
X182718Y132161D02*
D03*
X206418D02*
D03*
Y132061D02*
D03*
X206518Y131961D02*
D03*
Y131861D02*
D03*
X206618Y131761D02*
D03*
X206718Y131661D02*
D03*
Y131561D02*
D03*
X206818Y131461D02*
D03*
Y131361D02*
D03*
X206918Y131261D02*
D03*
X207018Y131061D02*
D03*
X207118Y130961D02*
D03*
Y130861D02*
D03*
X207218Y130761D02*
D03*
Y130661D02*
D03*
X207318Y130561D02*
D03*
X207418Y130361D02*
D03*
X207518Y130261D02*
D03*
Y130161D02*
D03*
X207618Y130061D02*
D03*
X207718Y129861D02*
D03*
X207818Y129761D02*
D03*
Y129661D02*
D03*
X207918Y129561D02*
D03*
Y129461D02*
D03*
X208018Y129361D02*
D03*
X208118Y129161D02*
D03*
X208218Y129061D02*
D03*
Y128961D02*
D03*
X208318Y128861D02*
D03*
Y128761D02*
D03*
X208418Y128661D02*
D03*
X208518Y128561D02*
D03*
Y128461D02*
D03*
X208618Y128361D02*
D03*
Y128261D02*
D03*
X208718Y128161D02*
D03*
X208818Y127961D02*
D03*
X205418Y126561D02*
D03*
X191718Y126261D02*
D03*
X189618Y125361D02*
D03*
X187418Y125161D02*
D03*
X190318Y119361D02*
D03*
X214118Y118861D02*
D03*
Y118761D02*
D03*
X196518Y118661D02*
D03*
X214218D02*
D03*
X214318Y118561D02*
D03*
Y118461D02*
D03*
X198318Y118361D02*
D03*
X214418D02*
D03*
X198418Y118261D02*
D03*
X214418D02*
D03*
X214518Y118161D02*
D03*
X198518Y117961D02*
D03*
X214618D02*
D03*
X214718Y117861D02*
D03*
X197818Y117761D02*
D03*
X214718D02*
D03*
X197918Y117661D02*
D03*
X214818D02*
D03*
X198018Y117561D02*
D03*
X214818D02*
D03*
X198018Y117461D02*
D03*
X214918D02*
D03*
X198118Y117361D02*
D03*
Y117261D02*
D03*
X215018D02*
D03*
X215118Y117161D02*
D03*
Y117061D02*
D03*
X215218Y116961D02*
D03*
Y116861D02*
D03*
X215318Y116761D02*
D03*
X215418Y116661D02*
D03*
Y116561D02*
D03*
X215518Y116461D02*
D03*
Y116361D02*
D03*
X215618Y116261D02*
D03*
X215718Y116061D02*
D03*
X215818Y115961D02*
D03*
Y115861D02*
D03*
X190718Y115761D02*
D03*
X215918D02*
D03*
Y115661D02*
D03*
X216018Y115561D02*
D03*
X216118Y115461D02*
D03*
Y115361D02*
D03*
X216218Y115261D02*
D03*
Y115161D02*
D03*
X216318Y115061D02*
D03*
X216418Y114861D02*
D03*
X216518Y114761D02*
D03*
Y114661D02*
D03*
X216618Y114561D02*
D03*
Y114461D02*
D03*
X216718Y114361D02*
D03*
X216818Y114161D02*
D03*
X216918Y114061D02*
D03*
Y113961D02*
D03*
X193518Y113661D02*
D03*
X193418Y113561D02*
D03*
X193318Y113461D02*
D03*
X193218Y113261D02*
D03*
X191818Y113161D02*
D03*
X193118D02*
D03*
X191818Y113061D02*
D03*
X193018D02*
D03*
X191818Y112961D02*
D03*
X193018D02*
D03*
X192918Y112861D02*
D03*
X192818Y112761D02*
D03*
X191718Y112661D02*
D03*
X192818D02*
D03*
X192718Y112561D02*
D03*
X191618Y112461D02*
D03*
X192618D02*
D03*
X191518Y112361D02*
D03*
X192618D02*
D03*
X192518Y112261D02*
D03*
X196218Y112161D02*
D03*
X192418Y112061D02*
D03*
X192318Y111961D02*
D03*
Y111861D02*
D03*
X192218Y111761D02*
D03*
X196218D02*
D03*
X196118Y111561D02*
D03*
Y111461D02*
D03*
X192218Y111361D02*
D03*
X196018D02*
D03*
Y111261D02*
D03*
X192318Y111061D02*
D03*
X195918D02*
D03*
X189318Y110961D02*
D03*
X192418D02*
D03*
X195818D02*
D03*
Y110861D02*
D03*
X195718Y110761D02*
D03*
Y110661D02*
D03*
X195618Y110561D02*
D03*
X195518Y110461D02*
D03*
Y110361D02*
D03*
X195418Y110261D02*
D03*
X195318Y110161D02*
D03*
X194300Y95450D02*
D03*
D40*
X194469Y152561D02*
D03*
X182568Y132061D02*
D03*
Y131961D02*
D03*
X205668Y126161D02*
D03*
X193168Y125561D02*
D03*
X190368Y119261D02*
D03*
X213968Y118961D02*
D03*
X198068Y118661D02*
D03*
X198168Y118561D02*
D03*
X198268Y118461D02*
D03*
X196268Y117961D02*
D03*
X191868Y113461D02*
D03*
Y113361D02*
D03*
X193268D02*
D03*
X186068Y113261D02*
D03*
X191868D02*
D03*
X195668Y112661D02*
D03*
X196068Y112361D02*
D03*
X196168Y112261D02*
D03*
X192468Y110861D02*
D03*
X186068Y110761D02*
D03*
X192568D02*
D03*
X192668Y110661D02*
D03*
X192768Y110561D02*
D03*
X192868Y110461D02*
D03*
X195268Y110061D02*
D03*
X195168Y109961D02*
D03*
X195068Y109861D02*
D03*
X194350Y95350D02*
D03*
D41*
X194519Y152461D02*
D03*
X208818Y127861D02*
D03*
X205518Y126461D02*
D03*
Y126361D02*
D03*
X205618Y126261D02*
D03*
X190318Y119161D02*
D03*
X196718Y118761D02*
D03*
X197618Y117961D02*
D03*
X197718Y117861D02*
D03*
X193818Y113861D02*
D03*
X191918Y113661D02*
D03*
X194118D02*
D03*
X191918Y113561D02*
D03*
X194318D02*
D03*
X194618Y113361D02*
D03*
X194918Y113161D02*
D03*
X195118Y113061D02*
D03*
X195218Y112961D02*
D03*
X195418Y112861D02*
D03*
X190618Y112761D02*
D03*
X195518D02*
D03*
X195818Y112561D02*
D03*
X195918Y112461D02*
D03*
X191418Y112261D02*
D03*
X189318Y111061D02*
D03*
X186718Y110361D02*
D03*
X193018D02*
D03*
X193118Y110261D02*
D03*
X187018Y110161D02*
D03*
X193318D02*
D03*
X187318Y109961D02*
D03*
X187618Y109761D02*
D03*
X187718Y109661D02*
D03*
X187918Y109561D02*
D03*
X188018Y109461D02*
D03*
X194300Y95250D02*
D03*
D42*
X194469Y152361D02*
D03*
X188168Y132661D02*
D03*
X188368Y132561D02*
D03*
X188568Y132461D02*
D03*
X188868Y132261D02*
D03*
X189068Y132161D02*
D03*
X189268Y132061D02*
D03*
X189468Y131961D02*
D03*
X182568Y131861D02*
D03*
X189668D02*
D03*
X189868Y131761D02*
D03*
X190068Y131661D02*
D03*
X190268Y131561D02*
D03*
X190468Y131461D02*
D03*
X190768Y131261D02*
D03*
X190968Y131161D02*
D03*
X191168Y131061D02*
D03*
X191368Y130961D02*
D03*
X191568Y130861D02*
D03*
X191768Y130761D02*
D03*
X184768Y130661D02*
D03*
X191968D02*
D03*
X184968Y130561D02*
D03*
X192168D02*
D03*
X185168Y130461D02*
D03*
X185368Y130361D02*
D03*
X185568Y130261D02*
D03*
X192668D02*
D03*
X185768Y130161D02*
D03*
X192868D02*
D03*
X185968Y130061D02*
D03*
X193068D02*
D03*
X193268Y129961D02*
D03*
X186268Y129861D02*
D03*
X193468D02*
D03*
X186468Y129761D02*
D03*
X193668D02*
D03*
X186668Y129661D02*
D03*
X193868D02*
D03*
X186868Y129561D02*
D03*
X194068D02*
D03*
X187068Y129461D02*
D03*
X187268Y129361D02*
D03*
X187468Y129261D02*
D03*
X194568D02*
D03*
X187668Y129161D02*
D03*
X194768D02*
D03*
X194968Y129061D02*
D03*
X187968Y128961D02*
D03*
X195168D02*
D03*
X188168Y128861D02*
D03*
X195368D02*
D03*
X188368Y128761D02*
D03*
X195568D02*
D03*
X188568Y128661D02*
D03*
X195768D02*
D03*
X188768Y128561D02*
D03*
X195968D02*
D03*
X188968Y128461D02*
D03*
X189168Y128361D02*
D03*
X196468Y128261D02*
D03*
X189468Y128161D02*
D03*
X196668D02*
D03*
X189668Y128061D02*
D03*
X196868D02*
D03*
X189868Y127961D02*
D03*
X197068D02*
D03*
X190068Y127861D02*
D03*
X197268D02*
D03*
X190268Y127761D02*
D03*
X197468D02*
D03*
X190468Y127661D02*
D03*
X197668D02*
D03*
X190668Y127561D02*
D03*
X197868D02*
D03*
X190968Y127361D02*
D03*
X191168Y127261D02*
D03*
X198368D02*
D03*
X191368Y127161D02*
D03*
X198568D02*
D03*
X191568Y127061D02*
D03*
X198768D02*
D03*
X191768Y126961D02*
D03*
X198968D02*
D03*
X191968Y126861D02*
D03*
X199168D02*
D03*
X192168Y126761D02*
D03*
X199368D02*
D03*
X192368Y126661D02*
D03*
X199568D02*
D03*
X199768Y126561D02*
D03*
X192668Y126461D02*
D03*
X192868Y126361D02*
D03*
X193068Y126261D02*
D03*
X200268D02*
D03*
X193268Y126161D02*
D03*
X200468D02*
D03*
X193468Y126061D02*
D03*
X200668D02*
D03*
X193668Y125961D02*
D03*
X200868D02*
D03*
X193868Y125861D02*
D03*
X201068D02*
D03*
X201268Y125761D02*
D03*
X194168Y125661D02*
D03*
X201468D02*
D03*
X194368Y125561D02*
D03*
X201668D02*
D03*
X194568Y125461D02*
D03*
X194768Y125361D02*
D03*
X202168Y125261D02*
D03*
X202368Y125161D02*
D03*
X202568Y125061D02*
D03*
X202768Y124961D02*
D03*
X202968Y124861D02*
D03*
X203168Y124761D02*
D03*
X203368Y124661D02*
D03*
X196268Y124561D02*
D03*
X203568D02*
D03*
X196468Y124461D02*
D03*
X196668Y124361D02*
D03*
X196868Y124261D02*
D03*
X204068D02*
D03*
X204268Y124161D02*
D03*
X204468Y124061D02*
D03*
X197368Y123961D02*
D03*
X204668D02*
D03*
X197568Y123861D02*
D03*
X197768Y123761D02*
D03*
X197968Y123661D02*
D03*
X198168Y123561D02*
D03*
X198368Y123461D02*
D03*
X198568Y123361D02*
D03*
X198868Y123161D02*
D03*
X199068Y123061D02*
D03*
X199268Y122961D02*
D03*
X199468Y122861D02*
D03*
X199668Y122761D02*
D03*
X199868Y122661D02*
D03*
X200068Y122561D02*
D03*
X200368Y122361D02*
D03*
X200568Y122261D02*
D03*
X200768Y122161D02*
D03*
X200968Y122061D02*
D03*
X201168Y121961D02*
D03*
X201368Y121861D02*
D03*
X201568Y121761D02*
D03*
X202068Y121461D02*
D03*
X202268Y121361D02*
D03*
X202468Y121261D02*
D03*
X202668Y121161D02*
D03*
X202868Y121061D02*
D03*
X203068Y120961D02*
D03*
X203268Y120861D02*
D03*
X190368Y119061D02*
D03*
X213868D02*
D03*
X190368Y118861D02*
D03*
X197868Y118761D02*
D03*
X190468Y118661D02*
D03*
X190568Y118461D02*
D03*
Y118361D02*
D03*
X190668Y118161D02*
D03*
Y118061D02*
D03*
X190768Y117761D02*
D03*
X191968Y113861D02*
D03*
Y113761D02*
D03*
X194468Y113461D02*
D03*
X194768Y113261D02*
D03*
X190668Y112861D02*
D03*
X189368Y111161D02*
D03*
X186568Y110461D02*
D03*
X186868Y110261D02*
D03*
X187168Y110061D02*
D03*
X193468D02*
D03*
X193668Y109961D02*
D03*
X187468Y109861D02*
D03*
X194568Y109561D02*
D03*
X194350Y95150D02*
D03*
D43*
X194468Y152261D02*
D03*
X213568Y119261D02*
D03*
X197268Y119061D02*
D03*
X190868Y117361D02*
D03*
X190968Y116961D02*
D03*
Y116861D02*
D03*
Y116761D02*
D03*
Y116661D02*
D03*
Y115961D02*
D03*
X192768Y115861D02*
D03*
Y115761D02*
D03*
X192668Y115561D02*
D03*
X192568Y115461D02*
D03*
X191968Y114061D02*
D03*
X193868Y113761D02*
D03*
X190668Y113061D02*
D03*
X191268Y112161D02*
D03*
X191068Y111761D02*
D03*
Y111661D02*
D03*
Y111561D02*
D03*
X189368Y111361D02*
D03*
X191068Y111261D02*
D03*
Y111161D02*
D03*
X194350Y94950D02*
D03*
D44*
X194518Y152161D02*
D03*
X188118Y132761D02*
D03*
X182618Y131761D02*
D03*
X208718Y127661D02*
D03*
X193318Y125461D02*
D03*
X191018Y116561D02*
D03*
Y116461D02*
D03*
Y116361D02*
D03*
Y116261D02*
D03*
Y116161D02*
D03*
Y116061D02*
D03*
X192818D02*
D03*
Y115961D02*
D03*
X192518Y115361D02*
D03*
X192418Y115261D02*
D03*
X191918Y114161D02*
D03*
X190618Y113361D02*
D03*
X190718Y113161D02*
D03*
X191118Y111961D02*
D03*
Y111861D02*
D03*
X189318Y111561D02*
D03*
Y111461D02*
D03*
X191118Y111061D02*
D03*
X185018Y110361D02*
D03*
X194300Y94850D02*
D03*
D45*
X194468Y152061D02*
D03*
X182668Y131661D02*
D03*
X191768Y126061D02*
D03*
X203468Y120661D02*
D03*
X213468Y119361D02*
D03*
X196868Y118261D02*
D03*
X192868Y116261D02*
D03*
Y116161D02*
D03*
X191968Y114361D02*
D03*
Y114261D02*
D03*
X190568Y113461D02*
D03*
X190668Y113261D02*
D03*
X191068Y112061D02*
D03*
X189168Y111861D02*
D03*
X189268Y111661D02*
D03*
X191068Y110961D02*
D03*
Y110861D02*
D03*
D46*
X194518Y151961D02*
D03*
X208618Y127561D02*
D03*
X189118Y125161D02*
D03*
X213318Y119461D02*
D03*
X188818Y119261D02*
D03*
X188718Y119061D02*
D03*
X192918Y116461D02*
D03*
Y116361D02*
D03*
X192318Y115161D02*
D03*
X190418Y113761D02*
D03*
X190518Y113661D02*
D03*
Y113561D02*
D03*
X189118Y111961D02*
D03*
X189218Y111761D02*
D03*
X186018Y110661D02*
D03*
X185318Y110461D02*
D03*
X194518Y109661D02*
D03*
X194300Y94750D02*
D03*
Y94650D02*
D03*
D47*
X194468Y151861D02*
D03*
X189168Y119861D02*
D03*
X189068Y119661D02*
D03*
X188968Y119561D02*
D03*
Y119461D02*
D03*
X188868Y119361D02*
D03*
X188768Y119161D02*
D03*
X188668Y118961D02*
D03*
X197268D02*
D03*
X192968Y116761D02*
D03*
Y116661D02*
D03*
Y116561D02*
D03*
X192168Y115061D02*
D03*
X191968Y114561D02*
D03*
Y114461D02*
D03*
X190268Y114061D02*
D03*
X190368Y113861D02*
D03*
X188968Y112261D02*
D03*
X189068Y112061D02*
D03*
X191068Y110761D02*
D03*
D48*
X194468Y151761D02*
D03*
X188268Y132861D02*
D03*
X208568Y127361D02*
D03*
X188168Y122861D02*
D03*
X188068Y122661D02*
D03*
X190468Y122461D02*
D03*
X187968Y122361D02*
D03*
X190368Y122261D02*
D03*
X187868Y122161D02*
D03*
X187768Y121961D02*
D03*
X190268D02*
D03*
X187768Y121861D02*
D03*
X190168Y121761D02*
D03*
X187668Y121661D02*
D03*
X190068Y121561D02*
D03*
X187568Y121461D02*
D03*
X189968D02*
D03*
Y121361D02*
D03*
X187468Y121261D02*
D03*
X189868D02*
D03*
Y121161D02*
D03*
X187368Y121061D02*
D03*
X189768Y120961D02*
D03*
X187268Y120861D02*
D03*
X189668Y120761D02*
D03*
X189568Y120561D02*
D03*
X188668Y118761D02*
D03*
X196868Y118161D02*
D03*
X192968Y116961D02*
D03*
Y116861D02*
D03*
X189268Y116061D02*
D03*
Y115961D02*
D03*
Y115861D02*
D03*
Y115761D02*
D03*
X189368Y115461D02*
D03*
X189468Y115261D02*
D03*
X191968Y114761D02*
D03*
Y114661D02*
D03*
X190068Y114261D02*
D03*
X188768Y112561D02*
D03*
X188868Y112461D02*
D03*
X191068Y110561D02*
D03*
X194468Y109761D02*
D03*
D49*
X194518Y151661D02*
D03*
X182818Y131461D02*
D03*
X191618Y125861D02*
D03*
X191518Y125661D02*
D03*
Y125561D02*
D03*
X191418Y125261D02*
D03*
Y125161D02*
D03*
Y125061D02*
D03*
X191318Y124861D02*
D03*
Y124761D02*
D03*
X191218Y124461D02*
D03*
Y124361D02*
D03*
X191118Y124161D02*
D03*
Y124061D02*
D03*
X188518Y123961D02*
D03*
X191018Y123861D02*
D03*
Y123761D02*
D03*
X188418Y123661D02*
D03*
X190918D02*
D03*
X188418Y123561D02*
D03*
X190918D02*
D03*
Y123461D02*
D03*
X188318Y123361D02*
D03*
X190818D02*
D03*
X188318Y123261D02*
D03*
X190818D02*
D03*
X188318Y123161D02*
D03*
X190718D02*
D03*
X188218Y123061D02*
D03*
X190718D02*
D03*
X188218Y122961D02*
D03*
X190718D02*
D03*
X190618Y122861D02*
D03*
X188118Y122761D02*
D03*
X190618D02*
D03*
X190518Y122661D02*
D03*
X188018Y122561D02*
D03*
X190518D02*
D03*
X188018Y122461D02*
D03*
X190418Y122361D02*
D03*
X187918Y122261D02*
D03*
X190318Y122161D02*
D03*
X187818Y122061D02*
D03*
X190318D02*
D03*
X190218Y121861D02*
D03*
X187718Y121761D02*
D03*
X190118Y121661D02*
D03*
X187618Y121561D02*
D03*
X187518Y121361D02*
D03*
X187418Y121161D02*
D03*
X187318Y120961D02*
D03*
X187218Y120761D02*
D03*
Y120661D02*
D03*
X187118Y120561D02*
D03*
Y120461D02*
D03*
X203618D02*
D03*
X187018Y120361D02*
D03*
Y120261D02*
D03*
X186918Y120161D02*
D03*
Y120061D02*
D03*
X186818Y119961D02*
D03*
Y119861D02*
D03*
X186718Y119761D02*
D03*
X213018D02*
D03*
X186618Y119561D02*
D03*
X186518Y119361D02*
D03*
X186418Y119161D02*
D03*
X186318Y119061D02*
D03*
X186218Y118861D02*
D03*
X188718Y118661D02*
D03*
Y118561D02*
D03*
X193018Y117161D02*
D03*
Y117061D02*
D03*
X189218Y116461D02*
D03*
Y116361D02*
D03*
Y116261D02*
D03*
Y116161D02*
D03*
X189418Y115361D02*
D03*
X189518Y115161D02*
D03*
X191918Y114861D02*
D03*
X189918Y114461D02*
D03*
X190018Y114361D02*
D03*
X194300Y94350D02*
D03*
D50*
X194468Y151561D02*
D03*
X191568Y125761D02*
D03*
X191468Y125461D02*
D03*
Y125361D02*
D03*
X191368Y124961D02*
D03*
X191268Y124661D02*
D03*
Y124561D02*
D03*
X191168Y124261D02*
D03*
X188568Y124161D02*
D03*
Y124061D02*
D03*
X191068Y123961D02*
D03*
X188468Y123861D02*
D03*
Y123761D02*
D03*
X188368Y123461D02*
D03*
X212868Y119861D02*
D03*
X186668Y119661D02*
D03*
X186568Y119461D02*
D03*
X186468Y119261D02*
D03*
X186268Y118961D02*
D03*
X197268Y118861D02*
D03*
X188768Y118461D02*
D03*
X186268Y118361D02*
D03*
X188768D02*
D03*
X186268Y118261D02*
D03*
Y118161D02*
D03*
X188868D02*
D03*
X186268Y118061D02*
D03*
X188868D02*
D03*
X196868D02*
D03*
X186368Y117861D02*
D03*
Y117761D02*
D03*
X188968D02*
D03*
X186368Y117661D02*
D03*
X188968D02*
D03*
X186468Y117361D02*
D03*
X189068D02*
D03*
X186468Y117261D02*
D03*
X189068D02*
D03*
Y117161D02*
D03*
X186568Y116861D02*
D03*
X189168D02*
D03*
Y116761D02*
D03*
Y116661D02*
D03*
Y116561D02*
D03*
X189568Y115061D02*
D03*
Y114961D02*
D03*
X191968D02*
D03*
X189668Y114861D02*
D03*
Y114761D02*
D03*
X188568Y112761D02*
D03*
X188668Y112661D02*
D03*
X185868Y110561D02*
D03*
X191068Y110461D02*
D03*
X194350Y94250D02*
D03*
D51*
X194518Y151461D02*
D03*
X208518Y127261D02*
D03*
X188618Y124461D02*
D03*
Y124361D02*
D03*
Y124261D02*
D03*
X212718Y119961D02*
D03*
X188818Y118261D02*
D03*
X186318Y117961D02*
D03*
X188918D02*
D03*
Y117861D02*
D03*
X186418Y117561D02*
D03*
X189018D02*
D03*
X186418Y117461D02*
D03*
X189018D02*
D03*
X193018Y117361D02*
D03*
Y117261D02*
D03*
X186518Y117161D02*
D03*
Y117061D02*
D03*
X189118D02*
D03*
X186518Y116961D02*
D03*
X189118D02*
D03*
X186618Y116761D02*
D03*
Y116661D02*
D03*
Y116561D02*
D03*
Y116461D02*
D03*
X186718Y116261D02*
D03*
Y116161D02*
D03*
Y116061D02*
D03*
Y115961D02*
D03*
X186818Y115761D02*
D03*
Y115661D02*
D03*
Y115561D02*
D03*
X186918Y115261D02*
D03*
Y115161D02*
D03*
X187018Y114761D02*
D03*
X189718Y114661D02*
D03*
X189818Y114561D02*
D03*
X188518Y112861D02*
D03*
X194300Y94150D02*
D03*
X193400Y92250D02*
D03*
X195300D02*
D03*
X193300Y92150D02*
D03*
Y92050D02*
D03*
X195400D02*
D03*
X193200Y91950D02*
D03*
X195500Y91850D02*
D03*
X193100Y91750D02*
D03*
X195600Y91650D02*
D03*
X193000Y91550D02*
D03*
X195700Y91450D02*
D03*
X192900Y91350D02*
D03*
X195800Y91250D02*
D03*
X192800Y91150D02*
D03*
X195900Y91050D02*
D03*
X192700Y90950D02*
D03*
X192600Y90750D02*
D03*
X196100D02*
D03*
X192500Y90550D02*
D03*
X196200D02*
D03*
X192400Y90350D02*
D03*
X196300D02*
D03*
X192300Y90150D02*
D03*
X196400D02*
D03*
X192200Y89950D02*
D03*
X196500D02*
D03*
X192100Y89750D02*
D03*
X196600D02*
D03*
X192000Y89550D02*
D03*
X196700D02*
D03*
X191900Y89450D02*
D03*
Y89350D02*
D03*
X196800D02*
D03*
X191800Y89250D02*
D03*
Y89150D02*
D03*
X191700Y89050D02*
D03*
X197000D02*
D03*
X191700Y88950D02*
D03*
X191600Y88850D02*
D03*
X197100D02*
D03*
X191500Y88650D02*
D03*
X197200D02*
D03*
X191400Y88450D02*
D03*
X197300D02*
D03*
X191300Y88250D02*
D03*
X197400D02*
D03*
X191200Y88050D02*
D03*
X197500D02*
D03*
X191100Y87850D02*
D03*
X197600D02*
D03*
X191000Y87650D02*
D03*
X197700D02*
D03*
X190900Y87450D02*
D03*
X197800D02*
D03*
X197900Y87350D02*
D03*
X190800Y87250D02*
D03*
X198000Y87150D02*
D03*
X190700Y87050D02*
D03*
X198100Y86950D02*
D03*
X190600Y86850D02*
D03*
X198200Y86750D02*
D03*
X190500Y86650D02*
D03*
X198300Y86550D02*
D03*
X190400Y86450D02*
D03*
X190300Y86350D02*
D03*
X198400D02*
D03*
X190300Y86250D02*
D03*
X190200Y86150D02*
D03*
X198500D02*
D03*
X190200Y86050D02*
D03*
X190100Y85950D02*
D03*
X198600D02*
D03*
X190100Y85850D02*
D03*
X190000Y85750D02*
D03*
X198700D02*
D03*
X198800Y85650D02*
D03*
X189900Y85550D02*
D03*
X198900Y85450D02*
D03*
X189800Y85350D02*
D03*
X199000Y85250D02*
D03*
X189700Y85150D02*
D03*
X199100Y85050D02*
D03*
X189600Y84950D02*
D03*
X199200Y84850D02*
D03*
X189500Y84750D02*
D03*
X199300Y84650D02*
D03*
X189400Y84550D02*
D03*
X199400Y84450D02*
D03*
X189300Y84350D02*
D03*
X199500Y84250D02*
D03*
X189200Y84150D02*
D03*
X199600Y84050D02*
D03*
X189100Y83950D02*
D03*
X199700D02*
D03*
X189000Y83750D02*
D03*
X199800D02*
D03*
X188900Y83550D02*
D03*
X199900D02*
D03*
X188800Y83350D02*
D03*
X200000D02*
D03*
X188700Y83250D02*
D03*
Y83150D02*
D03*
X200100D02*
D03*
X188600Y83050D02*
D03*
Y82950D02*
D03*
X200200D02*
D03*
X188500Y82850D02*
D03*
X200300Y82750D02*
D03*
X188400Y82650D02*
D03*
X200400Y82550D02*
D03*
X188300Y82450D02*
D03*
X200500Y82350D02*
D03*
X188200Y82250D02*
D03*
X188100Y82050D02*
D03*
X200700D02*
D03*
X188000Y81850D02*
D03*
X200800D02*
D03*
X187900Y81650D02*
D03*
X200900D02*
D03*
X187800Y81450D02*
D03*
X201000D02*
D03*
X187700Y81250D02*
D03*
X201100D02*
D03*
X187600Y81050D02*
D03*
X201200D02*
D03*
X187500Y80850D02*
D03*
X201300D02*
D03*
X187400Y80650D02*
D03*
X201400D02*
D03*
X187300Y80450D02*
D03*
X201600Y80350D02*
D03*
X187200Y80250D02*
D03*
X187100Y80150D02*
D03*
X201700D02*
D03*
X187100Y80050D02*
D03*
X187000Y79950D02*
D03*
X201800D02*
D03*
X187000Y79850D02*
D03*
X186900Y79750D02*
D03*
X201900D02*
D03*
X186800Y79550D02*
D03*
X202000D02*
D03*
X186700Y79350D02*
D03*
X202100D02*
D03*
X186600Y79150D02*
D03*
X202200D02*
D03*
X186500Y78950D02*
D03*
X202300D02*
D03*
X186400Y78750D02*
D03*
X202400D02*
D03*
X202500Y78650D02*
D03*
X186300Y78550D02*
D03*
X202600Y78450D02*
D03*
X186200Y78350D02*
D03*
X202700Y78250D02*
D03*
X186100Y78150D02*
D03*
X202800Y78050D02*
D03*
X186000Y77950D02*
D03*
X202900Y77850D02*
D03*
X185900Y77750D02*
D03*
X203000Y77650D02*
D03*
X185800Y77550D02*
D03*
X203100Y77450D02*
D03*
X185700Y77350D02*
D03*
X185600Y77250D02*
D03*
X203200D02*
D03*
X185600Y77150D02*
D03*
X185500Y77050D02*
D03*
X203300D02*
D03*
X185500Y76950D02*
D03*
X203400D02*
D03*
X185400Y76850D02*
D03*
Y76750D02*
D03*
X203500D02*
D03*
X185300Y76650D02*
D03*
X203600Y76550D02*
D03*
X185200Y76450D02*
D03*
X203700Y76350D02*
D03*
X185100Y76250D02*
D03*
X203800Y76150D02*
D03*
X185000Y76050D02*
D03*
X203900Y75950D02*
D03*
X184900Y75850D02*
D03*
X204000Y75750D02*
D03*
X184800Y75650D02*
D03*
X204100Y75550D02*
D03*
X184700Y75450D02*
D03*
X204200Y75350D02*
D03*
X184600Y75250D02*
D03*
X204300D02*
D03*
X184500Y75050D02*
D03*
X204400D02*
D03*
X184400Y74850D02*
D03*
X204500D02*
D03*
X184300Y74650D02*
D03*
X204600D02*
D03*
X184200Y74450D02*
D03*
X204700D02*
D03*
X184100Y74250D02*
D03*
X204800D02*
D03*
X184000Y74150D02*
D03*
Y74050D02*
D03*
X204900D02*
D03*
X183900Y73950D02*
D03*
Y73850D02*
D03*
X205000D02*
D03*
X183800Y73750D02*
D03*
X205100Y73650D02*
D03*
X183700Y73550D02*
D03*
X183600Y73350D02*
D03*
X205300D02*
D03*
X183500Y73150D02*
D03*
X205400D02*
D03*
X183400Y72950D02*
D03*
X205500D02*
D03*
X183300Y72750D02*
D03*
X205600D02*
D03*
X183200Y72550D02*
D03*
X205700D02*
D03*
X183100Y72350D02*
D03*
X205800D02*
D03*
X183000Y72150D02*
D03*
X205900D02*
D03*
X182900Y71950D02*
D03*
X206000D02*
D03*
X182800Y71750D02*
D03*
X206200Y71650D02*
D03*
X182700Y71550D02*
D03*
X206300Y71450D02*
D03*
X182600Y71350D02*
D03*
X206400Y71250D02*
D03*
X182500Y71150D02*
D03*
X182400Y71050D02*
D03*
X206500D02*
D03*
X182400Y70950D02*
D03*
X182300Y70850D02*
D03*
X206600D02*
D03*
X182300Y70750D02*
D03*
X182200Y70650D02*
D03*
X206700D02*
D03*
X182100Y70450D02*
D03*
X206800D02*
D03*
X182000Y70250D02*
D03*
X206900D02*
D03*
X181900Y70050D02*
D03*
X207000D02*
D03*
X207100Y69950D02*
D03*
X181800Y69850D02*
D03*
X207200Y69750D02*
D03*
X181700Y69650D02*
D03*
X207300Y69550D02*
D03*
X181600Y69450D02*
D03*
X207400Y69350D02*
D03*
X181500Y69250D02*
D03*
X207500Y69150D02*
D03*
X181400Y69050D02*
D03*
X207600Y68950D02*
D03*
X181300Y68850D02*
D03*
X207700Y68750D02*
D03*
X181200Y68650D02*
D03*
X207800Y68550D02*
D03*
X181100Y68450D02*
D03*
X207900Y68350D02*
D03*
X181000Y68250D02*
D03*
X208000D02*
D03*
X180900Y68150D02*
D03*
Y68050D02*
D03*
X208100D02*
D03*
X180800Y67950D02*
D03*
Y67850D02*
D03*
X208200D02*
D03*
X180700Y67750D02*
D03*
Y67650D02*
D03*
X208300D02*
D03*
X180600Y67550D02*
D03*
X208400Y67450D02*
D03*
X180500Y67350D02*
D03*
X208500Y67250D02*
D03*
X180400Y67150D02*
D03*
X208600Y67050D02*
D03*
X180300Y66950D02*
D03*
X208700Y66850D02*
D03*
X180200Y66750D02*
D03*
X208800Y66650D02*
D03*
X180100Y66550D02*
D03*
X208900D02*
D03*
X180000Y66350D02*
D03*
X209000D02*
D03*
X179900Y66150D02*
D03*
X209100D02*
D03*
X179800Y65950D02*
D03*
X209200D02*
D03*
X179700Y65750D02*
D03*
X209300D02*
D03*
X179600Y65550D02*
D03*
X209400D02*
D03*
X179500Y65350D02*
D03*
X209500D02*
D03*
X179400Y65150D02*
D03*
X209600D02*
D03*
X179300Y65050D02*
D03*
Y64950D02*
D03*
X209700D02*
D03*
X179200Y64850D02*
D03*
Y64750D02*
D03*
X179100Y64650D02*
D03*
X209900D02*
D03*
X179100Y64550D02*
D03*
X179000Y64450D02*
D03*
X210000D02*
D03*
X178900Y64250D02*
D03*
X210100D02*
D03*
X178800Y64050D02*
D03*
X210200D02*
D03*
X178700Y63850D02*
D03*
X210300D02*
D03*
X178600Y63650D02*
D03*
X210400D02*
D03*
X178500Y63450D02*
D03*
X210500D02*
D03*
X178400Y63250D02*
D03*
X210600D02*
D03*
X178300Y63050D02*
D03*
X210800Y62950D02*
D03*
X178200Y62850D02*
D03*
X210900Y62750D02*
D03*
X178100Y62650D02*
D03*
X211000Y62550D02*
D03*
X178000Y62450D02*
D03*
X211100Y62350D02*
D03*
X177900Y62250D02*
D03*
X211200Y62150D02*
D03*
X177800Y62050D02*
D03*
X177700Y61950D02*
D03*
X211300D02*
D03*
X177700Y61850D02*
D03*
X177600Y61750D02*
D03*
X211400D02*
D03*
X177600Y61650D02*
D03*
X177500Y61550D02*
D03*
X211500D02*
D03*
X177400Y61350D02*
D03*
X211600D02*
D03*
X211700Y61250D02*
D03*
X177300Y61150D02*
D03*
X211800Y61050D02*
D03*
X177200Y60950D02*
D03*
X211900Y60850D02*
D03*
X177100Y60750D02*
D03*
X212000Y60650D02*
D03*
X177000Y60550D02*
D03*
X212100Y60450D02*
D03*
X176900Y60350D02*
D03*
X212200Y60250D02*
D03*
X176800Y60150D02*
D03*
X212300Y60050D02*
D03*
X176700Y59950D02*
D03*
X212400Y59850D02*
D03*
X176600Y59750D02*
D03*
X212500Y59650D02*
D03*
X176500Y59550D02*
D03*
X212600D02*
D03*
X176400Y59350D02*
D03*
X212700D02*
D03*
X176300Y59150D02*
D03*
X212800D02*
D03*
X176200Y59050D02*
D03*
Y58950D02*
D03*
X212900D02*
D03*
X176100Y58850D02*
D03*
Y58750D02*
D03*
X213000D02*
D03*
X176000Y58650D02*
D03*
Y58550D02*
D03*
X213100D02*
D03*
X175900Y58450D02*
D03*
X213200Y58350D02*
D03*
X175800Y58250D02*
D03*
X213300Y58150D02*
D03*
X175700Y58050D02*
D03*
X213400Y57950D02*
D03*
X175600Y57850D02*
D03*
X213500D02*
D03*
X175500Y57650D02*
D03*
X213600D02*
D03*
X175400Y57450D02*
D03*
X213700D02*
D03*
X175300Y57250D02*
D03*
X213800D02*
D03*
X175200Y57050D02*
D03*
X213900D02*
D03*
X175100Y56850D02*
D03*
X214000D02*
D03*
X175000Y56650D02*
D03*
X214100D02*
D03*
X174900Y56450D02*
D03*
X214200D02*
D03*
X174800Y56250D02*
D03*
X214300D02*
D03*
X174700Y56050D02*
D03*
X174600Y55950D02*
D03*
X214500D02*
D03*
X174600Y55850D02*
D03*
X174500Y55750D02*
D03*
X214600D02*
D03*
X174500Y55650D02*
D03*
X174400Y55550D02*
D03*
X214700D02*
D03*
X174400Y55450D02*
D03*
X174300Y55350D02*
D03*
X214800D02*
D03*
X174200Y55150D02*
D03*
X214900D02*
D03*
X174100Y54950D02*
D03*
X215000D02*
D03*
X174000Y54750D02*
D03*
X215100D02*
D03*
X173900Y54550D02*
D03*
X215200D02*
D03*
X173800Y54350D02*
D03*
X215400Y54250D02*
D03*
X173700Y54150D02*
D03*
X215500Y54050D02*
D03*
X173600Y53950D02*
D03*
X215600Y53850D02*
D03*
X173500Y53750D02*
D03*
X215700Y53650D02*
D03*
X173400Y53550D02*
D03*
X215800Y53450D02*
D03*
X173300Y53350D02*
D03*
X215900Y53250D02*
D03*
X173200Y53150D02*
D03*
X216000Y53050D02*
D03*
X173100Y52950D02*
D03*
X173000Y52850D02*
D03*
X216100D02*
D03*
X173000Y52750D02*
D03*
X172900Y52650D02*
D03*
X216200D02*
D03*
X172900Y52550D02*
D03*
X216300D02*
D03*
X172800Y52450D02*
D03*
X216400Y52350D02*
D03*
X172700Y52250D02*
D03*
X216500Y52150D02*
D03*
X172600Y52050D02*
D03*
X216600Y51950D02*
D03*
X172500Y51850D02*
D03*
X216700Y51750D02*
D03*
X172400Y51650D02*
D03*
X216800Y51550D02*
D03*
D52*
X194468Y151361D02*
D03*
X188268Y132961D02*
D03*
X182868Y131361D02*
D03*
X188668Y124661D02*
D03*
Y124561D02*
D03*
X203668Y120361D02*
D03*
X193068Y117561D02*
D03*
Y117461D02*
D03*
X186668Y116361D02*
D03*
X186768Y115861D02*
D03*
X186868Y115461D02*
D03*
Y115361D02*
D03*
X186968Y115061D02*
D03*
Y114961D02*
D03*
Y114861D02*
D03*
X187068Y114661D02*
D03*
Y114561D02*
D03*
Y114461D02*
D03*
Y114361D02*
D03*
X187168Y114261D02*
D03*
Y114161D02*
D03*
Y114061D02*
D03*
X188368Y112961D02*
D03*
X191068Y110361D02*
D03*
X194350Y94050D02*
D03*
X195350Y92150D02*
D03*
X195450Y91950D02*
D03*
X193150Y91850D02*
D03*
X195550Y91750D02*
D03*
X193050Y91650D02*
D03*
X195650Y91550D02*
D03*
X192950Y91450D02*
D03*
X195750Y91350D02*
D03*
X192850Y91250D02*
D03*
X195850Y91150D02*
D03*
X192750Y91050D02*
D03*
X195950Y90950D02*
D03*
X192650Y90850D02*
D03*
X196050D02*
D03*
X192550Y90650D02*
D03*
X196150D02*
D03*
X192450Y90450D02*
D03*
X196250D02*
D03*
X192350Y90250D02*
D03*
X196350D02*
D03*
X192250Y90050D02*
D03*
X196450D02*
D03*
X192150Y89850D02*
D03*
X196550D02*
D03*
X192050Y89650D02*
D03*
X196650D02*
D03*
X196750Y89450D02*
D03*
X196850Y89250D02*
D03*
X196950Y89150D02*
D03*
X197050Y88950D02*
D03*
X191550Y88750D02*
D03*
X197150D02*
D03*
X191450Y88550D02*
D03*
X197250D02*
D03*
X191350Y88350D02*
D03*
X197350D02*
D03*
X191250Y88150D02*
D03*
X197450D02*
D03*
X191150Y87950D02*
D03*
X197550D02*
D03*
X191050Y87750D02*
D03*
X197650D02*
D03*
X190950Y87550D02*
D03*
X197750D02*
D03*
X190850Y87350D02*
D03*
X197950Y87250D02*
D03*
X190750Y87150D02*
D03*
X198050Y87050D02*
D03*
X190650Y86950D02*
D03*
X198150Y86850D02*
D03*
X190550Y86750D02*
D03*
X198250Y86650D02*
D03*
X190450Y86550D02*
D03*
X198350Y86450D02*
D03*
X198450Y86250D02*
D03*
X198550Y86050D02*
D03*
X198650Y85850D02*
D03*
X189950Y85650D02*
D03*
X198850Y85550D02*
D03*
X189850Y85450D02*
D03*
X198950Y85350D02*
D03*
X189750Y85250D02*
D03*
X199050Y85150D02*
D03*
X189650Y85050D02*
D03*
X199150Y84950D02*
D03*
X189550Y84850D02*
D03*
X199250Y84750D02*
D03*
X189450Y84650D02*
D03*
X199350Y84550D02*
D03*
X189350Y84450D02*
D03*
X199450Y84350D02*
D03*
X189250Y84250D02*
D03*
X199550Y84150D02*
D03*
X189150Y84050D02*
D03*
X189050Y83850D02*
D03*
X199750D02*
D03*
X188950Y83650D02*
D03*
X199850D02*
D03*
X188850Y83450D02*
D03*
X199950D02*
D03*
X200050Y83250D02*
D03*
X200150Y83050D02*
D03*
X200250Y82850D02*
D03*
X188450Y82750D02*
D03*
X200350Y82650D02*
D03*
X188350Y82550D02*
D03*
X200450Y82450D02*
D03*
X188250Y82350D02*
D03*
X200550Y82250D02*
D03*
X188150Y82150D02*
D03*
X200650D02*
D03*
X188050Y81950D02*
D03*
X200750D02*
D03*
X187950Y81750D02*
D03*
X200850D02*
D03*
X187850Y81550D02*
D03*
X200950D02*
D03*
X187750Y81350D02*
D03*
X201050D02*
D03*
X187650Y81150D02*
D03*
X201150D02*
D03*
X187550Y80950D02*
D03*
X201250D02*
D03*
X187450Y80750D02*
D03*
X201350D02*
D03*
X187350Y80550D02*
D03*
X201450D02*
D03*
X201550Y80450D02*
D03*
X187250Y80350D02*
D03*
X201650Y80250D02*
D03*
X201750Y80050D02*
D03*
X201850Y79850D02*
D03*
X186850Y79650D02*
D03*
X201950D02*
D03*
X186750Y79450D02*
D03*
X202050D02*
D03*
X186650Y79250D02*
D03*
X202150D02*
D03*
X186550Y79050D02*
D03*
X202250D02*
D03*
X186450Y78850D02*
D03*
X202350D02*
D03*
X186350Y78650D02*
D03*
X202550Y78550D02*
D03*
X186250Y78450D02*
D03*
X202650Y78350D02*
D03*
X186150Y78250D02*
D03*
X202750Y78150D02*
D03*
X186050Y78050D02*
D03*
X202850Y77950D02*
D03*
X185950Y77850D02*
D03*
X202950Y77750D02*
D03*
X185850Y77650D02*
D03*
X203050Y77550D02*
D03*
X185750Y77450D02*
D03*
X203150Y77350D02*
D03*
X203250Y77150D02*
D03*
X203450Y76850D02*
D03*
X203550Y76650D02*
D03*
X185250Y76550D02*
D03*
X203650Y76450D02*
D03*
X185150Y76350D02*
D03*
X203750Y76250D02*
D03*
X185050Y76150D02*
D03*
X203850Y76050D02*
D03*
X184950Y75950D02*
D03*
X203950Y75850D02*
D03*
X184850Y75750D02*
D03*
X204050Y75650D02*
D03*
X184750Y75550D02*
D03*
X204150Y75450D02*
D03*
X184650Y75350D02*
D03*
X184550Y75150D02*
D03*
X204350D02*
D03*
X184450Y74950D02*
D03*
X204450D02*
D03*
X184350Y74750D02*
D03*
X204550D02*
D03*
X184250Y74550D02*
D03*
X204650D02*
D03*
X184150Y74350D02*
D03*
X204750D02*
D03*
X204850Y74150D02*
D03*
X204950Y73950D02*
D03*
X205050Y73750D02*
D03*
X183750Y73650D02*
D03*
X205150Y73550D02*
D03*
X183650Y73450D02*
D03*
X205250D02*
D03*
X183550Y73250D02*
D03*
X205350D02*
D03*
X183450Y73050D02*
D03*
X205450D02*
D03*
X183350Y72850D02*
D03*
X205550D02*
D03*
X183250Y72650D02*
D03*
X205650D02*
D03*
X183150Y72450D02*
D03*
X205750D02*
D03*
X183050Y72250D02*
D03*
X205850D02*
D03*
X182950Y72050D02*
D03*
X205950D02*
D03*
X182850Y71850D02*
D03*
X206050D02*
D03*
X206150Y71750D02*
D03*
X182750Y71650D02*
D03*
X206250Y71550D02*
D03*
X182650Y71450D02*
D03*
X206350Y71350D02*
D03*
X182550Y71250D02*
D03*
X206450Y71150D02*
D03*
X206550Y70950D02*
D03*
X206650Y70750D02*
D03*
X182150Y70550D02*
D03*
X206750D02*
D03*
X182050Y70350D02*
D03*
X206850D02*
D03*
X181950Y70150D02*
D03*
X206950D02*
D03*
X181850Y69950D02*
D03*
X207150Y69850D02*
D03*
X181750Y69750D02*
D03*
X207250Y69650D02*
D03*
X181650Y69550D02*
D03*
X207350Y69450D02*
D03*
X181550Y69350D02*
D03*
X207450Y69250D02*
D03*
X181450Y69150D02*
D03*
X207550Y69050D02*
D03*
X181350Y68950D02*
D03*
X207650Y68850D02*
D03*
X181250Y68750D02*
D03*
X207750Y68650D02*
D03*
X181150Y68550D02*
D03*
X207850Y68450D02*
D03*
X181050Y68350D02*
D03*
X208050Y68150D02*
D03*
X208150Y67950D02*
D03*
X208250Y67750D02*
D03*
X208350Y67550D02*
D03*
X180550Y67450D02*
D03*
X208450Y67350D02*
D03*
X180450Y67250D02*
D03*
X208550Y67150D02*
D03*
X180350Y67050D02*
D03*
X208650Y66950D02*
D03*
X180250Y66850D02*
D03*
X208750Y66750D02*
D03*
X180150Y66650D02*
D03*
X180050Y66450D02*
D03*
X208950D02*
D03*
X179950Y66250D02*
D03*
X209050D02*
D03*
X179850Y66050D02*
D03*
X209150D02*
D03*
X179750Y65850D02*
D03*
X209250D02*
D03*
X179650Y65650D02*
D03*
X209350D02*
D03*
X179550Y65450D02*
D03*
X209450D02*
D03*
X179450Y65250D02*
D03*
X209550D02*
D03*
X209650Y65050D02*
D03*
X209750Y64850D02*
D03*
X209850Y64750D02*
D03*
X209950Y64550D02*
D03*
X178950Y64350D02*
D03*
X210050D02*
D03*
X178850Y64150D02*
D03*
X210150D02*
D03*
X178750Y63950D02*
D03*
X210250D02*
D03*
X178650Y63750D02*
D03*
X210350D02*
D03*
X178550Y63550D02*
D03*
X210450D02*
D03*
X178450Y63350D02*
D03*
X210550D02*
D03*
X178350Y63150D02*
D03*
X210650D02*
D03*
X210750Y63050D02*
D03*
X178250Y62950D02*
D03*
X210850Y62850D02*
D03*
X178150Y62750D02*
D03*
X210950Y62650D02*
D03*
X178050Y62550D02*
D03*
X211050Y62450D02*
D03*
X177950Y62350D02*
D03*
X211150Y62250D02*
D03*
X177850Y62150D02*
D03*
X211250Y62050D02*
D03*
X211350Y61850D02*
D03*
X211450Y61650D02*
D03*
X177450Y61450D02*
D03*
X211550D02*
D03*
X177350Y61250D02*
D03*
X211750Y61150D02*
D03*
X177250Y61050D02*
D03*
X211850Y60950D02*
D03*
X177150Y60850D02*
D03*
X211950Y60750D02*
D03*
X177050Y60650D02*
D03*
X212050Y60550D02*
D03*
X176950Y60450D02*
D03*
X212150Y60350D02*
D03*
X176850Y60250D02*
D03*
X212250Y60150D02*
D03*
X176750Y60050D02*
D03*
X212350Y59950D02*
D03*
X176650Y59850D02*
D03*
X212450Y59750D02*
D03*
X176550Y59650D02*
D03*
X176450Y59450D02*
D03*
X212650D02*
D03*
X176350Y59250D02*
D03*
X212750D02*
D03*
X212850Y59050D02*
D03*
X212950Y58850D02*
D03*
X213050Y58650D02*
D03*
X213150Y58450D02*
D03*
X175850Y58350D02*
D03*
X213250Y58250D02*
D03*
X175750Y58150D02*
D03*
X213350Y58050D02*
D03*
X175650Y57950D02*
D03*
X175550Y57750D02*
D03*
X213550D02*
D03*
X175450Y57550D02*
D03*
X213650D02*
D03*
X175350Y57350D02*
D03*
X213750D02*
D03*
X175250Y57150D02*
D03*
X213850D02*
D03*
X175150Y56950D02*
D03*
X213950D02*
D03*
X175050Y56750D02*
D03*
X214050D02*
D03*
X174950Y56550D02*
D03*
X214150D02*
D03*
X174850Y56350D02*
D03*
X214250D02*
D03*
X174750Y56150D02*
D03*
X214350D02*
D03*
X214450Y56050D02*
D03*
X214550Y55850D02*
D03*
X214650Y55650D02*
D03*
X214750Y55450D02*
D03*
X174250Y55250D02*
D03*
X214850D02*
D03*
X174150Y55050D02*
D03*
X214950D02*
D03*
X174050Y54850D02*
D03*
X215050D02*
D03*
X173950Y54650D02*
D03*
X215150D02*
D03*
X173850Y54450D02*
D03*
X215250D02*
D03*
X215350Y54350D02*
D03*
X173750Y54250D02*
D03*
X215450Y54150D02*
D03*
X173650Y54050D02*
D03*
X215550Y53950D02*
D03*
X173550Y53850D02*
D03*
X215650Y53750D02*
D03*
X173450Y53650D02*
D03*
X215750Y53550D02*
D03*
X173350Y53450D02*
D03*
X215850Y53350D02*
D03*
X173250Y53250D02*
D03*
X215950Y53150D02*
D03*
X173150Y53050D02*
D03*
X216050Y52950D02*
D03*
X216150Y52750D02*
D03*
X216350Y52450D02*
D03*
X172750Y52350D02*
D03*
X216450Y52250D02*
D03*
X172650Y52150D02*
D03*
X216550Y52050D02*
D03*
X172550Y51950D02*
D03*
X216650Y51850D02*
D03*
X172450Y51750D02*
D03*
X216750Y51650D02*
D03*
X172350Y51550D02*
D03*
D53*
X194518Y151261D02*
D03*
X208518Y127161D02*
D03*
X212618Y120061D02*
D03*
X186018Y118461D02*
D03*
X187218Y113961D02*
D03*
X188318Y113061D02*
D03*
X191018Y110261D02*
D03*
X194300Y93950D02*
D03*
D54*
X194468Y151161D02*
D03*
X182968Y131261D02*
D03*
X208468Y127061D02*
D03*
X203668Y120261D02*
D03*
X212468Y120161D02*
D03*
X185968Y118561D02*
D03*
X193068Y117761D02*
D03*
Y117661D02*
D03*
X188168Y113161D02*
D03*
X194350Y93850D02*
D03*
D55*
X194468Y151061D02*
D03*
X188268Y133061D02*
D03*
X212368Y120261D02*
D03*
X193068Y117961D02*
D03*
X187368Y113861D02*
D03*
X187468Y113761D02*
D03*
X187968Y113261D02*
D03*
X194350Y93650D02*
D03*
D56*
X194518Y150961D02*
D03*
X183018Y131161D02*
D03*
X182818Y130761D02*
D03*
X182718Y130561D02*
D03*
X208418Y126961D02*
D03*
X188418Y124861D02*
D03*
X212218Y120361D02*
D03*
X203718Y120161D02*
D03*
X193118Y118161D02*
D03*
Y118061D02*
D03*
X194300Y93550D02*
D03*
D57*
X194468Y150861D02*
D03*
X182768Y130661D02*
D03*
X182668Y130461D02*
D03*
X182568Y130361D02*
D03*
Y130261D02*
D03*
X182468Y130061D02*
D03*
X208368Y126861D02*
D03*
X194068Y125261D02*
D03*
X188468Y125061D02*
D03*
Y124961D02*
D03*
X212068Y120461D02*
D03*
X193168Y118261D02*
D03*
X194350Y93450D02*
D03*
D58*
X194518Y150761D02*
D03*
X182518Y130161D02*
D03*
X182418Y129961D02*
D03*
X182318Y129761D02*
D03*
X212018Y120561D02*
D03*
X193118Y118361D02*
D03*
X191018Y110061D02*
D03*
X194300Y93350D02*
D03*
D59*
X194468Y150661D02*
D03*
X188268Y133161D02*
D03*
X183068Y131061D02*
D03*
X182368Y129861D02*
D03*
X182268Y129661D02*
D03*
Y129561D02*
D03*
X182168Y129461D02*
D03*
Y129361D02*
D03*
X194168Y125161D02*
D03*
X211868Y120661D02*
D03*
X203768Y120061D02*
D03*
X193168Y118561D02*
D03*
Y118461D02*
D03*
X187468Y113661D02*
D03*
X194350Y93250D02*
D03*
D60*
X194468Y150561D02*
D03*
Y150461D02*
D03*
X183168Y130961D02*
D03*
X181968Y128961D02*
D03*
X181868Y128761D02*
D03*
X181768Y128561D02*
D03*
X211768Y120761D02*
D03*
X193168Y118761D02*
D03*
Y118661D02*
D03*
X194350Y93050D02*
D03*
D61*
X194468Y150361D02*
D03*
X188268Y133261D02*
D03*
X181568Y128061D02*
D03*
X181468Y127861D02*
D03*
X208268Y126561D02*
D03*
X194168Y124561D02*
D03*
Y124461D02*
D03*
X193168Y118961D02*
D03*
Y118861D02*
D03*
X194350Y92850D02*
D03*
D62*
X194518Y150261D02*
D03*
X183218Y130861D02*
D03*
X181518Y127961D02*
D03*
X181418Y127761D02*
D03*
Y127661D02*
D03*
X181318Y127561D02*
D03*
Y127461D02*
D03*
X194318Y124961D02*
D03*
X194118Y124361D02*
D03*
Y124261D02*
D03*
Y124161D02*
D03*
X194018Y123961D02*
D03*
Y123861D02*
D03*
X211518Y120961D02*
D03*
X193218Y119061D02*
D03*
X187418Y113461D02*
D03*
X194300Y92750D02*
D03*
D63*
X194468Y150161D02*
D03*
X181268Y127361D02*
D03*
X181168Y127161D02*
D03*
X194368Y124861D02*
D03*
X194068Y124061D02*
D03*
X193968Y123761D02*
D03*
Y123661D02*
D03*
Y123561D02*
D03*
X193868Y123261D02*
D03*
X211368Y121061D02*
D03*
X203868Y119861D02*
D03*
X193168Y119161D02*
D03*
X187468Y113361D02*
D03*
X194350Y92650D02*
D03*
D64*
X194518Y150061D02*
D03*
X181218Y127261D02*
D03*
X181118Y127061D02*
D03*
Y126961D02*
D03*
X181018Y126861D02*
D03*
X208218Y126461D02*
D03*
X193918Y123461D02*
D03*
Y123361D02*
D03*
X193818Y123161D02*
D03*
Y123061D02*
D03*
X211218Y121161D02*
D03*
X193218Y119261D02*
D03*
D65*
X194468Y149961D02*
D03*
X188268Y133361D02*
D03*
X180968Y126761D02*
D03*
Y126661D02*
D03*
X180868Y126461D02*
D03*
X208168Y126361D02*
D03*
X194468Y124761D02*
D03*
X193768Y122961D02*
D03*
Y122861D02*
D03*
Y122761D02*
D03*
X193668Y122561D02*
D03*
X203968Y119761D02*
D03*
X193168Y119361D02*
D03*
X190668Y109961D02*
D03*
X194350Y92550D02*
D03*
Y92450D02*
D03*
D66*
X194468Y149861D02*
D03*
X208168Y126261D02*
D03*
X180668Y126061D02*
D03*
Y125961D02*
D03*
X180568Y125861D02*
D03*
Y125761D02*
D03*
X193568Y122261D02*
D03*
Y122161D02*
D03*
X190668Y109861D02*
D03*
X194350Y92350D02*
D03*
D67*
X194518Y149761D02*
D03*
X180518Y125661D02*
D03*
Y125561D02*
D03*
X180418Y125461D02*
D03*
X194518Y124661D02*
D03*
X193518Y122061D02*
D03*
Y121961D02*
D03*
X193418Y121761D02*
D03*
Y121661D02*
D03*
X210918Y121461D02*
D03*
X193218Y119761D02*
D03*
Y119661D02*
D03*
X204018D02*
D03*
D68*
X194468Y149661D02*
D03*
X188268Y133461D02*
D03*
X208068Y126161D02*
D03*
X180368Y125361D02*
D03*
Y125261D02*
D03*
X180268Y125161D02*
D03*
Y125061D02*
D03*
X193468Y121861D02*
D03*
X193368Y121561D02*
D03*
X210768D02*
D03*
X193368Y121461D02*
D03*
X193168Y119961D02*
D03*
Y119861D02*
D03*
X190768Y109761D02*
D03*
D69*
X194518Y149561D02*
D03*
X180218Y124961D02*
D03*
X180118Y124861D02*
D03*
Y124761D02*
D03*
X180018Y124561D02*
D03*
X193318Y121361D02*
D03*
D70*
X194468Y149461D02*
D03*
X180068Y124661D02*
D03*
X179968Y124461D02*
D03*
Y124361D02*
D03*
X179868Y124261D02*
D03*
X210668Y121661D02*
D03*
X193268Y121261D02*
D03*
Y121161D02*
D03*
X193168Y120961D02*
D03*
Y120061D02*
D03*
X204068Y119561D02*
D03*
X190768Y109661D02*
D03*
D71*
X194518Y149361D02*
D03*
X179818Y124161D02*
D03*
Y124061D02*
D03*
X179718Y123961D02*
D03*
Y123861D02*
D03*
X210518Y121761D02*
D03*
X193218Y121061D02*
D03*
X193118Y120861D02*
D03*
Y120761D02*
D03*
Y120261D02*
D03*
Y120161D02*
D03*
D72*
X194468Y149261D02*
D03*
X188268Y133561D02*
D03*
X179668Y123761D02*
D03*
X179568Y123661D02*
D03*
Y123561D02*
D03*
X179468Y123361D02*
D03*
X210368Y121861D02*
D03*
X193068Y120661D02*
D03*
Y120561D02*
D03*
Y120361D02*
D03*
X190868Y109561D02*
D03*
D73*
X194468Y149161D02*
D03*
X179268Y122961D02*
D03*
X179168Y122761D02*
D03*
Y122661D02*
D03*
X179068Y122561D02*
D03*
Y122461D02*
D03*
X178968Y122361D02*
D03*
X178868Y122161D02*
D03*
X178768Y121961D02*
D03*
X210268D02*
D03*
D74*
X194518Y149061D02*
D03*
X188218Y133661D02*
D03*
X207818Y126061D02*
D03*
X207918Y125861D02*
D03*
X178918Y122261D02*
D03*
X178818Y122061D02*
D03*
X210118D02*
D03*
X178718Y121861D02*
D03*
X178618Y121661D02*
D03*
X178518Y121461D02*
D03*
X178418Y121361D02*
D03*
Y121261D02*
D03*
X204118Y119361D02*
D03*
X190918Y109461D02*
D03*
D75*
X194468Y148961D02*
D03*
X207868Y125961D02*
D03*
X207968Y125761D02*
D03*
Y125661D02*
D03*
X208068Y125561D02*
D03*
Y125461D02*
D03*
X178668Y121761D02*
D03*
X178568Y121561D02*
D03*
X178368Y121161D02*
D03*
X178268Y121061D02*
D03*
Y120961D02*
D03*
X178168Y120861D02*
D03*
Y120761D02*
D03*
X178068Y120661D02*
D03*
Y120561D02*
D03*
D76*
X194518Y148861D02*
D03*
X208118Y125361D02*
D03*
X209918Y122261D02*
D03*
X210018Y122161D02*
D03*
X178018Y120461D02*
D03*
D77*
X194468Y148761D02*
D03*
X188268Y133761D02*
D03*
X208168Y125261D02*
D03*
Y125161D02*
D03*
X209768Y122361D02*
D03*
X177968Y120361D02*
D03*
Y120261D02*
D03*
X177868Y120161D02*
D03*
Y120061D02*
D03*
X204168Y119261D02*
D03*
D78*
X194468Y148661D02*
D03*
X208168Y125061D02*
D03*
Y124961D02*
D03*
X209668Y122461D02*
D03*
X177868Y119961D02*
D03*
D79*
X194518Y148561D02*
D03*
X208218Y124861D02*
D03*
X209518Y122561D02*
D03*
X177818Y119861D02*
D03*
Y119761D02*
D03*
X204218Y119161D02*
D03*
D80*
X194468Y148461D02*
D03*
X188268Y133861D02*
D03*
X177768Y119661D02*
D03*
Y119561D02*
D03*
D81*
X194518Y148361D02*
D03*
X208218Y124761D02*
D03*
Y124661D02*
D03*
X209418Y122661D02*
D03*
D82*
X194468Y148261D02*
D03*
X208268Y124561D02*
D03*
X209268Y122761D02*
D03*
X177768Y119461D02*
D03*
Y119361D02*
D03*
X204268Y119061D02*
D03*
X190668Y109361D02*
D03*
D83*
X194518Y148161D02*
D03*
X208218Y124461D02*
D03*
X177718Y119261D02*
D03*
X190818Y109261D02*
D03*
D84*
X194468Y148061D02*
D03*
X188268Y133961D02*
D03*
X208268Y124361D02*
D03*
X209168Y122861D02*
D03*
X177668Y119161D02*
D03*
Y119061D02*
D03*
X191068Y109161D02*
D03*
D85*
X194468Y147961D02*
D03*
X208268Y124161D02*
D03*
X208868Y123061D02*
D03*
X177668Y118961D02*
D03*
Y118861D02*
D03*
D86*
X194518Y147861D02*
D03*
X188218Y134061D02*
D03*
X208818Y123161D02*
D03*
X204418Y118861D02*
D03*
X177618Y118761D02*
D03*
D87*
X194468Y147761D02*
D03*
X208268Y124061D02*
D03*
Y123961D02*
D03*
X208668Y123261D02*
D03*
X177568Y118661D02*
D03*
D88*
X194518Y147661D02*
D03*
X177618Y118561D02*
D03*
D89*
X194468Y147561D02*
D03*
X208568Y123361D02*
D03*
X204468Y118761D02*
D03*
X177568Y118461D02*
D03*
Y118361D02*
D03*
D90*
X194518Y147461D02*
D03*
X188218Y134161D02*
D03*
X208418Y123461D02*
D03*
X177518Y118261D02*
D03*
D91*
X194468Y147361D02*
D03*
X177568Y118161D02*
D03*
D92*
X194468Y147261D02*
D03*
X208068Y123761D02*
D03*
X177468Y117961D02*
D03*
Y117861D02*
D03*
D93*
X194518Y147161D02*
D03*
X188218Y134261D02*
D03*
D94*
X194468Y147061D02*
D03*
X207968Y123861D02*
D03*
X204568Y118561D02*
D03*
X177468Y117761D02*
D03*
Y117661D02*
D03*
D95*
X194518Y146961D02*
D03*
X177418Y117561D02*
D03*
Y117461D02*
D03*
D96*
X194468Y146861D02*
D03*
X204568Y118461D02*
D03*
D97*
X194468Y146761D02*
D03*
X177368Y117261D02*
D03*
Y117161D02*
D03*
D98*
X194518Y146661D02*
D03*
X204618Y118361D02*
D03*
X177318Y117061D02*
D03*
D99*
X194468Y146561D02*
D03*
X188168Y134461D02*
D03*
X177368Y116961D02*
D03*
D100*
X194518Y146461D02*
D03*
X177318Y116861D02*
D03*
D101*
X194468Y146361D02*
D03*
X204668Y118261D02*
D03*
X177268Y116761D02*
D03*
Y116661D02*
D03*
D102*
X194518Y146261D02*
D03*
D103*
X194468Y146161D02*
D03*
X177268Y116561D02*
D03*
Y116461D02*
D03*
D104*
X194468Y146061D02*
D03*
D105*
X194518Y145961D02*
D03*
X188018Y134561D02*
D03*
X177218Y116161D02*
D03*
D106*
X194468Y145861D02*
D03*
X204768Y118061D02*
D03*
X177168Y116061D02*
D03*
Y115961D02*
D03*
D107*
X194518Y145761D02*
D03*
X188118Y134661D02*
D03*
X177118Y115861D02*
D03*
D108*
X194468Y145661D02*
D03*
X177168Y115761D02*
D03*
D109*
X194468Y145561D02*
D03*
Y145461D02*
D03*
X188268Y134861D02*
D03*
X177068Y115461D02*
D03*
D110*
X194468Y145361D02*
D03*
X188568Y135061D02*
D03*
X204868Y117861D02*
D03*
X177068Y115361D02*
D03*
Y115261D02*
D03*
D111*
X194518Y145261D02*
D03*
X188618Y135161D02*
D03*
X177018Y115161D02*
D03*
D112*
X194468Y145161D02*
D03*
X188768Y135261D02*
D03*
X177068Y115061D02*
D03*
D113*
X194518Y145061D02*
D03*
X204918Y117761D02*
D03*
X177018Y114961D02*
D03*
D114*
X194468Y144961D02*
D03*
X188968Y135461D02*
D03*
X188868Y135361D02*
D03*
X176968Y114861D02*
D03*
Y114761D02*
D03*
D115*
X194468Y144861D02*
D03*
X189068Y135561D02*
D03*
X204968Y117661D02*
D03*
X176968Y114661D02*
D03*
Y114561D02*
D03*
D116*
X194518Y144761D02*
D03*
X189218Y135661D02*
D03*
X176918Y114461D02*
D03*
Y114361D02*
D03*
D117*
X194468Y144661D02*
D03*
X189368Y135761D02*
D03*
X204968Y117561D02*
D03*
D118*
X194518Y144561D02*
D03*
X189418Y135861D02*
D03*
X176918Y114261D02*
D03*
D119*
X194468Y144461D02*
D03*
X189568Y135961D02*
D03*
X176868Y114161D02*
D03*
Y114061D02*
D03*
D120*
X194518Y144361D02*
D03*
X205018Y117461D02*
D03*
D121*
X194468Y144261D02*
D03*
X189768Y136161D02*
D03*
X189668Y136061D02*
D03*
X176868Y113961D02*
D03*
Y113861D02*
D03*
D122*
X194468Y144161D02*
D03*
D123*
X194518Y144061D02*
D03*
X190118Y136461D02*
D03*
X190018Y136361D02*
D03*
X205218Y117261D02*
D03*
X176818Y113661D02*
D03*
Y113561D02*
D03*
D124*
X194468Y143961D02*
D03*
X176768Y113461D02*
D03*
D125*
X194518Y143861D02*
D03*
X190218Y136561D02*
D03*
X176818Y113361D02*
D03*
D126*
X194468Y143761D02*
D03*
X190368Y136661D02*
D03*
X205268Y117161D02*
D03*
X176768Y113261D02*
D03*
Y113161D02*
D03*
D127*
X194468Y143661D02*
D03*
X190568Y136861D02*
D03*
X190468Y136761D02*
D03*
X205368Y117061D02*
D03*
D128*
X194518Y143561D02*
D03*
X190718Y136961D02*
D03*
X176718Y112961D02*
D03*
Y112861D02*
D03*
D129*
X194468Y143461D02*
D03*
X205468Y116961D02*
D03*
X176668Y112761D02*
D03*
D130*
X194518Y143361D02*
D03*
X190918Y137161D02*
D03*
X190818Y137061D02*
D03*
X176718Y112661D02*
D03*
D131*
X194468Y143261D02*
D03*
X176668Y112561D02*
D03*
D132*
X194518Y143161D02*
D03*
X191018Y137261D02*
D03*
X205518Y116861D02*
D03*
X176718Y112461D02*
D03*
D133*
X194468Y143061D02*
D03*
X191268Y137461D02*
D03*
X191168Y137361D02*
D03*
X205568Y116761D02*
D03*
X176668Y112361D02*
D03*
D134*
X194468Y142961D02*
D03*
X191368Y137561D02*
D03*
X205668Y116661D02*
D03*
X176668Y112161D02*
D03*
D135*
X194518Y142861D02*
D03*
X191518Y137661D02*
D03*
X176618Y112061D02*
D03*
Y111961D02*
D03*
D136*
X194468Y142761D02*
D03*
X191568Y137761D02*
D03*
D137*
X194518Y142661D02*
D03*
X191718Y137861D02*
D03*
X205718Y116561D02*
D03*
X176618Y111861D02*
D03*
D138*
X194468Y142561D02*
D03*
X176568Y111761D02*
D03*
D139*
X194518Y142461D02*
D03*
X191918Y138061D02*
D03*
X191818Y137961D02*
D03*
X205818Y116461D02*
D03*
X176618Y111661D02*
D03*
D140*
X194468Y142361D02*
D03*
X192068Y138161D02*
D03*
X176568Y111561D02*
D03*
D141*
X194468Y142261D02*
D03*
X192268Y138361D02*
D03*
X192168Y138261D02*
D03*
X176568Y111361D02*
D03*
D142*
X194518Y142161D02*
D03*
X176618Y111261D02*
D03*
D143*
X194468Y142061D02*
D03*
X192368Y138461D02*
D03*
X205968Y116261D02*
D03*
X176568Y111161D02*
D03*
D144*
X194518Y141961D02*
D03*
X192518Y138561D02*
D03*
D145*
X194468Y141861D02*
D03*
X192568Y138661D02*
D03*
X206068Y116161D02*
D03*
X176568Y111061D02*
D03*
D146*
X194468Y141761D02*
D03*
X192868Y138861D02*
D03*
D147*
X194518Y141661D02*
D03*
X192918Y138961D02*
D03*
X206118Y116061D02*
D03*
D148*
X194468Y141561D02*
D03*
X193068Y139061D02*
D03*
X176668Y110861D02*
D03*
D149*
X194518Y141461D02*
D03*
X206218Y115961D02*
D03*
D150*
X194468Y141361D02*
D03*
X193268Y139261D02*
D03*
X193168Y139161D02*
D03*
X206268Y115861D02*
D03*
X176768Y110761D02*
D03*
D151*
X194518Y141261D02*
D03*
X193418Y139361D02*
D03*
D152*
X194468Y141161D02*
D03*
D153*
Y141061D02*
D03*
X176868Y110661D02*
D03*
D154*
X194518Y140961D02*
D03*
X193718Y139661D02*
D03*
X206418Y115661D02*
D03*
D155*
X194468Y140861D02*
D03*
X193868Y139761D02*
D03*
X176968Y110561D02*
D03*
D156*
X194518Y140761D02*
D03*
X193918Y139861D02*
D03*
D157*
X194468Y140661D02*
D03*
X194068Y139961D02*
D03*
X206468Y115561D02*
D03*
D158*
X194468Y140561D02*
D03*
Y140461D02*
D03*
X206568Y115461D02*
D03*
D159*
X194468Y140361D02*
D03*
X177068Y110361D02*
D03*
D160*
X194518Y140261D02*
D03*
X206618Y115361D02*
D03*
D161*
X194468Y140161D02*
D03*
D162*
X194218Y140061D02*
D03*
X177018Y110461D02*
D03*
D163*
X201868Y139961D02*
D03*
X202268Y139261D02*
D03*
X202968Y138061D02*
D03*
X203368Y137361D02*
D03*
X204068Y136161D02*
D03*
X204468Y135461D02*
D03*
X204768Y134961D02*
D03*
X205168Y134261D02*
D03*
X183568Y133661D02*
D03*
X205868Y133061D02*
D03*
X183168Y132961D02*
D03*
X182868Y132461D02*
D03*
X206268Y132361D02*
D03*
X206968Y131161D02*
D03*
X207368Y130461D02*
D03*
X207668Y129961D02*
D03*
X208068Y129261D02*
D03*
X208768Y128061D02*
D03*
X193068Y125661D02*
D03*
X190368Y119461D02*
D03*
X196868Y118361D02*
D03*
X198468Y118161D02*
D03*
Y118061D02*
D03*
X214568D02*
D03*
X196168Y117861D02*
D03*
X198568D02*
D03*
Y117761D02*
D03*
Y117661D02*
D03*
Y117561D02*
D03*
X214968Y117361D02*
D03*
X198168Y117161D02*
D03*
Y117061D02*
D03*
Y116961D02*
D03*
Y116861D02*
D03*
Y116761D02*
D03*
X215668Y116161D02*
D03*
X216368Y114961D02*
D03*
X216768Y114261D02*
D03*
X191768Y112861D02*
D03*
Y112761D02*
D03*
X190568Y112661D02*
D03*
X191668Y112561D02*
D03*
X192468Y112161D02*
D03*
X196268Y112061D02*
D03*
Y111961D02*
D03*
Y111861D02*
D03*
X192168Y111661D02*
D03*
X196168D02*
D03*
X192168Y111561D02*
D03*
Y111461D02*
D03*
X192268Y111261D02*
D03*
Y111161D02*
D03*
X195968D02*
D03*
X194350Y95550D02*
D03*
D164*
X193618Y139561D02*
D03*
X193518Y139461D02*
D03*
X206318Y115761D02*
D03*
D165*
X192718Y138761D02*
D03*
X176618Y110961D02*
D03*
D166*
X189918Y136261D02*
D03*
X205118Y117361D02*
D03*
X176818Y113761D02*
D03*
D167*
X188418Y134961D02*
D03*
D168*
X188218Y134761D02*
D03*
X204818Y117961D02*
D03*
X177118Y115661D02*
D03*
Y115561D02*
D03*
D169*
X188218Y134361D02*
D03*
X177418Y117361D02*
D03*
D170*
X188718Y132361D02*
D03*
X190618Y131361D02*
D03*
X184618Y130761D02*
D03*
X192318Y130461D02*
D03*
X192518Y130361D02*
D03*
X186118Y129961D02*
D03*
X194218Y129461D02*
D03*
X194418Y129361D02*
D03*
X187818Y129061D02*
D03*
X196118Y128461D02*
D03*
X196318Y128361D02*
D03*
X189318Y128261D02*
D03*
X208718Y127761D02*
D03*
X190818Y127461D02*
D03*
X198018D02*
D03*
X198218Y127361D02*
D03*
X192518Y126561D02*
D03*
X199918Y126461D02*
D03*
X200118Y126361D02*
D03*
X191718Y126161D02*
D03*
X194018Y125761D02*
D03*
X201818Y125461D02*
D03*
X202018Y125361D02*
D03*
X189418Y125261D02*
D03*
X203718Y124461D02*
D03*
X203918Y124361D02*
D03*
X197018Y124161D02*
D03*
X197218Y124061D02*
D03*
X198718Y123261D02*
D03*
X200218Y122461D02*
D03*
X201718Y121661D02*
D03*
X201918Y121561D02*
D03*
X203418Y120761D02*
D03*
X213718Y119161D02*
D03*
X190318Y118961D02*
D03*
X190418Y118761D02*
D03*
X190518Y118561D02*
D03*
X190618Y118261D02*
D03*
X190718Y117961D02*
D03*
Y117861D02*
D03*
X190818Y117661D02*
D03*
Y117561D02*
D03*
Y117461D02*
D03*
X190918Y117261D02*
D03*
Y117161D02*
D03*
Y117061D02*
D03*
Y115861D02*
D03*
X192718Y115661D02*
D03*
X191918Y113961D02*
D03*
X190718Y112961D02*
D03*
X191118Y111461D02*
D03*
Y111361D02*
D03*
X189318Y111261D02*
D03*
X193918Y109861D02*
D03*
X194300Y95050D02*
D03*
D171*
X182718Y131561D02*
D03*
X208618Y127461D02*
D03*
X191718Y125961D02*
D03*
X193518Y125361D02*
D03*
X189818Y121061D02*
D03*
X189718Y120861D02*
D03*
X189618Y120661D02*
D03*
X203518Y120561D02*
D03*
X189518Y120461D02*
D03*
X189418Y120361D02*
D03*
Y120261D02*
D03*
X189318Y120161D02*
D03*
Y120061D02*
D03*
X189218Y119961D02*
D03*
X189118Y119761D02*
D03*
X213118Y119661D02*
D03*
X213218Y119561D02*
D03*
X188718Y118861D02*
D03*
X189318Y115661D02*
D03*
Y115561D02*
D03*
X190218Y114161D02*
D03*
X190318Y113961D02*
D03*
X188918Y112361D02*
D03*
X189018Y112161D02*
D03*
X191018Y110661D02*
D03*
X194300Y94550D02*
D03*
Y94450D02*
D03*
D172*
X182118Y129261D02*
D03*
X182018Y129161D02*
D03*
Y129061D02*
D03*
X181918Y128861D02*
D03*
X208318Y126761D02*
D03*
X194300Y93150D02*
D03*
D173*
X181818Y128661D02*
D03*
X181718Y128461D02*
D03*
Y128361D02*
D03*
X181618Y128261D02*
D03*
Y128161D02*
D03*
X208318Y126661D02*
D03*
X194218Y125061D02*
D03*
X211618Y120861D02*
D03*
X203818Y119961D02*
D03*
X187418Y113561D02*
D03*
X194300Y92950D02*
D03*
D174*
X180918Y126561D02*
D03*
X180818Y126361D02*
D03*
Y126261D02*
D03*
X180718Y126161D02*
D03*
X193718Y122661D02*
D03*
X193618Y122461D02*
D03*
Y122361D02*
D03*
X211018Y121361D02*
D03*
X211118Y121261D02*
D03*
X193218Y119561D02*
D03*
Y119461D02*
D03*
D175*
X189768Y125461D02*
D03*
X190368Y119661D02*
D03*
Y119561D02*
D03*
D176*
X188518Y124761D02*
D03*
X185918Y118761D02*
D03*
Y118661D02*
D03*
X193118Y117861D02*
D03*
X191018Y110161D02*
D03*
X194300Y93750D02*
D03*
D177*
X208218Y124261D02*
D03*
X209018Y122961D02*
D03*
X204318Y118961D02*
D03*
D178*
X208218Y123661D02*
D03*
X208318Y123561D02*
D03*
X204518Y118661D02*
D03*
X177518Y118061D02*
D03*
D179*
X179518Y123461D02*
D03*
X179418Y123261D02*
D03*
Y123161D02*
D03*
X179318Y123061D02*
D03*
X179218Y122861D02*
D03*
X193018Y120461D02*
D03*
X204118Y119461D02*
D03*
D180*
X204718Y118161D02*
D03*
X177218Y116361D02*
D03*
Y116261D02*
D03*
D181*
X205918Y116361D02*
D03*
X176618Y111461D02*
D03*
D182*
X206718Y115261D02*
D03*
D183*
X206768Y115161D02*
D03*
X177268Y110161D02*
D03*
D184*
X206868Y115061D02*
D03*
X177468Y110261D02*
D03*
X177368Y110061D02*
D03*
D185*
X206868Y114961D02*
D03*
D186*
X206968Y114861D02*
D03*
D187*
X207018Y114761D02*
D03*
D188*
X207118Y114661D02*
D03*
D189*
X207168Y114561D02*
D03*
D190*
X207268Y114461D02*
D03*
D191*
X207318Y114361D02*
D03*
X177818Y109461D02*
D03*
D192*
X207418Y114261D02*
D03*
X177918Y109361D02*
D03*
D193*
X207468Y114161D02*
D03*
X177968Y109261D02*
D03*
D194*
X207518Y114061D02*
D03*
D195*
X207568Y113961D02*
D03*
D196*
X207868Y113861D02*
D03*
X178268Y108861D02*
D03*
D197*
X207818Y113761D02*
D03*
D198*
Y113661D02*
D03*
D199*
X207868Y113561D02*
D03*
D200*
X207818Y113461D02*
D03*
D201*
X207868Y113361D02*
D03*
D202*
X207818Y113261D02*
D03*
D203*
Y113161D02*
D03*
Y113061D02*
D03*
D204*
X176718D02*
D03*
D205*
X207818Y112961D02*
D03*
D206*
X207868Y112861D02*
D03*
D207*
X207818Y112761D02*
D03*
D208*
Y112661D02*
D03*
Y112561D02*
D03*
D209*
Y112461D02*
D03*
Y112361D02*
D03*
D210*
X176618Y112261D02*
D03*
D211*
X207818D02*
D03*
D212*
Y112161D02*
D03*
Y112061D02*
D03*
D213*
Y111961D02*
D03*
Y111861D02*
D03*
D214*
Y111761D02*
D03*
D215*
X207868Y111661D02*
D03*
D216*
X207818Y111561D02*
D03*
D217*
X207868Y111461D02*
D03*
D218*
X207818Y111361D02*
D03*
D219*
X207868Y111261D02*
D03*
D220*
X207818Y111161D02*
D03*
D221*
X207868Y111061D02*
D03*
D222*
Y110961D02*
D03*
Y110861D02*
D03*
D223*
Y110761D02*
D03*
Y110661D02*
D03*
D224*
Y110561D02*
D03*
D225*
Y110461D02*
D03*
D226*
X207818Y110361D02*
D03*
D227*
X207868Y110261D02*
D03*
D228*
X207818Y110161D02*
D03*
D229*
Y110061D02*
D03*
D230*
X177418Y109961D02*
D03*
D231*
X207768D02*
D03*
D232*
X177468Y109861D02*
D03*
D233*
X207768D02*
D03*
D234*
X177568Y109761D02*
D03*
D235*
X207768D02*
D03*
D236*
X177618Y109661D02*
D03*
D237*
X207718D02*
D03*
D238*
X177718Y109561D02*
D03*
D239*
X207718D02*
D03*
D240*
X207618Y109461D02*
D03*
D241*
X207568Y109361D02*
D03*
D242*
X207468Y109261D02*
D03*
D243*
X178018Y109161D02*
D03*
D244*
X207368D02*
D03*
D245*
X178118Y109061D02*
D03*
D246*
X204118D02*
D03*
D247*
X178168Y108961D02*
D03*
D248*
X204018D02*
D03*
D249*
Y108861D02*
D03*
D250*
X194468Y108761D02*
D03*
D251*
Y108661D02*
D03*
D252*
X194518Y108561D02*
D03*
D253*
X194468Y108461D02*
D03*
D254*
X194518Y108361D02*
D03*
D255*
X194468Y108261D02*
D03*
D256*
X194518Y108161D02*
D03*
D257*
X194468Y108061D02*
D03*
D258*
Y107961D02*
D03*
D259*
X194518Y107861D02*
D03*
D260*
X194468Y107761D02*
D03*
D261*
X194518Y107661D02*
D03*
D262*
X194468Y107561D02*
D03*
D263*
X194518Y107461D02*
D03*
D264*
X194468Y107361D02*
D03*
D265*
Y107261D02*
D03*
D266*
X194518Y107161D02*
D03*
D267*
X194468Y107061D02*
D03*
D268*
X194518Y106961D02*
D03*
Y106861D02*
D03*
D269*
X194450Y72000D02*
D03*
D270*
X194600Y51450D02*
D03*
D271*
X194550Y51350D02*
D03*
D272*
X194600Y51250D02*
D03*
D273*
X194550Y51150D02*
D03*
D274*
X194600Y51050D02*
D03*
D275*
X194550Y50950D02*
D03*
D276*
X194600Y50850D02*
D03*
D277*
Y50750D02*
D03*
Y50650D02*
D03*
D278*
Y50550D02*
D03*
Y50450D02*
D03*
D279*
Y50350D02*
D03*
Y50250D02*
D03*
D280*
Y50150D02*
D03*
Y50050D02*
D03*
D281*
X194550Y49950D02*
D03*
D299*
X464369Y75479D02*
G03*
X464369Y75479I-492J0D01*
G01*
X463769Y48979D02*
G03*
X463769Y48979I-492J0D01*
G01*
X463969Y96079D02*
G03*
X463969Y96079I-492J0D01*
G01*
X464369Y122979D02*
G03*
X464369Y122979I-492J0D01*
G01*
X403669Y48979D02*
G03*
X403669Y48979I-492J0D01*
G01*
X403769Y76179D02*
G03*
X403769Y76179I-492J0D01*
G01*
X404069Y123879D02*
G03*
X404069Y123879I-492J0D01*
G01*
X403869Y96679D02*
G03*
X403869Y96679I-492J0D01*
G01*
X343769Y49279D02*
G03*
X343769Y49279I-492J0D01*
G01*
X343369Y75779D02*
G03*
X343369Y75779I-492J0D01*
G01*
X343569Y123779D02*
G03*
X343569Y123779I-492J0D01*
G01*
X343969Y97579D02*
G03*
X343969Y97579I-492J0D01*
G01*
X282469Y76279D02*
G03*
X282469Y76279I-492J0D01*
G01*
X282669Y52079D02*
G03*
X282669Y52079I-492J0D01*
G01*
Y122379D02*
G03*
X282669Y122379I-492J0D01*
G01*
X282069Y98679D02*
G03*
X282069Y98679I-492J0D01*
G01*
X629771Y20123D02*
G03*
X629771Y20123I-492J0D01*
G01*
X597671D02*
G03*
X597671Y20123I-492J0D01*
G01*
X565271D02*
G03*
X565271Y20123I-492J0D01*
G01*
X534771D02*
G03*
X534771Y20123I-492J0D01*
G01*
X500071D02*
G03*
X500071Y20123I-492J0D01*
G01*
X583782Y93929D02*
G03*
X583782Y93929I-492J0D01*
G01*
X36801Y74672D02*
G03*
X36801Y74672I-492J0D01*
G01*
D300*
X580140Y101409D02*
G03*
X580140Y101409I-787J0D01*
G01*
D301*
X53300Y30900D02*
X51634D01*
X52467D01*
Y35898D01*
X53300Y35065D01*
X50868Y20500D02*
X54200D01*
X50868Y23832D01*
Y24665D01*
X51701Y25498D01*
X53367D01*
X54200Y24665D01*
X265201Y21100D02*
Y26098D01*
X267700Y23599D01*
X264368D01*
X262702Y25265D02*
X261869Y26098D01*
X260202D01*
X259369Y25265D01*
Y21933D01*
X260202Y21100D01*
X261869D01*
X262702Y21933D01*
Y25265D01*
X267400Y35765D02*
X266567Y36598D01*
X264901D01*
X264068Y35765D01*
Y34932D01*
X264901Y34099D01*
X265734D01*
X264901D01*
X264068Y33266D01*
Y32433D01*
X264901Y31600D01*
X266567D01*
X267400Y32433D01*
X262402D02*
X261569Y31600D01*
X259902D01*
X259069Y32433D01*
Y35765D01*
X259902Y36598D01*
X261569D01*
X262402Y35765D01*
Y34932D01*
X261569Y34099D01*
X259069D01*
M02*
