G04 Layer_Physical_Order=2*
G04 Layer_Color=16711680*
%FSLAX25Y25*%
%MOIN*%
G70*
G01*
G75*
%ADD11C,0.01000*%
%ADD12C,0.01500*%
%ADD13C,0.02500*%
%ADD14C,0.05906*%
%ADD15C,0.06000*%
%ADD16R,0.05906X0.05906*%
%ADD17C,0.05000*%
%ADD18R,0.05906X0.05906*%
%ADD19R,0.06000X0.06000*%
%ADD20C,0.44094*%
%ADD21C,0.03000*%
%ADD22R,0.03937X0.03740*%
%ADD23R,0.03543X0.03740*%
%ADD24R,0.03543X0.03740*%
%ADD25R,0.03740X0.03937*%
%ADD26R,0.03740X0.03543*%
%ADD27R,0.03740X0.03543*%
%ADD28O,0.01772X0.05512*%
%ADD29O,0.01378X0.06496*%
G04:AMPARAMS|DCode=30|XSize=59.84mil|YSize=78.74mil|CornerRadius=14.96mil|HoleSize=0mil|Usage=FLASHONLY|Rotation=0.000|XOffset=0mil|YOffset=0mil|HoleType=Round|Shape=RoundedRectangle|*
%AMROUNDEDRECTD30*
21,1,0.05984,0.04882,0,0,0.0*
21,1,0.02992,0.07874,0,0,0.0*
1,1,0.02992,0.01496,-0.02441*
1,1,0.02992,-0.01496,-0.02441*
1,1,0.02992,-0.01496,0.02441*
1,1,0.02992,0.01496,0.02441*
%
%ADD30ROUNDEDRECTD30*%
%ADD31C,0.01400*%
G36*
X692000Y1000D02*
X691000Y0D01*
X0D01*
Y1000D01*
Y157000D01*
X692000D01*
Y1000D01*
D02*
G37*
%LPC*%
G36*
X181300Y155630D02*
X180386Y155510D01*
X179535Y155157D01*
X178804Y154596D01*
X178243Y153865D01*
X177890Y153014D01*
X177770Y152100D01*
X177819Y151725D01*
X177489Y151349D01*
X166033D01*
X165276Y151855D01*
X164300Y152049D01*
X163742D01*
X163660Y152101D01*
X163065Y152557D01*
X162214Y152910D01*
X161300Y153030D01*
X160386Y152910D01*
X159535Y152557D01*
X158804Y151996D01*
X158243Y151265D01*
X157890Y150414D01*
X157770Y149500D01*
X157882Y148649D01*
X157826Y148455D01*
X157621Y148149D01*
X143742D01*
X143660Y148201D01*
X143065Y148657D01*
X142214Y149010D01*
X141300Y149130D01*
X140386Y149010D01*
X139535Y148657D01*
X138804Y148096D01*
X138243Y147365D01*
X137890Y146514D01*
X137770Y145600D01*
X137890Y144686D01*
X138243Y143835D01*
X138804Y143104D01*
X139535Y142543D01*
X140386Y142190D01*
X141300Y142070D01*
X142214Y142190D01*
X143065Y142543D01*
X143660Y142999D01*
X143742Y143051D01*
X172603D01*
X172932Y142675D01*
X172870Y142200D01*
X172990Y141286D01*
X173165Y140865D01*
X172887Y140449D01*
X158642D01*
X158560Y140501D01*
X157965Y140957D01*
X157114Y141310D01*
X156200Y141430D01*
X155286Y141310D01*
X154435Y140957D01*
X153704Y140396D01*
X153143Y139665D01*
X152790Y138814D01*
X152670Y137900D01*
X152790Y136986D01*
X153143Y136135D01*
X153704Y135404D01*
X154435Y134843D01*
X155286Y134490D01*
X156200Y134370D01*
X157114Y134490D01*
X157965Y134843D01*
X158560Y135299D01*
X158642Y135351D01*
X270728D01*
Y130549D01*
X269300D01*
X268324Y130355D01*
X267969Y130117D01*
X267469Y130384D01*
Y133618D01*
X259531D01*
Y132297D01*
X123594D01*
X123525Y132352D01*
X123341Y132446D01*
X123065Y132657D01*
X122214Y133010D01*
X121300Y133130D01*
X120386Y133010D01*
X119535Y132657D01*
X118804Y132096D01*
X118243Y131365D01*
X117890Y130514D01*
X117770Y129600D01*
X117890Y128686D01*
X118243Y127835D01*
X118804Y127104D01*
X119535Y126543D01*
X120386Y126190D01*
X121300Y126070D01*
X122214Y126190D01*
X123065Y126543D01*
X123796Y127104D01*
X123869Y127199D01*
X259531D01*
Y125878D01*
Y120849D01*
X139856D01*
X138302Y122402D01*
X137476Y122955D01*
X136500Y123149D01*
X136142D01*
X136060Y123201D01*
X135465Y123657D01*
X134614Y124010D01*
X133700Y124130D01*
X132786Y124010D01*
X131935Y123657D01*
X131204Y123096D01*
X130643Y122365D01*
X130290Y121514D01*
X130170Y120600D01*
X130290Y119686D01*
X130643Y118835D01*
X131204Y118104D01*
X131628Y117778D01*
X131458Y117278D01*
X102315D01*
X101514Y117610D01*
X100600Y117730D01*
X99686Y117610D01*
X99368Y117478D01*
X99200D01*
X98776Y117422D01*
X98352Y117366D01*
X97561Y117039D01*
X97166Y116736D01*
X96735Y116557D01*
X96004Y115996D01*
X95443Y115265D01*
X95394Y115147D01*
X94935Y114957D01*
X94204Y114396D01*
X93643Y113665D01*
X93290Y112814D01*
X93170Y111900D01*
X93290Y110986D01*
X93643Y110135D01*
X94204Y109404D01*
X94935Y108843D01*
X95786Y108490D01*
X96700Y108370D01*
X97614Y108490D01*
X98465Y108843D01*
X99196Y109404D01*
X99713Y110077D01*
X99947Y110311D01*
X100265Y110443D01*
X100567Y110674D01*
X100600Y110670D01*
X100996Y110722D01*
X102664D01*
X102855Y110260D01*
X96598Y104002D01*
X96045Y103175D01*
X95851Y102200D01*
Y51807D01*
X95389Y51616D01*
X73102Y73902D01*
X72276Y74455D01*
X71300Y74649D01*
X64368D01*
Y76018D01*
X62949D01*
Y77100D01*
X62755Y78075D01*
X62202Y78902D01*
X58902Y82202D01*
X58075Y82755D01*
X57100Y82949D01*
X45800D01*
X44824Y82755D01*
X44032Y82225D01*
X41223Y85034D01*
X41222Y85036D01*
Y89268D01*
X37059D01*
X36996Y89287D01*
X36949Y89783D01*
Y100182D01*
X38368D01*
Y106678D01*
Y114418D01*
X37676D01*
X37485Y114880D01*
X44302Y121698D01*
X44623Y122178D01*
X44774Y122203D01*
X45624Y121851D01*
X46537Y121730D01*
X49529D01*
X50442Y121851D01*
X51292Y122203D01*
X52023Y122763D01*
X52285Y123105D01*
X52915D01*
X53177Y122763D01*
X53908Y122203D01*
X54618Y121909D01*
Y120223D01*
X52498Y118102D01*
X51945Y117276D01*
X51751Y116300D01*
Y109046D01*
X50734Y108266D01*
X49933Y107222D01*
X49429Y106005D01*
X49257Y104700D01*
X49429Y103395D01*
X49933Y102178D01*
X50734Y101134D01*
X51778Y100332D01*
X52995Y99829D01*
X54300Y99657D01*
X55605Y99829D01*
X56822Y100332D01*
X57866Y101134D01*
X58667Y102178D01*
X59171Y103395D01*
X59343Y104700D01*
X59171Y106005D01*
X58667Y107222D01*
X57866Y108266D01*
X56849Y109046D01*
Y115244D01*
X58969Y117365D01*
X59522Y118192D01*
X59716Y119167D01*
Y121909D01*
X60426Y122203D01*
X61156Y122763D01*
X61717Y123494D01*
X62069Y124344D01*
X62189Y125257D01*
Y130139D01*
X62069Y131051D01*
X61717Y131902D01*
X61156Y132632D01*
X60426Y133192D01*
X59576Y133545D01*
X58663Y133665D01*
X55671D01*
X55234Y133607D01*
X55103Y134094D01*
X55859Y134408D01*
X56590Y134968D01*
X57150Y135698D01*
X57502Y136549D01*
X57622Y137461D01*
Y142343D01*
X57502Y143256D01*
X57150Y144106D01*
X56590Y144837D01*
X55859Y145397D01*
X55009Y145749D01*
X54096Y145870D01*
X51104D01*
X50191Y145749D01*
X49341Y145397D01*
X48610Y144837D01*
X48050Y144106D01*
X47698Y143256D01*
X47592Y142451D01*
X46402D01*
X45427Y142257D01*
X44600Y141705D01*
X40698Y137802D01*
X40145Y136976D01*
X39951Y136000D01*
Y124556D01*
X32598Y117202D01*
X32045Y116376D01*
X31851Y115400D01*
Y114418D01*
X30432D01*
Y106678D01*
Y100182D01*
X31851D01*
Y88252D01*
X32045Y87277D01*
X32598Y86450D01*
X33465Y85582D01*
X33482Y85521D01*
Y82549D01*
X17500D01*
X16524Y82355D01*
X15698Y81802D01*
X11173Y77278D01*
X10675Y77484D01*
X9500Y77639D01*
X8325Y77484D01*
X7231Y77031D01*
X6291Y76309D01*
X5569Y75369D01*
X5116Y74275D01*
X4961Y73100D01*
X5116Y71925D01*
X5569Y70831D01*
X6291Y69891D01*
X6451Y69767D01*
Y66318D01*
X5032D01*
Y58578D01*
X12968D01*
Y66318D01*
X11549D01*
Y69078D01*
X11769Y69169D01*
X12709Y69891D01*
X13431Y70831D01*
X13884Y71925D01*
X14014Y72909D01*
X14526Y73421D01*
X14974Y73200D01*
X14961Y73100D01*
X15116Y71925D01*
X15569Y70831D01*
X16291Y69891D01*
X17231Y69169D01*
X17351Y69119D01*
Y66318D01*
X15932D01*
Y58578D01*
X23868D01*
Y66318D01*
X22449D01*
Y69691D01*
X22709Y69891D01*
X23216Y70551D01*
X31344D01*
X32698Y69198D01*
X33525Y68645D01*
X34500Y68451D01*
X38500D01*
X39476Y68645D01*
X39683Y68783D01*
X39683Y68784D01*
X39687Y68787D01*
X40302Y69198D01*
X40579Y69474D01*
X41131Y69401D01*
X41833Y69494D01*
X42116Y69611D01*
X42398Y69494D01*
X43100Y69401D01*
X43802Y69494D01*
X44084Y69611D01*
X44366Y69494D01*
X45068Y69401D01*
X45770Y69494D01*
X46425Y69765D01*
X46986Y70196D01*
X47417Y70757D01*
X47688Y71411D01*
X47781Y72113D01*
Y72400D01*
X46650D01*
Y74700D01*
Y75800D01*
X47781D01*
Y77232D01*
X47749Y77475D01*
X48078Y77851D01*
X56044D01*
X57377Y76518D01*
X57170Y76018D01*
X56432D01*
Y67937D01*
X40163D01*
X39445Y67842D01*
X38776Y67565D01*
X38202Y67124D01*
X37202Y66124D01*
X36761Y65550D01*
X36484Y64881D01*
X36389Y64163D01*
X36440Y63780D01*
Y58728D01*
Y54791D01*
X32893Y51245D01*
X32587Y51009D01*
X32402Y50769D01*
X30678D01*
Y42832D01*
X31774D01*
Y41952D01*
X31869Y41234D01*
X32146Y40565D01*
X32587Y39991D01*
X35987Y36591D01*
X36561Y36150D01*
X37230Y35873D01*
X37948Y35778D01*
X39632D01*
Y34682D01*
X47569D01*
Y41178D01*
Y42451D01*
X48644D01*
X56347Y34748D01*
Y28447D01*
X59236D01*
X59336Y27947D01*
X58802Y27726D01*
X57768Y26932D01*
X56974Y25898D01*
X56475Y24693D01*
X56305Y23400D01*
X56475Y22107D01*
X56974Y20902D01*
X57768Y19868D01*
X58802Y19074D01*
X60007Y18575D01*
X61300Y18405D01*
X62529Y18566D01*
X74498Y6598D01*
X75324Y6045D01*
X76300Y5851D01*
X601173D01*
X602149Y6045D01*
X602976Y6598D01*
X615284Y18906D01*
X615303Y18904D01*
X615323Y18910D01*
X626018D01*
Y20288D01*
X633149D01*
Y27832D01*
X625409D01*
Y26847D01*
X611782D01*
Y22615D01*
X611781Y22613D01*
X600117Y10949D01*
X575380D01*
X575189Y11411D01*
X582684Y18906D01*
X582703Y18904D01*
X582723Y18910D01*
X593418D01*
Y20288D01*
X601049D01*
Y27832D01*
X593309D01*
Y26847D01*
X579182D01*
Y22615D01*
X579181Y22613D01*
X570317Y13749D01*
X546280D01*
X546089Y14211D01*
X550784Y18906D01*
X550803Y18904D01*
X550823Y18910D01*
X561518D01*
Y20288D01*
X568649D01*
Y27832D01*
X560909D01*
Y26847D01*
X547991D01*
Y31572D01*
X546670D01*
Y31879D01*
X546476Y32854D01*
X545924Y33681D01*
X543669Y35936D01*
Y39073D01*
X544130Y39265D01*
X544298Y39098D01*
X545124Y38545D01*
X545947Y38381D01*
Y35947D01*
X555853D01*
Y45853D01*
X552964D01*
X552864Y46353D01*
X553398Y46574D01*
X554432Y47368D01*
X555226Y48402D01*
X555725Y49607D01*
X555896Y50900D01*
X555725Y52193D01*
X555226Y53398D01*
X554432Y54432D01*
X553398Y55226D01*
X552193Y55725D01*
X550900Y55896D01*
X549607Y55725D01*
X548402Y55226D01*
X547368Y54432D01*
X546574Y53398D01*
X546075Y52193D01*
X545904Y50900D01*
X546075Y49607D01*
X546574Y48402D01*
X547368Y47368D01*
X548402Y46574D01*
X548936Y46353D01*
X548836Y45853D01*
X545947D01*
Y45311D01*
X545485Y45120D01*
X543669Y46936D01*
Y49317D01*
X535732D01*
Y41577D01*
Y35081D01*
X537508D01*
X537898Y34498D01*
X540419Y31976D01*
X540251Y31572D01*
X540251D01*
Y24028D01*
X547282D01*
Y22615D01*
X547281Y22613D01*
X541517Y16849D01*
X516980D01*
X516789Y17311D01*
X518384Y18906D01*
X518403Y18904D01*
X518423Y18910D01*
X529118D01*
Y20330D01*
X529879D01*
X530265Y20406D01*
X530409Y20288D01*
Y20288D01*
X538149D01*
Y27832D01*
X530409D01*
Y26479D01*
X530084Y26415D01*
X529618Y26103D01*
X529118Y26370D01*
Y26847D01*
X514882D01*
Y22615D01*
X514881Y22613D01*
X512017Y19749D01*
X495018D01*
Y20358D01*
X495506Y20455D01*
X495709Y20288D01*
Y20288D01*
X503449D01*
Y27832D01*
X495709D01*
Y26977D01*
X495209Y26715D01*
X495018Y26847D01*
Y26847D01*
X481159D01*
X480952Y27347D01*
X510056Y56451D01*
X552000D01*
X552976Y56645D01*
X553802Y57198D01*
X569424Y72819D01*
X569848Y72536D01*
X569590Y71914D01*
X569470Y71000D01*
X569590Y70086D01*
X569943Y69235D01*
X570504Y68504D01*
X571235Y67943D01*
X572086Y67590D01*
X572830Y67492D01*
X572924Y67471D01*
X578198Y62198D01*
X579025Y61645D01*
X580000Y61451D01*
X639000D01*
X639976Y61645D01*
X640802Y62198D01*
X651802Y73198D01*
X652355Y74024D01*
X652549Y75000D01*
Y76731D01*
X660523D01*
X660718Y76731D01*
Y76731D01*
X660982Y76832D01*
X660982Y76832D01*
X675218D01*
Y78255D01*
X676175Y78445D01*
X676506Y78666D01*
X676947Y78430D01*
Y77347D01*
X686853D01*
Y87253D01*
X676947D01*
Y84849D01*
X676700D01*
X675725Y84655D01*
X675594Y84568D01*
X675218Y84768D01*
Y84768D01*
X667317D01*
X667207Y85324D01*
X667068Y85682D01*
X667068Y85682D01*
X667068Y85682D01*
Y92178D01*
Y99918D01*
X659131D01*
Y98822D01*
X655868D01*
Y99718D01*
X647931D01*
Y98274D01*
X647587Y98009D01*
X644839Y95261D01*
X644398Y94687D01*
X644356Y94586D01*
X643861Y94699D01*
X643985Y96900D01*
X643834Y99597D01*
X643381Y102260D01*
X642634Y104855D01*
X641600Y107350D01*
X640294Y109714D01*
X638730Y111917D01*
X636931Y113931D01*
X634917Y115731D01*
X632714Y117294D01*
X630350Y118600D01*
X627855Y119634D01*
X625259Y120381D01*
X622597Y120834D01*
X619900Y120985D01*
X617203Y120834D01*
X614540Y120381D01*
X611945Y119634D01*
X609450Y118600D01*
X607086Y117294D01*
X604883Y115731D01*
X602869Y113931D01*
X601069Y111917D01*
X599507Y109714D01*
X598200Y107350D01*
X597166Y104855D01*
X596419Y102260D01*
X595966Y99597D01*
X595815Y96900D01*
X595966Y94203D01*
X596419Y91540D01*
X597166Y88945D01*
X598200Y86450D01*
X599507Y84086D01*
X601069Y81883D01*
X602869Y79869D01*
X604883Y78070D01*
X607086Y76507D01*
X609450Y75200D01*
X611945Y74166D01*
X614540Y73419D01*
X616571Y73074D01*
X616529Y72574D01*
X608849D01*
X592713Y88709D01*
X592139Y89150D01*
X591470Y89427D01*
X590752Y89522D01*
X589268D01*
Y90618D01*
X585353D01*
X583149Y92821D01*
Y95799D01*
X583050Y96553D01*
X582759Y97255D01*
X582297Y97857D01*
X581694Y98320D01*
X580992Y98611D01*
X580239Y98710D01*
X579485Y98611D01*
X578959Y98393D01*
X578433Y98611D01*
X577679Y98710D01*
X576926Y98611D01*
X576400Y98393D01*
X575874Y98611D01*
X575120Y98710D01*
X574367Y98611D01*
X573665Y98320D01*
X573062Y97857D01*
X572600Y97255D01*
X572309Y96553D01*
X572210Y95799D01*
Y92059D01*
X572309Y91306D01*
X572467Y90924D01*
X572198Y90655D01*
X571645Y89828D01*
X571451Y88853D01*
Y88521D01*
X570951Y88187D01*
X570414Y88410D01*
X569500Y88530D01*
X568586Y88410D01*
X567735Y88057D01*
X567004Y87496D01*
X566443Y86765D01*
X566090Y85914D01*
X566057Y85662D01*
X550980Y70585D01*
X550506Y70818D01*
X550530Y71000D01*
X550410Y71914D01*
X550057Y72765D01*
X549496Y73496D01*
X548765Y74057D01*
X547914Y74410D01*
X547000Y74530D01*
X546086Y74410D01*
X545235Y74057D01*
X544504Y73496D01*
X543943Y72765D01*
X543590Y71914D01*
X543492Y71170D01*
X543471Y71076D01*
X540944Y68549D01*
X505000D01*
X504025Y68355D01*
X503198Y67802D01*
X469544Y34149D01*
X266256D01*
X263316Y37089D01*
X263507Y37551D01*
X417700D01*
X418676Y37745D01*
X419502Y38298D01*
X434904Y53699D01*
X441131D01*
Y52378D01*
Y45882D01*
X449068D01*
Y49424D01*
X449074Y49441D01*
X449071Y49466D01*
X451656Y52051D01*
X455569D01*
Y45109D01*
X463112D01*
Y52849D01*
X461920D01*
X461855Y53175D01*
X461302Y54002D01*
X459532Y55772D01*
X459740Y56272D01*
X464231D01*
Y52978D01*
Y46482D01*
X472168D01*
Y47803D01*
X472296D01*
X473272Y47997D01*
X474098Y48550D01*
X477305Y51756D01*
X477388D01*
X477444Y51754D01*
X477450Y51756D01*
X483700D01*
Y61756D01*
X481001D01*
X480902Y62256D01*
X481222Y62388D01*
X482266Y63190D01*
X483068Y64234D01*
X483571Y65451D01*
X483743Y66756D01*
X483571Y68061D01*
X483068Y69278D01*
X482266Y70322D01*
X481222Y71123D01*
X480348Y71485D01*
Y72026D01*
X481222Y72388D01*
X482266Y73190D01*
X483068Y74234D01*
X483571Y75451D01*
X483743Y76756D01*
X483571Y78061D01*
X483068Y79277D01*
X482266Y80322D01*
X481222Y81123D01*
X480005Y81627D01*
X478700Y81799D01*
X477395Y81627D01*
X476178Y81123D01*
X475134Y80322D01*
X474504Y79501D01*
X472868D01*
Y87318D01*
X468538D01*
X468002Y87676D01*
X467027Y87870D01*
X459972D01*
Y89191D01*
X452428D01*
Y83549D01*
X450900D01*
X450269Y83423D01*
X449768Y83806D01*
Y87018D01*
X445536D01*
X445534Y87019D01*
X438950Y93602D01*
X438124Y94155D01*
X437148Y94349D01*
X412569D01*
Y95403D01*
X415452D01*
X416427Y95597D01*
X417254Y96150D01*
X420002Y98898D01*
X420071Y99000D01*
X423200D01*
Y106551D01*
X424644D01*
X429250Y101946D01*
X430077Y101393D01*
X431052Y101199D01*
X441432D01*
Y99878D01*
Y93382D01*
X449368D01*
Y96864D01*
X451556Y99051D01*
X455444D01*
X455768Y98727D01*
Y92209D01*
X463312D01*
Y99949D01*
X461619D01*
X461343Y100362D01*
X459572Y102133D01*
Y103372D01*
X464632D01*
Y99878D01*
Y93382D01*
X472569D01*
Y94703D01*
X475252D01*
X476227Y94897D01*
X477054Y95450D01*
X480502Y98898D01*
X480571Y99000D01*
X483700D01*
Y109000D01*
X481001D01*
X480902Y109500D01*
X481222Y109633D01*
X482266Y110434D01*
X483068Y111478D01*
X483571Y112695D01*
X483743Y114000D01*
X483571Y115305D01*
X483068Y116522D01*
X482266Y117566D01*
X481222Y118368D01*
X480348Y118729D01*
Y119271D01*
X481222Y119632D01*
X482266Y120434D01*
X483068Y121478D01*
X483571Y122695D01*
X483743Y124000D01*
X483571Y125305D01*
X483068Y126522D01*
X482266Y127566D01*
X481222Y128367D01*
X480005Y128871D01*
X478700Y129043D01*
X477395Y128871D01*
X476178Y128367D01*
X475134Y127566D01*
X474700Y127001D01*
X472868D01*
Y134818D01*
X468538D01*
X468002Y135176D01*
X467027Y135370D01*
X459972D01*
Y136691D01*
X452428D01*
Y131049D01*
X451000D01*
X450269Y130903D01*
X449768Y131239D01*
Y134318D01*
X445536D01*
X445534Y134319D01*
X425950Y153902D01*
X425124Y154455D01*
X424148Y154649D01*
X183741D01*
X183660Y154701D01*
X183065Y155157D01*
X182214Y155510D01*
X181300Y155630D01*
D02*
G37*
G36*
X595700Y139696D02*
X594407Y139525D01*
X593202Y139026D01*
X592168Y138232D01*
X591374Y137198D01*
X590875Y135993D01*
X590717Y134797D01*
X588369D01*
Y136118D01*
X580432D01*
Y134797D01*
X579848D01*
X578873Y134603D01*
X578046Y134050D01*
X575877Y131882D01*
X575325Y131055D01*
X575131Y130079D01*
Y129913D01*
X574631Y129762D01*
X574202Y130402D01*
X571691Y132914D01*
X571668Y132943D01*
Y136218D01*
X563731D01*
Y134897D01*
X561984D01*
X561978Y134912D01*
X561927Y135079D01*
X561925Y135093D01*
X561916Y135116D01*
X561903Y135160D01*
X561882Y135198D01*
X561426Y136298D01*
X560632Y137332D01*
X559598Y138126D01*
X558393Y138625D01*
X557100Y138795D01*
X555807Y138625D01*
X554602Y138126D01*
X553568Y137332D01*
X552774Y136298D01*
X552275Y135093D01*
X552105Y133800D01*
X552275Y132507D01*
X552774Y131302D01*
X553568Y130268D01*
X554602Y129474D01*
X555136Y129253D01*
X555036Y128753D01*
X552147D01*
Y118847D01*
X562053D01*
Y123303D01*
X563731D01*
Y121982D01*
X565151D01*
Y114932D01*
X565345Y113957D01*
X565898Y113130D01*
X569644Y109383D01*
X569651Y109375D01*
Y108201D01*
X569750Y107447D01*
X570041Y106745D01*
X570503Y106143D01*
X571106Y105680D01*
X571808Y105389D01*
X572561Y105290D01*
X573315Y105389D01*
X573841Y105607D01*
X574367Y105389D01*
X575120Y105290D01*
X575874Y105389D01*
X576400Y105607D01*
X576926Y105389D01*
X577679Y105290D01*
X578433Y105389D01*
X578959Y105607D01*
X579485Y105389D01*
X580239Y105290D01*
X580992Y105389D01*
X581694Y105680D01*
X582297Y106143D01*
X582759Y106745D01*
X583050Y107447D01*
X583149Y108201D01*
Y111941D01*
X583050Y112694D01*
X582788Y113328D01*
Y121882D01*
X588369D01*
Y123203D01*
X590747D01*
Y119747D01*
X600653D01*
Y129653D01*
X597764D01*
X597664Y130153D01*
X598198Y130374D01*
X599232Y131168D01*
X600026Y132202D01*
X600525Y133407D01*
X600696Y134700D01*
X600525Y135993D01*
X600026Y137198D01*
X599232Y138232D01*
X598198Y139026D01*
X596993Y139525D01*
X595700Y139696D01*
D02*
G37*
G36*
X673000Y145944D02*
X671450Y145791D01*
X669960Y145339D01*
X668587Y144605D01*
X667383Y143617D01*
X666395Y142413D01*
X665661Y141040D01*
X665209Y139550D01*
X665056Y138000D01*
X665209Y136450D01*
X665661Y134960D01*
X666395Y133587D01*
X667383Y132383D01*
X668587Y131395D01*
X669960Y130661D01*
X671450Y130209D01*
X673000Y130056D01*
X674550Y130209D01*
X676040Y130661D01*
X677413Y131395D01*
X678617Y132383D01*
X679605Y133587D01*
X680339Y134960D01*
X680791Y136450D01*
X680944Y138000D01*
X680791Y139550D01*
X680339Y141040D01*
X679605Y142413D01*
X678617Y143617D01*
X677413Y144605D01*
X676040Y145339D01*
X674550Y145791D01*
X673000Y145944D01*
D02*
G37*
G36*
X20000D02*
X18450Y145791D01*
X16960Y145339D01*
X15587Y144605D01*
X14383Y143617D01*
X13395Y142413D01*
X12661Y141040D01*
X12209Y139550D01*
X12056Y138000D01*
X12209Y136450D01*
X12661Y134960D01*
X13395Y133587D01*
X14383Y132383D01*
X15587Y131395D01*
X16960Y130661D01*
X18450Y130209D01*
X20000Y130056D01*
X21550Y130209D01*
X23040Y130661D01*
X24413Y131395D01*
X25617Y132383D01*
X26605Y133587D01*
X27339Y134960D01*
X27791Y136450D01*
X27944Y138000D01*
X27791Y139550D01*
X27339Y141040D01*
X26605Y142413D01*
X25617Y143617D01*
X24413Y144605D01*
X23040Y145339D01*
X21550Y145791D01*
X20000Y145944D01*
D02*
G37*
G36*
X534000Y120985D02*
X531303Y120834D01*
X528641Y120381D01*
X526045Y119634D01*
X523550Y118600D01*
X521186Y117294D01*
X518983Y115731D01*
X516969Y113931D01*
X515169Y111917D01*
X513607Y109714D01*
X512300Y107350D01*
X511266Y104855D01*
X510519Y102260D01*
X510066Y99597D01*
X509915Y96900D01*
X510066Y94203D01*
X510519Y91540D01*
X511266Y88945D01*
X512300Y86450D01*
X513607Y84086D01*
X515169Y81883D01*
X516969Y79869D01*
X518983Y78070D01*
X521186Y76507D01*
X523550Y75200D01*
X526045Y74166D01*
X528641Y73419D01*
X531303Y72966D01*
X534000Y72815D01*
X536697Y72966D01*
X539360Y73419D01*
X541955Y74166D01*
X544450Y75200D01*
X546814Y76507D01*
X549017Y78070D01*
X551031Y79869D01*
X552831Y81883D01*
X554393Y84086D01*
X555700Y86450D01*
X556734Y88945D01*
X557481Y91540D01*
X557934Y94203D01*
X558085Y96900D01*
X557934Y99597D01*
X557481Y102260D01*
X556734Y104855D01*
X555700Y107350D01*
X554393Y109714D01*
X552831Y111917D01*
X551031Y113931D01*
X549017Y115731D01*
X546814Y117294D01*
X544450Y118600D01*
X541955Y119634D01*
X539360Y120381D01*
X536697Y120834D01*
X534000Y120985D01*
D02*
G37*
G36*
X646800Y55896D02*
X645507Y55725D01*
X644302Y55226D01*
X643268Y54432D01*
X642474Y53398D01*
X641975Y52193D01*
X641805Y50900D01*
X641975Y49607D01*
X642474Y48402D01*
X643268Y47368D01*
X644302Y46574D01*
X644836Y46353D01*
X644736Y45853D01*
X641847D01*
X641847Y45853D01*
Y45853D01*
X641475Y46130D01*
X640355Y47250D01*
X639669Y47708D01*
Y49317D01*
X631732D01*
Y41577D01*
Y35081D01*
X633195D01*
X633345Y34324D01*
X633898Y33498D01*
X635419Y31976D01*
X635251Y31572D01*
X635251D01*
Y24028D01*
X642991D01*
Y31572D01*
X641670D01*
Y31879D01*
X641476Y32854D01*
X640924Y33681D01*
X639915Y34690D01*
X639669Y35081D01*
X639669D01*
X639669Y35081D01*
Y40073D01*
X640130Y40265D01*
X641298Y39098D01*
X641847Y38730D01*
Y35947D01*
X651753D01*
Y45853D01*
X648864D01*
X648764Y46353D01*
X649298Y46574D01*
X650332Y47368D01*
X651126Y48402D01*
X651625Y49607D01*
X651795Y50900D01*
X651625Y52193D01*
X651126Y53398D01*
X650332Y54432D01*
X649298Y55226D01*
X648093Y55725D01*
X646800Y55896D01*
D02*
G37*
G36*
X616600D02*
X615307Y55725D01*
X614102Y55226D01*
X613068Y54432D01*
X612274Y53398D01*
X611775Y52193D01*
X611604Y50900D01*
X611775Y49607D01*
X612274Y48402D01*
X613068Y47368D01*
X614102Y46574D01*
X614636Y46353D01*
X614536Y45853D01*
X611752D01*
X610355Y47250D01*
X610069Y47441D01*
Y49317D01*
X602132D01*
Y41577D01*
Y35081D01*
X603551D01*
Y31572D01*
X603151D01*
Y29704D01*
X603124Y29572D01*
X603149Y29445D01*
X603139Y29316D01*
X603151Y29277D01*
Y24028D01*
X610891D01*
Y31572D01*
X608649D01*
Y35081D01*
X610069D01*
Y39673D01*
X610530Y39865D01*
X611298Y39098D01*
X611647Y38864D01*
Y35947D01*
X621553D01*
Y45853D01*
X618664D01*
X618564Y46353D01*
X619098Y46574D01*
X620132Y47368D01*
X620926Y48402D01*
X621425Y49607D01*
X621595Y50900D01*
X621425Y52193D01*
X620926Y53398D01*
X620132Y54432D01*
X619098Y55226D01*
X617893Y55725D01*
X616600Y55896D01*
D02*
G37*
G36*
X584000D02*
X582707Y55725D01*
X581502Y55226D01*
X580468Y54432D01*
X579674Y53398D01*
X579175Y52193D01*
X579004Y50900D01*
X579175Y49607D01*
X579674Y48402D01*
X580468Y47368D01*
X581502Y46574D01*
X582036Y46353D01*
X581936Y45853D01*
X579047D01*
X579047Y45853D01*
Y45853D01*
X578599Y46006D01*
X577355Y47250D01*
X576768Y47642D01*
Y49317D01*
X568831D01*
Y41577D01*
Y35081D01*
X570251D01*
Y34200D01*
X570445Y33224D01*
X570998Y32398D01*
X571362Y32034D01*
X571170Y31572D01*
X570751D01*
Y24028D01*
X578491D01*
Y31572D01*
X577549D01*
Y32000D01*
X577355Y32976D01*
X576802Y33802D01*
X575986Y34619D01*
X576177Y35081D01*
X576768D01*
Y39973D01*
X577230Y40165D01*
X578298Y39098D01*
X579047Y38597D01*
Y35947D01*
X588953D01*
Y45853D01*
X586064D01*
X585964Y46353D01*
X586498Y46574D01*
X587532Y47368D01*
X588326Y48402D01*
X588825Y49607D01*
X588996Y50900D01*
X588825Y52193D01*
X588326Y53398D01*
X587532Y54432D01*
X586498Y55226D01*
X585293Y55725D01*
X584000Y55896D01*
D02*
G37*
G36*
X521600D02*
X520307Y55725D01*
X519102Y55226D01*
X518068Y54432D01*
X517274Y53398D01*
X516775Y52193D01*
X516605Y50900D01*
X516775Y49607D01*
X517274Y48402D01*
X518068Y47368D01*
X519102Y46574D01*
X519636Y46353D01*
X519536Y45853D01*
X516752D01*
X515355Y47250D01*
X514528Y47802D01*
X513553Y47996D01*
X512968D01*
Y49317D01*
X505031D01*
Y41577D01*
Y35081D01*
X506451D01*
Y31572D01*
X505551D01*
Y24028D01*
X513291D01*
Y31572D01*
X511549D01*
Y35081D01*
X512968D01*
Y41773D01*
X513430Y41965D01*
X516298Y39098D01*
X516647Y38864D01*
Y35947D01*
X526553D01*
Y45853D01*
X523664D01*
X523564Y46353D01*
X524098Y46574D01*
X525132Y47368D01*
X525926Y48402D01*
X526425Y49607D01*
X526595Y50900D01*
X526425Y52193D01*
X525926Y53398D01*
X525132Y54432D01*
X524098Y55226D01*
X522893Y55725D01*
X521600Y55896D01*
D02*
G37*
G36*
X673000Y27944D02*
X671450Y27791D01*
X669960Y27339D01*
X668587Y26605D01*
X667383Y25617D01*
X666395Y24413D01*
X665661Y23040D01*
X665209Y21550D01*
X665056Y20000D01*
X665209Y18450D01*
X665661Y16960D01*
X666395Y15587D01*
X667383Y14383D01*
X668587Y13395D01*
X669960Y12661D01*
X671450Y12209D01*
X673000Y12056D01*
X674550Y12209D01*
X676040Y12661D01*
X677413Y13395D01*
X678617Y14383D01*
X679605Y15587D01*
X680339Y16960D01*
X680791Y18450D01*
X680944Y20000D01*
X680791Y21550D01*
X680339Y23040D01*
X679605Y24413D01*
X678617Y25617D01*
X677413Y26605D01*
X676040Y27339D01*
X674550Y27791D01*
X673000Y27944D01*
D02*
G37*
G36*
X20000D02*
X18450Y27791D01*
X16960Y27339D01*
X15587Y26605D01*
X14383Y25617D01*
X13395Y24413D01*
X12661Y23040D01*
X12209Y21550D01*
X12056Y20000D01*
X12209Y18450D01*
X12661Y16960D01*
X13395Y15587D01*
X14383Y14383D01*
X15587Y13395D01*
X16960Y12661D01*
X18450Y12209D01*
X20000Y12056D01*
X21550Y12209D01*
X23040Y12661D01*
X24413Y13395D01*
X25617Y14383D01*
X26605Y15587D01*
X27339Y16960D01*
X27791Y18450D01*
X27944Y20000D01*
X27791Y21550D01*
X27339Y23040D01*
X26605Y24413D01*
X25617Y25617D01*
X24413Y26605D01*
X23040Y27339D01*
X21550Y27791D01*
X20000Y27944D01*
D02*
G37*
%LPD*%
G36*
X182481Y153045D02*
X182594Y152952D01*
X182710Y152869D01*
X182829Y152798D01*
X182951Y152737D01*
X183078Y152688D01*
X183207Y152649D01*
X183339Y152622D01*
X183475Y152605D01*
X183614Y152600D01*
Y151600D01*
X183475Y151594D01*
X183339Y151578D01*
X183207Y151550D01*
X183078Y151512D01*
X182951Y151462D01*
X182829Y151402D01*
X182710Y151330D01*
X182594Y151248D01*
X182481Y151154D01*
X182371Y151050D01*
Y153150D01*
X182481Y153045D01*
D02*
G37*
G36*
X162481Y150445D02*
X162593Y150352D01*
X162709Y150269D01*
X162829Y150198D01*
X162952Y150137D01*
X163077Y150088D01*
X163207Y150049D01*
X163339Y150022D01*
X163475Y150005D01*
X163614Y150000D01*
Y149000D01*
X163475Y148995D01*
X163339Y148978D01*
X163207Y148951D01*
X163077Y148912D01*
X162952Y148863D01*
X162829Y148802D01*
X162709Y148731D01*
X162593Y148648D01*
X162481Y148555D01*
X162371Y148450D01*
Y150550D01*
X162481Y150445D01*
D02*
G37*
G36*
X142481Y146546D02*
X142594Y146452D01*
X142710Y146370D01*
X142829Y146298D01*
X142952Y146238D01*
X143078Y146188D01*
X143207Y146150D01*
X143339Y146122D01*
X143475Y146106D01*
X143614Y146100D01*
Y145100D01*
X143475Y145095D01*
X143339Y145078D01*
X143207Y145051D01*
X143078Y145012D01*
X142952Y144963D01*
X142829Y144902D01*
X142710Y144831D01*
X142594Y144748D01*
X142481Y144655D01*
X142371Y144550D01*
Y146650D01*
X142481Y146546D01*
D02*
G37*
G36*
X177581Y143146D02*
X177693Y143052D01*
X177810Y142970D01*
X177929Y142898D01*
X178051Y142838D01*
X178177Y142788D01*
X178307Y142750D01*
X178439Y142722D01*
X178575Y142706D01*
X178714Y142700D01*
Y141700D01*
X178575Y141694D01*
X178439Y141678D01*
X178307Y141650D01*
X178177Y141612D01*
X178051Y141562D01*
X177929Y141502D01*
X177810Y141430D01*
X177693Y141348D01*
X177581Y141254D01*
X177471Y141150D01*
Y143250D01*
X177581Y143146D01*
D02*
G37*
G36*
X49619Y138902D02*
X49609Y138997D01*
X49579Y139082D01*
X49528Y139157D01*
X49457Y139222D01*
X49366Y139277D01*
X49255Y139322D01*
X49123Y139357D01*
X48971Y139382D01*
X48799Y139397D01*
X48607Y139402D01*
Y140402D01*
X48799Y140407D01*
X48971Y140422D01*
X49123Y140447D01*
X49255Y140482D01*
X49366Y140527D01*
X49457Y140582D01*
X49528Y140647D01*
X49579Y140722D01*
X49609Y140807D01*
X49619Y140902D01*
Y138902D01*
D02*
G37*
G36*
X157381Y138846D02*
X157493Y138752D01*
X157609Y138670D01*
X157729Y138598D01*
X157852Y138538D01*
X157977Y138488D01*
X158107Y138450D01*
X158239Y138422D01*
X158375Y138406D01*
X158514Y138400D01*
Y137400D01*
X158375Y137394D01*
X158239Y137378D01*
X158107Y137350D01*
X157977Y137312D01*
X157852Y137262D01*
X157729Y137202D01*
X157609Y137130D01*
X157493Y137048D01*
X157381Y136954D01*
X157271Y136850D01*
Y138950D01*
X157381Y138846D01*
D02*
G37*
G36*
X397658Y134626D02*
X397688Y134541D01*
X397739Y134466D01*
X397810Y134401D01*
X397901Y134346D01*
X398012Y134301D01*
X398144Y134266D01*
X398295Y134241D01*
X398467Y134226D01*
X398660Y134221D01*
Y133221D01*
X398467Y133216D01*
X398295Y133201D01*
X398144Y133176D01*
X398012Y133141D01*
X397901Y133096D01*
X397810Y133041D01*
X397739Y132976D01*
X397688Y132901D01*
X397658Y132816D01*
X397648Y132721D01*
Y134721D01*
X397658Y134626D01*
D02*
G37*
G36*
X337158Y134526D02*
X337188Y134441D01*
X337239Y134366D01*
X337310Y134301D01*
X337401Y134246D01*
X337512Y134201D01*
X337644Y134166D01*
X337795Y134141D01*
X337967Y134126D01*
X338160Y134121D01*
Y133121D01*
X337967Y133116D01*
X337795Y133101D01*
X337644Y133076D01*
X337512Y133041D01*
X337401Y132996D01*
X337310Y132941D01*
X337239Y132876D01*
X337188Y132801D01*
X337158Y132716D01*
X337148Y132621D01*
Y134621D01*
X337158Y134526D01*
D02*
G37*
G36*
X323144Y133918D02*
X323507Y133611D01*
X323669Y133498D01*
X323817Y133412D01*
X323951Y133354D01*
X324073Y133323D01*
X324181Y133319D01*
X324275Y133343D01*
X324356Y133394D01*
X322855Y132090D01*
X322915Y132163D01*
X322946Y132250D01*
X322947Y132353D01*
X322919Y132472D01*
X322862Y132605D01*
X322775Y132755D01*
X322659Y132919D01*
X322514Y133099D01*
X322136Y133504D01*
X322942Y134113D01*
X323144Y133918D01*
D02*
G37*
G36*
X383944Y133718D02*
X384307Y133411D01*
X384469Y133298D01*
X384617Y133212D01*
X384751Y133154D01*
X384873Y133123D01*
X384981Y133119D01*
X385075Y133143D01*
X385156Y133194D01*
X383656Y131890D01*
X383715Y131963D01*
X383746Y132050D01*
X383747Y132153D01*
X383719Y132272D01*
X383662Y132405D01*
X383575Y132554D01*
X383459Y132719D01*
X383314Y132899D01*
X382936Y133305D01*
X383742Y133913D01*
X383944Y133718D01*
D02*
G37*
G36*
X457958Y133726D02*
X457988Y133641D01*
X458039Y133566D01*
X458110Y133501D01*
X458201Y133446D01*
X458312Y133401D01*
X458443Y133366D01*
X458595Y133341D01*
X458767Y133326D01*
X458960Y133321D01*
Y132321D01*
X458767Y132316D01*
X458595Y132301D01*
X458443Y132276D01*
X458312Y132241D01*
X458201Y132196D01*
X458110Y132141D01*
X458039Y132076D01*
X457988Y132001D01*
X457958Y131916D01*
X457948Y131821D01*
Y133821D01*
X457958Y133726D01*
D02*
G37*
G36*
X406943Y133420D02*
X407304Y133114D01*
X407466Y133003D01*
X407614Y132918D01*
X407748Y132861D01*
X407870Y132832D01*
X407978Y132829D01*
X408074Y132854D01*
X408156Y132906D01*
X406643Y131590D01*
X406705Y131664D01*
X406736Y131752D01*
X406739Y131856D01*
X406712Y131974D01*
X406656Y132108D01*
X406570Y132257D01*
X406456Y132421D01*
X406312Y132601D01*
X405936Y133004D01*
X406742Y133613D01*
X406943Y133420D01*
D02*
G37*
G36*
X346543D02*
X346904Y133114D01*
X347065Y133003D01*
X347214Y132918D01*
X347348Y132861D01*
X347470Y132832D01*
X347579Y132829D01*
X347674Y132854D01*
X347756Y132906D01*
X346244Y131590D01*
X346304Y131664D01*
X346336Y131752D01*
X346339Y131856D01*
X346312Y131974D01*
X346256Y132108D01*
X346170Y132257D01*
X346056Y132421D01*
X345912Y132601D01*
X345536Y133004D01*
X346342Y133613D01*
X346543Y133420D01*
D02*
G37*
G36*
X276258Y133126D02*
X276288Y133041D01*
X276339Y132966D01*
X276410Y132901D01*
X276501Y132846D01*
X276612Y132801D01*
X276744Y132766D01*
X276895Y132741D01*
X277067Y132726D01*
X277260Y132721D01*
Y131721D01*
X277067Y131716D01*
X276895Y131701D01*
X276744Y131676D01*
X276612Y131641D01*
X276501Y131596D01*
X276410Y131541D01*
X276339Y131476D01*
X276288Y131401D01*
X276258Y131316D01*
X276248Y131221D01*
Y133221D01*
X276258Y133126D01*
D02*
G37*
G36*
X444144Y132818D02*
X444507Y132511D01*
X444668Y132398D01*
X444817Y132312D01*
X444951Y132254D01*
X445073Y132223D01*
X445181Y132220D01*
X445275Y132243D01*
X445356Y132294D01*
X443855Y130990D01*
X443915Y131063D01*
X443946Y131150D01*
X443947Y131253D01*
X443919Y131372D01*
X443862Y131505D01*
X443775Y131655D01*
X443659Y131819D01*
X443514Y131999D01*
X443136Y132404D01*
X443942Y133013D01*
X444144Y132818D01*
D02*
G37*
G36*
X285506Y132253D02*
X285916Y131890D01*
X286026Y131810D01*
X286122Y131749D01*
X286205Y131708D01*
X286274Y131688D01*
X286330Y131687D01*
X286372Y131706D01*
X285244Y130774D01*
X285268Y130811D01*
X285272Y130862D01*
X285254Y130928D01*
X285215Y131009D01*
X285155Y131105D01*
X285074Y131215D01*
X284848Y131480D01*
X284536Y131805D01*
X285342Y132413D01*
X285506Y132253D01*
D02*
G37*
G36*
X261556Y128748D02*
X261545Y128843D01*
X261515Y128928D01*
X261464Y129003D01*
X261394Y129068D01*
X261302Y129123D01*
X261191Y129168D01*
X261060Y129203D01*
X260908Y129228D01*
X260736Y129243D01*
X260543Y129248D01*
Y130248D01*
X260736Y130253D01*
X260908Y130268D01*
X261060Y130293D01*
X261191Y130328D01*
X261302Y130373D01*
X261394Y130428D01*
X261464Y130493D01*
X261515Y130568D01*
X261545Y130653D01*
X261556Y130748D01*
Y128748D01*
D02*
G37*
G36*
X122383Y130655D02*
X122506Y130570D01*
X122631Y130494D01*
X122757Y130429D01*
X122885Y130374D01*
X123015Y130328D01*
X123147Y130293D01*
X123281Y130268D01*
X123416Y130253D01*
X123553Y130248D01*
X123658Y129248D01*
X123517Y129242D01*
X123381Y129225D01*
X123250Y129195D01*
X123124Y129154D01*
X123003Y129101D01*
X122886Y129037D01*
X122775Y128960D01*
X122668Y128872D01*
X122566Y128772D01*
X122470Y128661D01*
X122262Y130751D01*
X122383Y130655D01*
D02*
G37*
G36*
X327464Y125956D02*
X327328Y125814D01*
X327206Y125671D01*
X327098Y125529D01*
X327005Y125387D01*
X326926Y125245D01*
X326861Y125104D01*
X326811Y124963D01*
X326774Y124822D01*
X326752Y124682D01*
X326745Y124542D01*
X326757Y126910D01*
X326764Y126870D01*
X326785Y126850D01*
X326820Y126848D01*
X326870Y126865D01*
X326933Y126902D01*
X327011Y126958D01*
X327103Y127032D01*
X327329Y127239D01*
X327464Y127371D01*
Y125956D01*
D02*
G37*
G36*
X388264Y126156D02*
X388089Y125975D01*
X387808Y125639D01*
X387702Y125484D01*
X387619Y125338D01*
X387559Y125201D01*
X387521Y125073D01*
X387506Y124954D01*
X387514Y124844D01*
X387544Y124742D01*
X386696Y126698D01*
X386748Y126618D01*
X386820Y126572D01*
X386912Y126559D01*
X387023Y126580D01*
X387155Y126635D01*
X387306Y126724D01*
X387477Y126847D01*
X387668Y127003D01*
X388110Y127417D01*
X388264Y126156D01*
D02*
G37*
G36*
X448464Y125257D02*
X448289Y125075D01*
X448008Y124739D01*
X447902Y124584D01*
X447819Y124438D01*
X447759Y124301D01*
X447721Y124173D01*
X447706Y124054D01*
X447714Y123944D01*
X447745Y123842D01*
X446896Y125798D01*
X446948Y125718D01*
X447020Y125672D01*
X447112Y125659D01*
X447223Y125680D01*
X447355Y125735D01*
X447506Y125824D01*
X447677Y125947D01*
X447868Y126103D01*
X448310Y126517D01*
X448464Y125257D01*
D02*
G37*
G36*
X266164Y124156D02*
X266028Y124014D01*
X265906Y123871D01*
X265798Y123729D01*
X265705Y123587D01*
X265626Y123445D01*
X265561Y123304D01*
X265511Y123163D01*
X265474Y123022D01*
X265452Y122882D01*
X265444Y122742D01*
X265457Y125110D01*
X265464Y125070D01*
X265485Y125050D01*
X265520Y125048D01*
X265570Y125066D01*
X265633Y125102D01*
X265711Y125158D01*
X265803Y125232D01*
X266029Y125439D01*
X266164Y125571D01*
Y124156D01*
D02*
G37*
G36*
X278743Y124904D02*
X278769Y124640D01*
X278792Y124533D01*
X278821Y124443D01*
X278856Y124369D01*
X278898Y124311D01*
X278947Y124270D01*
X279002Y124245D01*
X279063Y124237D01*
X277417D01*
X277479Y124245D01*
X277533Y124270D01*
X277582Y124311D01*
X277624Y124369D01*
X277659Y124443D01*
X277689Y124533D01*
X277711Y124640D01*
X277727Y124764D01*
X277737Y124904D01*
X277740Y125060D01*
X278740D01*
X278743Y124904D01*
D02*
G37*
G36*
X410555Y125457D02*
X410585Y125372D01*
X410636Y125297D01*
X410706Y125232D01*
X410798Y125177D01*
X410909Y125132D01*
X411040Y125097D01*
X411192Y125072D01*
X411364Y125057D01*
X411556Y125052D01*
Y124052D01*
X411364Y124047D01*
X411192Y124032D01*
X411040Y124007D01*
X410909Y123972D01*
X410798Y123927D01*
X410706Y123872D01*
X410636Y123807D01*
X410585Y123732D01*
X410555Y123647D01*
X410544Y123552D01*
Y125552D01*
X410555Y125457D01*
D02*
G37*
G36*
X350155D02*
X350185Y125372D01*
X350236Y125297D01*
X350306Y125232D01*
X350397Y125177D01*
X350509Y125132D01*
X350640Y125097D01*
X350792Y125072D01*
X350964Y125057D01*
X351156Y125052D01*
Y124052D01*
X350964Y124047D01*
X350792Y124032D01*
X350640Y124007D01*
X350509Y123972D01*
X350397Y123927D01*
X350306Y123872D01*
X350236Y123807D01*
X350185Y123732D01*
X350155Y123647D01*
X350145Y123552D01*
Y125552D01*
X350155Y125457D01*
D02*
G37*
G36*
X470855Y125357D02*
X470885Y125272D01*
X470936Y125197D01*
X471006Y125132D01*
X471098Y125077D01*
X471209Y125032D01*
X471340Y124997D01*
X471492Y124972D01*
X471664Y124957D01*
X471856Y124952D01*
Y123952D01*
X471664Y123947D01*
X471492Y123932D01*
X471340Y123907D01*
X471209Y123872D01*
X471098Y123827D01*
X471006Y123772D01*
X470936Y123707D01*
X470885Y123632D01*
X470855Y123547D01*
X470845Y123452D01*
Y125452D01*
X470855Y125357D01*
D02*
G37*
G36*
X58072Y123762D02*
X57987Y123731D01*
X57912Y123681D01*
X57847Y123610D01*
X57792Y123519D01*
X57747Y123407D01*
X57712Y123276D01*
X57687Y123124D01*
X57672Y122952D01*
X57667Y122760D01*
X56667D01*
X56662Y122952D01*
X56647Y123124D01*
X56622Y123276D01*
X56587Y123407D01*
X56542Y123519D01*
X56487Y123610D01*
X56422Y123681D01*
X56347Y123731D01*
X56262Y123762D01*
X56167Y123772D01*
X58167D01*
X58072Y123762D01*
D02*
G37*
G36*
X289155Y124257D02*
X289185Y124172D01*
X289236Y124097D01*
X289306Y124032D01*
X289398Y123977D01*
X289509Y123932D01*
X289640Y123897D01*
X289792Y123872D01*
X289964Y123857D01*
X290157Y123852D01*
Y122852D01*
X289964Y122847D01*
X289792Y122832D01*
X289640Y122807D01*
X289509Y122772D01*
X289398Y122727D01*
X289306Y122672D01*
X289236Y122607D01*
X289185Y122532D01*
X289155Y122447D01*
X289144Y122352D01*
Y124352D01*
X289155Y124257D01*
D02*
G37*
G36*
X335368Y126027D02*
Y121649D01*
X328768D01*
Y124356D01*
X328791Y124386D01*
X330956Y126551D01*
X334844D01*
X335368Y126027D01*
D02*
G37*
G36*
X295562Y121487D02*
X295156Y121746D01*
X293781Y122511D01*
X293500Y122634D01*
X293245Y122729D01*
X293014Y122797D01*
X292809Y122838D01*
X292628Y122852D01*
X292404Y123852D01*
X292636Y123869D01*
X292867Y123921D01*
X293097Y124008D01*
X293325Y124130D01*
X293550Y124286D01*
X293775Y124477D01*
X293997Y124702D01*
X294218Y124963D01*
X294437Y125258D01*
X294654Y125588D01*
X295562Y121487D01*
D02*
G37*
G36*
X274468Y125227D02*
Y120849D01*
X267469D01*
Y122556D01*
X267491Y122586D01*
X270356Y125451D01*
X274244D01*
X274468Y125227D01*
D02*
G37*
G36*
X134881Y121546D02*
X134994Y121452D01*
X135109Y121370D01*
X135229Y121298D01*
X135352Y121238D01*
X135477Y121188D01*
X135607Y121150D01*
X135739Y121122D01*
X135875Y121106D01*
X136014Y121100D01*
Y120100D01*
X135875Y120095D01*
X135739Y120078D01*
X135607Y120051D01*
X135477Y120012D01*
X135352Y119963D01*
X135229Y119902D01*
X135109Y119831D01*
X134994Y119748D01*
X134881Y119655D01*
X134771Y119550D01*
Y121650D01*
X134881Y121546D01*
D02*
G37*
G36*
X34905Y113216D02*
X34920Y113046D01*
X34945Y112896D01*
X34980Y112766D01*
X35025Y112656D01*
X35080Y112566D01*
X35145Y112496D01*
X35220Y112446D01*
X35305Y112416D01*
X35400Y112406D01*
X33400D01*
X33495Y112416D01*
X33580Y112446D01*
X33655Y112496D01*
X33720Y112566D01*
X33775Y112656D01*
X33820Y112766D01*
X33855Y112896D01*
X33880Y113046D01*
X33895Y113216D01*
X33900Y113406D01*
X34900D01*
X34905Y113216D01*
D02*
G37*
G36*
X295058Y111900D02*
X294884Y112062D01*
X294696Y112206D01*
X294493Y112334D01*
X294276Y112444D01*
X294045Y112538D01*
X293799Y112614D01*
X293539Y112673D01*
X293265Y112716D01*
X292976Y112741D01*
X292673Y112750D01*
Y115250D01*
X292976Y115259D01*
X293265Y115284D01*
X293539Y115326D01*
X293799Y115386D01*
X294045Y115463D01*
X294276Y115556D01*
X294493Y115666D01*
X294696Y115794D01*
X294884Y115938D01*
X295058Y116100D01*
Y111900D01*
D02*
G37*
G36*
X381627Y131716D02*
X381626Y131697D01*
X381631Y131677D01*
Y127478D01*
Y120982D01*
X389568D01*
Y124524D01*
X389574Y124541D01*
X389571Y124566D01*
X391856Y126851D01*
X395244D01*
X395868Y126227D01*
Y120009D01*
X403412D01*
Y127749D01*
X401518D01*
X401443Y127862D01*
X399874Y129430D01*
X399672Y129851D01*
X399672D01*
X399672Y129851D01*
Y131172D01*
X404632D01*
Y127178D01*
Y120682D01*
X412569D01*
Y122003D01*
X413615D01*
X413833Y121478D01*
X414634Y120434D01*
X415678Y119632D01*
X416552Y119271D01*
Y118729D01*
X415678Y118368D01*
X414634Y117566D01*
X413833Y116522D01*
X413329Y115305D01*
X413157Y114000D01*
X413329Y112695D01*
X413468Y112358D01*
X413151Y111850D01*
X412877Y111828D01*
X408502Y116202D01*
X407676Y116755D01*
X406700Y116949D01*
X369756D01*
X365802Y120902D01*
X364976Y121455D01*
X364000Y121649D01*
X362588D01*
X362310Y122065D01*
X362571Y122695D01*
X362743Y124000D01*
X362571Y125305D01*
X362068Y126522D01*
X361266Y127566D01*
X360222Y128367D01*
X359005Y128871D01*
X357700Y129043D01*
X356395Y128871D01*
X355178Y128367D01*
X354134Y127566D01*
X353777Y127101D01*
X352168D01*
Y134918D01*
X347979D01*
X347918Y134935D01*
X347429Y135424D01*
X346602Y135976D01*
X345627Y136170D01*
X339172D01*
Y137491D01*
X331628D01*
Y131649D01*
X329900D01*
X329269Y131523D01*
X328768Y131906D01*
Y135418D01*
X324536D01*
X324534Y135419D01*
X314164Y145789D01*
X314355Y146251D01*
X367092D01*
X381627Y131716D01*
D02*
G37*
G36*
X275658Y109426D02*
X275688Y109341D01*
X275739Y109266D01*
X275810Y109201D01*
X275901Y109146D01*
X276012Y109101D01*
X276144Y109066D01*
X276295Y109041D01*
X276467Y109026D01*
X276660Y109021D01*
Y108021D01*
X276467Y108016D01*
X276295Y108001D01*
X276144Y107976D01*
X276012Y107941D01*
X275901Y107896D01*
X275810Y107841D01*
X275739Y107776D01*
X275688Y107701D01*
X275658Y107616D01*
X275648Y107521D01*
Y109521D01*
X275658Y109426D01*
D02*
G37*
G36*
X261444Y108618D02*
X261807Y108311D01*
X261968Y108198D01*
X262117Y108112D01*
X262251Y108054D01*
X262373Y108023D01*
X262480Y108019D01*
X262575Y108043D01*
X262656Y108094D01*
X261156Y106790D01*
X261215Y106863D01*
X261246Y106950D01*
X261247Y107053D01*
X261219Y107172D01*
X261162Y107305D01*
X261075Y107455D01*
X260959Y107619D01*
X260814Y107799D01*
X260436Y108204D01*
X261242Y108813D01*
X261444Y108618D01*
D02*
G37*
G36*
X337558Y108326D02*
X337588Y108241D01*
X337639Y108166D01*
X337710Y108101D01*
X337801Y108046D01*
X337912Y108001D01*
X338043Y107966D01*
X338195Y107941D01*
X338367Y107926D01*
X338560Y107921D01*
Y106921D01*
X338367Y106916D01*
X338195Y106901D01*
X338043Y106876D01*
X337912Y106841D01*
X337801Y106796D01*
X337710Y106741D01*
X337639Y106676D01*
X337588Y106601D01*
X337558Y106516D01*
X337548Y106421D01*
Y108421D01*
X337558Y108326D01*
D02*
G37*
G36*
X285442Y107920D02*
X285804Y107614D01*
X285965Y107503D01*
X286114Y107418D01*
X286248Y107361D01*
X286370Y107332D01*
X286478Y107329D01*
X286574Y107354D01*
X286656Y107406D01*
X285143Y106090D01*
X285205Y106164D01*
X285236Y106252D01*
X285239Y106356D01*
X285212Y106474D01*
X285156Y106608D01*
X285070Y106757D01*
X284956Y106921D01*
X284812Y107101D01*
X284436Y107504D01*
X285242Y108113D01*
X285442Y107920D01*
D02*
G37*
G36*
X323444Y107818D02*
X323807Y107511D01*
X323969Y107398D01*
X324117Y107312D01*
X324251Y107254D01*
X324373Y107223D01*
X324481Y107220D01*
X324575Y107243D01*
X324656Y107294D01*
X323155Y105990D01*
X323215Y106063D01*
X323246Y106150D01*
X323247Y106253D01*
X323219Y106372D01*
X323162Y106505D01*
X323075Y106655D01*
X322959Y106819D01*
X322814Y106999D01*
X322436Y107404D01*
X323242Y108013D01*
X323444Y107818D01*
D02*
G37*
G36*
X397458Y107426D02*
X397488Y107341D01*
X397539Y107266D01*
X397610Y107201D01*
X397701Y107146D01*
X397812Y107101D01*
X397943Y107066D01*
X398095Y107041D01*
X398267Y107026D01*
X398460Y107021D01*
Y106021D01*
X398267Y106016D01*
X398095Y106001D01*
X397943Y105976D01*
X397812Y105941D01*
X397701Y105896D01*
X397610Y105841D01*
X397539Y105776D01*
X397488Y105701D01*
X397458Y105616D01*
X397448Y105521D01*
Y107521D01*
X397458Y107426D01*
D02*
G37*
G36*
X457558Y106826D02*
X457588Y106741D01*
X457639Y106666D01*
X457710Y106601D01*
X457801Y106546D01*
X457912Y106501D01*
X458043Y106466D01*
X458195Y106441D01*
X458367Y106426D01*
X458560Y106421D01*
Y105421D01*
X458367Y105416D01*
X458195Y105401D01*
X458043Y105376D01*
X457912Y105341D01*
X457801Y105296D01*
X457710Y105241D01*
X457639Y105176D01*
X457588Y105101D01*
X457558Y105016D01*
X457548Y104921D01*
Y106921D01*
X457558Y106826D01*
D02*
G37*
G36*
X383644Y106518D02*
X384007Y106211D01*
X384169Y106098D01*
X384317Y106012D01*
X384451Y105954D01*
X384573Y105923D01*
X384681Y105920D01*
X384775Y105943D01*
X384856Y105994D01*
X383355Y104690D01*
X383415Y104763D01*
X383446Y104850D01*
X383447Y104953D01*
X383419Y105072D01*
X383362Y105205D01*
X383275Y105354D01*
X383159Y105519D01*
X383014Y105699D01*
X382636Y106105D01*
X383442Y106713D01*
X383644Y106518D01*
D02*
G37*
G36*
X443456Y102748D02*
X443445Y102843D01*
X443415Y102928D01*
X443364Y103003D01*
X443294Y103068D01*
X443202Y103123D01*
X443091Y103168D01*
X442960Y103203D01*
X442808Y103228D01*
X442636Y103243D01*
X442444Y103248D01*
Y104248D01*
X442636Y104253D01*
X442808Y104268D01*
X442960Y104293D01*
X443091Y104328D01*
X443202Y104373D01*
X443294Y104428D01*
X443364Y104493D01*
X443415Y104568D01*
X443445Y104653D01*
X443456Y104748D01*
Y102748D01*
D02*
G37*
G36*
X265764Y100656D02*
X265628Y100514D01*
X265506Y100371D01*
X265398Y100229D01*
X265305Y100087D01*
X265226Y99945D01*
X265161Y99804D01*
X265111Y99663D01*
X265074Y99522D01*
X265052Y99382D01*
X265044Y99242D01*
X265056Y101610D01*
X265064Y101570D01*
X265085Y101550D01*
X265120Y101548D01*
X265170Y101566D01*
X265233Y101602D01*
X265311Y101658D01*
X265403Y101732D01*
X265629Y101939D01*
X265764Y102071D01*
Y100656D01*
D02*
G37*
G36*
X35305Y102196D02*
X35220Y102165D01*
X35145Y102115D01*
X35080Y102044D01*
X35025Y101953D01*
X34980Y101842D01*
X34945Y101710D01*
X34920Y101558D01*
X34905Y101386D01*
X34900Y101194D01*
X33900D01*
X33895Y101386D01*
X33880Y101558D01*
X33855Y101710D01*
X33820Y101842D01*
X33775Y101953D01*
X33720Y102044D01*
X33655Y102115D01*
X33580Y102165D01*
X33495Y102196D01*
X33400Y102206D01*
X35400D01*
X35305Y102196D01*
D02*
G37*
G36*
X356126Y101012D02*
X356048Y101069D01*
X355957Y101097D01*
X355850D01*
X355730Y101069D01*
X355596Y101012D01*
X355447Y100927D01*
X355285Y100814D01*
X355108Y100673D01*
X354712Y100305D01*
X354005Y101012D01*
X354203Y101217D01*
X354514Y101585D01*
X354627Y101747D01*
X354712Y101896D01*
X354769Y102030D01*
X354797Y102150D01*
Y102257D01*
X354769Y102348D01*
X354712Y102426D01*
X356126Y101012D01*
D02*
G37*
G36*
X295626D02*
X295548Y101069D01*
X295457Y101097D01*
X295350D01*
X295230Y101069D01*
X295096Y101012D01*
X294947Y100927D01*
X294785Y100814D01*
X294608Y100673D01*
X294212Y100305D01*
X293505Y101012D01*
X293703Y101217D01*
X294014Y101585D01*
X294127Y101747D01*
X294212Y101896D01*
X294269Y102030D01*
X294297Y102150D01*
Y102257D01*
X294269Y102348D01*
X294212Y102426D01*
X295626Y101012D01*
D02*
G37*
G36*
X327764Y99556D02*
X327627Y99414D01*
X327506Y99271D01*
X327398Y99129D01*
X327305Y98987D01*
X327226Y98845D01*
X327161Y98704D01*
X327111Y98563D01*
X327074Y98422D01*
X327052Y98282D01*
X327045Y98142D01*
X327057Y100810D01*
X327064Y100713D01*
X327085Y100642D01*
X327120Y100595D01*
X327170Y100574D01*
X327233Y100577D01*
X327311Y100606D01*
X327403Y100659D01*
X327509Y100738D01*
X327629Y100842D01*
X327764Y100971D01*
Y99556D01*
D02*
G37*
G36*
X278145Y101347D02*
X278160Y101177D01*
X278185Y101027D01*
X278220Y100897D01*
X278265Y100787D01*
X278320Y100697D01*
X278385Y100627D01*
X278460Y100577D01*
X278545Y100547D01*
X278640Y100537D01*
X276640D01*
X276735Y100547D01*
X276820Y100577D01*
X276895Y100627D01*
X276960Y100697D01*
X277015Y100787D01*
X277060Y100897D01*
X277095Y101027D01*
X277120Y101177D01*
X277135Y101347D01*
X277140Y101537D01*
X278140D01*
X278145Y101347D01*
D02*
G37*
G36*
X441827Y130816D02*
X441825Y130797D01*
X441831Y130777D01*
Y126578D01*
Y120082D01*
X449768D01*
Y123624D01*
X449774Y123641D01*
X449771Y123666D01*
X452056Y125951D01*
X455544D01*
X456169Y125327D01*
Y119109D01*
X463712D01*
Y126849D01*
X461818D01*
X461743Y126962D01*
X460175Y128530D01*
X459972Y128951D01*
X459972D01*
X459972Y128951D01*
Y130272D01*
X464931D01*
Y127078D01*
Y120582D01*
X472868D01*
Y121903D01*
X474157D01*
X474333Y121478D01*
X475134Y120434D01*
X476178Y119632D01*
X477052Y119271D01*
Y118729D01*
X476178Y118368D01*
X475134Y117566D01*
X474333Y116522D01*
X473829Y115305D01*
X473657Y114000D01*
X473829Y112695D01*
X474333Y111478D01*
X475134Y110434D01*
X476178Y109633D01*
X476498Y109500D01*
X476399Y109000D01*
X473700D01*
Y99801D01*
X472569D01*
Y107618D01*
X468335D01*
X468229Y107724D01*
X467402Y108276D01*
X466427Y108470D01*
X459572D01*
Y109791D01*
X452028D01*
Y104149D01*
X450500D01*
X449868Y104023D01*
X449368Y104406D01*
Y107618D01*
X441432D01*
Y106297D01*
X432108D01*
X427502Y110902D01*
X426676Y111455D01*
X425700Y111649D01*
X423088D01*
X422810Y112065D01*
X423071Y112695D01*
X423243Y114000D01*
X423071Y115305D01*
X422568Y116522D01*
X421766Y117566D01*
X420722Y118368D01*
X419848Y118729D01*
Y119271D01*
X420722Y119632D01*
X421766Y120434D01*
X422568Y121478D01*
X423071Y122695D01*
X423243Y124000D01*
X423071Y125305D01*
X422568Y126522D01*
X421766Y127566D01*
X420722Y128367D01*
X419505Y128871D01*
X418200Y129043D01*
X416895Y128871D01*
X415678Y128367D01*
X414634Y127566D01*
X414277Y127101D01*
X412569D01*
Y134918D01*
X408380D01*
X408318Y134935D01*
X407729Y135524D01*
X406902Y136076D01*
X405927Y136270D01*
X399672D01*
Y137591D01*
X392128D01*
Y131949D01*
X390800D01*
X390069Y131804D01*
X389568Y132139D01*
Y135218D01*
X385336D01*
X385334Y135219D01*
X371464Y149089D01*
X371655Y149551D01*
X423092D01*
X441827Y130816D01*
D02*
G37*
G36*
X387964Y98656D02*
X387828Y98514D01*
X387706Y98371D01*
X387598Y98229D01*
X387505Y98087D01*
X387426Y97945D01*
X387361Y97804D01*
X387311Y97663D01*
X387274Y97522D01*
X387252Y97382D01*
X387245Y97242D01*
X387257Y99510D01*
X387264Y99489D01*
X387285Y99486D01*
X387320Y99499D01*
X387370Y99529D01*
X387433Y99577D01*
X387603Y99723D01*
X387964Y100071D01*
Y98656D01*
D02*
G37*
G36*
X340041Y99941D02*
X340060Y99661D01*
X340071Y99593D01*
X340085Y99537D01*
X340100Y99493D01*
X340119Y99462D01*
X340140Y99443D01*
X340163Y99437D01*
X338917D01*
X338941Y99443D01*
X338961Y99462D01*
X338980Y99493D01*
X338996Y99537D01*
X339009Y99593D01*
X339020Y99661D01*
X339029Y99742D01*
X339039Y99941D01*
X339040Y100060D01*
X340040D01*
X340041Y99941D01*
D02*
G37*
G36*
X448064Y98457D02*
X447894Y98280D01*
X447619Y97949D01*
X447514Y97796D01*
X447432Y97651D01*
X447370Y97513D01*
X447331Y97384D01*
X447314Y97262D01*
X447318Y97148D01*
X447344Y97042D01*
X446596Y99098D01*
X446643Y99014D01*
X446712Y98964D01*
X446801Y98949D01*
X446911Y98968D01*
X447042Y99023D01*
X447194Y99112D01*
X447367Y99236D01*
X447560Y99395D01*
X448010Y99817D01*
X448064Y98457D01*
D02*
G37*
G36*
X289055Y99957D02*
X289085Y99872D01*
X289136Y99797D01*
X289206Y99732D01*
X289298Y99677D01*
X289409Y99632D01*
X289540Y99597D01*
X289692Y99572D01*
X289864Y99557D01*
X290056Y99552D01*
Y98552D01*
X289864Y98547D01*
X289692Y98532D01*
X289540Y98507D01*
X289409Y98472D01*
X289298Y98427D01*
X289206Y98372D01*
X289136Y98307D01*
X289085Y98232D01*
X289055Y98147D01*
X289044Y98052D01*
Y100052D01*
X289055Y99957D01*
D02*
G37*
G36*
X460041Y98441D02*
X460060Y98161D01*
X460071Y98093D01*
X460084Y98036D01*
X460100Y97993D01*
X460119Y97962D01*
X460140Y97943D01*
X460163Y97937D01*
X458917D01*
X458941Y97943D01*
X458961Y97962D01*
X458980Y97993D01*
X458996Y98036D01*
X459009Y98093D01*
X459021Y98161D01*
X459029Y98242D01*
X459039Y98441D01*
X459040Y98560D01*
X460040D01*
X460041Y98441D01*
D02*
G37*
G36*
X273584Y99416D02*
X273265Y99100D01*
X271974Y97947D01*
X271924Y97934D01*
X271907Y97958D01*
X271919Y100537D01*
X271783Y100543D01*
X271675Y100563D01*
X271595Y100595D01*
X271543Y100640D01*
X271518Y100699D01*
X271522Y100770D01*
X271554Y100854D01*
X271613Y100951D01*
X271701Y101061D01*
X271816Y101184D01*
X273584Y99416D01*
D02*
G37*
G36*
X350555Y99657D02*
X350585Y99572D01*
X350636Y99497D01*
X350706Y99432D01*
X350798Y99377D01*
X350909Y99332D01*
X351040Y99297D01*
X351192Y99272D01*
X351364Y99257D01*
X351556Y99252D01*
Y98252D01*
X351364Y98247D01*
X351192Y98232D01*
X351040Y98207D01*
X350909Y98172D01*
X350798Y98127D01*
X350706Y98072D01*
X350636Y98007D01*
X350585Y97932D01*
X350555Y97847D01*
X350545Y97752D01*
Y99752D01*
X350555Y99657D01*
D02*
G37*
G36*
X259127Y106616D02*
X259125Y106597D01*
X259132Y106577D01*
Y102378D01*
Y97249D01*
X193858D01*
X193810Y97614D01*
X193457Y98465D01*
X192896Y99196D01*
X192165Y99757D01*
X191314Y100110D01*
X190400Y100230D01*
X189486Y100110D01*
X188635Y99757D01*
X187904Y99196D01*
X187343Y98465D01*
X186990Y97614D01*
X186891Y96862D01*
X186563Y96537D01*
X186398Y96450D01*
X185900Y96549D01*
X173741D01*
X173660Y96601D01*
X173065Y97057D01*
X172214Y97410D01*
X171300Y97530D01*
X170386Y97410D01*
X169535Y97057D01*
X168804Y96496D01*
X168243Y95765D01*
X167890Y94914D01*
X167770Y94000D01*
X167856Y93349D01*
X167494Y92849D01*
X153742D01*
X153660Y92901D01*
X153065Y93357D01*
X152214Y93710D01*
X151300Y93830D01*
X150386Y93710D01*
X149535Y93357D01*
X148804Y92796D01*
X148243Y92065D01*
X147890Y91214D01*
X147770Y90300D01*
X147890Y89386D01*
X148243Y88535D01*
X148804Y87804D01*
X149535Y87243D01*
X150386Y86890D01*
X151300Y86770D01*
X152214Y86890D01*
X153065Y87243D01*
X153660Y87699D01*
X153742Y87751D01*
X270528D01*
Y84249D01*
X268900D01*
X267924Y84055D01*
X267369Y83683D01*
X266868Y83951D01*
Y87218D01*
X258931D01*
Y85897D01*
X133704D01*
X133699Y85901D01*
X133524Y86005D01*
X133065Y86357D01*
X132214Y86710D01*
X131300Y86830D01*
X130386Y86710D01*
X129535Y86357D01*
X128804Y85796D01*
X128243Y85065D01*
X127890Y84214D01*
X127770Y83300D01*
X127890Y82386D01*
X128243Y81535D01*
X128804Y80804D01*
X129535Y80243D01*
X130386Y79890D01*
X131300Y79770D01*
X132214Y79890D01*
X133065Y80243D01*
X133790Y80799D01*
X258931D01*
Y79478D01*
Y72982D01*
X266868D01*
Y76056D01*
X266891Y76086D01*
X269956Y79151D01*
X274269D01*
Y72409D01*
X281812D01*
Y80149D01*
X280452D01*
X280395Y80435D01*
X279843Y81262D01*
X278072Y83033D01*
Y83572D01*
X283231D01*
Y80078D01*
Y73582D01*
X291168D01*
Y74903D01*
X292555D01*
X292832Y74234D01*
X293634Y73190D01*
X294678Y72388D01*
X295552Y72026D01*
Y71485D01*
X294678Y71123D01*
X293634Y70322D01*
X292832Y69278D01*
X292329Y68061D01*
X292157Y66756D01*
X292193Y66481D01*
X291745Y66260D01*
X289902Y68102D01*
X289075Y68655D01*
X288100Y68849D01*
X150856D01*
X150802Y68902D01*
X149976Y69455D01*
X149000Y69649D01*
X148842D01*
X148760Y69701D01*
X148165Y70157D01*
X147314Y70510D01*
X146400Y70630D01*
X145486Y70510D01*
X144635Y70157D01*
X143904Y69596D01*
X143343Y68865D01*
X142990Y68014D01*
X142870Y67100D01*
X142990Y66186D01*
X143041Y66065D01*
X142763Y65649D01*
X128742D01*
X128660Y65701D01*
X128065Y66157D01*
X127214Y66510D01*
X126300Y66630D01*
X125386Y66510D01*
X124535Y66157D01*
X123804Y65596D01*
X123243Y64865D01*
X122890Y64014D01*
X122770Y63100D01*
X122890Y62186D01*
X123243Y61335D01*
X123804Y60604D01*
X124535Y60043D01*
X125386Y59690D01*
X126300Y59570D01*
X127214Y59690D01*
X128065Y60043D01*
X128660Y60499D01*
X128742Y60551D01*
X162979D01*
X163313Y60051D01*
X163090Y59514D01*
X162970Y58600D01*
X163090Y57686D01*
X163443Y56835D01*
X164004Y56104D01*
X164735Y55543D01*
X165586Y55190D01*
X166500Y55070D01*
X167414Y55190D01*
X168265Y55543D01*
X168860Y55999D01*
X168941Y56051D01*
X182503D01*
X182832Y55675D01*
X182770Y55200D01*
X182890Y54286D01*
X183243Y53435D01*
X183804Y52704D01*
X184535Y52143D01*
X185386Y51790D01*
X186300Y51670D01*
X187214Y51790D01*
X188065Y52143D01*
X188796Y52704D01*
X188832Y52751D01*
X245244D01*
X252784Y45211D01*
X252593Y44749D01*
X232500D01*
X231524Y44555D01*
X230698Y44002D01*
X224498Y37802D01*
X224430Y37701D01*
X223937Y37620D01*
X223798Y37726D01*
X222593Y38225D01*
X221300Y38396D01*
X220007Y38225D01*
X218802Y37726D01*
X217768Y36932D01*
X216974Y35898D01*
X216571Y34924D01*
X216029D01*
X215626Y35898D01*
X214832Y36932D01*
X213798Y37726D01*
X212593Y38225D01*
X211300Y38396D01*
X210007Y38225D01*
X208802Y37726D01*
X207768Y36932D01*
X206974Y35898D01*
X206571Y34924D01*
X206029D01*
X205626Y35898D01*
X204832Y36932D01*
X203798Y37726D01*
X202593Y38225D01*
X201300Y38396D01*
X200007Y38225D01*
X198802Y37726D01*
X197768Y36932D01*
X196974Y35898D01*
X196571Y34924D01*
X196029D01*
X195626Y35898D01*
X194832Y36932D01*
X193798Y37726D01*
X192593Y38225D01*
X191300Y38396D01*
X190007Y38225D01*
X188802Y37726D01*
X187768Y36932D01*
X186974Y35898D01*
X186571Y34924D01*
X186029D01*
X185626Y35898D01*
X184832Y36932D01*
X183798Y37726D01*
X182593Y38225D01*
X181300Y38396D01*
X180007Y38225D01*
X178802Y37726D01*
X177768Y36932D01*
X176974Y35898D01*
X176571Y34924D01*
X176029D01*
X175626Y35898D01*
X174832Y36932D01*
X173798Y37726D01*
X172593Y38225D01*
X171300Y38396D01*
X170007Y38225D01*
X168802Y37726D01*
X167768Y36932D01*
X166974Y35898D01*
X166571Y34924D01*
X166029D01*
X165626Y35898D01*
X164832Y36932D01*
X163798Y37726D01*
X162593Y38225D01*
X161300Y38396D01*
X160007Y38225D01*
X158802Y37726D01*
X157768Y36932D01*
X156974Y35898D01*
X156571Y34924D01*
X156029D01*
X155626Y35898D01*
X154832Y36932D01*
X153798Y37726D01*
X152593Y38225D01*
X151300Y38396D01*
X150007Y38225D01*
X148802Y37726D01*
X147768Y36932D01*
X146974Y35898D01*
X146571Y34924D01*
X146029D01*
X145626Y35898D01*
X144832Y36932D01*
X143798Y37726D01*
X142593Y38225D01*
X141300Y38396D01*
X140007Y38225D01*
X138802Y37726D01*
X137768Y36932D01*
X136974Y35898D01*
X136571Y34924D01*
X136029D01*
X135626Y35898D01*
X134832Y36932D01*
X133798Y37726D01*
X132593Y38225D01*
X131300Y38396D01*
X130007Y38225D01*
X128802Y37726D01*
X127768Y36932D01*
X126974Y35898D01*
X126571Y34924D01*
X126029D01*
X125626Y35898D01*
X124832Y36932D01*
X123798Y37726D01*
X122593Y38225D01*
X121300Y38396D01*
X120007Y38225D01*
X118802Y37726D01*
X117768Y36932D01*
X116974Y35898D01*
X116571Y34924D01*
X116029D01*
X115626Y35898D01*
X114832Y36932D01*
X113798Y37726D01*
X112593Y38225D01*
X111300Y38396D01*
X110007Y38225D01*
X108802Y37726D01*
X108730Y37671D01*
X108237Y37752D01*
X108002Y38102D01*
X107303Y38802D01*
X107394Y39418D01*
X107509Y39507D01*
X107541Y39509D01*
X107637Y39511D01*
X107706Y39526D01*
X188800D01*
X189518Y39621D01*
X190187Y39898D01*
X190761Y40339D01*
X194310Y43887D01*
X194361Y43918D01*
X194485Y44034D01*
X194914Y44090D01*
X194988Y44121D01*
X195786Y43790D01*
X196700Y43670D01*
X197614Y43790D01*
X198465Y44143D01*
X199196Y44704D01*
X199757Y45435D01*
X200110Y46286D01*
X200230Y47200D01*
X200110Y48114D01*
X199757Y48965D01*
X199196Y49696D01*
X198465Y50257D01*
X197614Y50610D01*
X196700Y50730D01*
X195786Y50610D01*
X195712Y50579D01*
X194914Y50910D01*
X194000Y51030D01*
X193086Y50910D01*
X192235Y50557D01*
X191504Y49996D01*
X190943Y49265D01*
X190590Y48414D01*
X190533Y47984D01*
X190513Y47960D01*
X190446Y47890D01*
X190408Y47831D01*
X187651Y45074D01*
X107736D01*
X107677Y45088D01*
X107508Y45094D01*
X107165Y45357D01*
X106314Y45710D01*
X105400Y45830D01*
X104486Y45710D01*
X104100Y45550D01*
X103714Y45710D01*
X102800Y45830D01*
X101886Y45710D01*
X101449Y45529D01*
X100949Y45863D01*
Y101144D01*
X107756Y107951D01*
X257792D01*
X259127Y106616D01*
D02*
G37*
G36*
X410555Y98857D02*
X410585Y98772D01*
X410636Y98697D01*
X410706Y98632D01*
X410798Y98577D01*
X410909Y98532D01*
X411040Y98497D01*
X411192Y98472D01*
X411364Y98457D01*
X411556Y98452D01*
Y97452D01*
X411364Y97447D01*
X411192Y97432D01*
X411040Y97407D01*
X410909Y97372D01*
X410798Y97327D01*
X410706Y97272D01*
X410636Y97207D01*
X410585Y97132D01*
X410555Y97047D01*
X410544Y96952D01*
Y98952D01*
X410555Y98857D01*
D02*
G37*
G36*
X470555Y98157D02*
X470585Y98072D01*
X470636Y97997D01*
X470706Y97932D01*
X470797Y97877D01*
X470909Y97832D01*
X471040Y97797D01*
X471192Y97772D01*
X471364Y97757D01*
X471557Y97752D01*
Y96752D01*
X471364Y96747D01*
X471192Y96732D01*
X471040Y96707D01*
X470909Y96672D01*
X470797Y96627D01*
X470706Y96572D01*
X470636Y96507D01*
X470585Y96432D01*
X470555Y96347D01*
X470544Y96252D01*
Y98252D01*
X470555Y98157D01*
D02*
G37*
G36*
X335769Y100227D02*
Y95749D01*
X329068D01*
Y97957D01*
X329091Y97986D01*
X331556Y100451D01*
X335544D01*
X335769Y100227D01*
D02*
G37*
G36*
X191903Y96534D02*
X191917Y96388D01*
X191941Y96247D01*
X191975Y96113D01*
X192019Y95983D01*
X192073Y95859D01*
X192137Y95740D01*
X192211Y95627D01*
X192296Y95519D01*
X192390Y95417D01*
X191683Y94710D01*
X191581Y94805D01*
X191473Y94889D01*
X191360Y94963D01*
X191241Y95027D01*
X191117Y95081D01*
X190988Y95125D01*
X190853Y95159D01*
X190712Y95183D01*
X190566Y95197D01*
X190415Y95200D01*
X191900Y96685D01*
X191903Y96534D01*
D02*
G37*
G36*
X661156Y94548D02*
X661140Y94691D01*
X661095Y94818D01*
X661019Y94930D01*
X660914Y95028D01*
X660778Y95110D01*
X660611Y95178D01*
X660415Y95231D01*
X660188Y95268D01*
X659931Y95290D01*
X659644Y95298D01*
Y96798D01*
X659931Y96806D01*
X660188Y96828D01*
X660415Y96865D01*
X660611Y96918D01*
X660778Y96986D01*
X660914Y97068D01*
X661019Y97166D01*
X661095Y97278D01*
X661140Y97405D01*
X661156Y97548D01*
Y94548D01*
D02*
G37*
G36*
X653860Y97405D02*
X653905Y97278D01*
X653981Y97166D01*
X654086Y97068D01*
X654222Y96986D01*
X654389Y96918D01*
X654585Y96865D01*
X654812Y96828D01*
X655069Y96806D01*
X655357Y96798D01*
Y95298D01*
X655069Y95290D01*
X654812Y95268D01*
X654585Y95231D01*
X654389Y95178D01*
X654222Y95110D01*
X654086Y95028D01*
X653981Y94930D01*
X653905Y94818D01*
X653860Y94691D01*
X653844Y94548D01*
Y97548D01*
X653860Y97405D01*
D02*
G37*
G36*
X395669Y98827D02*
Y94349D01*
X389268D01*
Y97057D01*
X389291Y97086D01*
X391856Y99651D01*
X394844D01*
X395669Y98827D01*
D02*
G37*
G36*
X172481Y94946D02*
X172593Y94852D01*
X172710Y94770D01*
X172829Y94698D01*
X172951Y94638D01*
X173077Y94588D01*
X173207Y94550D01*
X173339Y94522D01*
X173475Y94506D01*
X173614Y94500D01*
Y93500D01*
X173475Y93494D01*
X173339Y93478D01*
X173207Y93450D01*
X173077Y93412D01*
X172951Y93362D01*
X172829Y93302D01*
X172710Y93230D01*
X172593Y93148D01*
X172481Y93054D01*
X172371Y92950D01*
Y95050D01*
X172481Y94946D01*
D02*
G37*
G36*
X152481Y91246D02*
X152594Y91152D01*
X152709Y91070D01*
X152829Y90998D01*
X152952Y90938D01*
X153077Y90888D01*
X153207Y90850D01*
X153339Y90822D01*
X153475Y90806D01*
X153614Y90800D01*
Y89800D01*
X153475Y89794D01*
X153339Y89778D01*
X153207Y89750D01*
X153077Y89712D01*
X152952Y89662D01*
X152829Y89602D01*
X152709Y89530D01*
X152594Y89448D01*
X152481Y89354D01*
X152371Y89250D01*
Y91350D01*
X152481Y91246D01*
D02*
G37*
G36*
X661156Y88352D02*
X661145Y88447D01*
X661115Y88532D01*
X661064Y88607D01*
X660994Y88672D01*
X660903Y88727D01*
X660791Y88772D01*
X660660Y88807D01*
X660508Y88832D01*
X660336Y88847D01*
X660144Y88852D01*
Y89852D01*
X660336Y89857D01*
X660508Y89872D01*
X660660Y89897D01*
X660791Y89932D01*
X660903Y89977D01*
X660994Y90032D01*
X661064Y90097D01*
X661115Y90172D01*
X661145Y90257D01*
X661156Y90352D01*
Y88352D01*
D02*
G37*
G36*
X653855Y90257D02*
X653885Y90172D01*
X653936Y90097D01*
X654006Y90032D01*
X654098Y89977D01*
X654209Y89932D01*
X654340Y89897D01*
X654492Y89872D01*
X654664Y89857D01*
X654856Y89852D01*
Y88852D01*
X654664Y88847D01*
X654492Y88832D01*
X654340Y88807D01*
X654209Y88772D01*
X654098Y88727D01*
X654006Y88672D01*
X653936Y88607D01*
X653885Y88532D01*
X653855Y88447D01*
X653844Y88352D01*
Y90352D01*
X653855Y90257D01*
D02*
G37*
G36*
X664005Y87684D02*
X663920Y87654D01*
X663845Y87604D01*
X663780Y87534D01*
X663725Y87444D01*
X663680Y87334D01*
X663645Y87204D01*
X663620Y87054D01*
X663605Y86884D01*
X663600Y86694D01*
X662600D01*
X662595Y86884D01*
X662580Y87054D01*
X662555Y87204D01*
X662520Y87334D01*
X662475Y87444D01*
X662420Y87534D01*
X662355Y87604D01*
X662280Y87654D01*
X662195Y87684D01*
X662100Y87694D01*
X664100D01*
X664005Y87684D01*
D02*
G37*
G36*
X579005Y87175D02*
X579022Y87039D01*
X579049Y86907D01*
X579088Y86778D01*
X579138Y86651D01*
X579198Y86529D01*
X579270Y86409D01*
X579352Y86293D01*
X579446Y86181D01*
X579550Y86071D01*
X577450D01*
X577555Y86181D01*
X577648Y86293D01*
X577731Y86409D01*
X577802Y86529D01*
X577863Y86651D01*
X577912Y86778D01*
X577950Y86907D01*
X577978Y87039D01*
X577994Y87175D01*
X578000Y87314D01*
X579000D01*
X579005Y87175D01*
D02*
G37*
G36*
X35605Y87761D02*
X35979Y87444D01*
X36143Y87330D01*
X36292Y87244D01*
X36426Y87188D01*
X36544Y87161D01*
X36648Y87164D01*
X36736Y87195D01*
X36810Y87256D01*
X35494Y85744D01*
X35546Y85826D01*
X35571Y85922D01*
X35568Y86030D01*
X35539Y86152D01*
X35482Y86286D01*
X35397Y86435D01*
X35286Y86596D01*
X35147Y86770D01*
X34980Y86957D01*
X34787Y87158D01*
X35396Y87964D01*
X35605Y87761D01*
D02*
G37*
G36*
X587260Y88105D02*
X587305Y87978D01*
X587381Y87866D01*
X587486Y87768D01*
X587622Y87686D01*
X587789Y87618D01*
X587985Y87565D01*
X588212Y87528D01*
X588469Y87506D01*
X588757Y87498D01*
Y85998D01*
X588469Y85991D01*
X588212Y85968D01*
X587985Y85931D01*
X587789Y85878D01*
X587622Y85811D01*
X587486Y85728D01*
X587381Y85631D01*
X587305Y85518D01*
X587260Y85391D01*
X587245Y85248D01*
Y88248D01*
X587260Y88105D01*
D02*
G37*
G36*
X276058Y87026D02*
X276088Y86941D01*
X276139Y86866D01*
X276210Y86801D01*
X276301Y86746D01*
X276412Y86701D01*
X276543Y86666D01*
X276695Y86641D01*
X276867Y86626D01*
X277060Y86621D01*
Y85621D01*
X276867Y85616D01*
X276695Y85601D01*
X276543Y85576D01*
X276412Y85541D01*
X276301Y85496D01*
X276210Y85441D01*
X276139Y85376D01*
X276088Y85301D01*
X276058Y85216D01*
X276048Y85121D01*
Y87121D01*
X276058Y87026D01*
D02*
G37*
G36*
X397358Y86926D02*
X397388Y86841D01*
X397439Y86766D01*
X397510Y86701D01*
X397601Y86646D01*
X397712Y86601D01*
X397844Y86566D01*
X397995Y86541D01*
X398167Y86526D01*
X398360Y86521D01*
Y85521D01*
X398167Y85516D01*
X397995Y85501D01*
X397844Y85476D01*
X397712Y85441D01*
X397601Y85396D01*
X397510Y85341D01*
X397439Y85276D01*
X397388Y85201D01*
X397358Y85116D01*
X397348Y85021D01*
Y87021D01*
X397358Y86926D01*
D02*
G37*
G36*
X406487Y86169D02*
X407117Y85617D01*
X407152Y85603D01*
X407172Y85606D01*
X406244Y84874D01*
X406249Y84892D01*
X406239Y84923D01*
X406212Y84968D01*
X406169Y85027D01*
X406110Y85100D01*
X405837Y85399D01*
X405573Y85668D01*
X406342Y86313D01*
X406487Y86169D01*
D02*
G37*
G36*
X336958Y86526D02*
X336988Y86441D01*
X337039Y86366D01*
X337110Y86301D01*
X337201Y86246D01*
X337312Y86201D01*
X337443Y86166D01*
X337595Y86141D01*
X337767Y86126D01*
X337960Y86121D01*
Y85121D01*
X337767Y85116D01*
X337595Y85101D01*
X337443Y85076D01*
X337312Y85041D01*
X337201Y84996D01*
X337110Y84941D01*
X337039Y84876D01*
X336988Y84801D01*
X336958Y84716D01*
X336948Y84621D01*
Y86621D01*
X336958Y86526D01*
D02*
G37*
G36*
X457958Y86226D02*
X457988Y86141D01*
X458039Y86066D01*
X458110Y86001D01*
X458201Y85946D01*
X458312Y85901D01*
X458443Y85866D01*
X458595Y85841D01*
X458767Y85826D01*
X458960Y85821D01*
Y84821D01*
X458767Y84816D01*
X458595Y84801D01*
X458443Y84776D01*
X458312Y84741D01*
X458201Y84696D01*
X458110Y84641D01*
X458039Y84576D01*
X457988Y84501D01*
X457958Y84416D01*
X457948Y84321D01*
Y86321D01*
X457958Y86226D01*
D02*
G37*
G36*
X444144Y85518D02*
X444507Y85211D01*
X444668Y85098D01*
X444817Y85012D01*
X444951Y84954D01*
X445073Y84923D01*
X445181Y84920D01*
X445275Y84943D01*
X445356Y84994D01*
X443855Y83690D01*
X443915Y83763D01*
X443946Y83850D01*
X443947Y83953D01*
X443919Y84072D01*
X443862Y84205D01*
X443775Y84355D01*
X443659Y84519D01*
X443514Y84699D01*
X443136Y85105D01*
X443942Y85713D01*
X444144Y85518D01*
D02*
G37*
G36*
X665357Y83564D02*
X665372Y83392D01*
X665397Y83240D01*
X665432Y83109D01*
X665477Y82998D01*
X665532Y82906D01*
X665597Y82836D01*
X665672Y82785D01*
X665757Y82755D01*
X665852Y82744D01*
X663852D01*
X663947Y82755D01*
X664032Y82785D01*
X664107Y82836D01*
X664172Y82906D01*
X664227Y82998D01*
X664272Y83109D01*
X664307Y83240D01*
X664332Y83392D01*
X664347Y83564D01*
X664352Y83757D01*
X665352D01*
X665357Y83564D01*
D02*
G37*
G36*
X383256Y82648D02*
X383245Y82743D01*
X383215Y82828D01*
X383164Y82903D01*
X383094Y82968D01*
X383002Y83023D01*
X382891Y83068D01*
X382760Y83103D01*
X382608Y83128D01*
X382436Y83143D01*
X382243Y83148D01*
Y84148D01*
X382436Y84153D01*
X382608Y84168D01*
X382760Y84193D01*
X382891Y84228D01*
X383002Y84273D01*
X383094Y84328D01*
X383164Y84393D01*
X383215Y84468D01*
X383245Y84553D01*
X383256Y84648D01*
Y82648D01*
D02*
G37*
G36*
X39147Y84775D02*
X39123Y84680D01*
X39127Y84573D01*
X39158Y84451D01*
X39216Y84317D01*
X39302Y84168D01*
X39415Y84007D01*
X39555Y83832D01*
X39917Y83442D01*
X39309Y82636D01*
X39098Y82840D01*
X38723Y83159D01*
X38559Y83275D01*
X38409Y83362D01*
X38276Y83419D01*
X38157Y83447D01*
X38054Y83446D01*
X37967Y83415D01*
X37894Y83355D01*
X39198Y84856D01*
X39147Y84775D01*
D02*
G37*
G36*
X322656Y82448D02*
X322645Y82543D01*
X322615Y82628D01*
X322564Y82703D01*
X322494Y82768D01*
X322403Y82823D01*
X322291Y82868D01*
X322160Y82903D01*
X322008Y82928D01*
X321836Y82943D01*
X321643Y82948D01*
Y83948D01*
X321836Y83953D01*
X322008Y83968D01*
X322160Y83993D01*
X322291Y84028D01*
X322403Y84073D01*
X322494Y84128D01*
X322564Y84193D01*
X322615Y84268D01*
X322645Y84353D01*
X322656Y84448D01*
Y82448D01*
D02*
G37*
G36*
X260956Y82348D02*
X260945Y82443D01*
X260915Y82528D01*
X260864Y82603D01*
X260794Y82668D01*
X260702Y82723D01*
X260591Y82768D01*
X260460Y82803D01*
X260308Y82828D01*
X260136Y82843D01*
X259944Y82848D01*
Y83848D01*
X260136Y83853D01*
X260308Y83868D01*
X260460Y83893D01*
X260591Y83928D01*
X260702Y83973D01*
X260794Y84028D01*
X260864Y84093D01*
X260915Y84168D01*
X260945Y84253D01*
X260956Y84348D01*
Y82348D01*
D02*
G37*
G36*
X132450Y84282D02*
X132567Y84191D01*
X132685Y84110D01*
X132807Y84041D01*
X132932Y83982D01*
X133059Y83934D01*
X133189Y83896D01*
X133322Y83869D01*
X133458Y83853D01*
X133596Y83848D01*
X133630Y82848D01*
X133491Y82842D01*
X133355Y82825D01*
X133222Y82797D01*
X133094Y82758D01*
X132970Y82707D01*
X132849Y82645D01*
X132732Y82572D01*
X132619Y82488D01*
X132510Y82392D01*
X132404Y82285D01*
X132337Y84384D01*
X132450Y84282D01*
D02*
G37*
G36*
X605739Y67839D02*
X606313Y67398D01*
X606982Y67121D01*
X607527Y67049D01*
X607495Y66549D01*
X581056D01*
X576529Y71076D01*
X576508Y71170D01*
X576410Y71914D01*
X576057Y72765D01*
X575496Y73496D01*
X574765Y74057D01*
X573914Y74410D01*
X573000Y74530D01*
X572086Y74410D01*
X571464Y74152D01*
X571181Y74576D01*
X575802Y79198D01*
X576355Y80024D01*
X576549Y81000D01*
Y81479D01*
X577049Y81813D01*
X577586Y81590D01*
X578500Y81470D01*
X579414Y81590D01*
X580265Y81943D01*
X580996Y82504D01*
X581013Y82526D01*
X581331Y82878D01*
Y82878D01*
X581331Y82878D01*
X589268D01*
Y83602D01*
X589769Y83809D01*
X605739Y67839D01*
D02*
G37*
G36*
X678971Y81300D02*
X678961Y81395D01*
X678931Y81480D01*
X678880Y81555D01*
X678809Y81620D01*
X678718Y81675D01*
X678607Y81720D01*
X678475Y81755D01*
X678324Y81780D01*
X678152Y81795D01*
X677959Y81800D01*
Y82800D01*
X678152Y82805D01*
X678324Y82820D01*
X678475Y82845D01*
X678607Y82880D01*
X678718Y82925D01*
X678809Y82980D01*
X678880Y83045D01*
X678931Y83120D01*
X678961Y83205D01*
X678971Y83300D01*
Y81300D01*
D02*
G37*
G36*
X673216Y81705D02*
X673246Y81620D01*
X673296Y81545D01*
X673366Y81480D01*
X673456Y81425D01*
X673566Y81380D01*
X673696Y81345D01*
X673846Y81320D01*
X674016Y81305D01*
X674206Y81300D01*
Y80300D01*
X674016Y80295D01*
X673846Y80280D01*
X673696Y80255D01*
X673566Y80220D01*
X673456Y80175D01*
X673366Y80120D01*
X673296Y80055D01*
X673246Y79980D01*
X673216Y79895D01*
X673206Y79800D01*
Y81800D01*
X673216Y81705D01*
D02*
G37*
G36*
X663006Y79800D02*
X662996Y79895D01*
X662965Y79980D01*
X662915Y80055D01*
X662844Y80120D01*
X662753Y80175D01*
X662642Y80220D01*
X662510Y80255D01*
X662358Y80280D01*
X662186Y80295D01*
X661994Y80300D01*
Y81300D01*
X662186Y81305D01*
X662358Y81320D01*
X662510Y81345D01*
X662642Y81380D01*
X662753Y81425D01*
X662844Y81480D01*
X662915Y81545D01*
X662965Y81620D01*
X662996Y81705D01*
X663006Y81800D01*
Y79800D01*
D02*
G37*
G36*
X658716Y81705D02*
X658746Y81620D01*
X658796Y81545D01*
X658866Y81480D01*
X658956Y81425D01*
X659066Y81380D01*
X659196Y81345D01*
X659346Y81320D01*
X659516Y81305D01*
X659706Y81300D01*
Y80300D01*
X659516Y80295D01*
X659346Y80280D01*
X659196Y80255D01*
X659066Y80220D01*
X658956Y80175D01*
X658866Y80120D01*
X658796Y80055D01*
X658746Y79980D01*
X658716Y79895D01*
X658706Y79800D01*
Y81800D01*
X658716Y81705D01*
D02*
G37*
G36*
X387864Y78256D02*
X387728Y78114D01*
X387606Y77971D01*
X387498Y77829D01*
X387405Y77687D01*
X387326Y77545D01*
X387261Y77404D01*
X387211Y77263D01*
X387175Y77122D01*
X387152Y76982D01*
X387144Y76842D01*
X387157Y79010D01*
X387164Y79008D01*
X387185Y79022D01*
X387220Y79050D01*
X387333Y79152D01*
X387864Y79671D01*
Y78256D01*
D02*
G37*
G36*
X327264Y78057D02*
X327128Y77914D01*
X327006Y77771D01*
X326899Y77629D01*
X326805Y77487D01*
X326726Y77345D01*
X326661Y77204D01*
X326611Y77063D01*
X326574Y76923D01*
X326552Y76782D01*
X326544Y76642D01*
X326556Y78810D01*
X326564Y78808D01*
X326585Y78822D01*
X326620Y78850D01*
X326733Y78952D01*
X327264Y79471D01*
Y78057D01*
D02*
G37*
G36*
X265564Y77657D02*
X265428Y77513D01*
X265306Y77371D01*
X265198Y77229D01*
X265105Y77087D01*
X265026Y76945D01*
X264961Y76804D01*
X264911Y76663D01*
X264874Y76522D01*
X264852Y76382D01*
X264844Y76242D01*
X264857Y78710D01*
X264864Y78651D01*
X264885Y78614D01*
X264920Y78597D01*
X264970Y78601D01*
X265033Y78627D01*
X265111Y78674D01*
X265203Y78741D01*
X265309Y78830D01*
X265564Y79071D01*
Y77657D01*
D02*
G37*
G36*
X448464Y77856D02*
X448294Y77680D01*
X448019Y77349D01*
X447914Y77196D01*
X447831Y77051D01*
X447771Y76913D01*
X447731Y76784D01*
X447714Y76662D01*
X447718Y76548D01*
X447745Y76442D01*
X446996Y78498D01*
X447043Y78413D01*
X447112Y78364D01*
X447201Y78349D01*
X447311Y78369D01*
X447442Y78423D01*
X447594Y78512D01*
X447767Y78636D01*
X447960Y78795D01*
X448410Y79217D01*
X448464Y77856D01*
D02*
G37*
G36*
X278545Y78947D02*
X278560Y78777D01*
X278585Y78627D01*
X278620Y78497D01*
X278665Y78387D01*
X278720Y78297D01*
X278785Y78227D01*
X278860Y78177D01*
X278945Y78147D01*
X279040Y78137D01*
X277040D01*
X277135Y78147D01*
X277220Y78177D01*
X277295Y78227D01*
X277360Y78297D01*
X277415Y78387D01*
X277460Y78497D01*
X277495Y78627D01*
X277520Y78777D01*
X277535Y78947D01*
X277540Y79137D01*
X278540D01*
X278545Y78947D01*
D02*
G37*
G36*
X400005Y78847D02*
X400020Y78677D01*
X400045Y78527D01*
X400080Y78397D01*
X400125Y78287D01*
X400180Y78197D01*
X400245Y78127D01*
X400320Y78077D01*
X400405Y78047D01*
X400500Y78037D01*
X398500D01*
X398595Y78047D01*
X398680Y78077D01*
X398755Y78127D01*
X398820Y78197D01*
X398875Y78287D01*
X398920Y78397D01*
X398955Y78527D01*
X398980Y78677D01*
X398995Y78847D01*
X399000Y79037D01*
X400000D01*
X400005Y78847D01*
D02*
G37*
G36*
X650905Y78745D02*
X650820Y78715D01*
X650745Y78664D01*
X650680Y78594D01*
X650625Y78503D01*
X650580Y78391D01*
X650545Y78260D01*
X650520Y78108D01*
X650505Y77936D01*
X650500Y77744D01*
X649500D01*
X649495Y77936D01*
X649480Y78108D01*
X649455Y78260D01*
X649420Y78391D01*
X649375Y78503D01*
X649320Y78594D01*
X649255Y78664D01*
X649180Y78715D01*
X649095Y78745D01*
X649000Y78755D01*
X651000D01*
X650905Y78745D01*
D02*
G37*
G36*
X339445Y78447D02*
X339460Y78277D01*
X339485Y78127D01*
X339520Y77997D01*
X339565Y77887D01*
X339620Y77797D01*
X339685Y77727D01*
X339760Y77677D01*
X339845Y77647D01*
X339940Y77637D01*
X337940D01*
X338035Y77647D01*
X338120Y77677D01*
X338195Y77727D01*
X338260Y77797D01*
X338315Y77887D01*
X338360Y77997D01*
X338395Y78127D01*
X338420Y78277D01*
X338435Y78447D01*
X338440Y78637D01*
X339440D01*
X339445Y78447D01*
D02*
G37*
G36*
X460444Y78084D02*
X460457Y77928D01*
X460478Y77789D01*
X460508Y77669D01*
X460546Y77568D01*
X460593Y77485D01*
X460647Y77420D01*
X460711Y77374D01*
X460783Y77346D01*
X460863Y77337D01*
X459017D01*
X459097Y77346D01*
X459169Y77374D01*
X459233Y77420D01*
X459288Y77485D01*
X459334Y77568D01*
X459373Y77669D01*
X459402Y77789D01*
X459423Y77928D01*
X459436Y78084D01*
X459440Y78260D01*
X460440D01*
X460444Y78084D01*
D02*
G37*
G36*
X289155Y78357D02*
X289185Y78272D01*
X289236Y78197D01*
X289306Y78132D01*
X289398Y78077D01*
X289509Y78032D01*
X289640Y77997D01*
X289792Y77972D01*
X289964Y77957D01*
X290157Y77952D01*
Y76952D01*
X289964Y76947D01*
X289792Y76932D01*
X289640Y76907D01*
X289509Y76872D01*
X289398Y76827D01*
X289306Y76772D01*
X289236Y76707D01*
X289185Y76632D01*
X289155Y76547D01*
X289144Y76452D01*
Y78452D01*
X289155Y78357D01*
D02*
G37*
G36*
X410155Y78157D02*
X410185Y78072D01*
X410236Y77997D01*
X410306Y77932D01*
X410397Y77877D01*
X410509Y77832D01*
X410640Y77797D01*
X410792Y77772D01*
X410964Y77757D01*
X411157Y77752D01*
Y76752D01*
X410964Y76747D01*
X410792Y76732D01*
X410640Y76707D01*
X410509Y76672D01*
X410397Y76627D01*
X410306Y76572D01*
X410236Y76507D01*
X410185Y76432D01*
X410155Y76347D01*
X410145Y76252D01*
Y78252D01*
X410155Y78157D01*
D02*
G37*
G36*
X349855D02*
X349885Y78072D01*
X349936Y77997D01*
X350006Y77932D01*
X350097Y77877D01*
X350209Y77832D01*
X350340Y77797D01*
X350492Y77772D01*
X350664Y77757D01*
X350856Y77752D01*
Y76752D01*
X350664Y76747D01*
X350492Y76732D01*
X350340Y76707D01*
X350209Y76672D01*
X350097Y76627D01*
X350006Y76572D01*
X349936Y76507D01*
X349885Y76432D01*
X349855Y76347D01*
X349845Y76252D01*
Y78252D01*
X349855Y78157D01*
D02*
G37*
G36*
X470855Y77857D02*
X470885Y77772D01*
X470936Y77697D01*
X471006Y77632D01*
X471098Y77577D01*
X471209Y77532D01*
X471340Y77497D01*
X471492Y77472D01*
X471664Y77457D01*
X471856Y77452D01*
Y76452D01*
X471664Y76447D01*
X471492Y76432D01*
X471340Y76407D01*
X471209Y76372D01*
X471098Y76327D01*
X471006Y76272D01*
X470936Y76207D01*
X470885Y76132D01*
X470855Y76047D01*
X470845Y75952D01*
Y77952D01*
X470855Y77857D01*
D02*
G37*
G36*
X60905Y74816D02*
X60920Y74646D01*
X60945Y74496D01*
X60980Y74366D01*
X61025Y74256D01*
X61080Y74166D01*
X61145Y74096D01*
X61220Y74046D01*
X61305Y74016D01*
X61400Y74006D01*
X59400D01*
X59495Y74016D01*
X59580Y74046D01*
X59655Y74096D01*
X59720Y74166D01*
X59775Y74256D01*
X59820Y74366D01*
X59855Y74496D01*
X59880Y74646D01*
X59895Y74816D01*
X59900Y75006D01*
X60900D01*
X60905Y74816D01*
D02*
G37*
G36*
X62355Y73005D02*
X62385Y72920D01*
X62436Y72845D01*
X62506Y72780D01*
X62598Y72725D01*
X62709Y72680D01*
X62840Y72645D01*
X62992Y72620D01*
X63164Y72605D01*
X63357Y72600D01*
Y71600D01*
X63164Y71595D01*
X62992Y71580D01*
X62840Y71555D01*
X62709Y71520D01*
X62598Y71475D01*
X62506Y71420D01*
X62436Y71355D01*
X62385Y71280D01*
X62355Y71195D01*
X62344Y71100D01*
Y73100D01*
X62355Y73005D01*
D02*
G37*
G36*
X633555Y70194D02*
X632176Y69111D01*
X631831Y71076D01*
X631888Y71042D01*
X631953Y71023D01*
X632024Y71022D01*
X632101Y71036D01*
X632186Y71068D01*
X632277Y71115D01*
X632375Y71179D01*
X632480Y71260D01*
X632592Y71357D01*
X632710Y71471D01*
X633555Y70194D01*
D02*
G37*
G36*
X39427Y71476D02*
X39479Y71479D01*
X39506Y71463D01*
X39510Y71428D01*
X39489Y71373D01*
X39443Y71300D01*
X39374Y71208D01*
X39280Y71096D01*
X38854Y70647D01*
X38146Y71354D01*
X38242Y71452D01*
X38452Y71693D01*
X38496Y71756D01*
X38527Y71810D01*
X38545Y71855D01*
X38550Y71891D01*
X38541Y71918D01*
X38520Y71937D01*
X39427Y71476D01*
D02*
G37*
G36*
X627111Y70898D02*
X627162Y70867D01*
X627228Y70840D01*
X627308Y70816D01*
X627403Y70796D01*
X627513Y70779D01*
X627777Y70757D01*
X628099Y70750D01*
Y69250D01*
X627931Y69248D01*
X627513Y69221D01*
X627403Y69204D01*
X627308Y69184D01*
X627228Y69160D01*
X627162Y69133D01*
X627111Y69102D01*
X627074Y69067D01*
Y70933D01*
X627111Y70898D01*
D02*
G37*
G36*
X627026Y69067D02*
X626989Y69102D01*
X626938Y69133D01*
X626872Y69160D01*
X626792Y69184D01*
X626697Y69204D01*
X626587Y69221D01*
X626323Y69243D01*
X626001Y69250D01*
Y70750D01*
X626169Y70752D01*
X626587Y70779D01*
X626697Y70796D01*
X626792Y70816D01*
X626872Y70840D01*
X626938Y70867D01*
X626989Y70898D01*
X627026Y70933D01*
Y69067D01*
D02*
G37*
G36*
X574503Y70834D02*
X574517Y70688D01*
X574541Y70547D01*
X574575Y70412D01*
X574619Y70283D01*
X574673Y70159D01*
X574737Y70040D01*
X574811Y69927D01*
X574895Y69819D01*
X574990Y69717D01*
X574283Y69010D01*
X574181Y69104D01*
X574073Y69189D01*
X573960Y69263D01*
X573841Y69327D01*
X573717Y69381D01*
X573588Y69425D01*
X573453Y69459D01*
X573312Y69483D01*
X573166Y69497D01*
X573015Y69500D01*
X574500Y70985D01*
X574503Y70834D01*
D02*
G37*
G36*
X546985Y69500D02*
X546834Y69497D01*
X546688Y69483D01*
X546547Y69459D01*
X546413Y69425D01*
X546283Y69381D01*
X546159Y69327D01*
X546040Y69263D01*
X545927Y69189D01*
X545819Y69104D01*
X545717Y69010D01*
X545010Y69717D01*
X545105Y69819D01*
X545189Y69927D01*
X545263Y70040D01*
X545327Y70159D01*
X545381Y70283D01*
X545425Y70412D01*
X545459Y70547D01*
X545483Y70688D01*
X545497Y70834D01*
X545500Y70985D01*
X546985Y69500D01*
D02*
G37*
G36*
X629335Y70993D02*
X629410Y70942D01*
X629496Y70897D01*
X629593Y70858D01*
X629600Y70856D01*
X629672Y70882D01*
X629759Y70922D01*
X629836Y70968D01*
X629901Y71019D01*
X629886Y70787D01*
X629947Y70777D01*
X630087Y70762D01*
X630399Y70750D01*
Y69250D01*
X630238Y69247D01*
X629947Y69223D01*
X629818Y69202D01*
X629779Y69193D01*
X629761Y68924D01*
X629700Y68986D01*
X629627Y69041D01*
X629543Y69090D01*
X629506Y69107D01*
X629496Y69103D01*
X629410Y69058D01*
X629335Y69007D01*
X629271Y68950D01*
Y69187D01*
X629226Y69198D01*
X629098Y69221D01*
X628959Y69237D01*
X628648Y69250D01*
X628764Y70750D01*
X628926Y70753D01*
X629217Y70774D01*
X629271Y70782D01*
Y71050D01*
X629335Y70993D01*
D02*
G37*
G36*
X624978Y68817D02*
X624913Y68861D01*
X624837Y68901D01*
X624750Y68936D01*
X624652Y68966D01*
X624544Y68992D01*
X624424Y69013D01*
X624153Y69041D01*
X624002Y69048D01*
X623839Y69050D01*
X623604Y70550D01*
X623766Y70553D01*
X624053Y70581D01*
X624180Y70606D01*
X624295Y70637D01*
X624399Y70675D01*
X624491Y70720D01*
X624571Y70773D01*
X624641Y70832D01*
X624698Y70898D01*
X624978Y68817D01*
D02*
G37*
G36*
X147581Y68046D02*
X147694Y67952D01*
X147810Y67870D01*
X147929Y67798D01*
X148052Y67738D01*
X148178Y67688D01*
X148307Y67650D01*
X148439Y67622D01*
X148575Y67606D01*
X148714Y67600D01*
Y66600D01*
X148575Y66594D01*
X148439Y66578D01*
X148307Y66550D01*
X148178Y66512D01*
X148052Y66462D01*
X147929Y66402D01*
X147810Y66330D01*
X147694Y66248D01*
X147581Y66154D01*
X147471Y66050D01*
Y68150D01*
X147581Y68046D01*
D02*
G37*
G36*
X62360Y67357D02*
X62405Y67230D01*
X62481Y67118D01*
X62586Y67020D01*
X62722Y66938D01*
X62889Y66870D01*
X63085Y66817D01*
X63312Y66780D01*
X63569Y66758D01*
X63833Y66751D01*
X63962Y66753D01*
X64253Y66777D01*
X64382Y66798D01*
X64500Y66825D01*
X64607Y66858D01*
X64704Y66897D01*
X64790Y66942D01*
X64865Y66993D01*
X64929Y67050D01*
Y64950D01*
X64865Y65007D01*
X64790Y65058D01*
X64704Y65103D01*
X64607Y65142D01*
X64500Y65175D01*
X64382Y65202D01*
X64253Y65223D01*
X64113Y65238D01*
X63823Y65249D01*
X63569Y65242D01*
X63312Y65220D01*
X63085Y65183D01*
X62889Y65130D01*
X62722Y65062D01*
X62586Y64980D01*
X62481Y64882D01*
X62405Y64770D01*
X62360Y64643D01*
X62344Y64500D01*
Y67500D01*
X62360Y67357D01*
D02*
G37*
G36*
X20405Y65116D02*
X20420Y64946D01*
X20445Y64796D01*
X20480Y64666D01*
X20525Y64556D01*
X20580Y64466D01*
X20645Y64396D01*
X20720Y64346D01*
X20805Y64316D01*
X20900Y64306D01*
X18900D01*
X18995Y64316D01*
X19080Y64346D01*
X19155Y64396D01*
X19220Y64466D01*
X19275Y64556D01*
X19320Y64666D01*
X19355Y64796D01*
X19380Y64946D01*
X19395Y65116D01*
X19400Y65306D01*
X20400D01*
X20405Y65116D01*
D02*
G37*
G36*
X9505D02*
X9520Y64946D01*
X9545Y64796D01*
X9580Y64666D01*
X9625Y64556D01*
X9680Y64466D01*
X9745Y64396D01*
X9820Y64346D01*
X9905Y64316D01*
X10000Y64306D01*
X8000D01*
X8095Y64316D01*
X8180Y64346D01*
X8255Y64396D01*
X8320Y64466D01*
X8375Y64556D01*
X8420Y64666D01*
X8455Y64796D01*
X8480Y64946D01*
X8495Y65116D01*
X8500Y65306D01*
X9500D01*
X9505Y65116D01*
D02*
G37*
G36*
X58443Y63794D02*
X58429Y63911D01*
X58384Y64017D01*
X58309Y64110D01*
X58204Y64190D01*
X58069Y64258D01*
X57903Y64314D01*
X57709Y64357D01*
X57484Y64388D01*
X57228Y64407D01*
X56944Y64413D01*
Y65913D01*
X57230Y65921D01*
X57487Y65943D01*
X57713Y65980D01*
X57910Y66033D01*
X58076Y66101D01*
X58212Y66183D01*
X58318Y66281D01*
X58394Y66393D01*
X58440Y66521D01*
X58455Y66663D01*
X58443Y63794D01*
D02*
G37*
G36*
X127481Y64046D02*
X127594Y63952D01*
X127709Y63870D01*
X127829Y63798D01*
X127952Y63737D01*
X128077Y63688D01*
X128207Y63649D01*
X128339Y63622D01*
X128475Y63605D01*
X128614Y63600D01*
Y62600D01*
X128475Y62594D01*
X128339Y62578D01*
X128207Y62550D01*
X128077Y62512D01*
X127952Y62463D01*
X127829Y62402D01*
X127709Y62331D01*
X127594Y62248D01*
X127481Y62155D01*
X127371Y62050D01*
Y64150D01*
X127481Y64046D01*
D02*
G37*
G36*
X276258Y62826D02*
X276288Y62741D01*
X276339Y62666D01*
X276410Y62601D01*
X276501Y62546D01*
X276612Y62501D01*
X276744Y62466D01*
X276895Y62441D01*
X277067Y62426D01*
X277260Y62421D01*
Y61421D01*
X277067Y61416D01*
X276895Y61401D01*
X276744Y61376D01*
X276612Y61341D01*
X276501Y61296D01*
X276410Y61241D01*
X276339Y61176D01*
X276288Y61101D01*
X276258Y61016D01*
X276248Y60921D01*
Y62921D01*
X276258Y62826D01*
D02*
G37*
G36*
X261644Y61618D02*
X262007Y61311D01*
X262169Y61198D01*
X262317Y61112D01*
X262451Y61054D01*
X262573Y61023D01*
X262681Y61019D01*
X262775Y61043D01*
X262856Y61094D01*
X261355Y59790D01*
X261415Y59863D01*
X261446Y59950D01*
X261447Y60053D01*
X261419Y60172D01*
X261362Y60305D01*
X261275Y60454D01*
X261159Y60619D01*
X261014Y60799D01*
X260636Y61204D01*
X261442Y61813D01*
X261644Y61618D01*
D02*
G37*
G36*
X285742Y61420D02*
X286104Y61114D01*
X286265Y61003D01*
X286414Y60918D01*
X286548Y60861D01*
X286670Y60832D01*
X286778Y60829D01*
X286874Y60854D01*
X286956Y60906D01*
X285443Y59590D01*
X285505Y59664D01*
X285536Y59752D01*
X285539Y59856D01*
X285512Y59974D01*
X285456Y60108D01*
X285370Y60257D01*
X285256Y60421D01*
X285112Y60601D01*
X284736Y61005D01*
X285542Y61613D01*
X285742Y61420D01*
D02*
G37*
G36*
X337358Y60026D02*
X337388Y59941D01*
X337439Y59866D01*
X337510Y59801D01*
X337601Y59746D01*
X337712Y59701D01*
X337843Y59666D01*
X337995Y59641D01*
X338167Y59626D01*
X338360Y59621D01*
Y58621D01*
X338167Y58616D01*
X337995Y58601D01*
X337843Y58576D01*
X337712Y58541D01*
X337601Y58496D01*
X337510Y58441D01*
X337439Y58376D01*
X337388Y58301D01*
X337358Y58216D01*
X337348Y58121D01*
Y60121D01*
X337358Y60026D01*
D02*
G37*
G36*
X457358Y59726D02*
X457388Y59641D01*
X457439Y59566D01*
X457510Y59501D01*
X457601Y59446D01*
X457712Y59401D01*
X457843Y59366D01*
X457995Y59341D01*
X458167Y59326D01*
X458360Y59321D01*
Y58321D01*
X458167Y58316D01*
X457995Y58301D01*
X457843Y58276D01*
X457712Y58241D01*
X457601Y58196D01*
X457510Y58141D01*
X457439Y58076D01*
X457388Y58001D01*
X457358Y57916D01*
X457348Y57821D01*
Y59821D01*
X457358Y59726D01*
D02*
G37*
G36*
X397258D02*
X397288Y59641D01*
X397339Y59566D01*
X397410Y59501D01*
X397501Y59446D01*
X397612Y59401D01*
X397744Y59366D01*
X397895Y59341D01*
X398067Y59326D01*
X398260Y59321D01*
Y58321D01*
X398067Y58316D01*
X397895Y58301D01*
X397744Y58276D01*
X397612Y58241D01*
X397501Y58196D01*
X397410Y58141D01*
X397339Y58076D01*
X397288Y58001D01*
X397258Y57916D01*
X397248Y57821D01*
Y59821D01*
X397258Y59726D01*
D02*
G37*
G36*
X167681Y59545D02*
X167794Y59452D01*
X167910Y59369D01*
X168029Y59298D01*
X168151Y59237D01*
X168278Y59188D01*
X168407Y59149D01*
X168539Y59122D01*
X168675Y59105D01*
X168814Y59100D01*
Y58100D01*
X168675Y58095D01*
X168539Y58078D01*
X168407Y58051D01*
X168278Y58012D01*
X168151Y57963D01*
X168029Y57902D01*
X167910Y57831D01*
X167794Y57748D01*
X167681Y57655D01*
X167571Y57550D01*
Y59650D01*
X167681Y59545D01*
D02*
G37*
G36*
X323644Y59318D02*
X324007Y59011D01*
X324168Y58898D01*
X324317Y58812D01*
X324451Y58754D01*
X324573Y58723D01*
X324680Y58719D01*
X324775Y58743D01*
X324856Y58794D01*
X323356Y57490D01*
X323415Y57563D01*
X323446Y57650D01*
X323447Y57753D01*
X323419Y57872D01*
X323362Y58005D01*
X323275Y58154D01*
X323159Y58319D01*
X323014Y58499D01*
X322636Y58904D01*
X323442Y59513D01*
X323644Y59318D01*
D02*
G37*
G36*
X383355Y55448D02*
X383345Y55543D01*
X383315Y55628D01*
X383264Y55703D01*
X383194Y55768D01*
X383102Y55823D01*
X382991Y55868D01*
X382860Y55903D01*
X382708Y55928D01*
X382536Y55943D01*
X382344Y55948D01*
Y56948D01*
X382536Y56953D01*
X382708Y56968D01*
X382860Y56993D01*
X382991Y57028D01*
X383102Y57073D01*
X383194Y57128D01*
X383264Y57193D01*
X383315Y57268D01*
X383345Y57353D01*
X383355Y57448D01*
Y55448D01*
D02*
G37*
G36*
X443155Y55248D02*
X443145Y55343D01*
X443115Y55428D01*
X443064Y55503D01*
X442994Y55568D01*
X442903Y55623D01*
X442791Y55668D01*
X442660Y55703D01*
X442508Y55728D01*
X442336Y55743D01*
X442143Y55748D01*
Y56748D01*
X442336Y56753D01*
X442508Y56768D01*
X442660Y56793D01*
X442791Y56828D01*
X442903Y56873D01*
X442994Y56928D01*
X443064Y56993D01*
X443115Y57068D01*
X443145Y57153D01*
X443155Y57248D01*
Y55248D01*
D02*
G37*
G36*
X265964Y53756D02*
X265828Y53614D01*
X265706Y53471D01*
X265598Y53329D01*
X265505Y53187D01*
X265426Y53045D01*
X265361Y52904D01*
X265311Y52763D01*
X265274Y52622D01*
X265252Y52482D01*
X265245Y52342D01*
X265257Y54610D01*
X265264Y54589D01*
X265285Y54586D01*
X265320Y54599D01*
X265370Y54629D01*
X265433Y54677D01*
X265603Y54823D01*
X265964Y55171D01*
Y53756D01*
D02*
G37*
G36*
X441827Y83516D02*
X441825Y83497D01*
X441831Y83477D01*
Y79278D01*
Y72782D01*
X449768D01*
Y76264D01*
X451956Y78451D01*
X456144D01*
X456169Y78427D01*
Y71609D01*
X463712D01*
Y79349D01*
X462219D01*
X461743Y80062D01*
X459972Y81833D01*
Y82772D01*
X464931D01*
Y79578D01*
Y73082D01*
X472868D01*
Y74403D01*
X474263D01*
X474333Y74234D01*
X475134Y73190D01*
X476178Y72388D01*
X477052Y72026D01*
Y71485D01*
X476178Y71123D01*
X475134Y70322D01*
X474333Y69278D01*
X473829Y68061D01*
X473657Y66756D01*
X473829Y65451D01*
X474333Y64234D01*
X475134Y63190D01*
X476178Y62388D01*
X476498Y62256D01*
X476399Y61756D01*
X473700D01*
Y55506D01*
X473698Y55500D01*
X473700Y55444D01*
Y55361D01*
X472630Y54291D01*
X472168Y54483D01*
Y60718D01*
X467888D01*
X467202Y61176D01*
X466227Y61370D01*
X459372D01*
Y62691D01*
X451828D01*
Y57149D01*
X450600D01*
X449624Y56955D01*
X449509Y56878D01*
X449068Y57114D01*
Y60118D01*
X441131D01*
Y58797D01*
X433848D01*
X432873Y58603D01*
X432046Y58050D01*
X416644Y42649D01*
X360007D01*
X359816Y43111D01*
X370604Y53899D01*
X381331D01*
Y52578D01*
Y46082D01*
X389268D01*
Y49764D01*
X391456Y51951D01*
X395468D01*
Y45109D01*
X403012D01*
Y52849D01*
X401612D01*
X401595Y52935D01*
X401043Y53762D01*
X399272Y55533D01*
Y56272D01*
X404232D01*
Y53078D01*
Y46582D01*
X412169D01*
Y47903D01*
X415452D01*
X416427Y48097D01*
X417254Y48650D01*
X420002Y51398D01*
X420242Y51756D01*
X423200D01*
Y61756D01*
X420501D01*
X420402Y62256D01*
X420722Y62388D01*
X421766Y63190D01*
X422568Y64234D01*
X423071Y65451D01*
X423243Y66756D01*
X423071Y68061D01*
X422568Y69278D01*
X421766Y70322D01*
X420722Y71123D01*
X419848Y71485D01*
Y72026D01*
X420722Y72388D01*
X421766Y73190D01*
X422568Y74234D01*
X423071Y75451D01*
X423243Y76756D01*
X423071Y78061D01*
X422568Y79277D01*
X421766Y80322D01*
X420722Y81123D01*
X419505Y81627D01*
X418200Y81799D01*
X416895Y81627D01*
X415678Y81123D01*
X414634Y80322D01*
X414234Y79801D01*
X412169D01*
Y87618D01*
X407935D01*
X407729Y87824D01*
X407286Y88120D01*
X407283Y88122D01*
X407282Y88123D01*
X406902Y88376D01*
X405927Y88570D01*
X399372D01*
Y89251D01*
X436092D01*
X441827Y83516D01*
D02*
G37*
G36*
X187416Y56221D02*
X187536Y56132D01*
X187658Y56054D01*
X187782Y55987D01*
X187909Y55930D01*
X188037Y55883D01*
X188168Y55847D01*
X188302Y55821D01*
X188437Y55805D01*
X188575Y55800D01*
X188646Y54800D01*
X188505Y54794D01*
X188369Y54777D01*
X188238Y54748D01*
X188110Y54708D01*
X187987Y54656D01*
X187869Y54593D01*
X187755Y54518D01*
X187645Y54431D01*
X187540Y54333D01*
X187439Y54224D01*
X187299Y56319D01*
X187416Y56221D01*
D02*
G37*
G36*
X477126Y53768D02*
X477048Y53825D01*
X476957Y53853D01*
X476850D01*
X476730Y53825D01*
X476596Y53768D01*
X476447Y53683D01*
X476285Y53570D01*
X476108Y53429D01*
X475712Y53061D01*
X475005Y53768D01*
X475203Y53973D01*
X475514Y54341D01*
X475627Y54503D01*
X475712Y54652D01*
X475769Y54786D01*
X475797Y54906D01*
Y55012D01*
X475769Y55104D01*
X475712Y55182D01*
X477126Y53768D01*
D02*
G37*
G36*
X295626D02*
X295548Y53825D01*
X295457Y53853D01*
X295350D01*
X295230Y53825D01*
X295096Y53768D01*
X294947Y53683D01*
X294785Y53570D01*
X294608Y53429D01*
X294212Y53061D01*
X293505Y53768D01*
X293703Y53973D01*
X294014Y54341D01*
X294127Y54503D01*
X294212Y54652D01*
X294269Y54786D01*
X294297Y54906D01*
Y55012D01*
X294269Y55104D01*
X294212Y55182D01*
X295626Y53768D01*
D02*
G37*
G36*
X418755Y53762D02*
X418744Y53745D01*
X418733Y53717D01*
X418724Y53677D01*
X418717Y53626D01*
X418706Y53490D01*
X418700Y53200D01*
X417700D01*
X417699Y53308D01*
X417676Y53677D01*
X417667Y53717D01*
X417657Y53745D01*
X417645Y53762D01*
X417632Y53768D01*
X418768D01*
X418755Y53762D01*
D02*
G37*
G36*
X358255D02*
X358243Y53745D01*
X358233Y53717D01*
X358224Y53677D01*
X358217Y53626D01*
X358206Y53490D01*
X358200Y53200D01*
X357200D01*
X357199Y53308D01*
X357176Y53677D01*
X357167Y53717D01*
X357156Y53745D01*
X357145Y53762D01*
X357132Y53768D01*
X358268D01*
X358255Y53762D01*
D02*
G37*
G36*
X369350Y81846D02*
X370177Y81293D01*
X371152Y81099D01*
X381231D01*
Y79778D01*
Y73282D01*
X389169D01*
Y76657D01*
X389191Y76686D01*
X391756Y79251D01*
X395568D01*
Y72309D01*
X403112D01*
Y80049D01*
X401880D01*
X401855Y80176D01*
X401302Y81002D01*
X399372Y82933D01*
Y83472D01*
X404232D01*
Y79878D01*
Y73382D01*
X412169D01*
Y74703D01*
X413638D01*
X413833Y74234D01*
X414634Y73190D01*
X415678Y72388D01*
X416552Y72026D01*
Y71485D01*
X415678Y71123D01*
X414634Y70322D01*
X413833Y69278D01*
X413329Y68061D01*
X413157Y66756D01*
X413329Y65451D01*
X413833Y64234D01*
X414634Y63190D01*
X415678Y62388D01*
X415998Y62256D01*
X415899Y61756D01*
X413200D01*
Y53001D01*
X412169D01*
Y60818D01*
X407838D01*
X407302Y61176D01*
X406327Y61370D01*
X399272D01*
Y62691D01*
X391728D01*
Y57049D01*
X390400D01*
X389769Y56923D01*
X389268Y57306D01*
Y60318D01*
X381331D01*
Y58997D01*
X369548D01*
X368573Y58803D01*
X367746Y58250D01*
X363162Y53667D01*
X362700Y53858D01*
Y61756D01*
X360001D01*
X359902Y62256D01*
X360222Y62388D01*
X361266Y63190D01*
X362068Y64234D01*
X362571Y65451D01*
X362743Y66756D01*
X362571Y68061D01*
X362068Y69278D01*
X361266Y70322D01*
X360222Y71123D01*
X359348Y71485D01*
Y72026D01*
X360222Y72388D01*
X361266Y73190D01*
X362068Y74234D01*
X362571Y75451D01*
X362743Y76756D01*
X362571Y78061D01*
X362068Y79277D01*
X361266Y80322D01*
X360222Y81123D01*
X359005Y81627D01*
X357700Y81799D01*
X356395Y81627D01*
X355178Y81123D01*
X354134Y80322D01*
X353734Y79801D01*
X351869D01*
Y87618D01*
X352231Y87951D01*
X363244D01*
X369350Y81846D01*
D02*
G37*
G36*
X307850Y81646D02*
X308677Y81093D01*
X309652Y80899D01*
X320632D01*
Y79578D01*
Y73082D01*
X328569D01*
Y76456D01*
X328591Y76486D01*
X330756Y78651D01*
X335169D01*
Y71909D01*
X342712D01*
Y79649D01*
X341286D01*
X340743Y80462D01*
X338972Y82233D01*
Y83072D01*
X343932D01*
Y79878D01*
Y73382D01*
X351869D01*
Y74703D01*
X353138D01*
X353332Y74234D01*
X354134Y73190D01*
X355178Y72388D01*
X356052Y72026D01*
Y71485D01*
X355178Y71123D01*
X354134Y70322D01*
X353332Y69278D01*
X352829Y68061D01*
X352657Y66756D01*
X352829Y65451D01*
X353332Y64234D01*
X354134Y63190D01*
X355178Y62388D01*
X355498Y62256D01*
X355399Y61756D01*
X352700D01*
Y53001D01*
X352168D01*
Y60818D01*
X347935D01*
X347829Y60924D01*
X347002Y61476D01*
X346027Y61670D01*
X339372D01*
Y62991D01*
X331828D01*
Y57349D01*
X330500D01*
X329768Y57204D01*
X329269Y57539D01*
Y60818D01*
X325036D01*
X325034Y60819D01*
X322250Y63602D01*
X321424Y64155D01*
X320448Y64349D01*
X302065D01*
X301787Y64765D01*
X302071Y65451D01*
X302243Y66756D01*
X302071Y68061D01*
X301568Y69278D01*
X300766Y70322D01*
X299722Y71123D01*
X298848Y71485D01*
Y72026D01*
X299722Y72388D01*
X300766Y73190D01*
X301568Y74234D01*
X302071Y75451D01*
X302243Y76756D01*
X302071Y78061D01*
X301568Y79277D01*
X300766Y80322D01*
X299722Y81123D01*
X298505Y81627D01*
X297200Y81799D01*
X295895Y81627D01*
X294678Y81123D01*
X293634Y80322D01*
X293388Y80001D01*
X291168D01*
Y87751D01*
X301744D01*
X307850Y81646D01*
D02*
G37*
G36*
X327964Y51556D02*
X327828Y51414D01*
X327706Y51271D01*
X327599Y51129D01*
X327505Y50987D01*
X327426Y50845D01*
X327361Y50704D01*
X327311Y50563D01*
X327274Y50423D01*
X327252Y50282D01*
X327244Y50142D01*
X327256Y52310D01*
X327264Y52308D01*
X327285Y52322D01*
X327320Y52350D01*
X327433Y52452D01*
X327964Y52971D01*
Y51556D01*
D02*
G37*
G36*
X387964Y51357D02*
X387785Y51171D01*
X387498Y50828D01*
X387390Y50672D01*
X387307Y50526D01*
X387247Y50389D01*
X387210Y50263D01*
X387198Y50146D01*
X387209Y50039D01*
X387245Y49942D01*
X386296Y51798D01*
X386352Y51723D01*
X386428Y51680D01*
X386522Y51670D01*
X386635Y51692D01*
X386767Y51748D01*
X386918Y51836D01*
X387088Y51957D01*
X387276Y52111D01*
X387710Y52517D01*
X387964Y51357D01*
D02*
G37*
G36*
X289355Y53457D02*
X289385Y53372D01*
X289436Y53297D01*
X289506Y53232D01*
X289598Y53177D01*
X289709Y53132D01*
X289840Y53097D01*
X289992Y53072D01*
X290164Y53057D01*
X290356Y53052D01*
Y52052D01*
X290164Y52047D01*
X289992Y52032D01*
X289840Y52007D01*
X289709Y51972D01*
X289598Y51927D01*
X289506Y51872D01*
X289436Y51807D01*
X289385Y51732D01*
X289355Y51647D01*
X289345Y51552D01*
Y53552D01*
X289355Y53457D01*
D02*
G37*
G36*
X447764Y51056D02*
X447589Y50875D01*
X447308Y50539D01*
X447202Y50384D01*
X447119Y50238D01*
X447059Y50101D01*
X447021Y49973D01*
X447006Y49854D01*
X447014Y49744D01*
X447045Y49642D01*
X446196Y51598D01*
X446248Y51518D01*
X446320Y51472D01*
X446412Y51459D01*
X446523Y51480D01*
X446655Y51535D01*
X446806Y51624D01*
X446977Y51747D01*
X447168Y51903D01*
X447610Y52317D01*
X447764Y51056D01*
D02*
G37*
G36*
X460005Y51647D02*
X460020Y51477D01*
X460045Y51327D01*
X460080Y51197D01*
X460125Y51087D01*
X460180Y50997D01*
X460245Y50927D01*
X460320Y50877D01*
X460405Y50847D01*
X460500Y50837D01*
X458500D01*
X458595Y50847D01*
X458680Y50877D01*
X458755Y50927D01*
X458820Y50997D01*
X458875Y51087D01*
X458920Y51197D01*
X458955Y51327D01*
X458980Y51477D01*
X458995Y51647D01*
X459000Y51837D01*
X460000D01*
X460005Y51647D01*
D02*
G37*
G36*
X399745D02*
X399760Y51477D01*
X399785Y51327D01*
X399820Y51197D01*
X399865Y51087D01*
X399920Y50997D01*
X399985Y50927D01*
X400060Y50877D01*
X400145Y50847D01*
X400240Y50837D01*
X398240D01*
X398335Y50847D01*
X398420Y50877D01*
X398495Y50927D01*
X398560Y50997D01*
X398615Y51087D01*
X398660Y51197D01*
X398695Y51327D01*
X398720Y51477D01*
X398735Y51647D01*
X398740Y51837D01*
X399740D01*
X399745Y51647D01*
D02*
G37*
G36*
X410155Y51357D02*
X410185Y51272D01*
X410236Y51197D01*
X410306Y51132D01*
X410397Y51077D01*
X410509Y51032D01*
X410640Y50997D01*
X410792Y50972D01*
X410964Y50957D01*
X411157Y50952D01*
Y49952D01*
X410964Y49947D01*
X410792Y49932D01*
X410640Y49907D01*
X410509Y49872D01*
X410397Y49827D01*
X410306Y49772D01*
X410236Y49707D01*
X410185Y49632D01*
X410155Y49547D01*
X410145Y49452D01*
Y51452D01*
X410155Y51357D01*
D02*
G37*
G36*
X350155D02*
X350185Y51272D01*
X350236Y51197D01*
X350306Y51132D01*
X350397Y51077D01*
X350509Y51032D01*
X350640Y50997D01*
X350792Y50972D01*
X350964Y50957D01*
X351156Y50952D01*
Y49952D01*
X350964Y49947D01*
X350792Y49932D01*
X350640Y49907D01*
X350509Y49872D01*
X350397Y49827D01*
X350306Y49772D01*
X350236Y49707D01*
X350185Y49632D01*
X350155Y49547D01*
X350145Y49452D01*
Y51452D01*
X350155Y51357D01*
D02*
G37*
G36*
X470155Y51257D02*
X470185Y51172D01*
X470236Y51097D01*
X470306Y51032D01*
X470398Y50977D01*
X470509Y50932D01*
X470640Y50897D01*
X470792Y50872D01*
X470964Y50857D01*
X471157Y50852D01*
Y49852D01*
X470964Y49847D01*
X470792Y49832D01*
X470640Y49807D01*
X470509Y49772D01*
X470398Y49727D01*
X470306Y49672D01*
X470236Y49607D01*
X470185Y49532D01*
X470155Y49447D01*
X470145Y49352D01*
Y51352D01*
X470155Y51257D01*
D02*
G37*
G36*
X283432Y59341D02*
Y55178D01*
Y48682D01*
X291369D01*
Y50003D01*
X292996D01*
X293971Y50197D01*
X294798Y50750D01*
X295805Y51756D01*
X295888D01*
X295944Y51754D01*
X295950Y51756D01*
X302200D01*
Y59251D01*
X319392D01*
X321327Y57316D01*
X321325Y57297D01*
X321332Y57277D01*
Y53078D01*
Y46649D01*
X264256D01*
X262485Y48420D01*
X262676Y48882D01*
X267268D01*
Y52157D01*
X267291Y52186D01*
X269856Y54751D01*
X274244D01*
X274468Y54527D01*
Y48209D01*
X282012D01*
Y55949D01*
X280205D01*
X280102Y56102D01*
X278534Y57671D01*
X278272Y58051D01*
X278272D01*
X278272Y58051D01*
Y59372D01*
X283422D01*
X283432Y59341D01*
D02*
G37*
G36*
X335568Y51627D02*
Y46649D01*
X329269D01*
Y49957D01*
X329291Y49986D01*
X331556Y52251D01*
X334944D01*
X335568Y51627D01*
D02*
G37*
G36*
X195135Y48493D02*
X195210Y48442D01*
X195296Y48397D01*
X195393Y48358D01*
X195500Y48325D01*
X195526Y48319D01*
X195639Y48345D01*
X195724Y48373D01*
X195798Y48406D01*
X195860Y48443D01*
X195825Y48269D01*
X195887Y48262D01*
X196199Y48250D01*
Y46750D01*
X196038Y46747D01*
X195747Y46723D01*
X195618Y46702D01*
X195500Y46675D01*
X195500Y46675D01*
X195440Y46385D01*
X195387Y46455D01*
X195322Y46517D01*
X195245Y46571D01*
X195240Y46574D01*
X195210Y46558D01*
X195135Y46507D01*
X195071Y46450D01*
Y46652D01*
X195055Y46659D01*
X194942Y46692D01*
X194817Y46717D01*
X194679Y46735D01*
X194530Y46746D01*
X194369Y46750D01*
X194729Y48250D01*
X194892Y48252D01*
X195071Y48264D01*
Y48550D01*
X195135Y48493D01*
D02*
G37*
G36*
X41924Y47436D02*
X42248Y47153D01*
X42390Y47047D01*
X42519Y46965D01*
X42634Y46906D01*
X42736Y46871D01*
X42825Y46859D01*
X42901Y46871D01*
X42963Y46906D01*
X41644Y45784D01*
X41686Y45838D01*
X41704Y45908D01*
X41696Y45993D01*
X41664Y46092D01*
X41605Y46207D01*
X41522Y46336D01*
X41414Y46481D01*
X41280Y46641D01*
X40936Y47005D01*
X41742Y47613D01*
X41924Y47436D01*
D02*
G37*
G36*
X193985Y46000D02*
X193899Y45995D01*
X193810Y45978D01*
X193718Y45949D01*
X193622Y45908D01*
X193523Y45856D01*
X193420Y45791D01*
X193314Y45715D01*
X193204Y45627D01*
X192975Y45415D01*
X191915Y46475D01*
X192027Y46592D01*
X192215Y46814D01*
X192291Y46920D01*
X192356Y47023D01*
X192408Y47122D01*
X192449Y47218D01*
X192478Y47310D01*
X192495Y47399D01*
X192500Y47485D01*
X193985Y46000D01*
D02*
G37*
G36*
X45555Y45905D02*
X45585Y45820D01*
X45636Y45745D01*
X45706Y45680D01*
X45798Y45625D01*
X45909Y45580D01*
X46040Y45545D01*
X46192Y45520D01*
X46364Y45505D01*
X46556Y45500D01*
Y44500D01*
X46364Y44495D01*
X46192Y44480D01*
X46040Y44455D01*
X45909Y44420D01*
X45798Y44375D01*
X45706Y44320D01*
X45636Y44255D01*
X45585Y44180D01*
X45555Y44095D01*
X45544Y44000D01*
Y46000D01*
X45555Y45905D01*
D02*
G37*
G36*
X35906Y44840D02*
X35778Y44795D01*
X35666Y44719D01*
X35568Y44614D01*
X35486Y44477D01*
X35418Y44311D01*
X35366Y44115D01*
X35328Y43888D01*
X35306Y43631D01*
X35298Y43343D01*
X33798D01*
X33790Y43631D01*
X33768Y43888D01*
X33731Y44115D01*
X33678Y44311D01*
X33610Y44477D01*
X33528Y44614D01*
X33430Y44719D01*
X33318Y44795D01*
X33191Y44840D01*
X33048Y44855D01*
X36048D01*
X35906Y44840D01*
D02*
G37*
G36*
X104329Y43119D02*
X104418Y43098D01*
X104547Y43077D01*
X104687Y43062D01*
X104999Y43050D01*
Y41550D01*
X104838Y41547D01*
X104547Y41523D01*
X104418Y41502D01*
X104329Y41482D01*
Y41250D01*
X104265Y41307D01*
X104190Y41358D01*
X104104Y41403D01*
X104100Y41405D01*
X104096Y41403D01*
X104010Y41358D01*
X103935Y41307D01*
X103871Y41250D01*
Y41482D01*
X103782Y41502D01*
X103653Y41523D01*
X103513Y41538D01*
X103201Y41550D01*
Y43050D01*
X103362Y43053D01*
X103653Y43077D01*
X103782Y43098D01*
X103871Y43119D01*
Y43350D01*
X103935Y43293D01*
X104010Y43242D01*
X104096Y43197D01*
X104100Y43196D01*
X104104Y43197D01*
X104190Y43242D01*
X104265Y43293D01*
X104329Y43350D01*
Y43119D01*
D02*
G37*
G36*
X106535Y43293D02*
X106610Y43242D01*
X106696Y43197D01*
X106793Y43158D01*
X106900Y43125D01*
X107018Y43098D01*
X107147Y43077D01*
X107287Y43062D01*
X107599Y43050D01*
Y41550D01*
X107438Y41547D01*
X107147Y41523D01*
X107018Y41502D01*
X106900Y41475D01*
X106793Y41442D01*
X106696Y41403D01*
X106610Y41358D01*
X106535Y41307D01*
X106471Y41250D01*
Y43350D01*
X106535Y43293D01*
D02*
G37*
G36*
X547971Y39900D02*
X547961Y39995D01*
X547931Y40080D01*
X547880Y40155D01*
X547809Y40220D01*
X547718Y40275D01*
X547607Y40320D01*
X547475Y40355D01*
X547324Y40380D01*
X547152Y40395D01*
X546959Y40400D01*
Y41400D01*
X547152Y41405D01*
X547324Y41420D01*
X547475Y41445D01*
X547607Y41480D01*
X547718Y41525D01*
X547809Y41580D01*
X547880Y41645D01*
X547931Y41720D01*
X547961Y41805D01*
X547971Y41900D01*
Y39900D01*
D02*
G37*
G36*
X41655Y37052D02*
X41640Y37194D01*
X41595Y37322D01*
X41519Y37435D01*
X41414Y37532D01*
X41278Y37615D01*
X41111Y37682D01*
X40915Y37734D01*
X40688Y37772D01*
X40431Y37795D01*
X40143Y37802D01*
Y39302D01*
X40431Y39309D01*
X40688Y39332D01*
X40915Y39369D01*
X41111Y39422D01*
X41278Y39489D01*
X41414Y39572D01*
X41519Y39669D01*
X41595Y39782D01*
X41640Y39909D01*
X41655Y40052D01*
Y37052D01*
D02*
G37*
G36*
X540437Y37085D02*
X540388Y37061D01*
X540344Y37022D01*
X540306Y36966D01*
X540273Y36895D01*
X540247Y36808D01*
X540226Y36704D01*
X540212Y36586D01*
X540203Y36451D01*
X540200Y36300D01*
X539200D01*
X539197Y36451D01*
X539174Y36704D01*
X539153Y36808D01*
X539127Y36895D01*
X539094Y36966D01*
X539056Y37022D01*
X539012Y37061D01*
X538963Y37085D01*
X538907Y37093D01*
X540493D01*
X540437Y37085D01*
D02*
G37*
G36*
X58565Y36849D02*
X58934Y36535D01*
X59097Y36421D01*
X59246Y36335D01*
X59380Y36277D01*
X59500Y36248D01*
X59606Y36246D01*
X59697Y36273D01*
X59773Y36329D01*
X58371Y34927D01*
X58427Y35003D01*
X58454Y35094D01*
X58452Y35200D01*
X58423Y35320D01*
X58365Y35454D01*
X58279Y35603D01*
X58165Y35765D01*
X58022Y35943D01*
X57652Y36341D01*
X58359Y37048D01*
X58565Y36849D01*
D02*
G37*
G36*
X98504Y36925D02*
X98695Y36801D01*
X98914Y36692D01*
X99164Y36598D01*
X99442Y36520D01*
X99749Y36456D01*
X100085Y36407D01*
X100846Y36356D01*
X101270Y36353D01*
X98347Y33430D01*
X98344Y33854D01*
X98293Y34615D01*
X98244Y34951D01*
X98181Y35258D01*
X98102Y35537D01*
X98008Y35785D01*
X97899Y36005D01*
X97775Y36196D01*
X97636Y36357D01*
X98343Y37064D01*
X98504Y36925D01*
D02*
G37*
G36*
X88504D02*
X88695Y36801D01*
X88915Y36692D01*
X89164Y36598D01*
X89442Y36520D01*
X89749Y36456D01*
X90086Y36407D01*
X90846Y36356D01*
X91271Y36353D01*
X88347Y33430D01*
X88344Y33854D01*
X88293Y34615D01*
X88244Y34951D01*
X88181Y35258D01*
X88102Y35537D01*
X88008Y35785D01*
X87899Y36005D01*
X87775Y36196D01*
X87636Y36357D01*
X88343Y37064D01*
X88504Y36925D01*
D02*
G37*
G36*
X78504D02*
X78695Y36801D01*
X78914Y36692D01*
X79163Y36598D01*
X79442Y36520D01*
X79749Y36456D01*
X80085Y36407D01*
X80846Y36356D01*
X81270Y36353D01*
X78347Y33430D01*
X78344Y33854D01*
X78293Y34615D01*
X78244Y34951D01*
X78180Y35258D01*
X78102Y35537D01*
X78008Y35785D01*
X77899Y36005D01*
X77775Y36196D01*
X77636Y36357D01*
X78343Y37064D01*
X78504Y36925D01*
D02*
G37*
G36*
X68504D02*
X68695Y36801D01*
X68915Y36692D01*
X69164Y36598D01*
X69442Y36520D01*
X69749Y36456D01*
X70086Y36407D01*
X70846Y36356D01*
X71271Y36353D01*
X68347Y33430D01*
X68344Y33854D01*
X68293Y34615D01*
X68244Y34951D01*
X68181Y35258D01*
X68102Y35537D01*
X68008Y35785D01*
X67899Y36005D01*
X67775Y36196D01*
X67636Y36357D01*
X68343Y37064D01*
X68504Y36925D01*
D02*
G37*
G36*
X544626Y30367D02*
X544641Y30195D01*
X544666Y30044D01*
X544701Y29912D01*
X544746Y29801D01*
X544801Y29710D01*
X544866Y29639D01*
X544941Y29588D01*
X545026Y29558D01*
X545121Y29548D01*
X543121D01*
X543216Y29558D01*
X543301Y29588D01*
X543376Y29639D01*
X543441Y29710D01*
X543496Y29801D01*
X543541Y29912D01*
X543576Y30044D01*
X543601Y30195D01*
X543616Y30367D01*
X543621Y30560D01*
X544621D01*
X544626Y30367D01*
D02*
G37*
G36*
X206974Y30902D02*
X207768Y29868D01*
X208802Y29074D01*
X209776Y28671D01*
Y28129D01*
X208802Y27726D01*
X207768Y26932D01*
X206974Y25898D01*
X206475Y24693D01*
X206305Y23400D01*
X206475Y22107D01*
X206974Y20902D01*
X207475Y20249D01*
X207228Y19749D01*
X195371D01*
X195125Y20249D01*
X195626Y20902D01*
X196125Y22107D01*
X196295Y23400D01*
X196125Y24693D01*
X195626Y25898D01*
X194832Y26932D01*
X193798Y27726D01*
X192824Y28129D01*
Y28671D01*
X193798Y29074D01*
X194832Y29868D01*
X195626Y30902D01*
X196029Y31876D01*
X196571D01*
X196974Y30902D01*
X197768Y29868D01*
X198802Y29074D01*
X200007Y28575D01*
X201300Y28405D01*
X202593Y28575D01*
X203798Y29074D01*
X204832Y29868D01*
X205626Y30902D01*
X206029Y31876D01*
X206571D01*
X206974Y30902D01*
D02*
G37*
G36*
X116974D02*
X117768Y29868D01*
X118802Y29074D01*
X119776Y28671D01*
Y28129D01*
X118802Y27726D01*
X117768Y26932D01*
X116974Y25898D01*
X116475Y24693D01*
X116305Y23400D01*
X116475Y22107D01*
X116974Y20902D01*
X117475Y20249D01*
X117228Y19749D01*
X105371D01*
X105125Y20249D01*
X105626Y20902D01*
X106125Y22107D01*
X106296Y23400D01*
X106125Y24693D01*
X105626Y25898D01*
X105610Y25919D01*
X105509Y26104D01*
X108002Y28598D01*
X108281Y29014D01*
X108774Y29096D01*
X108802Y29074D01*
X110007Y28575D01*
X111300Y28405D01*
X112593Y28575D01*
X113798Y29074D01*
X114832Y29868D01*
X115626Y30902D01*
X116029Y31876D01*
X116571D01*
X116974Y30902D01*
D02*
G37*
G36*
X245044Y26237D02*
X244909Y26080D01*
X244786Y25892D01*
X244675Y25674D01*
X244577Y25425D01*
X244492Y25146D01*
X244418Y24835D01*
X244358Y24495D01*
X244274Y23721D01*
X244251Y23288D01*
X241471Y26348D01*
X241886Y26332D01*
X242633Y26352D01*
X242965Y26389D01*
X243269Y26443D01*
X243545Y26515D01*
X243793Y26605D01*
X244014Y26712D01*
X244207Y26836D01*
X244372Y26979D01*
X245044Y26237D01*
D02*
G37*
G36*
X103825Y27318D02*
X103665Y27133D01*
X103540Y26936D01*
X103452Y26727D01*
X103399Y26505D01*
X103383Y26271D01*
X103402Y26024D01*
X103457Y25764D01*
X103548Y25492D01*
X103675Y25207D01*
X103837Y24910D01*
X99961Y26032D01*
X102695Y27602D01*
X103825Y27318D01*
D02*
G37*
G36*
X234964Y26357D02*
X234825Y26196D01*
X234701Y26005D01*
X234592Y25785D01*
X234498Y25537D01*
X234419Y25258D01*
X234356Y24951D01*
X234307Y24614D01*
X234256Y23854D01*
X234253Y23429D01*
X231329Y26353D01*
X231754Y26356D01*
X232515Y26407D01*
X232851Y26456D01*
X233158Y26520D01*
X233436Y26598D01*
X233685Y26692D01*
X233905Y26801D01*
X234096Y26925D01*
X234257Y27064D01*
X234964Y26357D01*
D02*
G37*
G36*
X224964D02*
X224825Y26196D01*
X224701Y26005D01*
X224592Y25785D01*
X224498Y25537D01*
X224419Y25258D01*
X224356Y24951D01*
X224307Y24614D01*
X224256Y23854D01*
X224253Y23429D01*
X221329Y26353D01*
X221754Y26356D01*
X222515Y26407D01*
X222851Y26456D01*
X223158Y26520D01*
X223436Y26598D01*
X223686Y26692D01*
X223905Y26801D01*
X224096Y26925D01*
X224257Y27064D01*
X224964Y26357D01*
D02*
G37*
G36*
X627433Y23199D02*
X627424Y23268D01*
X627398Y23329D01*
X627354Y23383D01*
X627293Y23430D01*
X627214Y23470D01*
X627118Y23502D01*
X627005Y23527D01*
X626874Y23545D01*
X626726Y23556D01*
X626560Y23560D01*
Y24560D01*
X626726Y24564D01*
X627005Y24592D01*
X627118Y24618D01*
X627214Y24650D01*
X627293Y24690D01*
X627354Y24737D01*
X627398Y24791D01*
X627424Y24852D01*
X627433Y24921D01*
Y23199D01*
D02*
G37*
G36*
X562933D02*
X562924Y23268D01*
X562898Y23329D01*
X562854Y23383D01*
X562793Y23430D01*
X562714Y23470D01*
X562618Y23502D01*
X562505Y23527D01*
X562374Y23545D01*
X562226Y23556D01*
X562060Y23560D01*
Y24560D01*
X562226Y24564D01*
X562505Y24592D01*
X562618Y24618D01*
X562714Y24650D01*
X562793Y24690D01*
X562854Y24737D01*
X562898Y24791D01*
X562924Y24852D01*
X562933Y24921D01*
Y23199D01*
D02*
G37*
G36*
X595333Y23060D02*
X595323Y23155D01*
X595292Y23240D01*
X595242Y23315D01*
X595171Y23380D01*
X595080Y23435D01*
X594968Y23480D01*
X594837Y23515D01*
X594685Y23540D01*
X594513Y23555D01*
X594321Y23560D01*
Y24560D01*
X594513Y24565D01*
X594685Y24580D01*
X594837Y24605D01*
X594968Y24640D01*
X595080Y24685D01*
X595171Y24740D01*
X595242Y24805D01*
X595292Y24880D01*
X595323Y24965D01*
X595333Y25060D01*
Y23060D01*
D02*
G37*
G36*
X532433D02*
X532422Y23155D01*
X532392Y23240D01*
X532342Y23315D01*
X532271Y23380D01*
X532180Y23435D01*
X532068Y23480D01*
X531937Y23515D01*
X531785Y23540D01*
X531613Y23555D01*
X531421Y23560D01*
Y24560D01*
X531613Y24565D01*
X531785Y24580D01*
X531937Y24605D01*
X532068Y24640D01*
X532180Y24685D01*
X532271Y24740D01*
X532342Y24805D01*
X532392Y24880D01*
X532422Y24965D01*
X532433Y25060D01*
Y23060D01*
D02*
G37*
G36*
X497733D02*
X497722Y23155D01*
X497692Y23240D01*
X497642Y23315D01*
X497571Y23380D01*
X497480Y23435D01*
X497368Y23480D01*
X497237Y23515D01*
X497085Y23540D01*
X496913Y23555D01*
X496721Y23560D01*
Y24560D01*
X496913Y24565D01*
X497085Y24580D01*
X497237Y24605D01*
X497368Y24640D01*
X497480Y24685D01*
X497571Y24740D01*
X497642Y24805D01*
X497692Y24880D01*
X497722Y24965D01*
X497733Y25060D01*
Y23060D01*
D02*
G37*
G36*
X482806Y22400D02*
X482796Y22495D01*
X482765Y22580D01*
X482715Y22655D01*
X482644Y22720D01*
X482553Y22775D01*
X482442Y22820D01*
X482310Y22855D01*
X482158Y22880D01*
X481986Y22895D01*
X481794Y22900D01*
Y23900D01*
X481986Y23905D01*
X482158Y23920D01*
X482310Y23945D01*
X482442Y23980D01*
X482553Y24025D01*
X482644Y24080D01*
X482715Y24145D01*
X482765Y24220D01*
X482796Y24305D01*
X482806Y24400D01*
Y22400D01*
D02*
G37*
G36*
X624016Y23784D02*
X624046Y23699D01*
X624096Y23624D01*
X624166Y23559D01*
X624256Y23504D01*
X624366Y23459D01*
X624496Y23424D01*
X624646Y23399D01*
X624816Y23384D01*
X625006Y23379D01*
Y22379D01*
X624816Y22374D01*
X624646Y22359D01*
X624496Y22334D01*
X624366Y22299D01*
X624256Y22254D01*
X624166Y22199D01*
X624096Y22134D01*
X624046Y22059D01*
X624016Y21974D01*
X624006Y21879D01*
Y23879D01*
X624016Y23784D01*
D02*
G37*
G36*
X591416D02*
X591446Y23699D01*
X591496Y23624D01*
X591566Y23559D01*
X591656Y23504D01*
X591766Y23459D01*
X591896Y23424D01*
X592046Y23399D01*
X592216Y23384D01*
X592406Y23379D01*
Y22379D01*
X592216Y22374D01*
X592046Y22359D01*
X591896Y22334D01*
X591766Y22299D01*
X591656Y22254D01*
X591566Y22199D01*
X591496Y22134D01*
X591446Y22059D01*
X591416Y21974D01*
X591406Y21879D01*
Y23879D01*
X591416Y23784D01*
D02*
G37*
G36*
X559516D02*
X559546Y23699D01*
X559596Y23624D01*
X559666Y23559D01*
X559756Y23504D01*
X559866Y23459D01*
X559996Y23424D01*
X560146Y23399D01*
X560316Y23384D01*
X560506Y23379D01*
Y22379D01*
X560316Y22374D01*
X560146Y22359D01*
X559996Y22334D01*
X559866Y22299D01*
X559756Y22254D01*
X559666Y22199D01*
X559596Y22134D01*
X559546Y22059D01*
X559516Y21974D01*
X559506Y21879D01*
Y23879D01*
X559516Y23784D01*
D02*
G37*
G36*
X527116D02*
X527146Y23699D01*
X527196Y23624D01*
X527266Y23559D01*
X527356Y23504D01*
X527466Y23459D01*
X527596Y23424D01*
X527746Y23399D01*
X527916Y23384D01*
X528106Y23379D01*
Y22379D01*
X527916Y22374D01*
X527746Y22359D01*
X527596Y22334D01*
X527466Y22299D01*
X527356Y22254D01*
X527266Y22199D01*
X527196Y22134D01*
X527146Y22059D01*
X527116Y21974D01*
X527106Y21879D01*
Y23879D01*
X527116Y23784D01*
D02*
G37*
G36*
X493016D02*
X493046Y23699D01*
X493096Y23624D01*
X493166Y23559D01*
X493256Y23504D01*
X493366Y23459D01*
X493496Y23424D01*
X493646Y23399D01*
X493816Y23384D01*
X494006Y23379D01*
Y22379D01*
X493816Y22374D01*
X493646Y22359D01*
X493496Y22334D01*
X493366Y22299D01*
X493256Y22254D01*
X493166Y22199D01*
X493096Y22134D01*
X493046Y22059D01*
X493016Y21974D01*
X493006Y21879D01*
Y23879D01*
X493016Y23784D01*
D02*
G37*
G36*
X253711Y25169D02*
X254285Y24668D01*
X254558Y24464D01*
X254820Y24292D01*
X255072Y24151D01*
X255315Y24041D01*
X255547Y23963D01*
X255769Y23916D01*
X255982Y23900D01*
Y22900D01*
X255769Y22884D01*
X255547Y22837D01*
X255315Y22759D01*
X255072Y22649D01*
X254820Y22508D01*
X254558Y22336D01*
X254285Y22132D01*
X253711Y21631D01*
X253409Y21333D01*
Y25467D01*
X253711Y25169D01*
D02*
G37*
G36*
X615110Y20934D02*
X615037Y20994D01*
X614950Y21024D01*
X614847Y21026D01*
X614728Y20998D01*
X614595Y20940D01*
X614445Y20854D01*
X614281Y20738D01*
X614101Y20593D01*
X613695Y20215D01*
X613087Y21021D01*
X613282Y21222D01*
X613589Y21586D01*
X613702Y21747D01*
X613788Y21895D01*
X613846Y22030D01*
X613877Y22151D01*
X613880Y22259D01*
X613857Y22354D01*
X613806Y22435D01*
X615110Y20934D01*
D02*
G37*
G36*
X582510D02*
X582437Y20994D01*
X582350Y21024D01*
X582247Y21026D01*
X582128Y20998D01*
X581994Y20940D01*
X581845Y20854D01*
X581681Y20738D01*
X581501Y20593D01*
X581096Y20215D01*
X580487Y21021D01*
X580682Y21222D01*
X580989Y21586D01*
X581102Y21747D01*
X581188Y21895D01*
X581246Y22030D01*
X581277Y22151D01*
X581281Y22259D01*
X581257Y22354D01*
X581206Y22435D01*
X582510Y20934D01*
D02*
G37*
G36*
X550610D02*
X550537Y20994D01*
X550450Y21024D01*
X550347Y21026D01*
X550228Y20998D01*
X550095Y20940D01*
X549945Y20854D01*
X549781Y20738D01*
X549601Y20593D01*
X549195Y20215D01*
X548587Y21021D01*
X548782Y21222D01*
X549089Y21586D01*
X549202Y21747D01*
X549288Y21895D01*
X549346Y22030D01*
X549377Y22151D01*
X549380Y22259D01*
X549357Y22354D01*
X549306Y22435D01*
X550610Y20934D01*
D02*
G37*
G36*
X518210D02*
X518137Y20994D01*
X518050Y21024D01*
X517947Y21026D01*
X517828Y20998D01*
X517695Y20940D01*
X517545Y20854D01*
X517381Y20738D01*
X517201Y20593D01*
X516795Y20215D01*
X516187Y21021D01*
X516382Y21222D01*
X516689Y21586D01*
X516802Y21747D01*
X516888Y21895D01*
X516946Y22030D01*
X516977Y22151D01*
X516981Y22259D01*
X516957Y22354D01*
X516906Y22435D01*
X518210Y20934D01*
D02*
G37*
G36*
X94256Y22946D02*
X94307Y22185D01*
X94356Y21849D01*
X94419Y21542D01*
X94498Y21263D01*
X94592Y21014D01*
X94701Y20795D01*
X94825Y20604D01*
X94964Y20443D01*
X94257Y19736D01*
X94096Y19875D01*
X93905Y19999D01*
X93686Y20108D01*
X93436Y20202D01*
X93158Y20280D01*
X92851Y20344D01*
X92514Y20393D01*
X91754Y20444D01*
X91329Y20447D01*
X94253Y23370D01*
X94256Y22946D01*
D02*
G37*
G36*
X84256D02*
X84307Y22185D01*
X84356Y21849D01*
X84420Y21542D01*
X84498Y21263D01*
X84592Y21014D01*
X84701Y20795D01*
X84825Y20604D01*
X84964Y20443D01*
X84257Y19736D01*
X84096Y19875D01*
X83905Y19999D01*
X83685Y20108D01*
X83437Y20202D01*
X83158Y20280D01*
X82851Y20344D01*
X82515Y20393D01*
X81754Y20444D01*
X81330Y20447D01*
X84253Y23370D01*
X84256Y22946D01*
D02*
G37*
G36*
X74256D02*
X74307Y22185D01*
X74356Y21849D01*
X74419Y21542D01*
X74498Y21263D01*
X74592Y21014D01*
X74701Y20795D01*
X74825Y20604D01*
X74964Y20443D01*
X74257Y19736D01*
X74096Y19875D01*
X73905Y19999D01*
X73685Y20108D01*
X73436Y20202D01*
X73158Y20280D01*
X72851Y20344D01*
X72514Y20393D01*
X71754Y20444D01*
X71329Y20447D01*
X74253Y23370D01*
X74256Y22946D01*
D02*
G37*
G36*
X594080Y132231D02*
X594060Y132238D01*
X594034Y132236D01*
X594001Y132224D01*
X593963Y132204D01*
X593918Y132175D01*
X593867Y132137D01*
X593747Y132034D01*
X593602Y131895D01*
X592895Y132602D01*
X592969Y132677D01*
X593175Y132918D01*
X593204Y132963D01*
X593224Y133001D01*
X593236Y133034D01*
X593238Y133060D01*
X593231Y133080D01*
X594080Y132231D01*
D02*
G37*
G36*
X565756Y131348D02*
X565745Y131443D01*
X565715Y131528D01*
X565664Y131603D01*
X565594Y131668D01*
X565503Y131723D01*
X565391Y131768D01*
X565260Y131803D01*
X565108Y131828D01*
X564936Y131843D01*
X564744Y131848D01*
Y132848D01*
X564936Y132853D01*
X565108Y132868D01*
X565260Y132893D01*
X565391Y132928D01*
X565503Y132973D01*
X565594Y133028D01*
X565664Y133093D01*
X565715Y133168D01*
X565745Y133253D01*
X565756Y133348D01*
Y131348D01*
D02*
G37*
G36*
X586355Y133153D02*
X586385Y133068D01*
X586436Y132993D01*
X586506Y132928D01*
X586597Y132873D01*
X586709Y132828D01*
X586840Y132793D01*
X586992Y132768D01*
X587164Y132753D01*
X587357Y132748D01*
Y131748D01*
X587164Y131743D01*
X586992Y131728D01*
X586840Y131703D01*
X586709Y131668D01*
X586597Y131623D01*
X586506Y131568D01*
X586436Y131503D01*
X586385Y131428D01*
X586355Y131343D01*
X586344Y131248D01*
Y133248D01*
X586355Y133153D01*
D02*
G37*
G36*
X582455Y131248D02*
X582445Y131343D01*
X582415Y131428D01*
X582364Y131503D01*
X582294Y131568D01*
X582202Y131623D01*
X582091Y131668D01*
X581960Y131703D01*
X581808Y131728D01*
X581636Y131743D01*
X581444Y131748D01*
Y132748D01*
X581636Y132753D01*
X581808Y132768D01*
X581960Y132793D01*
X582091Y132828D01*
X582202Y132873D01*
X582294Y132928D01*
X582364Y132993D01*
X582415Y133068D01*
X582445Y133153D01*
X582455Y133248D01*
Y131248D01*
D02*
G37*
G36*
X560052Y134237D02*
X560168Y133946D01*
X560299Y133688D01*
X560447Y133465D01*
X560610Y133277D01*
X560790Y133122D01*
X560985Y133002D01*
X561196Y132917D01*
X561424Y132865D01*
X561667Y132848D01*
X561087Y131848D01*
X560964Y131840D01*
X560801Y131814D01*
X560352Y131712D01*
X559376Y131432D01*
X558037Y131000D01*
X559952Y134563D01*
X560052Y134237D01*
D02*
G37*
G36*
X569652Y132618D02*
X569674Y132477D01*
X569711Y132337D01*
X569761Y132196D01*
X569826Y132055D01*
X569905Y131913D01*
X569998Y131771D01*
X570106Y131629D01*
X570228Y131486D01*
X570364Y131343D01*
Y129929D01*
X570256Y130036D01*
X569840Y130400D01*
X569782Y130439D01*
X569732Y130467D01*
X569690Y130484D01*
X569657Y130490D01*
X569644Y132758D01*
X569652Y132618D01*
D02*
G37*
G36*
X565756Y124852D02*
X565745Y124947D01*
X565715Y125032D01*
X565664Y125107D01*
X565594Y125172D01*
X565503Y125227D01*
X565391Y125272D01*
X565260Y125307D01*
X565108Y125332D01*
X564936Y125347D01*
X564744Y125352D01*
Y126352D01*
X564936Y126357D01*
X565108Y126372D01*
X565260Y126397D01*
X565391Y126432D01*
X565503Y126477D01*
X565594Y126532D01*
X565664Y126597D01*
X565715Y126672D01*
X565745Y126757D01*
X565756Y126852D01*
Y124852D01*
D02*
G37*
G36*
X560051Y126667D02*
X560081Y126601D01*
X560131Y126542D01*
X560201Y126492D01*
X560291Y126449D01*
X560401Y126414D01*
X560531Y126387D01*
X560681Y126367D01*
X560851Y126356D01*
X561041Y126352D01*
Y125352D01*
X560849Y125347D01*
X560677Y125332D01*
X560526Y125307D01*
X560395Y125272D01*
X560283Y125227D01*
X560192Y125172D01*
X560121Y125107D01*
X560070Y125032D01*
X560039Y124947D01*
X560029Y124852D01*
X560041Y126741D01*
X560051Y126667D01*
D02*
G37*
G36*
X592771Y124752D02*
X592761Y124847D01*
X592731Y124932D01*
X592680Y125007D01*
X592609Y125072D01*
X592518Y125127D01*
X592407Y125172D01*
X592275Y125207D01*
X592124Y125232D01*
X591952Y125247D01*
X591759Y125252D01*
Y126252D01*
X591952Y126257D01*
X592124Y126272D01*
X592275Y126297D01*
X592407Y126332D01*
X592518Y126377D01*
X592609Y126432D01*
X592680Y126497D01*
X592731Y126572D01*
X592761Y126657D01*
X592771Y126752D01*
Y124752D01*
D02*
G37*
G36*
X586355Y126657D02*
X586385Y126572D01*
X586436Y126497D01*
X586506Y126432D01*
X586597Y126377D01*
X586709Y126332D01*
X586840Y126297D01*
X586992Y126272D01*
X587164Y126257D01*
X587357Y126252D01*
Y125252D01*
X587164Y125247D01*
X586992Y125232D01*
X586840Y125207D01*
X586709Y125172D01*
X586597Y125127D01*
X586506Y125072D01*
X586436Y125007D01*
X586385Y124932D01*
X586355Y124847D01*
X586344Y124752D01*
Y126752D01*
X586355Y126657D01*
D02*
G37*
G36*
X582455Y124752D02*
X582445Y124847D01*
X582415Y124932D01*
X582364Y125007D01*
X582294Y125072D01*
X582202Y125127D01*
X582091Y125172D01*
X581960Y125207D01*
X581808Y125232D01*
X581636Y125247D01*
X581444Y125252D01*
Y126252D01*
X581636Y126257D01*
X581808Y126272D01*
X581960Y126297D01*
X582091Y126332D01*
X582202Y126377D01*
X582294Y126432D01*
X582364Y126497D01*
X582415Y126572D01*
X582445Y126657D01*
X582455Y126752D01*
Y124752D01*
D02*
G37*
G36*
X568605Y123984D02*
X568520Y123954D01*
X568445Y123904D01*
X568380Y123834D01*
X568325Y123744D01*
X568280Y123634D01*
X568245Y123504D01*
X568220Y123354D01*
X568205Y123184D01*
X568200Y122994D01*
X567200D01*
X567195Y123184D01*
X567180Y123354D01*
X567155Y123504D01*
X567120Y123634D01*
X567075Y123744D01*
X567020Y123834D01*
X566955Y123904D01*
X566880Y123954D01*
X566795Y123984D01*
X566700Y123994D01*
X568700D01*
X568605Y123984D01*
D02*
G37*
G36*
X571111Y112235D02*
X571244Y112124D01*
X571361Y112042D01*
X571463Y111990D01*
X571550Y111967D01*
X571622Y111973D01*
X571679Y112008D01*
X571721Y112073D01*
X571747Y112167D01*
X571759Y112291D01*
X571683Y109548D01*
X571679Y109684D01*
X571660Y109821D01*
X571626Y109959D01*
X571576Y110099D01*
X571512Y110239D01*
X571433Y110381D01*
X571338Y110525D01*
X571228Y110669D01*
X571103Y110815D01*
X570963Y110962D01*
Y112376D01*
X571111Y112235D01*
D02*
G37*
G36*
X637654Y46268D02*
X637681Y46201D01*
X637726Y46141D01*
X637790Y46090D01*
X637872Y46046D01*
X637971Y46011D01*
X638090Y45983D01*
X638226Y45963D01*
X638380Y45951D01*
X638553Y45947D01*
Y44947D01*
X638380Y44943D01*
X638226Y44931D01*
X638090Y44912D01*
X637971Y44884D01*
X637872Y44848D01*
X637790Y44805D01*
X637726Y44753D01*
X637681Y44694D01*
X637654Y44626D01*
X637644Y44551D01*
Y46343D01*
X637654Y46268D01*
D02*
G37*
G36*
X643871Y40141D02*
X643863Y40190D01*
X643840Y40234D01*
X643802Y40273D01*
X643748Y40307D01*
X643678Y40335D01*
X643594Y40358D01*
X643493Y40377D01*
X643378Y40390D01*
X643100Y40400D01*
Y41400D01*
X643247Y41403D01*
X643493Y41423D01*
X643594Y41442D01*
X643678Y41465D01*
X643748Y41493D01*
X643802Y41527D01*
X643840Y41566D01*
X643863Y41610D01*
X643871Y41659D01*
Y40141D01*
D02*
G37*
G36*
X636605Y37083D02*
X636520Y37053D01*
X636445Y37003D01*
X636380Y36933D01*
X636325Y36843D01*
X636280Y36733D01*
X636245Y36603D01*
X636220Y36453D01*
X636205Y36283D01*
X636200Y36093D01*
X635200D01*
X635195Y36283D01*
X635180Y36453D01*
X635155Y36603D01*
X635120Y36733D01*
X635075Y36843D01*
X635020Y36933D01*
X634955Y37003D01*
X634880Y37053D01*
X634795Y37083D01*
X634700Y37093D01*
X636700D01*
X636605Y37083D01*
D02*
G37*
G36*
X639626Y30367D02*
X639641Y30195D01*
X639666Y30044D01*
X639701Y29912D01*
X639746Y29801D01*
X639801Y29710D01*
X639866Y29639D01*
X639941Y29588D01*
X640026Y29558D01*
X640121Y29548D01*
X638121D01*
X638216Y29558D01*
X638301Y29588D01*
X638376Y29639D01*
X638441Y29710D01*
X638496Y29801D01*
X638541Y29912D01*
X638576Y30044D01*
X638601Y30195D01*
X638616Y30367D01*
X638621Y30560D01*
X639621D01*
X639626Y30367D01*
D02*
G37*
G36*
X613671Y40341D02*
X613665Y40352D01*
X613648Y40362D01*
X613620Y40371D01*
X613580Y40379D01*
X613528Y40385D01*
X613391Y40395D01*
X613100Y40400D01*
Y41400D01*
X613208Y41401D01*
X613620Y41429D01*
X613648Y41438D01*
X613665Y41448D01*
X613671Y41459D01*
Y40341D01*
D02*
G37*
G36*
X607005Y37083D02*
X606920Y37053D01*
X606845Y37003D01*
X606780Y36933D01*
X606725Y36843D01*
X606680Y36733D01*
X606645Y36603D01*
X606620Y36453D01*
X606605Y36283D01*
X606600Y36093D01*
X605600D01*
X605595Y36283D01*
X605580Y36453D01*
X605555Y36603D01*
X605520Y36733D01*
X605475Y36843D01*
X605420Y36933D01*
X605355Y37003D01*
X605280Y37053D01*
X605195Y37083D01*
X605100Y37093D01*
X607100D01*
X607005Y37083D01*
D02*
G37*
G36*
X606605Y30368D02*
X606620Y30196D01*
X606645Y30045D01*
X606680Y29913D01*
X606725Y29802D01*
X606780Y29711D01*
X606845Y29640D01*
X606920Y29589D01*
X607005Y29558D01*
X607100Y29548D01*
X605163Y29560D01*
X605246Y29570D01*
X605320Y29600D01*
X605386Y29650D01*
X605443Y29720D01*
X605491Y29810D01*
X605530Y29920D01*
X605561Y30050D01*
X605583Y30200D01*
X605596Y30370D01*
X605600Y30560D01*
X606600D01*
X606605Y30368D01*
D02*
G37*
G36*
X574753Y46187D02*
X574777Y46137D01*
X574817Y46092D01*
X574874Y46054D01*
X574947Y46021D01*
X575035Y45995D01*
X575140Y45974D01*
X575262Y45959D01*
X575399Y45950D01*
X575553Y45947D01*
Y44947D01*
X575399Y44944D01*
X575140Y44921D01*
X575035Y44900D01*
X574947Y44873D01*
X574874Y44841D01*
X574817Y44802D01*
X574777Y44758D01*
X574753Y44707D01*
X574745Y44651D01*
Y46244D01*
X574753Y46187D01*
D02*
G37*
G36*
X581071Y39941D02*
X581062Y40028D01*
X581032Y40106D01*
X580984Y40175D01*
X580916Y40235D01*
X580828Y40285D01*
X580722Y40326D01*
X580595Y40359D01*
X580450Y40382D01*
X580285Y40395D01*
X580100Y40400D01*
Y41400D01*
X580285Y41405D01*
X580450Y41418D01*
X580595Y41441D01*
X580722Y41473D01*
X580828Y41515D01*
X580916Y41565D01*
X580984Y41625D01*
X581032Y41694D01*
X581062Y41772D01*
X581071Y41859D01*
Y39941D01*
D02*
G37*
G36*
X573705Y37083D02*
X573620Y37053D01*
X573545Y37003D01*
X573480Y36933D01*
X573425Y36843D01*
X573380Y36733D01*
X573345Y36603D01*
X573320Y36453D01*
X573305Y36283D01*
X573300Y36093D01*
X572300D01*
X572295Y36283D01*
X572280Y36453D01*
X572255Y36603D01*
X572220Y36733D01*
X572175Y36843D01*
X572120Y36933D01*
X572055Y37003D01*
X571980Y37053D01*
X571895Y37083D01*
X571800Y37093D01*
X573800D01*
X573705Y37083D01*
D02*
G37*
G36*
X575505Y30367D02*
X575520Y30195D01*
X575545Y30044D01*
X575580Y29912D01*
X575625Y29801D01*
X575680Y29710D01*
X575745Y29639D01*
X575820Y29588D01*
X575905Y29558D01*
X576000Y29548D01*
X574000D01*
X574095Y29558D01*
X574180Y29588D01*
X574255Y29639D01*
X574320Y29710D01*
X574375Y29801D01*
X574420Y29912D01*
X574455Y30044D01*
X574480Y30195D01*
X574495Y30367D01*
X574500Y30560D01*
X575500D01*
X575505Y30367D01*
D02*
G37*
G36*
X510955Y46352D02*
X510985Y46267D01*
X511036Y46192D01*
X511106Y46127D01*
X511198Y46072D01*
X511309Y46027D01*
X511440Y45992D01*
X511592Y45967D01*
X511764Y45952D01*
X511957Y45947D01*
Y44947D01*
X511764Y44942D01*
X511592Y44927D01*
X511440Y44902D01*
X511309Y44867D01*
X511198Y44822D01*
X511106Y44767D01*
X511036Y44702D01*
X510985Y44627D01*
X510955Y44542D01*
X510945Y44447D01*
Y46447D01*
X510955Y46352D01*
D02*
G37*
G36*
X518671Y40341D02*
X518666Y40352D01*
X518648Y40362D01*
X518620Y40371D01*
X518580Y40379D01*
X518528Y40385D01*
X518391Y40395D01*
X518100Y40400D01*
Y41400D01*
X518209Y41401D01*
X518620Y41429D01*
X518648Y41438D01*
X518666Y41448D01*
X518671Y41459D01*
Y40341D01*
D02*
G37*
G36*
X509905Y37083D02*
X509820Y37053D01*
X509745Y37003D01*
X509680Y36933D01*
X509625Y36843D01*
X509580Y36733D01*
X509545Y36603D01*
X509520Y36453D01*
X509505Y36283D01*
X509500Y36093D01*
X508500D01*
X508495Y36283D01*
X508480Y36453D01*
X508455Y36603D01*
X508420Y36733D01*
X508375Y36843D01*
X508320Y36933D01*
X508255Y37003D01*
X508180Y37053D01*
X508095Y37083D01*
X508000Y37093D01*
X510000D01*
X509905Y37083D01*
D02*
G37*
G36*
X509505Y30367D02*
X509520Y30195D01*
X509545Y30044D01*
X509580Y29912D01*
X509625Y29801D01*
X509680Y29710D01*
X509745Y29639D01*
X509820Y29588D01*
X509905Y29558D01*
X510000Y29548D01*
X508000D01*
X508095Y29558D01*
X508180Y29588D01*
X508255Y29639D01*
X508320Y29710D01*
X508375Y29801D01*
X508420Y29912D01*
X508455Y30044D01*
X508480Y30195D01*
X508495Y30367D01*
X508500Y30560D01*
X509500D01*
X509505Y30367D01*
D02*
G37*
D11*
X569000Y93700D02*
X569229Y93929D01*
X457100Y54600D02*
X459500Y52200D01*
X450600Y54600D02*
X457100D01*
X445752Y49752D02*
X450600Y54600D01*
X457200Y81000D02*
X459940Y78260D01*
X450900Y81000D02*
X457200D01*
X446552Y76652D02*
X450900Y81000D01*
X456500Y101600D02*
X459540Y98560D01*
X450500Y101600D02*
X456500D01*
X446152Y97252D02*
X450500Y101600D01*
X456600Y128500D02*
X459940Y125160D01*
X451000Y128500D02*
X456600D01*
X446452Y123952D02*
X451000Y128500D01*
X396300Y129400D02*
X399640Y126060D01*
X390800Y129400D02*
X396300D01*
X386252Y124852D02*
X390800Y129400D01*
X395900Y102200D02*
X399500Y98600D01*
X390800Y102200D02*
X395900D01*
X386252Y97652D02*
X390800Y102200D01*
X396900Y81800D02*
X399500Y79200D01*
X390700Y81800D02*
X396900D01*
X386052Y77152D02*
X390700Y81800D01*
X396700Y54500D02*
X399240Y51960D01*
X390400Y54500D02*
X396700D01*
X385852Y49952D02*
X390400Y54500D01*
X336000Y54800D02*
X339340Y51460D01*
X330500Y54800D02*
X336000D01*
X326152Y50452D02*
X330500Y54800D01*
X336400Y81200D02*
X338940Y78660D01*
X329700Y81200D02*
X336400D01*
X325452Y76952D02*
X329700Y81200D01*
X336600Y103000D02*
X339540Y100060D01*
X330500Y103000D02*
X336600D01*
X326452Y98952D02*
X330500Y103000D01*
X335900Y129100D02*
X339140Y125860D01*
X329900Y129100D02*
X335900D01*
X325852Y125052D02*
X329900Y129100D01*
X275300Y57300D02*
X278300Y54300D01*
X268800Y57300D02*
X275300D01*
X264252Y52752D02*
X268800Y57300D01*
X275800Y81700D02*
X278040Y79460D01*
X268900Y81700D02*
X275800D01*
X264052Y76852D02*
X268900Y81700D01*
X275800Y103800D02*
X277640Y101960D01*
X268200Y103800D02*
X275800D01*
X264152Y99752D02*
X268200Y103800D01*
X275300Y128000D02*
X278240Y125060D01*
X269300Y128000D02*
X275300D01*
X264552Y123252D02*
X269300Y128000D01*
X278240Y122379D02*
Y125060D01*
X311996Y116400D02*
X347300D01*
X290496Y137900D02*
X311996Y116400D01*
X121300Y129600D02*
X121448Y129748D01*
X126300Y63100D02*
X259448D01*
X131348Y83348D02*
X262900D01*
X131300Y83300D02*
X131348Y83348D01*
X138800Y118300D02*
X290200D01*
X136500Y120600D02*
X138800Y118300D01*
X133100Y120600D02*
X136500D01*
X141300Y145600D02*
X310748D01*
X165000Y148800D02*
X368148D01*
X164300Y149500D02*
X165000Y148800D01*
X161300Y149500D02*
X164300D01*
X146400Y67100D02*
X149000D01*
X149800Y66300D01*
X288100D01*
X156200Y137900D02*
X290496D01*
X166500Y58600D02*
X248700D01*
X187400Y92500D02*
X305100D01*
X185900Y94000D02*
X187400Y92500D01*
X171300Y94000D02*
X185900D01*
X171300Y93600D02*
Y94000D01*
X176400Y142200D02*
X295200D01*
X181300Y152100D02*
X424148D01*
X186300Y55300D02*
X246300D01*
X190400Y96700D02*
X192400Y94700D01*
X103700Y38800D02*
X106200Y36300D01*
X99700Y38800D02*
X103700D01*
X98400Y40100D02*
X99700Y38800D01*
X246300Y55300D02*
X261500Y40100D01*
X248700Y58600D02*
X263200Y44100D01*
X259448Y63100D02*
X263300Y59248D01*
X290200Y118300D02*
X290900Y119000D01*
X301400D01*
X311300Y109100D01*
X321448D01*
X258848Y110500D02*
X263100Y106248D01*
X106700Y110500D02*
X258848D01*
X98400Y102200D02*
X106700Y110500D01*
X318300Y119100D02*
X364000D01*
X295200Y142200D02*
X318300Y119100D01*
X310748Y145600D02*
X324800Y131548D01*
X368148Y148800D02*
X385600Y131348D01*
X424148Y152100D02*
X445800Y130448D01*
X98400Y40100D02*
Y102200D01*
X106200Y30400D02*
Y36300D01*
X101300Y25500D02*
X106200Y30400D01*
X101300Y23400D02*
Y25500D01*
X320448Y61800D02*
X325300Y56948D01*
X292600Y61800D02*
X320448D01*
X288100Y66300D02*
X292600Y61800D01*
X302800Y90300D02*
X309652Y83448D01*
X151300Y90300D02*
X302800D01*
X305100Y92500D02*
X307100Y90500D01*
X308700Y94700D02*
X310200Y93200D01*
X192400Y94700D02*
X308700D01*
X261500Y40100D02*
X417700D01*
X433848Y56248D01*
X445100D01*
X263200Y44100D02*
X357200D01*
X369548Y56448D01*
X385300D01*
X310200Y93200D02*
X367100D01*
X368500Y91800D01*
X437148D01*
X445800Y83148D01*
X307100Y90500D02*
X364300D01*
X371152Y83648D01*
X385200D01*
X309652Y83448D02*
X324600D01*
X347300Y116400D02*
X354600Y109100D01*
X364000Y119100D02*
X368700Y114400D01*
X406700D01*
X412000Y109100D01*
X425700D01*
X431052Y103748D01*
X445400D01*
X354600Y109100D02*
X380348D01*
X385300Y104148D01*
X321448Y109100D02*
X325100Y105448D01*
X121448Y129748D02*
X263500D01*
X131300Y33400D02*
X132400Y34500D01*
X263148Y59400D02*
X263300Y59248D01*
X121300Y23400D02*
Y24200D01*
Y33400D02*
Y34600D01*
X263048Y130200D02*
X263500Y129748D01*
Y123252D02*
X264552D01*
X263100Y99752D02*
X264152D01*
X262900Y76852D02*
X264052D01*
X278240Y52079D02*
X278300Y52139D01*
Y54300D01*
X263300Y52752D02*
X264252D01*
X278040Y76279D02*
Y79460D01*
X277640Y98679D02*
Y101960D01*
X339340Y49279D02*
Y51460D01*
X325300Y50452D02*
X326152D01*
X338940Y75779D02*
Y78660D01*
X324600Y76952D02*
X325452D01*
X339540Y97579D02*
Y100060D01*
X325100Y98952D02*
X326452D01*
X324800Y125052D02*
X325852D01*
X385600Y124852D02*
X386252D01*
X385300Y97652D02*
X386252D01*
X399500Y76339D02*
Y79200D01*
X385200Y77152D02*
X386052D01*
X399240Y48979D02*
Y51960D01*
X385300Y49952D02*
X385852D01*
X459500Y48819D02*
Y52200D01*
X445100Y49752D02*
X445752D01*
X459940Y75479D02*
Y78260D01*
X445800Y76652D02*
X446552D01*
X459540Y96079D02*
Y98560D01*
X445400Y97252D02*
X446152D01*
X459940Y122979D02*
Y125160D01*
X445800Y123952D02*
X446452D01*
X253600Y39200D02*
X263700Y29100D01*
X239300Y39200D02*
X253600D01*
X236300Y36200D02*
X239300Y39200D01*
X226300Y36000D02*
X232500Y42200D01*
X226300Y28400D02*
Y36000D01*
X221300Y23400D02*
X226300Y28400D01*
X231300Y23400D02*
X236300Y28400D01*
Y36200D01*
X263700Y29100D02*
X473600D01*
X254600Y42200D02*
X265200Y31600D01*
X232500Y42200D02*
X254600D01*
X265200Y31600D02*
X470600D01*
X241300Y23400D02*
X241500D01*
X246500Y28400D01*
X254700D02*
X256800Y26300D01*
X246500Y28400D02*
X254700D01*
X256800Y26300D02*
X476300D01*
X470600Y31600D02*
X505000Y66000D01*
X473600Y29100D02*
X506500Y62000D01*
X476300Y26300D02*
X509000Y59000D01*
X601173Y8400D02*
X615652Y22879D01*
X76300Y8400D02*
X601173D01*
X61300Y23400D02*
X76300Y8400D01*
X513073Y17200D02*
X518752Y22879D01*
X97500Y17200D02*
X513073D01*
X91300Y23400D02*
X97500Y17200D01*
X542573Y14300D02*
X551152Y22879D01*
X90400Y14300D02*
X542573D01*
X81300Y23400D02*
X90400Y14300D01*
X571373Y11200D02*
X583052Y22879D01*
X83500Y11200D02*
X571373D01*
X71300Y23400D02*
X83500Y11200D01*
X284527Y61921D02*
X287400Y59048D01*
X274500Y61921D02*
X284527D01*
X292996Y52552D02*
X297200Y56756D01*
X287400Y52552D02*
X292996D01*
X285027Y86121D02*
X287200Y83948D01*
X274300Y86121D02*
X285027D01*
X296504Y77452D02*
X297200Y76756D01*
X287200Y77452D02*
X296504D01*
X284127Y108521D02*
X287100Y105548D01*
X273900Y108521D02*
X284127D01*
X292252Y99052D02*
X297200Y104000D01*
X287100Y99052D02*
X292252D01*
X284827Y132221D02*
X287200Y129848D01*
X274500Y132221D02*
X284827D01*
X296552Y123352D02*
X297200Y124000D01*
X287200Y123352D02*
X296552D01*
X346027Y59121D02*
X348200Y56948D01*
X335600Y59121D02*
X346027D01*
X357700Y53200D02*
Y56756D01*
X354952Y50452D02*
X357700Y53200D01*
X348200Y50452D02*
X354952D01*
X346027Y85621D02*
X347900Y83748D01*
X335200Y85621D02*
X346027D01*
X357204Y77252D02*
X357700Y76756D01*
X347900Y77252D02*
X357204D01*
X346427Y107421D02*
X348600Y105248D01*
X335800Y107421D02*
X346427D01*
X352452Y98752D02*
X357700Y104000D01*
X348600Y98752D02*
X352452D01*
X345627Y133621D02*
X348200Y131048D01*
X335400Y133621D02*
X345627D01*
X357148Y124552D02*
X357700Y124000D01*
X348200Y124552D02*
X357148D01*
X406327Y58821D02*
X408200Y56948D01*
X395500Y58821D02*
X406327D01*
X418200Y53200D02*
Y56756D01*
X415452Y50452D02*
X418200Y53200D01*
X408200Y50452D02*
X415452D01*
X405927Y86021D02*
X408200Y83748D01*
X395600Y86021D02*
X405927D01*
X417704Y77252D02*
X418200Y76756D01*
X408200Y77252D02*
X417704D01*
X406527Y106521D02*
X408600Y104448D01*
X395700Y106521D02*
X406527D01*
X418200Y100700D02*
Y104000D01*
X415452Y97952D02*
X418200Y100700D01*
X408600Y97952D02*
X415452D01*
X405927Y133721D02*
X408600Y131048D01*
X395900Y133721D02*
X405927D01*
X417648Y124552D02*
X418200Y124000D01*
X408600Y124552D02*
X417648D01*
X459340Y48979D02*
X459500Y48819D01*
X466227Y58821D02*
X468200Y56848D01*
X455600Y58821D02*
X466227D01*
X472296Y50352D02*
X478700Y56756D01*
X468200Y50352D02*
X472296D01*
X467027Y85321D02*
X468900Y83448D01*
X456200Y85321D02*
X467027D01*
X478504Y76952D02*
X478700Y76756D01*
X468900Y76952D02*
X478504D01*
X466427Y105921D02*
X468600Y103748D01*
X455800Y105921D02*
X466427D01*
X478700Y100700D02*
Y104000D01*
X475252Y97252D02*
X478700Y100700D01*
X468600Y97252D02*
X475252D01*
X467027Y132821D02*
X468900Y130948D01*
X456200Y132821D02*
X467027D01*
X478248Y124452D02*
X478700Y124000D01*
X468900Y124452D02*
X478248D01*
X643100Y40900D02*
X646800D01*
X638553Y45447D02*
X643100Y40900D01*
X635700Y45447D02*
X638553D01*
X639121Y27800D02*
Y31879D01*
X635700Y35300D02*
X639121Y31879D01*
X635700Y35300D02*
Y38951D01*
X626560Y24060D02*
X629279D01*
X625379Y22879D02*
X626560Y24060D01*
X622148Y22879D02*
X625379D01*
X606100Y28721D02*
X607021Y27800D01*
X606100Y28721D02*
Y38951D01*
X594060Y24060D02*
X597179D01*
X592879Y22879D02*
X594060Y24060D01*
X589548Y22879D02*
X592879D01*
X572800Y34200D02*
X575000Y32000D01*
Y28179D02*
Y32000D01*
X572800Y34200D02*
Y38951D01*
X562060Y24060D02*
X564779D01*
X560879Y22879D02*
X562060Y24060D01*
X557648Y22879D02*
X560879D01*
X544121Y27800D02*
Y31879D01*
X539700Y36300D02*
X544121Y31879D01*
X539700Y36300D02*
Y38951D01*
X531060Y24060D02*
X534279D01*
X529879Y22879D02*
X531060Y24060D01*
X525248Y22879D02*
X529879D01*
X496060Y24060D02*
X499579D01*
X494879Y22879D02*
X496060Y24060D01*
X491148Y22879D02*
X494879D01*
X509000Y28221D02*
X509421Y27800D01*
X509000Y28221D02*
Y38951D01*
X613100Y40900D02*
X616600D01*
X608553Y45447D02*
X613100Y40900D01*
X606100Y45447D02*
X608553D01*
X580100Y40900D02*
X584000D01*
X575553Y45447D02*
X580100Y40900D01*
X572800Y45447D02*
X575553D01*
X546100Y40900D02*
X550900D01*
X541553Y45447D02*
X546100Y40900D01*
X539700Y45447D02*
X541553D01*
X518100Y40900D02*
X521600D01*
X513553Y45447D02*
X518100Y40900D01*
X509000Y45447D02*
X513553D01*
X505000Y66000D02*
X542000D01*
X547000Y71000D01*
X546000Y62000D02*
X569000Y85000D01*
X506500Y62000D02*
X546000D01*
X552000Y59000D02*
X574000Y81000D01*
X509000Y59000D02*
X552000D01*
X650000Y80348D02*
X650352Y80700D01*
X650000Y75000D02*
Y80348D01*
X639000Y64000D02*
X650000Y75000D01*
X580000Y64000D02*
X639000D01*
X573000Y71000D02*
X580000Y64000D01*
X575120Y89973D02*
Y93929D01*
X574000Y88853D02*
X575120Y89973D01*
X574000Y81000D02*
Y88853D01*
X577679Y89320D02*
Y93929D01*
Y89320D02*
X578500Y88500D01*
Y85000D02*
Y88500D01*
X569000Y85000D02*
X569500D01*
X656848Y80700D02*
X656948Y80800D01*
X664852D01*
Y84348D01*
X663100Y86100D02*
X664852Y84348D01*
X663100Y86100D02*
Y89552D01*
X651900Y89352D02*
X662900D01*
X671348Y80800D02*
X675200D01*
X676700Y82300D01*
X681900D01*
X484131Y23400D02*
X484652Y22879D01*
X251300Y23400D02*
X484131D01*
X572400Y116900D02*
X575120Y114180D01*
Y110071D02*
Y114180D01*
X572400Y116900D02*
Y128600D01*
X568652Y132348D02*
X572400Y128600D01*
X567700Y132348D02*
X568652D01*
X594648Y125752D02*
X595700Y124700D01*
X584400Y125752D02*
X594648D01*
X581129D02*
X584400D01*
X580239Y124861D02*
X581129Y125752D01*
X580239Y110071D02*
Y124861D01*
X584400Y132248D02*
X593248D01*
X579848D02*
X584400D01*
X593248D02*
X595700Y134700D01*
X577679Y130079D02*
X579848Y132248D01*
X577679Y110071D02*
Y130079D01*
X557100Y133800D02*
X558552Y132348D01*
X567700D01*
X557100Y123800D02*
X559152Y125852D01*
X567700D01*
Y114932D02*
Y125852D01*
Y114932D02*
X572561Y110071D01*
X95900Y38800D02*
X101300Y33400D01*
X95900Y38800D02*
Y47500D01*
X71300Y72100D02*
X95900Y47500D01*
X60448Y72100D02*
X71300D01*
X60400Y72148D02*
X60448Y72100D01*
X60400Y72148D02*
Y77100D01*
X57100Y80400D02*
X60400Y77100D01*
X45800Y80400D02*
X57100D01*
X45068Y79668D02*
X45800Y80400D01*
X45068Y74672D02*
Y79668D01*
X79300Y45400D02*
X91300Y33400D01*
X63100Y45400D02*
X79300D01*
X54200Y54300D02*
X63100Y45400D01*
X48100Y54300D02*
X54200D01*
X47037Y55363D02*
X48100Y54300D01*
X47037Y55363D02*
Y58728D01*
X71900Y42800D02*
X81300Y33400D01*
X62000Y42800D02*
X71900D01*
X53200Y51600D02*
X62000Y42800D01*
X47300Y51600D02*
X53200D01*
X45068Y53831D02*
X47300Y51600D01*
X45068Y53831D02*
Y58728D01*
X65000Y39700D02*
X71300Y33400D01*
X60400Y39700D02*
X65000D01*
X50900Y49200D02*
X60400Y39700D01*
X45600Y49200D02*
X50900D01*
X43100Y51700D02*
X45600Y49200D01*
X43100Y51700D02*
Y58728D01*
X43600Y45048D02*
X43648Y45000D01*
X41131Y47517D02*
X43600Y45048D01*
X49700Y45000D02*
X61300Y33400D01*
X43648Y45000D02*
X49700D01*
X41131Y47517D02*
Y58728D01*
X17500Y80000D02*
X39500D01*
X10600Y73100D02*
X17500Y80000D01*
X9500Y73100D02*
X10600D01*
X39500Y80000D02*
X41100Y78400D01*
X43100Y74672D02*
Y79552D01*
X37352Y85300D02*
X43100Y79552D01*
X38500Y71000D02*
X39163Y71663D01*
X34500Y71000D02*
X38500D01*
X32400Y73100D02*
X34500Y71000D01*
X39163Y71663D02*
Y74672D01*
X19500Y73100D02*
X32400D01*
X41100Y75564D02*
Y78400D01*
X19900Y62448D02*
Y72700D01*
X19500Y73100D02*
X19900Y72700D01*
X9000Y72600D02*
X9500Y73100D01*
X9000Y62448D02*
Y72600D01*
X57167Y119167D02*
Y127698D01*
X54300Y116300D02*
X57167Y119167D01*
X54300Y104700D02*
Y116300D01*
X34400Y88252D02*
X37352Y85300D01*
X34400Y88252D02*
Y104052D01*
Y110548D02*
Y115400D01*
X42500Y123500D01*
Y136000D01*
X46402Y139902D01*
X52600D01*
X59911Y65163D02*
X60400Y65652D01*
X47609Y74100D02*
X49700D01*
X47037Y74672D02*
X47609Y74100D01*
X0Y0D02*
X692500D01*
X0Y157500D02*
X692500D01*
X0Y0D02*
Y157500D01*
X692500Y0D02*
Y157500D01*
D12*
X569229Y93929D02*
X572561D01*
X102800Y42300D02*
X105400D01*
X188800D01*
X194000Y47500D01*
X646800Y93300D02*
X649548Y96048D01*
X646800Y84500D02*
Y93300D01*
X632200Y69900D02*
X646800Y84500D01*
X630900Y69900D02*
X632200D01*
X607700Y69800D02*
X625700D01*
X625900Y70000D01*
X590752Y86748D02*
X607700Y69800D01*
X585300Y86748D02*
X590752D01*
X34548Y46800D02*
Y49048D01*
X39163Y64163D02*
X40163Y65163D01*
X60748Y66000D02*
X66000D01*
X60400Y65652D02*
X60748Y66000D01*
X40163Y65163D02*
X59911D01*
X34548Y41952D02*
Y46800D01*
Y41952D02*
X37948Y38552D01*
X43600D01*
X649548Y96048D02*
X663100D01*
X580239Y91809D02*
X585300Y86748D01*
X580239Y91809D02*
Y93929D01*
X194000Y47500D02*
X196400D01*
X196700Y47200D01*
X625900Y70000D02*
X628200D01*
X630800D01*
X630900Y69900D01*
D13*
X625000Y31500D02*
X625040Y31540D01*
X629279D01*
X593000Y31300D02*
X593240Y31540D01*
X597179D01*
X560500Y31400D02*
X560640Y31540D01*
X564779D01*
X530100Y31400D02*
X530240Y31540D01*
X534279D01*
X495400Y31700D02*
X495560Y31540D01*
X499579D01*
X452679Y48979D02*
X454400Y50700D01*
X451860Y48979D02*
X452679D01*
X453179Y75479D02*
X454900Y77200D01*
X452460Y75479D02*
X453179D01*
X452679Y96079D02*
X454400Y97800D01*
X452060Y96079D02*
X452679D01*
X453079Y122979D02*
X454900Y124800D01*
X452460Y122979D02*
X453079D01*
X392779Y123879D02*
X394500Y125600D01*
X392160Y123879D02*
X392779D01*
X392679Y96679D02*
X394400Y98400D01*
X391960Y96679D02*
X392679D01*
X392379Y76179D02*
X394200Y78000D01*
X391860Y76179D02*
X392379D01*
Y48979D02*
X394100Y50700D01*
X391760Y48979D02*
X392379D01*
X332679Y49279D02*
X334400Y51000D01*
X331860Y49279D02*
X332679D01*
X332279Y75779D02*
X333900Y77400D01*
X331460Y75779D02*
X332279D01*
X332979Y97579D02*
X334600Y99200D01*
X332060Y97579D02*
X332979D01*
X332679Y123779D02*
X334200Y125300D01*
X331660Y123779D02*
X332679D01*
X271779Y52079D02*
X273300Y53600D01*
X270760Y52079D02*
X271779D01*
X271579Y76279D02*
X273200Y77900D01*
X270560Y76279D02*
X271579D01*
X271079Y98679D02*
X272700Y100300D01*
X270160Y98679D02*
X271079D01*
X271479Y122379D02*
X273400Y124300D01*
X270760Y122379D02*
X271479D01*
X99200Y114200D02*
X100600D01*
X98500Y113500D02*
X99200Y114200D01*
X96900Y111900D02*
X98500Y113500D01*
X96700Y111900D02*
X96900D01*
X100600Y114000D02*
X297200D01*
D14*
X43900Y28500D02*
D03*
X639500Y127400D02*
D03*
X646800Y50900D02*
D03*
X616600D02*
D03*
X584000D02*
D03*
X550900D02*
D03*
X521600D02*
D03*
X595700Y134700D02*
D03*
X557100Y133800D02*
D03*
X251300Y23400D02*
D03*
Y33400D02*
D03*
X241300Y23400D02*
D03*
Y33400D02*
D03*
X231300Y23400D02*
D03*
Y33400D02*
D03*
X221300Y23400D02*
D03*
Y33400D02*
D03*
X211300Y23400D02*
D03*
Y33400D02*
D03*
X201300Y23400D02*
D03*
Y33400D02*
D03*
X191300Y23400D02*
D03*
Y33400D02*
D03*
X181300Y23400D02*
D03*
Y33400D02*
D03*
X171300Y23400D02*
D03*
Y33400D02*
D03*
X161300Y23400D02*
D03*
Y33400D02*
D03*
X151300Y23400D02*
D03*
Y33400D02*
D03*
X141300Y23400D02*
D03*
Y33400D02*
D03*
X131300Y23400D02*
D03*
Y33400D02*
D03*
X121300Y23400D02*
D03*
Y33400D02*
D03*
X111300Y23400D02*
D03*
Y33400D02*
D03*
X101300Y23400D02*
D03*
Y33400D02*
D03*
X91300Y23400D02*
D03*
Y33400D02*
D03*
X81300Y23400D02*
D03*
Y33400D02*
D03*
X71300Y23400D02*
D03*
Y33400D02*
D03*
X61300Y23400D02*
D03*
X681900Y92300D02*
D03*
D15*
X133040Y104700D02*
D03*
X54300D02*
D03*
X478700Y76756D02*
D03*
Y66756D02*
D03*
X20000Y20000D02*
D03*
X673000D02*
D03*
Y138000D02*
D03*
X20000D02*
D03*
X478700Y124000D02*
D03*
Y114000D02*
D03*
X418200Y76756D02*
D03*
Y66756D02*
D03*
Y124000D02*
D03*
Y114000D02*
D03*
X357700Y76756D02*
D03*
Y66756D02*
D03*
Y124000D02*
D03*
Y114000D02*
D03*
X297200Y76756D02*
D03*
Y66756D02*
D03*
Y124000D02*
D03*
Y114000D02*
D03*
D16*
X646800Y40900D02*
D03*
X616600D02*
D03*
X584000D02*
D03*
X550900D02*
D03*
X521600D02*
D03*
X595700Y124700D02*
D03*
X557100Y123800D02*
D03*
X681900Y82300D02*
D03*
D17*
X9500Y73100D02*
D03*
X19500D02*
D03*
D18*
X61300Y33400D02*
D03*
D19*
X478700Y56756D02*
D03*
Y104000D02*
D03*
X418200Y56756D02*
D03*
Y104000D02*
D03*
X357700Y56756D02*
D03*
Y104000D02*
D03*
X297200Y56756D02*
D03*
Y104000D02*
D03*
D20*
X534000Y96900D02*
D03*
X619900D02*
D03*
D21*
X566400Y93700D02*
D03*
X586000Y75000D02*
D03*
X583000Y75700D02*
D03*
X625000Y31500D02*
D03*
X593000Y31300D02*
D03*
X560500Y31400D02*
D03*
X530100D02*
D03*
X495400Y31700D02*
D03*
X569000Y93700D02*
D03*
X454400Y50700D02*
D03*
Y97800D02*
D03*
X454900Y77200D02*
D03*
Y124800D02*
D03*
X394500Y125600D02*
D03*
X394400Y98400D02*
D03*
X394200Y78000D02*
D03*
X394100Y50700D02*
D03*
X334400Y51000D02*
D03*
X333900Y77400D02*
D03*
X334600Y99200D02*
D03*
X334200Y125300D02*
D03*
X273300Y53600D02*
D03*
X273200Y77900D02*
D03*
X272700Y100300D02*
D03*
X273400Y124300D02*
D03*
X121300Y129600D02*
D03*
X126300Y63100D02*
D03*
X131300Y83300D02*
D03*
X133700Y120600D02*
D03*
X141300Y145600D02*
D03*
X146400Y67100D02*
D03*
X151300Y90300D02*
D03*
X156200Y137900D02*
D03*
X161300Y149500D02*
D03*
X166500Y58600D02*
D03*
X171300Y94000D02*
D03*
X176400Y142200D02*
D03*
X181300Y152100D02*
D03*
X186300Y55200D02*
D03*
X190400Y96700D02*
D03*
X68600Y66000D02*
D03*
X105400Y42300D02*
D03*
X102800D02*
D03*
X196700Y47200D02*
D03*
X194000Y47500D02*
D03*
X96700Y111900D02*
D03*
X573000Y71000D02*
D03*
X547000D02*
D03*
X578500Y85000D02*
D03*
X569500D02*
D03*
X630900Y69900D02*
D03*
X625900Y70000D02*
D03*
X628200D02*
D03*
X49700Y74100D02*
D03*
X52200D02*
D03*
X66000Y66000D02*
D03*
X55300Y9000D02*
D03*
X43000Y13000D02*
D03*
X51200Y4900D02*
D03*
X39700Y8900D02*
D03*
X36200Y4700D02*
D03*
X50700Y13400D02*
D03*
X47300Y9100D02*
D03*
X43300Y4800D02*
D03*
X64100Y5200D02*
D03*
X57600Y5000D02*
D03*
X109200Y91400D02*
D03*
X105200Y86900D02*
D03*
X113000Y97200D02*
D03*
X105800D02*
D03*
X113700Y86600D02*
D03*
X203400Y102500D02*
D03*
X210600D02*
D03*
X224500D02*
D03*
X231900D02*
D03*
X217500D02*
D03*
X220800Y74500D02*
D03*
X226000Y74700D02*
D03*
X231600Y74800D02*
D03*
X208800Y74300D02*
D03*
X109400Y82100D02*
D03*
X109100Y102000D02*
D03*
X115200Y91800D02*
D03*
X103800Y92100D02*
D03*
X100600Y114200D02*
D03*
X98500Y113500D02*
D03*
X215400Y74400D02*
D03*
D22*
X445800Y83148D02*
D03*
Y76652D02*
D03*
X445100Y56248D02*
D03*
Y49752D02*
D03*
X468900Y76952D02*
D03*
Y83448D02*
D03*
X468200Y50352D02*
D03*
Y56848D02*
D03*
X445800Y130448D02*
D03*
Y123952D02*
D03*
X445400Y103748D02*
D03*
Y97252D02*
D03*
X468900Y124452D02*
D03*
Y130948D02*
D03*
X468600Y97252D02*
D03*
Y103748D02*
D03*
X385200Y83648D02*
D03*
Y77152D02*
D03*
X385300Y56448D02*
D03*
Y49952D02*
D03*
X408200Y77252D02*
D03*
Y83748D02*
D03*
Y50452D02*
D03*
Y56948D02*
D03*
X385300Y104148D02*
D03*
Y97652D02*
D03*
X385600Y131348D02*
D03*
Y124852D02*
D03*
X408600Y97952D02*
D03*
Y104448D02*
D03*
Y124552D02*
D03*
Y131048D02*
D03*
X324600Y83448D02*
D03*
Y76952D02*
D03*
X325300Y56948D02*
D03*
Y50452D02*
D03*
X347900Y77252D02*
D03*
Y83748D02*
D03*
X348200Y50452D02*
D03*
Y56948D02*
D03*
X324800Y131548D02*
D03*
Y125052D02*
D03*
X325100Y105448D02*
D03*
Y98952D02*
D03*
X348200Y124552D02*
D03*
Y131048D02*
D03*
X348600Y98752D02*
D03*
Y105248D02*
D03*
X262900Y83348D02*
D03*
Y76852D02*
D03*
X263300Y59248D02*
D03*
Y52752D02*
D03*
X287200Y77452D02*
D03*
Y83948D02*
D03*
X287400Y52552D02*
D03*
Y59048D02*
D03*
X263100Y106248D02*
D03*
Y99752D02*
D03*
X263500Y129748D02*
D03*
Y123252D02*
D03*
X287200Y123352D02*
D03*
Y129848D02*
D03*
X287100Y99052D02*
D03*
Y105548D02*
D03*
X635700Y45447D02*
D03*
Y38951D02*
D03*
X509000Y45447D02*
D03*
Y38951D02*
D03*
X539700Y45447D02*
D03*
Y38951D02*
D03*
X572800Y45447D02*
D03*
Y38951D02*
D03*
X606100Y45447D02*
D03*
Y38951D02*
D03*
X651900Y95848D02*
D03*
Y89352D02*
D03*
X663100Y96048D02*
D03*
Y89552D02*
D03*
X567700Y132348D02*
D03*
Y125852D02*
D03*
X584400Y125752D02*
D03*
Y132248D02*
D03*
X585300Y80252D02*
D03*
Y86748D02*
D03*
X60400Y65652D02*
D03*
Y72148D02*
D03*
X43600Y38552D02*
D03*
Y45048D02*
D03*
X9000Y55952D02*
D03*
Y62448D02*
D03*
X19900Y55952D02*
D03*
Y62448D02*
D03*
X34400Y104052D02*
D03*
Y110548D02*
D03*
D23*
X456200Y85321D02*
D03*
X459940Y75479D02*
D03*
X455600Y58821D02*
D03*
X459340Y48979D02*
D03*
X455800Y105921D02*
D03*
X459540Y96079D02*
D03*
X456200Y132821D02*
D03*
X459940Y122979D02*
D03*
X395500Y58821D02*
D03*
X399240Y48979D02*
D03*
X395600Y86021D02*
D03*
X399340Y76179D02*
D03*
X395900Y133721D02*
D03*
X399640Y123879D02*
D03*
X395700Y106521D02*
D03*
X399440Y96679D02*
D03*
X335600Y59121D02*
D03*
X339340Y49279D02*
D03*
X335200Y85621D02*
D03*
X338940Y75779D02*
D03*
X335400Y133621D02*
D03*
X339140Y123779D02*
D03*
X335800Y107421D02*
D03*
X339540Y97579D02*
D03*
X274300Y86121D02*
D03*
X278040Y76279D02*
D03*
X274500Y61921D02*
D03*
X278240Y52079D02*
D03*
X274500Y132221D02*
D03*
X278240Y122379D02*
D03*
X273900Y108521D02*
D03*
X277640Y98679D02*
D03*
D24*
X452460Y75479D02*
D03*
X451860Y48979D02*
D03*
X452060Y96079D02*
D03*
X452460Y122979D02*
D03*
X391760Y48979D02*
D03*
X391860Y76179D02*
D03*
X392160Y123879D02*
D03*
X391960Y96679D02*
D03*
X331860Y49279D02*
D03*
X331460Y75779D02*
D03*
X331660Y123779D02*
D03*
X332060Y97579D02*
D03*
X270560Y76279D02*
D03*
X270760Y52079D02*
D03*
Y122379D02*
D03*
X270160Y98679D02*
D03*
D25*
X615652Y22879D02*
D03*
X622148D02*
D03*
X583052D02*
D03*
X589548D02*
D03*
X551152D02*
D03*
X557648D02*
D03*
X518752D02*
D03*
X525248D02*
D03*
X650352Y80700D02*
D03*
X656848D02*
D03*
X664852Y80800D02*
D03*
X671348D02*
D03*
X28052Y46800D02*
D03*
X34548D02*
D03*
X43848Y85300D02*
D03*
X37352D02*
D03*
X484652Y22879D02*
D03*
X491148D02*
D03*
D26*
X639121Y27800D02*
D03*
X629279Y24060D02*
D03*
X607021Y27800D02*
D03*
X597179Y24060D02*
D03*
X574621Y27800D02*
D03*
X564779Y24060D02*
D03*
X544121Y27800D02*
D03*
X534279Y24060D02*
D03*
X509421Y27800D02*
D03*
X499579Y24060D02*
D03*
D27*
X629279Y31540D02*
D03*
X597179D02*
D03*
X564779D02*
D03*
X534279D02*
D03*
X499579D02*
D03*
D28*
X580239Y93929D02*
D03*
X577679D02*
D03*
X575120D02*
D03*
X572561D02*
D03*
X580239Y110071D02*
D03*
X577679D02*
D03*
X575120D02*
D03*
X572561D02*
D03*
D29*
X47037Y58728D02*
D03*
X45068D02*
D03*
X43100D02*
D03*
X41131D02*
D03*
X39163D02*
D03*
X47037Y74672D02*
D03*
X45068D02*
D03*
X43100D02*
D03*
X41131D02*
D03*
X39163D02*
D03*
D30*
X52600Y139902D02*
D03*
X48033Y127698D02*
D03*
X57167D02*
D03*
D31*
X34548Y49048D02*
X39163Y53663D01*
Y58728D01*
Y64163D01*
M02*
