G04 Layer_Color=8388736*
%FSLAX25Y25*%
%MOIN*%
G70*
G01*
G75*
%ADD11C,0.01000*%
%ADD20C,0.44094*%
G04:AMPARAMS|DCode=282|XSize=128.11mil|YSize=134.02mil|CornerRadius=34.53mil|HoleSize=0mil|Usage=FLASHONLY|Rotation=180.000|XOffset=0mil|YOffset=0mil|HoleType=Round|Shape=RoundedRectangle|*
%AMROUNDEDRECTD282*
21,1,0.12811,0.06496,0,0,180.0*
21,1,0.05906,0.13402,0,0,180.0*
1,1,0.06906,-0.02953,0.03248*
1,1,0.06906,0.02953,0.03248*
1,1,0.06906,0.02953,-0.03248*
1,1,0.06906,-0.02953,-0.03248*
%
%ADD282ROUNDEDRECTD282*%
%ADD283C,0.09055*%
%ADD284C,0.06800*%
%ADD285R,0.06706X0.06706*%
%ADD286C,0.06706*%
%ADD287C,0.05800*%
%ADD288R,0.06706X0.06706*%
%ADD289R,0.06800X0.06800*%
D11*
X0Y0D02*
X692500D01*
X0Y157500D02*
X692500D01*
X0Y0D02*
Y157500D01*
X692500Y0D02*
Y157500D01*
D20*
X534000Y96900D02*
D03*
X619900D02*
D03*
D282*
X111300Y54851D02*
D03*
Y73749D02*
D03*
X201100Y54851D02*
D03*
Y73749D02*
D03*
D283*
X43900Y28500D02*
D03*
X639500Y127400D02*
D03*
D284*
X133040Y104700D02*
D03*
X54300D02*
D03*
X478700Y76756D02*
D03*
Y66756D02*
D03*
X20000Y20000D02*
D03*
X673000D02*
D03*
Y138000D02*
D03*
X20000D02*
D03*
X478700Y124000D02*
D03*
Y114000D02*
D03*
X418200Y76756D02*
D03*
Y66756D02*
D03*
Y124000D02*
D03*
Y114000D02*
D03*
X357700Y76756D02*
D03*
Y66756D02*
D03*
Y124000D02*
D03*
Y114000D02*
D03*
X297200Y76756D02*
D03*
Y66756D02*
D03*
Y124000D02*
D03*
Y114000D02*
D03*
D285*
X646800Y40900D02*
D03*
X616600D02*
D03*
X584000D02*
D03*
X550900D02*
D03*
X521600D02*
D03*
X595700Y124700D02*
D03*
X557100Y123800D02*
D03*
X681900Y82300D02*
D03*
D286*
X646800Y50900D02*
D03*
X616600D02*
D03*
X584000D02*
D03*
X550900D02*
D03*
X521600D02*
D03*
X595700Y134700D02*
D03*
X557100Y133800D02*
D03*
X251300Y23400D02*
D03*
Y33400D02*
D03*
X241300Y23400D02*
D03*
Y33400D02*
D03*
X231300Y23400D02*
D03*
Y33400D02*
D03*
X221300Y23400D02*
D03*
Y33400D02*
D03*
X211300Y23400D02*
D03*
Y33400D02*
D03*
X201300Y23400D02*
D03*
Y33400D02*
D03*
X191300Y23400D02*
D03*
Y33400D02*
D03*
X181300Y23400D02*
D03*
Y33400D02*
D03*
X171300Y23400D02*
D03*
Y33400D02*
D03*
X161300Y23400D02*
D03*
Y33400D02*
D03*
X151300Y23400D02*
D03*
Y33400D02*
D03*
X141300Y23400D02*
D03*
Y33400D02*
D03*
X131300Y23400D02*
D03*
Y33400D02*
D03*
X121300Y23400D02*
D03*
Y33400D02*
D03*
X111300Y23400D02*
D03*
Y33400D02*
D03*
X101300Y23400D02*
D03*
Y33400D02*
D03*
X91300Y23400D02*
D03*
Y33400D02*
D03*
X81300Y23400D02*
D03*
Y33400D02*
D03*
X71300Y23400D02*
D03*
Y33400D02*
D03*
X61300Y23400D02*
D03*
X681900Y92300D02*
D03*
D287*
X9500Y73100D02*
D03*
X19500D02*
D03*
D288*
X61300Y33400D02*
D03*
D289*
X478700Y56756D02*
D03*
Y104000D02*
D03*
X418200Y56756D02*
D03*
Y104000D02*
D03*
X357700Y56756D02*
D03*
Y104000D02*
D03*
X297200Y56756D02*
D03*
Y104000D02*
D03*
M02*
