M48
;Layer_Color=9474304
;FILE_FORMAT=2:5
INCH,LZ
;TYPE=PLATED
T2F00S00C0.00984
T3F00S00C0.01500
T4F00S00C0.02756
T5F00S00C0.03346
T6F00S00C0.03543
T7F00S00C0.03600
T8F00S00C0.04331
;TYPE=NON_PLATED
T1F00S00C0.12500
%
T02
X02435Y01235
Y01755
X01535
Y01235
X01075Y00965
Y01585
X00175
Y00965
Y02205
Y02825
X01075
X01535Y02795
Y02275
X01075Y02205
X02435Y02275
Y02795
T03
X00125Y00205
Y00345
X00295Y00495
X00325
X00485Y00445
Y00145
X00765
X00925Y00195
X00945Y0018
X01115Y00205
Y00345
X00895Y00525
X00865
X00765Y00445
X0152Y00345
X0154Y00325
X01715Y0033
X0174
X0181Y0038
X0179Y0014
X02175
X022Y0023
X0223
X0216Y0038
X0215Y00705
X0218
X0222Y00765
X0221Y0081
X0223Y0097
X0225Y00995
X0218Y01025
X0215
X0222Y01085
X0221Y0113
X02225Y01295
X02245Y0132
X0218Y01345
X0215
X0222Y01405
X0221Y0145
X02235Y01615
X0226Y0164
X0218Y01665
X0215
X0222Y01725
X0221Y0177
X0224Y01925
X02265Y0195
X0218Y01985
X0215
X0222Y02045
X0221Y0209
X02555Y021
Y02
Y0183
Y017
Y0158
Y0148
Y0131
Y0118
Y01065
Y00965
X02075Y00985
Y00939
Y0108
Y01259
Y01305
Y014
Y01579
Y01625
Y0172
Y01899
Y01945
Y0204
X01895
Y01945
Y019
X01825Y01985
X01795
X01745Y01965
X0173Y01935
X01745Y02045
X0176Y0209
Y0177
X01745Y01725
X01735Y01655
X01755Y0163
X01795Y01665
X01825
X01895Y01625
Y0158
Y0172
Y014
Y01305
Y0126
X01825Y01345
X01795
X0176Y01301
X01735Y01325
X01745Y01405
X0176Y0145
Y0113
X01745Y01085
X01795Y01025
X01825
X01895Y00985
Y0094
Y0108
Y0076
X01825Y00705
X01795
X01745Y00765
X0176Y0081
X02075Y0076
X0144Y00955
Y01055
Y0118
Y0131
Y01475
Y01575
Y017
Y01835
Y01995
Y02095
X0117Y0208
Y0198
Y01755
Y01655
Y0146
Y0136
Y0114
Y01035
Y0084
Y0074
X0086Y00744
X0085Y0079
X0082Y00685
X0079
X00715Y0074
Y00919
Y00965
Y0106
X0079Y01005
X0082
X0086Y01065
X0085Y0111
X0082Y01325
X0079
X00715Y01285
Y01239
Y0138
X0086Y01385
X0085Y0143
X0082Y01645
X0079
X00715Y01605
Y01559
Y017
X0086Y01705
X0085Y0175
X0082Y01965
X0079
X00715Y01925
Y01879
Y0202
X0086Y02025
X0085Y0207
X00535Y0202
Y01925
Y0188
X00465Y01965
X00435
X00355Y0195
X00375Y0191
X00325Y01915
X0039Y02025
X004Y0207
Y0175
X0039Y01705
X00435Y01645
X00465
X00535Y01605
Y0156
Y017
X00355Y0163
X00375Y0159
X00325Y01595
X004Y0143
X0039Y01385
X00435Y01325
X00465
X00535Y01285
Y0124
Y0138
X00355Y0131
X00375Y0127
X00325Y01275
X004Y0111
X0039Y01065
X00435Y01005
X00465
X00535Y00965
Y0092
Y0106
X0035Y0099
X0037Y0095
X0032Y00955
X004Y0079
X0039Y00745
X00435Y00685
X00465
X00535Y0074
X0005
X00045Y0084
Y01035
Y0114
Y0136
Y0146
Y0166
Y01765
Y0198
Y0208
Y0228
Y0238
Y026
Y027
Y029
Y03
X0039Y02985
X004Y0303
X00435Y02925
X00465
X00535Y02885
Y0284
Y0298
Y0316
Y03205
X0041Y0323
X0038
X0028Y0321
X00265Y03185
X00275Y0345
X00245Y0347
X00185Y03445
X00155
X0034
X0036Y0346
X00335Y03635
X00405Y0367
X00265Y03675
X00195Y03635
X0036Y0291
X0038Y0287
X0033Y02875
X004Y0271
X0039Y02665
X00435Y02605
X00465
X00535Y02565
Y0252
Y0266
X00355Y0259
X00375Y0255
X00325Y02555
X004Y0239
X0039Y02345
X00435Y02285
X00465
X00535Y02245
Y022
Y0234
X00355Y0227
X00375Y0223
X00325Y02235
X00715Y02245
Y02199
Y0234
X0079Y02285
X0082
X0086Y02345
X0085Y0239
X0082Y02605
X0079
X00715Y02565
Y02519
Y0266
X0086Y02665
X0085Y0271
X0082Y02925
X0079
X00715Y02885
Y02839
Y0298
X0086Y02985
X0085Y0303
X00715Y03159
Y03205
X00995Y03265
X0102
Y03445
X01045Y0346
X0094Y03445
X00935Y03475
X0086Y03445
X0083
X0087Y0364
X0094Y0368
X0101Y0364
X0108Y03675
X0134Y0361
X0139
Y0358
X016Y0364
X0167Y0368
X0174Y0364
X0181Y03675
X01775Y0346
X0175Y03445
X0167Y0345
X01665Y0348
X0159Y03445
X0157Y0346
X0145Y03365
X0153614Y03265
Y0324
X01725Y03265
X0175
X01895Y03225
Y0318
Y03
Y02905
Y0286
X01825Y02945
X01795
X01755Y02915
Y0289
X01745Y03005
X0176Y0305
Y0273
X01745Y02685
X01795Y02625
X01825
X0176Y0258
X01745Y0255
X0176Y0241
X01745Y02365
X01795Y02305
X01825
X01895Y02265
Y0222
Y0236
X02075
Y02265
Y02219
Y02539
Y02585
Y0268
Y02859
Y02905
Y03
Y03179
Y03225
X01895Y0268
Y02585
Y0254
X0175Y02255
X01725Y02235
X0144Y0222
Y0235
Y02515
Y02615
Y0274
Y0287
X0116Y02895
Y03005
X0117Y027
Y026
Y0238
Y0228
X0215Y02305
X0218
X0222Y02365
X0221Y0241
X02235Y02565
X02255Y0259
X0218Y02625
X0215
X0222Y02685
X0221Y0273
X02235Y02885
X02255Y0291
X0218Y02945
X0215
X0222Y03005
X0221Y0305
X02365Y03165
X0239Y03145
X0238Y0323
X0235
X0246Y03205
Y03175
X02435Y0346
X02415Y03445
X02335
X0233Y03475
X02245Y03445
X02215
X0226Y03635
X0233Y03675
X024Y03635
X0247Y0367
X02555Y0288
Y02745
Y0263
Y02525
Y02355
Y02225
X0226Y0227
X02235Y02245
X0226Y0372
Y0381
Y0388
X0233Y03845
Y03765
X02395Y03805
Y0388
X02465Y03845
X0251Y0388
X02515Y038
X0247Y0376
X02515Y03705
X02395Y03715
X02385Y04265
Y04295
X024Y04465
X0254Y0449
X02535Y044
X02485Y0421
X0235Y04685
X01675Y04655
X01645
X01615
X0171Y04255
X0176
X01775Y04145
X0176Y0406
X01735Y03885
Y0381
Y0372
X0167Y0377
Y0385
X016Y03815
Y03885
X01585Y0398
Y0401
X0162Y04125
X01475Y0408
X0148Y0421
X01145Y04255
X01095
X01155Y04145
Y04055
X01125Y0388
X01075Y0385
X0108Y03765
X0113Y03805
X01125Y0372
X01005
Y0381
Y03885
X0094Y0385
Y0377
X0087Y03725
Y03815
Y03885
X0097Y0398
Y0401
X0101Y0412
X0086Y04085
Y0421
X0124Y0376
X01345Y0383
X016Y03725
X0181Y03765
X0185Y03805
Y03885
X01805Y0385
X0185Y03715
X00455Y0371
Y03805
Y0388
X004Y03845
X00405Y0376
X0033Y03715
Y03805
Y0388
X00265Y03845
Y03765
X00195Y0381
Y0388
Y0372
X00175Y04195
X00075Y04255
Y04285
X00095Y0446
X0024Y0448
X00235Y0439
X00045Y04675
T04
X00235Y00225
Y00275
Y0037
Y0042
X01005
Y0037
Y00275
Y00225
X02435Y00985
Y01035
Y01085
Y01135
Y01185
Y01285
Y01335
Y01385
Y01505
Y01555
Y01605
Y01655
Y01705
Y01805
Y01855
Y01905
Y02025
Y02075
X01535
Y02025
Y01905
Y01855
Y01805
Y01705
Y01655
Y01605
Y01555
Y01505
Y01385
Y01335
Y01285
Y01185
Y01135
Y01085
Y01035
Y00985
X01075Y01015
Y01065
Y01115
Y01165
Y01215
Y01265
Y01385
Y01435
Y01485
Y01535
Y01635
Y01685
Y01735
Y01785
Y01835
Y01885
Y02005
Y02055
Y02105
Y00915
Y00865
Y00815
Y00765
X00175
Y00815
Y00865
Y00915
Y01015
Y01065
Y01115
Y01165
Y01215
Y01265
Y01385
Y01435
Y01485
Y01535
Y01635
Y01685
Y01735
Y01785
Y01835
Y01885
Y02005
Y02055
Y02105
Y02155
Y02255
Y02305
Y02355
Y02405
Y02455
Y02505
Y02625
Y02675
Y02725
Y02775
Y02875
Y02925
Y02975
Y03025
Y03075
Y03125
X01075
Y03075
Y03025
Y02975
Y02925
Y02875
Y02775
Y02725
Y02675
Y02625
Y02505
Y02455
Y02405
Y02355
Y02305
Y02255
Y02155
X01535Y02175
Y02125
Y02225
Y02325
Y02375
Y02425
Y02545
Y02595
Y02645
Y02695
Y02745
Y02845
Y02895
Y02945
X02435
Y02895
Y02845
Y02745
Y02695
Y02645
Y02595
Y02545
Y02425
Y02375
Y02325
Y02225
Y02175
Y02125
T05
X01222Y0459
X01223Y04965
T06
X02415Y00145
X02515
Y00245
Y00345
Y00445
Y00545
X02415
Y00445
Y00345
Y00245
Y00645
X02515
Y00745
X02415
X0209898Y045
X0202024
X0191
X0183126
X0175252
X0085874Y044
X0078
X0070126
X0059102
X00855Y04725
X00955
X0083Y05035
X0073
X0051228Y044
T07
X01365Y0472
Y04916
T08
X02125Y0438
X02225
X02245Y04822
X02345
X02445
X02025Y0438
X01825Y0438
X01725
X01625
X01525
X01085Y0452
X00985
X00885
X00785
X00585Y0452
X00485
X00385
X0036Y05008
X0026
X0016
T01
X013Y0019996
Y0300004
M30
