G75*
%MOIN*%
%OFA0B0*%
%FSLAX25Y25*%
%IPPOS*%
%LPD*%
%AMOC8*
5,1,8,0,0,1.08239X$1,22.5*
%
%ADD10C,0.06600*%
%ADD11C,0.03175*%
%ADD12C,0.03800*%
%ADD13C,0.01200*%
%ADD14C,0.02600*%
%ADD15C,0.25400*%
%ADD16C,0.04356*%
%ADD17R,0.04000X0.04000*%
%ADD18OC8,0.03600*%
D10*
X0026600Y0053100D03*
X0026600Y0063100D03*
X0026600Y0075600D03*
X0026600Y0085600D03*
X0037600Y0087428D03*
X0047600Y0087428D03*
X0047600Y0105272D03*
X0037600Y0105272D03*
X0026600Y0105600D03*
X0026600Y0115600D03*
X0016100Y0118600D03*
X0016100Y0128600D03*
X0026600Y0128100D03*
X0026600Y0138100D03*
X0037600Y0139428D03*
X0047600Y0139428D03*
X0047600Y0155272D03*
X0037600Y0155272D03*
X0026600Y0158100D03*
X0026600Y0168100D03*
X0026600Y0178100D03*
X0026600Y0188100D03*
X0037600Y0190428D03*
X0047600Y0190428D03*
X0047600Y0203272D03*
X0037600Y0203272D03*
X0026600Y0205600D03*
X0026600Y0215600D03*
X0026600Y0225600D03*
X0026600Y0235600D03*
X0037600Y0237665D03*
X0047600Y0237665D03*
X0014600Y0226100D03*
X0014600Y0216100D03*
X0014600Y0178100D03*
X0014600Y0168100D03*
X0014600Y0076100D03*
X0014600Y0066100D03*
X0037600Y0052272D03*
X0047600Y0052272D03*
X0219100Y0050554D03*
X0229100Y0050554D03*
X0240600Y0052661D03*
X0240600Y0062661D03*
X0251600Y0064100D03*
X0251600Y0074100D03*
X0240600Y0075661D03*
X0240600Y0085661D03*
X0229600Y0086646D03*
X0219600Y0086646D03*
X0219600Y0105054D03*
X0229600Y0105054D03*
X0240146Y0107161D03*
X0240146Y0117161D03*
X0240146Y0129661D03*
X0240146Y0139661D03*
X0229600Y0139646D03*
X0219600Y0139646D03*
X0219600Y0155054D03*
X0229600Y0155054D03*
X0240646Y0157661D03*
X0240646Y0167661D03*
X0240646Y0179661D03*
X0240646Y0189661D03*
X0229600Y0190146D03*
X0219600Y0190146D03*
X0219600Y0203554D03*
X0229600Y0203554D03*
X0240646Y0205661D03*
X0240646Y0215661D03*
X0253146Y0216661D03*
X0253146Y0226661D03*
X0240646Y0227161D03*
X0240646Y0237161D03*
X0229600Y0237661D03*
X0219600Y0237661D03*
X0253600Y0177100D03*
X0253600Y0167100D03*
X0253600Y0127100D03*
X0253600Y0117100D03*
D11*
X0135663Y0299176D03*
D12*
X0120163Y0314676D03*
X0117163Y0319676D03*
X0152163Y0316676D03*
X0153663Y0321676D03*
X0154663Y0041176D03*
X0116163Y0041676D03*
X0105100Y0034600D03*
X0053600Y0036600D03*
D13*
X0008707Y0028703D02*
X0259130Y0028883D01*
X0258645Y0339183D01*
X0009193Y0339003D01*
X0008707Y0028703D01*
X0008709Y0029842D02*
X0259129Y0029842D01*
X0259127Y0031040D02*
X0141112Y0031040D01*
X0141106Y0031037D02*
X0144321Y0032893D01*
X0146946Y0035518D01*
X0148803Y0038733D01*
X0149763Y0042320D01*
X0149763Y0046032D01*
X0148803Y0049618D01*
X0146946Y0052833D01*
X0144321Y0055459D01*
X0141106Y0057315D01*
X0137520Y0058276D01*
X0133807Y0058276D01*
X0130221Y0057315D01*
X0127006Y0055459D01*
X0124381Y0052833D01*
X0122524Y0049618D01*
X0121563Y0046032D01*
X0121563Y0042320D01*
X0122524Y0038733D01*
X0124381Y0035518D01*
X0127006Y0032893D01*
X0130221Y0031037D01*
X0133807Y0030076D01*
X0137520Y0030076D01*
X0141106Y0031037D01*
X0143188Y0032239D02*
X0259125Y0032239D01*
X0259123Y0033437D02*
X0144865Y0033437D01*
X0146064Y0034636D02*
X0259121Y0034636D01*
X0259119Y0035834D02*
X0147129Y0035834D01*
X0147821Y0037033D02*
X0259117Y0037033D01*
X0259116Y0038232D02*
X0148513Y0038232D01*
X0148989Y0039430D02*
X0259114Y0039430D01*
X0259112Y0040629D02*
X0149310Y0040629D01*
X0149631Y0041827D02*
X0259110Y0041827D01*
X0259108Y0043026D02*
X0149763Y0043026D01*
X0149763Y0044224D02*
X0259106Y0044224D01*
X0259104Y0045423D02*
X0149763Y0045423D01*
X0149606Y0046621D02*
X0216386Y0046621D01*
X0216438Y0046570D02*
X0218165Y0045854D01*
X0220035Y0045854D01*
X0221762Y0046570D01*
X0223084Y0047892D01*
X0223800Y0049619D01*
X0223800Y0051489D01*
X0223084Y0053216D01*
X0221762Y0054539D01*
X0220035Y0055254D01*
X0218165Y0055254D01*
X0216438Y0054539D01*
X0215116Y0053216D01*
X0214400Y0051489D01*
X0214400Y0049619D01*
X0215116Y0047892D01*
X0216438Y0046570D01*
X0215188Y0047820D02*
X0149285Y0047820D01*
X0148963Y0049018D02*
X0214649Y0049018D01*
X0214400Y0050217D02*
X0148457Y0050217D01*
X0147765Y0051415D02*
X0214400Y0051415D01*
X0214866Y0052614D02*
X0147073Y0052614D01*
X0145968Y0053812D02*
X0215711Y0053812D01*
X0217577Y0055011D02*
X0144769Y0055011D01*
X0143021Y0056209D02*
X0237502Y0056209D01*
X0237938Y0056645D02*
X0236616Y0055323D01*
X0235900Y0053596D01*
X0235900Y0051726D01*
X0236616Y0049999D01*
X0237938Y0048676D01*
X0239665Y0047961D01*
X0241535Y0047961D01*
X0243262Y0048676D01*
X0244584Y0049999D01*
X0245300Y0051726D01*
X0245300Y0053596D01*
X0244584Y0055323D01*
X0243262Y0056645D01*
X0241535Y0057361D01*
X0239665Y0057361D01*
X0237938Y0056645D01*
X0238107Y0058606D02*
X0028033Y0058606D01*
X0027535Y0058400D02*
X0029262Y0059116D01*
X0030584Y0060438D01*
X0031300Y0062165D01*
X0031300Y0064035D01*
X0030584Y0065762D01*
X0029262Y0067084D01*
X0027535Y0067800D01*
X0025665Y0067800D01*
X0023938Y0067084D01*
X0022616Y0065762D01*
X0021900Y0064035D01*
X0021900Y0062165D01*
X0022616Y0060438D01*
X0023938Y0059116D01*
X0025665Y0058400D01*
X0027535Y0058400D01*
X0027535Y0057800D02*
X0025665Y0057800D01*
X0023938Y0057084D01*
X0022616Y0055762D01*
X0021900Y0054035D01*
X0021900Y0052165D01*
X0022616Y0050438D01*
X0023938Y0049116D01*
X0025665Y0048400D01*
X0027535Y0048400D01*
X0029262Y0049116D01*
X0030584Y0050438D01*
X0031300Y0052165D01*
X0031300Y0054035D01*
X0030584Y0055762D01*
X0029262Y0057084D01*
X0027535Y0057800D01*
X0028482Y0057408D02*
X0130567Y0057408D01*
X0128306Y0056209D02*
X0050309Y0056209D01*
X0050262Y0056256D02*
X0048535Y0056972D01*
X0046665Y0056972D01*
X0044938Y0056256D01*
X0043616Y0054934D01*
X0042900Y0053206D01*
X0042900Y0051337D01*
X0043616Y0049609D01*
X0044938Y0048287D01*
X0046665Y0047572D01*
X0048535Y0047572D01*
X0050262Y0048287D01*
X0051584Y0049609D01*
X0052300Y0051337D01*
X0052300Y0053206D01*
X0051584Y0054934D01*
X0050262Y0056256D01*
X0051508Y0055011D02*
X0126558Y0055011D01*
X0125359Y0053812D02*
X0052049Y0053812D01*
X0052300Y0052614D02*
X0124254Y0052614D01*
X0123562Y0051415D02*
X0052300Y0051415D01*
X0051836Y0050217D02*
X0122870Y0050217D01*
X0122364Y0049018D02*
X0050993Y0049018D01*
X0049134Y0047820D02*
X0122042Y0047820D01*
X0121721Y0046621D02*
X0008735Y0046621D01*
X0008733Y0045423D02*
X0121563Y0045423D01*
X0121563Y0044224D02*
X0008731Y0044224D01*
X0008730Y0043026D02*
X0121563Y0043026D01*
X0121695Y0041827D02*
X0008728Y0041827D01*
X0008726Y0040629D02*
X0122017Y0040629D01*
X0122338Y0039430D02*
X0008724Y0039430D01*
X0008722Y0038232D02*
X0122814Y0038232D01*
X0123506Y0037033D02*
X0008720Y0037033D01*
X0008718Y0035834D02*
X0124198Y0035834D01*
X0125263Y0034636D02*
X0008716Y0034636D01*
X0008715Y0033437D02*
X0126461Y0033437D01*
X0128139Y0032239D02*
X0008713Y0032239D01*
X0008711Y0031040D02*
X0130215Y0031040D01*
X0140760Y0057408D02*
X0259085Y0057408D01*
X0259084Y0058606D02*
X0243093Y0058606D01*
X0243262Y0058676D02*
X0244584Y0059999D01*
X0245300Y0061726D01*
X0245300Y0063596D01*
X0244584Y0065323D01*
X0243262Y0066645D01*
X0241535Y0067361D01*
X0239665Y0067361D01*
X0237938Y0066645D01*
X0236616Y0065323D01*
X0235900Y0063596D01*
X0235900Y0061726D01*
X0236616Y0059999D01*
X0237938Y0058676D01*
X0239665Y0057961D01*
X0241535Y0057961D01*
X0243262Y0058676D01*
X0244391Y0059805D02*
X0249237Y0059805D01*
X0249032Y0059909D02*
X0249719Y0059559D01*
X0250453Y0059321D01*
X0251214Y0059200D01*
X0251216Y0059200D01*
X0251216Y0063716D01*
X0251984Y0063716D01*
X0251984Y0059200D01*
X0251986Y0059200D01*
X0252747Y0059321D01*
X0253481Y0059559D01*
X0254168Y0059909D01*
X0254792Y0060362D01*
X0255337Y0060908D01*
X0255791Y0061532D01*
X0256141Y0062219D01*
X0256379Y0062953D01*
X0256500Y0063714D01*
X0256500Y0063716D01*
X0251984Y0063716D01*
X0251984Y0064484D01*
X0256500Y0064484D01*
X0256500Y0064486D01*
X0256379Y0065247D01*
X0256141Y0065981D01*
X0255791Y0066668D01*
X0255337Y0067292D01*
X0254792Y0067838D01*
X0254168Y0068291D01*
X0253481Y0068641D01*
X0252747Y0068879D01*
X0251986Y0069000D01*
X0251984Y0069000D01*
X0251984Y0064484D01*
X0251216Y0064484D01*
X0251216Y0063716D01*
X0246700Y0063716D01*
X0246700Y0063714D01*
X0246821Y0062953D01*
X0247059Y0062219D01*
X0247409Y0061532D01*
X0247862Y0060908D01*
X0248408Y0060362D01*
X0249032Y0059909D01*
X0247793Y0061003D02*
X0245001Y0061003D01*
X0245300Y0062202D02*
X0247068Y0062202D01*
X0246750Y0063400D02*
X0245300Y0063400D01*
X0244885Y0064599D02*
X0246718Y0064599D01*
X0246700Y0064486D02*
X0246700Y0064484D01*
X0251216Y0064484D01*
X0251216Y0069000D01*
X0251214Y0069000D01*
X0250453Y0068879D01*
X0249719Y0068641D01*
X0249032Y0068291D01*
X0248408Y0067838D01*
X0247862Y0067292D01*
X0247409Y0066668D01*
X0247059Y0065981D01*
X0246821Y0065247D01*
X0246700Y0064486D01*
X0246999Y0065797D02*
X0244110Y0065797D01*
X0242416Y0066996D02*
X0247647Y0066996D01*
X0248899Y0068194D02*
X0132017Y0068194D01*
X0132165Y0068550D02*
X0131620Y0067235D01*
X0130614Y0066228D01*
X0129299Y0065684D01*
X0127875Y0065684D01*
X0126560Y0066228D01*
X0125554Y0067235D01*
X0125009Y0068550D01*
X0125009Y0069973D01*
X0125554Y0071288D01*
X0126560Y0072295D01*
X0127875Y0072840D01*
X0129299Y0072840D01*
X0130614Y0072295D01*
X0131620Y0071288D01*
X0132165Y0069973D01*
X0132165Y0068550D01*
X0132165Y0069393D02*
X0250230Y0069393D01*
X0250453Y0069321D02*
X0251214Y0069200D01*
X0251216Y0069200D01*
X0251216Y0073716D01*
X0251984Y0073716D01*
X0251984Y0069200D01*
X0251986Y0069200D01*
X0252747Y0069321D01*
X0253481Y0069559D01*
X0254168Y0069909D01*
X0254792Y0070362D01*
X0255337Y0070908D01*
X0255791Y0071532D01*
X0256141Y0072219D01*
X0256379Y0072953D01*
X0256500Y0073714D01*
X0256500Y0073716D01*
X0251984Y0073716D01*
X0251984Y0074484D01*
X0256500Y0074484D01*
X0256500Y0074486D01*
X0256379Y0075247D01*
X0256141Y0075981D01*
X0255791Y0076668D01*
X0255337Y0077292D01*
X0254792Y0077838D01*
X0254168Y0078291D01*
X0253481Y0078641D01*
X0252747Y0078879D01*
X0251986Y0079000D01*
X0251984Y0079000D01*
X0251984Y0074484D01*
X0251216Y0074484D01*
X0251216Y0073716D01*
X0246700Y0073716D01*
X0246700Y0073714D01*
X0246821Y0072953D01*
X0247059Y0072219D01*
X0247409Y0071532D01*
X0247862Y0070908D01*
X0248408Y0070362D01*
X0249032Y0069909D01*
X0249719Y0069559D01*
X0250453Y0069321D01*
X0251216Y0069393D02*
X0251984Y0069393D01*
X0252969Y0069393D02*
X0259067Y0069393D01*
X0259065Y0070591D02*
X0255021Y0070591D01*
X0255922Y0071790D02*
X0259063Y0071790D01*
X0259061Y0072988D02*
X0256385Y0072988D01*
X0256335Y0075385D02*
X0259057Y0075385D01*
X0259059Y0074187D02*
X0251984Y0074187D01*
X0251216Y0074187D02*
X0245077Y0074187D01*
X0245300Y0074726D02*
X0244584Y0072999D01*
X0243262Y0071676D01*
X0241535Y0070961D01*
X0239665Y0070961D01*
X0237938Y0071676D01*
X0236616Y0072999D01*
X0235900Y0074726D01*
X0235900Y0076596D01*
X0236616Y0078323D01*
X0237938Y0079645D01*
X0239665Y0080361D01*
X0241535Y0080361D01*
X0243262Y0079645D01*
X0244584Y0078323D01*
X0245300Y0076596D01*
X0245300Y0074726D01*
X0245300Y0075385D02*
X0246865Y0075385D01*
X0246821Y0075247D02*
X0246700Y0074486D01*
X0246700Y0074484D01*
X0251216Y0074484D01*
X0251216Y0079000D01*
X0251214Y0079000D01*
X0250453Y0078879D01*
X0249719Y0078641D01*
X0249032Y0078291D01*
X0248408Y0077838D01*
X0247862Y0077292D01*
X0247409Y0076668D01*
X0247059Y0075981D01*
X0246821Y0075247D01*
X0247366Y0076584D02*
X0245300Y0076584D01*
X0244808Y0077782D02*
X0248353Y0077782D01*
X0251216Y0077782D02*
X0251984Y0077782D01*
X0251984Y0076584D02*
X0251216Y0076584D01*
X0251216Y0075385D02*
X0251984Y0075385D01*
X0251984Y0072988D02*
X0251216Y0072988D01*
X0251216Y0071790D02*
X0251984Y0071790D01*
X0251984Y0070591D02*
X0251216Y0070591D01*
X0251216Y0068194D02*
X0251984Y0068194D01*
X0251984Y0066996D02*
X0251216Y0066996D01*
X0251216Y0065797D02*
X0251984Y0065797D01*
X0251984Y0064599D02*
X0251216Y0064599D01*
X0251216Y0063400D02*
X0251984Y0063400D01*
X0251984Y0062202D02*
X0251216Y0062202D01*
X0251216Y0061003D02*
X0251984Y0061003D01*
X0251984Y0059805D02*
X0251216Y0059805D01*
X0253963Y0059805D02*
X0259082Y0059805D01*
X0259080Y0061003D02*
X0255407Y0061003D01*
X0256132Y0062202D02*
X0259078Y0062202D01*
X0259076Y0063400D02*
X0256450Y0063400D01*
X0256482Y0064599D02*
X0259074Y0064599D01*
X0259072Y0065797D02*
X0256201Y0065797D01*
X0255553Y0066996D02*
X0259070Y0066996D01*
X0259069Y0068194D02*
X0254301Y0068194D01*
X0248179Y0070591D02*
X0131909Y0070591D01*
X0131119Y0071790D02*
X0237824Y0071790D01*
X0236626Y0072988D02*
X0030605Y0072988D01*
X0030584Y0072938D02*
X0031300Y0074665D01*
X0031300Y0076535D01*
X0030584Y0078262D01*
X0029262Y0079584D01*
X0027535Y0080300D01*
X0025665Y0080300D01*
X0023938Y0079584D01*
X0022616Y0078262D01*
X0021900Y0076535D01*
X0021900Y0074665D01*
X0022616Y0072938D01*
X0023938Y0071616D01*
X0025665Y0070900D01*
X0027535Y0070900D01*
X0029262Y0071616D01*
X0030584Y0072938D01*
X0031102Y0074187D02*
X0236123Y0074187D01*
X0235900Y0075385D02*
X0031300Y0075385D01*
X0031280Y0076584D02*
X0235900Y0076584D01*
X0236392Y0077782D02*
X0030783Y0077782D01*
X0029866Y0078981D02*
X0237273Y0078981D01*
X0239227Y0080179D02*
X0027826Y0080179D01*
X0027535Y0080900D02*
X0029262Y0081616D01*
X0030584Y0082938D01*
X0031300Y0084665D01*
X0031300Y0086535D01*
X0030584Y0088262D01*
X0029262Y0089584D01*
X0027535Y0090300D01*
X0025665Y0090300D01*
X0023938Y0089584D01*
X0022616Y0088262D01*
X0021900Y0086535D01*
X0021900Y0084665D01*
X0022616Y0082938D01*
X0023938Y0081616D01*
X0025665Y0080900D01*
X0027535Y0080900D01*
X0028689Y0081378D02*
X0238658Y0081378D01*
X0237938Y0081676D02*
X0239665Y0080961D01*
X0241535Y0080961D01*
X0243262Y0081676D01*
X0244584Y0082999D01*
X0245300Y0084726D01*
X0245300Y0086596D01*
X0244584Y0088323D01*
X0243262Y0089645D01*
X0241535Y0090361D01*
X0239665Y0090361D01*
X0237938Y0089645D01*
X0236616Y0088323D01*
X0235900Y0086596D01*
X0235900Y0084726D01*
X0236616Y0082999D01*
X0237938Y0081676D01*
X0237038Y0082576D02*
X0232057Y0082576D01*
X0232262Y0082661D02*
X0233584Y0083984D01*
X0234300Y0085711D01*
X0234300Y0087581D01*
X0233584Y0089308D01*
X0232262Y0090630D01*
X0230535Y0091346D01*
X0228665Y0091346D01*
X0226938Y0090630D01*
X0225616Y0089308D01*
X0224900Y0087581D01*
X0224900Y0085711D01*
X0225616Y0083984D01*
X0226938Y0082661D01*
X0228665Y0081946D01*
X0230535Y0081946D01*
X0232262Y0082661D01*
X0233376Y0083775D02*
X0236294Y0083775D01*
X0235900Y0084973D02*
X0233995Y0084973D01*
X0234300Y0086172D02*
X0235900Y0086172D01*
X0236221Y0087370D02*
X0234300Y0087370D01*
X0233891Y0088569D02*
X0236861Y0088569D01*
X0238233Y0089768D02*
X0233125Y0089768D01*
X0231452Y0090966D02*
X0259033Y0090966D01*
X0259035Y0089768D02*
X0242967Y0089768D01*
X0244339Y0088569D02*
X0259037Y0088569D01*
X0259039Y0087370D02*
X0244979Y0087370D01*
X0245300Y0086172D02*
X0259040Y0086172D01*
X0259042Y0084973D02*
X0245300Y0084973D01*
X0244906Y0083775D02*
X0259044Y0083775D01*
X0259046Y0082576D02*
X0244162Y0082576D01*
X0242542Y0081378D02*
X0259048Y0081378D01*
X0259050Y0080179D02*
X0241973Y0080179D01*
X0243927Y0078981D02*
X0251094Y0078981D01*
X0251216Y0078981D02*
X0251984Y0078981D01*
X0252106Y0078981D02*
X0259052Y0078981D01*
X0259054Y0077782D02*
X0254847Y0077782D01*
X0255834Y0076584D02*
X0259055Y0076584D01*
X0247278Y0071790D02*
X0243376Y0071790D01*
X0244574Y0072988D02*
X0246815Y0072988D01*
X0238784Y0066996D02*
X0131381Y0066996D01*
X0129573Y0065797D02*
X0237090Y0065797D01*
X0236315Y0064599D02*
X0031066Y0064599D01*
X0031300Y0063400D02*
X0235900Y0063400D01*
X0235900Y0062202D02*
X0031300Y0062202D01*
X0030819Y0061003D02*
X0236199Y0061003D01*
X0236809Y0059805D02*
X0029952Y0059805D01*
X0030138Y0056209D02*
X0034891Y0056209D01*
X0034938Y0056256D02*
X0033616Y0054934D01*
X0032900Y0053206D01*
X0032900Y0051337D01*
X0033616Y0049609D01*
X0034938Y0048287D01*
X0036665Y0047572D01*
X0038535Y0047572D01*
X0040262Y0048287D01*
X0041584Y0049609D01*
X0042300Y0051337D01*
X0042300Y0053206D01*
X0041584Y0054934D01*
X0040262Y0056256D01*
X0038535Y0056972D01*
X0036665Y0056972D01*
X0034938Y0056256D01*
X0033692Y0055011D02*
X0030896Y0055011D01*
X0031300Y0053812D02*
X0033151Y0053812D01*
X0032900Y0052614D02*
X0031300Y0052614D01*
X0030989Y0051415D02*
X0032900Y0051415D01*
X0033364Y0050217D02*
X0030363Y0050217D01*
X0029027Y0049018D02*
X0034207Y0049018D01*
X0036066Y0047820D02*
X0008737Y0047820D01*
X0008739Y0049018D02*
X0024173Y0049018D01*
X0022837Y0050217D02*
X0008741Y0050217D01*
X0008743Y0051415D02*
X0022211Y0051415D01*
X0021900Y0052614D02*
X0008745Y0052614D01*
X0008746Y0053812D02*
X0021900Y0053812D01*
X0022304Y0055011D02*
X0008748Y0055011D01*
X0008750Y0056209D02*
X0023062Y0056209D01*
X0024718Y0057408D02*
X0008752Y0057408D01*
X0008754Y0058606D02*
X0025167Y0058606D01*
X0023248Y0059805D02*
X0008756Y0059805D01*
X0008758Y0061003D02*
X0022381Y0061003D01*
X0021900Y0062202D02*
X0017571Y0062202D01*
X0017792Y0062362D02*
X0018338Y0062908D01*
X0018791Y0063532D01*
X0019141Y0064219D01*
X0019379Y0064953D01*
X0019500Y0065714D01*
X0019500Y0065716D01*
X0014984Y0065716D01*
X0014984Y0061200D01*
X0014986Y0061200D01*
X0015747Y0061321D01*
X0016481Y0061559D01*
X0017168Y0061909D01*
X0017792Y0062362D01*
X0018695Y0063400D02*
X0021900Y0063400D01*
X0022134Y0064599D02*
X0019264Y0064599D01*
X0019500Y0066484D02*
X0014984Y0066484D01*
X0014984Y0065716D01*
X0014216Y0065716D01*
X0014216Y0061200D01*
X0014214Y0061200D01*
X0013453Y0061321D01*
X0012719Y0061559D01*
X0012032Y0061909D01*
X0011408Y0062362D01*
X0010862Y0062908D01*
X0010409Y0063532D01*
X0010059Y0064219D01*
X0009821Y0064953D01*
X0009700Y0065714D01*
X0009700Y0065716D01*
X0014216Y0065716D01*
X0014216Y0066484D01*
X0009700Y0066484D01*
X0009700Y0066486D01*
X0009821Y0067247D01*
X0010059Y0067981D01*
X0010409Y0068668D01*
X0010862Y0069292D01*
X0011408Y0069838D01*
X0012032Y0070291D01*
X0012719Y0070641D01*
X0013453Y0070879D01*
X0014214Y0071000D01*
X0014216Y0071000D01*
X0014216Y0066484D01*
X0014984Y0066484D01*
X0014984Y0071000D01*
X0014986Y0071000D01*
X0015747Y0070879D01*
X0016481Y0070641D01*
X0017168Y0070291D01*
X0017792Y0069838D01*
X0018338Y0069292D01*
X0018791Y0068668D01*
X0019141Y0067981D01*
X0019379Y0067247D01*
X0019500Y0066486D01*
X0019500Y0066484D01*
X0019419Y0066996D02*
X0023849Y0066996D01*
X0022650Y0065797D02*
X0014984Y0065797D01*
X0014216Y0065797D02*
X0008765Y0065797D01*
X0008763Y0064599D02*
X0009936Y0064599D01*
X0010505Y0063400D02*
X0008761Y0063400D01*
X0008760Y0062202D02*
X0011629Y0062202D01*
X0014216Y0062202D02*
X0014984Y0062202D01*
X0014984Y0063400D02*
X0014216Y0063400D01*
X0014216Y0064599D02*
X0014984Y0064599D01*
X0014984Y0066996D02*
X0014216Y0066996D01*
X0014216Y0068194D02*
X0014984Y0068194D01*
X0014984Y0069393D02*
X0014216Y0069393D01*
X0014216Y0070591D02*
X0014984Y0070591D01*
X0014986Y0071200D02*
X0015747Y0071321D01*
X0016481Y0071559D01*
X0017168Y0071909D01*
X0017792Y0072362D01*
X0018338Y0072908D01*
X0018791Y0073532D01*
X0019141Y0074219D01*
X0019379Y0074953D01*
X0019500Y0075714D01*
X0019500Y0075716D01*
X0014984Y0075716D01*
X0014984Y0071200D01*
X0014986Y0071200D01*
X0014984Y0071790D02*
X0014216Y0071790D01*
X0014216Y0071200D02*
X0014216Y0075716D01*
X0014984Y0075716D01*
X0014984Y0076484D01*
X0019500Y0076484D01*
X0019500Y0076486D01*
X0019379Y0077247D01*
X0019141Y0077981D01*
X0018791Y0078668D01*
X0018338Y0079292D01*
X0017792Y0079838D01*
X0017168Y0080291D01*
X0016481Y0080641D01*
X0015747Y0080879D01*
X0014986Y0081000D01*
X0014984Y0081000D01*
X0014984Y0076484D01*
X0014216Y0076484D01*
X0014216Y0075716D01*
X0009700Y0075716D01*
X0009700Y0075714D01*
X0009821Y0074953D01*
X0010059Y0074219D01*
X0010409Y0073532D01*
X0010862Y0072908D01*
X0011408Y0072362D01*
X0012032Y0071909D01*
X0012719Y0071559D01*
X0013453Y0071321D01*
X0014214Y0071200D01*
X0014216Y0071200D01*
X0012622Y0070591D02*
X0008773Y0070591D01*
X0008771Y0069393D02*
X0010963Y0069393D01*
X0010168Y0068194D02*
X0008769Y0068194D01*
X0008767Y0066996D02*
X0009781Y0066996D01*
X0008775Y0071790D02*
X0012266Y0071790D01*
X0010804Y0072988D02*
X0008776Y0072988D01*
X0008778Y0074187D02*
X0010075Y0074187D01*
X0009752Y0075385D02*
X0008780Y0075385D01*
X0008782Y0076584D02*
X0009716Y0076584D01*
X0009700Y0076486D02*
X0009821Y0077247D01*
X0010059Y0077981D01*
X0010409Y0078668D01*
X0010862Y0079292D01*
X0011408Y0079838D01*
X0012032Y0080291D01*
X0012719Y0080641D01*
X0013453Y0080879D01*
X0014214Y0081000D01*
X0014216Y0081000D01*
X0014216Y0076484D01*
X0009700Y0076484D01*
X0009700Y0076486D01*
X0009994Y0077782D02*
X0008784Y0077782D01*
X0008786Y0078981D02*
X0010636Y0078981D01*
X0011878Y0080179D02*
X0008788Y0080179D01*
X0008790Y0081378D02*
X0024511Y0081378D01*
X0025374Y0080179D02*
X0017322Y0080179D01*
X0018564Y0078981D02*
X0023334Y0078981D01*
X0022417Y0077782D02*
X0019206Y0077782D01*
X0019484Y0076584D02*
X0021920Y0076584D01*
X0021900Y0075385D02*
X0019448Y0075385D01*
X0019125Y0074187D02*
X0022098Y0074187D01*
X0022595Y0072988D02*
X0018396Y0072988D01*
X0016934Y0071790D02*
X0023763Y0071790D01*
X0019032Y0068194D02*
X0125156Y0068194D01*
X0125009Y0069393D02*
X0018237Y0069393D01*
X0016578Y0070591D02*
X0125265Y0070591D01*
X0126055Y0071790D02*
X0029437Y0071790D01*
X0029351Y0066996D02*
X0125793Y0066996D01*
X0127601Y0065797D02*
X0030550Y0065797D01*
X0040309Y0056209D02*
X0044891Y0056209D01*
X0043692Y0055011D02*
X0041508Y0055011D01*
X0042049Y0053812D02*
X0043151Y0053812D01*
X0042900Y0052614D02*
X0042300Y0052614D01*
X0042300Y0051415D02*
X0042900Y0051415D01*
X0043364Y0050217D02*
X0041836Y0050217D01*
X0040993Y0049018D02*
X0044207Y0049018D01*
X0046066Y0047820D02*
X0039134Y0047820D01*
X0014984Y0072988D02*
X0014216Y0072988D01*
X0014216Y0074187D02*
X0014984Y0074187D01*
X0014984Y0075385D02*
X0014216Y0075385D01*
X0014216Y0076584D02*
X0014984Y0076584D01*
X0014984Y0077782D02*
X0014216Y0077782D01*
X0014216Y0078981D02*
X0014984Y0078981D01*
X0014984Y0080179D02*
X0014216Y0080179D01*
X0008791Y0082576D02*
X0022977Y0082576D01*
X0022269Y0083775D02*
X0008793Y0083775D01*
X0008795Y0084973D02*
X0021900Y0084973D01*
X0021900Y0086172D02*
X0008797Y0086172D01*
X0008799Y0087370D02*
X0022246Y0087370D01*
X0022922Y0088569D02*
X0008801Y0088569D01*
X0008803Y0089768D02*
X0024380Y0089768D01*
X0028820Y0089768D02*
X0033482Y0089768D01*
X0033616Y0090091D02*
X0032900Y0088363D01*
X0032900Y0086494D01*
X0033616Y0084766D01*
X0034938Y0083444D01*
X0036665Y0082728D01*
X0038535Y0082728D01*
X0040262Y0083444D01*
X0041584Y0084766D01*
X0042300Y0086494D01*
X0042300Y0088363D01*
X0041584Y0090091D01*
X0040262Y0091413D01*
X0038535Y0092128D01*
X0036665Y0092128D01*
X0034938Y0091413D01*
X0033616Y0090091D01*
X0034491Y0090966D02*
X0008805Y0090966D01*
X0008806Y0092165D02*
X0259031Y0092165D01*
X0259029Y0093363D02*
X0008808Y0093363D01*
X0008810Y0094562D02*
X0259027Y0094562D01*
X0259025Y0095760D02*
X0008812Y0095760D01*
X0008814Y0096959D02*
X0259024Y0096959D01*
X0259022Y0098157D02*
X0008816Y0098157D01*
X0008818Y0099356D02*
X0259020Y0099356D01*
X0259018Y0100554D02*
X0231018Y0100554D01*
X0230535Y0100354D02*
X0232262Y0101070D01*
X0233584Y0102392D01*
X0234300Y0104119D01*
X0234300Y0105989D01*
X0233584Y0107716D01*
X0232262Y0109039D01*
X0230535Y0109754D01*
X0228665Y0109754D01*
X0226938Y0109039D01*
X0225616Y0107716D01*
X0224900Y0105989D01*
X0224900Y0104119D01*
X0225616Y0102392D01*
X0226938Y0101070D01*
X0228665Y0100354D01*
X0230535Y0100354D01*
X0228182Y0100554D02*
X0221018Y0100554D01*
X0220535Y0100354D02*
X0222262Y0101070D01*
X0223584Y0102392D01*
X0224300Y0104119D01*
X0224300Y0105989D01*
X0223584Y0107716D01*
X0222262Y0109039D01*
X0220535Y0109754D01*
X0218665Y0109754D01*
X0216938Y0109039D01*
X0215616Y0107716D01*
X0214900Y0105989D01*
X0214900Y0104119D01*
X0215616Y0102392D01*
X0216938Y0101070D01*
X0218665Y0100354D01*
X0220535Y0100354D01*
X0218182Y0100554D02*
X0008820Y0100554D01*
X0008821Y0101753D02*
X0023801Y0101753D01*
X0023938Y0101616D02*
X0025665Y0100900D01*
X0027535Y0100900D01*
X0029262Y0101616D01*
X0030584Y0102938D01*
X0031300Y0104665D01*
X0031300Y0106535D01*
X0030584Y0108262D01*
X0029262Y0109584D01*
X0027535Y0110300D01*
X0025665Y0110300D01*
X0023938Y0109584D01*
X0022616Y0108262D01*
X0021900Y0106535D01*
X0021900Y0104665D01*
X0022616Y0102938D01*
X0023938Y0101616D01*
X0022610Y0102951D02*
X0008823Y0102951D01*
X0008825Y0104150D02*
X0022113Y0104150D01*
X0021900Y0105348D02*
X0008827Y0105348D01*
X0008829Y0106547D02*
X0021905Y0106547D01*
X0022401Y0107745D02*
X0008831Y0107745D01*
X0008833Y0108944D02*
X0023297Y0108944D01*
X0025284Y0110142D02*
X0008835Y0110142D01*
X0008837Y0111341D02*
X0024601Y0111341D01*
X0023938Y0111616D02*
X0025665Y0110900D01*
X0027535Y0110900D01*
X0029262Y0111616D01*
X0030584Y0112938D01*
X0031300Y0114665D01*
X0031300Y0116535D01*
X0030584Y0118262D01*
X0029262Y0119584D01*
X0027535Y0120300D01*
X0025665Y0120300D01*
X0023938Y0119584D01*
X0022616Y0118262D01*
X0021900Y0116535D01*
X0021900Y0114665D01*
X0022616Y0112938D01*
X0023938Y0111616D01*
X0023014Y0112539D02*
X0008838Y0112539D01*
X0008840Y0113738D02*
X0015476Y0113738D01*
X0015716Y0113738D02*
X0016484Y0113738D01*
X0016484Y0113700D02*
X0016486Y0113700D01*
X0017247Y0113821D01*
X0017981Y0114059D01*
X0018668Y0114409D01*
X0019292Y0114862D01*
X0019838Y0115408D01*
X0020291Y0116032D01*
X0020641Y0116719D01*
X0020879Y0117453D01*
X0021000Y0118214D01*
X0021000Y0118216D01*
X0016484Y0118216D01*
X0016484Y0113700D01*
X0016724Y0113738D02*
X0022284Y0113738D01*
X0021900Y0114936D02*
X0019366Y0114936D01*
X0020343Y0116135D02*
X0021900Y0116135D01*
X0022231Y0117333D02*
X0020841Y0117333D01*
X0021000Y0118984D02*
X0016484Y0118984D01*
X0016484Y0118216D01*
X0015716Y0118216D01*
X0015716Y0113700D01*
X0015714Y0113700D01*
X0014953Y0113821D01*
X0014219Y0114059D01*
X0013532Y0114409D01*
X0012908Y0114862D01*
X0012362Y0115408D01*
X0011909Y0116032D01*
X0011559Y0116719D01*
X0011321Y0117453D01*
X0011200Y0118214D01*
X0011200Y0118216D01*
X0015716Y0118216D01*
X0015716Y0118984D01*
X0011200Y0118984D01*
X0011200Y0118986D01*
X0011321Y0119747D01*
X0011559Y0120481D01*
X0011909Y0121168D01*
X0012362Y0121792D01*
X0012908Y0122337D01*
X0013532Y0122791D01*
X0014219Y0123141D01*
X0014953Y0123379D01*
X0015714Y0123500D01*
X0015716Y0123500D01*
X0015716Y0118984D01*
X0016484Y0118984D01*
X0016484Y0123500D01*
X0016486Y0123500D01*
X0017247Y0123379D01*
X0017981Y0123141D01*
X0018668Y0122791D01*
X0019292Y0122337D01*
X0019838Y0121792D01*
X0020291Y0121168D01*
X0020641Y0120481D01*
X0020879Y0119747D01*
X0021000Y0118986D01*
X0021000Y0118984D01*
X0020882Y0119730D02*
X0024290Y0119730D01*
X0022885Y0118532D02*
X0016484Y0118532D01*
X0015716Y0118532D02*
X0008848Y0118532D01*
X0008850Y0119730D02*
X0011318Y0119730D01*
X0011787Y0120929D02*
X0008852Y0120929D01*
X0008853Y0122127D02*
X0012698Y0122127D01*
X0014788Y0123326D02*
X0008855Y0123326D01*
X0008857Y0124524D02*
X0013373Y0124524D01*
X0013532Y0124409D02*
X0014219Y0124059D01*
X0014953Y0123821D01*
X0015714Y0123700D01*
X0015716Y0123700D01*
X0015716Y0128216D01*
X0016484Y0128216D01*
X0016484Y0123700D01*
X0016486Y0123700D01*
X0017247Y0123821D01*
X0017981Y0124059D01*
X0018668Y0124409D01*
X0019292Y0124862D01*
X0019838Y0125408D01*
X0020291Y0126032D01*
X0020641Y0126719D01*
X0020879Y0127453D01*
X0021000Y0128214D01*
X0021000Y0128216D01*
X0016484Y0128216D01*
X0016484Y0128984D01*
X0021000Y0128984D01*
X0021000Y0128986D01*
X0020879Y0129747D01*
X0020641Y0130481D01*
X0020291Y0131168D01*
X0019838Y0131792D01*
X0019292Y0132338D01*
X0018668Y0132791D01*
X0017981Y0133141D01*
X0017247Y0133379D01*
X0016486Y0133500D01*
X0016484Y0133500D01*
X0016484Y0128984D01*
X0015716Y0128984D01*
X0015716Y0128216D01*
X0011200Y0128216D01*
X0011200Y0128214D01*
X0011321Y0127453D01*
X0011559Y0126719D01*
X0011909Y0126032D01*
X0012362Y0125408D01*
X0012908Y0124862D01*
X0013532Y0124409D01*
X0012134Y0125723D02*
X0008859Y0125723D01*
X0008861Y0126921D02*
X0011493Y0126921D01*
X0011215Y0128120D02*
X0008863Y0128120D01*
X0008865Y0129318D02*
X0011253Y0129318D01*
X0011200Y0128986D02*
X0011200Y0128984D01*
X0015716Y0128984D01*
X0015716Y0133500D01*
X0015714Y0133500D01*
X0014953Y0133379D01*
X0014219Y0133141D01*
X0013532Y0132791D01*
X0012908Y0132338D01*
X0012362Y0131792D01*
X0011909Y0131168D01*
X0011559Y0130481D01*
X0011321Y0129747D01*
X0011200Y0128986D01*
X0011577Y0130517D02*
X0008867Y0130517D01*
X0008868Y0131715D02*
X0012307Y0131715D01*
X0013773Y0132914D02*
X0008870Y0132914D01*
X0008872Y0134112D02*
X0023945Y0134112D01*
X0023938Y0134116D02*
X0025665Y0133400D01*
X0027535Y0133400D01*
X0029262Y0134116D01*
X0030584Y0135438D01*
X0031300Y0137165D01*
X0031300Y0139035D01*
X0030584Y0140762D01*
X0029262Y0142084D01*
X0027535Y0142800D01*
X0025665Y0142800D01*
X0023938Y0142084D01*
X0022616Y0140762D01*
X0021900Y0139035D01*
X0021900Y0137165D01*
X0022616Y0135438D01*
X0023938Y0134116D01*
X0022742Y0135311D02*
X0008874Y0135311D01*
X0008876Y0136509D02*
X0022172Y0136509D01*
X0021900Y0137708D02*
X0008878Y0137708D01*
X0008880Y0138906D02*
X0021900Y0138906D01*
X0022343Y0140105D02*
X0008882Y0140105D01*
X0008883Y0141303D02*
X0023157Y0141303D01*
X0024946Y0142502D02*
X0008885Y0142502D01*
X0008887Y0143701D02*
X0035632Y0143701D01*
X0034938Y0143413D02*
X0033616Y0142091D01*
X0032900Y0140363D01*
X0032900Y0138494D01*
X0033616Y0136766D01*
X0034938Y0135444D01*
X0036665Y0134728D01*
X0038535Y0134728D01*
X0040262Y0135444D01*
X0041584Y0136766D01*
X0042300Y0138494D01*
X0042300Y0140363D01*
X0041584Y0142091D01*
X0040262Y0143413D01*
X0038535Y0144128D01*
X0036665Y0144128D01*
X0034938Y0143413D01*
X0034027Y0142502D02*
X0028254Y0142502D01*
X0030043Y0141303D02*
X0033289Y0141303D01*
X0032900Y0140105D02*
X0030857Y0140105D01*
X0031300Y0138906D02*
X0032900Y0138906D01*
X0033225Y0137708D02*
X0031300Y0137708D01*
X0031028Y0136509D02*
X0033872Y0136509D01*
X0035259Y0135311D02*
X0030458Y0135311D01*
X0029255Y0134112D02*
X0238611Y0134112D01*
X0239211Y0134361D02*
X0237484Y0133645D01*
X0236161Y0132323D01*
X0235446Y0130596D01*
X0235446Y0128726D01*
X0236161Y0126999D01*
X0237484Y0125676D01*
X0239211Y0124961D01*
X0241081Y0124961D01*
X0242808Y0125676D01*
X0244130Y0126999D01*
X0244846Y0128726D01*
X0244846Y0130596D01*
X0244130Y0132323D01*
X0242808Y0133645D01*
X0241081Y0134361D01*
X0239211Y0134361D01*
X0239211Y0134961D02*
X0241081Y0134961D01*
X0242808Y0135676D01*
X0244130Y0136999D01*
X0244846Y0138726D01*
X0244846Y0140596D01*
X0244130Y0142323D01*
X0242808Y0143645D01*
X0241081Y0144361D01*
X0239211Y0144361D01*
X0237484Y0143645D01*
X0236161Y0142323D01*
X0235446Y0140596D01*
X0235446Y0138726D01*
X0236161Y0136999D01*
X0237484Y0135676D01*
X0239211Y0134961D01*
X0238366Y0135311D02*
X0231416Y0135311D01*
X0232262Y0135661D02*
X0230535Y0134946D01*
X0228665Y0134946D01*
X0226938Y0135661D01*
X0225616Y0136984D01*
X0224900Y0138711D01*
X0224900Y0140581D01*
X0225616Y0142308D01*
X0226938Y0143630D01*
X0228665Y0144346D01*
X0230535Y0144346D01*
X0232262Y0143630D01*
X0233584Y0142308D01*
X0234300Y0140581D01*
X0234300Y0138711D01*
X0233584Y0136984D01*
X0232262Y0135661D01*
X0233110Y0136509D02*
X0236650Y0136509D01*
X0235868Y0137708D02*
X0233885Y0137708D01*
X0234300Y0138906D02*
X0235446Y0138906D01*
X0235446Y0140105D02*
X0234300Y0140105D01*
X0234001Y0141303D02*
X0235739Y0141303D01*
X0236340Y0142502D02*
X0233391Y0142502D01*
X0232093Y0143701D02*
X0237617Y0143701D01*
X0242675Y0143701D02*
X0258950Y0143701D01*
X0258949Y0144899D02*
X0107800Y0144899D01*
X0107800Y0145425D02*
X0105925Y0147300D01*
X0103275Y0147300D01*
X0102075Y0146100D01*
X0066428Y0146100D01*
X0066277Y0146251D01*
X0066300Y0146275D01*
X0066300Y0148925D01*
X0064425Y0150800D01*
X0061775Y0150800D01*
X0059900Y0148925D01*
X0059900Y0146275D01*
X0061775Y0144400D01*
X0062472Y0144400D01*
X0063600Y0143272D01*
X0064772Y0142100D01*
X0102075Y0142100D01*
X0103275Y0140900D01*
X0105925Y0140900D01*
X0107800Y0142775D01*
X0107800Y0145425D01*
X0107128Y0146098D02*
X0258947Y0146098D01*
X0258945Y0147296D02*
X0105929Y0147296D01*
X0103271Y0147296D02*
X0066300Y0147296D01*
X0066300Y0148495D02*
X0258943Y0148495D01*
X0258941Y0149693D02*
X0065532Y0149693D01*
X0063100Y0147600D02*
X0063100Y0146600D01*
X0065600Y0144100D01*
X0104600Y0144100D01*
X0107800Y0143701D02*
X0217107Y0143701D01*
X0216938Y0143630D02*
X0215616Y0142308D01*
X0214900Y0140581D01*
X0214900Y0138711D01*
X0215616Y0136984D01*
X0216938Y0135661D01*
X0218665Y0134946D01*
X0220535Y0134946D01*
X0222262Y0135661D01*
X0223584Y0136984D01*
X0224300Y0138711D01*
X0224300Y0140581D01*
X0223584Y0142308D01*
X0222262Y0143630D01*
X0220535Y0144346D01*
X0218665Y0144346D01*
X0216938Y0143630D01*
X0215809Y0142502D02*
X0107527Y0142502D01*
X0106329Y0141303D02*
X0215199Y0141303D01*
X0214900Y0140105D02*
X0052300Y0140105D01*
X0052300Y0140363D02*
X0051584Y0142091D01*
X0050262Y0143413D01*
X0048535Y0144128D01*
X0046665Y0144128D01*
X0044938Y0143413D01*
X0043616Y0142091D01*
X0042900Y0140363D01*
X0042900Y0138494D01*
X0043616Y0136766D01*
X0044938Y0135444D01*
X0046665Y0134728D01*
X0048535Y0134728D01*
X0050262Y0135444D01*
X0051584Y0136766D01*
X0052300Y0138494D01*
X0052300Y0140363D01*
X0051911Y0141303D02*
X0102871Y0141303D01*
X0064370Y0142502D02*
X0051173Y0142502D01*
X0049568Y0143701D02*
X0063171Y0143701D01*
X0061275Y0144899D02*
X0008889Y0144899D01*
X0008891Y0146098D02*
X0060077Y0146098D01*
X0059900Y0147296D02*
X0008893Y0147296D01*
X0008895Y0148495D02*
X0059900Y0148495D01*
X0060668Y0149693D02*
X0008897Y0149693D01*
X0008898Y0150892D02*
X0035892Y0150892D01*
X0036665Y0150572D02*
X0038535Y0150572D01*
X0040262Y0151287D01*
X0041584Y0152609D01*
X0042300Y0154337D01*
X0042300Y0156206D01*
X0041584Y0157934D01*
X0040262Y0159256D01*
X0038535Y0159972D01*
X0036665Y0159972D01*
X0034938Y0159256D01*
X0033616Y0157934D01*
X0032900Y0156206D01*
X0032900Y0154337D01*
X0033616Y0152609D01*
X0034938Y0151287D01*
X0036665Y0150572D01*
X0039308Y0150892D02*
X0045892Y0150892D01*
X0046665Y0150572D02*
X0048535Y0150572D01*
X0050262Y0151287D01*
X0051584Y0152609D01*
X0052300Y0154337D01*
X0052300Y0156206D01*
X0051584Y0157934D01*
X0050262Y0159256D01*
X0048535Y0159972D01*
X0046665Y0159972D01*
X0044938Y0159256D01*
X0043616Y0157934D01*
X0042900Y0156206D01*
X0042900Y0154337D01*
X0043616Y0152609D01*
X0044938Y0151287D01*
X0046665Y0150572D01*
X0049308Y0150892D02*
X0217368Y0150892D01*
X0216938Y0151070D02*
X0218665Y0150354D01*
X0220535Y0150354D01*
X0222262Y0151070D01*
X0223584Y0152392D01*
X0224300Y0154119D01*
X0224300Y0155989D01*
X0223584Y0157716D01*
X0222262Y0159039D01*
X0220535Y0159754D01*
X0218665Y0159754D01*
X0216938Y0159039D01*
X0215616Y0157716D01*
X0214900Y0155989D01*
X0214900Y0154119D01*
X0215616Y0152392D01*
X0216938Y0151070D01*
X0215917Y0152090D02*
X0051065Y0152090D01*
X0051866Y0153289D02*
X0215244Y0153289D01*
X0214900Y0154487D02*
X0052300Y0154487D01*
X0052300Y0155686D02*
X0214900Y0155686D01*
X0215271Y0156884D02*
X0052019Y0156884D01*
X0051436Y0158083D02*
X0215982Y0158083D01*
X0217523Y0159281D02*
X0050202Y0159281D01*
X0044998Y0159281D02*
X0040202Y0159281D01*
X0041436Y0158083D02*
X0043764Y0158083D01*
X0043181Y0156884D02*
X0042019Y0156884D01*
X0042300Y0155686D02*
X0042900Y0155686D01*
X0042900Y0154487D02*
X0042300Y0154487D01*
X0041866Y0153289D02*
X0043334Y0153289D01*
X0044135Y0152090D02*
X0041065Y0152090D01*
X0034135Y0152090D02*
X0008900Y0152090D01*
X0008902Y0153289D02*
X0033334Y0153289D01*
X0032900Y0154487D02*
X0029634Y0154487D01*
X0029262Y0154116D02*
X0030584Y0155438D01*
X0031300Y0157165D01*
X0031300Y0159035D01*
X0030584Y0160762D01*
X0029262Y0162084D01*
X0027535Y0162800D01*
X0025665Y0162800D01*
X0023938Y0162084D01*
X0022616Y0160762D01*
X0021900Y0159035D01*
X0021900Y0157165D01*
X0022616Y0155438D01*
X0023938Y0154116D01*
X0025665Y0153400D01*
X0027535Y0153400D01*
X0029262Y0154116D01*
X0030687Y0155686D02*
X0032900Y0155686D01*
X0033181Y0156884D02*
X0031184Y0156884D01*
X0031300Y0158083D02*
X0033764Y0158083D01*
X0034998Y0159281D02*
X0031198Y0159281D01*
X0030702Y0160480D02*
X0236818Y0160480D01*
X0236661Y0160323D02*
X0235946Y0158596D01*
X0235946Y0156726D01*
X0236661Y0154999D01*
X0237984Y0153676D01*
X0239711Y0152961D01*
X0241581Y0152961D01*
X0243308Y0153676D01*
X0244630Y0154999D01*
X0245346Y0156726D01*
X0245346Y0158596D01*
X0244630Y0160323D01*
X0243308Y0161645D01*
X0241581Y0162361D01*
X0239711Y0162361D01*
X0237984Y0161645D01*
X0236661Y0160323D01*
X0236230Y0159281D02*
X0231677Y0159281D01*
X0232262Y0159039D02*
X0230535Y0159754D01*
X0228665Y0159754D01*
X0226938Y0159039D01*
X0225616Y0157716D01*
X0224900Y0155989D01*
X0224900Y0154119D01*
X0225616Y0152392D01*
X0226938Y0151070D01*
X0228665Y0150354D01*
X0230535Y0150354D01*
X0232262Y0151070D01*
X0233584Y0152392D01*
X0234300Y0154119D01*
X0234300Y0155989D01*
X0233584Y0157716D01*
X0232262Y0159039D01*
X0233218Y0158083D02*
X0235946Y0158083D01*
X0235946Y0156884D02*
X0233929Y0156884D01*
X0234300Y0155686D02*
X0236377Y0155686D01*
X0237173Y0154487D02*
X0234300Y0154487D01*
X0233956Y0153289D02*
X0238920Y0153289D01*
X0242372Y0153289D02*
X0258935Y0153289D01*
X0258934Y0154487D02*
X0244119Y0154487D01*
X0244915Y0155686D02*
X0258932Y0155686D01*
X0258930Y0156884D02*
X0245346Y0156884D01*
X0245346Y0158083D02*
X0258928Y0158083D01*
X0258926Y0159281D02*
X0245062Y0159281D01*
X0244474Y0160480D02*
X0258924Y0160480D01*
X0258922Y0161678D02*
X0243229Y0161678D01*
X0243308Y0163676D02*
X0244630Y0164999D01*
X0245346Y0166726D01*
X0245346Y0168596D01*
X0244630Y0170323D01*
X0243308Y0171645D01*
X0241581Y0172361D01*
X0239711Y0172361D01*
X0237984Y0171645D01*
X0236661Y0170323D01*
X0235946Y0168596D01*
X0235946Y0166726D01*
X0236661Y0164999D01*
X0237984Y0163676D01*
X0239711Y0162961D01*
X0241581Y0162961D01*
X0243308Y0163676D01*
X0243707Y0164075D02*
X0249741Y0164075D01*
X0249862Y0163908D02*
X0249409Y0164532D01*
X0249059Y0165219D01*
X0248821Y0165953D01*
X0248700Y0166714D01*
X0248700Y0166716D01*
X0253216Y0166716D01*
X0253984Y0166716D01*
X0253984Y0162200D01*
X0253986Y0162200D01*
X0254747Y0162321D01*
X0255481Y0162559D01*
X0256168Y0162909D01*
X0256792Y0163362D01*
X0257337Y0163908D01*
X0257791Y0164532D01*
X0258141Y0165219D01*
X0258379Y0165953D01*
X0258500Y0166714D01*
X0258500Y0166716D01*
X0253984Y0166716D01*
X0253984Y0167484D01*
X0258500Y0167484D01*
X0258500Y0167486D01*
X0258379Y0168247D01*
X0258141Y0168981D01*
X0257791Y0169668D01*
X0257337Y0170292D01*
X0256792Y0170838D01*
X0256168Y0171291D01*
X0255481Y0171641D01*
X0254747Y0171879D01*
X0253986Y0172000D01*
X0253984Y0172000D01*
X0253984Y0167484D01*
X0253216Y0167484D01*
X0253216Y0166716D01*
X0253216Y0162200D01*
X0253214Y0162200D01*
X0252453Y0162321D01*
X0251719Y0162559D01*
X0251032Y0162909D01*
X0250408Y0163362D01*
X0249862Y0163908D01*
X0249041Y0165274D02*
X0244744Y0165274D01*
X0245241Y0166472D02*
X0248738Y0166472D01*
X0248700Y0167484D02*
X0253216Y0167484D01*
X0253216Y0172000D01*
X0253214Y0172000D01*
X0252453Y0171879D01*
X0251719Y0171641D01*
X0251032Y0171291D01*
X0250408Y0170838D01*
X0249862Y0170292D01*
X0249409Y0169668D01*
X0249059Y0168981D01*
X0248821Y0168247D01*
X0248700Y0167486D01*
X0248700Y0167484D01*
X0248729Y0167671D02*
X0245346Y0167671D01*
X0245233Y0168869D02*
X0249023Y0168869D01*
X0249699Y0170068D02*
X0244736Y0170068D01*
X0243687Y0171266D02*
X0250998Y0171266D01*
X0251719Y0172559D02*
X0252453Y0172321D01*
X0253214Y0172200D01*
X0253216Y0172200D01*
X0253216Y0176716D01*
X0253984Y0176716D01*
X0253984Y0172200D01*
X0253986Y0172200D01*
X0254747Y0172321D01*
X0255481Y0172559D01*
X0256168Y0172909D01*
X0256792Y0173362D01*
X0257337Y0173908D01*
X0257791Y0174532D01*
X0258141Y0175219D01*
X0258379Y0175953D01*
X0258500Y0176714D01*
X0258500Y0176716D01*
X0253984Y0176716D01*
X0253984Y0177484D01*
X0258500Y0177484D01*
X0258500Y0177486D01*
X0258379Y0178247D01*
X0258141Y0178981D01*
X0257791Y0179668D01*
X0257337Y0180292D01*
X0256792Y0180837D01*
X0256168Y0181291D01*
X0255481Y0181641D01*
X0254747Y0181879D01*
X0253986Y0182000D01*
X0253984Y0182000D01*
X0253984Y0177484D01*
X0253216Y0177484D01*
X0253216Y0176716D01*
X0248700Y0176716D01*
X0248700Y0176714D01*
X0248821Y0175953D01*
X0249059Y0175219D01*
X0249409Y0174532D01*
X0249862Y0173908D01*
X0250408Y0173362D01*
X0251032Y0172909D01*
X0251719Y0172559D01*
X0252009Y0172465D02*
X0028344Y0172465D01*
X0027535Y0172800D02*
X0025665Y0172800D01*
X0023938Y0172084D01*
X0022616Y0170762D01*
X0021900Y0169035D01*
X0021900Y0167165D01*
X0022616Y0165438D01*
X0023938Y0164116D01*
X0025665Y0163400D01*
X0027535Y0163400D01*
X0029262Y0164116D01*
X0030584Y0165438D01*
X0031300Y0167165D01*
X0031300Y0169035D01*
X0030584Y0170762D01*
X0029262Y0172084D01*
X0027535Y0172800D01*
X0027535Y0173400D02*
X0029262Y0174116D01*
X0030584Y0175438D01*
X0031300Y0177165D01*
X0031300Y0179035D01*
X0030584Y0180762D01*
X0029262Y0182084D01*
X0027535Y0182800D01*
X0025665Y0182800D01*
X0023938Y0182084D01*
X0022616Y0180762D01*
X0021900Y0179035D01*
X0021900Y0177165D01*
X0022616Y0175438D01*
X0023938Y0174116D01*
X0025665Y0173400D01*
X0027535Y0173400D01*
X0028171Y0173663D02*
X0250107Y0173663D01*
X0249241Y0174862D02*
X0030009Y0174862D01*
X0030842Y0176060D02*
X0237600Y0176060D01*
X0237984Y0175676D02*
X0239711Y0174961D01*
X0241581Y0174961D01*
X0243308Y0175676D01*
X0244630Y0176999D01*
X0245346Y0178726D01*
X0245346Y0180596D01*
X0244630Y0182323D01*
X0243308Y0183645D01*
X0241581Y0184361D01*
X0239711Y0184361D01*
X0237984Y0183645D01*
X0236661Y0182323D01*
X0235946Y0180596D01*
X0235946Y0178726D01*
X0236661Y0176999D01*
X0237984Y0175676D01*
X0236554Y0177259D02*
X0031300Y0177259D01*
X0031300Y0178457D02*
X0236057Y0178457D01*
X0235946Y0179656D02*
X0031043Y0179656D01*
X0030492Y0180854D02*
X0236053Y0180854D01*
X0236549Y0182053D02*
X0029294Y0182053D01*
X0029262Y0184116D02*
X0030584Y0185438D01*
X0031300Y0187165D01*
X0031300Y0189035D01*
X0030584Y0190762D01*
X0029262Y0192084D01*
X0027535Y0192800D01*
X0025665Y0192800D01*
X0023938Y0192084D01*
X0022616Y0190762D01*
X0021900Y0189035D01*
X0021900Y0187165D01*
X0022616Y0185438D01*
X0023938Y0184116D01*
X0025665Y0183400D01*
X0027535Y0183400D01*
X0029262Y0184116D01*
X0029597Y0184450D02*
X0258887Y0184450D01*
X0258885Y0185648D02*
X0243241Y0185648D01*
X0243308Y0185676D02*
X0244630Y0186999D01*
X0245346Y0188726D01*
X0245346Y0190596D01*
X0244630Y0192323D01*
X0243308Y0193645D01*
X0241581Y0194361D01*
X0239711Y0194361D01*
X0237984Y0193645D01*
X0236661Y0192323D01*
X0235946Y0190596D01*
X0235946Y0188726D01*
X0236661Y0186999D01*
X0237984Y0185676D01*
X0239711Y0184961D01*
X0241581Y0184961D01*
X0243308Y0185676D01*
X0244479Y0186847D02*
X0258883Y0186847D01*
X0258881Y0188045D02*
X0245064Y0188045D01*
X0245346Y0189244D02*
X0258879Y0189244D01*
X0258877Y0190442D02*
X0245346Y0190442D01*
X0244913Y0191641D02*
X0258875Y0191641D01*
X0258874Y0192839D02*
X0244114Y0192839D01*
X0242360Y0194038D02*
X0258872Y0194038D01*
X0258870Y0195237D02*
X0008968Y0195237D01*
X0008970Y0196435D02*
X0258868Y0196435D01*
X0258866Y0197634D02*
X0008972Y0197634D01*
X0008973Y0198832D02*
X0036036Y0198832D01*
X0036665Y0198572D02*
X0038535Y0198572D01*
X0040262Y0199287D01*
X0041584Y0200609D01*
X0042300Y0202337D01*
X0042300Y0204206D01*
X0041584Y0205934D01*
X0040262Y0207256D01*
X0038535Y0207972D01*
X0036665Y0207972D01*
X0034938Y0207256D01*
X0033616Y0205934D01*
X0032900Y0204206D01*
X0032900Y0202337D01*
X0033616Y0200609D01*
X0034938Y0199287D01*
X0036665Y0198572D01*
X0039164Y0198832D02*
X0046036Y0198832D01*
X0046665Y0198572D02*
X0048535Y0198572D01*
X0050262Y0199287D01*
X0051584Y0200609D01*
X0052300Y0202337D01*
X0052300Y0204206D01*
X0051584Y0205934D01*
X0050262Y0207256D01*
X0048535Y0207972D01*
X0046665Y0207972D01*
X0044938Y0207256D01*
X0043616Y0205934D01*
X0042900Y0204206D01*
X0042900Y0202337D01*
X0043616Y0200609D01*
X0044938Y0199287D01*
X0046665Y0198572D01*
X0049164Y0198832D02*
X0258864Y0198832D01*
X0258862Y0200031D02*
X0232723Y0200031D01*
X0232262Y0199570D02*
X0233584Y0200892D01*
X0234300Y0202619D01*
X0234300Y0204489D01*
X0233584Y0206216D01*
X0232262Y0207539D01*
X0230535Y0208254D01*
X0228665Y0208254D01*
X0226938Y0207539D01*
X0225616Y0206216D01*
X0224900Y0204489D01*
X0224900Y0202619D01*
X0225616Y0200892D01*
X0226938Y0199570D01*
X0228665Y0198854D01*
X0230535Y0198854D01*
X0232262Y0199570D01*
X0233724Y0201229D02*
X0239064Y0201229D01*
X0239711Y0200961D02*
X0241581Y0200961D01*
X0243308Y0201676D01*
X0244630Y0202999D01*
X0245346Y0204726D01*
X0245346Y0206596D01*
X0244630Y0208323D01*
X0243308Y0209645D01*
X0241581Y0210361D01*
X0239711Y0210361D01*
X0237984Y0209645D01*
X0236661Y0208323D01*
X0235946Y0206596D01*
X0235946Y0204726D01*
X0236661Y0202999D01*
X0237984Y0201676D01*
X0239711Y0200961D01*
X0242228Y0201229D02*
X0258860Y0201229D01*
X0258859Y0202428D02*
X0244059Y0202428D01*
X0244890Y0203626D02*
X0258857Y0203626D01*
X0258855Y0204825D02*
X0245346Y0204825D01*
X0245346Y0206023D02*
X0258853Y0206023D01*
X0258851Y0207222D02*
X0245087Y0207222D01*
X0244533Y0208420D02*
X0258849Y0208420D01*
X0258847Y0209619D02*
X0243335Y0209619D01*
X0243308Y0211676D02*
X0244630Y0212999D01*
X0245346Y0214726D01*
X0245346Y0216596D01*
X0244630Y0218323D01*
X0243308Y0219645D01*
X0241581Y0220361D01*
X0239711Y0220361D01*
X0237984Y0219645D01*
X0236661Y0218323D01*
X0235946Y0216596D01*
X0235946Y0214726D01*
X0236661Y0212999D01*
X0237984Y0211676D01*
X0239711Y0210961D01*
X0241581Y0210961D01*
X0243308Y0211676D01*
X0243647Y0212016D02*
X0251586Y0212016D01*
X0251265Y0212120D02*
X0251998Y0211882D01*
X0252760Y0211761D01*
X0252762Y0211761D01*
X0252762Y0216277D01*
X0253530Y0216277D01*
X0253530Y0217045D01*
X0258046Y0217045D01*
X0258046Y0217047D01*
X0257925Y0217808D01*
X0257687Y0218542D01*
X0257337Y0219229D01*
X0256883Y0219853D01*
X0256338Y0220398D01*
X0255714Y0220852D01*
X0255027Y0221202D01*
X0254293Y0221440D01*
X0253531Y0221561D01*
X0253530Y0221561D01*
X0253530Y0217045D01*
X0252762Y0217045D01*
X0252762Y0221561D01*
X0252760Y0221561D01*
X0251998Y0221440D01*
X0251265Y0221202D01*
X0250578Y0220852D01*
X0249954Y0220398D01*
X0249408Y0219853D01*
X0248955Y0219229D01*
X0248605Y0218542D01*
X0248366Y0217808D01*
X0248246Y0217047D01*
X0248246Y0217045D01*
X0252762Y0217045D01*
X0252762Y0216277D01*
X0248246Y0216277D01*
X0248246Y0216275D01*
X0248366Y0215513D01*
X0248605Y0214780D01*
X0248955Y0214093D01*
X0249408Y0213469D01*
X0249954Y0212923D01*
X0250578Y0212470D01*
X0251265Y0212120D01*
X0252762Y0212016D02*
X0253530Y0212016D01*
X0253531Y0211761D02*
X0254293Y0211882D01*
X0255027Y0212120D01*
X0255714Y0212470D01*
X0256338Y0212923D01*
X0256883Y0213469D01*
X0257337Y0214093D01*
X0257687Y0214780D01*
X0257925Y0215513D01*
X0258046Y0216275D01*
X0258046Y0216277D01*
X0253530Y0216277D01*
X0253530Y0211761D01*
X0253531Y0211761D01*
X0254706Y0212016D02*
X0258844Y0212016D01*
X0258842Y0213214D02*
X0256629Y0213214D01*
X0257500Y0214413D02*
X0258840Y0214413D01*
X0258838Y0215611D02*
X0257941Y0215611D01*
X0258836Y0216810D02*
X0253530Y0216810D01*
X0252762Y0216810D02*
X0245257Y0216810D01*
X0245346Y0215611D02*
X0248351Y0215611D01*
X0248792Y0214413D02*
X0245216Y0214413D01*
X0244720Y0213214D02*
X0249663Y0213214D01*
X0252762Y0213214D02*
X0253530Y0213214D01*
X0253530Y0214413D02*
X0252762Y0214413D01*
X0252762Y0215611D02*
X0253530Y0215611D01*
X0253530Y0218008D02*
X0252762Y0218008D01*
X0252762Y0219207D02*
X0253530Y0219207D01*
X0253530Y0220405D02*
X0252762Y0220405D01*
X0252762Y0221761D02*
X0252762Y0226277D01*
X0253530Y0226277D01*
X0253530Y0227045D01*
X0258046Y0227045D01*
X0258046Y0227047D01*
X0257925Y0227808D01*
X0257687Y0228542D01*
X0257337Y0229229D01*
X0256883Y0229853D01*
X0256338Y0230398D01*
X0255714Y0230852D01*
X0255027Y0231202D01*
X0254293Y0231440D01*
X0253531Y0231561D01*
X0253530Y0231561D01*
X0253530Y0227045D01*
X0252762Y0227045D01*
X0252762Y0231561D01*
X0252760Y0231561D01*
X0251998Y0231440D01*
X0251265Y0231202D01*
X0250578Y0230852D01*
X0249954Y0230398D01*
X0249408Y0229853D01*
X0248955Y0229229D01*
X0248605Y0228542D01*
X0248366Y0227808D01*
X0248246Y0227047D01*
X0248246Y0227045D01*
X0252762Y0227045D01*
X0252762Y0226277D01*
X0248246Y0226277D01*
X0248246Y0226275D01*
X0248366Y0225513D01*
X0248605Y0224780D01*
X0248955Y0224093D01*
X0249408Y0223469D01*
X0249954Y0222923D01*
X0250578Y0222470D01*
X0251265Y0222120D01*
X0251998Y0221882D01*
X0252760Y0221761D01*
X0252762Y0221761D01*
X0253530Y0221761D02*
X0253531Y0221761D01*
X0254293Y0221882D01*
X0255027Y0222120D01*
X0255714Y0222470D01*
X0256338Y0222923D01*
X0256883Y0223469D01*
X0257337Y0224093D01*
X0257687Y0224780D01*
X0257925Y0225513D01*
X0258046Y0226275D01*
X0258046Y0226277D01*
X0253530Y0226277D01*
X0253530Y0221761D01*
X0253530Y0222802D02*
X0252762Y0222802D01*
X0252762Y0224001D02*
X0253530Y0224001D01*
X0253530Y0225199D02*
X0252762Y0225199D01*
X0252762Y0226398D02*
X0245346Y0226398D01*
X0245346Y0226226D02*
X0244630Y0224499D01*
X0243308Y0223176D01*
X0241581Y0222461D01*
X0239711Y0222461D01*
X0237984Y0223176D01*
X0236661Y0224499D01*
X0235946Y0226226D01*
X0235946Y0228096D01*
X0236661Y0229823D01*
X0237984Y0231145D01*
X0239711Y0231861D01*
X0241581Y0231861D01*
X0243308Y0231145D01*
X0244630Y0229823D01*
X0245346Y0228096D01*
X0245346Y0226226D01*
X0244921Y0225199D02*
X0248469Y0225199D01*
X0249022Y0224001D02*
X0244133Y0224001D01*
X0242405Y0222802D02*
X0250120Y0222802D01*
X0249963Y0220405D02*
X0016944Y0220405D01*
X0017168Y0220291D02*
X0016481Y0220641D01*
X0015747Y0220879D01*
X0014986Y0221000D01*
X0014984Y0221000D01*
X0014984Y0216484D01*
X0019500Y0216484D01*
X0019500Y0216486D01*
X0019379Y0217247D01*
X0019141Y0217981D01*
X0018791Y0218668D01*
X0018338Y0219292D01*
X0017792Y0219837D01*
X0017168Y0220291D01*
X0016481Y0221559D02*
X0017168Y0221909D01*
X0017792Y0222362D01*
X0018338Y0222908D01*
X0018791Y0223532D01*
X0019141Y0224219D01*
X0019379Y0224953D01*
X0019500Y0225714D01*
X0019500Y0225716D01*
X0014984Y0225716D01*
X0014984Y0221200D01*
X0014986Y0221200D01*
X0015747Y0221321D01*
X0016481Y0221559D01*
X0016569Y0221604D02*
X0023966Y0221604D01*
X0023938Y0221616D02*
X0025665Y0220900D01*
X0027535Y0220900D01*
X0029262Y0221616D01*
X0030584Y0222938D01*
X0031300Y0224665D01*
X0031300Y0226535D01*
X0030584Y0228262D01*
X0029262Y0229584D01*
X0027535Y0230300D01*
X0025665Y0230300D01*
X0023938Y0229584D01*
X0022616Y0228262D01*
X0021900Y0226535D01*
X0021900Y0224665D01*
X0022616Y0222938D01*
X0023938Y0221616D01*
X0022751Y0222802D02*
X0018232Y0222802D01*
X0019030Y0224001D02*
X0022175Y0224001D01*
X0021900Y0225199D02*
X0019418Y0225199D01*
X0019500Y0226484D02*
X0014984Y0226484D01*
X0014984Y0225716D01*
X0014216Y0225716D01*
X0014216Y0221200D01*
X0014214Y0221200D01*
X0013453Y0221321D01*
X0012719Y0221559D01*
X0012032Y0221909D01*
X0011408Y0222362D01*
X0010862Y0222908D01*
X0010409Y0223532D01*
X0010059Y0224219D01*
X0009821Y0224953D01*
X0009700Y0225714D01*
X0009700Y0225716D01*
X0014216Y0225716D01*
X0014216Y0226484D01*
X0009700Y0226484D01*
X0009700Y0226486D01*
X0009821Y0227247D01*
X0010059Y0227981D01*
X0010409Y0228668D01*
X0010862Y0229292D01*
X0011408Y0229837D01*
X0012032Y0230291D01*
X0012719Y0230641D01*
X0013453Y0230879D01*
X0014214Y0231000D01*
X0014216Y0231000D01*
X0014216Y0226484D01*
X0014984Y0226484D01*
X0014984Y0231000D01*
X0014986Y0231000D01*
X0015747Y0230879D01*
X0016481Y0230641D01*
X0017168Y0230291D01*
X0017792Y0229837D01*
X0018338Y0229292D01*
X0018791Y0228668D01*
X0019141Y0227981D01*
X0019379Y0227247D01*
X0019500Y0226486D01*
X0019500Y0226484D01*
X0019266Y0227596D02*
X0022340Y0227596D01*
X0021900Y0226398D02*
X0014984Y0226398D01*
X0014216Y0226398D02*
X0009017Y0226398D01*
X0009018Y0227596D02*
X0009934Y0227596D01*
X0010501Y0228795D02*
X0009020Y0228795D01*
X0009022Y0229993D02*
X0011622Y0229993D01*
X0014216Y0229993D02*
X0014984Y0229993D01*
X0014984Y0228795D02*
X0014216Y0228795D01*
X0014216Y0227596D02*
X0014984Y0227596D01*
X0014984Y0225199D02*
X0014216Y0225199D01*
X0014216Y0224001D02*
X0014984Y0224001D01*
X0014984Y0222802D02*
X0014216Y0222802D01*
X0014216Y0221604D02*
X0014984Y0221604D01*
X0014216Y0221000D02*
X0014216Y0216484D01*
X0014216Y0215716D01*
X0014984Y0215716D01*
X0014984Y0211200D01*
X0014986Y0211200D01*
X0015747Y0211321D01*
X0016481Y0211559D01*
X0017168Y0211909D01*
X0017792Y0212362D01*
X0018338Y0212908D01*
X0018791Y0213532D01*
X0019141Y0214219D01*
X0019379Y0214953D01*
X0019500Y0215714D01*
X0019500Y0215716D01*
X0014984Y0215716D01*
X0014984Y0216484D01*
X0014216Y0216484D01*
X0009700Y0216484D01*
X0009700Y0216486D01*
X0009821Y0217247D01*
X0010059Y0217981D01*
X0010409Y0218668D01*
X0010862Y0219292D01*
X0011408Y0219837D01*
X0012032Y0220291D01*
X0012719Y0220641D01*
X0013453Y0220879D01*
X0014214Y0221000D01*
X0014216Y0221000D01*
X0014216Y0220405D02*
X0014984Y0220405D01*
X0014984Y0219207D02*
X0014216Y0219207D01*
X0014216Y0218008D02*
X0014984Y0218008D01*
X0014984Y0216810D02*
X0014216Y0216810D01*
X0014216Y0215716D02*
X0009700Y0215716D01*
X0009700Y0215714D01*
X0009821Y0214953D01*
X0010059Y0214219D01*
X0010409Y0213532D01*
X0010862Y0212908D01*
X0011408Y0212362D01*
X0012032Y0211909D01*
X0012719Y0211559D01*
X0013453Y0211321D01*
X0014214Y0211200D01*
X0014216Y0211200D01*
X0014216Y0215716D01*
X0014216Y0215611D02*
X0014984Y0215611D01*
X0014984Y0214413D02*
X0014216Y0214413D01*
X0014216Y0213214D02*
X0014984Y0213214D01*
X0014984Y0212016D02*
X0014216Y0212016D01*
X0011885Y0212016D02*
X0008994Y0212016D01*
X0008996Y0213214D02*
X0010640Y0213214D01*
X0009996Y0214413D02*
X0008998Y0214413D01*
X0009000Y0215611D02*
X0009716Y0215611D01*
X0009751Y0216810D02*
X0009002Y0216810D01*
X0009003Y0218008D02*
X0010073Y0218008D01*
X0010800Y0219207D02*
X0009005Y0219207D01*
X0009007Y0220405D02*
X0012256Y0220405D01*
X0012631Y0221604D02*
X0009009Y0221604D01*
X0009011Y0222802D02*
X0010968Y0222802D01*
X0010170Y0224001D02*
X0009013Y0224001D01*
X0009015Y0225199D02*
X0009782Y0225199D01*
X0009024Y0231192D02*
X0024961Y0231192D01*
X0025665Y0230900D02*
X0027535Y0230900D01*
X0029262Y0231616D01*
X0030584Y0232938D01*
X0031300Y0234665D01*
X0031300Y0236535D01*
X0030584Y0238262D01*
X0029262Y0239584D01*
X0027535Y0240300D01*
X0025665Y0240300D01*
X0023938Y0239584D01*
X0022616Y0238262D01*
X0021900Y0236535D01*
X0021900Y0234665D01*
X0022616Y0232938D01*
X0023938Y0231616D01*
X0025665Y0230900D01*
X0024925Y0229993D02*
X0017578Y0229993D01*
X0018699Y0228795D02*
X0023148Y0228795D01*
X0023163Y0232390D02*
X0009026Y0232390D01*
X0009028Y0233589D02*
X0022346Y0233589D01*
X0021900Y0234787D02*
X0009030Y0234787D01*
X0009032Y0235986D02*
X0021900Y0235986D01*
X0022169Y0237184D02*
X0009033Y0237184D01*
X0009035Y0238383D02*
X0022736Y0238383D01*
X0023935Y0239581D02*
X0009037Y0239581D01*
X0009039Y0240780D02*
X0034068Y0240780D01*
X0033616Y0240328D02*
X0032900Y0238600D01*
X0032900Y0236730D01*
X0033616Y0235003D01*
X0034938Y0233681D01*
X0036665Y0232965D01*
X0038535Y0232965D01*
X0040262Y0233681D01*
X0041584Y0235003D01*
X0042300Y0236730D01*
X0042300Y0238600D01*
X0041584Y0240328D01*
X0040262Y0241650D01*
X0038535Y0242365D01*
X0036665Y0242365D01*
X0034938Y0241650D01*
X0033616Y0240328D01*
X0033306Y0239581D02*
X0029265Y0239581D01*
X0030464Y0238383D02*
X0032900Y0238383D01*
X0032900Y0237184D02*
X0031031Y0237184D01*
X0031300Y0235986D02*
X0033208Y0235986D01*
X0033831Y0234787D02*
X0031300Y0234787D01*
X0030854Y0233589D02*
X0035160Y0233589D01*
X0040040Y0233589D02*
X0045160Y0233589D01*
X0044938Y0233681D02*
X0046665Y0232965D01*
X0048535Y0232965D01*
X0050262Y0233681D01*
X0051584Y0235003D01*
X0052300Y0236730D01*
X0052300Y0238600D01*
X0051584Y0240328D01*
X0050262Y0241650D01*
X0048535Y0242365D01*
X0046665Y0242365D01*
X0044938Y0241650D01*
X0043616Y0240328D01*
X0042900Y0238600D01*
X0042900Y0236730D01*
X0043616Y0235003D01*
X0044938Y0233681D01*
X0043831Y0234787D02*
X0041369Y0234787D01*
X0041992Y0235986D02*
X0043208Y0235986D01*
X0042900Y0237184D02*
X0042300Y0237184D01*
X0042300Y0238383D02*
X0042900Y0238383D01*
X0043306Y0239581D02*
X0041894Y0239581D01*
X0041132Y0240780D02*
X0044068Y0240780D01*
X0045731Y0241978D02*
X0039469Y0241978D01*
X0035731Y0241978D02*
X0009041Y0241978D01*
X0009043Y0243177D02*
X0258795Y0243177D01*
X0258793Y0244375D02*
X0009045Y0244375D01*
X0009047Y0245574D02*
X0258791Y0245574D01*
X0258789Y0246772D02*
X0009048Y0246772D01*
X0009050Y0247971D02*
X0258787Y0247971D01*
X0258785Y0249170D02*
X0009052Y0249170D01*
X0009054Y0250368D02*
X0258784Y0250368D01*
X0258782Y0251567D02*
X0009056Y0251567D01*
X0009058Y0252765D02*
X0258780Y0252765D01*
X0258778Y0253964D02*
X0009060Y0253964D01*
X0009062Y0255162D02*
X0258776Y0255162D01*
X0258774Y0256361D02*
X0009063Y0256361D01*
X0009065Y0257559D02*
X0258772Y0257559D01*
X0258770Y0258758D02*
X0009067Y0258758D01*
X0009069Y0259956D02*
X0258769Y0259956D01*
X0258767Y0261155D02*
X0009071Y0261155D01*
X0009073Y0262353D02*
X0258765Y0262353D01*
X0258763Y0263552D02*
X0009075Y0263552D01*
X0009077Y0264750D02*
X0258761Y0264750D01*
X0258759Y0265949D02*
X0009078Y0265949D01*
X0009080Y0267147D02*
X0258757Y0267147D01*
X0258755Y0268346D02*
X0009082Y0268346D01*
X0009084Y0269544D02*
X0258754Y0269544D01*
X0258752Y0270743D02*
X0009086Y0270743D01*
X0009088Y0271941D02*
X0258750Y0271941D01*
X0258748Y0273140D02*
X0009090Y0273140D01*
X0009092Y0274338D02*
X0258746Y0274338D01*
X0258744Y0275537D02*
X0009093Y0275537D01*
X0009095Y0276735D02*
X0258742Y0276735D01*
X0258740Y0277934D02*
X0009097Y0277934D01*
X0009099Y0279132D02*
X0258739Y0279132D01*
X0258737Y0280331D02*
X0009101Y0280331D01*
X0009103Y0281529D02*
X0258735Y0281529D01*
X0258733Y0282728D02*
X0009105Y0282728D01*
X0009107Y0283926D02*
X0258731Y0283926D01*
X0258729Y0285125D02*
X0009108Y0285125D01*
X0009110Y0286323D02*
X0258727Y0286323D01*
X0258725Y0287522D02*
X0009112Y0287522D01*
X0009114Y0288720D02*
X0258723Y0288720D01*
X0258722Y0289919D02*
X0009116Y0289919D01*
X0009118Y0291117D02*
X0258720Y0291117D01*
X0258718Y0292316D02*
X0009120Y0292316D01*
X0009122Y0293514D02*
X0258716Y0293514D01*
X0258714Y0294713D02*
X0009123Y0294713D01*
X0009125Y0295911D02*
X0126746Y0295911D01*
X0126457Y0296031D02*
X0127772Y0295487D01*
X0129195Y0295487D01*
X0130510Y0296031D01*
X0131517Y0297038D01*
X0132061Y0298353D01*
X0132061Y0299776D01*
X0131517Y0301091D01*
X0130510Y0302098D01*
X0129195Y0302643D01*
X0127772Y0302643D01*
X0126457Y0302098D01*
X0125450Y0301091D01*
X0124905Y0299776D01*
X0124905Y0298353D01*
X0125450Y0297038D01*
X0126457Y0296031D01*
X0125420Y0297110D02*
X0009127Y0297110D01*
X0009129Y0298308D02*
X0124924Y0298308D01*
X0124905Y0299507D02*
X0009131Y0299507D01*
X0009133Y0300705D02*
X0125290Y0300705D01*
X0126263Y0301904D02*
X0009135Y0301904D01*
X0009137Y0303103D02*
X0258701Y0303103D01*
X0258699Y0304301D02*
X0009138Y0304301D01*
X0009140Y0305500D02*
X0258697Y0305500D01*
X0258695Y0306698D02*
X0009142Y0306698D01*
X0009144Y0307897D02*
X0258693Y0307897D01*
X0258692Y0309095D02*
X0009146Y0309095D01*
X0009148Y0310294D02*
X0132995Y0310294D01*
X0133807Y0310076D02*
X0137520Y0310076D01*
X0141106Y0311037D01*
X0144321Y0312893D01*
X0146946Y0315518D01*
X0148803Y0318733D01*
X0149763Y0322320D01*
X0149763Y0326032D01*
X0148803Y0329618D01*
X0146946Y0332833D01*
X0144321Y0335459D01*
X0141106Y0337315D01*
X0137520Y0338276D01*
X0133807Y0338276D01*
X0130221Y0337315D01*
X0127006Y0335459D01*
X0124381Y0332833D01*
X0122524Y0329618D01*
X0121563Y0326032D01*
X0121563Y0322320D01*
X0122524Y0318733D01*
X0124381Y0315518D01*
X0127006Y0312893D01*
X0130221Y0311037D01*
X0133807Y0310076D01*
X0138332Y0310294D02*
X0258690Y0310294D01*
X0258688Y0311492D02*
X0141894Y0311492D01*
X0143970Y0312691D02*
X0258686Y0312691D01*
X0258684Y0313889D02*
X0145317Y0313889D01*
X0146516Y0315088D02*
X0258682Y0315088D01*
X0258680Y0316286D02*
X0147390Y0316286D01*
X0148082Y0317485D02*
X0258678Y0317485D01*
X0258677Y0318683D02*
X0148773Y0318683D01*
X0149110Y0319882D02*
X0258675Y0319882D01*
X0258673Y0321080D02*
X0149431Y0321080D01*
X0149752Y0322279D02*
X0258671Y0322279D01*
X0258669Y0323477D02*
X0149763Y0323477D01*
X0149763Y0324676D02*
X0258667Y0324676D01*
X0258665Y0325874D02*
X0149763Y0325874D01*
X0149485Y0327073D02*
X0258663Y0327073D01*
X0258662Y0328271D02*
X0149163Y0328271D01*
X0148842Y0329470D02*
X0258660Y0329470D01*
X0258658Y0330668D02*
X0148196Y0330668D01*
X0147504Y0331867D02*
X0258656Y0331867D01*
X0258654Y0333065D02*
X0146714Y0333065D01*
X0145516Y0334264D02*
X0258652Y0334264D01*
X0258650Y0335462D02*
X0144315Y0335462D01*
X0142239Y0336661D02*
X0258648Y0336661D01*
X0258647Y0337859D02*
X0139074Y0337859D01*
X0132253Y0337859D02*
X0009191Y0337859D01*
X0009189Y0336661D02*
X0129088Y0336661D01*
X0127012Y0335462D02*
X0009187Y0335462D01*
X0009185Y0334264D02*
X0125811Y0334264D01*
X0124612Y0333065D02*
X0009183Y0333065D01*
X0009182Y0331867D02*
X0123823Y0331867D01*
X0123131Y0330668D02*
X0009180Y0330668D01*
X0009178Y0329470D02*
X0122485Y0329470D01*
X0122163Y0328271D02*
X0009176Y0328271D01*
X0009174Y0327073D02*
X0121842Y0327073D01*
X0121563Y0325874D02*
X0009172Y0325874D01*
X0009170Y0324676D02*
X0121563Y0324676D01*
X0121563Y0323477D02*
X0009168Y0323477D01*
X0009167Y0322279D02*
X0121574Y0322279D01*
X0121896Y0321080D02*
X0009165Y0321080D01*
X0009163Y0319882D02*
X0122217Y0319882D01*
X0122553Y0318683D02*
X0009161Y0318683D01*
X0009159Y0317485D02*
X0123245Y0317485D01*
X0123937Y0316286D02*
X0009157Y0316286D01*
X0009155Y0315088D02*
X0124811Y0315088D01*
X0126010Y0313889D02*
X0009153Y0313889D01*
X0009152Y0312691D02*
X0127357Y0312691D01*
X0129432Y0311492D02*
X0009150Y0311492D01*
X0049469Y0241978D02*
X0217742Y0241978D01*
X0216938Y0241645D02*
X0215616Y0240323D01*
X0214900Y0238596D01*
X0214900Y0236726D01*
X0215616Y0234999D01*
X0216938Y0233676D01*
X0218665Y0232961D01*
X0220535Y0232961D01*
X0222262Y0233676D01*
X0223584Y0234999D01*
X0224300Y0236726D01*
X0224300Y0238596D01*
X0223584Y0240323D01*
X0222262Y0241645D01*
X0220535Y0242361D01*
X0218665Y0242361D01*
X0216938Y0241645D01*
X0216072Y0240780D02*
X0051132Y0240780D01*
X0051894Y0239581D02*
X0215308Y0239581D01*
X0214900Y0238383D02*
X0052300Y0238383D01*
X0052300Y0237184D02*
X0214900Y0237184D01*
X0215207Y0235986D02*
X0051992Y0235986D01*
X0051369Y0234787D02*
X0215827Y0234787D01*
X0217149Y0233589D02*
X0050040Y0233589D01*
X0030037Y0232390D02*
X0258812Y0232390D01*
X0258814Y0231192D02*
X0255046Y0231192D01*
X0253530Y0231192D02*
X0252762Y0231192D01*
X0252762Y0229993D02*
X0253530Y0229993D01*
X0253530Y0228795D02*
X0252762Y0228795D01*
X0252762Y0227596D02*
X0253530Y0227596D01*
X0253530Y0226398D02*
X0258821Y0226398D01*
X0258819Y0227596D02*
X0257959Y0227596D01*
X0257558Y0228795D02*
X0258817Y0228795D01*
X0258815Y0229993D02*
X0256743Y0229993D01*
X0258810Y0233589D02*
X0243721Y0233589D01*
X0243308Y0233176D02*
X0244630Y0234499D01*
X0245346Y0236226D01*
X0245346Y0238096D01*
X0244630Y0239823D01*
X0243308Y0241145D01*
X0241581Y0241861D01*
X0239711Y0241861D01*
X0237984Y0241145D01*
X0236661Y0239823D01*
X0235946Y0238096D01*
X0235946Y0236226D01*
X0236661Y0234499D01*
X0237984Y0233176D01*
X0239711Y0232461D01*
X0241581Y0232461D01*
X0243308Y0233176D01*
X0243196Y0231192D02*
X0251245Y0231192D01*
X0249549Y0229993D02*
X0244460Y0229993D01*
X0245056Y0228795D02*
X0248734Y0228795D01*
X0248333Y0227596D02*
X0245346Y0227596D01*
X0238887Y0222802D02*
X0030449Y0222802D01*
X0031025Y0224001D02*
X0237159Y0224001D01*
X0236371Y0225199D02*
X0031300Y0225199D01*
X0031300Y0226398D02*
X0235946Y0226398D01*
X0235946Y0227596D02*
X0030860Y0227596D01*
X0030052Y0228795D02*
X0236235Y0228795D01*
X0236831Y0229993D02*
X0028275Y0229993D01*
X0028239Y0231192D02*
X0238096Y0231192D01*
X0237571Y0233589D02*
X0232051Y0233589D01*
X0232262Y0233676D02*
X0233584Y0234999D01*
X0234300Y0236726D01*
X0234300Y0238596D01*
X0233584Y0240323D01*
X0232262Y0241645D01*
X0230535Y0242361D01*
X0228665Y0242361D01*
X0226938Y0241645D01*
X0225616Y0240323D01*
X0224900Y0238596D01*
X0224900Y0236726D01*
X0225616Y0234999D01*
X0226938Y0233676D01*
X0228665Y0232961D01*
X0230535Y0232961D01*
X0232262Y0233676D01*
X0233373Y0234787D02*
X0236542Y0234787D01*
X0236045Y0235986D02*
X0233993Y0235986D01*
X0234300Y0237184D02*
X0235946Y0237184D01*
X0236065Y0238383D02*
X0234300Y0238383D01*
X0233892Y0239581D02*
X0236561Y0239581D01*
X0237618Y0240780D02*
X0233128Y0240780D01*
X0231458Y0241978D02*
X0258797Y0241978D01*
X0258799Y0240780D02*
X0243674Y0240780D01*
X0244730Y0239581D02*
X0258800Y0239581D01*
X0258802Y0238383D02*
X0245227Y0238383D01*
X0245346Y0237184D02*
X0258804Y0237184D01*
X0258806Y0235986D02*
X0245246Y0235986D01*
X0244750Y0234787D02*
X0258808Y0234787D01*
X0258823Y0225199D02*
X0257823Y0225199D01*
X0257270Y0224001D02*
X0258825Y0224001D01*
X0258827Y0222802D02*
X0256171Y0222802D01*
X0256329Y0220405D02*
X0258830Y0220405D01*
X0258832Y0219207D02*
X0257348Y0219207D01*
X0257860Y0218008D02*
X0258834Y0218008D01*
X0258829Y0221604D02*
X0029234Y0221604D01*
X0029262Y0219584D02*
X0027535Y0220300D01*
X0025665Y0220300D01*
X0023938Y0219584D01*
X0022616Y0218262D01*
X0021900Y0216535D01*
X0021900Y0214665D01*
X0022616Y0212938D01*
X0023938Y0211616D01*
X0025665Y0210900D01*
X0027535Y0210900D01*
X0029262Y0211616D01*
X0030584Y0212938D01*
X0031300Y0214665D01*
X0031300Y0216535D01*
X0030584Y0218262D01*
X0029262Y0219584D01*
X0029640Y0219207D02*
X0237545Y0219207D01*
X0236531Y0218008D02*
X0030690Y0218008D01*
X0031186Y0216810D02*
X0236034Y0216810D01*
X0235946Y0215611D02*
X0031300Y0215611D01*
X0031195Y0214413D02*
X0236076Y0214413D01*
X0236572Y0213214D02*
X0030699Y0213214D01*
X0029662Y0212016D02*
X0237644Y0212016D01*
X0237957Y0209619D02*
X0029180Y0209619D01*
X0029262Y0209584D02*
X0027535Y0210300D01*
X0025665Y0210300D01*
X0023938Y0209584D01*
X0022616Y0208262D01*
X0021900Y0206535D01*
X0021900Y0204665D01*
X0022616Y0202938D01*
X0023938Y0201616D01*
X0025665Y0200900D01*
X0027535Y0200900D01*
X0029262Y0201616D01*
X0030584Y0202938D01*
X0031300Y0204665D01*
X0031300Y0206535D01*
X0030584Y0208262D01*
X0029262Y0209584D01*
X0030427Y0208420D02*
X0236758Y0208420D01*
X0236205Y0207222D02*
X0232579Y0207222D01*
X0233665Y0206023D02*
X0235946Y0206023D01*
X0235946Y0204825D02*
X0234161Y0204825D01*
X0234300Y0203626D02*
X0236401Y0203626D01*
X0237232Y0202428D02*
X0234221Y0202428D01*
X0226477Y0200031D02*
X0222723Y0200031D01*
X0222262Y0199570D02*
X0223584Y0200892D01*
X0224300Y0202619D01*
X0224300Y0204489D01*
X0223584Y0206216D01*
X0222262Y0207539D01*
X0220535Y0208254D01*
X0218665Y0208254D01*
X0216938Y0207539D01*
X0215616Y0206216D01*
X0214900Y0204489D01*
X0214900Y0202619D01*
X0215616Y0200892D01*
X0216938Y0199570D01*
X0218665Y0198854D01*
X0220535Y0198854D01*
X0222262Y0199570D01*
X0223724Y0201229D02*
X0225476Y0201229D01*
X0224979Y0202428D02*
X0224221Y0202428D01*
X0224300Y0203626D02*
X0224900Y0203626D01*
X0225039Y0204825D02*
X0224161Y0204825D01*
X0223665Y0206023D02*
X0225535Y0206023D01*
X0226621Y0207222D02*
X0222579Y0207222D01*
X0216621Y0207222D02*
X0050297Y0207222D01*
X0051495Y0206023D02*
X0215535Y0206023D01*
X0215039Y0204825D02*
X0134000Y0204825D01*
X0134000Y0205180D02*
X0133180Y0206000D01*
X0128020Y0206000D01*
X0127200Y0205180D01*
X0127200Y0200020D01*
X0128020Y0199200D01*
X0133180Y0199200D01*
X0134000Y0200020D01*
X0134000Y0205180D01*
X0134000Y0203626D02*
X0214900Y0203626D01*
X0214979Y0202428D02*
X0134000Y0202428D01*
X0134000Y0201229D02*
X0215476Y0201229D01*
X0216477Y0200031D02*
X0134000Y0200031D01*
X0127200Y0200031D02*
X0051006Y0200031D01*
X0051841Y0201229D02*
X0127200Y0201229D01*
X0127200Y0202428D02*
X0052300Y0202428D01*
X0052300Y0203626D02*
X0127200Y0203626D01*
X0127200Y0204825D02*
X0052044Y0204825D01*
X0044903Y0207222D02*
X0040297Y0207222D01*
X0041495Y0206023D02*
X0043705Y0206023D01*
X0043156Y0204825D02*
X0042044Y0204825D01*
X0042300Y0203626D02*
X0042900Y0203626D01*
X0042900Y0202428D02*
X0042300Y0202428D01*
X0041841Y0201229D02*
X0043359Y0201229D01*
X0044194Y0200031D02*
X0041006Y0200031D01*
X0038535Y0195128D02*
X0036665Y0195128D01*
X0034938Y0194413D01*
X0033616Y0193091D01*
X0032900Y0191363D01*
X0032900Y0189494D01*
X0033616Y0187766D01*
X0034938Y0186444D01*
X0036665Y0185728D01*
X0038535Y0185728D01*
X0040262Y0186444D01*
X0041584Y0187766D01*
X0042300Y0189494D01*
X0042300Y0191363D01*
X0041584Y0193091D01*
X0040262Y0194413D01*
X0038535Y0195128D01*
X0040637Y0194038D02*
X0044563Y0194038D01*
X0044938Y0194413D02*
X0043616Y0193091D01*
X0042900Y0191363D01*
X0042900Y0189494D01*
X0043616Y0187766D01*
X0044938Y0186444D01*
X0046665Y0185728D01*
X0048535Y0185728D01*
X0050262Y0186444D01*
X0051584Y0187766D01*
X0052300Y0189494D01*
X0052300Y0191363D01*
X0051584Y0193091D01*
X0050262Y0194413D01*
X0048535Y0195128D01*
X0046665Y0195128D01*
X0044938Y0194413D01*
X0043511Y0192839D02*
X0041689Y0192839D01*
X0042185Y0191641D02*
X0043015Y0191641D01*
X0042900Y0190442D02*
X0042300Y0190442D01*
X0042197Y0189244D02*
X0043003Y0189244D01*
X0043500Y0188045D02*
X0041700Y0188045D01*
X0040665Y0186847D02*
X0044535Y0186847D01*
X0050665Y0186847D02*
X0216252Y0186847D01*
X0215616Y0187484D02*
X0216938Y0186161D01*
X0218665Y0185446D01*
X0220535Y0185446D01*
X0222262Y0186161D01*
X0223584Y0187484D01*
X0224300Y0189211D01*
X0224300Y0191081D01*
X0223584Y0192808D01*
X0222262Y0194130D01*
X0220535Y0194846D01*
X0218665Y0194846D01*
X0216938Y0194130D01*
X0215616Y0192808D01*
X0214900Y0191081D01*
X0214900Y0189211D01*
X0215616Y0187484D01*
X0215383Y0188045D02*
X0051700Y0188045D01*
X0052197Y0189244D02*
X0214900Y0189244D01*
X0214900Y0190442D02*
X0052300Y0190442D01*
X0052185Y0191641D02*
X0215132Y0191641D01*
X0215647Y0192839D02*
X0051689Y0192839D01*
X0050637Y0194038D02*
X0216845Y0194038D01*
X0222355Y0194038D02*
X0226845Y0194038D01*
X0226938Y0194130D02*
X0225616Y0192808D01*
X0224900Y0191081D01*
X0224900Y0189211D01*
X0225616Y0187484D01*
X0226938Y0186161D01*
X0228665Y0185446D01*
X0230535Y0185446D01*
X0232262Y0186161D01*
X0233584Y0187484D01*
X0234300Y0189211D01*
X0234300Y0191081D01*
X0233584Y0192808D01*
X0232262Y0194130D01*
X0230535Y0194846D01*
X0228665Y0194846D01*
X0226938Y0194130D01*
X0225647Y0192839D02*
X0223553Y0192839D01*
X0224068Y0191641D02*
X0225132Y0191641D01*
X0224900Y0190442D02*
X0224300Y0190442D01*
X0224300Y0189244D02*
X0224900Y0189244D01*
X0225383Y0188045D02*
X0223817Y0188045D01*
X0222948Y0186847D02*
X0226252Y0186847D01*
X0228176Y0185648D02*
X0221024Y0185648D01*
X0218176Y0185648D02*
X0030672Y0185648D01*
X0031168Y0186847D02*
X0034535Y0186847D01*
X0033500Y0188045D02*
X0031300Y0188045D01*
X0031213Y0189244D02*
X0033003Y0189244D01*
X0032900Y0190442D02*
X0030717Y0190442D01*
X0029706Y0191641D02*
X0033015Y0191641D01*
X0033511Y0192839D02*
X0008964Y0192839D01*
X0008962Y0191641D02*
X0023494Y0191641D01*
X0022483Y0190442D02*
X0008960Y0190442D01*
X0008958Y0189244D02*
X0021987Y0189244D01*
X0021900Y0188045D02*
X0008957Y0188045D01*
X0008955Y0186847D02*
X0022032Y0186847D01*
X0022528Y0185648D02*
X0008953Y0185648D01*
X0008951Y0184450D02*
X0023603Y0184450D01*
X0023906Y0182053D02*
X0017496Y0182053D01*
X0017792Y0181837D02*
X0017168Y0182291D01*
X0016481Y0182641D01*
X0015747Y0182879D01*
X0014986Y0183000D01*
X0014984Y0183000D01*
X0014984Y0178484D01*
X0019500Y0178484D01*
X0019500Y0178486D01*
X0019379Y0179247D01*
X0019141Y0179981D01*
X0018791Y0180668D01*
X0018338Y0181292D01*
X0017792Y0181837D01*
X0018656Y0180854D02*
X0022708Y0180854D01*
X0022157Y0179656D02*
X0019247Y0179656D01*
X0019500Y0177716D02*
X0014984Y0177716D01*
X0014984Y0173200D01*
X0014986Y0173200D01*
X0015747Y0173321D01*
X0016481Y0173559D01*
X0017168Y0173909D01*
X0017792Y0174362D01*
X0018338Y0174908D01*
X0018791Y0175532D01*
X0019141Y0176219D01*
X0019379Y0176953D01*
X0019500Y0177714D01*
X0019500Y0177716D01*
X0019428Y0177259D02*
X0021900Y0177259D01*
X0021900Y0178457D02*
X0014984Y0178457D01*
X0014984Y0178484D02*
X0014984Y0177716D01*
X0014216Y0177716D01*
X0014216Y0173200D01*
X0014214Y0173200D01*
X0013453Y0173321D01*
X0012719Y0173559D01*
X0012032Y0173909D01*
X0011408Y0174362D01*
X0010862Y0174908D01*
X0010409Y0175532D01*
X0010059Y0176219D01*
X0009821Y0176953D01*
X0009700Y0177714D01*
X0009700Y0177716D01*
X0014216Y0177716D01*
X0014216Y0178484D01*
X0009700Y0178484D01*
X0009700Y0178486D01*
X0009821Y0179247D01*
X0010059Y0179981D01*
X0010409Y0180668D01*
X0010862Y0181292D01*
X0011408Y0181837D01*
X0012032Y0182291D01*
X0012719Y0182641D01*
X0013453Y0182879D01*
X0014214Y0183000D01*
X0014216Y0183000D01*
X0014216Y0178484D01*
X0014984Y0178484D01*
X0014216Y0178457D02*
X0008942Y0178457D01*
X0008940Y0177259D02*
X0009772Y0177259D01*
X0010140Y0176060D02*
X0008938Y0176060D01*
X0008936Y0174862D02*
X0010909Y0174862D01*
X0012514Y0173663D02*
X0008934Y0173663D01*
X0008932Y0172465D02*
X0012373Y0172465D01*
X0012032Y0172291D02*
X0011408Y0171838D01*
X0010862Y0171292D01*
X0010409Y0170668D01*
X0010059Y0169981D01*
X0009821Y0169247D01*
X0009700Y0168486D01*
X0009700Y0168484D01*
X0014216Y0168484D01*
X0014216Y0167716D01*
X0014984Y0167716D01*
X0014984Y0163200D01*
X0014986Y0163200D01*
X0015747Y0163321D01*
X0016481Y0163559D01*
X0017168Y0163909D01*
X0017792Y0164362D01*
X0018338Y0164908D01*
X0018791Y0165532D01*
X0019141Y0166219D01*
X0019379Y0166953D01*
X0019500Y0167714D01*
X0019500Y0167716D01*
X0014984Y0167716D01*
X0014984Y0168484D01*
X0019500Y0168484D01*
X0019500Y0168486D01*
X0019379Y0169247D01*
X0019141Y0169981D01*
X0018791Y0170668D01*
X0018338Y0171292D01*
X0017792Y0171838D01*
X0017168Y0172291D01*
X0016481Y0172641D01*
X0015747Y0172879D01*
X0014986Y0173000D01*
X0014984Y0173000D01*
X0014984Y0168484D01*
X0014216Y0168484D01*
X0014216Y0173000D01*
X0014214Y0173000D01*
X0013453Y0172879D01*
X0012719Y0172641D01*
X0012032Y0172291D01*
X0010844Y0171266D02*
X0008930Y0171266D01*
X0008928Y0170068D02*
X0010103Y0170068D01*
X0009761Y0168869D02*
X0008927Y0168869D01*
X0008925Y0167671D02*
X0009707Y0167671D01*
X0009700Y0167714D02*
X0009821Y0166953D01*
X0010059Y0166219D01*
X0010409Y0165532D01*
X0010862Y0164908D01*
X0011408Y0164362D01*
X0012032Y0163909D01*
X0012719Y0163559D01*
X0013453Y0163321D01*
X0014214Y0163200D01*
X0014216Y0163200D01*
X0014216Y0167716D01*
X0009700Y0167716D01*
X0009700Y0167714D01*
X0009977Y0166472D02*
X0008923Y0166472D01*
X0008921Y0165274D02*
X0010597Y0165274D01*
X0011803Y0164075D02*
X0008919Y0164075D01*
X0008917Y0162877D02*
X0251095Y0162877D01*
X0253216Y0162877D02*
X0253984Y0162877D01*
X0253984Y0164075D02*
X0253216Y0164075D01*
X0253216Y0165274D02*
X0253984Y0165274D01*
X0253984Y0166472D02*
X0253216Y0166472D01*
X0253216Y0167671D02*
X0253984Y0167671D01*
X0253984Y0168869D02*
X0253216Y0168869D01*
X0253216Y0170068D02*
X0253984Y0170068D01*
X0253984Y0171266D02*
X0253216Y0171266D01*
X0253216Y0172465D02*
X0253984Y0172465D01*
X0253984Y0173663D02*
X0253216Y0173663D01*
X0253216Y0174862D02*
X0253984Y0174862D01*
X0253984Y0176060D02*
X0253216Y0176060D01*
X0253216Y0177259D02*
X0244738Y0177259D01*
X0245235Y0178457D02*
X0248889Y0178457D01*
X0248821Y0178247D02*
X0248700Y0177486D01*
X0248700Y0177484D01*
X0253216Y0177484D01*
X0253216Y0182000D01*
X0253214Y0182000D01*
X0252453Y0181879D01*
X0251719Y0181641D01*
X0251032Y0181291D01*
X0250408Y0180837D01*
X0249862Y0180292D01*
X0249409Y0179668D01*
X0249059Y0178981D01*
X0248821Y0178247D01*
X0249403Y0179656D02*
X0245346Y0179656D01*
X0245239Y0180854D02*
X0250431Y0180854D01*
X0253216Y0180854D02*
X0253984Y0180854D01*
X0253984Y0179656D02*
X0253216Y0179656D01*
X0253216Y0178457D02*
X0253984Y0178457D01*
X0253984Y0177259D02*
X0258898Y0177259D01*
X0258896Y0178457D02*
X0258311Y0178457D01*
X0257797Y0179656D02*
X0258894Y0179656D01*
X0258892Y0180854D02*
X0256769Y0180854D01*
X0258890Y0182053D02*
X0244742Y0182053D01*
X0243702Y0183251D02*
X0258889Y0183251D01*
X0258900Y0176060D02*
X0258396Y0176060D01*
X0257959Y0174862D02*
X0258902Y0174862D01*
X0258904Y0173663D02*
X0257093Y0173663D01*
X0258905Y0172465D02*
X0255191Y0172465D01*
X0256202Y0171266D02*
X0258907Y0171266D01*
X0258909Y0170068D02*
X0257501Y0170068D01*
X0258177Y0168869D02*
X0258911Y0168869D01*
X0258913Y0167671D02*
X0258471Y0167671D01*
X0258462Y0166472D02*
X0258915Y0166472D01*
X0258917Y0165274D02*
X0258159Y0165274D01*
X0257459Y0164075D02*
X0258919Y0164075D01*
X0258920Y0162877D02*
X0256104Y0162877D01*
X0258937Y0152090D02*
X0233283Y0152090D01*
X0231832Y0150892D02*
X0258939Y0150892D01*
X0258952Y0142502D02*
X0243952Y0142502D01*
X0244553Y0141303D02*
X0258954Y0141303D01*
X0258956Y0140105D02*
X0244846Y0140105D01*
X0244846Y0138906D02*
X0258958Y0138906D01*
X0258960Y0137708D02*
X0244424Y0137708D01*
X0243641Y0136509D02*
X0258962Y0136509D01*
X0258964Y0135311D02*
X0241926Y0135311D01*
X0241681Y0134112D02*
X0258965Y0134112D01*
X0258967Y0132914D02*
X0243540Y0132914D01*
X0244382Y0131715D02*
X0251948Y0131715D01*
X0251719Y0131641D02*
X0251032Y0131291D01*
X0250408Y0130837D01*
X0249862Y0130292D01*
X0249409Y0129668D01*
X0249059Y0128981D01*
X0248821Y0128247D01*
X0248700Y0127486D01*
X0248700Y0127484D01*
X0253216Y0127484D01*
X0253216Y0126716D01*
X0253984Y0126716D01*
X0253984Y0122200D01*
X0253986Y0122200D01*
X0254747Y0122321D01*
X0255481Y0122559D01*
X0256168Y0122909D01*
X0256792Y0123362D01*
X0257337Y0123908D01*
X0257791Y0124532D01*
X0258141Y0125219D01*
X0258379Y0125953D01*
X0258500Y0126714D01*
X0258500Y0126716D01*
X0253984Y0126716D01*
X0253984Y0127484D01*
X0258500Y0127484D01*
X0258500Y0127486D01*
X0258379Y0128247D01*
X0258141Y0128981D01*
X0257791Y0129668D01*
X0257337Y0130292D01*
X0256792Y0130837D01*
X0256168Y0131291D01*
X0255481Y0131641D01*
X0254747Y0131879D01*
X0253986Y0132000D01*
X0253984Y0132000D01*
X0253984Y0127484D01*
X0253216Y0127484D01*
X0253216Y0132000D01*
X0253214Y0132000D01*
X0252453Y0131879D01*
X0251719Y0131641D01*
X0253216Y0131715D02*
X0253984Y0131715D01*
X0253984Y0130517D02*
X0253216Y0130517D01*
X0253216Y0129318D02*
X0253984Y0129318D01*
X0253984Y0128120D02*
X0253216Y0128120D01*
X0253216Y0126921D02*
X0244053Y0126921D01*
X0244595Y0128120D02*
X0248800Y0128120D01*
X0249231Y0129318D02*
X0244846Y0129318D01*
X0244846Y0130517D02*
X0250087Y0130517D01*
X0248700Y0126716D02*
X0248700Y0126714D01*
X0248821Y0125953D01*
X0249059Y0125219D01*
X0249409Y0124532D01*
X0249862Y0123908D01*
X0250408Y0123362D01*
X0251032Y0122909D01*
X0251719Y0122559D01*
X0252453Y0122321D01*
X0253214Y0122200D01*
X0253216Y0122200D01*
X0253216Y0126716D01*
X0248700Y0126716D01*
X0248895Y0125723D02*
X0242855Y0125723D01*
X0241081Y0121861D02*
X0239211Y0121861D01*
X0237484Y0121145D01*
X0236161Y0119823D01*
X0235446Y0118096D01*
X0235446Y0116226D01*
X0236161Y0114499D01*
X0237484Y0113176D01*
X0239211Y0112461D01*
X0241081Y0112461D01*
X0242808Y0113176D01*
X0244130Y0114499D01*
X0244846Y0116226D01*
X0244846Y0118096D01*
X0244130Y0119823D01*
X0242808Y0121145D01*
X0241081Y0121861D01*
X0243025Y0120929D02*
X0250534Y0120929D01*
X0250408Y0120837D02*
X0249862Y0120292D01*
X0249409Y0119668D01*
X0249059Y0118981D01*
X0248821Y0118247D01*
X0248700Y0117486D01*
X0248700Y0117484D01*
X0253216Y0117484D01*
X0253216Y0116716D01*
X0253984Y0116716D01*
X0253984Y0112200D01*
X0253986Y0112200D01*
X0254747Y0112321D01*
X0255481Y0112559D01*
X0256168Y0112909D01*
X0256792Y0113362D01*
X0257337Y0113908D01*
X0257791Y0114532D01*
X0258141Y0115219D01*
X0258379Y0115953D01*
X0258500Y0116714D01*
X0258500Y0116716D01*
X0253984Y0116716D01*
X0253984Y0117484D01*
X0258500Y0117484D01*
X0258500Y0117486D01*
X0258379Y0118247D01*
X0258141Y0118981D01*
X0257791Y0119668D01*
X0257337Y0120292D01*
X0256792Y0120837D01*
X0256168Y0121291D01*
X0255481Y0121641D01*
X0254747Y0121879D01*
X0253986Y0122000D01*
X0253984Y0122000D01*
X0253984Y0117484D01*
X0253216Y0117484D01*
X0253216Y0122000D01*
X0253214Y0122000D01*
X0252453Y0121879D01*
X0251719Y0121641D01*
X0251032Y0121291D01*
X0250408Y0120837D01*
X0249454Y0119730D02*
X0244169Y0119730D01*
X0244665Y0118532D02*
X0248913Y0118532D01*
X0248700Y0116716D02*
X0248700Y0116714D01*
X0248821Y0115953D01*
X0249059Y0115219D01*
X0249409Y0114532D01*
X0249862Y0113908D01*
X0250408Y0113362D01*
X0251032Y0112909D01*
X0251719Y0112559D01*
X0252453Y0112321D01*
X0253214Y0112200D01*
X0253216Y0112200D01*
X0253216Y0116716D01*
X0248700Y0116716D01*
X0248792Y0116135D02*
X0244808Y0116135D01*
X0244846Y0117333D02*
X0253216Y0117333D01*
X0253984Y0117333D02*
X0258992Y0117333D01*
X0258994Y0116135D02*
X0258408Y0116135D01*
X0257997Y0114936D02*
X0258995Y0114936D01*
X0258997Y0113738D02*
X0257167Y0113738D01*
X0255420Y0112539D02*
X0258999Y0112539D01*
X0259001Y0111341D02*
X0242337Y0111341D01*
X0242808Y0111145D02*
X0241081Y0111861D01*
X0239211Y0111861D01*
X0237484Y0111145D01*
X0236161Y0109823D01*
X0235446Y0108096D01*
X0235446Y0106226D01*
X0236161Y0104499D01*
X0237484Y0103176D01*
X0239211Y0102461D01*
X0241081Y0102461D01*
X0242808Y0103176D01*
X0244130Y0104499D01*
X0244846Y0106226D01*
X0244846Y0108096D01*
X0244130Y0109823D01*
X0242808Y0111145D01*
X0243811Y0110142D02*
X0259003Y0110142D01*
X0259005Y0108944D02*
X0244495Y0108944D01*
X0244846Y0107745D02*
X0259007Y0107745D01*
X0259009Y0106547D02*
X0244846Y0106547D01*
X0244482Y0105348D02*
X0259010Y0105348D01*
X0259012Y0104150D02*
X0243781Y0104150D01*
X0242264Y0102951D02*
X0259014Y0102951D01*
X0259016Y0101753D02*
X0232945Y0101753D01*
X0233816Y0102951D02*
X0238027Y0102951D01*
X0236510Y0104150D02*
X0234300Y0104150D01*
X0234300Y0105348D02*
X0235809Y0105348D01*
X0235446Y0106547D02*
X0234069Y0106547D01*
X0233556Y0107745D02*
X0235446Y0107745D01*
X0235797Y0108944D02*
X0232357Y0108944D01*
X0236480Y0110142D02*
X0027916Y0110142D01*
X0028599Y0111341D02*
X0237955Y0111341D01*
X0239022Y0112539D02*
X0030186Y0112539D01*
X0030916Y0113738D02*
X0236922Y0113738D01*
X0235980Y0114936D02*
X0031300Y0114936D01*
X0031300Y0116135D02*
X0235484Y0116135D01*
X0235446Y0117333D02*
X0030969Y0117333D01*
X0030315Y0118532D02*
X0235626Y0118532D01*
X0236123Y0119730D02*
X0028910Y0119730D01*
X0027535Y0123400D02*
X0025665Y0123400D01*
X0023938Y0124116D01*
X0022616Y0125438D01*
X0021900Y0127165D01*
X0021900Y0129035D01*
X0022616Y0130762D01*
X0023938Y0132084D01*
X0025665Y0132800D01*
X0027535Y0132800D01*
X0029262Y0132084D01*
X0030584Y0130762D01*
X0031300Y0129035D01*
X0031300Y0127165D01*
X0030584Y0125438D01*
X0029262Y0124116D01*
X0027535Y0123400D01*
X0029671Y0124524D02*
X0249415Y0124524D01*
X0250458Y0123326D02*
X0017412Y0123326D01*
X0016484Y0123326D02*
X0015716Y0123326D01*
X0015716Y0124524D02*
X0016484Y0124524D01*
X0016484Y0125723D02*
X0015716Y0125723D01*
X0015716Y0126921D02*
X0016484Y0126921D01*
X0016484Y0128120D02*
X0015716Y0128120D01*
X0015716Y0129318D02*
X0016484Y0129318D01*
X0016484Y0130517D02*
X0015716Y0130517D01*
X0015716Y0131715D02*
X0016484Y0131715D01*
X0016484Y0132914D02*
X0015716Y0132914D01*
X0018427Y0132914D02*
X0236752Y0132914D01*
X0235910Y0131715D02*
X0029631Y0131715D01*
X0030686Y0130517D02*
X0235446Y0130517D01*
X0235446Y0129318D02*
X0031183Y0129318D01*
X0031300Y0128120D02*
X0235697Y0128120D01*
X0236239Y0126921D02*
X0031199Y0126921D01*
X0030703Y0125723D02*
X0237437Y0125723D01*
X0237267Y0120929D02*
X0020413Y0120929D01*
X0019502Y0122127D02*
X0258984Y0122127D01*
X0258986Y0120929D02*
X0256666Y0120929D01*
X0257746Y0119730D02*
X0258988Y0119730D01*
X0258990Y0118532D02*
X0258287Y0118532D01*
X0253984Y0118532D02*
X0253216Y0118532D01*
X0253216Y0119730D02*
X0253984Y0119730D01*
X0253984Y0120929D02*
X0253216Y0120929D01*
X0253216Y0123326D02*
X0253984Y0123326D01*
X0253984Y0124524D02*
X0253216Y0124524D01*
X0253216Y0125723D02*
X0253984Y0125723D01*
X0253984Y0126921D02*
X0258977Y0126921D01*
X0258979Y0125723D02*
X0258305Y0125723D01*
X0257785Y0124524D02*
X0258980Y0124524D01*
X0258982Y0123326D02*
X0256742Y0123326D01*
X0258400Y0128120D02*
X0258975Y0128120D01*
X0258973Y0129318D02*
X0257969Y0129318D01*
X0257113Y0130517D02*
X0258971Y0130517D01*
X0258969Y0131715D02*
X0255252Y0131715D01*
X0253984Y0116135D02*
X0253216Y0116135D01*
X0253216Y0114936D02*
X0253984Y0114936D01*
X0253984Y0113738D02*
X0253216Y0113738D01*
X0253216Y0112539D02*
X0253984Y0112539D01*
X0251780Y0112539D02*
X0241270Y0112539D01*
X0243369Y0113738D02*
X0250033Y0113738D01*
X0249203Y0114936D02*
X0244312Y0114936D01*
X0226843Y0108944D02*
X0222357Y0108944D01*
X0223556Y0107745D02*
X0225644Y0107745D01*
X0225131Y0106547D02*
X0224069Y0106547D01*
X0224300Y0105348D02*
X0224900Y0105348D01*
X0224900Y0104150D02*
X0224300Y0104150D01*
X0223816Y0102951D02*
X0225384Y0102951D01*
X0226255Y0101753D02*
X0222945Y0101753D01*
X0216255Y0101753D02*
X0050728Y0101753D01*
X0050262Y0101287D02*
X0051584Y0102609D01*
X0052300Y0104337D01*
X0052300Y0106206D01*
X0051584Y0107934D01*
X0050262Y0109256D01*
X0048535Y0109972D01*
X0046665Y0109972D01*
X0044938Y0109256D01*
X0043616Y0107934D01*
X0042900Y0106206D01*
X0042900Y0104337D01*
X0043616Y0102609D01*
X0044938Y0101287D01*
X0046665Y0100572D01*
X0048535Y0100572D01*
X0050262Y0101287D01*
X0051726Y0102951D02*
X0215384Y0102951D01*
X0214900Y0104150D02*
X0052223Y0104150D01*
X0052300Y0105348D02*
X0214900Y0105348D01*
X0215131Y0106547D02*
X0052159Y0106547D01*
X0051663Y0107745D02*
X0215644Y0107745D01*
X0216843Y0108944D02*
X0050575Y0108944D01*
X0044625Y0108944D02*
X0040575Y0108944D01*
X0040262Y0109256D02*
X0041584Y0107934D01*
X0042300Y0106206D01*
X0042300Y0104337D01*
X0041584Y0102609D01*
X0040262Y0101287D01*
X0038535Y0100572D01*
X0036665Y0100572D01*
X0034938Y0101287D01*
X0033616Y0102609D01*
X0032900Y0104337D01*
X0032900Y0106206D01*
X0033616Y0107934D01*
X0034938Y0109256D01*
X0036665Y0109972D01*
X0038535Y0109972D01*
X0040262Y0109256D01*
X0041663Y0107745D02*
X0043537Y0107745D01*
X0043041Y0106547D02*
X0042159Y0106547D01*
X0042300Y0105348D02*
X0042900Y0105348D01*
X0042977Y0104150D02*
X0042223Y0104150D01*
X0041726Y0102951D02*
X0043474Y0102951D01*
X0044472Y0101753D02*
X0040728Y0101753D01*
X0034472Y0101753D02*
X0029399Y0101753D01*
X0030590Y0102951D02*
X0033474Y0102951D01*
X0032977Y0104150D02*
X0031086Y0104150D01*
X0031300Y0105348D02*
X0032900Y0105348D01*
X0033041Y0106547D02*
X0031295Y0106547D01*
X0030799Y0107745D02*
X0033537Y0107745D01*
X0034625Y0108944D02*
X0029903Y0108944D01*
X0016484Y0114936D02*
X0015716Y0114936D01*
X0015716Y0116135D02*
X0016484Y0116135D01*
X0016484Y0117333D02*
X0015716Y0117333D01*
X0015716Y0119730D02*
X0016484Y0119730D01*
X0016484Y0120929D02*
X0015716Y0120929D01*
X0015716Y0122127D02*
X0016484Y0122127D01*
X0018827Y0124524D02*
X0023529Y0124524D01*
X0022497Y0125723D02*
X0020066Y0125723D01*
X0020707Y0126921D02*
X0022001Y0126921D01*
X0021900Y0128120D02*
X0020985Y0128120D01*
X0020947Y0129318D02*
X0022017Y0129318D01*
X0022514Y0130517D02*
X0020623Y0130517D01*
X0019893Y0131715D02*
X0023569Y0131715D01*
X0039941Y0135311D02*
X0045259Y0135311D01*
X0043872Y0136509D02*
X0041328Y0136509D01*
X0041975Y0137708D02*
X0043225Y0137708D01*
X0042900Y0138906D02*
X0042300Y0138906D01*
X0042300Y0140105D02*
X0042900Y0140105D01*
X0043289Y0141303D02*
X0041911Y0141303D01*
X0041173Y0142502D02*
X0044027Y0142502D01*
X0045632Y0143701D02*
X0039568Y0143701D01*
X0049941Y0135311D02*
X0217784Y0135311D01*
X0216090Y0136509D02*
X0051328Y0136509D01*
X0051975Y0137708D02*
X0215315Y0137708D01*
X0214900Y0138906D02*
X0052300Y0138906D01*
X0029669Y0161678D02*
X0238063Y0161678D01*
X0237585Y0164075D02*
X0029165Y0164075D01*
X0030421Y0165274D02*
X0236547Y0165274D01*
X0236051Y0166472D02*
X0031013Y0166472D01*
X0031300Y0167671D02*
X0235946Y0167671D01*
X0236059Y0168869D02*
X0031300Y0168869D01*
X0030872Y0170068D02*
X0236556Y0170068D01*
X0237604Y0171266D02*
X0030081Y0171266D01*
X0024856Y0172465D02*
X0016827Y0172465D01*
X0016686Y0173663D02*
X0025029Y0173663D01*
X0023191Y0174862D02*
X0018291Y0174862D01*
X0019060Y0176060D02*
X0022358Y0176060D01*
X0023119Y0171266D02*
X0018356Y0171266D01*
X0019097Y0170068D02*
X0022328Y0170068D01*
X0021900Y0168869D02*
X0019439Y0168869D01*
X0019493Y0167671D02*
X0021900Y0167671D01*
X0022187Y0166472D02*
X0019223Y0166472D01*
X0018603Y0165274D02*
X0022779Y0165274D01*
X0024035Y0164075D02*
X0017397Y0164075D01*
X0014984Y0164075D02*
X0014216Y0164075D01*
X0014216Y0165274D02*
X0014984Y0165274D01*
X0014984Y0166472D02*
X0014216Y0166472D01*
X0014216Y0167671D02*
X0014984Y0167671D01*
X0014984Y0168869D02*
X0014216Y0168869D01*
X0014216Y0170068D02*
X0014984Y0170068D01*
X0014984Y0171266D02*
X0014216Y0171266D01*
X0014216Y0172465D02*
X0014984Y0172465D01*
X0014984Y0173663D02*
X0014216Y0173663D01*
X0014216Y0174862D02*
X0014984Y0174862D01*
X0014984Y0176060D02*
X0014216Y0176060D01*
X0014216Y0177259D02*
X0014984Y0177259D01*
X0014984Y0179656D02*
X0014216Y0179656D01*
X0014216Y0180854D02*
X0014984Y0180854D01*
X0014984Y0182053D02*
X0014216Y0182053D01*
X0011704Y0182053D02*
X0008947Y0182053D01*
X0008949Y0183251D02*
X0237590Y0183251D01*
X0238051Y0185648D02*
X0231024Y0185648D01*
X0232948Y0186847D02*
X0236813Y0186847D01*
X0236228Y0188045D02*
X0233817Y0188045D01*
X0234300Y0189244D02*
X0235946Y0189244D01*
X0235946Y0190442D02*
X0234300Y0190442D01*
X0234068Y0191641D02*
X0236379Y0191641D01*
X0237178Y0192839D02*
X0233553Y0192839D01*
X0232355Y0194038D02*
X0238931Y0194038D01*
X0243692Y0176060D02*
X0248804Y0176060D01*
X0227523Y0159281D02*
X0221677Y0159281D01*
X0223218Y0158083D02*
X0225982Y0158083D01*
X0225271Y0156884D02*
X0223929Y0156884D01*
X0224300Y0155686D02*
X0224900Y0155686D01*
X0224900Y0154487D02*
X0224300Y0154487D01*
X0223956Y0153289D02*
X0225244Y0153289D01*
X0225917Y0152090D02*
X0223283Y0152090D01*
X0221832Y0150892D02*
X0227368Y0150892D01*
X0227107Y0143701D02*
X0222093Y0143701D01*
X0223391Y0142502D02*
X0225809Y0142502D01*
X0225199Y0141303D02*
X0224001Y0141303D01*
X0224300Y0140105D02*
X0224900Y0140105D01*
X0224900Y0138906D02*
X0224300Y0138906D01*
X0223885Y0137708D02*
X0225315Y0137708D01*
X0226090Y0136509D02*
X0223110Y0136509D01*
X0221416Y0135311D02*
X0227784Y0135311D01*
X0227748Y0090966D02*
X0221452Y0090966D01*
X0222262Y0090630D02*
X0220535Y0091346D01*
X0218665Y0091346D01*
X0216938Y0090630D01*
X0215616Y0089308D01*
X0214900Y0087581D01*
X0214900Y0085711D01*
X0215616Y0083984D01*
X0216938Y0082661D01*
X0218665Y0081946D01*
X0220535Y0081946D01*
X0222262Y0082661D01*
X0223584Y0083984D01*
X0224300Y0085711D01*
X0224300Y0087581D01*
X0223584Y0089308D01*
X0222262Y0090630D01*
X0223125Y0089768D02*
X0226075Y0089768D01*
X0225309Y0088569D02*
X0223891Y0088569D01*
X0224300Y0087370D02*
X0224900Y0087370D01*
X0224900Y0086172D02*
X0224300Y0086172D01*
X0223995Y0084973D02*
X0225205Y0084973D01*
X0225824Y0083775D02*
X0223376Y0083775D01*
X0222057Y0082576D02*
X0227143Y0082576D01*
X0217143Y0082576D02*
X0030223Y0082576D01*
X0030931Y0083775D02*
X0034607Y0083775D01*
X0033530Y0084973D02*
X0031300Y0084973D01*
X0031300Y0086172D02*
X0033033Y0086172D01*
X0032900Y0087370D02*
X0030954Y0087370D01*
X0030278Y0088569D02*
X0032985Y0088569D01*
X0040709Y0090966D02*
X0044491Y0090966D01*
X0044938Y0091413D02*
X0043616Y0090091D01*
X0042900Y0088363D01*
X0042900Y0086494D01*
X0043616Y0084766D01*
X0044938Y0083444D01*
X0046665Y0082728D01*
X0048535Y0082728D01*
X0050262Y0083444D01*
X0051584Y0084766D01*
X0052300Y0086494D01*
X0052300Y0088363D01*
X0051584Y0090091D01*
X0050262Y0091413D01*
X0048535Y0092128D01*
X0046665Y0092128D01*
X0044938Y0091413D01*
X0043482Y0089768D02*
X0041718Y0089768D01*
X0042215Y0088569D02*
X0042985Y0088569D01*
X0042900Y0087370D02*
X0042300Y0087370D01*
X0042167Y0086172D02*
X0043033Y0086172D01*
X0043530Y0084973D02*
X0041670Y0084973D01*
X0040593Y0083775D02*
X0044607Y0083775D01*
X0050593Y0083775D02*
X0215824Y0083775D01*
X0215205Y0084973D02*
X0051670Y0084973D01*
X0052167Y0086172D02*
X0214900Y0086172D01*
X0214900Y0087370D02*
X0052300Y0087370D01*
X0052215Y0088569D02*
X0215309Y0088569D01*
X0216075Y0089768D02*
X0051718Y0089768D01*
X0050709Y0090966D02*
X0217748Y0090966D01*
X0243698Y0056209D02*
X0259087Y0056209D01*
X0259089Y0055011D02*
X0244714Y0055011D01*
X0245210Y0053812D02*
X0259091Y0053812D01*
X0259093Y0052614D02*
X0245300Y0052614D01*
X0245171Y0051415D02*
X0259095Y0051415D01*
X0259097Y0050217D02*
X0244675Y0050217D01*
X0243604Y0049018D02*
X0259099Y0049018D01*
X0259101Y0047820D02*
X0233012Y0047820D01*
X0233084Y0047892D02*
X0233800Y0049619D01*
X0233800Y0051489D01*
X0233084Y0053216D01*
X0231762Y0054539D01*
X0230035Y0055254D01*
X0228165Y0055254D01*
X0226438Y0054539D01*
X0225116Y0053216D01*
X0224400Y0051489D01*
X0224400Y0049619D01*
X0225116Y0047892D01*
X0226438Y0046570D01*
X0228165Y0045854D01*
X0230035Y0045854D01*
X0231762Y0046570D01*
X0233084Y0047892D01*
X0233551Y0049018D02*
X0237596Y0049018D01*
X0236525Y0050217D02*
X0233800Y0050217D01*
X0233800Y0051415D02*
X0236029Y0051415D01*
X0235900Y0052614D02*
X0233334Y0052614D01*
X0232489Y0053812D02*
X0235990Y0053812D01*
X0236486Y0055011D02*
X0230623Y0055011D01*
X0227577Y0055011D02*
X0220623Y0055011D01*
X0222489Y0053812D02*
X0225711Y0053812D01*
X0224866Y0052614D02*
X0223334Y0052614D01*
X0223800Y0051415D02*
X0224400Y0051415D01*
X0224400Y0050217D02*
X0223800Y0050217D01*
X0223551Y0049018D02*
X0224649Y0049018D01*
X0225188Y0047820D02*
X0223012Y0047820D01*
X0221814Y0046621D02*
X0226386Y0046621D01*
X0231814Y0046621D02*
X0259102Y0046621D01*
X0258845Y0210817D02*
X0008992Y0210817D01*
X0008990Y0209619D02*
X0024020Y0209619D01*
X0022773Y0208420D02*
X0008988Y0208420D01*
X0008987Y0207222D02*
X0022184Y0207222D01*
X0021900Y0206023D02*
X0008985Y0206023D01*
X0008983Y0204825D02*
X0021900Y0204825D01*
X0022330Y0203626D02*
X0008981Y0203626D01*
X0008979Y0202428D02*
X0023126Y0202428D01*
X0024871Y0201229D02*
X0008977Y0201229D01*
X0008975Y0200031D02*
X0034194Y0200031D01*
X0033359Y0201229D02*
X0028329Y0201229D01*
X0030074Y0202428D02*
X0032900Y0202428D01*
X0032900Y0203626D02*
X0030870Y0203626D01*
X0031300Y0204825D02*
X0033156Y0204825D01*
X0033705Y0206023D02*
X0031300Y0206023D01*
X0031016Y0207222D02*
X0034903Y0207222D01*
X0023538Y0212016D02*
X0017315Y0212016D01*
X0018560Y0213214D02*
X0022501Y0213214D01*
X0022005Y0214413D02*
X0019204Y0214413D01*
X0019484Y0215611D02*
X0021900Y0215611D01*
X0022014Y0216810D02*
X0019449Y0216810D01*
X0019127Y0218008D02*
X0022510Y0218008D01*
X0023560Y0219207D02*
X0018400Y0219207D01*
X0008966Y0194038D02*
X0034563Y0194038D01*
X0010544Y0180854D02*
X0008945Y0180854D01*
X0008943Y0179656D02*
X0009953Y0179656D01*
X0008915Y0161678D02*
X0023531Y0161678D01*
X0022498Y0160480D02*
X0008913Y0160480D01*
X0008912Y0159281D02*
X0022002Y0159281D01*
X0021900Y0158083D02*
X0008910Y0158083D01*
X0008908Y0156884D02*
X0022016Y0156884D01*
X0022513Y0155686D02*
X0008906Y0155686D01*
X0008904Y0154487D02*
X0023566Y0154487D01*
X0011359Y0117333D02*
X0008846Y0117333D01*
X0008844Y0116135D02*
X0011857Y0116135D01*
X0012834Y0114936D02*
X0008842Y0114936D01*
X0130221Y0295911D02*
X0258712Y0295911D01*
X0258710Y0297110D02*
X0131547Y0297110D01*
X0132043Y0298308D02*
X0258709Y0298308D01*
X0258707Y0299507D02*
X0132061Y0299507D01*
X0131676Y0300705D02*
X0258705Y0300705D01*
X0258703Y0301904D02*
X0130704Y0301904D01*
X0084852Y0339058D02*
X0258645Y0339058D01*
X0227742Y0241978D02*
X0221458Y0241978D01*
X0223128Y0240780D02*
X0226072Y0240780D01*
X0225308Y0239581D02*
X0223892Y0239581D01*
X0224300Y0238383D02*
X0224900Y0238383D01*
X0224900Y0237184D02*
X0224300Y0237184D01*
X0223993Y0235986D02*
X0225207Y0235986D01*
X0225827Y0234787D02*
X0223373Y0234787D01*
X0222051Y0233589D02*
X0227149Y0233589D01*
X0243747Y0219207D02*
X0248944Y0219207D01*
X0248431Y0218008D02*
X0244761Y0218008D01*
D14*
X0208600Y0245600D03*
X0201100Y0197100D03*
X0201100Y0148600D03*
X0201100Y0096600D03*
X0231600Y0068600D03*
X0101100Y0155100D03*
X0084600Y0149600D03*
X0095600Y0191100D03*
X0083600Y0196600D03*
X0084100Y0096100D03*
D15*
X0135663Y0044176D03*
X0135663Y0324176D03*
D16*
X0128483Y0299065D03*
X0128587Y0069262D03*
D17*
X0130600Y0202600D03*
D18*
X0104600Y0144100D03*
X0063100Y0147600D03*
M02*
