G75*
%MOIN*%
%OFA0B0*%
%FSLAX25Y25*%
%IPPOS*%
%LPD*%
%AMOC8*
5,1,8,0,0,1.08239X$1,22.5*
%
%ADD10C,0.13398*%
%ADD11R,0.06509X0.01981*%
%ADD12R,0.03320X0.10800*%
%ADD13R,0.03320X0.19304*%
%ADD14C,0.07400*%
%ADD15R,0.01981X0.06706*%
%ADD16R,0.06706X0.01981*%
%ADD17R,0.05131X0.04737*%
%ADD18C,0.03975*%
%ADD19C,0.04600*%
%ADD20C,0.03400*%
%ADD21C,0.26200*%
%ADD22C,0.05156*%
%ADD23R,0.04800X0.04800*%
%ADD24OC8,0.04400*%
D10*
X0135663Y0044176D03*
X0135663Y0324176D03*
D11*
X0123498Y0291459D03*
X0123498Y0289491D03*
X0123498Y0285554D03*
X0123498Y0283585D03*
X0123498Y0279648D03*
X0123498Y0277680D03*
X0123498Y0273743D03*
X0123498Y0271774D03*
X0123498Y0267837D03*
X0123498Y0265869D03*
X0123498Y0261932D03*
X0123498Y0259963D03*
X0123498Y0256026D03*
X0123498Y0254058D03*
X0123498Y0250121D03*
X0123498Y0248152D03*
X0123498Y0244215D03*
X0123498Y0242247D03*
X0123498Y0238310D03*
X0123498Y0236341D03*
X0123498Y0212719D03*
X0123498Y0210751D03*
X0123498Y0208782D03*
X0123498Y0206814D03*
X0123498Y0204845D03*
X0123498Y0202877D03*
X0123498Y0200908D03*
X0123498Y0198940D03*
X0123498Y0196971D03*
X0123498Y0195003D03*
X0123498Y0193034D03*
X0123498Y0191066D03*
X0123498Y0189097D03*
X0123498Y0187129D03*
X0123498Y0185160D03*
X0123498Y0183192D03*
X0123498Y0181223D03*
X0123498Y0179255D03*
X0123498Y0177286D03*
X0123498Y0175318D03*
X0123498Y0173349D03*
X0123498Y0171381D03*
X0123498Y0169412D03*
X0123498Y0167444D03*
X0123498Y0165475D03*
X0123498Y0163507D03*
X0123498Y0161538D03*
X0123498Y0159570D03*
X0123498Y0157601D03*
X0123498Y0155633D03*
X0123498Y0133979D03*
X0123498Y0132011D03*
X0123498Y0130042D03*
X0123498Y0128074D03*
X0123498Y0126105D03*
X0123498Y0124137D03*
X0123498Y0122168D03*
X0123498Y0120200D03*
X0123498Y0118231D03*
X0123498Y0116263D03*
X0123498Y0114294D03*
X0123498Y0112326D03*
X0123498Y0110357D03*
X0123498Y0108388D03*
X0123498Y0106420D03*
X0123498Y0104451D03*
X0123498Y0102483D03*
X0123498Y0100514D03*
X0123498Y0098546D03*
X0123498Y0096577D03*
X0123498Y0094609D03*
X0123498Y0092640D03*
X0123498Y0090672D03*
X0123498Y0088703D03*
X0123498Y0086735D03*
X0123498Y0084766D03*
X0123498Y0082798D03*
X0123498Y0080829D03*
X0123498Y0078861D03*
X0123498Y0076892D03*
X0147829Y0076892D03*
X0147829Y0078861D03*
X0147829Y0080829D03*
X0147829Y0082798D03*
X0147829Y0084766D03*
X0147829Y0086735D03*
X0147829Y0088703D03*
X0147829Y0090672D03*
X0147829Y0092640D03*
X0147829Y0094609D03*
X0147829Y0096577D03*
X0147829Y0098546D03*
X0147829Y0100514D03*
X0147829Y0102483D03*
X0147829Y0104451D03*
X0147829Y0106420D03*
X0147829Y0108388D03*
X0147829Y0110357D03*
X0147829Y0112326D03*
X0147829Y0114294D03*
X0147829Y0116263D03*
X0147829Y0118231D03*
X0147829Y0120200D03*
X0147829Y0122168D03*
X0147829Y0124137D03*
X0147829Y0126105D03*
X0147829Y0128074D03*
X0147829Y0130042D03*
X0147829Y0132011D03*
X0147829Y0133979D03*
X0147829Y0155633D03*
X0147829Y0157601D03*
X0147829Y0159570D03*
X0147829Y0161538D03*
X0147829Y0163507D03*
X0147829Y0165475D03*
X0147829Y0167444D03*
X0147829Y0169412D03*
X0147829Y0171381D03*
X0147829Y0173349D03*
X0147829Y0175318D03*
X0147829Y0177286D03*
X0147829Y0179255D03*
X0147829Y0181223D03*
X0147829Y0183192D03*
X0147829Y0185160D03*
X0147829Y0187129D03*
X0147829Y0189097D03*
X0147829Y0191066D03*
X0147829Y0193034D03*
X0147829Y0195003D03*
X0147829Y0196971D03*
X0147829Y0198940D03*
X0147829Y0200908D03*
X0147829Y0202877D03*
X0147829Y0204845D03*
X0147829Y0206814D03*
X0147829Y0208782D03*
X0147829Y0210751D03*
X0147829Y0212719D03*
X0147829Y0236341D03*
X0147829Y0238310D03*
X0147829Y0242247D03*
X0147829Y0244215D03*
X0147829Y0248152D03*
X0147829Y0250121D03*
X0147829Y0254058D03*
X0147829Y0256026D03*
X0147829Y0259963D03*
X0147829Y0261932D03*
X0147829Y0265869D03*
X0147829Y0267837D03*
X0147829Y0271774D03*
X0147829Y0273743D03*
X0147829Y0277680D03*
X0147829Y0279648D03*
X0147829Y0283585D03*
X0147829Y0285554D03*
X0147829Y0289491D03*
X0147829Y0291459D03*
D12*
X0135663Y0296164D03*
X0135663Y0229668D03*
X0135663Y0217424D03*
X0135663Y0150928D03*
X0135663Y0138684D03*
X0135663Y0072188D03*
D13*
X0135663Y0092936D03*
X0135663Y0117936D03*
X0135663Y0171676D03*
X0135663Y0196676D03*
X0135663Y0250416D03*
X0135663Y0275416D03*
D14*
X0219600Y0237661D03*
X0229600Y0237661D03*
X0240646Y0237161D03*
X0240646Y0227161D03*
X0253146Y0226661D03*
X0253146Y0216661D03*
X0240646Y0215661D03*
X0240646Y0205661D03*
X0229600Y0203554D03*
X0219600Y0203554D03*
X0219600Y0190146D03*
X0229600Y0190146D03*
X0240646Y0189661D03*
X0240646Y0179661D03*
X0240646Y0167661D03*
X0240646Y0157661D03*
X0229600Y0155054D03*
X0219600Y0155054D03*
X0219600Y0139646D03*
X0229600Y0139646D03*
X0240146Y0139661D03*
X0240146Y0129661D03*
X0240146Y0117161D03*
X0240146Y0107161D03*
X0229600Y0105054D03*
X0219600Y0105054D03*
X0219600Y0086646D03*
X0229600Y0086646D03*
X0240600Y0085661D03*
X0240600Y0075661D03*
X0251600Y0074100D03*
X0251600Y0064100D03*
X0240600Y0062661D03*
X0240600Y0052661D03*
X0229100Y0050554D03*
X0219100Y0050554D03*
X0253600Y0117100D03*
X0253600Y0127100D03*
X0253600Y0167100D03*
X0253600Y0177100D03*
X0047600Y0190428D03*
X0037600Y0190428D03*
X0026600Y0188100D03*
X0026600Y0178100D03*
X0026600Y0168100D03*
X0026600Y0158100D03*
X0037600Y0155272D03*
X0047600Y0155272D03*
X0047600Y0139428D03*
X0037600Y0139428D03*
X0026600Y0138100D03*
X0026600Y0128100D03*
X0016100Y0128600D03*
X0016100Y0118600D03*
X0026600Y0115600D03*
X0026600Y0105600D03*
X0037600Y0105272D03*
X0047600Y0105272D03*
X0047600Y0087428D03*
X0037600Y0087428D03*
X0026600Y0085600D03*
X0026600Y0075600D03*
X0026600Y0063100D03*
X0026600Y0053100D03*
X0037600Y0052272D03*
X0047600Y0052272D03*
X0014600Y0066100D03*
X0014600Y0076100D03*
X0014600Y0168100D03*
X0014600Y0178100D03*
X0037600Y0203272D03*
X0047600Y0203272D03*
X0026600Y0205600D03*
X0026600Y0215600D03*
X0026600Y0225600D03*
X0026600Y0235600D03*
X0037600Y0237665D03*
X0047600Y0237665D03*
X0014600Y0226100D03*
X0014600Y0216100D03*
D15*
X0066773Y0203868D03*
X0068742Y0203868D03*
X0070710Y0203868D03*
X0072679Y0203868D03*
X0074647Y0203868D03*
X0076616Y0203868D03*
X0078584Y0203868D03*
X0080553Y0203868D03*
X0082521Y0203868D03*
X0084490Y0203868D03*
X0086458Y0203868D03*
X0088427Y0203868D03*
X0088427Y0188832D03*
X0086458Y0188832D03*
X0084490Y0188832D03*
X0082521Y0188832D03*
X0080553Y0188832D03*
X0078584Y0188832D03*
X0076616Y0188832D03*
X0074647Y0188832D03*
X0072679Y0188832D03*
X0070710Y0188832D03*
X0068742Y0188832D03*
X0066773Y0188832D03*
X0066773Y0155368D03*
X0068742Y0155368D03*
X0070710Y0155368D03*
X0072679Y0155368D03*
X0074647Y0155368D03*
X0076616Y0155368D03*
X0078584Y0155368D03*
X0080553Y0155368D03*
X0082521Y0155368D03*
X0084490Y0155368D03*
X0086458Y0155368D03*
X0088427Y0155368D03*
X0088427Y0139832D03*
X0086458Y0139832D03*
X0084490Y0139832D03*
X0082521Y0139832D03*
X0080553Y0139832D03*
X0078584Y0139832D03*
X0076616Y0139832D03*
X0074647Y0139832D03*
X0072679Y0139832D03*
X0070710Y0139832D03*
X0068742Y0139832D03*
X0066773Y0139832D03*
X0066773Y0106368D03*
X0068742Y0106368D03*
X0070710Y0106368D03*
X0072679Y0106368D03*
X0074647Y0106368D03*
X0076616Y0106368D03*
X0078584Y0106368D03*
X0080553Y0106368D03*
X0082521Y0106368D03*
X0084490Y0106368D03*
X0086458Y0106368D03*
X0088427Y0106368D03*
X0088427Y0085315D03*
X0086458Y0085315D03*
X0084490Y0085315D03*
X0082521Y0085315D03*
X0080553Y0085315D03*
X0078584Y0085315D03*
X0076616Y0085315D03*
X0074647Y0085315D03*
X0072679Y0085315D03*
X0070710Y0085315D03*
X0068742Y0085315D03*
X0066773Y0085315D03*
X0066773Y0051851D03*
X0068742Y0051851D03*
X0070710Y0051851D03*
X0072679Y0051851D03*
X0074647Y0051851D03*
X0076616Y0051851D03*
X0078584Y0051851D03*
X0080553Y0051851D03*
X0082521Y0051851D03*
X0084490Y0051851D03*
X0086458Y0051851D03*
X0088427Y0051851D03*
X0182773Y0051868D03*
X0184742Y0051868D03*
X0186710Y0051868D03*
X0188679Y0051868D03*
X0190647Y0051868D03*
X0192616Y0051868D03*
X0194584Y0051868D03*
X0196553Y0051868D03*
X0198521Y0051868D03*
X0200490Y0051868D03*
X0202458Y0051868D03*
X0204427Y0051868D03*
X0204427Y0085332D03*
X0202458Y0085332D03*
X0200490Y0085332D03*
X0198521Y0085332D03*
X0196553Y0085332D03*
X0194584Y0085332D03*
X0192616Y0085332D03*
X0190647Y0085332D03*
X0188679Y0085332D03*
X0186710Y0085332D03*
X0184742Y0085332D03*
X0182773Y0085332D03*
X0182773Y0106368D03*
X0184742Y0106368D03*
X0186710Y0106368D03*
X0188679Y0106368D03*
X0190647Y0106368D03*
X0192616Y0106368D03*
X0194584Y0106368D03*
X0196553Y0106368D03*
X0198521Y0106368D03*
X0200490Y0106368D03*
X0202458Y0106368D03*
X0204427Y0106368D03*
X0204427Y0139832D03*
X0202458Y0139832D03*
X0200490Y0139832D03*
X0198521Y0139832D03*
X0196553Y0139832D03*
X0194584Y0139832D03*
X0192616Y0139832D03*
X0190647Y0139832D03*
X0188679Y0139832D03*
X0186710Y0139832D03*
X0184742Y0139832D03*
X0182773Y0139832D03*
X0183392Y0155752D03*
X0185360Y0155752D03*
X0187329Y0155752D03*
X0189297Y0155752D03*
X0191266Y0155752D03*
X0193234Y0155752D03*
X0195203Y0155752D03*
X0197171Y0155752D03*
X0199140Y0155752D03*
X0201108Y0155752D03*
X0203077Y0155752D03*
X0205045Y0155752D03*
X0205045Y0189216D03*
X0203077Y0189216D03*
X0201108Y0189216D03*
X0199140Y0189216D03*
X0197171Y0189216D03*
X0195203Y0189216D03*
X0193234Y0189216D03*
X0191266Y0189216D03*
X0189297Y0189216D03*
X0187329Y0189216D03*
X0185360Y0189216D03*
X0183392Y0189216D03*
X0183051Y0203630D03*
X0185020Y0203630D03*
X0186988Y0203630D03*
X0188957Y0203630D03*
X0190925Y0203630D03*
X0192894Y0203630D03*
X0194862Y0203630D03*
X0196831Y0203630D03*
X0198799Y0203630D03*
X0200768Y0203630D03*
X0202737Y0203630D03*
X0204705Y0203630D03*
X0204705Y0237094D03*
X0202737Y0237094D03*
X0200768Y0237094D03*
X0198799Y0237094D03*
X0196831Y0237094D03*
X0194862Y0237094D03*
X0192894Y0237094D03*
X0190925Y0237094D03*
X0188957Y0237094D03*
X0186988Y0237094D03*
X0185020Y0237094D03*
X0183051Y0237094D03*
X0088427Y0237332D03*
X0086458Y0237332D03*
X0084490Y0237332D03*
X0082521Y0237332D03*
X0080553Y0237332D03*
X0078584Y0237332D03*
X0076616Y0237332D03*
X0074647Y0237332D03*
X0072679Y0237332D03*
X0070710Y0237332D03*
X0068742Y0237332D03*
X0066773Y0237332D03*
D16*
X0060868Y0231427D03*
X0060868Y0229458D03*
X0060868Y0227490D03*
X0060868Y0225521D03*
X0060868Y0223553D03*
X0060868Y0221584D03*
X0060868Y0219616D03*
X0060868Y0217647D03*
X0060868Y0215679D03*
X0060868Y0213710D03*
X0060868Y0211742D03*
X0060868Y0209773D03*
X0060868Y0182927D03*
X0060868Y0180958D03*
X0060868Y0178990D03*
X0060868Y0177021D03*
X0060868Y0175053D03*
X0060868Y0173084D03*
X0060868Y0171116D03*
X0060868Y0169147D03*
X0060868Y0167179D03*
X0060868Y0165210D03*
X0060868Y0163242D03*
X0060868Y0161273D03*
X0060868Y0133927D03*
X0060868Y0131958D03*
X0060868Y0129990D03*
X0060868Y0128021D03*
X0060868Y0126053D03*
X0060868Y0124084D03*
X0060868Y0122116D03*
X0060868Y0120147D03*
X0060868Y0118179D03*
X0060868Y0116210D03*
X0060868Y0114242D03*
X0060868Y0112273D03*
X0094332Y0112273D03*
X0094332Y0114242D03*
X0094332Y0116210D03*
X0094332Y0118179D03*
X0094332Y0120147D03*
X0094332Y0122116D03*
X0094332Y0124084D03*
X0094332Y0126053D03*
X0094332Y0128021D03*
X0094332Y0129990D03*
X0094332Y0131958D03*
X0094332Y0133927D03*
X0094332Y0161273D03*
X0094332Y0163242D03*
X0094332Y0165210D03*
X0094332Y0167179D03*
X0094332Y0169147D03*
X0094332Y0171116D03*
X0094332Y0173084D03*
X0094332Y0175053D03*
X0094332Y0177021D03*
X0094332Y0178990D03*
X0094332Y0180958D03*
X0094332Y0182927D03*
X0094332Y0209773D03*
X0094332Y0211742D03*
X0094332Y0213710D03*
X0094332Y0215679D03*
X0094332Y0217647D03*
X0094332Y0219616D03*
X0094332Y0221584D03*
X0094332Y0223553D03*
X0094332Y0225521D03*
X0094332Y0227490D03*
X0094332Y0229458D03*
X0094332Y0231427D03*
X0177146Y0231189D03*
X0177146Y0229220D03*
X0177146Y0227252D03*
X0177146Y0225283D03*
X0177146Y0223315D03*
X0177146Y0221346D03*
X0177146Y0219378D03*
X0177146Y0217409D03*
X0177146Y0215441D03*
X0177146Y0213472D03*
X0177146Y0211504D03*
X0177146Y0209535D03*
X0177486Y0183311D03*
X0177486Y0181342D03*
X0177486Y0179374D03*
X0177486Y0177405D03*
X0177486Y0175437D03*
X0177486Y0173468D03*
X0177486Y0171500D03*
X0177486Y0169531D03*
X0177486Y0167563D03*
X0177486Y0165594D03*
X0177486Y0163626D03*
X0177486Y0161657D03*
X0176868Y0133927D03*
X0176868Y0131958D03*
X0176868Y0129990D03*
X0176868Y0128021D03*
X0176868Y0126053D03*
X0176868Y0124084D03*
X0176868Y0122116D03*
X0176868Y0120147D03*
X0176868Y0118179D03*
X0176868Y0116210D03*
X0176868Y0114242D03*
X0176868Y0112273D03*
X0210332Y0112273D03*
X0210332Y0114242D03*
X0210332Y0116210D03*
X0210332Y0118179D03*
X0210332Y0120147D03*
X0210332Y0122116D03*
X0210332Y0124084D03*
X0210332Y0126053D03*
X0210332Y0128021D03*
X0210332Y0129990D03*
X0210332Y0131958D03*
X0210332Y0133927D03*
X0210951Y0161657D03*
X0210951Y0163626D03*
X0210951Y0165594D03*
X0210951Y0167563D03*
X0210951Y0169531D03*
X0210951Y0171500D03*
X0210951Y0173468D03*
X0210951Y0175437D03*
X0210951Y0177405D03*
X0210951Y0179374D03*
X0210951Y0181342D03*
X0210951Y0183311D03*
X0210611Y0209535D03*
X0210611Y0211504D03*
X0210611Y0213472D03*
X0210611Y0215441D03*
X0210611Y0217409D03*
X0210611Y0219378D03*
X0210611Y0221346D03*
X0210611Y0223315D03*
X0210611Y0225283D03*
X0210611Y0227252D03*
X0210611Y0229220D03*
X0210611Y0231189D03*
X0210332Y0079427D03*
X0210332Y0077458D03*
X0210332Y0075490D03*
X0210332Y0073521D03*
X0210332Y0071553D03*
X0210332Y0069584D03*
X0210332Y0067616D03*
X0210332Y0065647D03*
X0210332Y0063679D03*
X0210332Y0061710D03*
X0210332Y0059742D03*
X0210332Y0057773D03*
X0176868Y0057773D03*
X0176868Y0059742D03*
X0176868Y0061710D03*
X0176868Y0063679D03*
X0176868Y0065647D03*
X0176868Y0067616D03*
X0176868Y0069584D03*
X0176868Y0071553D03*
X0176868Y0073521D03*
X0176868Y0075490D03*
X0176868Y0077458D03*
X0176868Y0079427D03*
X0094332Y0079410D03*
X0094332Y0077441D03*
X0094332Y0075473D03*
X0094332Y0073504D03*
X0094332Y0071536D03*
X0094332Y0069567D03*
X0094332Y0067599D03*
X0094332Y0065630D03*
X0094332Y0063662D03*
X0094332Y0061693D03*
X0094332Y0059725D03*
X0094332Y0057756D03*
X0060868Y0057756D03*
X0060868Y0059725D03*
X0060868Y0061693D03*
X0060868Y0063662D03*
X0060868Y0065630D03*
X0060868Y0067599D03*
X0060868Y0069567D03*
X0060868Y0071536D03*
X0060868Y0073504D03*
X0060868Y0075473D03*
X0060868Y0077441D03*
X0060868Y0079410D03*
D17*
X0062754Y0042600D03*
X0069446Y0042600D03*
X0069446Y0035600D03*
X0062754Y0035600D03*
X0082754Y0039600D03*
X0089446Y0039600D03*
D18*
X0135663Y0299176D03*
D19*
X0053600Y0036600D03*
X0105100Y0034600D03*
X0116163Y0041676D03*
X0154663Y0041176D03*
X0120163Y0314676D03*
X0117163Y0319676D03*
X0152163Y0316676D03*
X0153663Y0321676D03*
D20*
X0208600Y0245600D03*
X0201100Y0197100D03*
X0201100Y0148600D03*
X0201100Y0096600D03*
X0231600Y0068600D03*
X0101100Y0155100D03*
X0084600Y0149600D03*
X0095600Y0191100D03*
X0083600Y0196600D03*
X0084100Y0096100D03*
D21*
X0135663Y0044176D03*
X0135663Y0324176D03*
D22*
X0128483Y0299065D03*
X0128587Y0069262D03*
D23*
X0130600Y0202600D03*
D24*
X0104600Y0144100D03*
X0063100Y0147600D03*
M02*
