%
M48
M72
T01C0.01000
T02C0.01575
T03C0.02000
T04C0.02200
T05C0.02400
T06C0.02756
T07C0.03937
T08C0.12598
%
T01
X84100Y96100
X84600Y149600
X101100Y155100
X95600Y191100
X83600Y196600
X201100Y197100
X201100Y148600
X201100Y96600
X231600Y68600
X208600Y245600
T02
X135663Y299176
T03
X63100Y147600
X104600Y144100
T04
X53600Y36600
X105100Y34600
X116163Y41676
X154663Y41176
X120163Y314676
X117163Y319676
X152163Y316676
X153663Y321676
T05
X130600Y202600
T06
X128483Y299065
X128587Y69262
T07
X47600Y52272
X37600Y52272
X26600Y53100
X26600Y63100
X26600Y75600
X26600Y85600
X37600Y87428
X47600Y87428
X47600Y105272
X37600Y105272
X26600Y105600
X26600Y115600
X16100Y118600
X16100Y128600
X26600Y128100
X26600Y138100
X37600Y139428
X47600Y139428
X47600Y155272
X37600Y155272
X26600Y158100
X26600Y168100
X26600Y178100
X26600Y188100
X37600Y190428
X47600Y190428
X47600Y203272
X37600Y203272
X26600Y205600
X26600Y215600
X26600Y225600
X26600Y235600
X37600Y237665
X47600Y237665
X14600Y226100
X14600Y216100
X14600Y178100
X14600Y168100
X14600Y76100
X14600Y66100
X219100Y50554
X229100Y50554
X240600Y52661
X240600Y62661
X251600Y64100
X251600Y74100
X240600Y75661
X240600Y85661
X229600Y86646
X219600Y86646
X219600Y105054
X229600Y105054
X240146Y107161
X240146Y117161
X240146Y129661
X240146Y139661
X229600Y139646
X219600Y139646
X219600Y155054
X229600Y155054
X240646Y157661
X240646Y167661
X240646Y179661
X240646Y189661
X229600Y190146
X219600Y190146
X219600Y203554
X229600Y203554
X240646Y205661
X240646Y215661
X253146Y216661
X253146Y226661
X240646Y227161
X240646Y237161
X229600Y237661
X219600Y237661
X253600Y177100
X253600Y167100
X253600Y127100
X253600Y117100
T08
X135663Y44176
X135663Y44176
X135663Y324176
X135663Y324176
M30
