G04 Layer_Color=128*
%FSLAX25Y25*%
%MOIN*%
G70*
G01*
G75*
%ADD11C,0.01000*%
%ADD302C,0.00200*%
D11*
X0Y0D02*
X692500D01*
X0Y157500D02*
X692500D01*
X0Y0D02*
Y157500D01*
X692500Y0D02*
Y157500D01*
D302*
X130890Y104700D02*
X135190D01*
X133040Y102550D02*
Y106850D01*
X52150Y104700D02*
X56450D01*
X54300Y102550D02*
Y106850D01*
X645028Y40900D02*
X648572D01*
X646800Y39128D02*
Y42672D01*
X645028Y50900D02*
X648572D01*
X646800Y49128D02*
Y52672D01*
X614828Y40900D02*
X618372D01*
X616600Y39128D02*
Y42672D01*
X614828Y50900D02*
X618372D01*
X616600Y49128D02*
Y52672D01*
X582228Y40900D02*
X585772D01*
X584000Y39128D02*
Y42672D01*
X582228Y50900D02*
X585772D01*
X584000Y49128D02*
Y52672D01*
X549128Y40900D02*
X552672D01*
X550900Y39128D02*
Y42672D01*
X549128Y50900D02*
X552672D01*
X550900Y49128D02*
Y52672D01*
X519828Y40900D02*
X523372D01*
X521600Y39128D02*
Y42672D01*
X519828Y50900D02*
X523372D01*
X521600Y49128D02*
Y52672D01*
X593928Y124700D02*
X597472D01*
X595700Y122928D02*
Y126472D01*
X593928Y134700D02*
X597472D01*
X595700Y132928D02*
Y136472D01*
X555328Y123800D02*
X558872D01*
X557100Y122028D02*
Y125572D01*
X555328Y133800D02*
X558872D01*
X557100Y132028D02*
Y135572D01*
X7950Y73100D02*
X11050D01*
X9500Y71550D02*
Y74650D01*
X17950Y73100D02*
X21050D01*
X19500Y71550D02*
Y74650D01*
X249528Y23400D02*
X253072D01*
X251300Y21628D02*
Y25172D01*
X249528Y33400D02*
X253072D01*
X251300Y31628D02*
Y35172D01*
X239528Y23400D02*
X243072D01*
X241300Y21628D02*
Y25172D01*
X239528Y33400D02*
X243072D01*
X241300Y31628D02*
Y35172D01*
X229528Y23400D02*
X233072D01*
X231300Y21628D02*
Y25172D01*
X229528Y33400D02*
X233072D01*
X231300Y31628D02*
Y35172D01*
X219528Y23400D02*
X223072D01*
X221300Y21628D02*
Y25172D01*
X219528Y33400D02*
X223072D01*
X221300Y31628D02*
Y35172D01*
X209528Y23400D02*
X213072D01*
X211300Y21628D02*
Y25172D01*
X209528Y33400D02*
X213072D01*
X211300Y31628D02*
Y35172D01*
X199528Y23400D02*
X203072D01*
X201300Y21628D02*
Y25172D01*
X199528Y33400D02*
X203072D01*
X201300Y31628D02*
Y35172D01*
X189528Y23400D02*
X193072D01*
X191300Y21628D02*
Y25172D01*
X189528Y33400D02*
X193072D01*
X191300Y31628D02*
Y35172D01*
X179528Y23400D02*
X183072D01*
X181300Y21628D02*
Y25172D01*
X179528Y33400D02*
X183072D01*
X181300Y31628D02*
Y35172D01*
X169528Y23400D02*
X173072D01*
X171300Y21628D02*
Y25172D01*
X169528Y33400D02*
X173072D01*
X171300Y31628D02*
Y35172D01*
X159528Y23400D02*
X163072D01*
X161300Y21628D02*
Y25172D01*
X159528Y33400D02*
X163072D01*
X161300Y31628D02*
Y35172D01*
X149528Y23400D02*
X153072D01*
X151300Y21628D02*
Y25172D01*
X149528Y33400D02*
X153072D01*
X151300Y31628D02*
Y35172D01*
X139528Y23400D02*
X143072D01*
X141300Y21628D02*
Y25172D01*
X139528Y33400D02*
X143072D01*
X141300Y31628D02*
Y35172D01*
X129528Y23400D02*
X133072D01*
X131300Y21628D02*
Y25172D01*
X129528Y33400D02*
X133072D01*
X131300Y31628D02*
Y35172D01*
X119528Y23400D02*
X123072D01*
X121300Y21628D02*
Y25172D01*
X119528Y33400D02*
X123072D01*
X121300Y31628D02*
Y35172D01*
X109528Y23400D02*
X113072D01*
X111300Y21628D02*
Y25172D01*
X109528Y33400D02*
X113072D01*
X111300Y31628D02*
Y35172D01*
X99528Y23400D02*
X103072D01*
X101300Y21628D02*
Y25172D01*
X99528Y33400D02*
X103072D01*
X101300Y31628D02*
Y35172D01*
X89528Y23400D02*
X93072D01*
X91300Y21628D02*
Y25172D01*
X89528Y33400D02*
X93072D01*
X91300Y31628D02*
Y35172D01*
X79528Y23400D02*
X83072D01*
X81300Y21628D02*
Y25172D01*
X79528Y33400D02*
X83072D01*
X81300Y31628D02*
Y35172D01*
X69528Y23400D02*
X73072D01*
X71300Y21628D02*
Y25172D01*
X69528Y33400D02*
X73072D01*
X71300Y31628D02*
Y35172D01*
X59528Y23400D02*
X63072D01*
X61300Y21628D02*
Y25172D01*
X59528Y33400D02*
X63072D01*
X61300Y31628D02*
Y35172D01*
X477150Y76756D02*
X480250D01*
X478700Y75206D02*
Y78306D01*
X477150Y66756D02*
X480250D01*
X478700Y65206D02*
Y68306D01*
X477150Y56756D02*
X480250D01*
X478700Y55206D02*
Y58306D01*
X14095Y20000D02*
X25905D01*
X20000Y14095D02*
Y25905D01*
X667095Y20000D02*
X678905D01*
X673000Y14095D02*
Y25905D01*
X667095Y138000D02*
X678905D01*
X673000Y132095D02*
Y143905D01*
X14095Y138000D02*
X25905D01*
X20000Y132095D02*
Y143905D01*
X477150Y124000D02*
X480250D01*
X478700Y122450D02*
Y125550D01*
X477150Y114000D02*
X480250D01*
X478700Y112450D02*
Y115550D01*
X477150Y104000D02*
X480250D01*
X478700Y102450D02*
Y105550D01*
X416650Y76756D02*
X419750D01*
X418200Y75206D02*
Y78306D01*
X416650Y66756D02*
X419750D01*
X418200Y65206D02*
Y68306D01*
X416650Y56756D02*
X419750D01*
X418200Y55206D02*
Y58306D01*
X416650Y124000D02*
X419750D01*
X418200Y122450D02*
Y125550D01*
X416650Y114000D02*
X419750D01*
X418200Y112450D02*
Y115550D01*
X416650Y104000D02*
X419750D01*
X418200Y102450D02*
Y105550D01*
X356150Y76756D02*
X359250D01*
X357700Y75206D02*
Y78306D01*
X356150Y66756D02*
X359250D01*
X357700Y65206D02*
Y68306D01*
X356150Y56756D02*
X359250D01*
X357700Y55206D02*
Y58306D01*
X356150Y124000D02*
X359250D01*
X357700Y122450D02*
Y125550D01*
X356150Y114000D02*
X359250D01*
X357700Y112450D02*
Y115550D01*
X356150Y104000D02*
X359250D01*
X357700Y102450D02*
Y105550D01*
X295650Y76756D02*
X298750D01*
X297200Y75206D02*
Y78306D01*
X295650Y66756D02*
X298750D01*
X297200Y65206D02*
Y68306D01*
X295650Y56756D02*
X298750D01*
X297200Y55206D02*
Y58306D01*
X295650Y124000D02*
X298750D01*
X297200Y122450D02*
Y125550D01*
X295650Y114000D02*
X298750D01*
X297200Y112450D02*
Y115550D01*
X295650Y104000D02*
X298750D01*
X297200Y102450D02*
Y105550D01*
X511953Y96900D02*
X556047D01*
X534000Y74853D02*
Y118947D01*
X597853Y96900D02*
X641947D01*
X619900Y74853D02*
Y118947D01*
X680128Y82300D02*
X683672D01*
X681900Y80528D02*
Y84072D01*
X680128Y92300D02*
X683672D01*
X681900Y90528D02*
Y94072D01*
X565650Y93700D02*
X567150D01*
X566400Y92950D02*
Y94450D01*
X585250Y75000D02*
X586750D01*
X586000Y74250D02*
Y75750D01*
X582250Y75700D02*
X583750D01*
X583000Y74950D02*
Y76450D01*
X624250Y31500D02*
X625750D01*
X625000Y30750D02*
Y32250D01*
X592250Y31300D02*
X593750D01*
X593000Y30550D02*
Y32050D01*
X559750Y31400D02*
X561250D01*
X560500Y30650D02*
Y32150D01*
X529350Y31400D02*
X530850D01*
X530100Y30650D02*
Y32150D01*
X494650Y31700D02*
X496150D01*
X495400Y30950D02*
Y32450D01*
X568250Y93700D02*
X569750D01*
X569000Y92950D02*
Y94450D01*
X453650Y50700D02*
X455150D01*
X454400Y49950D02*
Y51450D01*
X453650Y97800D02*
X455150D01*
X454400Y97050D02*
Y98550D01*
X454150Y77200D02*
X455650D01*
X454900Y76450D02*
Y77950D01*
X454150Y124800D02*
X455650D01*
X454900Y124050D02*
Y125550D01*
X393750Y125600D02*
X395250D01*
X394500Y124850D02*
Y126350D01*
X393650Y98400D02*
X395150D01*
X394400Y97650D02*
Y99150D01*
X393450Y78000D02*
X394950D01*
X394200Y77250D02*
Y78750D01*
X393350Y50700D02*
X394850D01*
X394100Y49950D02*
Y51450D01*
X333650Y51000D02*
X335150D01*
X334400Y50250D02*
Y51750D01*
X333150Y77400D02*
X334650D01*
X333900Y76650D02*
Y78150D01*
X333850Y99200D02*
X335350D01*
X334600Y98450D02*
Y99950D01*
X333450Y125300D02*
X334950D01*
X334200Y124550D02*
Y126050D01*
X272550Y53600D02*
X274050D01*
X273300Y52850D02*
Y54350D01*
X272450Y77900D02*
X273950D01*
X273200Y77150D02*
Y78650D01*
X271950Y100300D02*
X273450D01*
X272700Y99550D02*
Y101050D01*
X272650Y124300D02*
X274150D01*
X273400Y123550D02*
Y125050D01*
X120550Y129600D02*
X122050D01*
X121300Y128850D02*
Y130350D01*
X125550Y63100D02*
X127050D01*
X126300Y62350D02*
Y63850D01*
X130550Y83300D02*
X132050D01*
X131300Y82550D02*
Y84050D01*
X132950Y120600D02*
X134450D01*
X133700Y119850D02*
Y121350D01*
X140550Y145600D02*
X142050D01*
X141300Y144850D02*
Y146350D01*
X145650Y67100D02*
X147150D01*
X146400Y66350D02*
Y67850D01*
X150550Y90300D02*
X152050D01*
X151300Y89550D02*
Y91050D01*
X155450Y137900D02*
X156950D01*
X156200Y137150D02*
Y138650D01*
X160550Y149500D02*
X162050D01*
X161300Y148750D02*
Y150250D01*
X165750Y58600D02*
X167250D01*
X166500Y57850D02*
Y59350D01*
X170550Y94000D02*
X172050D01*
X171300Y93250D02*
Y94750D01*
X175650Y142200D02*
X177150D01*
X176400Y141450D02*
Y142950D01*
X180550Y152100D02*
X182050D01*
X181300Y151350D02*
Y152850D01*
X185550Y55200D02*
X187050D01*
X186300Y54450D02*
Y55950D01*
X189650Y96700D02*
X191150D01*
X190400Y95950D02*
Y97450D01*
X67850Y66000D02*
X69350D01*
X68600Y65250D02*
Y66750D01*
X104650Y42300D02*
X106150D01*
X105400Y41550D02*
Y43050D01*
X102050Y42300D02*
X103550D01*
X102800Y41550D02*
Y43050D01*
X195950Y47200D02*
X197450D01*
X196700Y46450D02*
Y47950D01*
X193250Y47500D02*
X194750D01*
X194000Y46750D02*
Y48250D01*
X95950Y111900D02*
X97450D01*
X96700Y111150D02*
Y112650D01*
X572250Y71000D02*
X573750D01*
X573000Y70250D02*
Y71750D01*
X546250Y71000D02*
X547750D01*
X547000Y70250D02*
Y71750D01*
X577750Y85000D02*
X579250D01*
X578500Y84250D02*
Y85750D01*
X568750Y85000D02*
X570250D01*
X569500Y84250D02*
Y85750D01*
X630150Y69900D02*
X631650D01*
X630900Y69150D02*
Y70650D01*
X625150Y70000D02*
X626650D01*
X625900Y69250D02*
Y70750D01*
X627450Y70000D02*
X628950D01*
X628200Y69250D02*
Y70750D01*
X48950Y74100D02*
X50450D01*
X49700Y73350D02*
Y74850D01*
X51450Y74100D02*
X52950D01*
X52200Y73350D02*
Y74850D01*
X65250Y66000D02*
X66750D01*
X66000Y65250D02*
Y66750D01*
X54550Y9000D02*
X56050D01*
X55300Y8250D02*
Y9750D01*
X42250Y13000D02*
X43750D01*
X43000Y12250D02*
Y13750D01*
X50450Y4900D02*
X51950D01*
X51200Y4150D02*
Y5650D01*
X38950Y8900D02*
X40450D01*
X39700Y8150D02*
Y9650D01*
X35450Y4700D02*
X36950D01*
X36200Y3950D02*
Y5450D01*
X49950Y13400D02*
X51450D01*
X50700Y12650D02*
Y14150D01*
X46550Y9100D02*
X48050D01*
X47300Y8350D02*
Y9850D01*
X42550Y4800D02*
X44050D01*
X43300Y4050D02*
Y5550D01*
X63350Y5200D02*
X64850D01*
X64100Y4450D02*
Y5950D01*
X56850Y5000D02*
X58350D01*
X57600Y4250D02*
Y5750D01*
X108450Y91400D02*
X109950D01*
X109200Y90650D02*
Y92150D01*
X104450Y86900D02*
X105950D01*
X105200Y86150D02*
Y87650D01*
X112250Y97200D02*
X113750D01*
X113000Y96450D02*
Y97950D01*
X105050Y97200D02*
X106550D01*
X105800Y96450D02*
Y97950D01*
X112950Y86600D02*
X114450D01*
X113700Y85850D02*
Y87350D01*
X202650Y102500D02*
X204150D01*
X203400Y101750D02*
Y103250D01*
X209850Y102500D02*
X211350D01*
X210600Y101750D02*
Y103250D01*
X223750Y102500D02*
X225250D01*
X224500Y101750D02*
Y103250D01*
X231150Y102500D02*
X232650D01*
X231900Y101750D02*
Y103250D01*
X216750Y102500D02*
X218250D01*
X217500Y101750D02*
Y103250D01*
X220050Y74500D02*
X221550D01*
X220800Y73750D02*
Y75250D01*
X225250Y74700D02*
X226750D01*
X226000Y73950D02*
Y75450D01*
X230850Y74800D02*
X232350D01*
X231600Y74050D02*
Y75550D01*
X208050Y74300D02*
X209550D01*
X208800Y73550D02*
Y75050D01*
X108650Y82100D02*
X110150D01*
X109400Y81350D02*
Y82850D01*
X108350Y102000D02*
X109850D01*
X109100Y101250D02*
Y102750D01*
X114450Y91800D02*
X115950D01*
X115200Y91050D02*
Y92550D01*
X103050Y92100D02*
X104550D01*
X103800Y91350D02*
Y92850D01*
X99850Y114200D02*
X101350D01*
X100600Y113450D02*
Y114950D01*
X97750Y113500D02*
X99250D01*
X98500Y112750D02*
Y114250D01*
X214650Y74400D02*
X216150D01*
X215400Y73650D02*
Y75150D01*
M02*
