G04 Layer_Color=16711935*
%FSLAX25Y25*%
%MOIN*%
G70*
G01*
G75*
%ADD11C,0.01000*%
%ADD20C,0.44094*%
%ADD283C,0.09055*%
%ADD284C,0.06800*%
%ADD285R,0.06706X0.06706*%
%ADD286C,0.06706*%
%ADD287C,0.05800*%
%ADD288R,0.06706X0.06706*%
%ADD289R,0.06800X0.06800*%
%ADD290R,0.04737X0.04540*%
%ADD291R,0.04343X0.04540*%
%ADD292R,0.04343X0.04540*%
%ADD293R,0.04540X0.04737*%
%ADD294R,0.04540X0.04343*%
%ADD295R,0.04540X0.04343*%
%ADD296O,0.02572X0.06312*%
%ADD297O,0.02178X0.07296*%
G04:AMPARAMS|DCode=298|XSize=67.84mil|YSize=86.74mil|CornerRadius=18.96mil|HoleSize=0mil|Usage=FLASHONLY|Rotation=0.000|XOffset=0mil|YOffset=0mil|HoleType=Round|Shape=RoundedRectangle|*
%AMROUNDEDRECTD298*
21,1,0.06784,0.04882,0,0,0.0*
21,1,0.02992,0.08674,0,0,0.0*
1,1,0.03792,0.01496,-0.02441*
1,1,0.03792,-0.01496,-0.02441*
1,1,0.03792,-0.01496,0.02441*
1,1,0.03792,0.01496,0.02441*
%
%ADD298ROUNDEDRECTD298*%
D11*
X0Y0D02*
X692500D01*
X0Y157500D02*
X692500D01*
X0Y0D02*
Y157500D01*
X692500Y0D02*
Y157500D01*
D20*
X534000Y96900D02*
D03*
X619900D02*
D03*
D283*
X43900Y28500D02*
D03*
X639500Y127400D02*
D03*
D284*
X133040Y104700D02*
D03*
X54300D02*
D03*
X478700Y76756D02*
D03*
Y66756D02*
D03*
X20000Y20000D02*
D03*
X673000D02*
D03*
Y138000D02*
D03*
X20000D02*
D03*
X478700Y124000D02*
D03*
Y114000D02*
D03*
X418200Y76756D02*
D03*
Y66756D02*
D03*
Y124000D02*
D03*
Y114000D02*
D03*
X357700Y76756D02*
D03*
Y66756D02*
D03*
Y124000D02*
D03*
Y114000D02*
D03*
X297200Y76756D02*
D03*
Y66756D02*
D03*
Y124000D02*
D03*
Y114000D02*
D03*
D285*
X646800Y40900D02*
D03*
X616600D02*
D03*
X584000D02*
D03*
X550900D02*
D03*
X521600D02*
D03*
X595700Y124700D02*
D03*
X557100Y123800D02*
D03*
X681900Y82300D02*
D03*
D286*
X646800Y50900D02*
D03*
X616600D02*
D03*
X584000D02*
D03*
X550900D02*
D03*
X521600D02*
D03*
X595700Y134700D02*
D03*
X557100Y133800D02*
D03*
X251300Y23400D02*
D03*
Y33400D02*
D03*
X241300Y23400D02*
D03*
Y33400D02*
D03*
X231300Y23400D02*
D03*
Y33400D02*
D03*
X221300Y23400D02*
D03*
Y33400D02*
D03*
X211300Y23400D02*
D03*
Y33400D02*
D03*
X201300Y23400D02*
D03*
Y33400D02*
D03*
X191300Y23400D02*
D03*
Y33400D02*
D03*
X181300Y23400D02*
D03*
Y33400D02*
D03*
X171300Y23400D02*
D03*
Y33400D02*
D03*
X161300Y23400D02*
D03*
Y33400D02*
D03*
X151300Y23400D02*
D03*
Y33400D02*
D03*
X141300Y23400D02*
D03*
Y33400D02*
D03*
X131300Y23400D02*
D03*
Y33400D02*
D03*
X121300Y23400D02*
D03*
Y33400D02*
D03*
X111300Y23400D02*
D03*
Y33400D02*
D03*
X101300Y23400D02*
D03*
Y33400D02*
D03*
X91300Y23400D02*
D03*
Y33400D02*
D03*
X81300Y23400D02*
D03*
Y33400D02*
D03*
X71300Y23400D02*
D03*
Y33400D02*
D03*
X61300Y23400D02*
D03*
X681900Y92300D02*
D03*
D287*
X9500Y73100D02*
D03*
X19500D02*
D03*
D288*
X61300Y33400D02*
D03*
D289*
X478700Y56756D02*
D03*
Y104000D02*
D03*
X418200Y56756D02*
D03*
Y104000D02*
D03*
X357700Y56756D02*
D03*
Y104000D02*
D03*
X297200Y56756D02*
D03*
Y104000D02*
D03*
D290*
X445800Y83148D02*
D03*
Y76652D02*
D03*
X445100Y56248D02*
D03*
Y49752D02*
D03*
X468900Y76952D02*
D03*
Y83448D02*
D03*
X468200Y50352D02*
D03*
Y56848D02*
D03*
X445800Y130448D02*
D03*
Y123952D02*
D03*
X445400Y103748D02*
D03*
Y97252D02*
D03*
X468900Y124452D02*
D03*
Y130948D02*
D03*
X468600Y97252D02*
D03*
Y103748D02*
D03*
X385200Y83648D02*
D03*
Y77152D02*
D03*
X385300Y56448D02*
D03*
Y49952D02*
D03*
X408200Y77252D02*
D03*
Y83748D02*
D03*
Y50452D02*
D03*
Y56948D02*
D03*
X385300Y104148D02*
D03*
Y97652D02*
D03*
X385600Y131348D02*
D03*
Y124852D02*
D03*
X408600Y97952D02*
D03*
Y104448D02*
D03*
Y124552D02*
D03*
Y131048D02*
D03*
X324600Y83448D02*
D03*
Y76952D02*
D03*
X325300Y56948D02*
D03*
Y50452D02*
D03*
X347900Y77252D02*
D03*
Y83748D02*
D03*
X348200Y50452D02*
D03*
Y56948D02*
D03*
X324800Y131548D02*
D03*
Y125052D02*
D03*
X325100Y105448D02*
D03*
Y98952D02*
D03*
X348200Y124552D02*
D03*
Y131048D02*
D03*
X348600Y98752D02*
D03*
Y105248D02*
D03*
X262900Y83348D02*
D03*
Y76852D02*
D03*
X263300Y59248D02*
D03*
Y52752D02*
D03*
X287200Y77452D02*
D03*
Y83948D02*
D03*
X287400Y52552D02*
D03*
Y59048D02*
D03*
X263100Y106248D02*
D03*
Y99752D02*
D03*
X263500Y129748D02*
D03*
Y123252D02*
D03*
X287200Y123352D02*
D03*
Y129848D02*
D03*
X287100Y99052D02*
D03*
Y105548D02*
D03*
X635700Y45447D02*
D03*
Y38951D02*
D03*
X509000Y45447D02*
D03*
Y38951D02*
D03*
X539700Y45447D02*
D03*
Y38951D02*
D03*
X572800Y45447D02*
D03*
Y38951D02*
D03*
X606100Y45447D02*
D03*
Y38951D02*
D03*
X651900Y95848D02*
D03*
Y89352D02*
D03*
X663100Y96048D02*
D03*
Y89552D02*
D03*
X567700Y132348D02*
D03*
Y125852D02*
D03*
X584400Y125752D02*
D03*
Y132248D02*
D03*
X585300Y80252D02*
D03*
Y86748D02*
D03*
X60400Y65652D02*
D03*
Y72148D02*
D03*
X43600Y38552D02*
D03*
Y45048D02*
D03*
X9000Y55952D02*
D03*
Y62448D02*
D03*
X19900Y55952D02*
D03*
Y62448D02*
D03*
X34400Y104052D02*
D03*
Y110548D02*
D03*
D291*
X456200Y85321D02*
D03*
X459940Y75479D02*
D03*
X455600Y58821D02*
D03*
X459340Y48979D02*
D03*
X455800Y105921D02*
D03*
X459540Y96079D02*
D03*
X456200Y132821D02*
D03*
X459940Y122979D02*
D03*
X395500Y58821D02*
D03*
X399240Y48979D02*
D03*
X395600Y86021D02*
D03*
X399340Y76179D02*
D03*
X395900Y133721D02*
D03*
X399640Y123879D02*
D03*
X395700Y106521D02*
D03*
X399440Y96679D02*
D03*
X335600Y59121D02*
D03*
X339340Y49279D02*
D03*
X335200Y85621D02*
D03*
X338940Y75779D02*
D03*
X335400Y133621D02*
D03*
X339140Y123779D02*
D03*
X335800Y107421D02*
D03*
X339540Y97579D02*
D03*
X274300Y86121D02*
D03*
X278040Y76279D02*
D03*
X274500Y61921D02*
D03*
X278240Y52079D02*
D03*
X274500Y132221D02*
D03*
X278240Y122379D02*
D03*
X273900Y108521D02*
D03*
X277640Y98679D02*
D03*
D292*
X452460Y75479D02*
D03*
X451860Y48979D02*
D03*
X452060Y96079D02*
D03*
X452460Y122979D02*
D03*
X391760Y48979D02*
D03*
X391860Y76179D02*
D03*
X392160Y123879D02*
D03*
X391960Y96679D02*
D03*
X331860Y49279D02*
D03*
X331460Y75779D02*
D03*
X331660Y123779D02*
D03*
X332060Y97579D02*
D03*
X270560Y76279D02*
D03*
X270760Y52079D02*
D03*
Y122379D02*
D03*
X270160Y98679D02*
D03*
D293*
X615652Y22879D02*
D03*
X622148D02*
D03*
X583052D02*
D03*
X589548D02*
D03*
X551152D02*
D03*
X557648D02*
D03*
X518752D02*
D03*
X525248D02*
D03*
X650352Y80700D02*
D03*
X656848D02*
D03*
X664852Y80800D02*
D03*
X671348D02*
D03*
X28052Y46800D02*
D03*
X34548D02*
D03*
X43848Y85300D02*
D03*
X37352D02*
D03*
X484652Y22879D02*
D03*
X491148D02*
D03*
D294*
X639121Y27800D02*
D03*
X629279Y24060D02*
D03*
X607021Y27800D02*
D03*
X597179Y24060D02*
D03*
X574621Y27800D02*
D03*
X564779Y24060D02*
D03*
X544121Y27800D02*
D03*
X534279Y24060D02*
D03*
X509421Y27800D02*
D03*
X499579Y24060D02*
D03*
D295*
X629279Y31540D02*
D03*
X597179D02*
D03*
X564779D02*
D03*
X534279D02*
D03*
X499579D02*
D03*
D296*
X580239Y93929D02*
D03*
X577679D02*
D03*
X575120D02*
D03*
X572561D02*
D03*
X580239Y110071D02*
D03*
X577679D02*
D03*
X575120D02*
D03*
X572561D02*
D03*
D297*
X47037Y58728D02*
D03*
X45068D02*
D03*
X43100D02*
D03*
X41131D02*
D03*
X39163D02*
D03*
X47037Y74672D02*
D03*
X45068D02*
D03*
X43100D02*
D03*
X41131D02*
D03*
X39163D02*
D03*
D298*
X52600Y139902D02*
D03*
X48033Y127698D02*
D03*
X57167D02*
D03*
M02*
