M48
;Layer_Color=9474304
;FILE_FORMAT=2:5
INCH,LZ
;TYPE=PLATED
T1F00S00C0.01500
T2F00S00C0.03100
T3F00S00C0.03543
T4F00S00C0.04300
;TYPE=NON_PLATED
T5F00S00C0.11811
T6F00S00C0.44094
%
T01
X00362Y00047
X00433Y00048
X00397Y00089
X0043Y0013
X00507Y00134
X00473Y00091
X00553Y0009
X00576Y0005
X00512Y00049
X00641Y00052
X0066Y0066
X00686
X00522Y00741
X00497
X01094Y00821
X01313Y00833
X01263Y00631
X01464Y00671
X01665Y00586
X01863Y00552
X0194Y00475
X01967Y00472
X02088Y00743
X02154Y00744
X02208Y00745
X0226Y00747
X02316Y00748
X01054Y00423
X01028
X02733Y00536
X02732Y00779
X03339Y00774
X03344Y0051
X03941Y00507
X03942Y0078
X04549Y00772
X04544Y00507
X04954Y00317
X05301Y00314
X05605
X0547Y0071
X0573
X0583Y00757
X0586Y0075
X05785Y0085
X05695
X06259Y007
X06282
X06309Y00699
X0625Y00315
X0593Y00313
X0569Y00937
X05664
X04544Y00978
X04549Y01248
X03945Y01256
X03944Y00984
X03346Y00992
X03342Y01253
X02734Y01243
X02727Y01003
X02319Y01025
X02245
X02175
X02106
X02034
X01904Y00967
X01713Y0094
X01513Y00903
X01152Y00918
X01092Y00914
X01038Y00921
X01052Y00869
X01137Y00866
X0113Y00972
X01058
X01091Y0102
X01006Y01142
X01213Y01296
X01337Y01206
X01413Y01456
X01562Y01379
X01613Y01495
X01764Y01422
X01813Y01521
X00985Y01135
X00967Y01119
T02
X00095Y00731
X00195
X02972Y0076756
Y0066756
Y0056756
X03577
Y0066756
Y0076756
X04182
Y0066756
Y0056756
X04787
Y0066756
Y0076756
Y0104
Y0114
Y0124
X04182
Y0114
Y0104
X03577
Y0114
Y0124
X02972
Y0114
Y0104
T03
X00613Y00234
X00713
X00813
X00913
Y00334
X00813
X00713
X00613
X01013
X01113
X01213
X01313
X01413
X01513
X01613
X01713
X01813
X01913
X02013
X02113
X02213
X02313
X02413
X02513
Y00234
X02413
X02313
X02213
X02113
X02013
X01913
X01813
X01713
X01613
X01513
X01413
X01313
X01213
X01113
X01013
X05216Y00409
Y00509
X05509
Y00409
X0584
Y00509
X06166
Y00409
X06468
Y00509
X06819Y00823
Y00923
X05957Y01247
Y01347
X05571Y01338
Y01238
T04
X013304Y01047
X00543
T05
X002Y002
X0673
Y0138
X002
T06
X06199Y00969
X0534
M30
