<?xml version="1.0" encoding="utf-8" standalone="no"?>
<!DOCTYPE svg PUBLIC "-//W3C//DTD SVG 1.1//EN" "http://www.w3.org/Graphics/SVG/1.1/DTD/svg11.dtd">
<!-- Created with Skedio (http://skedio.shturmsoft.com/) -->
<svg version="1.1" xmlns="http://www.w3.org/2000/svg" xmlns:xlink="http://www.w3.org/1999/xlink" width="2771pt" height="1747pt" viewBox="0 0 2771 1747">
<rect x="0" y="0" width="2771" height="1747" stroke="none" fill="#FFFFFF"/>
<g id="layer1">
	<g>
		<path fill="none" stroke="#000000" stroke-width="1.00" stroke-linecap="round" stroke-linejoin="round" d="M1013.387 224.279C1012.746,225.531 1012.106,226.782 1011.465,228.034 "/>
		<path fill="none" stroke="#000000" stroke-width="1.00" stroke-linecap="round" stroke-linejoin="round" d="M1007.622 228.973C1010.370,228.368 1013.315,228.409 1015.866,227.159 1018.650,225.795 1021.156,223.974 1023.516,220.759 1027.380,215.493 1032.050,203.294 1033.572,196.251 1034.652,191.253 1034.488,188.155 1034.046,182.960 1033.404,175.423 1030.878,163.040 1028.328,155.522 1026.425,149.914 1024.261,144.352 1021.544,141.417 1019.745,139.476 1016.300,137.390 1015.549,137.913 1014.815,138.424 1015.160,141.718 1016.918,144.288 1022.704,152.749 1064.096,172.097 1076.592,184.134 1083.934,191.206 1088.041,198.102 1090.959,204.061 1093.007,208.242 1094.150,211.935 1094.340,215.596 1094.510,218.846 1094.082,221.695 1092.633,224.910 1090.692,229.219 1086.431,234.932 1082.067,238.427 1077.709,241.916 1072.037,244.395 1066.475,245.871 1060.750,247.390 1054.388,247.103 1048.142,247.232 1041.632,247.367 1035.500,247.670 1028.174,246.580 1018.841,245.190 1005.592,242.510 996.917,238.160 989.504,234.443 981.526,227.836 978.498,223.626 976.888,221.388 976.246,219.807 976.306,217.450 976.387,214.226 978.029,208.841 980.984,206.105 984.403,202.939 991.027,201.261 996.849,200.810 1003.663,200.282 1011.867,202.296 1019.484,204.628 1027.932,207.215 1036.558,212.409 1045.096,216.300 "/>
		<path fill="none" stroke="#000000" stroke-width="1.00" stroke-linecap="round" stroke-linejoin="round" d="M1096.502 224.279C1098.968,227.241 1100.540,231.656 1103.900,233.165 1107.645,234.848 1114.264,234.988 1118.466,232.794 1123.574,230.127 1128.777,221.371 1130.893,215.615 1132.643,210.857 1131.641,201.277 1131.990,201.279 1132.384,201.282 1131.927,214.417 1133.110,219.578 1134.033,223.607 1135.311,227.451 1137.358,229.949 1139.027,231.986 1141.477,233.736 1143.624,234.149 1145.530,234.516 1147.403,234.011 1149.479,232.915 1152.801,231.163 1157.564,227.297 1160.400,222.402 1164.410,215.481 1165.541,193.160 1167.607,193.300 1170.784,193.516 1174.212,245.295 1174.748,263.823 1175.096,275.835 1175.201,285.386 1173.466,293.580 1172.172,299.686 1170.907,305.503 1167.407,309.025 1164.119,312.333 1158.024,314.945 1153.624,314.643 1149.298,314.347 1144.115,310.284 1141.208,307.448 1138.921,305.217 1137.226,302.810 1136.634,299.941 1135.958,296.672 1136.016,293.197 1138.239,288.703 1143.259,278.556 1167.065,262.863 1179.121,246.830 1192.180,229.465 1204.748,189.672 1212.767,187.433 1215.512,186.666 1217.695,189.132 1219.879,191.306 1223.137,194.549 1226.232,200.836 1228.409,206.931 1231.105,214.482 1231.297,233.590 1233.426,233.667 1235.834,233.753 1238.986,202.208 1242.401,200.021 1243.433,199.360 1244.461,199.696 1245.614,200.514 1248.859,202.815 1253.267,219.747 1257.299,222.941 1259.292,224.520 1260.666,225.185 1263.379,224.538 1271.911,222.504 1309.007,183.115 1309.335,183.443 1309.515,183.624 1299.685,191.933 1296.228,196.756 1292.985,201.280 1290.379,206.658 1288.904,211.345 1287.656,215.313 1286.665,219.416 1287.235,222.870 1287.745,225.958 1289.622,229.029 1291.465,231.205 1293.084,233.117 1294.554,234.532 1297.324,235.544 1302.034,237.266 1310.423,237.858 1318.539,236.943 1330.032,235.647 1345.713,228.813 1359.300,224.748 "/>
		<path fill="none" stroke="#000000" stroke-width="1.00" stroke-linecap="round" stroke-linejoin="round" d="M1428.963 149.648C1430.981,179.531 1435.684,239.240 1435.017,239.299 1434.499,239.345 1429.729,202.160 1428.617,185.623 1427.668,171.501 1425.137,146.979 1428.002,146.223 1430.337,145.608 1436.047,163.781 1441.120,169.029 1444.895,172.934 1449.234,176.670 1453.610,176.834 1458.233,177.008 1463.659,172.835 1468.190,169.195 1473.557,164.883 1479.372,150.916 1482.907,151.657 1486.594,152.430 1487.945,165.380 1489.498,175.463 1492.078,192.219 1491.099,220.837 1491.900,243.524 "/>
		<path fill="none" stroke="#000000" stroke-width="1.00" stroke-linecap="round" stroke-linejoin="round" d="M1513.520 204.565C1511.903,207.894 1509.746,210.531 1508.671,214.551 1507.223,219.968 1507.143,229.935 1507.274,234.566 1507.344,237.038 1507.071,238.261 1507.995,240.238 1509.367,243.177 1512.890,247.715 1516.643,249.626 1520.775,251.730 1527.648,251.816 1532.203,251.503 1535.855,251.252 1538.834,251.124 1541.940,248.939 1546.765,245.546 1554.167,236.028 1555.402,229.134 1556.552,222.715 1552.710,213.972 1550.392,209.116 1548.862,205.909 1547.696,203.787 1544.952,201.871 1541.179,199.236 1532.467,195.472 1528.357,196.795 1524.869,197.917 1522.334,202.926 1520.967,206.677 1519.548,210.567 1519.254,216.266 1520.246,219.820 1521.032,222.639 1522.902,224.982 1524.932,226.716 1526.919,228.414 1529.165,229.546 1532.238,230.186 1536.803,231.137 1542.923,230.961 1550.151,229.619 1562.110,227.398 1596.756,215.668 1596.356,213.483 1596.068,211.907 1577.108,212.152 1570.794,213.745 1566.688,214.781 1563.090,216.597 1561.275,218.764 1559.908,220.395 1559.352,222.304 1559.485,224.499 1559.673,227.614 1561.504,232.953 1564.455,235.557 1567.771,238.483 1575.143,240.774 1579.308,240.238 1582.673,239.805 1585.214,237.191 1587.864,234.832 1590.911,232.120 1593.773,229.238 1596.204,224.485 1600.135,216.797 1603.960,202.188 1605.255,191.188 1606.485,180.736 1605.607,167.799 1604.283,160.100 1603.471,155.382 1601.812,148.900 1600.722,148.946 1599.471,148.999 1598.013,157.709 1597.355,163.964 1596.295,174.060 1596.519,191.404 1597.808,204.018 1598.982,215.501 1600.954,228.005 1604.160,236.632 1606.483,242.882 1609.235,248.932 1612.843,251.849 1615.484,253.984 1618.968,255.583 1621.913,254.789 1625.929,253.706 1630.682,246.878 1633.526,241.634 1636.677,235.826 1638.873,226.533 1639.200,221.049 1639.414,217.471 1638.059,212.057 1637.844,212.075 1637.549,212.100 1637.440,223.572 1638.297,229.127 1639.147,234.636 1640.060,243.439 1642.932,245.275 1644.833,246.490 1647.927,245.816 1650.380,244.259 1654.823,241.439 1659.667,223.468 1663.415,223.810 1667.345,224.168 1669.570,243.731 1673.236,248.484 1675.213,251.048 1676.991,252.285 1679.510,253.146 1682.394,254.133 1686.647,254.194 1689.845,253.381 1693.022,252.573 1695.920,250.708 1698.641,248.314 1701.953,245.402 1705.092,241.114 1707.641,236.445 1710.672,230.893 1714.023,224.710 1714.822,216.769 1715.974,205.316 1711.476,186.199 1708.328,173.783 1705.819,163.882 1702.273,148.929 1698.925,147.728 1697.510,147.220 1695.858,148.791 1694.567,150.211 1692.561,152.417 1690.913,156.919 1689.717,161.119 1688.224,166.362 1687.678,173.021 1687.203,179.486 1686.675,186.650 1686.019,194.061 1686.957,202.242 1688.088,212.108 1690.243,225.585 1694.801,234.439 1698.707,242.028 1704.054,249.205 1710.802,253.066 1717.559,256.933 1729.254,258.286 1735.329,257.605 1739.128,257.180 1741.174,255.843 1744.261,253.754 1748.657,250.780 1755.476,244.810 1758.114,239.938 1760.236,236.017 1760.717,231.670 1760.634,227.657 1760.553,223.767 1759.429,220.077 1757.789,216.216 1755.871,211.701 1752.210,204.159 1749.196,202.475 1747.496,201.525 1745.229,201.585 1743.953,202.390 1742.553,203.273 1741.878,205.302 1741.454,208.047 1740.469,214.418 1742.203,231.228 1745.103,241.049 1747.662,249.719 1752.705,258.521 1756.719,264.299 1759.497,268.299 1762.412,270.409 1765.259,273.463 "/>
	</g>
	<g>
		<path fill="none" stroke="#FF0000" stroke-width="1.00" stroke-linecap="round" stroke-linejoin="round" d="M1297.386 538.536C1298.383,564.751 1300.207,586.194 1300.377,617.182 1300.624,661.947 1297.417,738.585 1295.943,781.354 1294.998,808.796 1294.343,836.742 1293.112,848.914 1292.653,853.453 1290.810,857.778 1291.616,858.213 1292.086,858.466 1293.238,856.723 1294.350,856.267 1295.677,855.721 1296.482,855.796 1299.188,855.450 1312.761,853.717 1385.736,848.840 1422.417,844.690 1452.189,841.322 1482.628,835.370 1503.047,833.471 1515.454,832.318 1521.073,832.194 1533.116,832.049 1551.212,831.830 1585.295,832.597 1601.087,833.622 1609.576,834.174 1613.613,834.869 1620.602,835.711 1628.750,836.692 1636.155,837.462 1647.020,839.250 1664.784,842.174 1706.093,860.952 1716.829,852.902 1726.123,845.933 1717.526,824.121 1716.537,803.672 1714.895,769.713 1707.550,698.067 1704.234,668.374 1702.602,653.760 1700.430,648.951 1699.908,635.728 1699.107,615.414 1701.936,579.243 1704.020,558.208 1705.460,543.676 1715.170,528.343 1709.363,521.492 1703.486,514.561 1682.616,517.973 1668.432,517.246 1653.180,516.464 1640.839,516.786 1620.803,517.289 1586.471,518.152 1521.486,521.595 1481.170,524.184 1450.309,526.166 1426.179,529.934 1399.537,530.640 1374.067,531.315 1343.133,527.959 1324.687,528.699 1313.814,529.136 1304.250,530.314 1298.846,531.454 1296.285,531.994 1295.166,532.634 1293.326,533.224 "/>
		<path fill="none" stroke="#FF0000" stroke-width="1.00" stroke-linecap="round" stroke-linejoin="round" d="M1386.143 691.626C1389.118,690.504 1392.819,689.490 1395.066,688.259 1396.608,687.414 1397.594,686.793 1398.664,685.569 1399.999,684.042 1401.148,681.695 1402.063,679.460 1403.061,677.019 1403.953,674.848 1404.278,671.429 1404.828,665.659 1403.816,655.161 1402.404,647.781 1401.111,641.022 1398.799,634.011 1396.547,628.769 1394.829,624.771 1391.820,618.545 1390.871,618.687 1390.361,618.763 1389.990,620.584 1390.158,621.952 1390.478,624.552 1392.862,628.438 1395.514,632.781 1400.114,640.316 1412.012,653.606 1417.138,662.010 1420.667,667.795 1423.424,672.811 1424.762,677.462 1425.765,680.943 1425.715,683.958 1425.748,687.064 1425.779,689.984 1425.622,693.113 1425.055,695.574 1424.593,697.575 1423.802,699.342 1423.004,700.833 1422.344,702.066 1421.761,703.151 1420.789,703.994 1419.756,704.890 1418.371,705.588 1416.898,705.965 1415.197,706.399 1413.209,706.518 1411.090,706.148 1408.316,705.664 1404.814,703.997 1401.827,702.479 1398.761,700.921 1395.695,698.964 1392.945,696.873 1390.247,694.821 1387.951,692.672 1385.461,690.074 1382.597,687.083 1378.370,682.443 1376.889,679.784 1376.103,678.373 1375.237,677.225 1375.695,676.202 1376.396,674.637 1380.945,673.206 1383.812,672.708 1386.772,672.194 1390.829,672.749 1393.208,673.296 1394.754,673.652 1395.663,674.305 1396.890,674.809 "/>
		<path fill="none" stroke="#FF0000" stroke-width="1.00" stroke-linecap="round" stroke-linejoin="round" d="M1427.539 695.407C1428.382,695.755 1428.991,696.299 1430.067,696.450 1431.787,696.693 1434.952,696.512 1437.018,695.674 1439.058,694.848 1440.901,693.356 1442.405,691.502 1444.171,689.328 1446.144,682.952 1446.501,683.068 1446.783,683.160 1445.556,686.724 1445.451,688.854 1445.322,691.439 1445.691,695.365 1446.147,697.498 1446.428,698.808 1446.616,700.088 1447.242,700.581 1447.717,700.957 1448.385,701.072 1449.121,700.781 1450.921,700.068 1454.910,695.630 1456.496,692.223 1458.204,688.552 1457.824,679.267 1458.582,679.277 1459.689,679.292 1461.866,698.930 1462.307,707.071 1462.650,713.402 1462.440,720.192 1461.883,724.025 1461.589,726.043 1461.376,727.093 1460.655,728.566 1459.833,730.243 1458.587,732.234 1456.975,733.438 1455.267,734.714 1452.636,735.936 1450.554,735.853 1448.518,735.772 1445.594,734.205 1444.614,733.061 1444.019,732.366 1443.930,731.719 1443.935,730.739 1443.943,729.043 1444.577,726.724 1446.044,723.796 1449.258,717.380 1462.438,702.938 1466.690,695.709 1469.111,691.593 1469.823,687.431 1471.396,685.436 1472.232,684.376 1472.967,683.566 1473.908,683.466 1474.949,683.356 1476.336,684.172 1477.411,685.176 1478.972,686.633 1480.629,689.690 1481.507,692.292 1482.428,695.016 1482.026,701.174 1482.667,701.220 1483.411,701.274 1484.423,689.777 1485.930,689.557 1487.240,689.367 1488.876,695.252 1490.813,697.312 1492.541,699.151 1494.437,701.720 1496.736,701.577 1500.361,701.352 1506.430,691.828 1510.032,689.238 1512.145,687.718 1515.558,686.341 1515.514,686.253 1515.463,686.146 1509.590,688.141 1507.252,689.860 1504.960,691.545 1502.651,694.472 1501.573,696.402 1500.882,697.641 1500.427,698.688 1500.508,699.810 1500.592,700.969 1501.385,702.321 1502.155,703.244 1502.888,704.125 1503.616,704.581 1504.959,705.280 1507.597,706.653 1513.796,709.039 1517.595,709.637 1520.560,710.104 1523.231,709.875 1525.736,709.475 1527.974,709.117 1530.082,708.406 1531.951,707.571 1533.650,706.813 1534.809,706.203 1536.546,704.798 1539.509,702.400 1543.813,695.692 1547.229,693.406 1549.558,691.849 1551.649,691.380 1554.012,690.838 1556.435,690.282 1561.541,689.861 1561.603,690.158 1561.669,690.483 1555.333,691.837 1552.920,693.019 1550.986,693.967 1549.284,695.074 1548.044,696.303 1547.016,697.321 1545.588,698.721 1545.756,699.634 1545.915,700.500 1547.456,701.341 1548.744,701.697 1550.553,702.198 1553.892,701.969 1555.900,701.234 1557.653,700.593 1559.279,699.421 1560.295,697.981 1561.349,696.488 1561.271,692.356 1562.007,692.354 1563.319,692.352 1566.579,704.892 1567.520,710.156 1568.240,714.187 1568.530,717.523 1568.103,721.071 1567.679,724.588 1566.610,728.341 1564.999,731.353 1563.473,734.205 1560.802,737.220 1558.872,738.792 1557.611,739.819 1556.513,740.389 1555.232,740.711 1553.973,741.027 1552.486,740.972 1551.258,740.738 1550.121,740.522 1549.127,740.318 1548.096,739.466 1546.425,738.084 1543.894,734.663 1543.257,731.950 1542.629,729.277 1542.907,726.018 1544.214,723.328 1545.803,720.054 1549.409,717.511 1553.365,714.323 1559.215,709.608 1571.548,703.384 1576.856,698.950 1580.001,696.324 1581.853,694.290 1583.636,691.798 1585.220,689.582 1586.775,686.978 1587.256,684.895 1587.613,683.352 1587.793,681.868 1587.133,680.624 1586.321,679.095 1583.558,677.431 1581.886,676.853 1580.632,676.420 1579.213,676.352 1578.252,676.699 1577.448,676.990 1576.794,677.486 1576.367,678.408 1575.569,680.128 1575.796,684.469 1576.065,687.248 1576.311,689.788 1576.690,692.450 1577.729,694.449 1578.657,696.237 1579.956,697.797 1581.675,698.849 1583.643,700.054 1587.138,700.801 1589.170,700.833 1590.553,700.854 1591.438,700.586 1592.672,700.021 1594.361,699.248 1596.490,697.704 1598.113,696.043 1599.898,694.214 1601.482,689.153 1602.774,689.337 1604.248,689.546 1604.391,698.964 1606.172,699.416 1607.798,699.828 1611.192,693.740 1612.673,693.370 1613.291,693.216 1613.631,693.343 1614.169,693.766 1615.571,694.870 1618.145,700.363 1619.172,703.023 1619.886,704.869 1619.982,706.304 1620.387,707.945 "/>
	</g>
	<g>
		<path fill="none" stroke="#0392CE" stroke-width="1.00" stroke-linecap="round" stroke-linejoin="round" d="M1789.155 1309.306C1783.454,1311.686 1776.799,1313.156 1772.053,1316.445 1767.636,1319.506 1763.774,1324.249 1761.284,1327.990 1759.364,1330.874 1758.727,1333.245 1757.486,1336.452 1755.922,1340.496 1753.703,1346.673 1752.912,1350.427 1752.398,1352.871 1752.174,1354.298 1752.302,1356.609 1752.468,1359.614 1753.045,1363.640 1754.482,1366.895 1756.010,1370.357 1758.396,1373.748 1761.477,1376.691 1765.039,1380.093 1770.967,1383.855 1775.167,1385.606 1778.239,1386.887 1780.967,1387.078 1783.799,1387.487 1786.483,1387.875 1788.703,1388.291 1791.729,1388.063 1795.898,1387.749 1802.721,1386.204 1806.417,1384.729 1808.912,1383.734 1810.132,1382.847 1812.261,1381.245 1815.366,1378.910 1819.515,1375.675 1822.727,1371.432 1826.955,1365.848 1832.061,1355.595 1833.972,1349.631 1835.193,1345.821 1835.362,1343.038 1835.385,1339.798 1835.407,1336.635 1835.168,1333.277 1834.174,1330.414 1833.226,1327.682 1831.699,1325.221 1829.716,1322.941 1827.521,1320.416 1824.773,1317.870 1821.302,1316.141 1817.117,1314.057 1810.592,1312.388 1805.840,1312.232 1801.835,1312.101 1798.190,1313.307 1794.682,1314.284 1791.386,1315.202 1788.464,1316.636 1785.354,1317.812 "/>
		<path fill="none" stroke="#0392CE" stroke-width="1.00" stroke-linecap="round" stroke-linejoin="round" d="M1831.912 1370.673C1831.489,1371.328 1830.573,1371.873 1830.645,1372.637 1830.763,1373.897 1833.032,1376.225 1835.033,1377.312 1837.522,1378.665 1842.025,1379.928 1844.998,1379.179 1848.023,1378.417 1850.869,1375.005 1852.990,1372.632 1854.876,1370.520 1856.054,1368.551 1857.358,1365.844 1859.050,1362.330 1861.217,1352.958 1861.662,1353.053 1862.149,1353.157 1859.706,1364.074 1859.566,1369.045 1859.444,1373.368 1858.855,1379.731 1860.467,1381.198 1861.357,1382.008 1863.200,1381.722 1864.335,1381.268 1865.567,1380.775 1866.392,1379.623 1867.482,1378.103 1869.429,1375.388 1871.919,1365.483 1873.718,1365.505 1875.159,1365.523 1875.779,1371.201 1877.504,1373.683 1879.281,1376.240 1881.870,1379.110 1884.309,1380.580 1886.312,1381.785 1888.611,1382.527 1890.662,1382.521 1892.591,1382.516 1894.446,1381.667 1896.271,1380.772 1898.311,1379.771 1900.355,1378.585 1902.222,1376.597 1904.799,1373.854 1907.268,1369.000 1909.287,1364.966 1911.307,1360.927 1913.027,1357.494 1914.339,1352.377 1916.232,1344.994 1917.915,1331.566 1917.697,1324.481 1917.562,1320.092 1916.832,1313.992 1915.752,1313.863 1914.694,1313.737 1912.211,1319.771 1911.336,1323.309 1910.323,1327.403 1910.315,1331.724 1910.693,1337.155 1911.243,1345.063 1914.197,1358.059 1916.108,1366.068 1917.492,1371.870 1918.754,1378.171 1920.427,1380.912 1921.213,1382.199 1921.843,1382.785 1922.939,1383.313 1924.261,1383.950 1925.776,1384.167 1928.034,1384.040 1932.683,1383.779 1942.075,1380.394 1949.096,1378.572 "/>
		<path fill="none" stroke="#0392CE" stroke-width="1.00" stroke-linecap="round" stroke-linejoin="round" d="M1896.205 1335.129C1909.368,1335.181 1927.611,1334.797 1935.695,1335.287 1939.297,1335.505 1941.072,1335.408 1943.475,1336.202 1945.852,1336.986 1947.856,1338.727 1950.046,1339.989 "/>
		<path fill="none" stroke="#0392CE" stroke-width="1.00" stroke-linecap="round" stroke-linejoin="round" d="M1723.279 1473.052C1725.687,1472.637 1728.128,1472.880 1730.505,1471.807 1733.477,1470.466 1737.052,1467.428 1739.273,1464.698 1741.338,1462.159 1742.669,1459.172 1743.646,1456.145 1744.643,1453.053 1745.076,1449.727 1745.132,1446.318 1745.192,1442.636 1744.548,1438.552 1743.772,1434.805 1743.008,1431.112 1742.222,1427.859 1740.539,1423.989 1738.374,1419.009 1734.249,1411.036 1731.038,1407.736 1729.119,1405.764 1725.957,1403.690 1725.233,1404.090 1724.749,1404.359 1724.987,1406.006 1725.407,1407.068 1726.036,1408.656 1727.589,1409.882 1729.724,1412.300 1735.020,1418.298 1751.983,1434.389 1758.453,1442.740 1762.450,1447.899 1765.427,1452.796 1766.889,1456.160 1767.686,1457.991 1768.183,1458.919 1768.077,1460.667 1767.922,1463.208 1766.684,1467.122 1764.431,1469.844 1761.599,1473.266 1756.081,1476.313 1751.018,1478.514 1745.471,1480.925 1737.128,1482.945 1732.245,1483.264 1729.189,1483.464 1727.051,1482.973 1724.692,1482.377 1722.468,1481.814 1720.569,1481.357 1718.444,1479.885 1715.297,1477.706 1710.632,1473.006 1708.728,1469.129 1707.046,1465.703 1706.568,1461.039 1706.809,1458.165 1706.971,1456.240 1707.418,1454.727 1708.480,1453.441 1709.649,1452.027 1711.700,1450.789 1713.819,1450.248 1716.374,1449.595 1719.914,1450.463 1722.962,1450.571 "/>
		<path fill="none" stroke="#0392CE" stroke-width="1.00" stroke-linecap="round" stroke-linejoin="round" d="M1770.786 1468.495C1770.152,1468.904 1768.847,1469.217 1768.885,1469.721 1768.972,1470.869 1775.801,1473.861 1779.580,1474.649 1783.398,1475.445 1788.102,1475.293 1791.689,1474.419 1794.877,1473.642 1798.107,1472.080 1800.187,1470.198 1802.003,1468.555 1803.329,1466.392 1803.913,1464.183 1804.520,1461.889 1804.442,1458.797 1803.605,1456.642 1802.828,1454.642 1801.021,1452.770 1799.380,1451.569 1797.914,1450.496 1796.095,1449.740 1794.423,1449.522 1792.838,1449.314 1790.972,1449.352 1789.615,1450.152 1788.034,1451.084 1786.618,1453.213 1785.872,1455.351 1784.932,1458.042 1784.615,1462.264 1785.430,1465.346 1786.239,1468.401 1788.273,1471.415 1790.690,1473.773 1793.305,1476.326 1797.580,1478.825 1800.865,1479.850 1803.504,1480.672 1806.187,1480.644 1808.577,1480.380 1810.739,1480.141 1812.647,1479.642 1814.621,1478.581 1817.018,1477.292 1819.419,1475.114 1821.632,1472.673 1824.305,1469.726 1827.084,1465.674 1829.113,1461.770 1831.181,1457.789 1832.581,1453.449 1833.868,1448.987 1835.223,1444.286 1836.470,1439.198 1836.938,1434.214 1837.408,1429.206 1837.302,1422.526 1836.667,1419.009 1836.316,1417.063 1836.007,1415.860 1835.112,1414.596 1834.179,1413.278 1832.443,1411.856 1831.082,1411.319 1830.016,1410.898 1828.904,1410.822 1827.852,1411.078 1826.663,1411.367 1825.520,1412.188 1824.381,1413.233 1822.796,1414.687 1821.089,1416.989 1819.728,1419.494 1818.020,1422.637 1816.671,1426.315 1815.502,1430.899 1813.834,1437.435 1811.991,1448.565 1811.959,1455.280 1811.936,1460.001 1812.476,1463.079 1813.593,1467.349 1814.938,1472.492 1817.626,1479.951 1820.117,1483.852 1821.749,1486.406 1823.318,1487.940 1825.419,1489.457 1827.596,1491.029 1830.518,1492.344 1833.028,1493.039 1835.249,1493.655 1837.528,1493.923 1839.630,1493.717 1841.633,1493.520 1843.662,1492.807 1845.370,1491.951 1846.989,1491.140 1848.395,1490.174 1849.675,1488.795 1851.194,1487.159 1852.738,1484.719 1853.577,1482.504 1854.388,1480.364 1854.691,1477.947 1854.715,1475.755 1854.738,1473.681 1854.558,1471.749 1853.828,1469.689 1852.963,1467.248 1851.262,1463.684 1849.406,1462.206 1847.997,1461.084 1845.919,1460.531 1844.517,1460.597 1843.422,1460.648 1842.632,1461.014 1841.649,1461.850 1839.788,1463.435 1836.846,1467.899 1835.775,1471.108 1834.788,1474.067 1834.068,1477.892 1835.079,1480.301 1835.977,1482.439 1838.485,1484.238 1840.716,1485.164 1843.016,1486.117 1845.940,1485.920 1848.738,1485.812 1851.843,1485.691 1854.156,1485.246 1858.513,1484.250 1867.755,1482.135 1900.832,1470.883 1901.069,1471.479 1901.205,1471.821 1891.474,1474.866 1887.625,1477.324 1884.125,1479.560 1880.876,1482.579 1878.692,1485.294 1876.935,1487.477 1875.026,1489.960 1874.961,1491.956 1874.909,1493.538 1875.838,1495.274 1877.028,1496.278 1878.344,1497.389 1880.763,1497.843 1882.810,1498.012 1885.039,1498.196 1887.490,1497.840 1889.923,1497.112 1892.788,1496.254 1896.072,1494.508 1898.774,1492.757 1901.426,1491.038 1903.667,1489.270 1906.012,1486.732 1908.976,1483.527 1912.193,1478.728 1914.581,1474.579 1916.844,1470.648 1918.519,1466.601 1920.109,1462.521 1921.677,1458.496 1923.211,1454.214 1924.075,1450.268 1924.853,1446.717 1925.031,1443.641 1925.297,1439.951 1925.604,1435.708 1926.188,1429.292 1925.659,1426.224 1925.379,1424.602 1924.865,1422.595 1924.274,1422.622 1922.638,1422.696 1917.747,1442.513 1916.392,1451.104 1915.306,1457.990 1915.009,1465.151 1915.585,1470.022 1915.958,1473.175 1916.753,1475.345 1917.765,1477.678 1918.704,1479.842 1919.769,1481.913 1921.318,1483.602 1922.890,1485.317 1924.880,1486.723 1927.158,1487.863 1929.757,1489.164 1933.164,1490.376 1936.248,1490.673 1939.307,1490.966 1942.597,1490.299 1945.586,1489.665 1948.474,1489.053 1951.430,1488.149 1953.904,1486.993 1956.139,1485.947 1957.997,1484.808 1959.879,1483.204 1962.023,1481.377 1965.051,1478.491 1965.882,1476.394 1966.436,1474.997 1966.585,1473.493 1965.983,1472.433 1965.313,1471.253 1963.320,1470.385 1961.606,1469.862 1959.585,1469.245 1957.075,1468.988 1954.482,1469.407 1951.075,1469.957 1945.844,1472.239 1943.131,1474.015 1941.263,1475.236 1940.359,1476.346 1939.051,1478.020 1937.350,1480.196 1934.491,1483.655 1934.210,1486.267 1933.977,1488.437 1934.928,1491.048 1936.269,1492.495 1937.540,1493.867 1939.874,1494.406 1941.847,1494.913 1943.879,1495.436 1945.711,1495.795 1948.304,1495.533 1952.454,1495.114 1959.542,1493.032 1964.140,1490.673 1968.354,1488.509 1972.610,1485.391 1975.066,1482.318 1977.049,1479.837 1978.612,1476.589 1978.697,1474.312 1978.759,1472.661 1977.830,1471.227 1977.106,1469.978 1976.455,1468.854 1975.887,1467.818 1974.683,1467.082 1972.993,1466.048 1969.786,1465.184 1967.265,1465.334 1964.538,1465.497 1960.938,1467.003 1958.917,1468.393 1957.383,1469.448 1956.605,1470.671 1955.631,1472.197 1954.446,1474.054 1952.828,1477.258 1952.617,1478.915 1952.500,1479.834 1952.510,1480.510 1952.998,1481.135 1953.695,1482.026 1955.608,1482.621 1957.290,1483.112 1959.432,1483.737 1962.226,1484.249 1964.939,1484.168 1968.060,1484.076 1971.833,1483.138 1974.949,1482.169 1977.862,1481.264 1980.410,1480.419 1983.109,1478.661 1986.485,1476.460 1991.171,1472.390 1993.137,1469.293 1994.550,1467.068 1995.003,1464.652 1995.242,1462.657 1995.431,1461.079 1995.629,1459.847 1994.942,1458.332 1993.878,1455.990 1987.223,1451.142 1987.535,1450.779 1987.899,1450.356 1997.673,1456.005 1999.994,1458.319 2001.249,1459.571 2001.654,1460.483 2002.151,1461.901 2002.769,1463.661 2003.262,1465.786 2002.981,1468.215 2002.574,1471.744 2000.057,1477.331 1998.233,1480.855 1996.786,1483.649 1993.667,1486.428 1993.436,1487.938 1993.338,1488.579 1993.386,1488.975 1993.882,1489.401 1995.294,1490.614 2001.871,1491.291 2006.570,1491.542 2012.355,1491.852 2019.562,1490.760 2026.057,1490.368 "/>
		<path fill="none" stroke="#0392CE" stroke-width="1.00" stroke-linecap="round" stroke-linejoin="round" d="M1914.574 1442.065C1926.134,1442.571 1939.192,1442.666 1949.254,1443.584 1957.073,1444.298 1963.084,1445.508 1969.999,1446.470 "/>
		<path fill="none" stroke="#0392CE" stroke-width="1.00" stroke-linecap="round" stroke-linejoin="round" d="M1584.348 1261.023C1583.665,1261.678 1582.823,1261.911 1582.300,1262.988 1581.175,1265.302 1581.234,1270.697 1581.131,1275.777 1580.980,1283.243 1581.616,1293.667 1582.537,1303.469 1583.587,1314.654 1586.152,1325.815 1587.452,1339.258 1589.116,1356.468 1590.170,1376.645 1590.781,1398.328 1591.528,1424.851 1591.437,1459.384 1590.781,1486.844 1590.209,1510.769 1589.226,1535.217 1587.574,1553.960 1586.376,1567.548 1581.042,1588.051 1583.061,1589.003 1583.845,1589.373 1584.865,1586.253 1587.007,1585.259 1591.550,1583.152 1600.623,1583.334 1611.788,1582.375 1634.865,1580.392 1684.947,1579.288 1718.252,1576.456 1747.846,1573.940 1768.462,1569.846 1801.863,1566.870 1851.494,1562.450 1956.874,1555.797 1987.389,1555.063 1997.370,1554.824 1998.448,1554.799 2007.278,1555.372 2025.062,1556.525 2063.325,1562.601 2087.407,1564.549 2107.071,1566.139 2141.146,1566.982 2141.143,1567.097 2141.143,1567.115 2140.265,1567.460 2139.857,1567.097 2136.651,1564.239 2136.801,1520.814 2134.066,1491.196 2130.194,1449.248 2120.132,1378.602 2117.611,1339.371 2116.021,1314.648 2116.031,1295.699 2116.375,1278.758 2116.624,1266.514 2120.716,1249.347 2118.305,1247.139 2117.569,1246.465 2116.621,1247.590 2115.242,1247.448 2112.163,1247.130 2106.394,1244.103 2100.654,1242.833 2092.806,1241.095 2084.060,1240.058 2072.190,1239.123 2052.599,1237.579 2024.134,1236.552 1993.952,1236.957 1952.442,1237.515 1886.333,1241.656 1846.139,1245.026 1818.325,1247.359 1797.349,1251.072 1775.736,1253.001 1757.367,1254.641 1738.696,1255.540 1724.647,1256.340 1714.792,1256.900 1710.489,1257.308 1699.481,1257.560 1678.517,1258.041 1630.145,1255.515 1608.084,1257.321 1595.415,1258.358 1584.948,1260.195 1578.393,1262.297 1574.896,1263.418 1573.302,1264.791 1570.756,1266.038 "/>
	</g>
	<g>
		<path fill="none" stroke="#66B032" stroke-width="1.00" stroke-linecap="round" stroke-linejoin="round" d="M547.035 1179.448C547.035,1179.681 546.891,1180.030 547.035,1180.146 547.290,1180.350 548.377,1179.972 549.150,1179.673 550.219,1179.260 551.505,1178.634 552.749,1177.621 554.530,1176.170 556.610,1173.598 558.361,1171.247 560.255,1168.704 562.200,1165.660 563.624,1162.825 564.946,1160.195 566.019,1157.782 566.739,1154.863 567.557,1151.543 568.792,1145.332 567.959,1143.876 567.633,1143.305 566.757,1143.059 566.408,1143.180 566.123,1143.280 566.073,1143.604 565.889,1144.182 565.061,1146.786 563.319,1157.572 562.733,1166.844 561.815,1181.399 563.962,1223.188 563.426,1223.214 563.068,1223.231 561.654,1205.998 561.328,1198.196 561.043,1191.361 560.984,1185.422 561.333,1178.928 561.692,1172.250 562.774,1162.897 563.510,1158.666 563.852,1156.705 563.950,1155.875 564.542,1154.410 565.256,1152.639 566.315,1150.368 567.772,1148.894 569.241,1147.408 571.271,1146.323 573.338,1145.548 575.561,1144.713 578.417,1143.979 580.741,1144.226 582.933,1144.460 585.087,1145.411 586.934,1146.763 589.003,1148.278 591.036,1151.069 592.322,1153.216 593.383,1154.988 594.137,1156.590 594.463,1158.524 594.825,1160.675 594.425,1163.277 594.114,1165.585 593.808,1167.857 593.576,1170.005 592.632,1172.268 591.499,1174.985 589.090,1178.712 587.283,1180.572 586.071,1181.820 584.959,1182.406 583.614,1183.090 582.195,1183.811 580.700,1184.716 578.951,1184.735 576.718,1184.760 573.261,1183.696 571.297,1182.224 569.466,1180.852 567.367,1176.433 567.334,1176.454 567.294,1176.481 570.960,1181.269 572.983,1185.242 576.633,1192.408 582.190,1211.364 585.304,1216.927 586.539,1219.135 587.305,1219.889 588.541,1221.188 589.807,1222.517 591.182,1223.887 592.830,1224.792 594.568,1225.746 596.744,1226.385 598.772,1226.664 600.799,1226.942 602.988,1226.842 604.992,1226.463 606.975,1226.088 608.701,1225.498 610.738,1224.424 613.465,1222.985 617.296,1220.454 619.571,1217.983 621.588,1215.792 623.047,1213.135 624.044,1210.648 624.944,1208.402 625.234,1206.094 625.534,1203.809 625.829,1201.563 626.171,1199.416 625.848,1197.055 625.473,1194.311 624.066,1190.068 622.991,1188.381 622.439,1187.514 622.041,1187.119 621.239,1186.733 620.120,1186.196 618.000,1185.627 616.607,1186.074 615.091,1186.561 613.616,1188.401 612.597,1189.910 611.562,1191.442 610.967,1193.373 610.473,1195.220 609.968,1197.106 609.653,1198.883 609.628,1201.121 609.593,1204.064 609.491,1208.757 610.853,1211.357 611.999,1213.545 614.314,1215.323 616.318,1216.196 618.111,1216.978 620.119,1216.813 622.134,1216.763 624.330,1216.707 626.178,1216.590 628.996,1215.742 634.074,1214.213 644.440,1208.875 649.402,1206.206 652.389,1204.600 656.517,1202.340 656.362,1201.941 656.243,1201.632 652.990,1202.258 651.529,1202.864 650.113,1203.451 649.029,1204.254 647.705,1205.465 645.814,1207.196 643.020,1210.734 641.729,1212.766 640.919,1214.040 640.391,1214.894 640.125,1216.114 639.839,1217.427 639.708,1219.573 640.201,1220.413 640.515,1220.950 641.019,1221.161 641.716,1221.296 642.972,1221.539 645.659,1220.984 647.357,1220.468 648.877,1220.007 650.159,1219.458 651.480,1218.506 653.056,1217.371 654.650,1215.534 655.982,1213.830 657.327,1212.108 658.530,1210.392 659.501,1208.219 660.662,1205.621 662.113,1199.125 662.117,1199.126 662.118,1199.127 661.778,1199.688 661.768,1200.360 661.723,1203.284 666.557,1218.011 667.669,1223.938 668.329,1227.460 668.505,1229.778 668.742,1232.455 668.953,1234.829 669.174,1236.866 669.091,1239.194 669.002,1241.711 668.686,1244.491 668.124,1247.031 667.570,1249.535 666.760,1252.062 665.762,1254.332 664.814,1256.486 663.677,1258.583 662.351,1260.351 661.111,1262.004 659.809,1263.245 658.135,1264.684 656.087,1266.445 653.589,1268.802 650.783,1269.944 647.779,1271.167 642.702,1272.001 640.548,1271.514 639.420,1271.258 638.891,1270.726 638.199,1269.914 637.228,1268.776 636.110,1266.821 635.821,1264.857 635.459,1262.393 636.339,1259.120 637.114,1256.148 637.975,1252.848 638.915,1249.624 640.971,1245.995 643.844,1240.927 648.760,1235.515 654.101,1229.360 661.401,1220.948 677.014,1206.042 681.406,1200.704 682.970,1198.802 683.459,1198.171 684.306,1196.603 685.285,1194.792 686.477,1192.053 686.763,1190.365 686.947,1189.280 687.099,1188.075 686.654,1187.595 686.265,1187.176 685.056,1187.004 684.551,1187.354 683.857,1187.833 683.782,1189.507 683.577,1191.225 683.186,1194.496 683.073,1202.094 683.700,1205.688 684.090,1207.923 684.566,1209.504 685.549,1210.970 686.489,1212.371 687.933,1213.515 689.375,1214.364 690.816,1215.214 692.579,1215.849 694.200,1216.065 695.757,1216.272 697.241,1216.097 698.908,1215.716 700.939,1215.252 703.443,1214.398 705.436,1213.143 707.530,1211.824 709.478,1209.936 711.113,1207.870 712.859,1205.664 713.812,1200.733 715.472,1200.198 716.590,1199.837 718.168,1201.050 719.107,1201.865 719.995,1202.637 720.534,1203.639 721.039,1204.879 721.710,1206.529 722.210,1208.847 722.314,1211.081 722.434,1213.668 721.963,1216.791 721.386,1219.512 720.823,1222.174 719.981,1224.976 718.929,1227.242 718.012,1229.216 717.049,1230.843 715.647,1232.455 714.086,1234.250 710.197,1237.688 709.817,1237.375 709.384,1237.020 712.137,1232.573 714.583,1228.732 720.115,1220.047 738.759,1196.412 744.329,1187.949 746.733,1184.298 747.602,1182.778 749.113,1179.862 750.783,1176.637 753.119,1171.947 753.816,1169.380 754.194,1167.988 754.555,1166.383 754.181,1166.022 753.956,1165.805 753.393,1165.856 752.967,1166.197 751.517,1167.355 749.077,1175.624 747.890,1179.493 747.004,1182.380 746.400,1184.247 746.077,1187.213 745.652,1191.121 745.321,1196.563 746.269,1200.979 747.225,1205.428 749.497,1209.978 751.828,1213.800 754.027,1217.404 757.094,1220.961 759.701,1223.408 761.711,1225.295 763.886,1226.729 765.702,1227.720 767.033,1228.447 768.099,1228.857 769.397,1229.182 770.746,1229.518 772.330,1229.759 773.660,1229.666 774.858,1229.581 775.969,1229.326 777.033,1228.790 778.207,1228.199 779.170,1227.386 780.333,1226.123 782.181,1224.117 784.943,1220.028 786.357,1217.274 787.455,1215.137 788.114,1213.490 788.578,1211.217 789.135,1208.489 789.582,1204.230 789.055,1201.935 788.710,1200.437 788.052,1199.037 787.144,1198.462 786.358,1197.964 785.151,1198.058 784.176,1198.280 783.097,1198.525 781.944,1199.051 780.992,1200.051 779.591,1201.524 778.374,1204.703 777.501,1207.134 776.649,1209.508 775.584,1212.390 775.776,1214.456 775.924,1216.055 776.459,1217.406 777.600,1218.578 779.179,1220.200 782.983,1221.603 785.398,1222.286 787.314,1222.827 788.697,1223.179 790.798,1222.865 794.035,1222.382 799.351,1220.446 802.655,1217.809 806.101,1215.058 809.258,1209.911 810.879,1206.449 812.035,1203.981 812.244,1201.886 812.638,1199.542 813.035,1197.178 813.457,1194.472 813.243,1192.323 813.066,1190.532 812.503,1188.998 811.843,1187.485 811.195,1185.996 810.668,1184.370 809.338,1183.306 807.651,1181.955 803.646,1180.774 801.886,1180.843 800.898,1180.882 799.747,1181.306 799.605,1181.800 799.464,1182.292 800.139,1183.051 801.013,1183.797 803.357,1185.798 812.824,1188.986 816.775,1191.541 819.461,1193.278 821.778,1194.900 823.026,1196.717 823.944,1198.052 824.153,1199.381 824.426,1200.871 824.726,1202.510 824.934,1204.081 824.625,1206.172 824.146,1209.413 821.881,1215.058 820.482,1218.228 819.513,1220.424 817.853,1222.219 817.548,1223.594 817.376,1224.366 817.413,1224.956 817.670,1225.519 817.942,1226.118 818.391,1226.580 819.220,1227.050 820.979,1228.047 825.696,1229.084 828.718,1229.500 831.392,1229.869 834.652,1230.044 836.401,1229.666 837.380,1229.453 837.850,1228.968 838.574,1228.619 "/>
		<path fill="none" stroke="#66B032" stroke-width="1.00" stroke-linecap="round" stroke-linejoin="round" d="M741.278 1173.869C753.947,1175.147 766.616,1176.426 779.284,1177.705 "/>
		<path fill="none" stroke="#66B032" stroke-width="1.00" stroke-linecap="round" stroke-linejoin="round" d="M686.831 1169.665C685.322,1170.131 683.241,1170.285 682.305,1171.062 681.635,1171.617 681.328,1172.534 681.175,1173.208 681.053,1173.741 680.995,1174.339 681.230,1174.728 681.478,1175.138 682.095,1175.544 682.692,1175.565 683.595,1175.595 685.320,1174.798 686.155,1173.886 687.053,1172.906 687.711,1170.879 687.738,1169.725 687.758,1168.915 687.283,1168.335 687.056,1167.639 "/>
		<path fill="none" stroke="#66B032" stroke-width="1.00" stroke-linecap="round" stroke-linejoin="round" d="M515.542 1086.663C515.532,1115.854 514.983,1155.672 515.512,1174.234 515.760,1182.898 515.996,1185.989 516.606,1193.280 517.433,1203.163 519.784,1216.810 520.442,1228.123 521.064,1238.801 520.300,1250.387 520.649,1259.351 520.914,1266.142 521.764,1272.682 521.926,1277.233 522.026,1280.037 522.103,1281.570 521.926,1284.040 521.712,1287.021 521.200,1290.569 520.507,1293.861 519.787,1297.282 516.859,1302.608 517.631,1304.183 518.010,1304.955 518.935,1304.908 520.011,1305.156 522.031,1305.622 525.160,1305.588 529.062,1305.750 536.184,1306.046 547.525,1306.582 559.272,1306.273 575.761,1305.840 600.314,1303.094 618.654,1302.122 634.459,1301.285 647.449,1301.272 662.831,1300.527 679.671,1299.712 698.793,1298.001 715.713,1297.312 731.304,1296.677 743.951,1296.552 760.684,1296.378 781.815,1296.159 811.234,1297.047 832.415,1296.378 849.286,1295.845 872.580,1297.719 877.833,1293.505 879.790,1291.936 879.327,1289.480 879.589,1287.440 879.845,1285.446 879.656,1284.216 879.429,1281.406 878.897,1274.806 875.803,1257.042 874.967,1248.391 874.429,1242.823 874.335,1240.820 874.162,1234.613 873.803,1221.702 874.951,1193.429 874.322,1174.924 873.774,1158.801 871.648,1144.548 871.125,1129.725 870.620,1115.410 877.642,1094.729 871.130,1087.462 865.468,1081.143 850.917,1084.671 839.372,1083.975 825.618,1083.146 809.313,1083.285 794.025,1083.471 778.375,1083.663 765.142,1083.923 746.533,1085.160 719.870,1086.932 683.609,1092.967 649.434,1094.631 611.405,1096.483 547.809,1095.161 528.629,1094.644 522.628,1094.482 520.755,1094.218 516.819,1094.005 "/>
	</g>
	<g>
		<path fill="none" stroke="#66B032" stroke-width="1.00" stroke-linecap="round" stroke-linejoin="round" d="M267.591 664.437C271.063,652.661 274.787,640.965 278.007,629.107 281.233,617.225 283.831,593.175 286.924,593.215 290.692,593.264 294.833,633.877 298.764,646.794 301.075,654.387 303.244,659.576 305.680,664.450 307.538,668.168 309.574,671.582 311.482,673.836 312.785,675.377 314.065,676.100 315.356,677.232 "/>
		<path fill="none" stroke="#66B032" stroke-width="1.00" stroke-linecap="round" stroke-linejoin="round" d="M278.679 651.927C286.583,650.866 294.487,649.804 302.390,648.743 "/>
		<path fill="none" stroke="#66B032" stroke-width="1.00" stroke-linecap="round" stroke-linejoin="round" d="M325.876 666.427C325.905,665.095 325.492,663.840 325.962,662.431 326.621,660.457 328.595,657.798 330.542,656.055 332.580,654.232 335.870,652.235 338.040,651.844 339.529,651.575 341.241,651.891 342.041,652.468 342.596,652.869 342.757,653.397 342.935,654.202 343.275,655.730 342.970,658.266 342.659,661.241 342.109,666.493 338.443,678.471 338.962,682.876 339.202,684.910 339.741,686.430 340.803,687.183 341.819,687.903 343.564,687.618 345.084,687.467 346.877,687.289 348.788,686.984 350.849,685.907 353.915,684.304 358.545,680.305 360.969,677.395 362.846,675.141 363.870,672.884 364.892,670.501 365.887,668.180 366.971,665.326 367.065,663.297 367.133,661.841 366.630,660.666 366.296,659.504 366.000,658.471 365.982,657.453 365.225,656.645 364.138,655.484 361.142,654.217 359.487,654.057 358.298,653.942 357.384,654.140 356.319,654.802 354.655,655.836 352.357,658.812 351.264,660.932 350.330,662.744 349.458,665.059 349.759,666.534 349.991,667.672 350.859,668.623 351.884,669.247 353.177,670.035 355.065,670.202 357.275,670.274 360.757,670.388 365.746,669.598 370.797,668.607 377.439,667.306 393.622,662.883 393.545,662.447 393.509,662.246 390.481,662.435 388.568,662.874 385.757,663.518 381.737,664.861 378.487,666.730 374.861,668.817 369.445,672.861 368.025,675.172 367.353,676.266 367.163,677.333 367.397,678.115 367.600,678.793 368.242,679.279 369.003,679.701 370.148,680.336 372.234,680.807 373.967,680.887 375.840,680.974 377.932,680.664 379.863,680.046 381.937,679.383 384.157,678.155 385.966,676.887 387.680,675.684 389.102,674.320 390.502,672.699 392.042,670.916 393.478,668.457 394.715,666.533 395.768,664.895 397.034,663.332 397.509,661.904 397.865,660.836 397.892,658.906 397.809,658.893 397.649,658.867 395.407,666.518 395.282,669.898 395.176,672.749 395.469,676.212 396.494,677.836 397.153,678.881 398.083,679.190 399.241,679.703 400.848,680.415 403.321,681.286 405.461,681.207 407.792,681.121 410.363,679.937 412.690,678.884 415.091,677.798 417.395,676.572 419.629,674.736 422.276,672.561 424.983,669.347 427.237,666.301 429.515,663.221 431.693,659.834 433.207,656.343 434.697,652.909 435.641,649.333 436.293,645.542 436.991,641.490 437.423,636.832 437.095,632.734 436.786,628.866 435.557,625.106 434.577,621.588 433.674,618.341 432.855,615.018 431.510,612.351 430.339,610.030 428.747,607.127 427.266,606.324 426.348,605.826 425.386,605.918 424.435,606.221 423.218,606.609 421.961,607.548 420.750,609.043 418.601,611.693 416.248,617.466 414.466,622.223 412.506,627.457 410.833,633.105 409.722,639.246 408.460,646.225 407.496,656.629 407.760,661.990 407.906,664.953 408.231,666.805 409.039,668.844 409.788,670.733 411.035,672.458 412.267,673.882 413.390,675.179 414.355,676.289 416.025,677.136 418.353,678.316 422.371,679.258 425.443,679.291 428.372,679.323 430.792,678.568 434.045,677.520 438.672,676.029 445.196,673.456 450.266,670.266 455.557,666.935 461.847,661.048 465.036,657.750 466.808,655.918 469.073,653.481 468.746,653.065 468.323,652.523 462.550,655.177 459.553,657.244 455.898,659.765 451.153,664.871 448.887,667.814 447.532,669.574 446.744,670.994 446.207,672.471 445.776,673.656 445.517,674.676 445.605,675.882 445.708,677.297 446.258,679.207 447.105,680.409 447.897,681.534 448.924,682.397 450.393,682.978 452.523,683.821 456.429,684.391 459.131,683.771 461.822,683.153 464.684,681.035 466.578,679.289 468.152,677.838 469.158,676.092 470.081,674.415 470.940,672.856 471.722,671.402 472.024,669.603 472.380,667.492 472.369,664.469 471.665,662.464 471.053,660.720 469.844,659.087 468.504,658.082 467.233,657.128 465.392,656.539 463.917,656.453 462.588,656.376 461.060,656.656 460.063,657.335 459.100,657.991 458.327,659.405 457.980,660.380 457.714,661.132 457.697,661.678 457.800,662.565 457.970,664.033 458.627,666.474 459.648,668.275 460.792,670.295 462.967,672.727 464.605,673.950 465.774,674.823 466.685,675.421 468.091,675.546 470.081,675.724 472.839,675.088 475.528,673.638 479.823,671.321 487.463,659.739 490.019,660.457 491.608,660.903 491.577,665.036 492.151,667.719 492.838,670.934 492.066,678.013 493.624,678.493 495.414,679.044 500.968,667.547 503.211,667.849 504.836,668.068 505.715,672.259 506.586,674.564 507.438,676.819 508.142,679.396 508.415,681.518 508.638,683.253 508.411,684.726 508.409,686.330 "/>
		<path fill="none" stroke="#66B032" stroke-width="1.00" stroke-linecap="round" stroke-linejoin="round" d="M321.611 721.301C317.963,719.287 314.480,716.595 310.667,715.260 306.980,713.970 302.906,713.194 299.142,713.296 295.488,713.394 290.247,714.317 288.400,715.730 287.412,716.485 286.949,717.579 286.924,718.511 286.900,719.427 287.484,720.280 288.208,721.273 289.376,722.875 291.748,724.855 294.024,726.649 296.815,728.849 299.581,730.749 303.921,733.259 311.413,737.593 329.501,745.688 335.705,749.001 338.333,750.405 339.734,750.908 341.225,752.171 342.539,753.283 344.710,754.932 344.357,755.988 343.740,757.832 334.616,758.929 329.727,759.539 324.953,760.135 320.069,759.660 315.368,759.684 310.831,759.707 307.450,759.961 301.993,759.684 293.328,759.245 279.627,757.410 268.444,756.272 "/>
		<path fill="none" stroke="#66B032" stroke-width="1.00" stroke-linecap="round" stroke-linejoin="round" d="M354.592 761.105C357.358,760.244 360.189,759.771 362.889,758.521 365.789,757.179 368.688,755.290 371.359,753.150 374.196,750.878 376.811,748.071 379.357,745.152 382.057,742.055 385.045,738.463 387.051,735.008 388.861,731.891 390.332,728.658 391.116,725.478 391.842,722.537 391.986,719.225 391.828,716.646 391.703,714.605 391.687,712.831 390.711,711.210 389.555,709.288 386.681,706.964 384.699,706.248 383.201,705.707 381.689,706.019 380.242,706.232 378.809,706.444 377.230,706.776 376.058,707.511 374.927,708.221 374.189,709.238 373.288,710.504 372.062,712.228 370.560,714.713 369.737,717.170 368.838,719.850 368.580,723.049 368.329,726.050 368.074,729.097 367.924,731.762 368.240,735.319 368.677,740.245 370.023,748.796 371.537,752.789 372.410,755.092 373.389,756.383 374.571,757.870 375.687,759.274 376.736,760.470 378.375,761.527 380.503,762.900 383.958,764.124 386.636,764.826 389.015,765.449 391.179,765.810 393.593,765.755 396.233,765.695 398.732,765.045 401.853,764.268 406.096,763.212 414.520,760.993 416.625,759.540 417.359,759.034 417.906,758.523 417.799,758.066 417.637,757.372 415.172,756.670 413.861,756.221 412.646,755.805 411.698,755.511 410.221,755.400 407.988,755.231 403.757,755.548 401.714,756.005 400.504,756.275 399.766,756.467 398.918,757.085 397.908,757.822 396.683,759.042 396.245,760.395 395.737,761.964 395.928,764.734 396.546,766.109 397.000,767.121 397.826,767.794 398.749,768.286 399.786,768.840 401.223,769.022 402.574,769.067 404.077,769.116 405.954,768.943 407.367,768.414 408.670,767.927 409.707,767.134 410.804,766.159 412.100,765.009 413.362,763.241 414.491,761.777 415.553,760.400 416.729,759.112 417.410,757.636 418.063,756.222 418.200,753.108 418.564,753.129 419.142,753.163 418.476,763.881 420.144,764.755 421.331,765.377 423.380,763.460 425.441,762.061 429.006,759.641 436.415,749.292 438.789,750.302 441.199,751.326 439.080,764.029 439.604,768.610 439.922,771.398 439.860,774.024 440.839,775.283 441.484,776.111 442.481,776.335 443.512,776.512 444.785,776.730 446.349,776.715 447.971,776.101 450.432,775.169 454.094,772.225 456.290,770.008 458.158,768.123 459.570,766.050 460.643,763.949 461.634,762.010 462.377,759.847 462.650,757.925 462.888,756.248 462.809,754.717 462.457,753.089 462.071,751.300 461.367,748.554 460.256,747.666 459.457,747.027 458.083,746.920 457.275,747.174 456.557,747.400 456.153,748.133 455.562,748.843 454.738,749.834 453.617,751.224 452.971,752.712 452.239,754.399 451.910,756.344 451.613,758.538 451.238,761.302 450.462,766.323 451.231,768.026 451.609,768.866 452.236,769.108 453.019,769.480 454.102,769.996 455.700,770.397 457.341,770.379 459.523,770.355 462.434,769.446 464.949,768.622 467.574,767.762 470.378,766.631 472.758,765.262 475.025,763.957 476.915,762.611 478.953,760.669 481.461,758.279 484.732,754.211 486.356,751.632 487.415,749.952 488.299,748.527 488.457,747.143 488.584,746.034 488.119,745.038 487.792,744.032 487.464,743.022 487.172,741.965 486.488,741.096 485.707,740.106 484.270,738.922 483.171,738.557 482.305,738.270 481.362,738.340 480.585,738.591 479.823,738.836 479.195,739.298 478.545,740.018 477.573,741.094 476.588,743.131 475.830,744.881 475.022,746.747 474.353,748.750 473.909,750.918 473.414,753.333 472.995,755.925 473.153,758.742 473.343,762.112 474.327,766.965 475.486,769.751 476.289,771.681 477.062,772.737 478.444,774.269 480.351,776.382 483.764,778.594 486.425,780.757 "/>
		<path fill="none" stroke="#66B032" stroke-width="1.00" stroke-linecap="round" stroke-linejoin="round" d="M194.194 554.851C195.134,560.407 196.150,565.144 197.014,571.521 198.165,580.019 199.447,590.169 200.065,601.384 200.857,615.767 200.789,633.356 200.471,650.755 200.114,670.289 198.272,691.127 197.687,712.920 197.040,737.067 197.715,770.901 197.009,789.308 196.609,799.745 196.350,804.432 195.345,813.812 193.976,826.587 181.912,851.353 188.732,858.883 196.304,867.242 231.060,857.734 244.818,856.251 252.911,855.379 256.160,854.543 263.972,853.004 276.453,850.546 297.260,845.094 312.347,842.133 325.477,839.556 334.956,837.996 349.379,835.909 369.486,832.999 405.874,828.562 421.822,827.106 429.652,826.391 431.885,826.278 439.382,826.030 452.697,825.588 478.609,825.271 494.881,825.748 507.680,826.123 520.108,827.078 529.143,827.931 535.083,828.491 537.932,828.791 543.869,829.773 553.108,831.302 569.748,834.657 579.058,837.036 585.306,838.632 594.578,841.467 594.532,841.769 594.522,841.841 593.906,842.029 593.622,841.769 591.896,840.188 591.372,819.888 590.652,808.147 589.863,795.277 589.532,783.488 589.259,767.616 588.870,745.033 589.664,713.203 589.253,685.525 588.832,657.188 587.935,617.445 586.704,599.525 586.143,591.346 585.207,587.846 584.781,581.704 584.328,575.166 587.629,565.976 584.155,561.404 580.383,556.439 569.126,555.989 561.288,554.274 553.314,552.530 547.392,551.757 536.697,551.099 516.867,549.879 481.741,551.113 451.447,551.574 416.856,552.100 366.626,552.955 340.331,554.336 325.829,555.098 319.187,555.659 306.629,557.042 290.600,558.806 264.710,563.801 252.074,564.682 245.396,565.147 241.392,565.016 236.689,564.682 232.669,564.396 230.013,563.461 225.563,563.091 218.972,562.542 209.131,562.695 200.915,562.497 "/>
	</g>
	<g>
		<path fill="none" stroke="#8601AF" stroke-width="1.00" stroke-linecap="round" stroke-linejoin="round" d="M2222.406 654.342C2219.079,653.349 2216.067,651.947 2212.424,651.363 2208.217,650.688 2202.006,650.752 2198.538,650.976 2196.441,651.112 2195.358,651.237 2193.521,651.771 2191.092,652.478 2186.561,653.818 2185.373,655.303 2184.695,656.151 2184.805,657.131 2184.833,658.147 2184.865,659.336 2185.186,660.635 2185.783,661.996 2186.578,663.804 2188.093,665.918 2189.656,667.833 2191.431,670.009 2193.548,672.264 2196.036,674.241 2198.851,676.478 2202.435,678.501 2205.867,680.344 2209.384,682.232 2212.352,683.477 2216.906,685.404 2224.062,688.432 2241.739,693.898 2244.854,696.272 2245.651,696.880 2246.071,697.323 2246.026,697.850 2245.973,698.466 2244.978,698.988 2244.076,699.701 2242.444,700.993 2239.603,703.092 2236.708,704.528 2233.110,706.311 2228.154,707.775 2223.882,709.071 2219.731,710.329 2215.511,711.440 2211.438,712.225 2207.596,712.965 2203.994,713.454 2200.112,713.733 2196.043,714.026 2191.771,714.180 2187.554,713.876 2183.225,713.565 2178.367,712.795 2174.472,711.828 2171.202,711.017 2166.991,709.699 2165.647,708.793 2165.151,708.459 2164.783,708.128 2164.813,707.833 2164.845,707.525 2165.549,707.273 2165.917,706.993 "/>
		<path fill="none" stroke="#8601AF" stroke-width="1.00" stroke-linecap="round" stroke-linejoin="round" d="M2261.557 685.404C2260.809,685.936 2259.879,686.187 2259.313,687.000 2258.552,688.092 2258.280,690.278 2258.009,691.792 2257.773,693.113 2257.604,694.132 2257.674,695.564 2257.768,697.489 2257.876,700.458 2258.938,702.286 2259.966,704.055 2262.204,705.841 2263.822,706.435 2265.041,706.883 2266.270,706.664 2267.462,706.435 2268.699,706.197 2269.949,705.809 2271.102,704.979 2272.569,703.922 2274.187,701.800 2275.207,700.131 2276.103,698.664 2276.484,695.566 2277.087,695.606 2277.907,695.661 2278.916,701.282 2279.418,704.326 2279.952,707.560 2280.337,710.642 2280.090,714.491 2279.759,719.650 2277.953,727.894 2276.558,732.453 2275.656,735.402 2274.605,737.421 2273.581,739.506 2272.722,741.253 2271.975,742.849 2270.938,744.186 2269.992,745.407 2268.939,746.419 2267.709,747.292 2266.425,748.203 2264.676,749.104 2263.357,749.495 2262.361,749.790 2261.469,749.867 2260.595,749.792 2259.779,749.721 2258.904,749.576 2258.268,749.123 2257.597,748.645 2257.092,747.839 2256.723,746.918 2256.238,745.710 2255.950,744.025 2256.025,742.331 2256.120,740.188 2256.635,737.830 2257.788,735.108 2259.546,730.952 2263.219,725.849 2267.011,720.440 2272.092,713.192 2281.310,702.928 2286.116,695.894 2289.479,690.973 2291.931,683.569 2293.909,682.818 2294.627,682.546 2295.160,682.916 2295.817,683.426 2297.113,684.431 2298.849,687.715 2299.946,690.029 2301.028,692.312 2301.656,694.554 2302.377,697.208 2303.243,700.393 2304.485,705.488 2304.590,707.891 2304.643,709.102 2304.088,710.593 2304.266,710.641 2304.659,710.747 2307.693,701.138 2309.600,698.357 2310.792,696.617 2312.260,694.841 2313.327,694.679 2313.988,694.578 2314.437,694.964 2315.107,695.598 2316.823,697.218 2319.006,704.623 2321.774,706.884 2323.912,708.630 2327.079,709.305 2329.163,709.437 2330.646,709.531 2331.804,709.139 2333.038,708.628 2334.350,708.086 2335.372,707.479 2336.780,706.183 2339.405,703.767 2346.879,694.807 2346.329,693.922 2346.103,693.559 2344.751,693.949 2343.766,694.450 2341.877,695.413 2338.783,698.378 2336.658,700.934 2334.326,703.739 2331.852,707.935 2330.545,710.773 2329.645,712.726 2329.012,714.577 2328.884,716.004 2328.799,716.960 2328.721,717.630 2329.201,718.448 2330.008,719.823 2332.796,721.749 2334.803,722.598 2336.675,723.390 2338.754,723.491 2340.783,723.580 2342.864,723.670 2344.851,723.746 2347.138,723.098 2350.180,722.236 2354.329,719.875 2357.160,717.926 2359.579,716.260 2361.231,714.739 2363.300,712.436 2366.010,709.419 2368.797,704.783 2371.545,700.955 "/>
		<path fill="none" stroke="#8601AF" stroke-width="1.00" stroke-linecap="round" stroke-linejoin="round" d="M2408.775 662.107C2423.659,664.696 2438.542,667.284 2453.426,669.873 "/>
		<path fill="none" stroke="#8601AF" stroke-width="1.00" stroke-linecap="round" stroke-linejoin="round" d="M2431.101 665.020C2431.047,673.863 2432.470,684.131 2430.939,691.551 2429.751,697.307 2427.494,701.988 2424.710,706.250 2422.080,710.279 2418.473,714.006 2414.923,716.627 2411.755,718.966 2407.567,721.129 2404.731,721.642 2402.872,721.978 2399.989,721.646 2399.877,721.157 2399.772,720.696 2401.895,719.517 2403.573,718.904 2406.449,717.855 2411.744,717.154 2416.135,716.976 2420.930,716.781 2427.302,717.206 2431.251,718.054 2433.925,718.628 2435.600,719.651 2437.775,720.449 "/>
		<path fill="none" stroke="#8601AF" stroke-width="1.00" stroke-linecap="round" stroke-linejoin="round" d="M2452.456 723.583C2453.503,720.834 2454.003,717.671 2455.597,715.335 2457.156,713.052 2460.078,710.220 2461.839,709.670 2462.838,709.358 2463.803,709.598 2464.528,710.027 2465.271,710.468 2465.703,711.441 2466.216,712.328 2466.822,713.377 2467.472,714.607 2467.825,715.980 2468.239,717.591 2467.503,721.193 2468.310,721.456 2469.475,721.835 2474.396,713.226 2475.839,712.818 2476.281,712.694 2476.509,712.839 2476.865,713.139 2477.711,713.854 2478.813,716.199 2479.634,718.568 2480.992,722.485 2481.792,729.461 2482.870,734.908 "/>
		<path fill="none" stroke="#8601AF" stroke-width="1.00" stroke-linecap="round" stroke-linejoin="round" d="M2133.104 603.269C2132.565,625.217 2131.762,643.898 2131.486,669.112 2131.115,703.128 2117.771,774.993 2131.810,788.993 2139.382,796.544 2152.625,789.227 2166.682,788.991 2188.194,788.632 2225.800,786.698 2248.309,786.270 2264.179,785.968 2275.789,785.854 2288.910,786.079 2301.264,786.291 2308.675,787.138 2324.875,787.482 2358.590,788.198 2448.128,786.185 2480.749,788.021 2495.739,788.864 2505.674,791.184 2513.469,791.600 2517.784,791.831 2521.692,792.548 2523.553,791.580 2524.562,791.055 2524.761,790.673 2525.256,789.158 2527.943,780.931 2525.887,726.547 2526.874,701.866 2527.601,683.663 2529.322,669.571 2529.786,654.463 2530.210,640.648 2536.186,621.564 2529.786,614.756 2523.770,608.357 2509.110,612.897 2494.777,612.592 2472.020,612.106 2430.272,614.298 2406.363,614.279 2390.045,614.266 2378.716,614.256 2365.183,613.426 2351.961,612.616 2339.159,611.053 2326.072,609.432 2312.812,607.789 2297.782,604.964 2286.136,603.613 2277.135,602.569 2271.277,602.546 2262.118,601.536 2249.802,600.178 2231.499,596.556 2218.916,595.737 2209.232,595.107 2202.519,595.214 2193.095,595.828 2181.594,596.576 2165.922,598.942 2154.944,600.681 2146.537,602.012 2140.169,603.485 2132.781,604.887 "/>
	</g>
	<path fill="none" stroke="#66B032" stroke-width="1.00" stroke-linecap="round" stroke-linejoin="round" d="M523.456 872.864C532.003,861.199 543.889,841.093 549.097,837.870 550.639,836.916 551.416,836.743 552.844,837.227 555.833,838.239 560.215,844.094 564.162,849.435 570.134,857.516 576.904,871.418 583.275,882.409 "/>
	<path fill="none" stroke="#66B032" stroke-width="1.00" stroke-linecap="round" stroke-linejoin="round" d="M544.775 857.909C544.669,864.434 544.229,869.116 544.457,877.484 544.865,892.485 546.941,918.495 548.905,940.257 551.040,963.918 555.782,992.392 557.015,1014.210 557.988,1031.437 557.128,1045.132 557.184,1060.594 "/>
	<path fill="none" stroke="#66B032" stroke-width="1.00" stroke-linecap="round" stroke-linejoin="round" d="M567.684 865.864C567.790,886.281 567.415,906.855 568.002,927.115 568.581,947.090 569.054,966.904 571.142,986.582 573.222,1006.192 579.219,1032.458 580.486,1044.981 581.081,1050.867 581.899,1056.228 581.048,1058.037 580.751,1058.670 580.200,1058.681 579.775,1059.003 "/>
	<path fill="none" stroke="#66B032" stroke-width="1.00" stroke-linecap="round" stroke-linejoin="round" d="M543.820 1039.275C543.750,1039.984 543.406,1040.417 543.610,1041.401 544.188,1044.185 548.323,1050.858 551.933,1056.361 556.884,1063.907 568.348,1080.355 571.502,1081.912 572.208,1082.261 572.436,1082.223 573.114,1081.912 575.303,1080.909 580.030,1074.551 584.086,1069.178 590.222,1061.050 598.182,1047.758 605.230,1037.048 "/>
	<path fill="none" stroke="#66B032" stroke-width="1.00" stroke-linecap="round" stroke-linejoin="round" d="M840.111 1048.266C840.302,1021.150 842.127,998.508 840.686,966.917 838.664,922.584 826.273,847.973 824.972,807.478 824.174,782.640 825.624,767.137 827.022,747.244 828.401,727.616 831.988,705.954 833.248,688.900 834.229,675.641 829.204,659.673 834.711,653.464 839.270,648.323 848.385,650.217 858.711,649.564 877.176,648.396 912.618,651.851 936.418,652.264 956.632,652.615 972.703,653.034 992.511,652.264 1014.893,651.394 1040.936,647.819 1063.908,646.704 1085.279,645.667 1107.209,645.658 1125.875,645.512 1141.258,645.392 1152.030,645.177 1167.972,645.664 1188.974,646.306 1238.999,655.219 1240.922,649.864 1242.271,646.104 1220.839,634.258 1211.859,628.596 1204.708,624.087 1194.696,618.249 1191.752,617.784 1190.981,617.662 1190.263,617.766 1190.212,618.064 1189.929,619.734 1219.993,635.620 1232.994,642.353 1243.490,647.789 1255.644,652.396 1262.019,655.995 1265.354,657.878 1269.531,659.457 1269.314,660.866 1269.018,662.790 1258.992,663.553 1253.600,665.435 1247.658,667.509 1238.227,670.958 1235.212,672.964 1234.047,673.739 1233.812,674.364 1233.112,675.064 "/>
	<path fill="none" stroke="#66B032" stroke-width="1.00" stroke-linecap="round" stroke-linejoin="round" d="M817.911 1004.465C818.808,1007.094 819.060,1008.691 820.604,1012.351 824.513,1021.613 840.018,1053.263 844.754,1059.952 846.191,1061.981 846.636,1063.209 848.150,1063.505 850.212,1063.907 854.010,1061.698 856.465,1059.763 859.234,1057.580 861.277,1053.945 863.565,1050.593 866.104,1046.874 868.362,1043.526 870.892,1038.344 874.820,1030.299 879.171,1016.958 883.311,1006.265 "/>
	<path fill="none" stroke="#66B032" stroke-width="1.00" stroke-linecap="round" stroke-linejoin="round" d="M861.724 1320.260C861.521,1325.201 861.054,1328.651 861.117,1335.085 861.234,1347.106 863.456,1367.952 864.243,1386.773 865.189,1409.387 854.993,1451.890 865.977,1461.510 874.375,1468.866 892.905,1457.969 909.419,1456.758 931.198,1455.162 961.516,1454.242 985.366,1453.916 1006.591,1453.626 1023.978,1453.733 1045.557,1454.524 1070.716,1455.446 1100.370,1458.787 1127.215,1459.688 1153.280,1460.563 1178.562,1458.794 1204.352,1459.991 1230.403,1461.202 1255.861,1465.642 1282.742,1466.978 1311.101,1468.387 1349.433,1466.851 1370.324,1467.889 1382.000,1468.470 1386.027,1468.835 1397.572,1470.319 1417.980,1472.943 1458.886,1481.074 1481.880,1484.509 1497.726,1486.876 1512.476,1489.139 1522.139,1489.766 1527.540,1490.115 1532.573,1491.337 1534.821,1489.760 1536.299,1488.724 1536.595,1486.606 1536.690,1484.609 1536.818,1481.930 1535.362,1478.389 1534.225,1475.062 1532.909,1471.213 1531.074,1466.772 1529.011,1462.933 1526.974,1459.141 1524.966,1455.914 1521.948,1452.155 1518.047,1447.298 1511.115,1440.160 1506.919,1436.752 1504.356,1434.670 1502.599,1433.546 1500.141,1432.440 1497.598,1431.295 1493.752,1430.263 1491.874,1430.067 1490.931,1429.969 1489.881,1429.833 1489.710,1430.223 1489.417,1430.891 1491.807,1433.364 1493.679,1435.206 1496.771,1438.248 1500.971,1440.985 1507.453,1445.810 1522.390,1456.929 1583.221,1485.030 1582.380,1499.730 1581.703,1511.554 1543.750,1520.770 1530.252,1528.850 1521.424,1534.134 1515.913,1538.027 1508.744,1542.616 "/>
	<path fill="none" stroke="#66B032" stroke-width="1.00" stroke-linecap="round" stroke-linejoin="round" d="M862.332 1324.512C861.927,1324.512 861.533,1324.255 861.117,1324.512 860.093,1325.145 859.173,1327.898 857.836,1331.074 854.624,1338.700 847.741,1361.907 843.983,1371.053 841.949,1376.002 838.706,1382.259 838.638,1382.228 838.478,1382.154 865.966,1318.778 866.888,1319.044 867.050,1319.091 866.379,1320.047 866.584,1321.171 867.675,1327.127 889.808,1361.841 895.732,1374.000 898.739,1380.172 899.791,1383.535 901.821,1388.303 "/>
	<path fill="none" stroke="#FF0000" stroke-width="1.00" stroke-linecap="round" stroke-linejoin="round" d="M1660.440 871.215C1660.261,921.023 1657.446,972.244 1659.904,1020.638 1662.238,1066.605 1671.073,1119.474 1674.042,1154.713 1675.970,1177.581 1676.429,1192.487 1677.622,1211.374 "/>
	<path fill="none" stroke="#FF0000" stroke-width="1.00" stroke-linecap="round" stroke-linejoin="round" d="M1690.509 877.121C1690.151,892.543 1689.169,906.327 1689.435,923.387 1689.764,944.531 1692.548,969.082 1693.294,994.368 1694.148,1023.343 1691.961,1057.837 1693.730,1087.698 1695.373,1115.425 1699.873,1145.218 1702.858,1167.649 1705.036,1184.019 1707.153,1195.895 1709.301,1210.018 "/>
	<path fill="none" stroke="#FF0000" stroke-width="1.00" stroke-linecap="round" stroke-linejoin="round" d="M1643.259 1179.950C1643.259,1180.576 1642.884,1180.905 1643.259,1181.829 1645.542,1187.449 1684.988,1221.556 1691.794,1231.707 1694.284,1235.419 1693.581,1239.333 1695.502,1240.246 1697.104,1241.009 1699.460,1239.803 1701.739,1238.497 1705.571,1236.301 1710.060,1231.255 1714.926,1225.774 1722.280,1217.491 1734.474,1200.796 1740.212,1192.428 1743.498,1187.636 1746.150,1183.772 1747.423,1180.755 1748.146,1179.041 1748.813,1176.658 1748.497,1176.459 1748.279,1176.323 1747.423,1177.354 1746.886,1177.802 "/>
	<path fill="none" stroke="#8601AF" stroke-width="1.00" stroke-linecap="round" stroke-linejoin="round" d="M2098.569 665.447C2074.484,665.612 2045.135,665.346 2026.315,665.942 2014.230,666.325 2006.667,666.377 1996.570,667.623 1985.918,668.938 1976.205,671.936 1964.004,673.858 1948.533,676.294 1933.339,679.119 1911.099,680.409 1873.525,682.589 1809.661,679.669 1758.943,679.300 "/>
	<path fill="none" stroke="#8601AF" stroke-width="1.00" stroke-linecap="round" stroke-linejoin="round" d="M2106.979 707.004C2088.576,708.109 2072.174,708.623 2051.770,710.318 2026.277,712.437 1995.571,716.740 1965.917,719.442 1934.126,722.339 1900.566,726.186 1866.972,726.965 1832.196,727.771 1796.107,724.871 1760.674,723.824 "/>
	<path fill="none" stroke="#8601AF" stroke-width="1.00" stroke-linecap="round" stroke-linejoin="round" d="M1786.400 653.079C1772.322,661.265 1755.854,670.015 1744.167,677.636 1735.387,683.362 1722.536,686.441 1721.874,693.859 1720.814,705.751 1760.260,732.901 1770.895,745.038 1776.419,751.343 1780.247,756.114 1782.849,759.968 1784.351,762.192 1786.085,764.321 1785.974,765.519 1785.916,766.148 1785.220,766.416 1784.844,766.865 "/>
	<path fill="none" stroke="#000000" stroke-width="1.00" stroke-linecap="round" stroke-linejoin="round" d="M25.843 25.964L2745.188,25.964 2745.188,1721.474 25.843,1721.474 Z"/>
</g>
</svg>
